<?xml version="1.0" encoding="UTF-8" standalone="no"?>
<svg
   width="64"
   height="64"
   version="1.1"
   viewBox="0 0 16.933 16.933"
   id="svg7"
   sodipodi:docname="Template 4.svg"
   inkscape:version="1.3.2 (091e20ef0f, 2023-11-25)"
   xmlns:inkscape="http://www.inkscape.org/namespaces/inkscape"
   xmlns:sodipodi="http://sodipodi.sourceforge.net/DTD/sodipodi-0.dtd"
   xmlns:xlink="http://www.w3.org/1999/xlink"
   xmlns="http://www.w3.org/2000/svg"
   xmlns:svg="http://www.w3.org/2000/svg"
   xmlns:rdf="http://www.w3.org/1999/02/22-rdf-syntax-ns#"
   xmlns:cc="http://creativecommons.org/ns#"
   xmlns:dc="http://purl.org/dc/elements/1.1/">
  <sodipodi:namedview
     id="namedview7"
     pagecolor="#9c4444"
     bordercolor="#000000"
     borderopacity="0.25"
     inkscape:showpageshadow="2"
     inkscape:pageopacity="0.0"
     inkscape:pagecheckerboard="0"
     inkscape:deskcolor="#d1d1d1"
     inkscape:zoom="4.3531261"
     inkscape:cx="32.849956"
     inkscape:cy="24.350317"
     inkscape:window-width="1356"
     inkscape:window-height="786"
     inkscape:window-x="35"
     inkscape:window-y="32"
     inkscape:window-maximized="0"
     inkscape:current-layer="svg7"
     showgrid="false" />
  <defs
     id="defs2">
    <linearGradient
       id="linearGradient5"
       inkscape:collect="always">
      <stop
         style="stop-color:#392713;stop-opacity:1;"
         offset="0"
         id="stop2" />
      <stop
         style="stop-color:#eed59e;stop-opacity:1;"
         offset="0.5"
         id="stop3" />
      <stop
         style="stop-color:#beaa8a;stop-opacity:1;"
         offset="1"
         id="stop4" />
    </linearGradient>
    <linearGradient
       id="linearGradient8"
       inkscape:collect="always">
      <stop
         style="stop-color:#1a1a1a;stop-opacity:1;"
         offset="0"
         id="stop8" />
      <stop
         style="stop-color:#ffffff;stop-opacity:0;"
         offset="1"
         id="stop9" />
    </linearGradient>
    <linearGradient
       inkscape:collect="always"
       xlink:href="#linearGradient5"
       id="linearGradient41"
       x1="13.675659"
       y1="16.110115"
       x2="13.728528"
       y2="10.548769"
       gradientUnits="userSpaceOnUse"
       gradientTransform="matrix(2.046153,0,0,2.046153,-18.798306,-18.911347)" />
    <linearGradient
       inkscape:collect="always"
       xlink:href="#linearGradient42"
       id="linearGradient4"
       x1="11.885941"
       y1="16.50819"
       x2="12.026573"
       y2="10.244942"
       gradientUnits="userSpaceOnUse"
       gradientTransform="matrix(2.046153,0,0,2.046153,-18.798306,-18.911347)" />
    <linearGradient
       id="linearGradient42"
       inkscape:collect="always">
      <stop
         style="stop-color:#010101;stop-opacity:1;"
         offset="0"
         id="stop42" />
      <stop
         style="stop-color:#6e6c6d;stop-opacity:1;"
         offset="1"
         id="stop43" />
    </linearGradient>
    <linearGradient
       inkscape:collect="always"
       xlink:href="#linearGradient8"
       id="linearGradient9"
       x1="9.3404646"
       y1="4.1692023"
       x2="9.4279938"
       y2="16.46883"
       gradientUnits="userSpaceOnUse"
       gradientTransform="matrix(1.05,0,0,1.05,-0.50277005,-0.1977751)" />
    <filter
       style="color-interpolation-filters:sRGB;"
       inkscape:label="Blur"
       id="filter2"
       x="-0.14510849"
       y="-0.14612901"
       width="1.290217"
       height="1.292258">
      <feGaussianBlur
         stdDeviation="0.6 0.6"
         result="blur"
         id="feGaussianBlur2" />
    </filter>
    <linearGradient
       inkscape:collect="always"
       xlink:href="#linearGradient5"
       id="linearGradient8-5"
       x1="33.888981"
       y1="49.809341"
       x2="34.194759"
       y2="14.717422"
       gradientUnits="userSpaceOnUse"
       gradientTransform="matrix(0.23573911,0,0,0.23573911,0.93911,0.93373711)" />
  </defs>
  <metadata
     id="metadata2">
    <rdf:RDF>
      <cc:Work
         rdf:about="">
        <dc:format>image/svg+xml</dc:format>
        <dc:type
           rdf:resource="http://purl.org/dc/dcmitype/StillImage" />
      </cc:Work>
    </rdf:RDF>
  </metadata>
  <rect
     style="fill:#000000;fill-opacity:0.996424;stroke:#000000;stroke-width:0.911802;stroke-dasharray:none;stroke-opacity:1;filter:url(#filter2)"
     id="rect1-2-3"
     width="13.065404"
     height="12.974159"
     x="1.9816793"
     y="1.9267306"
     rx="2.7149384"
     ry="2.8310909" />
  <rect
     style="fill:url(#linearGradient4);fill-opacity:0.996424;stroke:url(#linearGradient41);stroke-width:0.911802;stroke-dasharray:none;stroke-opacity:1"
     id="rect1-2"
     width="13.065404"
     height="12.974159"
     x="1.9816793"
     y="1.9267306"
     rx="2.7149384"
     ry="2.8310909" />
  <path
     style="fill:#000000;fill-opacity:1;stroke:none;stroke-width:0.282392;stroke-dasharray:none;stroke-dashoffset:2.2;stroke-opacity:0.3;opacity:0.3"
     d="M 6.2702322,12.77424 5.872846,12.271573 5.4917794,12.271452 C 5.039456,12.271308 4.9270777,12.226341 4.8676125,12.021748 4.8422205,11.934395 4.8346321,10.904675 4.8415157,8.4822271 l 0.00971,-3.4163382 0.1211571,-0.1110257 0.121157,-0.1110255 h 3.4240363 c 3.7596684,0 3.5579334,-0.010663 3.6635334,0.1935517 0.04308,0.0833 0.0492,0.5253913 0.0492,3.5506295 v 3.4554821 l -0.09465,0.105931 -0.09464,0.105923 -2.2719766,0.0087 -2.27198,0.0087 -0.3962398,0.502109 c -0.217932,0.276167 -0.404562,0.502077 -0.4147334,0.50203 -0.010141,-4.6e-5 -0.1973176,-0.226285 -0.4158808,-0.50275 z M 6.556227,11.070318 c 0.056569,-0.03028 0.062739,-0.07109 0.062739,-0.415175 0,-0.253551 -0.013064,-0.394659 -0.038926,-0.42052 -0.053676,-0.05368 -0.7766733,-0.05368 -0.830349,0 -0.025646,0.02565 -0.038925,0.163105 -0.038925,0.403125 0,0.471985 -0.00555,0.466146 0.4423291,0.466146 0.1872141,0 0.3686214,-0.01512 0.4031282,-0.03358 z m 4.594031,-0.02998 c 0.240397,-0.146578 0.286529,-0.496359 0.09329,-0.707263 l -0.111021,-0.121157 -1.6566708,-0.009 c -1.4559222,-0.0079 -1.6686439,-0.0028 -1.7554648,0.04212 -0.3037437,0.157072 -0.3004585,0.652725 0.00533,0.803365 0.097692,0.04812 0.2838261,0.05405 1.7151431,0.05461 1.5359155,5.9e-4 1.6100645,-0.0022 1.7094005,-0.06269 z M 6.5468774,8.9775284 c 0.067145,-0.047028 0.072087,-0.075232 0.072087,-0.4109988 0,-0.4802998 0.00106,-0.4791391 -0.4484619,-0.4791391 -0.4617311,0 -0.4597341,-0.00205 -0.4597341,0.473503 0,0.4618035 0.00523,0.4671274 0.4540976,0.4671274 0.2280069,0 0.3289754,-0.013345 0.3820098,-0.050493 z m 4.5629866,-0.013692 c 0.16504,-0.079894 0.250096,-0.2186843 0.250096,-0.4080886 0,-0.1810362 -0.08403,-0.3288453 -0.231948,-0.407929 -0.105773,-0.056556 -0.213455,-0.060431 -1.6795812,-0.060431 -1.6897596,0 -1.6936384,3.536e-4 -1.852949,0.1731565 -0.099411,0.1078295 -0.1293496,0.3586118 -0.059035,0.4945857 0.06389,0.1235513 0.1561864,0.2051191 0.2710398,0.2395376 0.050976,0.015278 0.7850336,0.02903 1.63124,0.030563 1.4698754,0.00265 1.5444754,-7.73e-5 1.6711394,-0.061393 z M 6.5800423,6.8807891 c 0.053676,-0.053677 0.053676,-0.7766729 0,-0.8303492 -0.053676,-0.053677 -0.7766734,-0.053677 -0.830349,0 -0.053676,0.053677 -0.053676,0.7766723 0,0.8303492 0.053676,0.053677 0.7766732,0.053677 0.830349,0 z m 4.5465177,-0.00924 c 0.316275,-0.1635524 0.316275,-0.6483143 0,-0.8118667 -0.142441,-0.07366 -3.2650547,-0.071768 -3.4078302,0.00205 -0.2894012,0.1496549 -0.3011385,0.6228101 -0.019703,0.7944086 0.099315,0.060556 0.1742736,0.063322 1.7191197,0.063436 1.3652385,1.026e-4 1.6296965,-0.00733 1.7084185,-0.048043 z"
     id="path79-0" />
  <path
     style="fill:url(#linearGradient8-5);fill-opacity:1;stroke:none;stroke-width:0.282392;stroke-dasharray:none;stroke-dashoffset:2.2;stroke-opacity:0.3"
     d="M 6.2702322,12.245084 5.872846,11.742417 5.4917794,11.742296 C 5.039456,11.742152 4.9270777,11.697185 4.8676125,11.492592 4.8422205,11.405239 4.8346321,10.375519 4.8415157,7.9530709 L 4.8512282,4.5367327 4.9723853,4.425707 5.0935423,4.3146815 h 3.4240363 c 3.7596684,0 3.5579334,-0.010663 3.6635334,0.1935517 0.04308,0.0833 0.0492,0.5253913 0.0492,3.5506295 v 3.4554823 l -0.09465,0.105931 -0.09464,0.105923 -2.2719766,0.0087 -2.27198,0.0087 -0.3962398,0.502109 c -0.217932,0.276167 -0.404562,0.502077 -0.4147334,0.50203 -0.010141,-4.6e-5 -0.1973176,-0.226285 -0.4158808,-0.50275 z M 6.556227,10.541162 c 0.056569,-0.03028 0.062739,-0.07109 0.062739,-0.415175 0,-0.2535511 -0.013064,-0.3946593 -0.038926,-0.4205203 -0.053676,-0.053677 -0.7766733,-0.053677 -0.830349,0 -0.025646,0.025651 -0.038925,0.1631046 -0.038925,0.4031253 0,0.471985 -0.00555,0.466146 0.4423291,0.466146 0.1872141,0 0.3686214,-0.01512 0.4031282,-0.03358 z m 4.594031,-0.02998 c 0.240397,-0.146578 0.286529,-0.496359 0.09329,-0.7072632 L 11.132527,9.6827616 9.4758562,9.6737941 c -1.4559222,-0.00788 -1.6686439,-0.00277 -1.7554648,0.042119 -0.3037437,0.1570717 -0.3004585,0.6527249 0.00533,0.8033649 0.097692,0.04812 0.2838261,0.05405 1.7151431,0.05461 1.5359155,5.9e-4 1.6100645,-0.0022 1.7094005,-0.06269 z M 6.5468774,8.4483722 c 0.067145,-0.047028 0.072087,-0.075232 0.072087,-0.4109988 0,-0.4802998 0.00106,-0.4791391 -0.4484619,-0.4791391 -0.4617311,0 -0.4597341,-0.00205 -0.4597341,0.473503 0,0.4618035 0.00523,0.4671274 0.4540976,0.4671274 0.2280069,0 0.3289754,-0.013345 0.3820098,-0.050493 z m 4.5629866,-0.013692 c 0.16504,-0.079894 0.250096,-0.2186843 0.250096,-0.4080886 0,-0.1810362 -0.08403,-0.3288453 -0.231948,-0.407929 -0.105773,-0.056556 -0.213455,-0.060431 -1.6795812,-0.060431 -1.6897596,0 -1.6936384,3.536e-4 -1.852949,0.1731565 -0.099411,0.1078295 -0.1293496,0.3586118 -0.059035,0.4945857 0.06389,0.1235513 0.1561864,0.2051191 0.2710398,0.2395376 0.050976,0.015278 0.7850336,0.02903 1.63124,0.030563 1.4698754,0.00265 1.5444754,-7.73e-5 1.6711394,-0.061393 z M 6.5800423,6.3516329 c 0.053676,-0.053677 0.053676,-0.7766729 0,-0.8303492 -0.053676,-0.053677 -0.7766734,-0.053677 -0.830349,0 -0.053676,0.053677 -0.053676,0.7766723 0,0.8303492 0.053676,0.053677 0.7766732,0.053677 0.830349,0 z m 4.5465177,-0.00924 c 0.316275,-0.1635524 0.316275,-0.6483143 0,-0.8118667 -0.142441,-0.07366 -3.2650547,-0.071768 -3.4078302,0.00205 -0.2894012,0.1496549 -0.3011385,0.6228101 -0.019703,0.7944086 0.099315,0.060556 0.1742736,0.063322 1.7191197,0.063436 1.3652385,1.026e-4 1.6296965,-0.00733 1.7084185,-0.048043 z"
     id="path79" />
  <rect
     style="opacity:0.5;fill:none;fill-opacity:0.996424;stroke:url(#linearGradient9);stroke-width:0.566102;stroke-dasharray:none;stroke-opacity:1"
     id="rect1-2-6"
     width="11.574203"
     height="11.508601"
     x="2.729686"
     y="2.6615164"
     rx="2.0246315"
     ry="2.0627522" />
</svg>
