<?xml version="1.0" encoding="UTF-8" standalone="no"?>
<svg
   width="64"
   height="64"
   version="1.1"
   viewBox="0 0 16.933 16.933"
   id="svg7"
   sodipodi:docname="Template 4.svg"
   inkscape:version="1.3.2 (091e20ef0f, 2023-11-25)"
   xmlns:inkscape="http://www.inkscape.org/namespaces/inkscape"
   xmlns:sodipodi="http://sodipodi.sourceforge.net/DTD/sodipodi-0.dtd"
   xmlns:xlink="http://www.w3.org/1999/xlink"
   xmlns="http://www.w3.org/2000/svg"
   xmlns:svg="http://www.w3.org/2000/svg"
   xmlns:rdf="http://www.w3.org/1999/02/22-rdf-syntax-ns#"
   xmlns:cc="http://creativecommons.org/ns#"
   xmlns:dc="http://purl.org/dc/elements/1.1/">
  <sodipodi:namedview
     id="namedview7"
     pagecolor="#9c4444"
     bordercolor="#000000"
     borderopacity="0.25"
     inkscape:showpageshadow="2"
     inkscape:pageopacity="0.0"
     inkscape:pagecheckerboard="0"
     inkscape:deskcolor="#d1d1d1"
     inkscape:zoom="4.3531261"
     inkscape:cx="32.849956"
     inkscape:cy="24.350317"
     inkscape:window-width="1356"
     inkscape:window-height="786"
     inkscape:window-x="35"
     inkscape:window-y="32"
     inkscape:window-maximized="0"
     inkscape:current-layer="svg7"
     showgrid="false" />
  <defs
     id="defs2">
    <linearGradient
       id="linearGradient5"
       inkscape:collect="always">
      <stop
         style="stop-color:#392713;stop-opacity:1;"
         offset="0"
         id="stop2" />
      <stop
         style="stop-color:#eed59e;stop-opacity:1;"
         offset="0.5"
         id="stop3" />
      <stop
         style="stop-color:#beaa8a;stop-opacity:1;"
         offset="1"
         id="stop4" />
    </linearGradient>
    <linearGradient
       id="linearGradient8"
       inkscape:collect="always">
      <stop
         style="stop-color:#1a1a1a;stop-opacity:1;"
         offset="0"
         id="stop8" />
      <stop
         style="stop-color:#ffffff;stop-opacity:0;"
         offset="1"
         id="stop9" />
    </linearGradient>
    <linearGradient
       inkscape:collect="always"
       xlink:href="#linearGradient5"
       id="linearGradient41"
       x1="13.675659"
       y1="16.110115"
       x2="13.728528"
       y2="10.548769"
       gradientUnits="userSpaceOnUse"
       gradientTransform="matrix(2.046153,0,0,2.046153,-18.798306,-18.911347)" />
    <linearGradient
       inkscape:collect="always"
       xlink:href="#linearGradient42"
       id="linearGradient4"
       x1="11.885941"
       y1="16.50819"
       x2="12.026573"
       y2="10.244942"
       gradientUnits="userSpaceOnUse"
       gradientTransform="matrix(2.046153,0,0,2.046153,-18.798306,-18.911347)" />
    <linearGradient
       id="linearGradient42"
       inkscape:collect="always">
      <stop
         style="stop-color:#010101;stop-opacity:1;"
         offset="0"
         id="stop42" />
      <stop
         style="stop-color:#6e6c6d;stop-opacity:1;"
         offset="1"
         id="stop43" />
    </linearGradient>
    <linearGradient
       inkscape:collect="always"
       xlink:href="#linearGradient8"
       id="linearGradient9"
       x1="9.3404646"
       y1="4.1692023"
       x2="9.4279938"
       y2="16.46883"
       gradientUnits="userSpaceOnUse"
       gradientTransform="matrix(1.05,0,0,1.05,-0.50277005,-0.1977751)" />
    <filter
       style="color-interpolation-filters:sRGB;"
       inkscape:label="Blur"
       id="filter2"
       x="-0.14510849"
       y="-0.14612901"
       width="1.290217"
       height="1.292258">
      <feGaussianBlur
         stdDeviation="0.6 0.6"
         result="blur"
         id="feGaussianBlur2" />
    </filter>
    <linearGradient
       inkscape:collect="always"
       xlink:href="#linearGradient5"
       id="linearGradient30"
       x1="32.746464"
       y1="50.33506"
       x2="32.300236"
       y2="13.850003"
       gradientUnits="userSpaceOnUse"
       gradientTransform="matrix(0.2121652,0,0,0.2121652,1.7204573,1.5908198)" />
  </defs>
  <metadata
     id="metadata2">
    <rdf:RDF>
      <cc:Work
         rdf:about="">
        <dc:format>image/svg+xml</dc:format>
        <dc:type
           rdf:resource="http://purl.org/dc/dcmitype/StillImage" />
      </cc:Work>
    </rdf:RDF>
  </metadata>
  <rect
     style="fill:#000000;fill-opacity:0.996424;stroke:#000000;stroke-width:0.911802;stroke-dasharray:none;stroke-opacity:1;filter:url(#filter2)"
     id="rect1-2-3"
     width="13.065404"
     height="12.974159"
     x="1.9816793"
     y="1.9267306"
     rx="2.7149384"
     ry="2.8310909" />
  <rect
     style="fill:url(#linearGradient4);fill-opacity:0.996424;stroke:url(#linearGradient41);stroke-width:0.911802;stroke-dasharray:none;stroke-opacity:1"
     id="rect1-2"
     width="13.065404"
     height="12.974159"
     x="1.9816793"
     y="1.9267306"
     rx="2.7149384"
     ry="2.8310909" />
  <path
     id="path102-1"
     style="fill:#000000;stroke:none;stroke-width:0.254153;stroke-dasharray:none;stroke-dashoffset:2.2;stroke-opacity:0.3;opacity:0.3"
     d="m 7.4173426,4.9834411 c -1.8466066,0 -1.7831071,-0.00603 -1.8907588,0.1762195 -0.043505,0.073658 -0.047655,0.4035083 -0.047655,3.719465 0,4.0179924 -0.012899,3.7510104 0.1836651,3.8708644 0.090959,0.05545 0.1678839,0.05698 2.8756008,0.05709 3.0312323,1.18e-4 2.8744693,0.0086 3.0101213,-0.16381 0.06077,-0.07724 0.06055,-0.08621 0.06055,-2.613503 V 7.4941952 H 10.506882 C 9.2713209,7.4941442 9.2501706,7.4907093 9.1497457,7.2896814 9.1038582,7.1978312 9.0986613,7.0761047 9.0986135,6.0854343 V 4.9834411 Z m 2.0317334,0.044676 v 0.9426484 c 0,1.0289296 0.00528,1.0684473 0.167781,1.1565936 0.065793,0.035696 0.2443012,0.043708 1.010157,0.044676 l 0.930239,9.81e-4 -0.497385,-0.5182317 C 10.78613,6.3698028 10.311669,5.8869835 10.005532,5.582086 Z M 6.8509585,8.7495675 H 8.5436564 10.236851 V 8.9684763 9.1873851 H 8.5436564 6.8509583 V 8.9684763 Z m 0,0.8170612 H 8.5436564 10.236851 V 9.8004296 10.033734 H 8.5436564 6.8509583 V 9.8004292 Z m 0,0.8468443 h 1.6926979 1.6931946 v 0.233304 0.233802 H 8.5436564 6.8509583 v -0.233802 z m 0,0.846348 h 1.0652581 1.0657547 v 0.233801 0.233303 H 7.9162166 6.8509583 v -0.233303 z" />
  <path
     id="path102"
     style="fill:url(#linearGradient30);stroke:none;stroke-width:0.254153;stroke-dasharray:none;stroke-dashoffset:2.2;stroke-opacity:0.3"
     d="m 7.4173426,4.4542849 c -1.8466066,0 -1.7831071,-0.00603 -1.8907588,0.1762195 -0.043505,0.073658 -0.047655,0.4035083 -0.047655,3.719465 0,4.0179926 -0.012899,3.7510106 0.1836651,3.8708646 0.090959,0.05545 0.1678839,0.05698 2.8756008,0.05709 3.0312323,1.18e-4 2.8744693,0.0086 3.0101213,-0.16381 0.06077,-0.07724 0.06055,-0.08621 0.06055,-2.6135036 V 6.965039 H 10.506882 C 9.2713209,6.964988 9.2501706,6.9615531 9.1497457,6.7605252 9.1038582,6.668675 9.0986613,6.5469485 9.0986135,5.5562781 V 4.4542849 Z m 2.0317334,0.044676 v 0.9426484 c 0,1.0289296 0.00528,1.0684473 0.167781,1.1565936 0.065793,0.035696 0.2443012,0.043708 1.010157,0.044676 l 0.930239,9.81e-4 -0.497385,-0.5182317 C 10.78613,5.8406466 10.311669,5.3578273 10.005532,5.0529298 Z M 6.8509585,8.2204113 H 8.5436564 10.236851 V 8.4393201 8.6582289 H 8.5436564 6.8509583 V 8.4393201 Z m 0,0.8170612 H 8.5436564 10.236851 V 9.2712734 9.5045778 H 8.5436564 6.8509583 V 9.271273 Z m 0,0.8468443 h 1.6926979 1.6931946 v 0.2333042 0.233802 H 8.5436564 6.8509583 v -0.233802 z m 0,0.8463482 h 1.0652581 1.0657547 v 0.233801 0.233303 H 7.9162166 6.8509583 v -0.233303 z" />
  <rect
     style="opacity:0.5;fill:none;fill-opacity:0.996424;stroke:url(#linearGradient9);stroke-width:0.566102;stroke-dasharray:none;stroke-opacity:1"
     id="rect1-2-6"
     width="11.574203"
     height="11.508601"
     x="2.729686"
     y="2.6615164"
     rx="2.0246315"
     ry="2.0627522" />
</svg>
