<?xml version="1.0" encoding="UTF-8" standalone="no"?>
<svg
   width="64"
   height="64"
   version="1.1"
   viewBox="0 0 16.933 16.933"
   id="svg7"
   sodipodi:docname="Template 4.svg"
   inkscape:version="1.3.2 (091e20ef0f, 2023-11-25)"
   xmlns:inkscape="http://www.inkscape.org/namespaces/inkscape"
   xmlns:sodipodi="http://sodipodi.sourceforge.net/DTD/sodipodi-0.dtd"
   xmlns:xlink="http://www.w3.org/1999/xlink"
   xmlns="http://www.w3.org/2000/svg"
   xmlns:svg="http://www.w3.org/2000/svg"
   xmlns:rdf="http://www.w3.org/1999/02/22-rdf-syntax-ns#"
   xmlns:cc="http://creativecommons.org/ns#"
   xmlns:dc="http://purl.org/dc/elements/1.1/">
  <sodipodi:namedview
     id="namedview7"
     pagecolor="#9c4444"
     bordercolor="#000000"
     borderopacity="0.25"
     inkscape:showpageshadow="2"
     inkscape:pageopacity="0.0"
     inkscape:pagecheckerboard="0"
     inkscape:deskcolor="#d1d1d1"
     inkscape:zoom="4.3531261"
     inkscape:cx="32.849956"
     inkscape:cy="24.350317"
     inkscape:window-width="1356"
     inkscape:window-height="786"
     inkscape:window-x="35"
     inkscape:window-y="32"
     inkscape:window-maximized="0"
     inkscape:current-layer="svg7"
     showgrid="false" />
  <defs
     id="defs2">
    <linearGradient
       id="linearGradient5"
       inkscape:collect="always">
      <stop
         style="stop-color:#392713;stop-opacity:1;"
         offset="0"
         id="stop2" />
      <stop
         style="stop-color:#eed59e;stop-opacity:1;"
         offset="0.5"
         id="stop3" />
      <stop
         style="stop-color:#beaa8a;stop-opacity:1;"
         offset="1"
         id="stop4" />
    </linearGradient>
    <linearGradient
       id="linearGradient8"
       inkscape:collect="always">
      <stop
         style="stop-color:#1a1a1a;stop-opacity:1;"
         offset="0"
         id="stop8" />
      <stop
         style="stop-color:#ffffff;stop-opacity:0;"
         offset="1"
         id="stop9" />
    </linearGradient>
    <linearGradient
       inkscape:collect="always"
       xlink:href="#linearGradient5"
       id="linearGradient41"
       x1="13.675659"
       y1="16.110115"
       x2="13.728528"
       y2="10.548769"
       gradientUnits="userSpaceOnUse"
       gradientTransform="matrix(2.046153,0,0,2.046153,-18.798306,-18.911347)" />
    <linearGradient
       inkscape:collect="always"
       xlink:href="#linearGradient42"
       id="linearGradient4"
       x1="11.885941"
       y1="16.50819"
       x2="12.026573"
       y2="10.244942"
       gradientUnits="userSpaceOnUse"
       gradientTransform="matrix(2.046153,0,0,2.046153,-18.798306,-18.911347)" />
    <linearGradient
       id="linearGradient42"
       inkscape:collect="always">
      <stop
         style="stop-color:#010101;stop-opacity:1;"
         offset="0"
         id="stop42" />
      <stop
         style="stop-color:#6e6c6d;stop-opacity:1;"
         offset="1"
         id="stop43" />
    </linearGradient>
    <linearGradient
       inkscape:collect="always"
       xlink:href="#linearGradient8"
       id="linearGradient9"
       x1="9.3404646"
       y1="4.1692023"
       x2="9.4279938"
       y2="16.46883"
       gradientUnits="userSpaceOnUse"
       gradientTransform="matrix(1.05,0,0,1.05,-0.50277005,-0.1977751)" />
    <filter
       style="color-interpolation-filters:sRGB;"
       inkscape:label="Blur"
       id="filter2"
       x="-0.14510849"
       y="-0.14612901"
       width="1.290217"
       height="1.292258">
      <feGaussianBlur
         stdDeviation="0.6 0.6"
         result="blur"
         id="feGaussianBlur2" />
    </filter>
    <linearGradient
       inkscape:collect="always"
       xlink:href="#linearGradient5"
       id="linearGradient36"
       x1="34.300755"
       y1="49.651714"
       x2="33.951778"
       y2="15.397182"
       gradientUnits="userSpaceOnUse"
       gradientTransform="matrix(0.23573911,0,0,0.23573911,0.92253736,0.73711545)" />
  </defs>
  <metadata
     id="metadata2">
    <rdf:RDF>
      <cc:Work
         rdf:about="">
        <dc:format>image/svg+xml</dc:format>
        <dc:type
           rdf:resource="http://purl.org/dc/dcmitype/StillImage" />
      </cc:Work>
    </rdf:RDF>
  </metadata>
  <rect
     style="fill:#000000;fill-opacity:0.996424;stroke:#000000;stroke-width:0.911802;stroke-dasharray:none;stroke-opacity:1;filter:url(#filter2)"
     id="rect1-2-3"
     width="13.065404"
     height="12.974159"
     x="1.9816793"
     y="1.9267306"
     rx="2.7149384"
     ry="2.8310909" />
  <rect
     style="fill:url(#linearGradient4);fill-opacity:0.996424;stroke:url(#linearGradient41);stroke-width:0.911802;stroke-dasharray:none;stroke-opacity:1"
     id="rect1-2"
     width="13.065404"
     height="12.974159"
     x="1.9816793"
     y="1.9267306"
     rx="2.7149384"
     ry="2.8310909" />
  <path
     id="path8-8"
     style="fill:#000000;fill-opacity:1;stroke-width:0.0421221;stroke-opacity:0.3;opacity:0.3"
     d="M 8.7302414,4.832634 C 8.2785736,4.8270376 7.8245933,4.9002247 7.3784698,5.0519355 6.9186898,5.2082912 6.4339912,5.4702293 6.1593933,5.7113607 l -0.1853683,0.1630832 0.6072597,0.0015 c 0.5567814,0.00166 0.6301616,-0.00692 0.8787265,-0.1063586 0.429237,-0.1717207 0.8892206,-0.2422803 1.3993799,-0.2147438 0.5420984,0.029261 0.835483,0.1054365 1.3269539,0.3444005 0.84954,0.4130649 1.458087,1.1361018 1.754415,2.0846336 0.08509,0.2723459 0.09876,0.4034214 0.09876,0.9481131 0,0.5446921 -0.01368,0.6752608 -0.09876,0.9476069 -0.296382,0.9487024 -0.899538,1.6665804 -1.754415,2.0876734 -0.5682568,0.279913 -0.8187454,0.334181 -1.5376457,0.332754 -0.5778223,-0.0012 -0.63196,-0.0085 -1.0058522,-0.137758 -0.3856736,-0.133269 -0.4101329,-0.136415 -1.0205386,-0.1251 l -0.6254923,0.01165 0.2299383,0.168654 c 0.5167505,0.378393 1.120263,0.639244 1.7620125,0.761732 0.4182372,0.07982 1.2576099,0.04939 1.6769256,-0.06078 C 10.387309,12.728833 10.984772,12.390546 11.527986,11.863956 13.57798,9.8766813 13.019772,6.4814411 10.439074,5.2413419 9.8879402,4.9765063 9.3109548,4.8398169 8.7302414,4.8326204 Z M 4.6126309,6.8048307 4.5037402,6.9344877 C 4.3960652,7.0624521 4.3943421,7.0727579 4.3943421,7.7590216 v 0.694878 l 0.123073,0.1230725 0.1230724,0.1230726 1.0458625,-9.9e-4 c 1.3690584,-0.00122 1.319863,0.034313 1.319863,-0.9460873 0,-0.6503924 -0.037968,-0.8137097 -0.2086652,-0.9050633 -0.049378,-0.026427 -0.4919526,-0.043052 -1.1329759,-0.043052 z m 3.0606052,0 -0.123073,0.1230725 -0.1230724,0.1230723 v 0.7014623 0.7014618 l 0.1230724,0.1230725 0.123073,0.1230726 h 1.047382 c 1.1433794,0 1.1738039,-0.00602 1.2732674,-0.2461451 0.034721,-0.083794 0.046724,-0.3339287 0.037479,-0.7845231 L 10.017691,7.0079258 9.8996843,6.9061252 C 9.7815977,6.8046506 9.7802741,6.8048307 8.7272037,6.8048307 Z m 1.061057,2.3586344 c -1.1178176,0 -1.2095225,0.017152 -1.304163,0.2456383 -0.034803,0.084017 -0.046722,0.3317403 -0.03748,0.7769246 0.015005,0.723015 0.038528,0.790769 0.3048958,0.871636 0.07139,0.02166 0.562463,0.03553 1.091445,0.0309 l 0.9617882,-0.0086 0.123073,-0.137252 0.1230714,-0.137761 V 10.107525 9.409609 L 9.8733467,9.2865367 9.7502734,9.1634642 Z m -2.683791,0.00556 C 5.9168361,9.1687233 5.7614784,9.1698312 5.582017,9.1720673 4.2744931,9.1884042 4.3785919,9.1105348 4.3604087,10.084727 l -0.01367,0.708552 0.1099049,0.130163 c 0.060228,0.07158 0.1609824,0.137812 0.2238597,0.147382 0.062873,0.0096 0.4933836,0.02046 0.9567241,0.02381 1.3274866,0.0096 1.3264477,0.0099 1.3264477,-0.949125 0,-0.7199863 -0.033588,-0.8489624 -0.2436128,-0.9359575 -0.064197,-0.026593 -0.2685555,-0.039539 -0.6695546,-0.040522 z" />
  <path
     id="path8"
     style="fill:url(#linearGradient36);fill-opacity:1;stroke-width:0.0421221;stroke-opacity:0.3"
     d="M 8.7302414,4.3034778 C 8.2785736,4.2978814 7.8245933,4.3710685 7.3784698,4.5227793 6.9186898,4.679135 6.4339912,4.9410731 6.1593933,5.1822045 l -0.1853683,0.1630832 0.6072597,0.0015 c 0.5567814,0.00166 0.6301616,-0.00692 0.8787265,-0.1063586 0.429237,-0.1717207 0.8892206,-0.2422803 1.3993799,-0.2147438 0.5420984,0.029261 0.835483,0.1054365 1.3269539,0.3444005 0.84954,0.4130649 1.458087,1.1361018 1.754415,2.0846336 0.08509,0.2723459 0.09876,0.4034214 0.09876,0.9481131 0,0.5446921 -0.01368,0.6752608 -0.09876,0.9476068 -0.296382,0.9487027 -0.899538,1.6665807 -1.754415,2.0876737 -0.5682568,0.279913 -0.8187454,0.334181 -1.5376457,0.332754 -0.5778223,-0.0012 -0.63196,-0.0085 -1.0058522,-0.137758 -0.3856736,-0.133269 -0.4101329,-0.136415 -1.0205386,-0.1251 l -0.6254923,0.01165 0.2299383,0.168654 c 0.5167505,0.378393 1.120263,0.639244 1.7620125,0.761732 0.4182372,0.07982 1.2576099,0.04939 1.6769256,-0.06078 C 10.387309,12.199677 10.984772,11.86139 11.527986,11.3348 13.57798,9.3475251 13.019772,5.9522849 10.439074,4.7121857 9.8879402,4.4473501 9.3109548,4.3106607 8.7302414,4.3034642 Z M 4.6126309,6.2756745 4.5037402,6.4053315 C 4.3960652,6.5332959 4.3943421,6.5436017 4.3943421,7.2298654 v 0.694878 l 0.123073,0.1230725 0.1230724,0.1230726 1.0458625,-9.9e-4 c 1.3690584,-0.00122 1.319863,0.034313 1.319863,-0.9460873 0,-0.6503924 -0.037968,-0.8137097 -0.2086652,-0.9050633 -0.049378,-0.026427 -0.4919526,-0.043052 -1.1329759,-0.043052 z m 3.0606052,0 -0.123073,0.1230725 -0.1230724,0.1230723 v 0.7014623 0.7014618 l 0.1230724,0.1230725 0.123073,0.1230726 h 1.047382 c 1.1433794,0 1.1738039,-0.00602 1.2732674,-0.2461451 0.034721,-0.083794 0.046724,-0.3339287 0.037479,-0.7845231 L 10.017691,6.4787696 9.8996843,6.376969 C 9.7815977,6.2754944 9.7802741,6.2756745 8.7272037,6.2756745 Z m 1.061057,2.3586344 c -1.1178176,0 -1.2095225,0.017152 -1.304163,0.2456383 -0.034803,0.084017 -0.046722,0.3317403 -0.03748,0.7769249 0.015005,0.7230149 0.038528,0.7907689 0.3048958,0.8716359 0.07139,0.02166 0.562463,0.03553 1.091445,0.0309 l 0.9617882,-0.0086 0.123073,-0.137252 0.1230714,-0.137761 V 9.5783692 8.8804528 L 9.8733467,8.7573805 9.7502734,8.634308 Z m -2.683791,0.00556 C 5.9168361,8.6395671 5.7614784,8.640675 5.582017,8.6429111 4.2744931,8.659248 4.3785919,8.5813786 4.3604087,9.555571 l -0.01367,0.708552 0.1099049,0.130163 c 0.060228,0.07158 0.1609824,0.137812 0.2238597,0.147382 0.062873,0.0096 0.4933836,0.02046 0.9567241,0.02381 1.3274866,0.0096 1.3264477,0.0099 1.3264477,-0.9491257 0,-0.7199858 -0.033588,-0.8489619 -0.2436128,-0.935957 C 6.6558652,8.6538025 6.4515068,8.640856 6.0505077,8.6398732 Z" />
  <rect
     style="opacity:0.5;fill:none;fill-opacity:0.996424;stroke:url(#linearGradient9);stroke-width:0.566102;stroke-dasharray:none;stroke-opacity:1"
     id="rect1-2-6"
     width="11.574203"
     height="11.508601"
     x="2.729686"
     y="2.6615164"
     rx="2.0246315"
     ry="2.0627522" />
</svg>
