<?xml version="1.0" encoding="UTF-8" standalone="no"?>
<svg
   width="64"
   height="64"
   version="1.1"
   viewBox="0 0 16.933 16.933"
   id="svg7"
   sodipodi:docname="Template 4.svg"
   inkscape:version="1.3.2 (091e20ef0f, 2023-11-25)"
   xmlns:inkscape="http://www.inkscape.org/namespaces/inkscape"
   xmlns:sodipodi="http://sodipodi.sourceforge.net/DTD/sodipodi-0.dtd"
   xmlns:xlink="http://www.w3.org/1999/xlink"
   xmlns="http://www.w3.org/2000/svg"
   xmlns:svg="http://www.w3.org/2000/svg"
   xmlns:rdf="http://www.w3.org/1999/02/22-rdf-syntax-ns#"
   xmlns:cc="http://creativecommons.org/ns#"
   xmlns:dc="http://purl.org/dc/elements/1.1/">
  <sodipodi:namedview
     id="namedview7"
     pagecolor="#9c4444"
     bordercolor="#000000"
     borderopacity="0.25"
     inkscape:showpageshadow="2"
     inkscape:pageopacity="0.0"
     inkscape:pagecheckerboard="0"
     inkscape:deskcolor="#d1d1d1"
     inkscape:zoom="4.3531261"
     inkscape:cx="32.849956"
     inkscape:cy="24.350317"
     inkscape:window-width="1356"
     inkscape:window-height="786"
     inkscape:window-x="35"
     inkscape:window-y="32"
     inkscape:window-maximized="0"
     inkscape:current-layer="svg7"
     showgrid="false" />
  <defs
     id="defs2">
    <linearGradient
       id="linearGradient5"
       inkscape:collect="always">
      <stop
         style="stop-color:#392713;stop-opacity:1;"
         offset="0"
         id="stop2" />
      <stop
         style="stop-color:#eed59e;stop-opacity:1;"
         offset="0.5"
         id="stop3" />
      <stop
         style="stop-color:#beaa8a;stop-opacity:1;"
         offset="1"
         id="stop4" />
    </linearGradient>
    <linearGradient
       id="linearGradient8"
       inkscape:collect="always">
      <stop
         style="stop-color:#1a1a1a;stop-opacity:1;"
         offset="0"
         id="stop8" />
      <stop
         style="stop-color:#ffffff;stop-opacity:0;"
         offset="1"
         id="stop9" />
    </linearGradient>
    <linearGradient
       inkscape:collect="always"
       xlink:href="#linearGradient5"
       id="linearGradient41"
       x1="13.675659"
       y1="16.110115"
       x2="13.728528"
       y2="10.548769"
       gradientUnits="userSpaceOnUse"
       gradientTransform="matrix(2.046153,0,0,2.046153,-18.798306,-18.911347)" />
    <linearGradient
       inkscape:collect="always"
       xlink:href="#linearGradient42"
       id="linearGradient4"
       x1="11.885941"
       y1="16.50819"
       x2="12.026573"
       y2="10.244942"
       gradientUnits="userSpaceOnUse"
       gradientTransform="matrix(2.046153,0,0,2.046153,-18.798306,-18.911347)" />
    <linearGradient
       id="linearGradient42"
       inkscape:collect="always">
      <stop
         style="stop-color:#010101;stop-opacity:1;"
         offset="0"
         id="stop42" />
      <stop
         style="stop-color:#6e6c6d;stop-opacity:1;"
         offset="1"
         id="stop43" />
    </linearGradient>
    <linearGradient
       inkscape:collect="always"
       xlink:href="#linearGradient8"
       id="linearGradient9"
       x1="9.3404646"
       y1="4.1692023"
       x2="9.4279938"
       y2="16.46883"
       gradientUnits="userSpaceOnUse"
       gradientTransform="matrix(1.05,0,0,1.05,-0.50277005,-0.1977751)" />
    <filter
       style="color-interpolation-filters:sRGB;"
       inkscape:label="Blur"
       id="filter2"
       x="-0.14510849"
       y="-0.14612901"
       width="1.290217"
       height="1.292258">
      <feGaussianBlur
         stdDeviation="0.6 0.6"
         result="blur"
         id="feGaussianBlur2" />
    </filter>
    <linearGradient
       inkscape:collect="always"
       xlink:href="#linearGradient5"
       id="linearGradient24"
       x1="34.807835"
       y1="50.560875"
       x2="33.896671"
       y2="13.366631"
       gradientUnits="userSpaceOnUse"
       gradientTransform="matrix(0.2121652,0,0,0.2121652,1.6944283,1.5989801)" />
  </defs>
  <metadata
     id="metadata2">
    <rdf:RDF>
      <cc:Work
         rdf:about="">
        <dc:format>image/svg+xml</dc:format>
        <dc:type
           rdf:resource="http://purl.org/dc/dcmitype/StillImage" />
      </cc:Work>
    </rdf:RDF>
  </metadata>
  <rect
     style="fill:#000000;fill-opacity:0.996424;stroke:#000000;stroke-width:0.911802;stroke-dasharray:none;stroke-opacity:1;filter:url(#filter2)"
     id="rect1-2-3"
     width="13.065404"
     height="12.974159"
     x="1.9816793"
     y="1.9267306"
     rx="2.7149384"
     ry="2.8310909" />
  <rect
     style="fill:url(#linearGradient4);fill-opacity:0.996424;stroke:url(#linearGradient41);stroke-width:0.911802;stroke-dasharray:none;stroke-opacity:1"
     id="rect1-2"
     width="13.065404"
     height="12.974159"
     x="1.9816793"
     y="1.9267306"
     rx="2.7149384"
     ry="2.8310909" />
  <path
     style="fill:#000000;fill-opacity:1;stroke:none;stroke-width:0.254153;stroke-dasharray:none;stroke-opacity:0.3;opacity:0.3"
     d="M 8.4725154,4.9543537 A 3.4751215,3.4744594 0 0 0 5.0439358,8.4288125 3.4751215,3.4744594 0 0 0 7.0442636,11.574633 c -0.532119,0.177684 -1.0074354,0.381388 -1.0074354,0.54967 v 0.385836 c 0,0.213873 0.1848355,0.385836 0.4140276,0.385836 h 4.1364032 c 0.229192,0 0.414028,-0.171963 0.414028,-0.385836 v -0.385836 c 0,-0.168282 -0.475318,-0.371986 -1.0074368,-0.54967 A 3.4751215,3.4744594 0 0 0 11.994179,8.4288125 3.4751215,3.4744594 0 0 0 8.519057,4.9543537 a 3.4751215,3.4744594 0 0 0 -0.046542,0 z m 0.01648,1.4890539 a 1.9857836,1.9854054 0 0 1 0.03006,0 A 1.9857836,1.9854054 0 0 1 10.504835,8.4288125 1.9857836,1.9854054 0 0 1 8.5190536,10.414219 1.9857836,1.9854054 0 0 1 6.5332697,8.4288125 1.9857836,1.9854054 0 0 1 8.4889954,6.4434076 Z m 0.00582,0.9927023 a 0.99289179,0.99270261 0 0 0 -0.968653,0.9927027 0.99289179,0.99270261 0 0 0 0.992891,0.9927032 0.99289179,0.99270261 0 0 0 0.9928921,-0.9927032 0.99289179,0.99270261 0 0 0 -0.9928921,-0.9927027 0.99289179,0.99270261 0 0 0 -0.024242,0 z"
     id="path2-3" />
  <path
     style="fill:url(#linearGradient24);fill-opacity:1;stroke:none;stroke-width:0.254153;stroke-dasharray:none;stroke-opacity:0.3"
     d="M 8.4725154,4.4251975 A 3.4751215,3.4744594 0 0 0 5.0439358,7.8996563 3.4751215,3.4744594 0 0 0 7.0442636,11.045477 c -0.532119,0.177684 -1.0074354,0.381388 -1.0074354,0.54967 v 0.385836 c 0,0.213873 0.1848355,0.385836 0.4140276,0.385836 h 4.1364032 c 0.229192,0 0.414028,-0.171963 0.414028,-0.385836 v -0.385836 c 0,-0.168282 -0.475318,-0.371986 -1.0074368,-0.54967 A 3.4751215,3.4744594 0 0 0 11.994179,7.8996563 3.4751215,3.4744594 0 0 0 8.519057,4.4251975 a 3.4751215,3.4744594 0 0 0 -0.046542,0 z m 0.01648,1.4890539 a 1.9857836,1.9854054 0 0 1 0.03006,0 A 1.9857836,1.9854054 0 0 1 10.504835,7.8996563 1.9857836,1.9854054 0 0 1 8.5190536,9.8850631 1.9857836,1.9854054 0 0 1 6.5332697,7.8996563 1.9857836,1.9854054 0 0 1 8.4889954,5.9142514 Z m 0.00582,0.9927023 a 0.99289179,0.99270261 0 0 0 -0.968653,0.9927026 0.99289179,0.99270261 0 0 0 0.992891,0.9927033 0.99289179,0.99270261 0 0 0 0.9928921,-0.9927033 0.99289179,0.99270261 0 0 0 -0.9928921,-0.9927026 0.99289179,0.99270261 0 0 0 -0.024242,0 z"
     id="path2" />
  <rect
     style="opacity:0.5;fill:none;fill-opacity:0.996424;stroke:url(#linearGradient9);stroke-width:0.566102;stroke-dasharray:none;stroke-opacity:1"
     id="rect1-2-6"
     width="11.574203"
     height="11.508601"
     x="2.729686"
     y="2.6615164"
     rx="2.0246315"
     ry="2.0627522" />
</svg>
