<?xml version="1.0" encoding="UTF-8" standalone="no"?>
<svg
   width="64"
   height="64"
   version="1.1"
   viewBox="0 0 16.933 16.933"
   id="svg7"
   sodipodi:docname="Template 4.svg"
   inkscape:version="1.3.2 (091e20ef0f, 2023-11-25)"
   xmlns:inkscape="http://www.inkscape.org/namespaces/inkscape"
   xmlns:sodipodi="http://sodipodi.sourceforge.net/DTD/sodipodi-0.dtd"
   xmlns:xlink="http://www.w3.org/1999/xlink"
   xmlns="http://www.w3.org/2000/svg"
   xmlns:svg="http://www.w3.org/2000/svg"
   xmlns:rdf="http://www.w3.org/1999/02/22-rdf-syntax-ns#"
   xmlns:cc="http://creativecommons.org/ns#"
   xmlns:dc="http://purl.org/dc/elements/1.1/">
  <sodipodi:namedview
     id="namedview7"
     pagecolor="#9c4444"
     bordercolor="#000000"
     borderopacity="0.25"
     inkscape:showpageshadow="2"
     inkscape:pageopacity="0.0"
     inkscape:pagecheckerboard="0"
     inkscape:deskcolor="#d1d1d1"
     inkscape:zoom="4.3531261"
     inkscape:cx="32.964816"
     inkscape:cy="24.350317"
     inkscape:window-width="1463"
     inkscape:window-height="604"
     inkscape:window-x="37"
     inkscape:window-y="192"
     inkscape:window-maximized="0"
     inkscape:current-layer="svg7"
     showgrid="false" />
  <defs
     id="defs2">
    <linearGradient
       id="linearGradient5"
       inkscape:collect="always">
      <stop
         style="stop-color:#392713;stop-opacity:1;"
         offset="0"
         id="stop2" />
      <stop
         style="stop-color:#eed59e;stop-opacity:1;"
         offset="0.5"
         id="stop3" />
      <stop
         style="stop-color:#beaa8a;stop-opacity:1;"
         offset="1"
         id="stop4" />
    </linearGradient>
    <linearGradient
       id="linearGradient8"
       inkscape:collect="always">
      <stop
         style="stop-color:#1a1a1a;stop-opacity:1;"
         offset="0"
         id="stop8" />
      <stop
         style="stop-color:#ffffff;stop-opacity:0;"
         offset="1"
         id="stop9" />
    </linearGradient>
    <linearGradient
       inkscape:collect="always"
       xlink:href="#linearGradient5"
       id="linearGradient41"
       x1="13.675659"
       y1="16.110115"
       x2="13.728528"
       y2="10.548769"
       gradientUnits="userSpaceOnUse"
       gradientTransform="matrix(2.046153,0,0,2.046153,-18.798306,-18.911347)" />
    <linearGradient
       inkscape:collect="always"
       xlink:href="#linearGradient42"
       id="linearGradient4"
       x1="11.885941"
       y1="16.50819"
       x2="12.026573"
       y2="10.244942"
       gradientUnits="userSpaceOnUse"
       gradientTransform="matrix(2.046153,0,0,2.046153,-18.798306,-18.911347)" />
    <linearGradient
       id="linearGradient42"
       inkscape:collect="always">
      <stop
         style="stop-color:#010101;stop-opacity:1;"
         offset="0"
         id="stop42" />
      <stop
         style="stop-color:#6e6c6d;stop-opacity:1;"
         offset="1"
         id="stop43" />
    </linearGradient>
    <linearGradient
       inkscape:collect="always"
       xlink:href="#linearGradient8"
       id="linearGradient9"
       x1="9.3404646"
       y1="4.1692023"
       x2="9.4279938"
       y2="16.46883"
       gradientUnits="userSpaceOnUse"
       gradientTransform="matrix(1.05,0,0,1.05,-0.50277005,-0.1977751)" />
    <filter
       style="color-interpolation-filters:sRGB;"
       inkscape:label="Blur"
       id="filter2"
       x="-0.14510849"
       y="-0.14612901"
       width="1.290217"
       height="1.292258">
      <feGaussianBlur
         stdDeviation="0.6 0.6"
         result="blur"
         id="feGaussianBlur2" />
    </filter>
    <linearGradient
       inkscape:collect="always"
       xlink:href="#linearGradient5"
       id="linearGradient13"
       x1="8.3949604"
       y1="12.330128"
       x2="8.1020279"
       y2="4.1546006"
       gradientUnits="userSpaceOnUse" />
  </defs>
  <metadata
     id="metadata2">
    <rdf:RDF>
      <cc:Work
         rdf:about="">
        <dc:format>image/svg+xml</dc:format>
        <dc:type
           rdf:resource="http://purl.org/dc/dcmitype/StillImage" />
      </cc:Work>
    </rdf:RDF>
  </metadata>
  <rect
     style="fill:#000000;fill-opacity:0.996424;stroke:#000000;stroke-width:0.911802;stroke-dasharray:none;stroke-opacity:1;filter:url(#filter2)"
     id="rect1-2-3"
     width="13.065404"
     height="12.974159"
     x="1.9816793"
     y="1.9267306"
     rx="2.7149384"
     ry="2.8310909" />
  <rect
     style="fill:url(#linearGradient4);fill-opacity:0.996424;stroke:url(#linearGradient41);stroke-width:0.911802;stroke-dasharray:none;stroke-opacity:1"
     id="rect1-2"
     width="13.065404"
     height="12.974159"
     x="1.9816793"
     y="1.9267306"
     rx="2.7149384"
     ry="2.8310909" />
  <path
     d="M 8.5225612,13.060646 C 8.4331337,13.036305 8.3553478,12.979156 8.3011093,12.897931 8.2206775,12.778077 8.1939551,12.691295 8.0960612,12.232252 8.0550516,12.040962 7.9949924,11.913436 7.893659,11.803636 7.7166562,11.612081 7.5121373,11.544085 7.0279594,11.515775 6.4863679,11.484026 6.2940196,11.436137 6.1130482,11.288767 5.907471,11.121025 5.8214831,10.931587 5.6987189,10.373857 5.622785,10.029376 5.5793941,9.8902081 5.4899667,9.7047388 5.3256637,9.3639622 5.0999786,9.0993841 4.77296,8.8639095 4.5623559,8.7123063 4.4993863,8.6199685 4.534046,8.5133435 c 0.02831,-0.086517 0.1180018,-0.142343 0.2293892,-0.142343 0.089692,0 0.1444597,0.022225 0.2156312,0.087575 0.068261,0.062705 0.108477,0.1219705 0.2029314,0.2979149 0.085988,0.1608635 0.1688009,0.2780716 0.196317,0.2780716 0.016668,0 0.019314,-0.067997 0.019314,-0.4876175 0,-0.291565 0.00529,-0.5071962 0.013229,-0.5365644 0.016139,-0.058736 0.079903,-0.1169435 0.1280558,-0.1169435 0.079903,2.646e-4 0.1486929,0.076992 0.1836172,0.2055772 0.00794,0.029368 0.041539,0.321727 0.074611,0.650333 0.033072,0.3283415 0.065086,0.6021798 0.070907,0.6087943 0.01852,0.019843 0.1026563,-0.085723 0.157424,-0.1976399 0.053709,-0.1097999 0.089956,-0.2497617 0.090486,-0.348714 0,-0.031485 -0.014816,-0.1309661 -0.033337,-0.2214518 -0.027252,-0.1344053 -0.030691,-0.174092 -0.019579,-0.2164245 0.035718,-0.1341411 0.1828235,-0.1563657 0.2793945,-0.041803 0.069849,0.082813 0.093925,0.1767382 0.093396,0.3640595 0,0.2029315 -0.017462,0.2786008 -0.1650967,0.7352627 -0.1275267,0.394486 -0.1677426,0.5693719 -0.167478,0.7281189 0,0.569371 0.4706845,0.94031 1.2575398,0.99349 0.070113,0.0045 0.1272621,0.004 0.1272621,-0.0013 0,-0.0053 -0.043655,-0.09128 -0.097365,-0.191025 -0.1846751,-0.34371 -0.2595507,-0.583682 -0.2595507,-0.831592 0,-0.1865275 0.026987,-0.3005606 0.145518,-0.6114399 C 7.4391138,9.0922405 7.4549884,9.0231856 7.4549884,8.7424682 7.455253,8.5964211 7.4486386,8.5056708 7.4322347,8.4286785 7.3438656,8.0101159 7.1263824,7.6505543 6.8194718,7.4156089 6.6977659,7.3224774 6.6615187,7.3023695 6.3503748,7.1565869 6.0511369,7.0163605 5.9730864,6.9676782 5.8534971,6.8454431 5.7249121,6.7142123 5.670409,6.6067936 5.6616779,6.4678901 c -0.00529,-0.085723 -0.00317,-0.099217 0.018256,-0.1108583 0.049476,-0.026458 0.1545137,-0.03122 0.2484389,-0.011377 0.1740924,0.036776 0.3301935,0.137316 0.5796906,0.3727906 0.2659011,0.25082 0.4156523,0.3436869 0.5987403,0.3704093 0.089163,0.012964 0.098159,0.012171 0.1148269,-0.011112 0.027252,-0.037835 0.023283,-0.1785902 -0.00767,-0.2619323 C 7.1570735,6.662355 7.0353675,6.5483218 6.7631167,6.3940728 6.5879659,6.294856 6.4699641,6.2099264 6.4173131,6.1453694 6.2884635,5.9874162 6.2622703,5.7556458 6.3598996,5.6376439 6.4525016,5.525992 6.6093968,5.5135568 6.7901036,5.6032489 c 0.08784,0.043391 0.1272621,0.075405 0.2606095,0.2119271 0.389459,0.3984546 0.6238752,0.9209964 0.7270606,1.6205409 0.027516,0.1865276 0.023812,0.8903054 -0.00609,1.134511 -0.02831,0.2328288 -0.073553,0.5090483 -0.1264683,0.7749493 -0.046037,0.230183 -0.049476,0.3357497 -0.014287,0.4148586 0.026193,0.058207 0.080167,0.0971 0.1346703,0.0971 0.061911,0 0.1714466,-0.071701 0.2976503,-0.1944649 0.2061109,-0.2010791 0.321467,-0.3955441 0.3876115,-0.6532432 0.028839,-0.1121811 0.033866,-0.1674779 0.042333,-0.4603659 0.00873,-0.3092918 0.011377,-0.3370726 0.039687,-0.3958089 0.040745,-0.085723 0.1161498,-0.140491 0.1934066,-0.140491 0.050005,0 0.065351,0.00714 0.1076833,0.050005 0.1103291,0.1121811 0.106625,0.259022 -0.020108,0.7820929 -0.090486,0.3725261 -0.2108695,0.6598579 -0.3640602,0.8662289 -0.045772,0.062176 -0.1809715,0.2071646 -0.3000316,0.3225203 -0.1428722,0.138375 -0.2383849,0.242883 -0.280982,0.30744 -0.248968,0.378082 -0.1161498,0.748755 0.292888,0.817281 0.171182,0.02884 0.3608846,-0.02699 0.4902633,-0.144195 C 8.8326467,10.851155 9.001183,10.48789 9.1191848,10.007152 9.2948647,9.2930552 9.3512198,8.5162539 9.2596758,8.0714981 9.1768628,7.6693393 9.0107078,7.3322668 8.7770853,7.0930882 8.713322,7.0277374 8.5752122,6.9142334 8.4352504,6.8121062 8.0447331,6.5274202 7.8875737,6.3435384 7.8333352,6.1072701 7.8063482,5.990062 7.8132272,5.8707373 7.8481515,5.8440149 c 0.045243,-0.03466 0.1590115,-0.051328 0.2375912,-0.035454 0.1944649,0.039687 0.3653824,0.1939358 0.5452955,0.4926445 0.1415493,0.2346808 0.2061063,0.3222561 0.3032065,0.4100961 0.07223,0.065086 0.1087416,0.083077 0.1087416,0.05318 0,-0.00767 -0.03466,-0.080961 -0.076728,-0.162451 C 8.6590835,6.0091116 8.4384253,5.5619746 8.4087926,5.4722826 8.3418543,5.2693512 8.3802181,5.1256853 8.5175342,5.0640386 8.6736353,4.9939256 8.8471985,5.1074296 8.9305406,5.3341728 8.9482676,5.3825908 9.0633588,5.7765475 9.1863877,6.2099264 9.4517595,7.1454746 9.4337682,7.0867383 9.4525532,7.0803884 9.4755712,7.0727184 9.5620886,6.858672 9.605744,6.7009834 9.6628929,6.4938187 9.6874986,6.2781876 9.6790321,6.0622918 9.670301,5.8508939 9.6483411,5.714107 9.5708197,5.3950258 9.5290163,5.2233146 9.5134062,5.1317706 9.5134062,5.0603345 c 0,-0.1688009 0.066145,-0.3063815 0.1799131,-0.3743781 0.1264684,-0.075405 0.3169647,-0.03757 0.4447557,0.088369 0.12541,0.123558 0.166155,0.2576991 0.155308,0.5116941 -0.01164,0.2717218 -0.05583,0.4368186 -0.3032069,1.1345111 -0.2203936,0.6222877 -0.2865381,0.8540582 -0.3262249,1.1435066 -0.026193,0.1899671 -0.025664,0.489205 0,0.6487456 0.023018,0.1394327 0.069849,0.2936817 0.090486,0.3002961 0.00741,0.00238 0.071701,-0.1613926 0.142343,-0.3640594 0.1732988,-0.496084 0.1965818,-0.55191 0.2508198,-0.6000632 0.107154,-0.095777 0.26643,-0.013758 0.26643,0.1367869 0,0.1262037 -0.267753,0.9223193 -0.9493061,2.8254288 -0.1904964,0.531273 -0.3442163,0.975235 -0.3420997,0.986612 0.00318,0.01349 0.2751613,-0.229919 0.7752139,-0.692136 1.0683659,-0.9874052 1.0842409,-1.0040736 1.1532959,-1.2059467 0.02778,-0.080961 0.03148,-0.1100645 0.02566,-0.2069001 -0.0093,-0.1547782 -0.06006,-0.2886547 -0.21404,-0.5646097 -0.182559,-0.326754 -0.240501,-0.4656575 -0.259551,-0.6201711 -0.03863,-0.3140543 0.238121,-0.5183086 0.433379,-0.319875 0.108477,0.1100645 0.258757,0.489205 0.324373,0.8183402 0.01799,0.091015 0.03281,0.1777965 0.03281,0.1928774 0,0.076198 0.04048,0.012964 0.203725,-0.3188166 0.236003,-0.4796802 0.279659,-0.5455601 0.406656,-0.6122338 0.111387,-0.058207 0.24738,0.00265 0.321462,0.1439305 0.04022,0.076463 0.03889,0.2206581 -0.0029,0.3495077 -0.110594,0.3407766 -0.545824,1.0659852 -1.014657,1.6906542 -0.02619,0.03466 -0.04048,0.06297 -0.03201,0.06297 0.0087,0 0.04868,-0.01958 0.08943,-0.04365 0.252408,-0.148957 0.430998,-0.158747 0.606942,-0.03281 0.05397,0.03836 0.113769,0.152132 0.113504,0.215896 -2.64e-4,0.0717 -0.03969,0.155042 -0.09287,0.195787 -0.0971,0.07461 -0.199227,0.09869 -0.487881,0.115621 -0.475463,0.02752 -0.836347,0.157423 -1.18268,0.425441 -0.273045,0.211133 -0.4325851,0.424118 -0.7056297,0.941633 -0.2225102,0.421208 -0.3264894,0.573869 -0.5344478,0.782886 -0.150545,0.151339 -0.2627261,0.223304 -0.3907819,0.250555 -0.083607,0.01773 -0.083078,0.01773 -0.1703883,-0.0061 z"
     fill="url(#b)"
     fill-rule="nonzero"
     id="path4-6"
     style="fill:#000000;fill-opacity:1;stroke-width:0.264578;opacity:0.3" />
  <path
     d="M 8.5225612,12.53149 C 8.4331337,12.507149 8.3553478,12.45 8.3011093,12.368775 8.2206775,12.248921 8.1939551,12.162139 8.0960612,11.703096 8.0550516,11.511806 7.9949924,11.38428 7.893659,11.27448 7.7166562,11.082925 7.5121373,11.014929 7.0279594,10.986619 6.4863679,10.95487 6.2940196,10.906981 6.1130482,10.759611 5.907471,10.591869 5.8214831,10.402431 5.6987189,9.8447007 5.622785,9.50022 5.5793941,9.3610519 5.4899667,9.1755826 5.3256637,8.834806 5.0999786,8.5702279 4.77296,8.3347533 4.5623559,8.1831501 4.4993863,8.0908123 4.534046,7.9841873 c 0.02831,-0.086517 0.1180018,-0.142343 0.2293892,-0.142343 0.089692,0 0.1444597,0.022225 0.2156312,0.087575 0.068261,0.062705 0.108477,0.1219705 0.2029314,0.2979149 0.085988,0.1608635 0.1688009,0.2780716 0.196317,0.2780716 0.016668,0 0.019314,-0.067997 0.019314,-0.4876175 0,-0.291565 0.00529,-0.5071962 0.013229,-0.5365644 0.016139,-0.058736 0.079903,-0.1169435 0.1280558,-0.1169435 0.079903,2.646e-4 0.1486929,0.076992 0.1836172,0.2055772 0.00794,0.029368 0.041539,0.321727 0.074611,0.650333 0.033072,0.3283415 0.065086,0.6021798 0.070907,0.6087943 0.01852,0.019843 0.1026563,-0.085723 0.157424,-0.1976399 0.053709,-0.1097999 0.089956,-0.2497617 0.090486,-0.348714 0,-0.031485 -0.014816,-0.1309661 -0.033337,-0.2214518 -0.027252,-0.1344053 -0.030691,-0.174092 -0.019579,-0.2164245 0.035718,-0.1341411 0.1828235,-0.1563657 0.2793945,-0.041803 0.069849,0.082813 0.093925,0.1767382 0.093396,0.3640595 0,0.2029314 -0.017462,0.2786008 -0.1650967,0.7352626 -0.1275267,0.394486 -0.1677426,0.5693721 -0.167478,0.728119 0,0.5693712 0.4706845,0.9403102 1.2575398,0.9934902 0.070113,0.0045 0.1272621,0.004 0.1272621,-0.0013 0,-0.0053 -0.043655,-0.09128 -0.097365,-0.191025 -0.1846751,-0.34371 -0.2595507,-0.5836824 -0.2595507,-0.8315921 0,-0.1865276 0.026987,-0.3005607 0.145518,-0.61144 C 7.4391138,8.5630843 7.4549884,8.4940294 7.4549884,8.213312 7.455253,8.0672649 7.4486386,7.9765146 7.4322347,7.8995223 7.3438656,7.4809597 7.1263824,7.1213981 6.8194718,6.8864527 6.6977659,6.7933212 6.6615187,6.7732133 6.3503748,6.6274307 6.0511369,6.4872043 5.9730864,6.438522 5.8534971,6.3162869 5.7249121,6.1850561 5.670409,6.0776374 5.6616779,5.9387339 c -0.00529,-0.085723 -0.00317,-0.099217 0.018256,-0.1108583 0.049476,-0.026458 0.1545137,-0.03122 0.2484389,-0.011377 0.1740924,0.036776 0.3301935,0.137316 0.5796906,0.3727906 0.2659011,0.25082 0.4156523,0.3436869 0.5987403,0.3704093 0.089163,0.012964 0.098159,0.012171 0.1148269,-0.011112 0.027252,-0.037835 0.023283,-0.1785902 -0.00767,-0.2619323 C 7.1570735,6.1331988 7.0353675,6.0191656 6.7631167,5.8649166 6.5879659,5.7656998 6.4699641,5.6807702 6.4173131,5.6162132 6.2884635,5.45826 6.2622703,5.2264896 6.3598996,5.1084877 c 0.092602,-0.1116519 0.2494972,-0.1240871 0.430204,-0.034395 0.08784,0.043391 0.1272621,0.075405 0.2606095,0.2119271 0.389459,0.3984546 0.6238752,0.9209964 0.7270606,1.6205409 0.027516,0.1865276 0.023812,0.8903054 -0.00609,1.134511 -0.02831,0.2328288 -0.073553,0.5090483 -0.1264683,0.7749493 -0.046037,0.230183 -0.049476,0.3357497 -0.014287,0.4148586 0.026193,0.058207 0.080167,0.0971 0.1346703,0.0971 0.061911,0 0.1714466,-0.071701 0.2976503,-0.1944649 0.2061109,-0.2010791 0.321467,-0.3955441 0.3876115,-0.6532432 0.028839,-0.1121811 0.033866,-0.1674779 0.042333,-0.4603659 0.00873,-0.3092918 0.011377,-0.3370726 0.039687,-0.3958089 0.040745,-0.085723 0.1161498,-0.140491 0.1934066,-0.140491 0.050005,0 0.065351,0.00714 0.1076833,0.050005 0.1103291,0.1121811 0.106625,0.259022 -0.020108,0.7820929 C 8.7233759,8.6882297 8.6029929,8.9755615 8.4498022,9.1819325 8.4040302,9.2441083 8.2688307,9.3890971 8.1497706,9.5044532 8.0068984,9.6428276 7.9113857,9.7473359 7.8687886,9.811893 c -0.248968,0.378082 -0.1161498,0.748755 0.292888,0.817281 0.171182,0.02884 0.3608846,-0.02699 0.4902633,-0.144195 C 8.8326467,10.321999 9.001183,9.9587334 9.1191848,9.4779954 9.2948647,8.763899 9.3512198,7.9870977 9.2596758,7.5423419 9.1768628,7.1401831 9.0107078,6.8031106 8.7770853,6.563932 8.713322,6.4985812 8.5752122,6.3850772 8.4352504,6.28295 8.0447331,5.998264 7.8875737,5.8143822 7.8333352,5.5781139 7.8063482,5.4609058 7.8132272,5.3415811 7.8481515,5.3148587 c 0.045243,-0.03466 0.1590115,-0.051328 0.2375912,-0.035454 0.1944649,0.039687 0.3653824,0.1939358 0.5452955,0.4926445 0.1415493,0.2346808 0.2061063,0.3222561 0.3032065,0.4100961 0.07223,0.065086 0.1087416,0.083077 0.1087416,0.05318 0,-0.00767 -0.03466,-0.080961 -0.076728,-0.162451 C 8.6590835,5.4799554 8.4384253,5.0328184 8.4087926,4.9431264 8.3418543,4.740195 8.3802181,4.5965291 8.5175342,4.5348824 8.6736353,4.4647694 8.8471985,4.5782734 8.9305406,4.8050166 8.9482676,4.8534346 9.0633588,5.2473913 9.1863877,5.6807702 9.4517595,6.6163184 9.4337682,6.5575821 9.4525532,6.5512322 9.4755712,6.5435622 9.5620886,6.3295158 9.605744,6.1718272 9.6628929,5.9646625 9.6874986,5.7490314 9.6790321,5.5331356 9.670301,5.3217377 9.6483411,5.1849508 9.5708197,4.8658696 9.5290163,4.6941584 9.5134062,4.6026144 9.5134062,4.5311783 c 0,-0.1688009 0.066145,-0.3063815 0.1799131,-0.3743781 0.1264684,-0.075405 0.3169647,-0.03757 0.4447557,0.088369 0.12541,0.123558 0.166155,0.2576991 0.155308,0.5116941 -0.01164,0.2717218 -0.05583,0.4368186 -0.3032069,1.1345111 C 9.7697825,6.5136621 9.703638,6.7454326 9.6639512,7.034881 c -0.026193,0.1899671 -0.025664,0.489205 0,0.6487456 0.023018,0.1394327 0.069849,0.2936817 0.090486,0.3002961 0.00741,0.00238 0.071701,-0.1613926 0.142343,-0.3640594 0.1732988,-0.496084 0.1965818,-0.55191 0.2508198,-0.6000632 0.107154,-0.095777 0.26643,-0.013758 0.26643,0.1367869 0,0.1262037 -0.267753,0.9223193 -0.9493061,2.8254292 -0.1904964,0.5312728 -0.3442163,0.9752348 -0.3420997,0.9866118 0.00318,0.01349 0.2751613,-0.229919 0.7752139,-0.692136 1.0683659,-0.9874054 1.0842409,-1.0040738 1.1532959,-1.2059469 0.02778,-0.080961 0.03148,-0.1100645 0.02566,-0.2069001 -0.0093,-0.1547782 -0.06006,-0.2886547 -0.21404,-0.5646097 -0.182559,-0.326754 -0.240501,-0.4656575 -0.259551,-0.6201711 -0.03863,-0.3140543 0.238121,-0.5183086 0.433379,-0.319875 0.108477,0.1100645 0.258757,0.489205 0.324373,0.8183402 0.01799,0.091015 0.03281,0.1777965 0.03281,0.1928774 0,0.076198 0.04048,0.012964 0.203725,-0.3188166 0.236003,-0.4796802 0.279659,-0.5455601 0.406656,-0.6122338 0.111387,-0.058207 0.24738,0.00265 0.321462,0.1439305 0.04022,0.076463 0.03889,0.2206581 -0.0029,0.3495077 -0.110594,0.3407766 -0.545824,1.0659852 -1.014657,1.6906542 -0.02619,0.03466 -0.04048,0.06297 -0.03201,0.06297 0.0087,0 0.04868,-0.019579 0.08943,-0.043655 0.252408,-0.1489575 0.430998,-0.1587469 0.606942,-0.032808 0.05397,0.038364 0.113769,0.1521324 0.113504,0.2158958 -2.64e-4,0.071701 -0.03969,0.1550426 -0.09287,0.1957874 -0.0971,0.07461 -0.199227,0.09869 -0.487881,0.115621 -0.475463,0.02752 -0.836347,0.157423 -1.18268,0.425441 -0.273045,0.211133 -0.4325851,0.424118 -0.7056297,0.941633 -0.2225102,0.421208 -0.3264894,0.573869 -0.5344478,0.782886 -0.150545,0.151339 -0.2627261,0.223304 -0.3907819,0.250555 -0.083607,0.01773 -0.083078,0.01773 -0.1703883,-0.0061 z"
     fill="url(#b)"
     fill-rule="nonzero"
     id="path4"
     style="fill:url(#linearGradient13);stroke-width:0.264578;fill-opacity:1" />
  <rect
     style="opacity:0.5;fill:none;fill-opacity:0.996424;stroke:url(#linearGradient9);stroke-width:0.566102;stroke-dasharray:none;stroke-opacity:1"
     id="rect1-2-6"
     width="11.574203"
     height="11.508601"
     x="2.729686"
     y="2.6615164"
     rx="2.0246315"
     ry="2.0627522" />
</svg>
