<?xml version="1.0" encoding="UTF-8" standalone="no"?>
<svg
   width="64"
   height="64"
   version="1.1"
   viewBox="0 0 16.933 16.933"
   id="svg7"
   sodipodi:docname="Template 4.svg"
   inkscape:version="1.3.2 (091e20ef0f, 2023-11-25)"
   xmlns:inkscape="http://www.inkscape.org/namespaces/inkscape"
   xmlns:sodipodi="http://sodipodi.sourceforge.net/DTD/sodipodi-0.dtd"
   xmlns:xlink="http://www.w3.org/1999/xlink"
   xmlns="http://www.w3.org/2000/svg"
   xmlns:svg="http://www.w3.org/2000/svg"
   xmlns:rdf="http://www.w3.org/1999/02/22-rdf-syntax-ns#"
   xmlns:cc="http://creativecommons.org/ns#"
   xmlns:dc="http://purl.org/dc/elements/1.1/">
  <sodipodi:namedview
     id="namedview7"
     pagecolor="#9c4444"
     bordercolor="#000000"
     borderopacity="0.25"
     inkscape:showpageshadow="2"
     inkscape:pageopacity="0.0"
     inkscape:pagecheckerboard="0"
     inkscape:deskcolor="#d1d1d1"
     inkscape:zoom="4.3531261"
     inkscape:cx="32.964816"
     inkscape:cy="24.350317"
     inkscape:window-width="1463"
     inkscape:window-height="604"
     inkscape:window-x="42"
     inkscape:window-y="99"
     inkscape:window-maximized="0"
     inkscape:current-layer="svg7"
     showgrid="false" />
  <defs
     id="defs2">
    <linearGradient
       id="linearGradient5"
       inkscape:collect="always">
      <stop
         style="stop-color:#392713;stop-opacity:1;"
         offset="0"
         id="stop2" />
      <stop
         style="stop-color:#eed59e;stop-opacity:1;"
         offset="0.5"
         id="stop3" />
      <stop
         style="stop-color:#beaa8a;stop-opacity:1;"
         offset="1"
         id="stop4" />
    </linearGradient>
    <linearGradient
       id="linearGradient8"
       inkscape:collect="always">
      <stop
         style="stop-color:#1a1a1a;stop-opacity:1;"
         offset="0"
         id="stop8" />
      <stop
         style="stop-color:#ffffff;stop-opacity:0;"
         offset="1"
         id="stop9" />
    </linearGradient>
    <linearGradient
       inkscape:collect="always"
       xlink:href="#linearGradient5"
       id="linearGradient41"
       x1="13.675659"
       y1="16.110115"
       x2="13.728528"
       y2="10.548769"
       gradientUnits="userSpaceOnUse"
       gradientTransform="matrix(2.046153,0,0,2.046153,-18.798306,-18.911347)" />
    <linearGradient
       inkscape:collect="always"
       xlink:href="#linearGradient42"
       id="linearGradient4"
       x1="11.885941"
       y1="16.50819"
       x2="12.026573"
       y2="10.244942"
       gradientUnits="userSpaceOnUse"
       gradientTransform="matrix(2.046153,0,0,2.046153,-18.798306,-18.911347)" />
    <linearGradient
       id="linearGradient42"
       inkscape:collect="always">
      <stop
         style="stop-color:#010101;stop-opacity:1;"
         offset="0"
         id="stop42" />
      <stop
         style="stop-color:#6e6c6d;stop-opacity:1;"
         offset="1"
         id="stop43" />
    </linearGradient>
    <linearGradient
       inkscape:collect="always"
       xlink:href="#linearGradient8"
       id="linearGradient9"
       x1="9.3404646"
       y1="4.1692023"
       x2="9.4279938"
       y2="16.46883"
       gradientUnits="userSpaceOnUse"
       gradientTransform="matrix(1.05,0,0,1.05,-0.50277005,-0.1977751)" />
    <filter
       style="color-interpolation-filters:sRGB;"
       inkscape:label="Blur"
       id="filter2"
       x="-0.14510849"
       y="-0.14612901"
       width="1.290217"
       height="1.292258">
      <feGaussianBlur
         stdDeviation="0.6 0.6"
         result="blur"
         id="feGaussianBlur2" />
    </filter>
    <linearGradient
       inkscape:collect="always"
       xlink:href="#linearGradient5"
       id="linearGradient38"
       x1="9.051055"
       y1="12.471957"
       x2="9.1976137"
       y2="4.3263946"
       gradientUnits="userSpaceOnUse" />
  </defs>
  <metadata
     id="metadata2">
    <rdf:RDF>
      <cc:Work
         rdf:about="">
        <dc:format>image/svg+xml</dc:format>
        <dc:type
           rdf:resource="http://purl.org/dc/dcmitype/StillImage" />
      </cc:Work>
    </rdf:RDF>
  </metadata>
  <rect
     style="fill:#000000;fill-opacity:0.996424;stroke:#000000;stroke-width:0.911802;stroke-dasharray:none;stroke-opacity:1;filter:url(#filter2)"
     id="rect1-2-3"
     width="13.065404"
     height="12.974159"
     x="1.9816793"
     y="1.9267306"
     rx="2.7149384"
     ry="2.8310909" />
  <rect
     style="fill:url(#linearGradient4);fill-opacity:0.996424;stroke:url(#linearGradient41);stroke-width:0.911802;stroke-dasharray:none;stroke-opacity:1"
     id="rect1-2"
     width="13.065404"
     height="12.974159"
     x="1.9816793"
     y="1.9267306"
     rx="2.7149384"
     ry="2.8310909" />
  <path
     id="path4-6"
     style="fill:#000000;fill-opacity:1;stroke-width:0.0365452;opacity:0.3"
     d="m 6.6830724,4.7864222 c -0.055361,1.12e-4 -0.1101033,0.00248 -0.1638705,0.00716 C 6.0130874,4.8376199 5.5893338,5.0130256 5.2033406,5.3375569 4.8596429,5.6265276 4.5906699,6.0558481 4.4785434,6.4951984 4.4203794,6.7231079 4.4148624,6.774117 4.4148794,7.0738308 c 1.4e-5,0.2507067 0.00364,0.3036909 0.028254,0.4253097 0.039232,0.1938097 0.1117105,0.4072096 0.1981514,0.5827762 l 0.073459,0.1495553 -0.024486,0.1552063 c -0.1184253,0.7426118 -0.025185,1.5113291 0.26596,2.1894587 0.5345939,1.245173 1.6904321,2.1425 3.0201143,2.345045 0.4066991,0.06195 0.7665779,0.06332 1.1855183,0.0045 l 0.142021,-0.01997 0.1382538,0.06103 c 0.2363864,0.104769 0.4794347,0.171367 0.7176398,0.196267 0.31181,0.0326 0.641086,-0.0049 0.950072,-0.107741 0.821755,-0.273551 1.414604,-0.985871 1.540759,-1.851924 0.02772,-0.190273 0.01841,-0.572117 -0.01809,-0.748531 -0.03253,-0.157332 -0.08789,-0.333814 -0.147671,-0.4716439 l -0.04747,-0.1103773 0.02939,-0.172158 c 0.04349,-0.2518554 0.05512,-0.3941013 0.055,-0.6822238 C 12.521594,8.6570021 12.484821,8.3588881 12.400833,8.0355793 12.137961,7.0236578 11.467042,6.1382209 10.566615,5.6151925 9.8027705,5.1715008 8.88021,4.9910683 8.029824,5.1190602 L 7.9047552,5.1378963 7.8177342,5.08704 C 7.488875,4.8949754 7.0705991,4.7856372 6.6830724,4.7864222 Z m 1.9223703,2.0553503 c 0.2879821,-4.97e-5 0.5147412,0.034897 0.7360987,0.1130141 0.2137758,0.075442 0.4586639,0.2185919 0.5443515,0.3186999 0.1992621,0.232792 0.1435121,0.5600133 -0.1194185,0.7025713 -0.072316,0.039209 -0.083811,0.041815 -0.1925003,0.041815 -0.125727,0 -0.1100618,0.00539 -0.3300015,-0.1137674 C 9.046856,7.797309 8.7748766,7.7315616 8.5331136,7.7319473 8.2411152,7.7324142 8.0525713,7.815902 7.9721868,7.9802015 c -0.069898,0.1428665 -0.050343,0.2667612 0.059144,0.3703096 0.1165224,0.1102022 0.26198,0.1693511 0.7688727,0.3130494 0.5320124,0.1508191 0.7683092,0.2441412 0.9862369,0.3891453 0.1217001,0.080977 0.2788306,0.2422819 0.3454456,0.3548644 0.156514,0.2645113 0.19152,0.6605568 0.08816,0.9937698 -0.166996,0.538323 -0.673673,0.895205 -1.3795255,0.971922 -0.1085047,0.01179 -0.468704,0.01495 -0.569968,0.0049 C 7.9771582,11.349029 7.6939432,11.272212 7.445541,11.154391 7.1816301,11.029213 7.0464707,10.917932 6.9750255,10.767129 c -0.036407,-0.07686 -0.038337,-0.08918 -0.038048,-0.221508 2.758e-4,-0.118407 0.00461,-0.151251 0.029007,-0.212466 0.055265,-0.138666 0.224432,-0.258963 0.381988,-0.271611 0.106828,-0.0086 0.1898722,0.01823 0.314179,0.100959 0.2614475,0.173991 0.596551,0.279609 0.9312367,0.293837 0.135165,0.0058 0.1924226,0.003 0.2742477,-0.01356 0.2438346,-0.04924 0.379156,-0.164444 0.4320904,-0.367671 C 9.3272048,9.9696092 9.2993445,9.8941887 9.1987669,9.8001057 9.0846952,9.6934048 8.9161793,9.623939 8.4506134,9.4915772 7.7629314,9.296067 7.5022519,9.1734529 7.2714994,8.9366776 7.0247027,8.6834398 6.9273151,8.2871886 7.0111901,7.8777352 7.1392246,7.2527077 7.7715534,6.8419162 8.6054427,6.8417725 Z" />
  <path
     id="path4"
     style="fill:url(#linearGradient38);fill-opacity:1;stroke-width:0.0365452"
     d="M 6.6830724,4.257266 C 6.6277116,4.257378 6.5729691,4.259741 6.5192019,4.26443 6.0130874,4.3084637 5.5893338,4.4838694 5.2033406,4.8084007 4.8596429,5.0973714 4.5906699,5.5266919 4.4785434,5.9660422 c -0.058164,0.2279095 -0.063681,0.2789186 -0.063664,0.5786324 1.4e-5,0.2507067 0.00364,0.3036909 0.028254,0.4253097 0.039232,0.1938097 0.1117105,0.4072096 0.1981514,0.5827762 l 0.073459,0.1495553 -0.024486,0.1552063 c -0.1184253,0.7426118 -0.025185,1.5113291 0.26596,2.1894589 0.5345939,1.245173 1.6904321,2.1425 3.0201143,2.345045 0.4066991,0.06195 0.7665779,0.06332 1.1855183,0.0045 l 0.142021,-0.01997 0.1382538,0.06103 c 0.2363864,0.104769 0.4794347,0.171367 0.7176398,0.196267 0.31181,0.0326 0.641086,-0.0049 0.950072,-0.107741 0.821755,-0.273551 1.414604,-0.985871 1.540759,-1.851924 0.02772,-0.190273 0.01841,-0.572117 -0.01809,-0.7485311 -0.03253,-0.1573325 -0.08789,-0.3338143 -0.147671,-0.471644 l -0.04747,-0.1103773 0.02939,-0.172158 c 0.04349,-0.2518554 0.05512,-0.3941013 0.055,-0.6822238 C 12.521594,8.1278459 12.484821,7.8297319 12.400833,7.5064231 12.137961,6.4945016 11.467042,5.6090647 10.566615,5.0860363 9.8027705,4.6423446 8.88021,4.4619121 8.029824,4.589904 L 7.9047552,4.6087401 7.8177342,4.5578838 C 7.488875,4.3658192 7.0705991,4.256481 6.6830724,4.257266 Z m 1.9223703,2.0553503 c 0.2879821,-4.97e-5 0.5147412,0.034897 0.7360987,0.1130141 0.2137758,0.075442 0.4586639,0.2185919 0.5443515,0.3186999 0.1992621,0.232792 0.1435121,0.5600133 -0.1194185,0.7025713 -0.072316,0.039209 -0.083811,0.041815 -0.1925003,0.041815 -0.125727,0 -0.1100618,0.00539 -0.3300015,-0.1137674 C 9.046856,7.2681528 8.7748766,7.2024054 8.5331136,7.2027911 8.2411152,7.203258 8.0525713,7.2867458 7.9721868,7.4510453 c -0.069898,0.1428665 -0.050343,0.2667612 0.059144,0.3703096 0.1165224,0.1102022 0.26198,0.1693511 0.7688727,0.3130494 0.5320124,0.1508191 0.7683092,0.2441412 0.9862369,0.3891453 0.1217001,0.080977 0.2788306,0.2422819 0.3454456,0.3548644 0.156514,0.2645113 0.19152,0.6605569 0.08816,0.9937701 -0.166996,0.5383229 -0.673673,0.8952049 -1.3795255,0.9719219 -0.1085047,0.01179 -0.468704,0.01495 -0.569968,0.0049 C 7.9771582,10.819873 7.6939432,10.743056 7.445541,10.625235 7.1816301,10.500057 7.0464707,10.388776 6.9750255,10.237973 c -0.036407,-0.07686 -0.038337,-0.08918 -0.038048,-0.221508 2.758e-4,-0.1184077 0.00461,-0.1512514 0.029007,-0.2124665 0.055265,-0.1386661 0.224432,-0.2589632 0.381988,-0.2716105 0.106828,-0.00858 0.1898722,0.018232 0.314179,0.1009589 0.2614475,0.1739912 0.596551,0.279609 0.9312367,0.2938371 0.135165,0.00576 0.1924226,0.00297 0.2742477,-0.013563 C 9.1114705,9.8643766 9.2467919,9.7491769 9.2997263,9.5459495 9.3272048,9.440453 9.2993445,9.3650325 9.1987669,9.2709495 9.0846952,9.1642486 8.9161793,9.0947828 8.4506134,8.962421 7.7629314,8.7669108 7.5022519,8.6442967 7.2714994,8.4075214 7.0247027,8.1542836 6.9273151,7.7580324 7.0111901,7.348579 7.1392246,6.7235515 7.7715534,6.31276 8.6054427,6.3126163 Z" />
  <rect
     style="opacity:0.5;fill:none;fill-opacity:0.996424;stroke:url(#linearGradient9);stroke-width:0.566102;stroke-dasharray:none;stroke-opacity:1"
     id="rect1-2-6"
     width="11.574203"
     height="11.508601"
     x="2.729686"
     y="2.6615164"
     rx="2.0246315"
     ry="2.0627522" />
</svg>
