<?xml version="1.0" encoding="UTF-8" standalone="no"?>
<svg
   width="64"
   height="64"
   version="1.1"
   viewBox="0 0 16.933 16.933"
   id="svg7"
   sodipodi:docname="Template 4.svg"
   inkscape:version="1.3.2 (091e20ef0f, 2023-11-25)"
   xmlns:inkscape="http://www.inkscape.org/namespaces/inkscape"
   xmlns:sodipodi="http://sodipodi.sourceforge.net/DTD/sodipodi-0.dtd"
   xmlns:xlink="http://www.w3.org/1999/xlink"
   xmlns="http://www.w3.org/2000/svg"
   xmlns:svg="http://www.w3.org/2000/svg"
   xmlns:rdf="http://www.w3.org/1999/02/22-rdf-syntax-ns#"
   xmlns:cc="http://creativecommons.org/ns#"
   xmlns:dc="http://purl.org/dc/elements/1.1/">
  <sodipodi:namedview
     id="namedview7"
     pagecolor="#9c4444"
     bordercolor="#000000"
     borderopacity="0.25"
     inkscape:showpageshadow="2"
     inkscape:pageopacity="0.0"
     inkscape:pagecheckerboard="0"
     inkscape:deskcolor="#d1d1d1"
     inkscape:zoom="4.3531261"
     inkscape:cx="32.849956"
     inkscape:cy="24.350317"
     inkscape:window-width="1356"
     inkscape:window-height="786"
     inkscape:window-x="35"
     inkscape:window-y="32"
     inkscape:window-maximized="0"
     inkscape:current-layer="svg7"
     showgrid="false" />
  <defs
     id="defs2">
    <linearGradient
       id="linearGradient5"
       inkscape:collect="always">
      <stop
         style="stop-color:#392713;stop-opacity:1;"
         offset="0"
         id="stop2" />
      <stop
         style="stop-color:#eed59e;stop-opacity:1;"
         offset="0.5"
         id="stop3" />
      <stop
         style="stop-color:#beaa8a;stop-opacity:1;"
         offset="1"
         id="stop4" />
    </linearGradient>
    <linearGradient
       id="linearGradient8"
       inkscape:collect="always">
      <stop
         style="stop-color:#1a1a1a;stop-opacity:1;"
         offset="0"
         id="stop8" />
      <stop
         style="stop-color:#ffffff;stop-opacity:0;"
         offset="1"
         id="stop9" />
    </linearGradient>
    <linearGradient
       inkscape:collect="always"
       xlink:href="#linearGradient5"
       id="linearGradient41"
       x1="13.675659"
       y1="16.110115"
       x2="13.728528"
       y2="10.548769"
       gradientUnits="userSpaceOnUse"
       gradientTransform="matrix(2.046153,0,0,2.046153,-18.798306,-18.911347)" />
    <linearGradient
       inkscape:collect="always"
       xlink:href="#linearGradient42"
       id="linearGradient4"
       x1="11.885941"
       y1="16.50819"
       x2="12.026573"
       y2="10.244942"
       gradientUnits="userSpaceOnUse"
       gradientTransform="matrix(2.046153,0,0,2.046153,-18.798306,-18.911347)" />
    <linearGradient
       id="linearGradient42"
       inkscape:collect="always">
      <stop
         style="stop-color:#010101;stop-opacity:1;"
         offset="0"
         id="stop42" />
      <stop
         style="stop-color:#6e6c6d;stop-opacity:1;"
         offset="1"
         id="stop43" />
    </linearGradient>
    <linearGradient
       inkscape:collect="always"
       xlink:href="#linearGradient8"
       id="linearGradient9"
       x1="9.3404646"
       y1="4.1692023"
       x2="9.4279938"
       y2="16.46883"
       gradientUnits="userSpaceOnUse"
       gradientTransform="matrix(1.05,0,0,1.05,-0.50277005,-0.1977751)" />
    <filter
       style="color-interpolation-filters:sRGB;"
       inkscape:label="Blur"
       id="filter2"
       x="-0.14510849"
       y="-0.14612901"
       width="1.290217"
       height="1.292258">
      <feGaussianBlur
         stdDeviation="0.6 0.6"
         result="blur"
         id="feGaussianBlur2" />
    </filter>
    <linearGradient
       inkscape:collect="always"
       xlink:href="#linearGradient5"
       id="linearGradient40"
       x1="33.370392"
       y1="49.410019"
       x2="32.661484"
       y2="14.38118"
       gradientUnits="userSpaceOnUse"
       gradientTransform="matrix(0.23573911,0,0,0.23573911,0.92667932,0.86747808)" />
  </defs>
  <metadata
     id="metadata2">
    <rdf:RDF>
      <cc:Work
         rdf:about="">
        <dc:format>image/svg+xml</dc:format>
        <dc:type
           rdf:resource="http://purl.org/dc/dcmitype/StillImage" />
      </cc:Work>
    </rdf:RDF>
  </metadata>
  <rect
     style="fill:#000000;fill-opacity:0.996424;stroke:#000000;stroke-width:0.911802;stroke-dasharray:none;stroke-opacity:1;filter:url(#filter2)"
     id="rect1-2-3"
     width="13.065404"
     height="12.974159"
     x="1.9816793"
     y="1.9267306"
     rx="2.7149384"
     ry="2.8310909" />
  <rect
     style="fill:url(#linearGradient4);fill-opacity:0.996424;stroke:url(#linearGradient41);stroke-width:0.911802;stroke-dasharray:none;stroke-opacity:1"
     id="rect1-2"
     width="13.065404"
     height="12.974159"
     x="1.9816793"
     y="1.9267306"
     rx="2.7149384"
     ry="2.8310909" />
  <path
     id="path4-8"
     style="fill:#000000;fill-opacity:1;stroke:none;stroke-width:0.27754;stroke-dasharray:none;stroke-dashoffset:2.2;stroke-opacity:0.3;opacity:0.3"
     d="m 7.6358592,4.6727513 -0.097371,0.037449 C 7.3009444,4.8017535 7.1300631,4.9742308 7.044144,5.2094416 l -0.0314,0.086136 -0.00315,1.237302 c -0.00198,0.7717016 8.014e-4,1.237301 0.00778,1.237301 0.023584,0 0.088023,0.065882 0.1086059,0.111199 0.02642,0.058169 0.027754,0.1224125 0.00402,0.1791851 -0.030424,0.072816 -0.038974,0.077837 -0.07807,0.044941 -0.018944,-0.015939 -0.055283,-0.034574 -0.080949,-0.041484 -0.1314444,-0.035395 -0.2634008,0.071771 -0.2615759,0.2126029 0.00163,0.1269015 0.1138274,0.2225753 0.2411223,0.2056893 l 0.056462,-0.0075 v 0.2926885 0.2926885 l 0.053294,0.00605 c 0.032712,0.0037 0.080212,0.022737 0.1227223,0.048973 0.078601,0.048516 0.1530865,0.077494 0.1990625,0.077494 0.032215,0 0.1249459,0.083671 0.1523948,0.137414 0.031324,0.06133 0.00904,0.1259659 -0.052143,0.1515295 -0.083459,0.034882 -0.1805011,0.01636 -0.3047784,-0.057897 -0.068336,-0.040839 -0.09195,-0.048834 -0.1411497,-0.048111 -0.1103761,0.0016 -0.2189261,0.075598 -0.4479644,0.3045 C 6.4250968,9.8433792 6.3414273,9.8967121 6.2326495,9.9065754 6.1162481,9.9171319 5.9952732,9.8451902 5.9615662,9.7452509 5.9539283,9.7226247 5.9423087,9.6272633 5.9356387,9.5335125 5.9173807,9.2766772 5.8845508,9.1448211 5.8085956,9.0250526 5.7562283,8.9424784 5.6911473,8.9046349 5.6020428,8.9046349 c -0.059933,0 -0.082261,0.00621 -0.1302125,0.035719 -0.031897,0.019634 -0.074241,0.060058 -0.09449,0.090168 -0.086428,0.1285141 -0.05712,0.2107773 0.135397,0.3788251 0.067247,0.058698 0.1273734,0.1180921 0.1336698,0.1322276 0.019835,0.044532 7.544e-4,0.082699 -0.059055,0.1178257 -0.049098,0.02882 -0.067809,0.032795 -0.1558517,0.032839 C 5.2685881,9.6923256 5.1802283,9.6430776 5.1019363,9.5090232 5.0301047,9.3860352 4.9687651,9.3507558 4.8864526,9.3851486 c -0.07186,0.030025 -0.1184849,0.1392381 -0.087288,0.2045367 0.014243,0.029816 0.023393,0.032938 0.1224342,0.045228 0.059805,0.00742 0.1200949,0.022252 0.1371256,0.033418 0.016733,0.010967 0.063563,0.06576 0.1039975,0.1218585 0.2849704,0.3953512 0.8242453,1.0878402 1.1551987,1.4833192 0.5740189,0.685938 1.1506797,1.273446 1.5412255,1.570611 0.2231693,0.169809 0.3872714,0.265032 0.555706,0.322072 0.1813545,0.06142 0.3202341,0.0466 0.5375559,-0.05731 0.2784908,-0.133172 0.6228315,-0.406655 1.0463048,-0.830532 0.5813902,-0.581947 1.3220262,-1.468786 1.9825642,-2.3743513 0.08491,-0.1163813 0.176946,-0.2353623 0.204534,-0.2644575 0.06378,-0.067249 0.111195,-0.1381175 0.111195,-0.1662222 0,-0.056266 -0.18401,-0.00467 -0.302769,0.084984 -0.08716,0.065803 -0.189369,0.1054442 -0.292113,0.1132147 -0.104485,0.0079 -0.143055,-0.00116 -0.159597,-0.03745 -0.01048,-0.02293 -0.008,-0.035636 0.01153,-0.067411 0.02672,-0.043108 0.07595,-0.08182 0.263016,-0.2079936 0.132777,-0.089558 0.19387,-0.1482659 0.23104,-0.2212447 0.06545,-0.1285067 0.08093,-0.3023062 0.03399,-0.3851623 -0.05997,-0.1058721 -0.168916,-0.1299962 -0.297585,-0.065684 -0.130432,0.065195 -0.272849,0.2166266 -0.305365,0.3246654 -0.0088,0.029215 -0.02183,0.1336157 -0.0288,0.2319041 -0.01304,0.1833262 -0.03498,0.299848 -0.06482,0.345407 -0.05242,0.079991 -0.180731,0.1239413 -0.230464,0.078934 -0.01345,-0.01216 -0.03188,-0.036394 -0.04091,-0.053871 -0.03136,-0.06063 -0.02111,-0.093672 0.06079,-0.1976222 0.09049,-0.1148552 0.107723,-0.1453197 0.118109,-0.2102979 0.0159,-0.09948 -0.05857,-0.2386722 -0.153835,-0.2877918 -0.08985,-0.046326 -0.236104,-0.015865 -0.339358,0.07058 -0.101287,0.084807 -0.10209,0.1326941 -0.0063,0.3433908 0.03954,0.086996 0.07444,0.1782987 0.07779,0.2030961 0.0079,0.059705 -0.01875,0.099471 -0.08901,0.1319406 -0.0482,0.022275 -0.07547,0.025349 -0.225278,0.025349 -0.21389,0 -0.280838,-0.017549 -0.348577,-0.091035 -0.05433,-0.058914 -0.07903,-0.1073249 -0.150419,-0.295577 -0.05343,-0.1409344 -0.081099,-0.195318 -0.099391,-0.195318 -0.0054,0 -0.050346,0.026287 -0.099676,0.05848 -0.1382027,0.090206 -0.1817148,0.1091394 -0.2664859,0.1152251 -0.1036568,0.00743 -0.19419,-0.029205 -0.2189408,-0.08844 -0.015418,-0.036888 -0.014331,-0.044661 0.012964,-0.1042863 0.016221,-0.035444 0.040475,-0.079708 0.053869,-0.098524 0.021101,-0.029623 0.028165,-0.032818 0.05387,-0.023046 0.084651,0.032185 0.1896908,0.00237 0.3379179,-0.095931 0.057299,-0.03801 0.1140684,-0.069139 0.1261779,-0.069139 0.03105,0 0.04842,0.031465 0.1158083,0.2102981 0.05909,0.1568015 0.09478,0.2290132 0.140581,0.2840456 l 0.02419,0.028807 2.59e-4,-0.3016187 2.59e-4,-0.3016192 0.07346,-0.1374136 c 0.0404,-0.075577 0.101104,-0.169024 0.134531,-0.2077062 0.07322,-0.084718 0.09276,-0.1483857 0.07491,-0.2416981 -0.01753,-0.091519 -0.06047,-0.1670381 -0.117824,-0.2065529 -0.09618,-0.066297 -0.164858,0.032746 -0.212314,0.3065167 -0.0356,0.2053839 -0.04711,0.2494768 -0.06511,0.2494768 -0.02819,0 -0.04349,-0.047245 -0.03603,-0.1106225 0.0038,-0.032914 0.0226,-0.1285514 0.04179,-0.2126028 0.01919,-0.084053 0.04381,-0.2030345 0.05472,-0.2644565 0.01096,-0.061424 0.02721,-0.1322339 0.03601,-0.1572918 0.01309,-0.037223 0.01584,-0.2480088 0.01584,-1.1523177 0,-1.1631118 -0.003,-1.2430006 -0.05271,-1.3862385 C 10.107246,4.9745527 9.9169166,4.785787 9.6849151,4.7061657 L 9.5872534,4.6727475 H 8.6115275 Z m 1.1335935,2.0473812 c 0.038712,8.748e-4 0.077526,0.00757 0.109758,0.019875 0.066871,0.025538 0.1509515,0.1145606 0.1708312,0.1809138 C 9.094636,7.0697601 9.0207802,7.2368835 8.8852607,7.293408 8.831573,7.3158027 8.695747,7.3168539 8.6458665,7.295172 8.5921376,7.2717796 8.52521,7.208807 8.4963527,7.1543043 c -0.035878,-0.067759 -0.035795,-0.2049294 0,-0.2725236 0.032729,-0.061803 0.1058231,-0.1274189 0.1636298,-0.1469199 0.032134,-0.01084 0.070759,-0.015578 0.1094702,-0.014696 z m -1.327759,0.8855564 c 0.09936,0 0.1861518,0.085793 0.2805897,0.2771323 C 7.8250623,8.0910599 7.8979328,8.3658089 7.8847597,8.4955668 7.8741019,8.600523 7.8594535,8.6065602 7.8366511,8.5151589 7.7913954,8.3337696 7.6811002,8.1004428 7.593512,8.0009374 7.5064186,7.9019953 7.4269675,7.8837929 7.3555584,7.9464898 l -0.040332,0.035434 -0.012961,-0.05243 c -0.018748,-0.074466 -0.016733,-0.2009581 0.00402,-0.2411227 0.028795,-0.055683 0.073178,-0.082678 0.1353987,-0.082678 z m -2.2159081,0.01238 c -0.043315,2.73e-5 -0.086587,0.00713 -0.1178239,0.021317 -0.05981,0.027168 -0.1383432,0.1153688 -0.156427,0.1757287 -0.045635,0.152316 0.038126,0.3144412 0.1860998,0.3603878 0.068862,0.021377 0.1018544,0.021391 0.1691023,0.00116 C 5.463494,8.1294846 5.5526195,7.9571389 5.4962925,7.8096482 5.4697334,7.7401122 5.4038901,7.6669782 5.3433228,7.6393937 5.3122543,7.6252423 5.2691008,7.6180523 5.2257856,7.6180758 Z M 9.5005982,7.888576 c 0.03065,-0.00393 0.059125,0.00339 0.08412,0.023048 0.045748,0.035986 0.059609,0.093834 0.052141,0.2189401 -0.00358,0.060027 -0.00972,0.1139624 -0.013539,0.1201298 -0.0038,0.00615 -0.022342,-0.00419 -0.041198,-0.023048 C 9.5378375,8.1833672 9.4955528,8.1835553 9.4251167,8.228212 9.3566761,8.271618 9.2775026,8.3782069 9.2093477,8.5183093 9.1599191,8.6199171 9.1565033,8.6341355 9.1456817,8.7712432 9.1250874,9.032235 9.1133189,9.1004298 9.0785602,9.1687939 9.0056708,9.3121419 8.7709088,9.4090746 8.6343407,9.352012 c -0.052144,-0.021785 -0.05965,-0.043366 -0.03457,-0.096218 0.034268,-0.072211 -0.0097,-0.1930234 -0.09161,-0.2523578 -0.1618137,-0.1172175 -0.3960568,0.081883 -0.3010428,0.2558142 0.0262,0.047956 0.026815,0.053695 0.010092,0.083543 -0.00988,0.017631 -0.033042,0.039491 -0.051566,0.048398 -0.041839,0.02011 -0.1609575,0.027015 -0.225855,0.013251 C 7.812652,9.3774781 7.706275,9.2875873 7.6698535,9.1762824 7.5982101,8.9573427 7.3825538,8.6934441 7.2544426,8.6678218 7.2228202,8.6614948 7.21213,8.6507209 7.1927926,8.6061736 7.1626435,8.5367152 7.1534077,8.4323437 7.1740699,8.3932832 c 0.020317,-0.038416 0.075139,-0.044141 0.1345335,-0.013828 0.05893,0.030078 0.075,0.049731 0.127618,0.1549867 0.053321,0.1066607 0.140733,0.2374272 0.1970468,0.2949933 0.02278,0.023288 0.052401,0.063557 0.065685,0.089591 0.070759,0.1386986 0.2717391,0.2204467 0.4295271,0.1745766 0.086549,-0.025156 0.1019128,-0.053384 0.066837,-0.1221461 -0.04263,-0.083558 -0.029732,-0.1643599 0.037739,-0.2356491 0.047815,-0.050523 0.098643,-0.07202 0.1696783,-0.07202 0.078921,0 0.130948,0.031084 0.1760168,0.105437 0.047471,0.078319 0.059576,0.148443 0.033994,0.1979107 -0.026131,0.050534 -0.024719,0.054611 0.027943,0.078358 0.1422387,0.06414 0.3978558,-0.064999 0.4502681,-0.2275833 0.011589,-0.035942 0.025406,-0.13741 0.032263,-0.2350726 0.015582,-0.2219363 0.02603,-0.2697244 0.082389,-0.3834339 0.092073,-0.185751 0.203036,-0.2989921 0.2949943,-0.3108373 z m -3.164266,0.023048 c -0.028034,-1.207e-4 -0.05721,0.010275 -0.080951,0.030252 -0.054733,0.046056 -0.049157,0.085007 0.028517,0.1981987 0.08338,0.1215019 0.1229735,0.2314094 0.1232984,0.3433909 2.127e-4,0.074135 -0.00362,0.088932 -0.030825,0.1212821 -0.024505,0.029124 -0.038701,0.035952 -0.067697,0.033131 C 6.2525464,8.6324171 6.2318825,8.5778637 6.2164889,8.3938762 6.2015101,8.2148187 6.1888282,8.1859152 6.1058678,8.1455548 6.038384,8.1127227 5.9133147,8.101538 5.8489004,8.1227941 5.7497971,8.1555029 5.6791171,8.2562405 5.6786459,8.365357 c -4.715e-4,0.1116338 0.060154,0.2036227 0.1679499,0.2546621 0.086222,0.040824 0.1253447,0.090526 0.1829307,0.232768 0.063382,0.156561 0.078155,0.175106 0.1630528,0.2054011 0.085498,0.030508 0.2534356,0.015405 0.3454076,-0.031116 C 6.6377514,8.9766169 6.694559,8.8534375 6.6866356,8.7047124 6.6810179,8.5991993 6.6524195,8.5296419 6.5777421,8.4402555 6.4982686,8.3451329 6.4552306,8.2364112 6.4360066,8.0818852 6.4240145,7.985463 6.4078163,7.9358189 6.3841526,7.9231528 6.3695015,7.9153122 6.3531496,7.9116889 6.3363313,7.9116252 Z m 5.0756728,2.592e-4 c -0.02743,4.009e-4 -0.05554,0.00455 -0.08383,0.012381 -0.06175,0.017141 -0.161895,0.1179827 -0.180913,0.1823546 -0.04496,0.1521975 0.03425,0.3111747 0.1812,0.363556 0.227032,0.080929 0.452177,-0.1591432 0.356931,-0.380553 -0.04882,-0.1134971 -0.154535,-0.1794611 -0.273394,-0.177742 z M 4.4024545,8.6473665 c -0.011007,2.593e-4 -0.021674,0.00144 -0.031975,0.00374 -0.088717,0.020247 -0.1723011,0.1171327 -0.1728471,0.2005051 -5.657e-4,0.083926 0.057517,0.1732593 0.134822,0.2071296 0.081059,0.035516 0.17567,0.012622 0.2370887,-0.057328 0.065477,-0.074577 0.076603,-0.1599908 0.032266,-0.245734 C 4.5687103,8.6916673 4.4794872,8.645375 4.402458,8.6473578 Z M 12.513621,8.947257 c -0.06871,0.00158 -0.118393,0.027966 -0.158442,0.083255 -0.07878,0.1087544 -0.04319,0.2558371 0.07606,0.3148701 0.176653,0.087445 0.370572,-0.094136 0.291536,-0.272811 -0.03378,-0.076364 -0.09414,-0.1183394 -0.178611,-0.1244506 -0.01062,-7.308e-4 -0.02073,-0.00109 -0.03054,-8.505e-4 z" />
  <path
     id="path4"
     style="fill:url(#linearGradient40);fill-opacity:1;stroke:none;stroke-width:0.27754;stroke-dasharray:none;stroke-dashoffset:2.2;stroke-opacity:0.3"
     d="m 7.6358592,4.1435951 -0.097371,0.037449 C 7.3009444,4.2725973 7.1300631,4.4450746 7.044144,4.6802854 l -0.0314,0.086136 -0.00315,1.237302 c -0.00198,0.7717016 8.014e-4,1.237301 0.00778,1.237301 0.023584,0 0.088023,0.065882 0.1086059,0.111199 0.02642,0.058169 0.027754,0.1224125 0.00402,0.1791851 -0.030424,0.072816 -0.038974,0.077837 -0.07807,0.044941 -0.018944,-0.015939 -0.055283,-0.034574 -0.080949,-0.041484 -0.1314444,-0.035395 -0.2634008,0.071771 -0.2615759,0.2126029 0.00163,0.1269015 0.1138274,0.2225753 0.2411223,0.2056893 l 0.056462,-0.0075 v 0.2926885 0.2926885 l 0.053294,0.00605 c 0.032712,0.0037 0.080212,0.022737 0.1227223,0.048973 0.078601,0.048516 0.1530865,0.077494 0.1990625,0.077494 0.032215,0 0.1249459,0.083671 0.1523948,0.137414 0.031324,0.06133 0.00904,0.1259659 -0.052143,0.1515295 -0.083459,0.034882 -0.1805011,0.01636 -0.3047784,-0.057897 -0.068336,-0.040839 -0.09195,-0.048834 -0.1411497,-0.048111 -0.1103761,0.0016 -0.2189261,0.075598 -0.4479644,0.3045 C 6.4250968,9.314223 6.3414273,9.3675559 6.2326495,9.3774192 6.1162481,9.3879757 5.9952732,9.316034 5.9615662,9.2160947 5.9539283,9.1934685 5.9423087,9.0981071 5.9356387,9.0043563 5.9173807,8.747521 5.8845508,8.6156649 5.8085956,8.4958964 5.7562283,8.4133222 5.6911473,8.3754787 5.6020428,8.3754787 c -0.059933,0 -0.082261,0.00621 -0.1302125,0.035719 -0.031897,0.019634 -0.074241,0.060058 -0.09449,0.090168 -0.086428,0.1285141 -0.05712,0.2107772 0.135397,0.378825 0.067247,0.058698 0.1273734,0.1180921 0.1336698,0.1322277 0.019835,0.044532 7.544e-4,0.082699 -0.059055,0.1178257 -0.049098,0.02882 -0.067809,0.032795 -0.1558517,0.032839 C 5.2685881,9.1631694 5.1802283,9.1139214 5.1019363,8.979867 5.0301047,8.856879 4.9687651,8.8215996 4.8864526,8.8559924 c -0.07186,0.030025 -0.1184849,0.1392381 -0.087288,0.2045367 0.014243,0.029816 0.023393,0.032938 0.1224342,0.045228 0.059805,0.00742 0.1200949,0.022252 0.1371256,0.033418 0.016733,0.010967 0.063563,0.06576 0.1039975,0.1218585 0.2849704,0.3953509 0.8242453,1.0878404 1.1551987,1.4833194 0.5740189,0.685938 1.1506797,1.273446 1.5412255,1.570611 0.2231693,0.169809 0.3872714,0.265032 0.555706,0.322072 0.1813545,0.06142 0.3202341,0.0466 0.5375559,-0.05731 0.2784908,-0.133172 0.6228315,-0.406655 1.0463048,-0.830532 0.5813902,-0.581947 1.3220262,-1.468786 1.9825642,-2.3743516 0.08491,-0.1163813 0.176946,-0.2353623 0.204534,-0.2644575 0.06378,-0.067249 0.111195,-0.1381175 0.111195,-0.1662222 0,-0.056266 -0.18401,-0.00467 -0.302769,0.084984 -0.08716,0.065803 -0.189369,0.1054442 -0.292113,0.1132147 -0.104485,0.0079 -0.143055,-0.00116 -0.159597,-0.03745 -0.01048,-0.02293 -0.008,-0.035636 0.01153,-0.067411 0.02672,-0.043108 0.07595,-0.08182 0.263016,-0.2079936 0.132777,-0.089558 0.19387,-0.1482659 0.23104,-0.2212447 0.06545,-0.1285067 0.08093,-0.3023062 0.03399,-0.3851623 -0.05997,-0.1058721 -0.168916,-0.1299962 -0.297585,-0.065684 -0.130432,0.065195 -0.272849,0.2166266 -0.305365,0.3246654 -0.0088,0.029215 -0.02183,0.1336157 -0.0288,0.2319041 -0.01304,0.1833262 -0.03498,0.299848 -0.06482,0.345407 -0.05242,0.079991 -0.180731,0.1239413 -0.230464,0.078934 -0.01345,-0.01216 -0.03188,-0.036394 -0.04091,-0.053871 -0.03136,-0.06063 -0.02111,-0.093672 0.06079,-0.1976222 0.09049,-0.1148552 0.107723,-0.1453197 0.118109,-0.2102979 0.0159,-0.09948 -0.05857,-0.2386722 -0.153835,-0.2877918 -0.08985,-0.046326 -0.236104,-0.015865 -0.339358,0.07058 -0.101287,0.084807 -0.10209,0.1326941 -0.0063,0.3433908 0.03954,0.086996 0.07444,0.1782987 0.07779,0.2030961 0.0079,0.059705 -0.01875,0.099471 -0.08901,0.1319406 -0.0482,0.022275 -0.07547,0.025349 -0.225278,0.025349 -0.21389,0 -0.280838,-0.017549 -0.348577,-0.091035 C 10.154159,9.0131506 10.129463,8.9647401 10.058071,8.776488 10.004638,8.6355536 9.9769721,8.58117 9.9586796,8.58117 c -0.0054,0 -0.050346,0.026287 -0.099676,0.05848 -0.1382027,0.090206 -0.1817148,0.1091394 -0.2664859,0.1152251 -0.1036568,0.00743 -0.19419,-0.029205 -0.2189408,-0.08844 -0.015418,-0.036888 -0.014331,-0.044661 0.012964,-0.1042863 0.016221,-0.035444 0.040475,-0.079708 0.053869,-0.098524 0.021101,-0.029623 0.028165,-0.032818 0.05387,-0.023046 0.084651,0.032185 0.1896908,0.00237 0.3379179,-0.095931 0.057299,-0.03801 0.1140684,-0.069139 0.1261779,-0.069139 0.03105,0 0.04842,0.031465 0.1158083,0.2102981 0.05909,0.1568015 0.09478,0.2290132 0.140581,0.2840456 l 0.02419,0.028807 2.59e-4,-0.3016187 2.59e-4,-0.3016192 0.07346,-0.1374136 c 0.0404,-0.075577 0.101104,-0.169024 0.134531,-0.2077062 0.07322,-0.084718 0.09276,-0.1483857 0.07491,-0.2416981 -0.01753,-0.091519 -0.06047,-0.1670381 -0.117824,-0.2065529 -0.09618,-0.066297 -0.164858,0.032746 -0.212314,0.3065167 -0.0356,0.2053839 -0.04711,0.2494768 -0.06511,0.2494768 -0.02819,0 -0.04349,-0.047245 -0.03603,-0.1106225 0.0038,-0.032914 0.0226,-0.1285514 0.04179,-0.2126028 0.01919,-0.084053 0.04381,-0.2030345 0.05472,-0.2644565 0.01096,-0.061424 0.02721,-0.1322339 0.03601,-0.1572918 0.01309,-0.037223 0.01584,-0.2480088 0.01584,-1.1523177 0,-1.1631118 -0.003,-1.2430006 -0.05271,-1.3862385 -0.0795,-0.229118 -0.2698294,-0.4178837 -0.5018309,-0.497505 L 9.5872534,4.1435913 H 8.6115275 Z m 1.1335935,2.0473812 c 0.038712,8.748e-4 0.077526,0.00757 0.109758,0.019875 0.066871,0.025538 0.1509515,0.1145606 0.1708312,0.1809138 C 9.094636,6.5406039 9.0207802,6.7077273 8.8852607,6.7642518 8.831573,6.7866465 8.695747,6.7876977 8.6458665,6.7660158 8.5921376,6.7426234 8.52521,6.6796508 8.4963527,6.6251481 c -0.035878,-0.067759 -0.035795,-0.2049294 0,-0.2725236 0.032729,-0.061803 0.1058231,-0.1274189 0.1636298,-0.1469199 0.032134,-0.01084 0.070759,-0.015578 0.1094702,-0.014696 z m -1.327759,0.8855564 c 0.09936,0 0.1861518,0.085793 0.2805897,0.2771323 C 7.8250623,7.5619037 7.8979328,7.8366527 7.8847597,7.9664106 7.8741019,8.0713668 7.8594535,8.077404 7.8366511,7.9860027 7.7913954,7.8046134 7.6811002,7.5712866 7.593512,7.4717812 7.5064186,7.3728391 7.4269675,7.3546367 7.3555584,7.4173336 l -0.040332,0.035434 -0.012961,-0.05243 c -0.018748,-0.074466 -0.016733,-0.2009581 0.00402,-0.2411227 0.028795,-0.055683 0.073178,-0.082678 0.1353987,-0.082678 z m -2.2159081,0.01238 c -0.043315,2.73e-5 -0.086587,0.00713 -0.1178239,0.021317 -0.05981,0.027168 -0.1383432,0.1153688 -0.156427,0.1757287 -0.045635,0.152316 0.038126,0.3144412 0.1860998,0.3603878 0.068862,0.021377 0.1018544,0.021391 0.1691023,0.00116 C 5.463494,7.6003284 5.5526195,7.4279827 5.4962925,7.280492 5.4697334,7.210956 5.4038901,7.137822 5.3433228,7.1102375 5.3122543,7.0960861 5.2691008,7.0888961 5.2257856,7.0889196 Z m 4.2748126,0.2705071 c 0.03065,-0.00393 0.059125,0.00339 0.08412,0.023048 0.045748,0.035986 0.059609,0.093834 0.052141,0.2189401 -0.00358,0.060027 -0.00972,0.1139624 -0.013539,0.1201298 -0.0038,0.00615 -0.022342,-0.00419 -0.041198,-0.023048 C 9.5378375,7.654211 9.4955528,7.6543991 9.4251167,7.6990558 9.3566761,7.7424618 9.2775026,7.8490507 9.2093477,7.9891531 9.1599191,8.0907609 9.1565033,8.1049793 9.1456817,8.242087 9.1250874,8.5030788 9.1133189,8.5712736 9.0785602,8.6396377 9.0056708,8.7829857 8.7709088,8.8799184 8.6343407,8.8228558 8.5821962,8.8010708 8.5746907,8.77949 8.5997708,8.7266377 8.6340386,8.6544262 8.5900751,8.5336143 8.5081604,8.4742799 8.3463467,8.3570624 8.1121036,8.556163 8.2071176,8.7300941 c 0.0262,0.047956 0.026815,0.053695 0.010092,0.083543 -0.00988,0.017631 -0.033042,0.039491 -0.051566,0.048398 -0.041839,0.02011 -0.1609575,0.027015 -0.225855,0.013251 C 7.812652,8.8483219 7.706275,8.7584311 7.6698535,8.6471262 7.5982101,8.4281865 7.3825538,8.1642879 7.2544426,8.1386656 7.2228202,8.1323386 7.21213,8.1215647 7.1927926,8.0770174 7.1626435,8.007559 7.1534077,7.9031875 7.1740699,7.864127 7.1943869,7.825711 7.2492089,7.819986 7.3086034,7.850299 c 0.05893,0.030078 0.075,0.049731 0.127618,0.1549867 0.053321,0.1066607 0.140733,0.2374272 0.1970468,0.2949933 0.02278,0.023288 0.052401,0.063557 0.065685,0.089591 0.070759,0.1386986 0.2717391,0.2204467 0.4295271,0.1745766 0.086549,-0.025156 0.1019128,-0.053384 0.066837,-0.1221461 -0.04263,-0.083558 -0.029732,-0.1643599 0.037739,-0.2356491 0.047815,-0.050523 0.098643,-0.07202 0.1696783,-0.07202 0.078921,0 0.130948,0.031084 0.1760168,0.105437 0.047471,0.078319 0.059576,0.148443 0.033994,0.1979107 -0.026131,0.050534 -0.024719,0.054611 0.027943,0.078358 0.1422387,0.06414 0.3978558,-0.064999 0.4502681,-0.2275833 0.011589,-0.035942 0.025406,-0.13741 0.032263,-0.2350726 0.015582,-0.2219363 0.02603,-0.2697244 0.082389,-0.3834339 0.092073,-0.185751 0.203036,-0.2989921 0.2949943,-0.3108373 z m -3.164266,0.023048 c -0.028034,-1.207e-4 -0.05721,0.010275 -0.080951,0.030252 -0.054733,0.046056 -0.049157,0.085007 0.028517,0.1981987 0.08338,0.1215019 0.1229735,0.2314094 0.1232984,0.3433909 2.127e-4,0.074135 -0.00362,0.088932 -0.030825,0.1212821 -0.024505,0.029124 -0.038701,0.035952 -0.067697,0.033131 C 6.2525464,8.1032609 6.2318825,8.0487075 6.2164889,7.86472 6.2015101,7.6856625 6.1888282,7.656759 6.1058678,7.6163986 6.038384,7.5835665 5.9133147,7.5723818 5.8489004,7.5936379 5.7497971,7.6263467 5.6791171,7.7270843 5.6786459,7.8362008 c -4.715e-4,0.1116338 0.060154,0.2036227 0.1679499,0.2546621 0.086222,0.040824 0.1253447,0.090526 0.1829307,0.2327679 0.063382,0.1565611 0.078155,0.175106 0.1630528,0.2054011 0.085498,0.030508 0.2534356,0.015405 0.3454076,-0.031116 C 6.6377514,8.4474607 6.694559,8.3242813 6.6866356,8.1755562 6.6810179,8.0700431 6.6524195,8.0004857 6.5777421,7.9110993 6.4982686,7.8159767 6.4552306,7.707255 6.4360066,7.552729 6.4240145,7.4563068 6.4078163,7.4066627 6.3841526,7.3939966 6.3695015,7.386156 6.3531496,7.3825327 6.3363313,7.382469 Z m 5.0756728,2.592e-4 c -0.02743,4.009e-4 -0.05554,0.00455 -0.08383,0.012381 -0.06175,0.017141 -0.161895,0.1179826 -0.180913,0.1823546 -0.04496,0.1521975 0.03425,0.3111747 0.1812,0.363556 0.227032,0.080929 0.452177,-0.1591432 0.356931,-0.380553 -0.04882,-0.1134971 -0.154535,-0.1794611 -0.273394,-0.177742 z M 4.4024545,8.1182103 c -0.011007,2.593e-4 -0.021674,0.00144 -0.031975,0.00374 -0.088717,0.020247 -0.1723011,0.1171327 -0.1728471,0.2005051 -5.657e-4,0.083926 0.057517,0.1732593 0.134822,0.2071296 0.081059,0.035516 0.17567,0.012622 0.2370887,-0.057328 C 4.6350201,8.39768 4.6461461,8.3122662 4.6018091,8.226523 4.5687103,8.1625111 4.4794872,8.1162188 4.402458,8.1182016 Z m 8.1111665,0.2998905 c -0.06871,0.00158 -0.118393,0.027966 -0.158442,0.083255 -0.07878,0.1087544 -0.04319,0.2558371 0.07606,0.3148701 0.176653,0.087445 0.370572,-0.094136 0.291536,-0.272811 -0.03378,-0.076364 -0.09414,-0.1183394 -0.178611,-0.1244506 -0.01062,-7.308e-4 -0.02073,-0.00109 -0.03054,-8.505e-4 z" />
  <rect
     style="opacity:0.5;fill:none;fill-opacity:0.996424;stroke:url(#linearGradient9);stroke-width:0.566102;stroke-dasharray:none;stroke-opacity:1"
     id="rect1-2-6"
     width="11.574203"
     height="11.508601"
     x="2.729686"
     y="2.6615164"
     rx="2.0246315"
     ry="2.0627522" />
</svg>
