<?xml version="1.0" encoding="UTF-8" standalone="no"?>
<svg
   width="64"
   height="64"
   version="1.1"
   viewBox="0 0 16.933 16.933"
   id="svg7"
   sodipodi:docname="Template 4.svg"
   inkscape:version="1.3.2 (091e20ef0f, 2023-11-25)"
   xmlns:inkscape="http://www.inkscape.org/namespaces/inkscape"
   xmlns:sodipodi="http://sodipodi.sourceforge.net/DTD/sodipodi-0.dtd"
   xmlns:xlink="http://www.w3.org/1999/xlink"
   xmlns="http://www.w3.org/2000/svg"
   xmlns:svg="http://www.w3.org/2000/svg"
   xmlns:rdf="http://www.w3.org/1999/02/22-rdf-syntax-ns#"
   xmlns:cc="http://creativecommons.org/ns#"
   xmlns:dc="http://purl.org/dc/elements/1.1/">
  <sodipodi:namedview
     id="namedview7"
     pagecolor="#9c4444"
     bordercolor="#000000"
     borderopacity="0.25"
     inkscape:showpageshadow="2"
     inkscape:pageopacity="0.0"
     inkscape:pagecheckerboard="0"
     inkscape:deskcolor="#d1d1d1"
     inkscape:zoom="4.3531261"
     inkscape:cx="33.424256"
     inkscape:cy="25.039477"
     inkscape:window-width="1463"
     inkscape:window-height="604"
     inkscape:window-x="199"
     inkscape:window-y="276"
     inkscape:window-maximized="0"
     inkscape:current-layer="svg7"
     showgrid="false" />
  <defs
     id="defs2">
    <linearGradient
       id="linearGradient5"
       inkscape:collect="always">
      <stop
         style="stop-color:#392713;stop-opacity:1;"
         offset="0"
         id="stop2" />
      <stop
         style="stop-color:#eed59e;stop-opacity:1;"
         offset="0.5"
         id="stop3" />
      <stop
         style="stop-color:#beaa8a;stop-opacity:1;"
         offset="1"
         id="stop4" />
    </linearGradient>
    <linearGradient
       id="linearGradient8"
       inkscape:collect="always">
      <stop
         style="stop-color:#1a1a1a;stop-opacity:1;"
         offset="0"
         id="stop8" />
      <stop
         style="stop-color:#ffffff;stop-opacity:0;"
         offset="1"
         id="stop9" />
    </linearGradient>
    <linearGradient
       inkscape:collect="always"
       xlink:href="#linearGradient5"
       id="linearGradient41"
       x1="13.675659"
       y1="16.110115"
       x2="13.728528"
       y2="10.548769"
       gradientUnits="userSpaceOnUse"
       gradientTransform="matrix(2.046153,0,0,2.046153,-18.798306,-18.911347)" />
    <linearGradient
       inkscape:collect="always"
       xlink:href="#linearGradient42"
       id="linearGradient4"
       x1="11.885941"
       y1="16.50819"
       x2="12.026573"
       y2="10.244942"
       gradientUnits="userSpaceOnUse"
       gradientTransform="matrix(2.046153,0,0,2.046153,-18.798306,-18.911347)" />
    <linearGradient
       id="linearGradient42"
       inkscape:collect="always">
      <stop
         style="stop-color:#010101;stop-opacity:1;"
         offset="0"
         id="stop42" />
      <stop
         style="stop-color:#6e6c6d;stop-opacity:1;"
         offset="1"
         id="stop43" />
    </linearGradient>
    <linearGradient
       inkscape:collect="always"
       xlink:href="#linearGradient8"
       id="linearGradient9"
       x1="9.3404646"
       y1="4.1692023"
       x2="9.4279938"
       y2="16.46883"
       gradientUnits="userSpaceOnUse"
       gradientTransform="matrix(1.05,0,0,1.05,-0.50277005,-0.1977751)" />
    <filter
       style="color-interpolation-filters:sRGB;"
       inkscape:label="Blur"
       id="filter2"
       x="-0.14510849"
       y="-0.14612901"
       width="1.290217"
       height="1.292258">
      <feGaussianBlur
         stdDeviation="0.6 0.6"
         result="blur"
         id="feGaussianBlur2" />
    </filter>
    <linearGradient
       inkscape:collect="always"
       xlink:href="#linearGradient5"
       id="linearGradient47"
       x1="8.3622055"
       y1="12.37829"
       x2="8.4653845"
       y2="4.0322123"
       gradientUnits="userSpaceOnUse" />
  </defs>
  <metadata
     id="metadata2">
    <rdf:RDF>
      <cc:Work
         rdf:about="">
        <dc:format>image/svg+xml</dc:format>
        <dc:type
           rdf:resource="http://purl.org/dc/dcmitype/StillImage" />
      </cc:Work>
    </rdf:RDF>
  </metadata>
  <rect
     style="fill:#000000;fill-opacity:0.996424;stroke:#000000;stroke-width:0.911802;stroke-dasharray:none;stroke-opacity:1;filter:url(#filter2)"
     id="rect1-2-3"
     width="13.065404"
     height="12.974159"
     x="1.9816793"
     y="1.9267306"
     rx="2.7149384"
     ry="2.8310909" />
  <rect
     style="fill:url(#linearGradient4);fill-opacity:0.996424;stroke:url(#linearGradient41);stroke-width:0.911802;stroke-dasharray:none;stroke-opacity:1"
     id="rect1-2"
     width="13.065404"
     height="12.974159"
     x="1.9816793"
     y="1.9267306"
     rx="2.7149384"
     ry="2.8310909" />
  <path
     style="fill:#000000;stroke-width:0.0357403;opacity:0.3"
     d="M 7.8944945,13.097419 C 7.6338577,13.056829 7.3111527,12.934142 7.230441,12.844954 7.157892,12.764789 7.1522661,12.549037 7.1668088,10.40465 7.1848693,7.7414216 7.1746577,7.8189919 7.5680244,7.358149 7.6873321,7.2183763 7.8058805,7.0493241 7.8314646,6.9824764 c 0.027019,-0.070604 0.039991,-0.5651886 0.030941,-1.1801231 -0.018821,-1.2795207 -0.040789,-1.228815 0.5324525,-1.228815 0.5732422,0 0.5512717,-0.050706 0.5324511,1.228815 -0.010197,0.6931097 0.00258,1.1059799 0.036934,1.195868 0.02888,0.075508 0.1464928,0.2418261 0.2613687,0.3695969 0.3864672,0.429844 0.379244,0.3746284 0.3972998,3.0368318 0.017998,2.65328 0.044711,2.461782 -0.3631824,2.603455 -0.2212117,0.07682 -1.0832511,0.133228 -1.3652386,0.08932 z M 5.6366547,12.027612 C 5.5218631,12.005062 5.3771131,11.953303 5.3149891,11.9126 L 5.2020373,11.838593 V 9.988291 c 0,-1.9644363 0.0081,-2.0455593 0.2329384,-2.3338862 C 5.7434791,7.2587947 5.730972,7.3144766 5.7174803,6.3966866 5.7026291,5.3864174 5.7044132,5.3823431 6.1583337,5.3885103 c 0.157681,0.00214 0.3124465,0.02965 0.3439237,0.061126 0.041354,0.041354 0.053288,0.2913373 0.043023,0.9010539 l -0.014209,0.843823 0.1442533,0.2144439 c 0.079339,0.1179437 0.1777696,0.2598711 0.2187358,0.3153947 0.060346,0.081793 0.065346,0.1405772 0.026339,0.3097512 -0.027918,0.1211183 -0.048628,0.992593 -0.049303,2.075276 l -0.0011,1.866474 -0.2406159,0.05161 c -0.2768617,0.05937 -0.6908941,0.05945 -0.9926603,1.5e-4 z m 4.4856683,-9.9e-4 -0.2025295,-0.04855 -0.00113,-1.867617 C 9.9180196,9.0113118 9.8974537,8.1558722 9.8687473,8.0313437 9.8260279,7.8460009 9.832273,7.803142 9.9191131,7.6856947 10.283352,7.193036 10.261683,7.2817219 10.245218,6.3510131 c -0.0108,-0.6107814 8.91e-4,-0.8599497 0.0423,-0.9013597 0.03148,-0.031476 0.186243,-0.058983 0.343922,-0.061127 0.453781,-0.00617 0.456517,2.1e-5 0.439114,0.992545 -0.01552,0.8852553 -0.0078,0.9248817 0.232392,1.2015956 0.28159,0.3243246 0.288464,0.3850927 0.27408,2.423456 l -0.01311,1.858509 -0.178451,0.0872 c -0.213725,0.104435 -0.956151,0.148446 -1.263086,0.07488 z"
     id="path1-6" />
  <path
     style="fill:url(#linearGradient47);stroke-width:0.0357403"
     d="M 7.8944945,12.568263 C 7.6338577,12.527673 7.3111527,12.404986 7.230441,12.315798 7.157892,12.235633 7.1522661,12.019881 7.1668088,9.8754937 7.1848693,7.2122654 7.1746577,7.2898357 7.5680244,6.8289928 7.6873321,6.6892201 7.8058805,6.5201679 7.8314646,6.4533202 c 0.027019,-0.070604 0.039991,-0.5651886 0.030941,-1.1801231 -0.018821,-1.2795207 -0.040789,-1.228815 0.5324525,-1.228815 0.5732422,0 0.5512717,-0.050706 0.5324511,1.228815 -0.010197,0.6931097 0.00258,1.1059799 0.036934,1.195868 0.02888,0.075508 0.1464928,0.2418261 0.2613687,0.3695969 0.3864672,0.429844 0.379244,0.3746284 0.3972998,3.0368317 0.017998,2.6532803 0.044711,2.4617823 -0.3631824,2.6034553 -0.2212117,0.07682 -1.0832511,0.133228 -1.3652386,0.08932 z M 5.6366547,11.498456 C 5.5218631,11.475906 5.3771131,11.424147 5.3149891,11.383444 L 5.2020373,11.309437 V 9.4591348 c 0,-1.9644363 0.0081,-2.0455593 0.2329384,-2.3338862 C 5.7434791,6.7296385 5.730972,6.7853204 5.7174803,5.8675304 5.7026291,4.8572612 5.7044132,4.8531869 6.1583337,4.8593541 c 0.157681,0.00214 0.3124465,0.02965 0.3439237,0.061126 0.041354,0.041354 0.053288,0.2913373 0.043023,0.9010539 l -0.014209,0.843823 0.1442533,0.2144439 c 0.079339,0.1179437 0.1777696,0.2598711 0.2187358,0.3153947 0.060346,0.081793 0.065346,0.1405772 0.026339,0.3097512 -0.027918,0.1211183 -0.048628,0.992593 -0.049303,2.0752758 l -0.0011,1.8664744 -0.2406159,0.05161 c -0.2768617,0.05937 -0.6908941,0.05945 -0.9926603,1.5e-4 z m 4.4856683,-9.9e-4 -0.2025295,-0.04855 -0.00113,-1.8676174 C 9.9180196,8.4821556 9.8974537,7.626716 9.8687473,7.5021875 9.8260279,7.3168447 9.832273,7.2739858 9.9191131,7.1565385 10.283352,6.6638798 10.261683,6.7525657 10.245218,5.8218569 c -0.0108,-0.6107814 8.91e-4,-0.8599497 0.0423,-0.9013597 0.03148,-0.031476 0.186243,-0.058983 0.343922,-0.061127 0.453781,-0.00617 0.456517,2.1e-5 0.439114,0.992545 -0.01552,0.8852553 -0.0078,0.9248817 0.232392,1.2015956 0.28159,0.3243246 0.288464,0.3850927 0.27408,2.4234558 l -0.01311,1.8585094 -0.178451,0.0872 c -0.213725,0.104435 -0.956151,0.148446 -1.263086,0.07488 z"
     id="path1" />
  <rect
     style="opacity:0.5;fill:none;fill-opacity:0.996424;stroke:url(#linearGradient9);stroke-width:0.566102;stroke-dasharray:none;stroke-opacity:1"
     id="rect1-2-6"
     width="11.574203"
     height="11.508601"
     x="2.729686"
     y="2.6615164"
     rx="2.0246315"
     ry="2.0627522" />
</svg>
