<?xml version="1.0" encoding="UTF-8" standalone="no"?>
<svg
   width="64"
   height="64"
   version="1.1"
   viewBox="0 0 16.933 16.933"
   id="svg7"
   sodipodi:docname="Template 4.svg"
   inkscape:version="1.3.2 (091e20ef0f, 2023-11-25)"
   xmlns:inkscape="http://www.inkscape.org/namespaces/inkscape"
   xmlns:sodipodi="http://sodipodi.sourceforge.net/DTD/sodipodi-0.dtd"
   xmlns:xlink="http://www.w3.org/1999/xlink"
   xmlns="http://www.w3.org/2000/svg"
   xmlns:svg="http://www.w3.org/2000/svg"
   xmlns:rdf="http://www.w3.org/1999/02/22-rdf-syntax-ns#"
   xmlns:cc="http://creativecommons.org/ns#"
   xmlns:dc="http://purl.org/dc/elements/1.1/">
  <sodipodi:namedview
     id="namedview7"
     pagecolor="#9c4444"
     bordercolor="#000000"
     borderopacity="0.25"
     inkscape:showpageshadow="2"
     inkscape:pageopacity="0.0"
     inkscape:pagecheckerboard="0"
     inkscape:deskcolor="#d1d1d1"
     inkscape:zoom="4.3531261"
     inkscape:cx="33.424256"
     inkscape:cy="25.039477"
     inkscape:window-width="1463"
     inkscape:window-height="604"
     inkscape:window-x="199"
     inkscape:window-y="276"
     inkscape:window-maximized="0"
     inkscape:current-layer="svg7"
     showgrid="false" />
  <defs
     id="defs2">
    <linearGradient
       id="linearGradient5"
       inkscape:collect="always">
      <stop
         style="stop-color:#392713;stop-opacity:1;"
         offset="0"
         id="stop2" />
      <stop
         style="stop-color:#eed59e;stop-opacity:1;"
         offset="0.5"
         id="stop3" />
      <stop
         style="stop-color:#beaa8a;stop-opacity:1;"
         offset="1"
         id="stop4" />
    </linearGradient>
    <linearGradient
       id="linearGradient8"
       inkscape:collect="always">
      <stop
         style="stop-color:#1a1a1a;stop-opacity:1;"
         offset="0"
         id="stop8" />
      <stop
         style="stop-color:#ffffff;stop-opacity:0;"
         offset="1"
         id="stop9" />
    </linearGradient>
    <linearGradient
       inkscape:collect="always"
       xlink:href="#linearGradient5"
       id="linearGradient41"
       x1="13.675659"
       y1="16.110115"
       x2="13.728528"
       y2="10.548769"
       gradientUnits="userSpaceOnUse"
       gradientTransform="matrix(2.046153,0,0,2.046153,-18.798306,-18.911347)" />
    <linearGradient
       inkscape:collect="always"
       xlink:href="#linearGradient42"
       id="linearGradient4"
       x1="11.885941"
       y1="16.50819"
       x2="12.026573"
       y2="10.244942"
       gradientUnits="userSpaceOnUse"
       gradientTransform="matrix(2.046153,0,0,2.046153,-18.798306,-18.911347)" />
    <linearGradient
       id="linearGradient42"
       inkscape:collect="always">
      <stop
         style="stop-color:#010101;stop-opacity:1;"
         offset="0"
         id="stop42" />
      <stop
         style="stop-color:#6e6c6d;stop-opacity:1;"
         offset="1"
         id="stop43" />
    </linearGradient>
    <linearGradient
       inkscape:collect="always"
       xlink:href="#linearGradient8"
       id="linearGradient9"
       x1="9.3404646"
       y1="4.1692023"
       x2="9.4279938"
       y2="16.46883"
       gradientUnits="userSpaceOnUse"
       gradientTransform="matrix(1.05,0,0,1.05,-0.50277005,-0.1977751)" />
    <filter
       style="color-interpolation-filters:sRGB;"
       inkscape:label="Blur"
       id="filter2"
       x="-0.14510849"
       y="-0.14612901"
       width="1.290217"
       height="1.292258">
      <feGaussianBlur
         stdDeviation="0.6 0.6"
         result="blur"
         id="feGaussianBlur2" />
    </filter>
    <linearGradient
       id="b"
       x2="1"
       gradientTransform="matrix(0,8.6905657,-8.6905657,0,8.6268792,4.0943712)"
       gradientUnits="userSpaceOnUse"
       xlink:href="#linearGradient5">
      <stop
         stop-color="#ff4035"
         offset="0"
         id="stop5" />
      <stop
         stop-color="#dc311a"
         offset="1"
         id="stop6" />
    </linearGradient>
    <linearGradient
       inkscape:collect="always"
       xlink:href="#linearGradient5"
       id="linearGradient16"
       x1="8.1537819"
       y1="11.700512"
       x2="8.245019"
       y2="5.0165524"
       gradientUnits="userSpaceOnUse" />
  </defs>
  <metadata
     id="metadata2">
    <rdf:RDF>
      <cc:Work
         rdf:about="">
        <dc:format>image/svg+xml</dc:format>
        <dc:type
           rdf:resource="http://purl.org/dc/dcmitype/StillImage" />
      </cc:Work>
    </rdf:RDF>
  </metadata>
  <rect
     style="fill:#000000;fill-opacity:0.996424;stroke:#000000;stroke-width:0.911802;stroke-dasharray:none;stroke-opacity:1;filter:url(#filter2)"
     id="rect1-2-3"
     width="13.065404"
     height="12.974159"
     x="1.9816793"
     y="1.9267306"
     rx="2.7149384"
     ry="2.8310909" />
  <rect
     style="fill:url(#linearGradient4);fill-opacity:0.996424;stroke:url(#linearGradient41);stroke-width:0.911802;stroke-dasharray:none;stroke-opacity:1"
     id="rect1-2"
     width="13.065404"
     height="12.974159"
     x="1.9816793"
     y="1.9267306"
     rx="2.7149384"
     ry="2.8310909" />
  <path
     style="fill:#000000;stroke-width:0.0073586;opacity:0.3"
     d="m 8.6437326,12.269038 c -0.00436,-0.01064 -0.0094,-0.05907 -0.011231,-0.107632 -0.00537,-0.142399 0.017249,-0.285572 0.1013506,-0.641726 0.024086,-0.102018 0.044659,-0.196023 0.04571,-0.208899 l 0.00189,-0.02341 -0.1601268,-0.05363 c -0.2194051,-0.07348 -0.3425164,-0.09336 -0.3917774,-0.06325 -0.012141,0.0074 -0.043601,0.03483 -0.069907,0.06092 -0.095658,0.09486 -0.202244,0.132156 -0.4507192,0.157715 -0.023266,0.0023 -0.042309,0.0062 -0.042309,0.0083 0,0.02679 0.033776,0.114503 0.077306,0.200704 0.056611,0.112112 0.066766,0.138702 0.1151497,0.301537 0.033173,0.111654 0.044393,0.213004 0.028799,0.260256 -0.021204,0.06425 -0.089462,0.09348 -0.2182593,0.09348 -0.086226,0 -0.2508479,-0.01886 -0.2651318,-0.03038 -0.014602,-0.01178 -0.034165,-0.09698 -0.033415,-0.145592 8.262e-4,-0.05207 -0.020762,-0.114306 -0.1073273,-0.309702 -0.02421,-0.05464 -0.062895,-0.155635 -0.085971,-0.224439 -0.023076,-0.0688 -0.054686,-0.151619 -0.070243,-0.184034 -0.030484,-0.06351 -0.08213,-0.128713 -0.1019532,-0.128703 -0.02449,0 -0.1012717,0.04251 -0.1244012,0.06886 -0.047656,0.05428 -0.053769,0.07567 -0.079142,0.277001 -0.010456,0.08297 -0.023745,0.172377 -0.029529,0.198684 -0.00579,0.02631 -0.014069,0.10247 -0.018408,0.169249 -0.00987,0.151846 -0.01806,0.204568 -0.03544,0.228046 -0.042398,0.05728 -0.1289095,0.0809 -0.2965425,0.08097 -0.1320387,9.7e-5 -0.1872865,-0.02359 -0.2051336,-0.08784 -0.013672,-0.04921 -0.00852,-0.190945 0.015119,-0.416183 0.00425,-0.04047 0.02386,-0.146438 0.043583,-0.235477 0.045688,-0.20626 0.054387,-0.267981 0.050157,-0.355835 -0.00434,-0.09027 -0.027558,-0.146849 -0.080607,-0.196471 -0.06325,-0.05916 -0.1356328,-0.08396 -0.2993597,-0.102541 -0.1383964,-0.01572 -0.2139007,-0.03044 -0.2801041,-0.0546 -0.1320321,-0.04818 -0.1790265,-0.102063 -0.2397099,-0.274827 -0.049161,-0.13996 -0.1103843,-0.193669 -0.3260357,-0.28602 -0.1004217,-0.043 -0.1396071,-0.06902 -0.1795408,-0.11919 -0.072818,-0.09149 -0.096485,-0.1811097 -0.089737,-0.3398225 0.00705,-0.1657738 -0.00985,-0.2243384 -0.1059985,-0.3673938 -0.048098,-0.071563 -0.049375,-0.074675 -0.048414,-0.1179663 5.368e-4,-0.024455 0.00995,-0.1038963 0.020897,-0.1765359 0.013857,-0.091921 0.01915,-0.1524933 0.017411,-0.1992449 -0.00226,-0.060556 -0.00467,-0.070303 -0.024576,-0.09896 -0.049048,-0.070623 -0.054761,-0.080995 -0.067503,-0.1225489 -0.010355,-0.033771 -0.013172,-0.067371 -0.012878,-0.1536063 4.347e-4,-0.1299531 0.00828,-0.158132 0.072246,-0.2599422 0.045546,-0.072489 0.058129,-0.1083417 0.054687,-0.1558227 l -0.00239,-0.033115 -0.05887,-0.00537 c -0.065804,-0.00601 -0.1251055,-0.00293 -0.263503,0.013719 -0.051839,0.00624 -0.1296568,0.010216 -0.1729287,0.00886 -0.070003,-0.00221 -0.083525,-0.00492 -0.1226394,-0.024556 -0.041331,-0.020754 -0.044545,-0.02428 -0.05365,-0.058871 -0.047623,-0.1809021 0.1239651,-0.3421778 0.3640549,-0.3421778 0.080479,0 0.1328129,0.014614 0.2398423,0.066974 0.078881,0.03859 0.1683039,0.069453 0.1836888,0.063395 0.005,-0.00197 0.035587,-0.045674 0.067965,-0.097121 0.084556,-0.1343661 0.1289711,-0.1804866 0.2124609,-0.2206252 0.03694,-0.017759 0.1135224,-0.047702 0.1701842,-0.06654 0.1618851,-0.053821 0.1920032,-0.075862 0.273956,-0.2004948 0.075246,-0.1144317 0.126595,-0.151278 0.2596775,-0.1863349 0.050919,-0.013412 0.091566,-0.017349 0.2206299,-0.021369 0.2119005,-0.0066 0.2139676,-0.00738 0.3502958,-0.1324883 0.066552,-0.061075 0.128292,-0.097377 0.2163216,-0.1271933 l 0.069908,-0.023678 0.1950048,-5.78e-5 c 0.2321144,-5.71e-5 0.2543233,-0.00455 0.4176232,-0.084303 0.2284526,-0.1115687 0.3113456,-0.1199899 0.5557023,-0.056453 0.1894557,0.049261 0.2385172,0.046725 0.3965896,-0.020497 0.1465737,-0.062334 0.2279036,-0.078431 0.3222687,-0.063791 0.11121,0.017257 0.2039352,0.059438 0.3225805,0.1467469 0.093531,0.06883 0.1177267,0.081701 0.2001951,0.1065003 0.1100248,0.033086 0.1789355,0.041929 0.3863308,0.049584 0.1092755,0.00403 0.2156524,0.010664 0.2363964,0.014746 0.104041,0.020455 0.196292,0.1339886 0.3283605,0.4041205 0.0908,0.1857247 0.130321,0.2569757 0.208821,0.3764842 0.241166,0.3671624 0.551383,0.6274243 0.968042,0.8121612 0.09801,0.043457 0.117888,0.059548 0.147275,0.1192396 0.02407,0.048894 0.02436,0.050702 0.02432,0.1526559 -9.8e-5,0.1139113 -0.0087,0.1655787 -0.05278,0.3150648 -0.01455,0.049398 -0.03107,0.1080293 -0.03667,0.1302892 -0.01501,0.059647 -0.01302,0.1671905 0.005,0.27595 0.01862,0.1117693 0.01605,0.1708432 -0.01083,0.2481262 -0.02817,0.080992 -0.07314,0.1482578 -0.159308,0.2382394 -0.08696,0.090815 -0.101572,0.1146433 -0.157522,0.2568593 -0.0439,0.111603 -0.07429,0.161982 -0.126407,0.209616 -0.09929,0.09075 -0.240147,0.132689 -0.495425,0.147512 l -0.128778,0.0075 -0.02387,0.02742 c -0.03172,0.03644 -0.0783,0.132802 -0.09506,0.19667 -0.01103,0.04203 -0.01346,0.07862 -0.01316,0.198684 3.81e-4,0.160465 0.0061,0.204309 0.06954,0.529824 0.06102,0.313251 0.112736,0.675049 0.09828,0.68749 -0.0066,0.0056 -0.3917285,0.067 -0.4197705,0.06686 -0.01376,-9.7e-5 -0.01879,-0.0089 -0.03453,-0.06079 -0.114198,-0.376627 -0.1672264,-0.656986 -0.1882099,-0.995272 -0.00405,-0.06476 -0.010593,-0.128957 -0.014607,-0.142669 -0.01485,-0.05072 -0.045303,-0.06976 -0.1294052,-0.08091 -0.117454,-0.01556 -0.11315,-0.01604 -0.1210213,0.01348 -0.034793,0.130507 -0.2490323,0.99741 -0.2651344,1.072839 -0.016734,0.07839 -0.040631,0.167603 -0.047245,0.176373 -7.086e-4,8.91e-4 -0.075528,0.01346 -0.1664177,0.02802 -0.090891,0.01455 -0.1812208,0.0292 -0.2007359,0.03251 -0.033853,0.0057 -0.035849,0.0051 -0.043389,-0.0133 z M 11.588205,8.3496916 C 11.332072,8.3011952 11.025823,8.1129646 10.73809,7.8271849 10.523563,7.6141135 10.399024,7.4299176 10.26054,7.1208778 10.198147,6.9816417 10.168302,6.9313052 10.094152,6.84024 10.070712,6.811441 10.045852,6.773361 10.038932,6.755615 10.032132,6.737869 10.020312,6.714624 10.012942,6.70396 L 9.999542,6.684569 9.8246717,6.681059 C 9.684165,6.678252 9.6341376,6.6743883 9.5700986,6.661438 9.4657447,6.640339 9.3476568,6.597905 9.22181,6.5362861 9.0852692,6.4694307 9.0445123,6.425777 9.0014065,6.300226 8.9899807,6.2669494 8.9875123,6.238164 8.9875123,6.1383354 c 0,-0.1067281 0.00213,-0.1280951 0.017242,-0.176608 0.034733,-0.1111929 0.042049,-0.1227982 0.088432,-0.1403446 0.034844,-0.013186 0.052117,-0.01512 0.1077308,-0.012066 0.089421,0.0049 0.1547873,0.029253 0.378735,0.1410726 0.2394033,0.1195356 0.3206933,0.1503581 0.4250239,0.1611543 l 0.03846,0.00398 0.05993,-0.075058 c 0.03298,-0.041282 0.08478,-0.1131396 0.115148,-0.1596831 0.06214,-0.095223 0.09671,-0.1349479 0.134337,-0.1543266 0.04394,-0.022632 0.123035,-0.043962 0.275951,-0.074427 0.141992,-0.028288 0.156928,-0.033205 0.24773,-0.08158 0.04859,-0.02589 0.162297,-0.04448 0.252659,-0.041309 0.07027,0.00244 0.09065,0.00634 0.154532,0.029383 0.04047,0.014595 0.101856,0.036702 0.136408,0.049124 0.06761,0.024303 0.127245,0.032728 0.316726,0.044729 0.121273,0.00768 0.180349,0.017238 0.216504,0.035007 0.01214,0.00597 0.06193,0.052511 0.110623,0.1034276 l 0.08855,0.092576 0.09174,-0.030111 c 0.05046,-0.01656 0.159625,-0.053466 0.242595,-0.082014 0.196168,-0.067499 0.277881,-0.084235 0.390009,-0.07988 0.06286,0.00242 0.09514,0.00734 0.125476,0.019058 0.122128,0.047156 0.143275,0.1710372 0.05829,0.341503 -0.08203,0.164553 -0.217608,0.3027352 -0.3629,0.3698641 -0.100532,0.046449 -0.153706,0.055102 -0.383814,0.062461 -0.113325,0.00363 -0.20984,0.00675 -0.214482,0.00694 -0.01567,6.376e-4 -0.02839,0.1239623 -0.02773,0.268938 8.02e-4,0.1776098 0.01092,0.2275673 0.09945,0.4905464 0.0919,0.2730006 0.112243,0.3950442 0.09556,0.5734068 -0.01689,0.1806402 -0.06179,0.2902875 -0.158128,0.3861006 -0.066,0.065646 -0.127114,0.1005645 -0.225155,0.1286445 -0.07198,0.020616 -0.215486,0.025895 -0.294945,0.010849 z m -0.791,-1.3199416 c 0.01184,-0.00673 0.02922,-0.026796 0.03863,-0.044579 0.0458,-0.086604 -0.0059,-0.1919599 -0.09415,-0.191885 -0.0428,2.76e-5 -0.07439,0.020398 -0.09379,0.060446 -0.03402,0.070277 -0.01198,0.1490949 0.05053,0.1806841 0.036,0.018191 0.06062,0.017027 0.09877,-0.00466 z m 1.137534,-0.076441 c 0.04449,-0.030274 0.05512,-0.051925 0.05512,-0.1122198 0,-0.060494 -0.01053,-0.081761 -0.05586,-0.1128695 -0.01983,-0.013607 -0.0318,-0.01647 -0.0572,-0.013685 -0.04091,0.00449 -0.0666,0.023327 -0.08746,0.064157 -0.05538,0.108381 0.05245,0.2378805 0.145408,0.1746183 z"
     id="path1-6" />
  <path
     style="fill:url(#linearGradient16);stroke-width:0.0073586"
     d="m 8.6437326,11.739882 c -0.00436,-0.01064 -0.0094,-0.05907 -0.011231,-0.107632 -0.00537,-0.142399 0.017249,-0.285572 0.1013506,-0.641726 0.024086,-0.102018 0.044659,-0.196023 0.04571,-0.208899 l 0.00189,-0.02341 -0.1601268,-0.05363 c -0.2194051,-0.07348 -0.3425164,-0.09336 -0.3917774,-0.06325 -0.012141,0.0074 -0.043601,0.03483 -0.069907,0.06092 -0.095658,0.09486 -0.202244,0.132156 -0.4507192,0.157715 -0.023266,0.0023 -0.042309,0.0062 -0.042309,0.0083 0,0.02679 0.033776,0.114503 0.077306,0.200704 0.056611,0.112112 0.066766,0.138702 0.1151497,0.301537 0.033173,0.111654 0.044393,0.213004 0.028799,0.260256 -0.021204,0.06425 -0.089462,0.09348 -0.2182593,0.09348 -0.086226,0 -0.2508479,-0.01886 -0.2651318,-0.03038 -0.014602,-0.01178 -0.034165,-0.09698 -0.033415,-0.145592 8.262e-4,-0.05207 -0.020762,-0.114306 -0.1073273,-0.309702 -0.02421,-0.05464 -0.062895,-0.155635 -0.085971,-0.224439 -0.023076,-0.0688 -0.054686,-0.151619 -0.070243,-0.184034 -0.030484,-0.06351 -0.08213,-0.128713 -0.1019532,-0.128703 -0.02449,0 -0.1012717,0.04251 -0.1244012,0.06886 -0.047656,0.05428 -0.053769,0.07567 -0.079142,0.277001 -0.010456,0.08297 -0.023745,0.172377 -0.029529,0.198684 -0.00579,0.02631 -0.014069,0.10247 -0.018408,0.169249 -0.00987,0.151846 -0.01806,0.204568 -0.03544,0.228046 -0.042398,0.05728 -0.1289095,0.0809 -0.2965425,0.08097 -0.1320387,9.7e-5 -0.1872865,-0.02359 -0.2051336,-0.08784 -0.013672,-0.04921 -0.00852,-0.190945 0.015119,-0.416183 0.00425,-0.04047 0.02386,-0.146438 0.043583,-0.235477 0.045688,-0.20626 0.054387,-0.267981 0.050157,-0.355835 -0.00434,-0.09027 -0.027558,-0.146849 -0.080607,-0.196471 -0.06325,-0.05916 -0.1356328,-0.08396 -0.2993597,-0.102541 -0.1383964,-0.01572 -0.2139007,-0.03044 -0.2801041,-0.0546 C 5.5337267,10.227076 5.4867323,10.173197 5.4260489,10.000433 5.3768876,9.860473 5.3156646,9.806764 5.1000132,9.714413 4.9995915,9.6714083 4.9604061,9.6453945 4.9204724,9.5952225 4.8476543,9.5037344 4.8239879,9.4141131 4.8307351,9.2554003 4.8377811,9.0896265 4.8208839,9.0310619 4.7247366,8.8880065 4.6766385,8.8164435 4.6753614,8.813332 4.6763223,8.7700402 c 5.368e-4,-0.024455 0.00995,-0.1038963 0.020897,-0.1765359 0.013857,-0.091921 0.01915,-0.1524933 0.017411,-0.199245 -0.00226,-0.060556 -0.00467,-0.070303 -0.024576,-0.09896 -0.049048,-0.070623 -0.054761,-0.080995 -0.067503,-0.1225489 -0.010355,-0.033771 -0.013172,-0.067371 -0.012878,-0.1536062 4.347e-4,-0.1299532 0.00828,-0.1581321 0.072246,-0.2599423 0.045546,-0.072489 0.058129,-0.1083417 0.054687,-0.1558227 l -0.00239,-0.033115 -0.05887,-0.00537 c -0.065804,-0.00601 -0.1251055,-0.00293 -0.263503,0.013719 -0.051839,0.00624 -0.1296568,0.010216 -0.1729287,0.00886 -0.070003,-0.00221 -0.083525,-0.00492 -0.1226394,-0.024556 -0.041331,-0.020754 -0.044545,-0.02428 -0.05365,-0.058871 -0.047623,-0.1809021 0.1239651,-0.3421778 0.3640549,-0.3421778 0.080479,0 0.1328129,0.014614 0.2398423,0.066974 0.078881,0.03859 0.1683039,0.069453 0.1836888,0.063395 0.005,-0.00197 0.035587,-0.045674 0.067965,-0.097121 0.084556,-0.1343661 0.1289711,-0.1804866 0.2124609,-0.2206252 0.03694,-0.017759 0.1135224,-0.047702 0.1701842,-0.06654 0.1618851,-0.053821 0.1920032,-0.075862 0.273956,-0.2004948 0.075246,-0.1144317 0.126595,-0.151278 0.2596775,-0.1863349 0.050919,-0.013412 0.091566,-0.017349 0.2206299,-0.021369 0.2119005,-0.0066 0.2139676,-0.00738 0.3502958,-0.1324883 0.066552,-0.061075 0.128292,-0.097377 0.2163216,-0.1271933 l 0.069908,-0.023678 0.1950048,-5.77e-5 c 0.2321144,-5.71e-5 0.2543233,-0.00455 0.4176232,-0.084303 0.2284526,-0.1115688 0.3113456,-0.1199899 0.5557023,-0.056453 0.1894557,0.049261 0.2385172,0.046725 0.3965896,-0.020497 0.1465737,-0.062334 0.2279036,-0.078431 0.3222687,-0.063791 0.11121,0.017257 0.2039352,0.059438 0.3225805,0.146747 0.093531,0.06883 0.1177267,0.081701 0.2001951,0.1065002 0.1100248,0.033086 0.1789355,0.041929 0.3863308,0.049584 0.1092755,0.00403 0.2156524,0.010664 0.2363964,0.014746 0.104041,0.020455 0.196292,0.1339886 0.3283606,0.4041205 0.0908,0.1857247 0.130321,0.2569757 0.208821,0.3764842 0.241166,0.3671624 0.551383,0.6274243 0.968042,0.8121612 0.09801,0.043457 0.117888,0.059548 0.147275,0.1192396 0.02407,0.048894 0.02436,0.050702 0.02432,0.1526559 -9.8e-5,0.1139113 -0.0087,0.1655787 -0.05278,0.3150648 -0.01455,0.049398 -0.03107,0.1080293 -0.03667,0.1302892 -0.01501,0.059647 -0.01302,0.1671905 0.005,0.27595 0.01862,0.1117693 0.01605,0.1708432 -0.01083,0.2481262 -0.02817,0.080992 -0.07314,0.1482578 -0.159308,0.2382394 -0.08696,0.090815 -0.101572,0.1146437 -0.157522,0.2568597 -0.0439,0.1116024 -0.07429,0.1619812 -0.126407,0.2096159 -0.09929,0.090751 -0.240147,0.132689 -0.495425,0.1475113 l -0.128778,0.00748 -0.02387,0.02742 c -0.03172,0.03644 -0.0783,0.132802 -0.09506,0.19667 -0.01103,0.04203 -0.01346,0.07862 -0.01316,0.198684 3.81e-4,0.160465 0.0061,0.204309 0.06954,0.529824 0.06102,0.313251 0.112736,0.675049 0.09828,0.68749 -0.0066,0.0056 -0.3917286,0.067 -0.4197706,0.06686 -0.01376,-9.7e-5 -0.01879,-0.0089 -0.03453,-0.06079 -0.114198,-0.376627 -0.1672264,-0.656986 -0.1882099,-0.995272 -0.00405,-0.06476 -0.010593,-0.128957 -0.014607,-0.142669 -0.01485,-0.05072 -0.045303,-0.06976 -0.1294052,-0.08091 -0.117454,-0.01556 -0.11315,-0.01604 -0.1210213,0.01348 -0.034793,0.130507 -0.2490323,0.99741 -0.2651344,1.072839 -0.016734,0.07839 -0.040631,0.167603 -0.047245,0.176373 -7.086e-4,8.91e-4 -0.075528,0.01346 -0.1664177,0.02802 -0.090891,0.01455 -0.1812208,0.0292 -0.2007359,0.03251 -0.033853,0.0057 -0.035849,0.0051 -0.043389,-0.0133 z M 11.588205,7.8205354 C 11.332072,7.772039 11.025823,7.5838084 10.73809,7.2980287 10.523563,7.0849573 10.399024,6.9007614 10.26054,6.5917216 10.198147,6.4524855 10.168302,6.402149 10.094152,6.3110838 c -0.02344,-0.028799 -0.0483,-0.066879 -0.05522,-0.084625 -0.0068,-0.017746 -0.01862,-0.040991 -0.02599,-0.051655 l -0.0134,-0.019391 -0.1748703,-0.00351 C 9.684165,6.1490958 9.6341376,6.1452321 9.5700986,6.1322818 9.4657447,6.1111828 9.3476568,6.0687488 9.22181,6.0071299 9.0852692,5.9402745 9.0445123,5.8966208 9.0014065,5.7710698 8.9899807,5.7377932 8.9875123,5.7090078 8.9875123,5.6091792 c 0,-0.1067281 0.00213,-0.1280951 0.017242,-0.176608 0.034733,-0.1111929 0.042049,-0.1227982 0.088432,-0.1403446 0.034844,-0.013186 0.052117,-0.01512 0.1077308,-0.012066 0.089421,0.0049 0.1547873,0.029253 0.378735,0.1410726 0.2394033,0.1195356 0.3206933,0.1503581 0.4250239,0.1611543 l 0.03846,0.00398 0.05993,-0.075058 c 0.03298,-0.041282 0.08478,-0.1131396 0.115148,-0.1596831 0.06214,-0.095223 0.09671,-0.1349479 0.134337,-0.1543266 0.04394,-0.022632 0.123035,-0.043962 0.275951,-0.074427 0.141992,-0.028288 0.156928,-0.033205 0.24773,-0.08158 0.04859,-0.02589 0.162297,-0.04448 0.252659,-0.041309 0.07027,0.00244 0.09065,0.00634 0.154532,0.029383 0.04047,0.014595 0.101856,0.036702 0.136408,0.049124 0.06761,0.024303 0.127245,0.032728 0.316726,0.044729 0.121273,0.00768 0.180349,0.017238 0.216504,0.035007 0.01214,0.00597 0.06193,0.052511 0.110623,0.1034276 l 0.08855,0.092576 0.09174,-0.030111 c 0.05046,-0.01656 0.159625,-0.053466 0.242595,-0.082014 0.196168,-0.067499 0.277881,-0.084235 0.390009,-0.07988 0.06286,0.00242 0.09514,0.00734 0.125476,0.019058 0.122128,0.047156 0.143275,0.1710372 0.05829,0.341503 -0.08203,0.164553 -0.217608,0.3027352 -0.3629,0.3698641 -0.100532,0.046449 -0.153706,0.055102 -0.383814,0.062461 -0.113325,0.00363 -0.20984,0.00675 -0.214482,0.00694 -0.01567,6.376e-4 -0.02839,0.1239624 -0.02773,0.268938 8.02e-4,0.1776098 0.01092,0.2275674 0.09945,0.4905464 0.0919,0.2730006 0.112243,0.3950442 0.09556,0.5734068 -0.01689,0.1806402 -0.06179,0.2902875 -0.158128,0.3861006 -0.066,0.065646 -0.127114,0.1005645 -0.225155,0.1286445 -0.07198,0.020616 -0.215486,0.025895 -0.294945,0.010849 z m -0.791,-1.3199416 c 0.01184,-0.00673 0.02922,-0.026796 0.03863,-0.044579 0.0458,-0.086604 -0.0059,-0.1919599 -0.09415,-0.191885 -0.0428,2.76e-5 -0.07439,0.020398 -0.09379,0.060446 -0.03402,0.070277 -0.01198,0.1490949 0.05053,0.1806841 0.036,0.018191 0.06062,0.017027 0.09877,-0.00466 z m 1.137534,-0.076441 c 0.04449,-0.030274 0.05512,-0.051925 0.05512,-0.1122198 0,-0.060494 -0.01053,-0.081761 -0.05586,-0.1128695 -0.01983,-0.013607 -0.0318,-0.01647 -0.0572,-0.013685 -0.04091,0.00449 -0.0666,0.023327 -0.08746,0.064157 -0.05538,0.108381 0.05245,0.2378805 0.145408,0.1746183 z"
     id="path1" />
  <rect
     style="opacity:0.5;fill:none;fill-opacity:0.996424;stroke:url(#linearGradient9);stroke-width:0.566102;stroke-dasharray:none;stroke-opacity:1"
     id="rect1-2-6"
     width="11.574203"
     height="11.508601"
     x="2.729686"
     y="2.6615164"
     rx="2.0246315"
     ry="2.0627522" />
</svg>
