<?xml version="1.0" encoding="UTF-8" standalone="no"?>
<svg
   width="64"
   height="64"
   version="1.1"
   viewBox="0 0 16.933 16.933"
   id="svg7"
   sodipodi:docname="Template 4.svg"
   inkscape:version="1.3.2 (091e20ef0f, 2023-11-25)"
   xmlns:inkscape="http://www.inkscape.org/namespaces/inkscape"
   xmlns:sodipodi="http://sodipodi.sourceforge.net/DTD/sodipodi-0.dtd"
   xmlns:xlink="http://www.w3.org/1999/xlink"
   xmlns="http://www.w3.org/2000/svg"
   xmlns:svg="http://www.w3.org/2000/svg"
   xmlns:rdf="http://www.w3.org/1999/02/22-rdf-syntax-ns#"
   xmlns:cc="http://creativecommons.org/ns#"
   xmlns:dc="http://purl.org/dc/elements/1.1/">
  <sodipodi:namedview
     id="namedview7"
     pagecolor="#9c4444"
     bordercolor="#000000"
     borderopacity="0.25"
     inkscape:showpageshadow="2"
     inkscape:pageopacity="0.0"
     inkscape:pagecheckerboard="0"
     inkscape:deskcolor="#d1d1d1"
     inkscape:zoom="4.3531261"
     inkscape:cx="32.849956"
     inkscape:cy="24.350317"
     inkscape:window-width="1356"
     inkscape:window-height="786"
     inkscape:window-x="35"
     inkscape:window-y="32"
     inkscape:window-maximized="0"
     inkscape:current-layer="svg7"
     showgrid="false" />
  <defs
     id="defs2">
    <linearGradient
       id="linearGradient5"
       inkscape:collect="always">
      <stop
         style="stop-color:#392713;stop-opacity:1;"
         offset="0"
         id="stop2" />
      <stop
         style="stop-color:#eed59e;stop-opacity:1;"
         offset="0.5"
         id="stop3" />
      <stop
         style="stop-color:#beaa8a;stop-opacity:1;"
         offset="1"
         id="stop4" />
    </linearGradient>
    <linearGradient
       id="linearGradient8"
       inkscape:collect="always">
      <stop
         style="stop-color:#1a1a1a;stop-opacity:1;"
         offset="0"
         id="stop8" />
      <stop
         style="stop-color:#ffffff;stop-opacity:0;"
         offset="1"
         id="stop9" />
    </linearGradient>
    <linearGradient
       inkscape:collect="always"
       xlink:href="#linearGradient5"
       id="linearGradient41"
       x1="13.675659"
       y1="16.110115"
       x2="13.728528"
       y2="10.548769"
       gradientUnits="userSpaceOnUse"
       gradientTransform="matrix(2.046153,0,0,2.046153,-18.798306,-18.911347)" />
    <linearGradient
       inkscape:collect="always"
       xlink:href="#linearGradient42"
       id="linearGradient4"
       x1="11.885941"
       y1="16.50819"
       x2="12.026573"
       y2="10.244942"
       gradientUnits="userSpaceOnUse"
       gradientTransform="matrix(2.046153,0,0,2.046153,-18.798306,-18.911347)" />
    <linearGradient
       id="linearGradient42"
       inkscape:collect="always">
      <stop
         style="stop-color:#010101;stop-opacity:1;"
         offset="0"
         id="stop42" />
      <stop
         style="stop-color:#6e6c6d;stop-opacity:1;"
         offset="1"
         id="stop43" />
    </linearGradient>
    <linearGradient
       inkscape:collect="always"
       xlink:href="#linearGradient8"
       id="linearGradient9"
       x1="9.3404646"
       y1="4.1692023"
       x2="9.4279938"
       y2="16.46883"
       gradientUnits="userSpaceOnUse"
       gradientTransform="matrix(1.05,0,0,1.05,-0.50277005,-0.1977751)" />
    <filter
       style="color-interpolation-filters:sRGB;"
       inkscape:label="Blur"
       id="filter2"
       x="-0.14510849"
       y="-0.14612901"
       width="1.290217"
       height="1.292258">
      <feGaussianBlur
         stdDeviation="0.6 0.6"
         result="blur"
         id="feGaussianBlur2" />
    </filter>
    <linearGradient
       inkscape:collect="always"
       xlink:href="#linearGradient5"
       id="linearGradient32"
       x1="32.301727"
       y1="50.852528"
       x2="31.898983"
       y2="13.747931"
       gradientUnits="userSpaceOnUse"
       gradientTransform="matrix(0.2121652,0,0,0.2121652,1.6845516,1.5830125)" />
  </defs>
  <metadata
     id="metadata2">
    <rdf:RDF>
      <cc:Work
         rdf:about="">
        <dc:format>image/svg+xml</dc:format>
        <dc:type
           rdf:resource="http://purl.org/dc/dcmitype/StillImage" />
      </cc:Work>
    </rdf:RDF>
  </metadata>
  <rect
     style="fill:#000000;fill-opacity:0.996424;stroke:#000000;stroke-width:0.911802;stroke-dasharray:none;stroke-opacity:1;filter:url(#filter2)"
     id="rect1-2-3"
     width="13.065404"
     height="12.974159"
     x="1.9816793"
     y="1.9267306"
     rx="2.7149384"
     ry="2.8310909" />
  <rect
     style="fill:url(#linearGradient4);fill-opacity:0.996424;stroke:url(#linearGradient41);stroke-width:0.911802;stroke-dasharray:none;stroke-opacity:1"
     id="rect1-2"
     width="13.065404"
     height="12.974159"
     x="1.9816793"
     y="1.9267306"
     rx="2.7149384"
     ry="2.8310909" />
  <path
     style="fill:#000000;fill-opacity:1;stroke:none;stroke-width:0.231048;stroke-dasharray:none;stroke-dashoffset:2.2;stroke-opacity:0.3;opacity:0.3"
     d="M 8.4555456,12.939878 C 8.3583595,12.916615 8.3315488,12.899483 7.3543397,12.236259 6.4926439,11.651433 6.2280507,11.423873 6.1028198,11.159908 6.0372156,11.021624 5.6816385,9.7069762 5.2918924,8.1617285 L 5.1146739,7.4591006 5.2260567,7.1392848 c 0.06126,-0.1758985 0.1113831,-0.3406535 0.1113831,-0.3661221 0,-0.025467 -0.047768,-0.1413136 -0.1061529,-0.2574335 C 5.1729036,6.3996093 5.1251341,6.2887738 5.1251341,6.2694286 c 0,-0.049608 0.6042336,-0.6387359 0.7165302,-0.6986173 0.1292297,-0.06891 0.5306422,-0.070783 0.6623647,-0.00309 L 6.595823,5.6148933 6.9422644,5.2691652 7.2887055,4.9234369 h 1.2598513 1.2598518 l 0.3465994,0.3458869 0.3466,0.3458863 0.129142,-0.057127 c 0.106391,-0.047061 0.164612,-0.055021 0.330479,-0.045177 0.121884,0.00724 0.237992,0.031008 0.294222,0.060247 0.11093,0.057686 0.473285,0.3876147 0.62772,0.5715493 l 0.110227,0.1312829 -0.116862,0.2271081 c -0.06427,0.1249095 -0.116862,0.2497094 -0.116862,0.2773326 0,0.027623 0.04765,0.1793976 0.105858,0.3372765 0.05822,0.1578791 0.10599,0.3101711 0.106153,0.3384267 4.46e-4,0.0755 -0.522641,2.1286633 -0.838798,3.2924338 -0.148025,0.544877 -0.263754,0.700767 -0.808429,1.088963 -0.6264452,0.446475 -1.6176918,1.100435 -1.6679981,1.100435 -0.027768,0 -0.06639,0.0047 -0.085829,0.0105 -0.019438,0.0058 -0.071227,0.002 -0.1150851,-0.0085 z m 0.2681983,-1.779273 c 0.056905,-0.0434 0.2625523,-0.188831 0.4569942,-0.323173 0.194442,-0.13434 0.4034298,-0.288981 0.4644185,-0.343644 C 9.7825281,10.370661 9.7780594,10.364729 9.4093709,10.180779 8.6311143,9.7924833 8.5581575,9.7808021 8.123946,9.9749685 7.6404704,10.191165 7.3676088,10.346148 7.3676088,10.404562 c 0,0.03738 0.1241615,0.138201 0.4400117,0.357272 0.2420072,0.167854 0.4915988,0.344001 0.5546488,0.391438 0.142227,0.107007 0.2285,0.108759 0.3614747,0.0073 z M 7.3628273,10.155492 C 7.4238409,10.113923 7.5812407,10.024482 7.7126046,9.9567331 7.9625141,9.8278457 8.3655939,9.5047247 8.428702,9.3826877 8.4798927,9.2836957 8.4506259,9.2453688 8.06603,8.9077453 7.8809183,8.745242 7.7220807,8.5890231 7.7130571,8.5605923 7.7031129,8.529262 7.7442214,8.3872361 7.8174148,8.2000447 7.9823181,7.7783048 7.9785358,7.6269348 7.8007979,7.5350233 7.7552961,7.5114925 7.5027532,7.4092612 7.2395916,7.3078408 6.9764299,7.2064204 6.748299,7.1151371 6.7326345,7.1049896 c -0.040298,-0.026104 0.1938381,-0.053437 0.4811766,-0.056172 0.2206502,-0.0021 0.2732678,0.00796 0.5440321,0.1039517 0.3011382,0.1067668 0.3966662,0.1722312 0.3772514,0.2585262 -0.00575,0.025598 -0.058392,0.2575658 -0.1169624,0.5154881 -0.05857,0.2579226 -0.1064921,0.4865128 -0.1064921,0.5079784 0,0.052784 0.1589543,0.112697 0.4374488,0.1648824 0.2153483,0.040352 0.2450657,0.040237 0.4342569,-0.00166 0.263723,-0.058415 0.4021259,-0.1145906 0.4021259,-0.1632144 0,-0.021466 -0.047922,-0.2500554 -0.1064925,-0.5079779 C 9.0204084,7.6688699 8.9677753,7.4369 8.9620168,7.4113042 8.9423193,7.3237585 9.0384949,7.2576708 9.3395013,7.1519073 9.5905118,7.0637109 9.6732843,7.0465011 9.8464679,7.0465011 c 0.2453191,0 0.5332221,0.027335 0.5332221,0.050628 0,0.00909 -0.06269,0.038566 -0.139328,0.065501 -0.4348793,0.1528597 -0.9670554,0.3774633 -1.0201414,0.430549 -0.09748,0.097481 -0.082456,0.2506555 0.058988,0.6014002 0.073011,0.1810484 0.1146675,0.3211573 0.1060039,0.3565398 C 9.3773625,8.5831771 9.2306873,8.7311744 9.0592662,8.8800007 8.685818,9.2042252 8.6547079,9.2376708 8.6547079,9.314933 c 0,0.082982 0.3687355,0.4303682 0.6445764,0.6072571 0.3289331,0.2109349 0.5102536,0.3088899 0.5717716,0.3088899 0.068247,0 0.3628791,-0.2578738 0.4622781,-0.4046083 0.149804,-0.2211432 0.150749,-0.3069773 0.0077,-0.7033778 -0.05051,-0.1400193 -0.06238,-0.2055354 -0.04363,-0.2405803 0.01417,-0.026488 0.196709,-0.2022938 0.405631,-0.3906798 0.208921,-0.1883858 0.462224,-0.4231604 0.562894,-0.5217217 L 11.448989,7.79091 11.433289,7.6037076 C 11.424076,7.4932601 11.394162,7.369484 11.360377,7.3018342 11.253731,7.0882961 10.495609,6.0841912 10.418764,6.054703 10.403154,6.048703 10.205854,6.090281 9.9803326,6.14708 9.7548116,6.203879 9.5409799,6.2503518 9.505152,6.2503518 c -0.035829,0 -0.1910792,-0.03537 -0.3450021,-0.078602 C 8.6139848,6.0183519 8.4890566,6.0183986 7.938182,6.1722158 7.784924,6.2150056 7.6242492,6.2500936 7.5811262,6.2501893 7.5380034,6.2502847 7.3767841,6.2147127 7.2228611,6.1711397 7.0689371,6.1275508 6.885394,6.0811592 6.8149866,6.0680314 L 6.6869729,6.0441564 6.549605,6.2182825 C 6.29283,6.5437677 5.8957524,7.1122218 5.8042497,7.2853288 5.6787382,7.5227746 5.6396071,7.6861517 5.6830991,7.7911511 c 0.019691,0.047533 0.2558402,0.2839029 0.5715132,0.5720439 0.2958781,0.2700718 0.5449752,0.50932 0.5535483,0.5316625 0.00858,0.022342 -0.015142,0.1261266 -0.052695,0.2306315 -0.1203732,0.3349526 -0.1250898,0.3605837 -0.089652,0.487158 0.017975,0.064203 0.06818,0.1657354 0.1115655,0.2256268 0.1117206,0.1542259 0.3689274,0.3906752 0.4262212,0.3918222 0.026563,5.31e-4 0.098215,-0.03304 0.1592289,-0.07461 z"
     id="path14-4" />
  <path
     style="fill:url(#linearGradient32);fill-opacity:1;stroke:none;stroke-width:0.231048;stroke-dasharray:none;stroke-dashoffset:2.2;stroke-opacity:0.3"
     d="M 8.4555456,12.410722 C 8.3583595,12.387459 8.3315488,12.370327 7.3543397,11.707103 6.4926439,11.122277 6.2280507,10.894717 6.1028198,10.630752 6.0372156,10.492468 5.6816385,9.17782 5.2918924,7.6325723 L 5.1146739,6.9299444 5.2260567,6.6101286 C 5.287317,6.4342301 5.3374398,6.2694751 5.3374398,6.2440065 5.3374398,6.2185392 5.2896714,6.1026929 5.2312869,5.986573 5.1729036,5.8704531 5.1251341,5.7596176 5.1251341,5.7402724 c 0,-0.049608 0.6042336,-0.6387359 0.7165302,-0.6986173 0.1292297,-0.06891 0.5306422,-0.070783 0.6623647,-0.00309 L 6.595823,5.0857371 6.9422644,4.740009 7.2887055,4.3942807 h 1.2598513 1.2598518 l 0.3465994,0.3458869 0.3466,0.3458863 0.129142,-0.057127 c 0.106391,-0.047061 0.164612,-0.055021 0.330479,-0.045177 0.121884,0.00724 0.237992,0.031008 0.294222,0.060247 0.11093,0.057686 0.473285,0.3876147 0.62772,0.5715493 l 0.110227,0.1312829 -0.116862,0.2271081 c -0.06427,0.1249095 -0.116862,0.2497094 -0.116862,0.2773326 0,0.027623 0.04765,0.1793976 0.105858,0.3372765 0.05822,0.1578791 0.10599,0.3101711 0.106153,0.3384267 4.46e-4,0.0755 -0.522641,2.1286632 -0.838798,3.292434 -0.148025,0.544877 -0.263754,0.700767 -0.808429,1.088963 -0.6264452,0.446475 -1.6176918,1.100435 -1.6679981,1.100435 -0.027768,0 -0.06639,0.0047 -0.085829,0.0105 -0.019438,0.0058 -0.071227,0.002 -0.1150851,-0.0085 z m 0.2681983,-1.779273 c 0.056905,-0.0434 0.2625523,-0.188831 0.4569942,-0.323173 0.194442,-0.13434 0.4034298,-0.288981 0.4644185,-0.343644 C 9.7825281,9.8415048 9.7780594,9.8355726 9.4093709,9.6516229 8.6311143,9.2633271 8.5581575,9.2516459 8.123946,9.4458123 7.6404704,9.6620083 7.3676088,9.816992 7.3676088,9.875406 c 0,0.037377 0.1241615,0.138201 0.4400117,0.357272 0.2420072,0.167854 0.4915988,0.344001 0.5546488,0.391438 0.142227,0.107007 0.2285,0.108759 0.3614747,0.0073 z M 7.3628273,9.6263355 C 7.4238409,9.5847671 7.5812407,9.4953255 7.7126046,9.4275769 7.9625141,9.2986895 8.3655939,8.9755685 8.428702,8.8535315 8.4798927,8.7545395 8.4506259,8.7162126 8.06603,8.3785891 7.8809183,8.2160858 7.7220807,8.0598669 7.7130571,8.0314361 7.7031129,8.0001058 7.7442214,7.8580799 7.8174148,7.6708885 7.9823181,7.2491486 7.9785358,7.0977786 7.8007979,7.0058671 7.7552961,6.9823363 7.5027532,6.880105 7.2395916,6.7786846 6.9764299,6.6772642 6.748299,6.5859809 6.7326345,6.5758334 c -0.040298,-0.026104 0.1938381,-0.053437 0.4811766,-0.056172 0.2206502,-0.0021 0.2732678,0.00796 0.5440321,0.1039517 0.3011382,0.1067668 0.3966662,0.1722312 0.3772514,0.2585262 -0.00575,0.025598 -0.058392,0.2575658 -0.1169624,0.5154881 -0.05857,0.2579226 -0.1064921,0.4865128 -0.1064921,0.5079784 0,0.052784 0.1589543,0.112697 0.4374488,0.1648824 0.2153483,0.040352 0.2450657,0.040237 0.4342569,-0.00166 0.263723,-0.058415 0.4021259,-0.1145906 0.4021259,-0.1632144 0,-0.021466 -0.047922,-0.2500554 -0.1064925,-0.5079779 C 9.0204084,7.1397137 8.9677753,6.9077438 8.9620168,6.882148 8.9423193,6.7946023 9.0384949,6.7285146 9.3395013,6.6227511 9.5905118,6.5345547 9.6732843,6.5173449 9.8464679,6.5173449 c 0.2453191,0 0.5332221,0.027335 0.5332221,0.050628 0,0.00909 -0.06269,0.038566 -0.139328,0.065501 -0.4348793,0.1528597 -0.9670554,0.3774633 -1.0201414,0.430549 -0.09748,0.097481 -0.082456,0.2506555 0.058988,0.6014002 0.073011,0.1810484 0.1146675,0.3211573 0.1060039,0.3565398 -0.00785,0.032058 -0.1545252,0.1800553 -0.3259463,0.3288816 -0.3734482,0.3242245 -0.4045583,0.35767 -0.4045583,0.4349323 0,0.082982 0.3687355,0.4303682 0.6445764,0.6072571 0.3289331,0.2109352 0.5102536,0.3088897 0.5717716,0.3088897 0.068247,0 0.3628791,-0.2578736 0.4622781,-0.4046081 0.149804,-0.2211432 0.150749,-0.3069773 0.0077,-0.7033778 -0.05051,-0.1400193 -0.06238,-0.2055354 -0.04363,-0.2405803 0.01417,-0.026488 0.196709,-0.2022938 0.405631,-0.3906798 0.208921,-0.1883858 0.462224,-0.4231604 0.562894,-0.5217217 l 0.18306,-0.1792021 -0.0157,-0.1872024 C 11.424076,6.9641039 11.394162,6.8403278 11.360377,6.772678 11.253731,6.5591399 10.495609,5.555035 10.418764,5.5255468 c -0.01561,-0.006 -0.21291,0.035578 -0.4384314,0.092377 -0.225521,0.056799 -0.4393527,0.1032718 -0.4751806,0.1032718 -0.035829,0 -0.1910792,-0.03537 -0.3450021,-0.078602 C 8.6139848,5.4891957 8.4890566,5.4892424 7.938182,5.6430596 7.784924,5.6858494 7.6242492,5.7209374 7.5811262,5.7210331 7.5380034,5.7211285 7.3767841,5.6855565 7.2228611,5.6419835 7.0689371,5.5983946 6.885394,5.552003 6.8149866,5.5388752 L 6.6869729,5.5150002 6.549605,5.6891263 C 6.29283,6.0146115 5.8957524,6.5830656 5.8042497,6.7561726 5.6787382,6.9936184 5.6396071,7.1569955 5.6830991,7.2619949 c 0.019691,0.047533 0.2558402,0.2839029 0.5715132,0.5720439 0.2958781,0.2700718 0.5449752,0.50932 0.5535483,0.5316625 0.00858,0.022342 -0.015142,0.1261266 -0.052695,0.2306315 -0.1203732,0.3349526 -0.1250898,0.3605837 -0.089652,0.487158 0.017975,0.064203 0.06818,0.1657354 0.1115655,0.2256268 0.1117206,0.1542259 0.3689274,0.3906747 0.4262212,0.3918225 0.026563,5.305e-4 0.098215,-0.033038 0.1592289,-0.074608 z"
     id="path14" />
  <rect
     style="opacity:0.5;fill:none;fill-opacity:0.996424;stroke:url(#linearGradient9);stroke-width:0.566102;stroke-dasharray:none;stroke-opacity:1"
     id="rect1-2-6"
     width="11.574203"
     height="11.508601"
     x="2.729686"
     y="2.6615164"
     rx="2.0246315"
     ry="2.0627522" />
</svg>
