<?xml version="1.0" encoding="UTF-8" standalone="no"?>
<svg
   width="64"
   height="64"
   version="1.1"
   viewBox="0 0 16.933 16.933"
   id="svg7"
   sodipodi:docname="Template 4.svg"
   inkscape:version="1.3.2 (091e20ef0f, 2023-11-25)"
   xmlns:inkscape="http://www.inkscape.org/namespaces/inkscape"
   xmlns:sodipodi="http://sodipodi.sourceforge.net/DTD/sodipodi-0.dtd"
   xmlns:xlink="http://www.w3.org/1999/xlink"
   xmlns="http://www.w3.org/2000/svg"
   xmlns:svg="http://www.w3.org/2000/svg"
   xmlns:rdf="http://www.w3.org/1999/02/22-rdf-syntax-ns#"
   xmlns:cc="http://creativecommons.org/ns#"
   xmlns:dc="http://purl.org/dc/elements/1.1/">
  <sodipodi:namedview
     id="namedview7"
     pagecolor="#9c4444"
     bordercolor="#000000"
     borderopacity="0.25"
     inkscape:showpageshadow="2"
     inkscape:pageopacity="0.0"
     inkscape:pagecheckerboard="0"
     inkscape:deskcolor="#d1d1d1"
     inkscape:zoom="4.3531261"
     inkscape:cx="32.964816"
     inkscape:cy="32.620236"
     inkscape:window-width="1463"
     inkscape:window-height="604"
     inkscape:window-x="199"
     inkscape:window-y="276"
     inkscape:window-maximized="0"
     inkscape:current-layer="svg7"
     showgrid="false" />
  <defs
     id="defs2">
    <linearGradient
       id="linearGradient5"
       inkscape:collect="always">
      <stop
         style="stop-color:#392713;stop-opacity:1;"
         offset="0"
         id="stop2" />
      <stop
         style="stop-color:#eed59e;stop-opacity:1;"
         offset="0.5"
         id="stop3" />
      <stop
         style="stop-color:#beaa8a;stop-opacity:1;"
         offset="1"
         id="stop4" />
    </linearGradient>
    <linearGradient
       id="linearGradient8"
       inkscape:collect="always">
      <stop
         style="stop-color:#1a1a1a;stop-opacity:1;"
         offset="0"
         id="stop8" />
      <stop
         style="stop-color:#ffffff;stop-opacity:0;"
         offset="1"
         id="stop9" />
    </linearGradient>
    <linearGradient
       inkscape:collect="always"
       xlink:href="#linearGradient5"
       id="linearGradient41"
       x1="13.675659"
       y1="16.110115"
       x2="13.728528"
       y2="10.548769"
       gradientUnits="userSpaceOnUse"
       gradientTransform="matrix(2.046153,0,0,2.046153,-18.798306,-18.911347)" />
    <linearGradient
       inkscape:collect="always"
       xlink:href="#linearGradient42"
       id="linearGradient4"
       x1="11.885941"
       y1="16.50819"
       x2="12.026573"
       y2="10.244942"
       gradientUnits="userSpaceOnUse"
       gradientTransform="matrix(2.046153,0,0,2.046153,-18.798306,-18.911347)" />
    <linearGradient
       id="linearGradient42"
       inkscape:collect="always">
      <stop
         style="stop-color:#010101;stop-opacity:1;"
         offset="0"
         id="stop42" />
      <stop
         style="stop-color:#6e6c6d;stop-opacity:1;"
         offset="1"
         id="stop43" />
    </linearGradient>
    <linearGradient
       inkscape:collect="always"
       xlink:href="#linearGradient8"
       id="linearGradient9"
       x1="9.3404646"
       y1="4.1692023"
       x2="9.4279938"
       y2="16.46883"
       gradientUnits="userSpaceOnUse"
       gradientTransform="matrix(1.05,0,0,1.05,-0.50277005,-0.1977751)" />
    <filter
       style="color-interpolation-filters:sRGB;"
       inkscape:label="Blur"
       id="filter2"
       x="-0.14510849"
       y="-0.14612901"
       width="1.290217"
       height="1.292258">
      <feGaussianBlur
         stdDeviation="0.6 0.6"
         result="blur"
         id="feGaussianBlur2" />
    </filter>
    <linearGradient
       inkscape:collect="always"
       xlink:href="#linearGradient5"
       id="linearGradient11"
       x1="30.291101"
       y1="48.212391"
       x2="30.418961"
       y2="16.199051"
       gradientUnits="userSpaceOnUse"
       gradientTransform="matrix(0.23573911,0,0,0.23573911,1.0325117,0.82528803)" />
  </defs>
  <metadata
     id="metadata2">
    <rdf:RDF>
      <cc:Work
         rdf:about="">
        <dc:format>image/svg+xml</dc:format>
        <dc:type
           rdf:resource="http://purl.org/dc/dcmitype/StillImage" />
      </cc:Work>
    </rdf:RDF>
  </metadata>
  <rect
     style="fill:#000000;fill-opacity:0.996424;stroke:#000000;stroke-width:0.911802;stroke-dasharray:none;stroke-opacity:1;filter:url(#filter2)"
     id="rect1-2-3"
     width="13.065404"
     height="12.974159"
     x="1.9816793"
     y="1.9267306"
     rx="2.7149384"
     ry="2.8310909" />
  <rect
     style="fill:url(#linearGradient4);fill-opacity:0.996424;stroke:url(#linearGradient41);stroke-width:0.911802;stroke-dasharray:none;stroke-opacity:1"
     id="rect1-2"
     width="13.065404"
     height="12.974159"
     x="1.9816793"
     y="1.9267306"
     rx="2.7149384"
     ry="2.8310909" />
  <path
     id="path83-1"
     style="fill:#000000;fill-opacity:1;stroke-width:0.0421221;stroke-opacity:0.3;opacity:0.3"
     d="M 8.1327151,5.1241737 C 7.5762692,5.1226649 7.4305517,5.1364061 7.1471224,5.2178701 5.6638931,5.6441908 4.6055889,6.7994727 4.3438055,8.2774599 c -0.064794,0.3658081 -0.053886,1.0328274 0.022789,1.4049499 0.3302018,1.6025002 1.6512104,2.8267852 3.280412,3.0398372 0.3953078,0.0517 0.6012698,0.04807 1.0377599,-0.01773 0.4447168,-0.06703 0.8154192,-0.192698 1.2631391,-0.427968 0.3920355,-0.20601 0.5014065,-0.340016 0.5014065,-0.613336 0,-0.184469 -0.01848,-0.229672 -0.143331,-0.35453 -0.211617,-0.211615 -0.3975495,-0.199106 -0.9177267,0.0623 -0.8398326,0.422039 -1.660997,0.42935 -2.508044,0.02228 C 6.5719706,11.245129 6.4281261,11.142989 6.1853353,10.900467 5.6496154,10.365341 5.4004026,9.812901 5.3628265,9.0766653 5.3354631,8.5404421 5.4196527,8.1353662 5.6575926,7.6570282 5.9018914,7.1659104 6.3752263,6.6954679 6.8690714,6.4531472 7.7219392,6.0346599 8.6226086,6.0547337 9.4662547,6.5108849 9.837011,6.7113492 9.9981116,6.7400686 10.192535,6.6395284 10.551601,6.4538476 10.556256,5.9537667 10.201161,5.7187645 9.9195416,5.5324076 9.5341458,5.3557422 9.1557889,5.2396431 8.8228239,5.1374733 8.7194158,5.1257758 8.1327177,5.124168 Z M 10.55466,7.0690213 10.54302,7.7274331 10.53137,8.3853385 H 9.4779 c -1.1748386,0 -1.2811619,0.019582 -1.4282483,0.2608326 -0.1562644,0.2563027 -0.082142,0.5750919 0.1686546,0.7232401 0.099939,0.059035 0.2741038,0.068881 1.2160369,0.068881 h 1.0990418 v 0.6771518 0.677149 l 0.09623,-0.07699 c 0.05279,-0.04223 0.57365,-0.462528 1.157287,-0.9339302 L 12.847955,8.9247299 12.628147,8.7459461 C 12.507186,8.647769 11.991173,8.2306984 11.481499,7.8185976 Z" />
  <path
     id="path83"
     style="fill:url(#linearGradient11);fill-opacity:1;stroke-width:0.0421221;stroke-opacity:0.3"
     d="M 8.1327151,4.5950175 C 7.5762692,4.5935087 7.4305517,4.6072499 7.1471224,4.6887139 5.6638931,5.1150346 4.6055889,6.2703165 4.3438055,7.7483037 c -0.064794,0.3658081 -0.053886,1.0328274 0.022789,1.4049499 0.3302018,1.6025004 1.6512104,2.8267854 3.280412,3.0398374 0.3953078,0.0517 0.6012698,0.04807 1.0377599,-0.01773 0.4447168,-0.06703 0.8154192,-0.192698 1.2631391,-0.427968 0.3920355,-0.20601 0.5014065,-0.340016 0.5014065,-0.613336 0,-0.184469 -0.01848,-0.229672 -0.143331,-0.35453 -0.211617,-0.211615 -0.3975495,-0.199106 -0.9177267,0.0623 -0.8398326,0.422039 -1.660997,0.42935 -2.508044,0.02228 C 6.5719706,10.715973 6.4281261,10.613833 6.1853353,10.371311 5.6496154,9.8361848 5.4004026,9.2837448 5.3628265,8.5475091 5.3354631,8.0112859 5.4196527,7.60621 5.6575926,7.127872 5.9018914,6.6367542 6.3752263,6.1663117 6.8690714,5.923991 7.7219392,5.5055037 8.6226086,5.5255775 9.4662547,5.9817287 9.837011,6.182193 9.9981116,6.2109124 10.192535,6.1103722 10.551601,5.9246914 10.556256,5.4246105 10.201161,5.1896083 9.9195416,5.0032514 9.5341458,4.826586 9.1557889,4.7104869 8.8228239,4.6083171 8.7194158,4.5966196 8.1327177,4.5950118 Z M 10.55466,6.5398651 10.54302,7.1982769 10.53137,7.8561823 H 9.4779 c -1.1748386,0 -1.2811619,0.019582 -1.4282483,0.2608326 -0.1562644,0.2563027 -0.082142,0.5750919 0.1686546,0.7232401 0.099939,0.059035 0.2741038,0.068881 1.2160369,0.068881 h 1.0990418 v 0.6771514 0.6771496 l 0.09623,-0.07699 c 0.05279,-0.04223 0.57365,-0.4625283 1.157287,-0.9339304 L 12.847955,8.3955737 12.628147,8.2167899 C 12.507186,8.1186128 11.991173,7.7015422 11.481499,7.2894414 Z" />
  <rect
     style="opacity:0.5;fill:none;fill-opacity:0.996424;stroke:url(#linearGradient9);stroke-width:0.566102;stroke-dasharray:none;stroke-opacity:1"
     id="rect1-2-6"
     width="11.574203"
     height="11.508601"
     x="2.729686"
     y="2.6615164"
     rx="2.0246315"
     ry="2.0627522" />
</svg>
