<?xml version="1.0" encoding="UTF-8" standalone="no"?>
<svg
   width="64"
   height="64"
   version="1.1"
   viewBox="0 0 16.933 16.933"
   id="svg7"
   sodipodi:docname="Template 4.svg"
   inkscape:version="1.3.2 (091e20ef0f, 2023-11-25)"
   xmlns:inkscape="http://www.inkscape.org/namespaces/inkscape"
   xmlns:sodipodi="http://sodipodi.sourceforge.net/DTD/sodipodi-0.dtd"
   xmlns:xlink="http://www.w3.org/1999/xlink"
   xmlns="http://www.w3.org/2000/svg"
   xmlns:svg="http://www.w3.org/2000/svg"
   xmlns:rdf="http://www.w3.org/1999/02/22-rdf-syntax-ns#"
   xmlns:cc="http://creativecommons.org/ns#"
   xmlns:dc="http://purl.org/dc/elements/1.1/">
  <sodipodi:namedview
     id="namedview7"
     pagecolor="#9c4444"
     bordercolor="#000000"
     borderopacity="0.25"
     inkscape:showpageshadow="2"
     inkscape:pageopacity="0.0"
     inkscape:pagecheckerboard="0"
     inkscape:deskcolor="#d1d1d1"
     inkscape:zoom="4.3531261"
     inkscape:cx="32.849956"
     inkscape:cy="24.350317"
     inkscape:window-width="1356"
     inkscape:window-height="786"
     inkscape:window-x="35"
     inkscape:window-y="32"
     inkscape:window-maximized="0"
     inkscape:current-layer="svg7"
     showgrid="false" />
  <defs
     id="defs2">
    <linearGradient
       id="linearGradient5"
       inkscape:collect="always">
      <stop
         style="stop-color:#392713;stop-opacity:1;"
         offset="0"
         id="stop2" />
      <stop
         style="stop-color:#eed59e;stop-opacity:1;"
         offset="0.5"
         id="stop3" />
      <stop
         style="stop-color:#beaa8a;stop-opacity:1;"
         offset="1"
         id="stop4" />
    </linearGradient>
    <linearGradient
       id="linearGradient8"
       inkscape:collect="always">
      <stop
         style="stop-color:#1a1a1a;stop-opacity:1;"
         offset="0"
         id="stop8" />
      <stop
         style="stop-color:#ffffff;stop-opacity:0;"
         offset="1"
         id="stop9" />
    </linearGradient>
    <linearGradient
       inkscape:collect="always"
       xlink:href="#linearGradient5"
       id="linearGradient41"
       x1="13.675659"
       y1="16.110115"
       x2="13.728528"
       y2="10.548769"
       gradientUnits="userSpaceOnUse"
       gradientTransform="matrix(2.046153,0,0,2.046153,-18.798306,-18.911347)" />
    <linearGradient
       inkscape:collect="always"
       xlink:href="#linearGradient42"
       id="linearGradient4"
       x1="11.885941"
       y1="16.50819"
       x2="12.026573"
       y2="10.244942"
       gradientUnits="userSpaceOnUse"
       gradientTransform="matrix(2.046153,0,0,2.046153,-18.798306,-18.911347)" />
    <linearGradient
       id="linearGradient42"
       inkscape:collect="always">
      <stop
         style="stop-color:#010101;stop-opacity:1;"
         offset="0"
         id="stop42" />
      <stop
         style="stop-color:#6e6c6d;stop-opacity:1;"
         offset="1"
         id="stop43" />
    </linearGradient>
    <linearGradient
       inkscape:collect="always"
       xlink:href="#linearGradient8"
       id="linearGradient9"
       x1="9.3404646"
       y1="4.1692023"
       x2="9.4279938"
       y2="16.46883"
       gradientUnits="userSpaceOnUse"
       gradientTransform="matrix(1.05,0,0,1.05,-0.50277005,-0.1977751)" />
    <filter
       style="color-interpolation-filters:sRGB;"
       inkscape:label="Blur"
       id="filter2"
       x="-0.14510849"
       y="-0.14612901"
       width="1.290217"
       height="1.292258">
      <feGaussianBlur
         stdDeviation="0.6 0.6"
         result="blur"
         id="feGaussianBlur2" />
    </filter>
    <linearGradient
       inkscape:collect="always"
       xlink:href="#linearGradient5"
       id="linearGradient6"
       x1="33.721664"
       y1="46.600597"
       x2="34.257473"
       y2="17.787636"
       gradientUnits="userSpaceOnUse"
       gradientTransform="matrix(0.23573911,0,0,0.23573911,0.96136703,0.78663908)" />
  </defs>
  <metadata
     id="metadata2">
    <rdf:RDF>
      <cc:Work
         rdf:about="">
        <dc:format>image/svg+xml</dc:format>
        <dc:type
           rdf:resource="http://purl.org/dc/dcmitype/StillImage" />
      </cc:Work>
    </rdf:RDF>
  </metadata>
  <rect
     style="fill:#000000;fill-opacity:0.996424;stroke:#000000;stroke-width:0.911802;stroke-dasharray:none;stroke-opacity:1;filter:url(#filter2)"
     id="rect1-2-3"
     width="13.065404"
     height="12.974159"
     x="1.9816793"
     y="1.9267306"
     rx="2.7149384"
     ry="2.8310909" />
  <rect
     style="fill:url(#linearGradient4);fill-opacity:0.996424;stroke:url(#linearGradient41);stroke-width:0.911802;stroke-dasharray:none;stroke-opacity:1"
     id="rect1-2"
     width="13.065404"
     height="12.974159"
     x="1.9816793"
     y="1.9267306"
     rx="2.7149384"
     ry="2.8310909" />
  <path
     id="path19-5"
     style="fill:#000000;fill-opacity:1;stroke:none;stroke-width:0.282392;stroke-dasharray:none;stroke-dashoffset:2.2;stroke-opacity:0.3;opacity:0.3"
     d="m 7.4530409,5.4861776 c -0.2189405,0.00268 -0.440706,0.051871 -0.65248,0.15333 -1.0058108,0.4818698 -1.2296749,1.7750282 -0.4412371,2.5503518 0.2381363,0.2341752 0.4867826,0.3713067 0.793124,0.4379278 0.2514995,0.054695 0.3506669,0.057205 0.590155,0.013788 C 8.3254995,8.5359041 8.8366604,8.077507 9.0028866,7.5109052 9.0812798,7.2436978 9.0700782,6.8272109 8.9775181,6.5650028 8.7389337,5.8891468 8.1098618,5.4781613 7.4530434,5.4861776 Z m 2.6821721,1.0440777 c -0.120155,0.00182 -0.2411835,0.019656 -0.3607122,0.055155 l -0.1676703,0.04964 0.019856,0.284047 C 9.6638785,7.443076 9.4683764,8.0655493 9.1545616,8.4220612 9.0816366,8.5049102 9.021639,8.5856016 9.021639,8.6013138 c 0,0.037529 0.3166851,0.341165 0.4263455,0.4086962 0.04709,0.029 0.1712278,0.082709 0.2757736,0.1196857 0.2935959,0.1038425 0.7016489,0.080873 0.9933369,-0.055706 0.291062,-0.1362874 0.547857,-0.3828085 0.681158,-0.6535828 0.09812,-0.1993024 0.104792,-0.2349844 0.104792,-0.5548562 0,-0.3190933 -0.0068,-0.3559888 -0.103692,-0.5520977 C 11.155168,6.8182705 10.655882,6.522331 10.135211,6.5302553 Z M 9.9190054,9.7794166 10.077853,9.8842102 c 0.366859,0.2429988 0.697827,0.6181948 0.901226,1.0203588 0.109796,0.217094 0.248196,0.69505 0.248196,0.857105 v 0.125752 h 0.798088 0.798086 l -0.01103,-0.382773 C 12.801401,11.13855 12.795148,11.110974 12.678948,10.87589 12.333221,10.176467 11.450291,9.7794166 10.241659,9.7794166 Z m -2.3937122,0.00607 c -0.077936,7.48e-5 -0.1574385,0.00148 -0.2388195,0.00386 C 6.6056476,9.809332 6.2784969,9.8639593 5.8127412,10.035333 4.8000626,10.407951 4.2551429,11.166107 4.25407,12.204016 v 0.234957 H 7.4651746 10.67628 v -0.333684 c 0,-0.624565 -0.176779,-1.051968 -0.61277,-1.483661 C 9.4818284,10.04568 8.6943482,9.7843664 7.5252932,9.7854846 Z" />
  <path
     id="path19"
     style="fill:url(#linearGradient6);fill-opacity:1;stroke:none;stroke-width:0.282392;stroke-dasharray:none;stroke-dashoffset:2.2;stroke-opacity:0.3"
     d="m 7.4530409,4.9570214 c -0.2189405,0.00268 -0.440706,0.051871 -0.65248,0.15333 C 5.7947501,5.5922212 5.570886,6.8853796 6.3593238,7.6607032 6.5974601,7.8948784 6.8461064,8.0320099 7.1524478,8.098631 7.4039473,8.153326 7.5031147,8.1558362 7.7426028,8.1124194 8.3254995,8.0067479 8.8366604,7.5483508 9.0028866,6.981749 9.0812798,6.7145416 9.0700782,6.2980547 8.9775181,6.0358466 8.7389337,5.3599906 8.1098618,4.9490051 7.4530434,4.9570214 Z m 2.6821721,1.0440777 c -0.120155,0.00182 -0.2411835,0.019656 -0.3607122,0.055155 l -0.1676703,0.04964 0.019856,0.284047 C 9.6638785,6.9139198 9.4683764,7.5363931 9.1545616,7.892905 9.0816366,7.975754 9.021639,8.0564454 9.021639,8.0721576 c 0,0.037529 0.3166851,0.341165 0.4263455,0.4086962 0.04709,0.029 0.1712278,0.082709 0.2757736,0.1196857 0.2935959,0.1038425 0.7016489,0.080873 0.9933369,-0.055706 0.291062,-0.1362874 0.547857,-0.3828085 0.681158,-0.6535828 0.09812,-0.1993024 0.104792,-0.2349844 0.104792,-0.5548562 0,-0.3190933 -0.0068,-0.3559888 -0.103692,-0.5520977 C 11.155168,6.2891143 10.655882,5.9931748 10.135211,6.0010991 Z M 9.9190054,9.2502604 10.077853,9.355054 c 0.366859,0.2429989 0.697827,0.6181945 0.901226,1.020359 0.109796,0.217094 0.248196,0.69505 0.248196,0.857105 v 0.125752 h 0.798088 0.798086 l -0.01103,-0.382773 C 12.801401,10.609394 12.795148,10.581818 12.678948,10.346734 12.333221,9.647311 11.450291,9.2502604 10.241659,9.2502604 Z m -2.3937122,0.00607 c -0.077936,7.48e-5 -0.1574385,0.00148 -0.2388195,0.00386 C 6.6056476,9.2801758 6.2784969,9.3348031 5.8127412,9.5061772 4.8000626,9.8787944 4.2551429,10.636951 4.25407,11.67486 v 0.234957 H 7.4651746 10.67628 v -0.333684 c 0,-0.624565 -0.176779,-1.051968 -0.61277,-1.483661 C 9.4818284,9.5165238 8.6943482,9.2552102 7.5252932,9.2563284 Z" />
  <rect
     style="opacity:0.5;fill:none;fill-opacity:0.996424;stroke:url(#linearGradient9);stroke-width:0.566102;stroke-dasharray:none;stroke-opacity:1"
     id="rect1-2-6"
     width="11.574203"
     height="11.508601"
     x="2.729686"
     y="2.6615164"
     rx="2.0246315"
     ry="2.0627522" />
</svg>
