<?xml version="1.0" encoding="UTF-8" standalone="no"?>
<svg
   width="64"
   height="64"
   version="1.1"
   viewBox="0 0 16.933 16.933"
   id="svg7"
   sodipodi:docname="Template 4.svg"
   inkscape:version="1.3.2 (091e20ef0f, 2023-11-25)"
   xmlns:inkscape="http://www.inkscape.org/namespaces/inkscape"
   xmlns:sodipodi="http://sodipodi.sourceforge.net/DTD/sodipodi-0.dtd"
   xmlns:xlink="http://www.w3.org/1999/xlink"
   xmlns="http://www.w3.org/2000/svg"
   xmlns:svg="http://www.w3.org/2000/svg"
   xmlns:rdf="http://www.w3.org/1999/02/22-rdf-syntax-ns#"
   xmlns:cc="http://creativecommons.org/ns#"
   xmlns:dc="http://purl.org/dc/elements/1.1/">
  <sodipodi:namedview
     id="namedview7"
     pagecolor="#9c4444"
     bordercolor="#000000"
     borderopacity="0.25"
     inkscape:showpageshadow="2"
     inkscape:pageopacity="0.0"
     inkscape:pagecheckerboard="0"
     inkscape:deskcolor="#d1d1d1"
     inkscape:zoom="4.3531261"
     inkscape:cx="32.964816"
     inkscape:cy="24.350317"
     inkscape:window-width="1463"
     inkscape:window-height="604"
     inkscape:window-x="42"
     inkscape:window-y="99"
     inkscape:window-maximized="0"
     inkscape:current-layer="svg7"
     showgrid="false" />
  <defs
     id="defs2">
    <linearGradient
       id="linearGradient5"
       inkscape:collect="always">
      <stop
         style="stop-color:#392713;stop-opacity:1;"
         offset="0"
         id="stop2" />
      <stop
         style="stop-color:#eed59e;stop-opacity:1;"
         offset="0.5"
         id="stop3" />
      <stop
         style="stop-color:#beaa8a;stop-opacity:1;"
         offset="1"
         id="stop4" />
    </linearGradient>
    <linearGradient
       id="linearGradient8"
       inkscape:collect="always">
      <stop
         style="stop-color:#1a1a1a;stop-opacity:1;"
         offset="0"
         id="stop8" />
      <stop
         style="stop-color:#ffffff;stop-opacity:0;"
         offset="1"
         id="stop9" />
    </linearGradient>
    <linearGradient
       inkscape:collect="always"
       xlink:href="#linearGradient5"
       id="linearGradient41"
       x1="13.675659"
       y1="16.110115"
       x2="13.728528"
       y2="10.548769"
       gradientUnits="userSpaceOnUse"
       gradientTransform="matrix(2.046153,0,0,2.046153,-18.798306,-18.911347)" />
    <linearGradient
       inkscape:collect="always"
       xlink:href="#linearGradient42"
       id="linearGradient4"
       x1="11.885941"
       y1="16.50819"
       x2="12.026573"
       y2="10.244942"
       gradientUnits="userSpaceOnUse"
       gradientTransform="matrix(2.046153,0,0,2.046153,-18.798306,-18.911347)" />
    <linearGradient
       id="linearGradient42"
       inkscape:collect="always">
      <stop
         style="stop-color:#010101;stop-opacity:1;"
         offset="0"
         id="stop42" />
      <stop
         style="stop-color:#6e6c6d;stop-opacity:1;"
         offset="1"
         id="stop43" />
    </linearGradient>
    <linearGradient
       inkscape:collect="always"
       xlink:href="#linearGradient8"
       id="linearGradient9"
       x1="9.3404646"
       y1="4.1692023"
       x2="9.4279938"
       y2="16.46883"
       gradientUnits="userSpaceOnUse"
       gradientTransform="matrix(1.05,0,0,1.05,-0.50277005,-0.1977751)" />
    <filter
       style="color-interpolation-filters:sRGB;"
       inkscape:label="Blur"
       id="filter2"
       x="-0.14510849"
       y="-0.14612901"
       width="1.290217"
       height="1.292258">
      <feGaussianBlur
         stdDeviation="0.6 0.6"
         result="blur"
         id="feGaussianBlur2" />
    </filter>
    <linearGradient
       inkscape:collect="always"
       xlink:href="#linearGradient5"
       id="linearGradient6"
       x1="8.4870739"
       y1="12.308416"
       x2="8.7419014"
       y2="4.5092206"
       gradientUnits="userSpaceOnUse" />
  </defs>
  <metadata
     id="metadata2">
    <rdf:RDF>
      <cc:Work
         rdf:about="">
        <dc:format>image/svg+xml</dc:format>
        <dc:type
           rdf:resource="http://purl.org/dc/dcmitype/StillImage" />
      </cc:Work>
    </rdf:RDF>
  </metadata>
  <rect
     style="fill:#000000;fill-opacity:0.996424;stroke:#000000;stroke-width:0.911802;stroke-dasharray:none;stroke-opacity:1;filter:url(#filter2)"
     id="rect1-2-3"
     width="13.065404"
     height="12.974159"
     x="1.9816793"
     y="1.9267306"
     rx="2.7149384"
     ry="2.8310909" />
  <rect
     style="fill:url(#linearGradient4);fill-opacity:0.996424;stroke:url(#linearGradient41);stroke-width:0.911802;stroke-dasharray:none;stroke-opacity:1"
     id="rect1-2"
     width="13.065404"
     height="12.974159"
     x="1.9816793"
     y="1.9267306"
     rx="2.7149384"
     ry="2.8310909" />
  <path
     style="fill:#000000;fill-opacity:1;stroke-width:0.0441242;opacity:0.3"
     d="m 5.486643,12.711949 c -0.087391,-0.09657 -0.097367,-0.364156 -0.097367,-2.611656 V 7.596226 L 5.2432747,7.5595824 C 5.0322121,7.5066092 4.6958142,7.1913175 4.552843,6.9124696 4.3769802,6.5694718 4.3851303,6.0868016 4.5729924,5.7191576 4.8275749,5.2209431 5.5170831,4.8723196 5.8353836,5.080878 6.0886585,5.2468306 5.9684716,5.6417048 5.664527,5.6422266 5.4746306,5.6425447 5.1592016,5.8558555 5.0936487,6.028273 4.9770477,6.3349569 5.0229648,6.5817709 5.2363123,6.7951185 5.4002956,6.9591018 5.48087,6.995148 5.683437,6.995148 c 0.2025677,0 0.2831418,-0.036046 0.4471256,-0.2000295 C 6.2720129,6.6536676 6.330592,6.5416786 6.330592,6.4127088 c 0,-0.2382901 0.193689,-0.4385946 0.3707109,-0.3833727 0.1756404,0.054792 0.2158777,0.1307952 0.2154184,0.4069053 C 6.9159558,6.8884406 6.5107174,7.4624224 6.1236,7.5595824 l -0.1460015,0.036644 v 2.5200706 2.520072 l -0.1307544,0.09158 C 5.6774323,12.84661 5.6056252,12.843419 5.486643,12.711939 Z m 2.5274617,0.02097 C 7.7119985,12.625243 7.3549825,12.269212 7.235568,11.956529 7.0133135,11.374563 7.2694073,10.656144 7.8042516,10.361209 L 8.0938639,10.201503 8.0947096,7.7158422 C 8.0955612,5.3092159 8.099306,5.2264395 8.213231,5.1125162 8.3548701,4.9708771 8.3848644,4.9685758 8.553134,5.0864364 l 0.130755,0.091584 v 2.7281604 c 0,2.9532202 0.00435,2.9127362 -0.3130713,2.9132792 -0.070494,1.54e-4 -0.2127701,0.0518 -0.3161705,0.114853 -0.390658,0.238198 -0.3890109,0.885789 0.00286,1.124739 0.4275726,0.260719 0.844784,0.05106 1.0066985,-0.505917 0.076152,-0.261955 0.1216194,-0.327677 0.2487688,-0.359589 0.2313207,-0.05806 0.3943092,0.162692 0.3454965,0.467943 -0.084113,0.526013 -0.4727935,0.974135 -0.9489026,1.09402 -0.321485,0.08096 -0.4133222,0.07797 -0.6954565,-0.02259 z m 2.9773253,-0.005 -0.130756,-0.09158 V 10.116297 7.596226 l -0.146001,-0.036644 c -0.0803,-0.020156 -0.240708,-0.119797 -0.35646,-0.2214288 -0.6588049,-0.5784384 -0.6088578,-1.6055332 0.101368,-2.0845218 0.461615,-0.3113215 0.886731,-0.3069069 0.966277,0.010033 0.04975,0.1982117 -0.09904,0.3546161 -0.380092,0.3995584 -0.312592,0.049985 -0.489643,0.2601509 -0.524465,0.6225558 -0.02645,0.2753069 -0.01471,0.3082131 0.179065,0.5019938 0.171444,0.1714446 0.250187,0.2073741 0.45447,0.2073741 0.202567,0 0.283142,-0.036046 0.447124,-0.2000294 0.14145,-0.1414508 0.20003,-0.2534398 0.20003,-0.3824098 0,-0.167504 0.168359,-0.4177084 0.281071,-0.4177084 0.02515,0 0.104581,0.041214 0.176497,0.091584 0.379397,0.2657402 -0.05819,1.2461211 -0.647981,1.4517206 l -0.16258,0.056676 v 2.4946141 c 0,2.416172 -0.0037,2.498315 -0.117664,2.61228 -0.141639,0.141639 -0.171635,0.143941 -0.339903,0.02607 z"
     id="path1-5" />
  <path
     style="fill:url(#linearGradient6);fill-opacity:1;stroke-width:0.0441242"
     d="M 5.486643,12.182793 C 5.3992524,12.086228 5.3892764,11.818637 5.3892764,9.5711364 V 7.0670698 L 5.2432747,7.0304262 C 5.0322121,6.977453 4.6958142,6.6621613 4.552843,6.3833134 4.3769802,6.0403156 4.3851303,5.5576454 4.5729924,5.1900014 4.8275749,4.6917869 5.5170831,4.3431634 5.8353836,4.5517218 6.0886585,4.7176744 5.9684716,5.1125486 5.664527,5.1130704 5.4746306,5.1133885 5.1592016,5.3266993 5.0936487,5.4991168 4.9770477,5.8058007 5.0229648,6.0526147 5.2363123,6.2659623 5.4002956,6.4299456 5.48087,6.4659918 5.683437,6.4659918 c 0.2025677,0 0.2831418,-0.036046 0.4471256,-0.2000295 C 6.2720129,6.1245114 6.330592,6.0125224 6.330592,5.8835526 6.330592,5.6452625 6.524281,5.444958 6.7013029,5.5001799 6.8769433,5.5549719 6.9171806,5.6309751 6.9167213,5.9070852 6.9159558,6.3592844 6.5107174,6.9332662 6.1236,7.0304262 l -0.1460015,0.036644 v 2.5200707 2.5200721 l -0.1307544,0.09158 c -0.1694118,0.118661 -0.2412189,0.11547 -0.3602011,-0.01601 z m 2.5274617,0.02097 C 7.7119985,12.096087 7.3549825,11.740056 7.235568,11.427373 7.0133135,10.845407 7.2694073,10.126988 7.8042516,9.8320529 L 8.0938639,9.6723471 8.0947096,7.186686 C 8.0955612,4.7800597 8.099306,4.6972833 8.213231,4.58336 8.3548701,4.4417209 8.3848644,4.4394196 8.553134,4.5572802 l 0.130755,0.091584 v 2.7281604 c 0,2.9532204 0.00435,2.9127364 -0.3130713,2.9132794 -0.070494,1.54e-4 -0.2127701,0.0518 -0.3161705,0.114853 -0.390658,0.238198 -0.3890109,0.885789 0.00286,1.124739 0.4275726,0.260719 0.844784,0.05106 1.0066985,-0.505917 0.076152,-0.261955 0.1216194,-0.327677 0.2487688,-0.359589 0.2313207,-0.05806 0.3943092,0.162692 0.3454965,0.467943 -0.084113,0.526013 -0.4727935,0.974135 -0.9489026,1.09402 -0.321485,0.08096 -0.4133222,0.07797 -0.6954565,-0.02259 z m 2.9773253,-0.005 -0.130756,-0.09158 V 9.5871408 7.0670698 L 10.714673,7.0304262 C 10.634373,7.0102705 10.473965,6.9106292 10.358213,6.8089974 9.6994081,6.230559 9.7493552,5.2034642 10.459581,4.7244756 c 0.461615,-0.3113215 0.886731,-0.3069069 0.966277,0.010033 0.04975,0.1982117 -0.09904,0.3546161 -0.380092,0.3995584 -0.312592,0.049985 -0.489643,0.2601509 -0.524465,0.6225558 -0.02645,0.2753069 -0.01471,0.3082131 0.179065,0.5019938 0.171444,0.1714446 0.250187,0.2073741 0.45447,0.2073741 0.202567,0 0.283142,-0.036046 0.447124,-0.2000294 0.14145,-0.1414508 0.20003,-0.2534398 0.20003,-0.3824098 0,-0.167504 0.168359,-0.4177084 0.281071,-0.4177084 0.02515,0 0.104581,0.041214 0.176497,0.091584 0.379397,0.2657402 -0.05819,1.2461211 -0.647981,1.4517206 l -0.16258,0.056676 v 2.494614 c 0,2.4161723 -0.0037,2.4983153 -0.117664,2.6122803 -0.141639,0.141639 -0.171635,0.143941 -0.339903,0.02607 z"
     id="path1" />
  <rect
     style="opacity:0.5;fill:none;fill-opacity:0.996424;stroke:url(#linearGradient9);stroke-width:0.566102;stroke-dasharray:none;stroke-opacity:1"
     id="rect1-2-6"
     width="11.574203"
     height="11.508601"
     x="2.729686"
     y="2.6615164"
     rx="2.0246315"
     ry="2.0627522" />
</svg>
