<?xml version="1.0" encoding="UTF-8" standalone="no"?>
<svg
   width="64"
   height="64"
   version="1.1"
   viewBox="0 0 16.933 16.933"
   id="svg7"
   sodipodi:docname="Template 4.svg"
   inkscape:version="1.3.2 (091e20ef0f, 2023-11-25)"
   xmlns:inkscape="http://www.inkscape.org/namespaces/inkscape"
   xmlns:sodipodi="http://sodipodi.sourceforge.net/DTD/sodipodi-0.dtd"
   xmlns:xlink="http://www.w3.org/1999/xlink"
   xmlns="http://www.w3.org/2000/svg"
   xmlns:svg="http://www.w3.org/2000/svg"
   xmlns:rdf="http://www.w3.org/1999/02/22-rdf-syntax-ns#"
   xmlns:cc="http://creativecommons.org/ns#"
   xmlns:dc="http://purl.org/dc/elements/1.1/">
  <sodipodi:namedview
     id="namedview7"
     pagecolor="#9c4444"
     bordercolor="#000000"
     borderopacity="0.25"
     inkscape:showpageshadow="2"
     inkscape:pageopacity="0.0"
     inkscape:pagecheckerboard="0"
     inkscape:deskcolor="#d1d1d1"
     inkscape:zoom="4.3531261"
     inkscape:cx="32.849956"
     inkscape:cy="24.350317"
     inkscape:window-width="1356"
     inkscape:window-height="786"
     inkscape:window-x="35"
     inkscape:window-y="32"
     inkscape:window-maximized="0"
     inkscape:current-layer="svg7"
     showgrid="false" />
  <defs
     id="defs2">
    <linearGradient
       id="linearGradient5"
       inkscape:collect="always">
      <stop
         style="stop-color:#392713;stop-opacity:1;"
         offset="0"
         id="stop2" />
      <stop
         style="stop-color:#eed59e;stop-opacity:1;"
         offset="0.5"
         id="stop3" />
      <stop
         style="stop-color:#beaa8a;stop-opacity:1;"
         offset="1"
         id="stop4" />
    </linearGradient>
    <linearGradient
       id="linearGradient8"
       inkscape:collect="always">
      <stop
         style="stop-color:#1a1a1a;stop-opacity:1;"
         offset="0"
         id="stop8" />
      <stop
         style="stop-color:#ffffff;stop-opacity:0;"
         offset="1"
         id="stop9" />
    </linearGradient>
    <linearGradient
       inkscape:collect="always"
       xlink:href="#linearGradient5"
       id="linearGradient41"
       x1="13.675659"
       y1="16.110115"
       x2="13.728528"
       y2="10.548769"
       gradientUnits="userSpaceOnUse"
       gradientTransform="matrix(2.046153,0,0,2.046153,-18.798306,-18.911347)" />
    <linearGradient
       inkscape:collect="always"
       xlink:href="#linearGradient42"
       id="linearGradient4"
       x1="11.885941"
       y1="16.50819"
       x2="12.026573"
       y2="10.244942"
       gradientUnits="userSpaceOnUse"
       gradientTransform="matrix(2.046153,0,0,2.046153,-18.798306,-18.911347)" />
    <linearGradient
       id="linearGradient42"
       inkscape:collect="always">
      <stop
         style="stop-color:#010101;stop-opacity:1;"
         offset="0"
         id="stop42" />
      <stop
         style="stop-color:#6e6c6d;stop-opacity:1;"
         offset="1"
         id="stop43" />
    </linearGradient>
    <linearGradient
       inkscape:collect="always"
       xlink:href="#linearGradient8"
       id="linearGradient9"
       x1="9.3404646"
       y1="4.1692023"
       x2="9.4279938"
       y2="16.46883"
       gradientUnits="userSpaceOnUse"
       gradientTransform="matrix(1.05,0,0,1.05,-0.50277005,-0.1977751)" />
    <filter
       style="color-interpolation-filters:sRGB;"
       inkscape:label="Blur"
       id="filter2"
       x="-0.14510849"
       y="-0.14612901"
       width="1.290217"
       height="1.292258">
      <feGaussianBlur
         stdDeviation="0.6 0.6"
         result="blur"
         id="feGaussianBlur2" />
    </filter>
    <linearGradient
       inkscape:collect="always"
       xlink:href="#linearGradient5"
       id="linearGradient12"
       x1="34.134277"
       y1="40.837097"
       x2="34.972782"
       y2="28.16403"
       gradientUnits="userSpaceOnUse"
       gradientTransform="matrix(0.32013953,0,0,0.32013953,-1.7643458,-2.9376698)" />
  </defs>
  <metadata
     id="metadata2">
    <rdf:RDF>
      <cc:Work
         rdf:about="">
        <dc:format>image/svg+xml</dc:format>
        <dc:type
           rdf:resource="http://purl.org/dc/dcmitype/StillImage" />
      </cc:Work>
    </rdf:RDF>
  </metadata>
  <rect
     style="fill:#000000;fill-opacity:0.996424;stroke:#000000;stroke-width:0.911802;stroke-dasharray:none;stroke-opacity:1;filter:url(#filter2)"
     id="rect1-2-3"
     width="13.065404"
     height="12.974159"
     x="1.9816793"
     y="1.9267306"
     rx="2.7149384"
     ry="2.8310909" />
  <rect
     style="fill:url(#linearGradient4);fill-opacity:0.996424;stroke:url(#linearGradient41);stroke-width:0.911802;stroke-dasharray:none;stroke-opacity:1"
     id="rect1-2"
     width="13.065404"
     height="12.974159"
     x="1.9816793"
     y="1.9267306"
     rx="2.7149384"
     ry="2.8310909" />
  <path
     style="opacity:0.3;fill:#000000;stroke-width:0.00809454"
     d="m 3.529219,10.712158 c 0,-0.0033 0.1817269,-0.223017 0.4038381,-0.48837 C 4.1551683,9.9584355 4.4550706,9.6000028 4.5995079,9.4272695 4.7439437,9.2545376 5.0304125,8.9121383 5.2361038,8.6663836 5.4417953,8.4206282 5.6384926,8.1846998 5.6732088,8.142098 5.7079248,8.099497 5.7387568,8.064303 5.7417258,8.06389 5.7537568,8.06223 6.1637626,9.1857631 6.1558622,9.1987641 6.1512722,9.2063541 5.8641191,9.5512415 5.5177354,9.9652774 L 4.887946,10.718069 H 4.208582 c -0.3736493,0 -0.679363,-0.0026 -0.679363,-0.0059 z M 5.2048661,10.456346 C 5.4770196,10.132177 8.3587384,6.6881959 8.3716323,6.6717008 8.3796513,6.6614378 8.3931164,6.693835 8.5043846,6.9910841 9.265793,9.0251898 9.2618357,9.0142965 9.2472857,9.0346124 9.2395197,9.0455024 9.0890634,9.2259001 8.9129396,9.4356019 8.3719697,10.079697 8.0544713,10.458708 7.9453191,10.590687 l -0.1044109,0.126245 -1.427885,5.45e-4 -1.4278849,5.76e-4 z m 2.7403717,0.252441 c 0.00594,-0.01534 2.5808422,-3.0882404 2.5876022,-3.088064 0.0034,9.99e-5 0.02659,0.054727 0.05145,0.1214183 0.07162,0.1921033 1.09044,2.9132887 1.103088,2.9462487 l 0.0114,0.02968 H 9.8202119 c -1.0443656,0 -1.8769682,-0.0041 -1.8749677,-0.0092 z m 3.8475172,0.0012 c -0.0046,-0.0076 -0.186117,-0.492084 -0.863892,-2.306614 -0.157356,-0.4212745 -0.284734,-0.7673258 -0.283055,-0.769003 0.0016,-0.00166 0.07099,0.078311 0.154044,0.1777514 0.179283,0.214675 0.792473,0.9477039 1.266917,1.514521 0.965299,1.1532396 1.154307,1.3801076 1.154307,1.3855286 0,0.0091 -1.42271,0.0069 -1.428321,-0.0022 z M 6.0409298,8.5894896 C 5.9364051,8.3091693 5.8520448,8.0786563 5.8534627,8.0772384 c 0.00141,-0.00141 0.1421116,0.1650505 0.3126528,0.369929 L 6.4761902,8.8196741 6.3601943,8.9594178 c -0.063798,0.07686 -0.1189715,0.1397436 -0.1226076,0.1397436 -0.00364,0 -0.092133,-0.2293515 -0.1966569,-0.5096718 z M 8.9117422,7.8179286 C 8.6828598,7.2077843 8.4922577,6.6988623 8.4881833,6.6869903 c -0.00515,-0.014998 8.323e-4,-0.011711 0.019542,0.010791 0.014822,0.017806 0.3176706,0.3798366 0.6729967,0.8045075 0.3553274,0.4246711 0.6525113,0.7801804 0.6604075,0.7900204 0.012639,0.015744 -0.016331,0.05457 -0.2412811,0.3233307 C 9.4592466,8.7836333 9.3405394,8.922476 9.3360533,8.924181 9.3315617,8.9258777 9.140627,8.4280716 8.9117429,7.8179274 Z"
     id="path1-6" />
  <path
     style="fill:url(#linearGradient12);stroke-width:0.00809454"
     d="m 3.529219,10.130086 c 0,-0.0033 0.1817269,-0.2230172 0.4038381,-0.4883702 C 4.1551683,9.3763636 4.4550706,9.0179297 4.5995079,8.8451978 4.7439437,8.6724652 5.0304125,8.3300664 5.2361038,8.0843116 5.4417953,7.8385562 5.6384926,7.6026278 5.6732088,7.5600261 c 0.034716,-0.042601 0.065548,-0.077795 0.068517,-0.078208 0.012031,-0.00166 0.4220368,1.1218736 0.4141364,1.134874 -0.00459,0.00755 -0.2917431,0.3524778 -0.6381268,0.7665134 L 4.887946,10.135998 H 4.208582 c -0.3736493,0 -0.679363,-0.0026 -0.679363,-0.0059 z M 5.2048661,9.8742745 C 5.4770196,9.5501053 8.3587384,6.106124 8.3716323,6.0896288 8.3796513,6.0793658 8.3931164,6.111763 8.5043846,6.4090122 9.265793,8.4431182 9.2618357,8.4322246 9.2472857,8.4525407 9.2395197,8.4633867 9.0890634,8.6438281 8.9129396,8.8535299 8.3719697,9.4976255 8.0544713,9.8766362 7.9453191,10.008614 l -0.1044109,0.126246 -1.427885,5.44e-4 -1.4278849,5.76e-4 z m 2.7403717,0.2524395 c 0.00594,-0.01534 2.5808422,-3.0882394 2.5876022,-3.0880629 0.0034,9.99e-5 0.02659,0.054727 0.05145,0.1214183 0.07162,0.1921032 1.09044,2.9132886 1.103088,2.9462496 l 0.0114,0.02968 H 9.8202119 c -1.0443656,0 -1.8769682,-0.0041 -1.8749677,-0.0092 z m 3.8475172,0.0012 C 11.788155,10.120314 11.606638,9.6358296 10.928863,7.8213 10.771507,7.4000255 10.644129,7.0539742 10.645808,7.0522969 c 0.0016,-0.00166 0.07099,0.078311 0.154044,0.1777514 0.179283,0.2146751 0.792473,0.9477039 1.266917,1.5145211 0.965299,1.1532396 1.154307,1.3801076 1.154307,1.3855276 0,0.0091 -1.42271,0.0069 -1.428321,-0.0022 z M 6.0409298,8.0074177 C 5.9364051,7.7270974 5.8520448,7.4965844 5.8534627,7.4951665 5.8548707,7.4937585 5.9955743,7.660217 6.1661155,7.8650954 L 6.4761902,8.2376021 6.3601943,8.3773459 C 6.2963966,8.4542057 6.2412228,8.51709 6.2375867,8.51709 c -0.00364,0 -0.092133,-0.2293521 -0.1966569,-0.5096723 z M 8.9117422,7.2358567 C 8.6828598,6.6257124 8.4922577,6.1167904 8.4881833,6.1049183 c -0.00515,-0.014998 8.323e-4,-0.011711 0.019542,0.010791 0.014822,0.017806 0.3176706,0.3798366 0.6729967,0.8045074 0.3553274,0.4246712 0.6525113,0.7801804 0.6604075,0.7900205 0.012639,0.015744 -0.016331,0.05457 -0.2412811,0.3233307 C 9.4592466,8.2015614 9.3405394,8.3404041 9.3360533,8.3421091 9.3315617,8.3438058 9.140627,7.8459997 8.9117429,7.2358555 Z"
     id="path1" />
  <rect
     style="opacity:0.5;fill:none;fill-opacity:0.996424;stroke:url(#linearGradient9);stroke-width:0.566102;stroke-dasharray:none;stroke-opacity:1"
     id="rect1-2-6"
     width="11.574203"
     height="11.508601"
     x="2.729686"
     y="2.6615164"
     rx="2.0246315"
     ry="2.0627522" />
</svg>
