<?xml version="1.0" encoding="UTF-8" standalone="no"?>
<svg
   width="64"
   height="64"
   version="1.1"
   viewBox="0 0 16.933 16.933"
   id="svg7"
   sodipodi:docname="Template 4.svg"
   inkscape:version="1.3.2 (091e20ef0f, 2023-11-25)"
   xmlns:inkscape="http://www.inkscape.org/namespaces/inkscape"
   xmlns:sodipodi="http://sodipodi.sourceforge.net/DTD/sodipodi-0.dtd"
   xmlns:xlink="http://www.w3.org/1999/xlink"
   xmlns="http://www.w3.org/2000/svg"
   xmlns:svg="http://www.w3.org/2000/svg"
   xmlns:rdf="http://www.w3.org/1999/02/22-rdf-syntax-ns#"
   xmlns:cc="http://creativecommons.org/ns#"
   xmlns:dc="http://purl.org/dc/elements/1.1/">
  <sodipodi:namedview
     id="namedview7"
     pagecolor="#9c4444"
     bordercolor="#000000"
     borderopacity="0.25"
     inkscape:showpageshadow="2"
     inkscape:pageopacity="0.0"
     inkscape:pagecheckerboard="0"
     inkscape:deskcolor="#d1d1d1"
     inkscape:zoom="4.3531261"
     inkscape:cx="32.849956"
     inkscape:cy="24.350317"
     inkscape:window-width="1356"
     inkscape:window-height="786"
     inkscape:window-x="35"
     inkscape:window-y="32"
     inkscape:window-maximized="0"
     inkscape:current-layer="svg7"
     showgrid="false" />
  <defs
     id="defs2">
    <linearGradient
       id="linearGradient5"
       inkscape:collect="always">
      <stop
         style="stop-color:#392713;stop-opacity:1;"
         offset="0"
         id="stop2" />
      <stop
         style="stop-color:#eed59e;stop-opacity:1;"
         offset="0.5"
         id="stop3" />
      <stop
         style="stop-color:#beaa8a;stop-opacity:1;"
         offset="1"
         id="stop4" />
    </linearGradient>
    <linearGradient
       id="linearGradient8"
       inkscape:collect="always">
      <stop
         style="stop-color:#1a1a1a;stop-opacity:1;"
         offset="0"
         id="stop8" />
      <stop
         style="stop-color:#ffffff;stop-opacity:0;"
         offset="1"
         id="stop9" />
    </linearGradient>
    <linearGradient
       inkscape:collect="always"
       xlink:href="#linearGradient5"
       id="linearGradient41"
       x1="13.675659"
       y1="16.110115"
       x2="13.728528"
       y2="10.548769"
       gradientUnits="userSpaceOnUse"
       gradientTransform="matrix(2.046153,0,0,2.046153,-18.798306,-18.911347)" />
    <linearGradient
       inkscape:collect="always"
       xlink:href="#linearGradient42"
       id="linearGradient4"
       x1="11.885941"
       y1="16.50819"
       x2="12.026573"
       y2="10.244942"
       gradientUnits="userSpaceOnUse"
       gradientTransform="matrix(2.046153,0,0,2.046153,-18.798306,-18.911347)" />
    <linearGradient
       id="linearGradient42"
       inkscape:collect="always">
      <stop
         style="stop-color:#010101;stop-opacity:1;"
         offset="0"
         id="stop42" />
      <stop
         style="stop-color:#6e6c6d;stop-opacity:1;"
         offset="1"
         id="stop43" />
    </linearGradient>
    <linearGradient
       inkscape:collect="always"
       xlink:href="#linearGradient8"
       id="linearGradient9"
       x1="9.3404646"
       y1="4.1692023"
       x2="9.4279938"
       y2="16.46883"
       gradientUnits="userSpaceOnUse"
       gradientTransform="matrix(1.05,0,0,1.05,-0.50277005,-0.1977751)" />
    <filter
       style="color-interpolation-filters:sRGB;"
       inkscape:label="Blur"
       id="filter2"
       x="-0.14510849"
       y="-0.14612901"
       width="1.290217"
       height="1.292258">
      <feGaussianBlur
         stdDeviation="0.6 0.6"
         result="blur"
         id="feGaussianBlur2" />
    </filter>
    <linearGradient
       inkscape:collect="always"
       xlink:href="#linearGradient5"
       id="linearGradient28"
       x1="35.089836"
       y1="51.219376"
       x2="34.350857"
       y2="13.709144"
       gradientUnits="userSpaceOnUse"
       gradientTransform="matrix(0.2121652,0,0,0.2121652,1.7143912,1.421746)" />
  </defs>
  <metadata
     id="metadata2">
    <rdf:RDF>
      <cc:Work
         rdf:about="">
        <dc:format>image/svg+xml</dc:format>
        <dc:type
           rdf:resource="http://purl.org/dc/dcmitype/StillImage" />
      </cc:Work>
    </rdf:RDF>
  </metadata>
  <rect
     style="fill:#000000;fill-opacity:0.996424;stroke:#000000;stroke-width:0.911802;stroke-dasharray:none;stroke-opacity:1;filter:url(#filter2)"
     id="rect1-2-3"
     width="13.065404"
     height="12.974159"
     x="1.9816793"
     y="1.9267306"
     rx="2.7149384"
     ry="2.8310909" />
  <rect
     style="fill:url(#linearGradient4);fill-opacity:0.996424;stroke:url(#linearGradient41);stroke-width:0.911802;stroke-dasharray:none;stroke-opacity:1"
     id="rect1-2"
     width="13.065404"
     height="12.974159"
     x="1.9816793"
     y="1.9267306"
     rx="2.7149384"
     ry="2.8310909" />
  <path
     style="color:#000000;clip-rule:nonzero;display:inline;overflow:visible;visibility:visible;isolation:auto;mix-blend-mode:normal;color-interpolation:sRGB;color-interpolation-filters:linearRGB;solid-color:#000000;solid-opacity:1;fill:#000000;fill-opacity:1;fill-rule:nonzero;stroke:none;stroke-width:0.254153;stroke-linecap:butt;stroke-linejoin:miter;stroke-miterlimit:4;stroke-dasharray:none;stroke-dashoffset:0;stroke-opacity:0.3;marker:none;color-rendering:auto;image-rendering:auto;shape-rendering:auto;text-rendering:auto;enable-background:accumulate;opacity:0.3"
     d="m 7.9730551,4.8863417 c -0.098682,0 -0.180917,0.3926218 -0.2291879,0.9537332 A 3.0158471,3.1066647 0 0 0 7.0150732,6.1555953 C 6.5940754,5.7921304 6.265215,5.5727297 6.1952474,5.6448048 L 5.4193304,6.4440876 C 5.3493626,6.5161614 5.56235,6.8549258 5.9151887,7.2886009 a 3.0158471,3.1066647 0 0 0 -0.30362,0.750741 C 5.0653352,8.0890188 4.6830396,8.1736068 4.6830396,8.275431 v 1.1296952 c 0,0.1016534 0.381144,0.1863654 0.9258525,0.2360898 a 3.0158471,3.1066647 0 0 0 0.3052258,0.752393 c -0.3520373,0.432898 -0.5646714,0.77087 -0.4947875,0.842859 l 0.775917,0.799282 c 0.069817,0.07192 0.3974967,-0.146592 0.8171489,-0.508583 a 3.0158471,3.1066647 0 0 0 0.7314709,0.310555 c 0.048225,0.562684 0.130341,0.956492 0.2291879,0.956492 h 1.0966708 c 0.098682,0 0.1809174,-0.392622 0.2291879,-0.953733 a 3.0158471,3.1066647 0 0 0 0.7287942,-0.31552 c 0.420998,0.363464 0.749858,0.582864 0.819827,0.510789 l 0.775917,-0.799282 c 0.06997,-0.07206 -0.143021,-0.410838 -0.495859,-0.844513 a 3.0158471,3.1066647 0 0 0 0.303619,-0.7507389 c 0.546234,-0.049677 0.92853,-0.1342654 0.92853,-0.2360898 V 8.275431 c 0,-0.1016535 -0.381146,-0.1863654 -0.925852,-0.2360892 A 3.0158471,3.1066647 0 0 0 11.128663,7.2869467 C 11.4807,6.8540476 11.693335,6.5160756 11.623452,6.4440876 L 10.847535,5.6448048 c -0.06982,-0.07192 -0.397498,0.1465939 -0.817151,0.5085842 A 3.0158471,3.1066647 0 0 0 9.2989138,5.8428327 C 9.250689,5.2801498 9.1685735,4.8863425 9.0697259,4.8863425 Z M 8.5213906,7.4281582 A 1.3708396,1.4121203 0 0 1 9.8922305,8.8402789 1.3708396,1.4121203 0 0 1 8.5213906,10.252398 1.3708396,1.4121203 0 0 1 7.1505507,8.8402789 1.3708396,1.4121203 0 0 1 8.5213906,7.4281582 Z"
     id="path4690-6"
     inkscape:connector-curvature="0" />
  <path
     style="color:#000000;clip-rule:nonzero;display:inline;overflow:visible;visibility:visible;isolation:auto;mix-blend-mode:normal;color-interpolation:sRGB;color-interpolation-filters:linearRGB;solid-color:#000000;solid-opacity:1;fill:url(#linearGradient28);fill-opacity:1;fill-rule:nonzero;stroke:none;stroke-width:0.254153;stroke-linecap:butt;stroke-linejoin:miter;stroke-miterlimit:4;stroke-dasharray:none;stroke-dashoffset:0;stroke-opacity:0.3;marker:none;color-rendering:auto;image-rendering:auto;shape-rendering:auto;text-rendering:auto;enable-background:accumulate"
     d="m 7.9730551,4.3571855 c -0.098682,0 -0.180917,0.3926218 -0.2291879,0.9537332 A 3.0158471,3.1066647 0 0 0 7.0150732,5.6264391 C 6.5940754,5.2629742 6.265215,5.0435735 6.1952474,5.1156486 L 5.4193304,5.9149314 C 5.3493626,5.9870052 5.56235,6.3257696 5.9151887,6.7594447 a 3.0158471,3.1066647 0 0 0 -0.30362,0.7507409 C 5.0653352,7.5598626 4.6830396,7.6444506 4.6830396,7.7462748 V 8.87597 c 0,0.1016534 0.381144,0.1863654 0.9258525,0.2360898 A 3.0158471,3.1066647 0 0 0 5.9141179,9.8644527 C 5.5620806,10.297351 5.3494465,10.635323 5.4193304,10.707312 l 0.775917,0.799282 c 0.069817,0.07192 0.3974967,-0.146592 0.8171489,-0.508583 a 3.0158471,3.1066647 0 0 0 0.7314709,0.310555 c 0.048225,0.562684 0.130341,0.956492 0.2291879,0.956492 h 1.0966708 c 0.098682,0 0.1809174,-0.392622 0.2291879,-0.953733 a 3.0158471,3.1066647 0 0 0 0.7287942,-0.31552 c 0.420998,0.363464 0.749858,0.582864 0.819827,0.510789 l 0.775917,-0.799282 c 0.06997,-0.07206 -0.143021,-0.410838 -0.495859,-0.8445135 a 3.0158471,3.1066647 0 0 0 0.303619,-0.7507387 c 0.546234,-0.049677 0.92853,-0.1342654 0.92853,-0.2360898 V 7.7462748 c 0,-0.1016535 -0.381146,-0.1863654 -0.925852,-0.2360892 A 3.0158471,3.1066647 0 0 0 11.128663,6.7577905 C 11.4807,6.3248914 11.693335,5.9869194 11.623452,5.9149314 L 10.847535,5.1156486 c -0.06982,-0.07192 -0.397498,0.1465939 -0.817151,0.5085842 A 3.0158471,3.1066647 0 0 0 9.2989138,5.3136765 C 9.250689,4.7509936 9.1685735,4.3571863 9.0697259,4.3571863 Z M 8.5213906,6.899002 A 1.3708396,1.4121203 0 0 1 9.8922305,8.3111227 1.3708396,1.4121203 0 0 1 8.5213906,9.7232419 1.3708396,1.4121203 0 0 1 7.1505507,8.3111227 1.3708396,1.4121203 0 0 1 8.5213906,6.899002 Z"
     id="path4690"
     inkscape:connector-curvature="0" />
  <rect
     style="opacity:0.5;fill:none;fill-opacity:0.996424;stroke:url(#linearGradient9);stroke-width:0.566102;stroke-dasharray:none;stroke-opacity:1"
     id="rect1-2-6"
     width="11.574203"
     height="11.508601"
     x="2.729686"
     y="2.6615164"
     rx="2.0246315"
     ry="2.0627522" />
</svg>
