<?xml version="1.0" encoding="UTF-8" standalone="no"?>
<svg
   width="64"
   height="64"
   version="1.1"
   viewBox="0 0 16.933 16.933"
   id="svg7"
   sodipodi:docname="Template 4.svg"
   inkscape:version="1.3.2 (091e20ef0f, 2023-11-25)"
   xmlns:inkscape="http://www.inkscape.org/namespaces/inkscape"
   xmlns:sodipodi="http://sodipodi.sourceforge.net/DTD/sodipodi-0.dtd"
   xmlns:xlink="http://www.w3.org/1999/xlink"
   xmlns="http://www.w3.org/2000/svg"
   xmlns:svg="http://www.w3.org/2000/svg"
   xmlns:rdf="http://www.w3.org/1999/02/22-rdf-syntax-ns#"
   xmlns:cc="http://creativecommons.org/ns#"
   xmlns:dc="http://purl.org/dc/elements/1.1/">
  <sodipodi:namedview
     id="namedview7"
     pagecolor="#9c4444"
     bordercolor="#000000"
     borderopacity="0.25"
     inkscape:showpageshadow="2"
     inkscape:pageopacity="0.0"
     inkscape:pagecheckerboard="0"
     inkscape:deskcolor="#d1d1d1"
     inkscape:zoom="4.3531261"
     inkscape:cx="32.964816"
     inkscape:cy="24.350317"
     inkscape:window-width="1463"
     inkscape:window-height="604"
     inkscape:window-x="199"
     inkscape:window-y="276"
     inkscape:window-maximized="0"
     inkscape:current-layer="svg7"
     showgrid="false" />
  <defs
     id="defs2">
    <linearGradient
       id="linearGradient5"
       inkscape:collect="always">
      <stop
         style="stop-color:#392713;stop-opacity:1;"
         offset="0"
         id="stop2" />
      <stop
         style="stop-color:#eed59e;stop-opacity:1;"
         offset="0.5"
         id="stop3" />
      <stop
         style="stop-color:#beaa8a;stop-opacity:1;"
         offset="1"
         id="stop4" />
    </linearGradient>
    <linearGradient
       id="linearGradient8"
       inkscape:collect="always">
      <stop
         style="stop-color:#1a1a1a;stop-opacity:1;"
         offset="0"
         id="stop8" />
      <stop
         style="stop-color:#ffffff;stop-opacity:0;"
         offset="1"
         id="stop9" />
    </linearGradient>
    <linearGradient
       inkscape:collect="always"
       xlink:href="#linearGradient5"
       id="linearGradient41"
       x1="13.675659"
       y1="16.110115"
       x2="13.728528"
       y2="10.548769"
       gradientUnits="userSpaceOnUse"
       gradientTransform="matrix(2.046153,0,0,2.046153,-18.798306,-18.911347)" />
    <linearGradient
       inkscape:collect="always"
       xlink:href="#linearGradient42"
       id="linearGradient4"
       x1="11.885941"
       y1="16.50819"
       x2="12.026573"
       y2="10.244942"
       gradientUnits="userSpaceOnUse"
       gradientTransform="matrix(2.046153,0,0,2.046153,-18.798306,-18.911347)" />
    <linearGradient
       id="linearGradient42"
       inkscape:collect="always">
      <stop
         style="stop-color:#010101;stop-opacity:1;"
         offset="0"
         id="stop42" />
      <stop
         style="stop-color:#6e6c6d;stop-opacity:1;"
         offset="1"
         id="stop43" />
    </linearGradient>
    <linearGradient
       inkscape:collect="always"
       xlink:href="#linearGradient8"
       id="linearGradient9"
       x1="9.3404646"
       y1="4.1692023"
       x2="9.4279938"
       y2="16.46883"
       gradientUnits="userSpaceOnUse"
       gradientTransform="matrix(1.05,0,0,1.05,-0.50277005,-0.1977751)" />
    <filter
       style="color-interpolation-filters:sRGB;"
       inkscape:label="Blur"
       id="filter2"
       x="-0.14510849"
       y="-0.14612901"
       width="1.290217"
       height="1.292258">
      <feGaussianBlur
         stdDeviation="0.6 0.6"
         result="blur"
         id="feGaussianBlur2" />
    </filter>
    <linearGradient
       inkscape:collect="always"
       xlink:href="#linearGradient5"
       id="linearGradient42-8"
       x1="34.824749"
       y1="47.265835"
       x2="34.740101"
       y2="17.675184"
       gradientUnits="userSpaceOnUse"
       gradientTransform="matrix(0.23573911,0,0,0.23573911,0.92846448,0.71146653)" />
  </defs>
  <metadata
     id="metadata2">
    <rdf:RDF>
      <cc:Work
         rdf:about="">
        <dc:format>image/svg+xml</dc:format>
        <dc:type
           rdf:resource="http://purl.org/dc/dcmitype/StillImage" />
      </cc:Work>
    </rdf:RDF>
  </metadata>
  <rect
     style="fill:#000000;fill-opacity:0.996424;stroke:#000000;stroke-width:0.911802;stroke-dasharray:none;stroke-opacity:1;filter:url(#filter2)"
     id="rect1-2-3"
     width="13.065404"
     height="12.974159"
     x="1.9816793"
     y="1.9267306"
     rx="2.7149384"
     ry="2.8310909" />
  <rect
     style="fill:url(#linearGradient4);fill-opacity:0.996424;stroke:url(#linearGradient41);stroke-width:0.911802;stroke-dasharray:none;stroke-opacity:1"
     id="rect1-2"
     width="13.065404"
     height="12.974159"
     x="1.9816793"
     y="1.9267306"
     rx="2.7149384"
     ry="2.8310909" />
  <path
     style="fill:#000000;fill-opacity:1;stroke:none;stroke-width:0.25672;stroke-dasharray:none;stroke-dashoffset:2.2;stroke-opacity:0.3;opacity:0.3"
     d="m 4.6162641,12.494432 c -0.040334,-0.0076 -0.1101951,-0.04017 -0.1552507,-0.07223 -0.17939,-0.127737 -0.169491,0.07688 -0.169491,-3.5033528 0,-3.1631774 0.00191,-3.2794362 0.056168,-3.3850798 0.030892,-0.060173 0.1005547,-0.1359416 0.1548059,-0.1683771 0.097307,-0.058177 0.1511761,-0.058974 3.9909019,-0.058974 h 3.8922628 l 0.09627,0.068669 c 0.196113,0.1398789 0.183848,-0.094994 0.183848,3.5203485 0,3.1455152 -0.0023,3.2866192 -0.05494,3.3850792 -0.03021,0.0565 -0.09988,0.129283 -0.154805,0.161719 -0.0984,0.05811 -0.156112,0.05902 -3.9331581,0.06255 -2.1083093,0.002 -3.8662886,-0.0028 -3.9066208,-0.01034 z m 7.1777869,-0.747754 c 0.160605,-0.04046 0.324727,-0.174314 0.403857,-0.329418 0.04887,-0.09578 0.0589,-0.160202 0.04986,-0.320231 -0.01381,-0.244097 -0.116446,-0.412014 -0.316413,-0.517584 l -0.129957,-0.06861 H 8.5172996 c -2.8974971,0 -3.2969502,0.0054 -3.3933183,0.04564 C 4.727279,10.72223 4.623242,11.224001 4.9165,11.55716 c 0.2025846,0.23015 -0.00725,0.217248 3.5712121,0.21956 2.2000159,0.0013 3.2181379,-0.0078 3.3063389,-0.03004 z"
     id="path90-2" />
  <path
     style="fill:url(#linearGradient42-8);fill-opacity:1;stroke:none;stroke-width:0.25672;stroke-dasharray:none;stroke-dashoffset:2.2;stroke-opacity:0.3"
     d="m 4.6162641,11.965276 c -0.040334,-0.0076 -0.1101951,-0.04017 -0.1552507,-0.07223 -0.17939,-0.127737 -0.169491,0.07688 -0.169491,-3.503353 0,-3.1631774 0.00191,-3.2794362 0.056168,-3.3850798 0.030892,-0.060173 0.1005547,-0.1359416 0.1548059,-0.1683771 0.097307,-0.058177 0.1511761,-0.058974 3.9909019,-0.058974 h 3.8922628 l 0.09627,0.068669 c 0.196113,0.1398789 0.183848,-0.094994 0.183848,3.5203485 0,3.1455154 -0.0023,3.2866194 -0.05494,3.3850794 -0.03021,0.0565 -0.09988,0.129283 -0.154805,0.161719 -0.0984,0.05811 -0.156112,0.05902 -3.9331581,0.06255 -2.1083093,0.002 -3.8662886,-0.0028 -3.9066208,-0.01034 z m 7.1777869,-0.747754 c 0.160605,-0.04046 0.324727,-0.174314 0.403857,-0.329418 0.04887,-0.09578 0.0589,-0.160202 0.04986,-0.320231 -0.01381,-0.244097 -0.116446,-0.412014 -0.316413,-0.517584 L 11.801398,9.9816819 H 8.5172996 c -2.8974971,0 -3.2969502,0.0054 -3.3933183,0.045639 C 4.727279,10.193074 4.623242,10.694845 4.9165,11.028004 c 0.2025846,0.23015 -0.00725,0.217248 3.5712121,0.21956 2.2000159,0.0013 3.2181379,-0.0078 3.3063389,-0.03004 z"
     id="path90" />
  <rect
     style="opacity:0.5;fill:none;fill-opacity:0.996424;stroke:url(#linearGradient9);stroke-width:0.566102;stroke-dasharray:none;stroke-opacity:1"
     id="rect1-2-6"
     width="11.574203"
     height="11.508601"
     x="2.729686"
     y="2.6615164"
     rx="2.0246315"
     ry="2.0627522" />
</svg>
