<?xml version="1.0" encoding="UTF-8" standalone="no"?>
<svg
   width="64"
   height="64"
   version="1.1"
   viewBox="0 0 16.933 16.933"
   id="svg7"
   sodipodi:docname="Template 4.svg"
   inkscape:version="1.3.2 (091e20ef0f, 2023-11-25)"
   xmlns:inkscape="http://www.inkscape.org/namespaces/inkscape"
   xmlns:sodipodi="http://sodipodi.sourceforge.net/DTD/sodipodi-0.dtd"
   xmlns:xlink="http://www.w3.org/1999/xlink"
   xmlns="http://www.w3.org/2000/svg"
   xmlns:svg="http://www.w3.org/2000/svg"
   xmlns:rdf="http://www.w3.org/1999/02/22-rdf-syntax-ns#"
   xmlns:cc="http://creativecommons.org/ns#"
   xmlns:dc="http://purl.org/dc/elements/1.1/">
  <sodipodi:namedview
     id="namedview7"
     pagecolor="#9c4444"
     bordercolor="#000000"
     borderopacity="0.25"
     inkscape:showpageshadow="2"
     inkscape:pageopacity="0.0"
     inkscape:pagecheckerboard="0"
     inkscape:deskcolor="#d1d1d1"
     inkscape:zoom="4.3531261"
     inkscape:cx="32.964816"
     inkscape:cy="24.350317"
     inkscape:window-width="1463"
     inkscape:window-height="604"
     inkscape:window-x="199"
     inkscape:window-y="276"
     inkscape:window-maximized="0"
     inkscape:current-layer="svg7"
     showgrid="false" />
  <defs
     id="defs2">
    <linearGradient
       id="linearGradient5"
       inkscape:collect="always">
      <stop
         style="stop-color:#392713;stop-opacity:1;"
         offset="0"
         id="stop2" />
      <stop
         style="stop-color:#eed59e;stop-opacity:1;"
         offset="0.5"
         id="stop3" />
      <stop
         style="stop-color:#beaa8a;stop-opacity:1;"
         offset="1"
         id="stop4" />
    </linearGradient>
    <linearGradient
       id="linearGradient8"
       inkscape:collect="always">
      <stop
         style="stop-color:#1a1a1a;stop-opacity:1;"
         offset="0"
         id="stop8" />
      <stop
         style="stop-color:#ffffff;stop-opacity:0;"
         offset="1"
         id="stop9" />
    </linearGradient>
    <linearGradient
       inkscape:collect="always"
       xlink:href="#linearGradient5"
       id="linearGradient41"
       x1="13.675659"
       y1="16.110115"
       x2="13.728528"
       y2="10.548769"
       gradientUnits="userSpaceOnUse"
       gradientTransform="matrix(2.046153,0,0,2.046153,-18.798306,-18.911347)" />
    <linearGradient
       inkscape:collect="always"
       xlink:href="#linearGradient42"
       id="linearGradient4"
       x1="11.885941"
       y1="16.50819"
       x2="12.026573"
       y2="10.244942"
       gradientUnits="userSpaceOnUse"
       gradientTransform="matrix(2.046153,0,0,2.046153,-18.798306,-18.911347)" />
    <linearGradient
       id="linearGradient42"
       inkscape:collect="always">
      <stop
         style="stop-color:#010101;stop-opacity:1;"
         offset="0"
         id="stop42" />
      <stop
         style="stop-color:#6e6c6d;stop-opacity:1;"
         offset="1"
         id="stop43" />
    </linearGradient>
    <linearGradient
       inkscape:collect="always"
       xlink:href="#linearGradient8"
       id="linearGradient9"
       x1="9.3404646"
       y1="4.1692023"
       x2="9.4279938"
       y2="16.46883"
       gradientUnits="userSpaceOnUse"
       gradientTransform="matrix(1.05,0,0,1.05,-0.50277005,-0.1977751)" />
    <filter
       style="color-interpolation-filters:sRGB;"
       inkscape:label="Blur"
       id="filter2"
       x="-0.14510849"
       y="-0.14612901"
       width="1.290217"
       height="1.292258">
      <feGaussianBlur
         stdDeviation="0.6 0.6"
         result="blur"
         id="feGaussianBlur2" />
    </filter>
    <linearGradient
       inkscape:collect="always"
       xlink:href="#linearGradient5"
       id="linearGradient70"
       x1="33.181702"
       y1="49.366688"
       x2="33.193047"
       y2="13.996331"
       gradientUnits="userSpaceOnUse"
       gradientTransform="matrix(0.2121652,0,0,0.2121652,1.6486502,1.6284525)" />
  </defs>
  <metadata
     id="metadata2">
    <rdf:RDF>
      <cc:Work
         rdf:about="">
        <dc:format>image/svg+xml</dc:format>
        <dc:type
           rdf:resource="http://purl.org/dc/dcmitype/StillImage" />
      </cc:Work>
    </rdf:RDF>
  </metadata>
  <rect
     style="fill:#000000;fill-opacity:0.996424;stroke:#000000;stroke-width:0.911802;stroke-dasharray:none;stroke-opacity:1;filter:url(#filter2)"
     id="rect1-2-3"
     width="13.065404"
     height="12.974159"
     x="1.9816793"
     y="1.9267306"
     rx="2.7149384"
     ry="2.8310909" />
  <rect
     style="fill:url(#linearGradient4);fill-opacity:0.996424;stroke:url(#linearGradient41);stroke-width:0.911802;stroke-dasharray:none;stroke-opacity:1"
     id="rect1-2"
     width="13.065404"
     height="12.974159"
     x="1.9816793"
     y="1.9267306"
     rx="2.7149384"
     ry="2.8310909" />
  <path
     id="path19-4"
     style="fill:#000000;fill-opacity:1;stroke:none;stroke-width:0.307525;stroke-dasharray:none;stroke-dashoffset:2.2;stroke-opacity:0.3;opacity:0.3"
     d="M 8.4792483,5.1054975 C 8.2408223,5.1084135 7.9993198,5.1619853 7.7686981,5.2724738 6.6733699,5.7972298 6.4295818,7.2054795 7.2881906,8.0498065 7.547521,8.3048239 7.8182968,8.4541598 8.1519024,8.5267102 8.4257856,8.5862735 8.5337788,8.5890073 8.7945815,8.5417252 9.4293557,8.4266493 9.9860093,7.9274548 10.16703,7.3104258 10.252401,7.0194365 10.240203,6.5658824 10.139403,6.2803374 9.8795852,5.5443304 9.194526,5.0967673 8.4792503,5.105497 Z m 0.078682,4.681946 c -0.084873,8.13e-5 -0.1714507,0.00161 -0.2600746,0.0042 -0.7414192,0.02176 -1.0976861,0.081252 -1.6048944,0.2678785 -1.1028067,0.40578 -1.696224,1.231414 -1.6973925,2.361695 v 0.25587 h 3.4968927 3.4968925 v -0.363383 c 0,-0.68015 -0.192511,-1.145593 -0.667306,-1.615704 C 10.688597,10.070794 9.8310323,9.7862231 8.5579312,9.7874416 Z"
     sodipodi:nodetypes="scsssscsssccccccssss" />
  <path
     id="path19"
     style="fill:url(#linearGradient70);fill-opacity:1;stroke:none;stroke-width:0.307525;stroke-dasharray:none;stroke-dashoffset:2.2;stroke-opacity:0.3"
     d="M 8.4792483,4.5763413 C 8.2408223,4.5792573 7.9993198,4.6328291 7.7686981,4.7433176 6.6733699,5.2680736 6.4295818,6.6763233 7.2881906,7.5206503 7.547521,7.7756677 7.8182968,7.9250036 8.1519024,7.997554 8.4257856,8.0571173 8.5337788,8.0598511 8.7945815,8.012569 9.4293557,7.8974931 9.9860093,7.3982986 10.16703,6.7812696 10.252401,6.4902803 10.240203,6.0367262 10.139403,5.7511812 9.8795852,5.0151742 9.194526,4.5676111 8.4792503,4.5763408 Z m 0.078682,4.681946 c -0.084873,8.13e-5 -0.1714507,0.00161 -0.2600746,0.0042 -0.7414192,0.02176 -1.0976861,0.081252 -1.6048944,0.2678786 -1.1028067,0.40578 -1.696224,1.2314141 -1.6973925,2.3616951 v 0.25587 h 3.4968927 3.4968925 v -0.363383 c 0,-0.68015 -0.192511,-1.145593 -0.667306,-1.615704 C 10.688597,9.5416374 9.8310323,9.2570669 8.5579312,9.2582854 Z"
     sodipodi:nodetypes="scsssscsssccccccssss" />
  <rect
     style="opacity:0.5;fill:none;fill-opacity:0.996424;stroke:url(#linearGradient9);stroke-width:0.566102;stroke-dasharray:none;stroke-opacity:1"
     id="rect1-2-6"
     width="11.574203"
     height="11.508601"
     x="2.729686"
     y="2.6615164"
     rx="2.0246315"
     ry="2.0627522" />
</svg>
