<?xml version="1.0" encoding="UTF-8" standalone="no"?>
<svg
   width="64"
   height="64"
   version="1.1"
   viewBox="0 0 16.933 16.933"
   id="svg7"
   sodipodi:docname="Template 4.svg"
   inkscape:version="1.3.2 (091e20ef0f, 2023-11-25)"
   xmlns:inkscape="http://www.inkscape.org/namespaces/inkscape"
   xmlns:sodipodi="http://sodipodi.sourceforge.net/DTD/sodipodi-0.dtd"
   xmlns:xlink="http://www.w3.org/1999/xlink"
   xmlns="http://www.w3.org/2000/svg"
   xmlns:svg="http://www.w3.org/2000/svg"
   xmlns:rdf="http://www.w3.org/1999/02/22-rdf-syntax-ns#"
   xmlns:cc="http://creativecommons.org/ns#"
   xmlns:dc="http://purl.org/dc/elements/1.1/">
  <sodipodi:namedview
     id="namedview7"
     pagecolor="#9c4444"
     bordercolor="#000000"
     borderopacity="0.25"
     inkscape:showpageshadow="2"
     inkscape:pageopacity="0.0"
     inkscape:pagecheckerboard="0"
     inkscape:deskcolor="#d1d1d1"
     inkscape:zoom="4.3531261"
     inkscape:cx="32.964816"
     inkscape:cy="24.350317"
     inkscape:window-width="1463"
     inkscape:window-height="604"
     inkscape:window-x="42"
     inkscape:window-y="99"
     inkscape:window-maximized="0"
     inkscape:current-layer="svg7"
     showgrid="false" />
  <defs
     id="defs2">
    <linearGradient
       id="linearGradient5"
       inkscape:collect="always">
      <stop
         style="stop-color:#392713;stop-opacity:1;"
         offset="0"
         id="stop2" />
      <stop
         style="stop-color:#eed59e;stop-opacity:1;"
         offset="0.5"
         id="stop3" />
      <stop
         style="stop-color:#beaa8a;stop-opacity:1;"
         offset="1"
         id="stop4" />
    </linearGradient>
    <linearGradient
       id="linearGradient8"
       inkscape:collect="always">
      <stop
         style="stop-color:#1a1a1a;stop-opacity:1;"
         offset="0"
         id="stop8" />
      <stop
         style="stop-color:#ffffff;stop-opacity:0;"
         offset="1"
         id="stop9" />
    </linearGradient>
    <linearGradient
       inkscape:collect="always"
       xlink:href="#linearGradient5"
       id="linearGradient41"
       x1="13.675659"
       y1="16.110115"
       x2="13.728528"
       y2="10.548769"
       gradientUnits="userSpaceOnUse"
       gradientTransform="matrix(2.046153,0,0,2.046153,-18.798306,-18.911347)" />
    <linearGradient
       inkscape:collect="always"
       xlink:href="#linearGradient42"
       id="linearGradient4"
       x1="11.885941"
       y1="16.50819"
       x2="12.026573"
       y2="10.244942"
       gradientUnits="userSpaceOnUse"
       gradientTransform="matrix(2.046153,0,0,2.046153,-18.798306,-18.911347)" />
    <linearGradient
       id="linearGradient42"
       inkscape:collect="always">
      <stop
         style="stop-color:#010101;stop-opacity:1;"
         offset="0"
         id="stop42" />
      <stop
         style="stop-color:#6e6c6d;stop-opacity:1;"
         offset="1"
         id="stop43" />
    </linearGradient>
    <linearGradient
       inkscape:collect="always"
       xlink:href="#linearGradient8"
       id="linearGradient9"
       x1="9.3404646"
       y1="4.1692023"
       x2="9.4279938"
       y2="16.46883"
       gradientUnits="userSpaceOnUse"
       gradientTransform="matrix(1.05,0,0,1.05,-0.50277005,-0.1977751)" />
    <filter
       style="color-interpolation-filters:sRGB;"
       inkscape:label="Blur"
       id="filter2"
       x="-0.14510849"
       y="-0.14612901"
       width="1.290217"
       height="1.292258">
      <feGaussianBlur
         stdDeviation="0.6 0.6"
         result="blur"
         id="feGaussianBlur2" />
    </filter>
    <linearGradient
       id="b"
       x2="1"
       gradientTransform="matrix(-0.15598952,-8.4517946,8.4517946,-0.15598952,8.6516278,12.692258)"
       gradientUnits="userSpaceOnUse">
      <stop
         stop-color="#b5c6cb"
         offset="0"
         id="stop3-4" />
      <stop
         stop-color="#fff"
         offset="1"
         id="stop4-3" />
    </linearGradient>
    <clipPath
       clipPathUnits="userSpaceOnUse"
       id="clipPath2617">
      <path
         id="path2619"
         style="display:none;fill:#813d9c;stroke-width:1.6"
         d="m 32.117188,5.8242188 -6.511719,6.5117192 6.513672,6.511718 6.509765,-6.509765 z m 0.002,13.0234372 -6.511719,6.511719 6.513672,6.509766 6.509765,-6.507813 z m 6.511718,6.513672 6.513672,6.509766 6.507813,-6.507813 -6.511719,-6.513672 z m 6.513672,6.509766 -6.511719,6.511718 6.513672,6.511719 6.507813,-6.509765 z m -6.511719,6.511718 -6.511718,-6.513671 -6.511719,6.511718 6.513672,6.511719 z m -6.509765,6.509766 -6.509766,6.509766 6.511719,6.511718 6.509766,-6.507812 z m -6.513672,-6.511719 -6.509766,-6.513671 -6.511718,6.511718 6.513671,6.511719 z m -6.509766,-6.513671 6.507813,-6.507813 -6.509766,-6.513672 -6.511718,6.509766 z" />
      <path
         id="lpe_path-effect2621"
         style="fill:#813d9c;stroke-width:1.6"
         class="powerclip"
         d="M -3.000003,-3 H 67 V 67.000277 H -3.000003 Z m 35.117191,8.8242188 -6.511719,6.5117192 6.513672,6.511718 6.509765,-6.509765 z m 0.002,13.0234372 -6.511719,6.511719 6.513672,6.509766 6.509765,-6.507813 z m 6.511718,6.513672 6.513672,6.509766 6.507813,-6.507813 -6.511719,-6.513672 z m 6.513672,6.509766 -6.511719,6.511718 6.513672,6.511719 6.507813,-6.509765 z m -6.511719,6.511718 -6.511718,-6.513671 -6.511719,6.511718 6.513672,6.511719 z m -6.509765,6.509766 -6.509766,6.509766 6.511719,6.511718 6.509766,-6.507812 z m -6.513672,-6.511719 -6.509766,-6.513671 -6.511718,6.511718 6.513671,6.511719 z m -6.509766,-6.513671 6.507813,-6.507813 -6.509766,-6.513672 -6.511718,6.509766 z" />
    </clipPath>
    <inkscape:path-effect
       effect="powerclip"
       id="path-effect2621"
       is_visible="true"
       lpeversion="1"
       inverse="true"
       flatten="false"
       hide_clip="false"
       message="Use fill-rule evenodd on &lt;b&gt;fill and stroke&lt;/b&gt; dialog if no flatten result after convert clip to paths." />
    <linearGradient
       inkscape:collect="always"
       xlink:href="#linearGradient5"
       id="linearGradient55"
       x1="32.874214"
       y1="60.371956"
       x2="33.465706"
       y2="2.4891949"
       gradientUnits="userSpaceOnUse" />
    <clipPath
       clipPathUnits="userSpaceOnUse"
       id="clipPath2617-4">
      <path
         id="path2619-8"
         style="display:none;fill:#813d9c;stroke-width:1.6"
         d="m 32.117188,5.8242188 -6.511719,6.5117192 6.513672,6.511718 6.509765,-6.509765 z m 0.002,13.0234372 -6.511719,6.511719 6.513672,6.509766 6.509765,-6.507813 z m 6.511718,6.513672 6.513672,6.509766 6.507813,-6.507813 -6.511719,-6.513672 z m 6.513672,6.509766 -6.511719,6.511718 6.513672,6.511719 6.507813,-6.509765 z m -6.511719,6.511718 -6.511718,-6.513671 -6.511719,6.511718 6.513672,6.511719 z m -6.509765,6.509766 -6.509766,6.509766 6.511719,6.511718 6.509766,-6.507812 z m -6.513672,-6.511719 -6.509766,-6.513671 -6.511718,6.511718 6.513671,6.511719 z m -6.509766,-6.513671 6.507813,-6.507813 -6.509766,-6.513672 -6.511718,6.509766 z" />
      <path
         id="lpe_path-effect2621-7"
         style="fill:#813d9c;stroke-width:1.6"
         class="powerclip"
         d="M -3.000003,-3 H 67 V 67.000277 H -3.000003 Z m 35.117191,8.8242188 -6.511719,6.5117192 6.513672,6.511718 6.509765,-6.509765 z m 0.002,13.0234372 -6.511719,6.511719 6.513672,6.509766 6.509765,-6.507813 z m 6.511718,6.513672 6.513672,6.509766 6.507813,-6.507813 -6.511719,-6.513672 z m 6.513672,6.509766 -6.511719,6.511718 6.513672,6.511719 6.507813,-6.509765 z m -6.511719,6.511718 -6.511718,-6.513671 -6.511719,6.511718 6.513672,6.511719 z m -6.509765,6.509766 -6.509766,6.509766 6.511719,6.511718 6.509766,-6.507812 z m -6.513672,-6.511719 -6.509766,-6.513671 -6.511718,6.511718 6.513671,6.511719 z m -6.509766,-6.513671 6.507813,-6.507813 -6.509766,-6.513672 -6.511718,6.509766 z" />
    </clipPath>
    <inkscape:path-effect
       effect="powerclip"
       id="path-effect2621-1"
       is_visible="true"
       lpeversion="1"
       inverse="true"
       flatten="false"
       hide_clip="false"
       message="Use fill-rule evenodd on &lt;b&gt;fill and stroke&lt;/b&gt; dialog if no flatten result after convert clip to paths." />
    <clipPath
       clipPathUnits="userSpaceOnUse"
       id="clipath_lpe_path-effect2621-1">
      <path
         id="path55"
         style="display:none;fill:#813d9c;stroke-width:1.6"
         d="m 32.117188,5.8242188 -6.511719,6.5117192 6.513672,6.511718 6.509765,-6.509765 z m 0.002,13.0234372 -6.511719,6.511719 6.513672,6.509766 6.509765,-6.507813 z m 6.511718,6.513672 6.513672,6.509766 6.507813,-6.507813 -6.511719,-6.513672 z m 6.513672,6.509766 -6.511719,6.511718 6.513672,6.511719 6.507813,-6.509765 z m -6.511719,6.511718 -6.511718,-6.513671 -6.511719,6.511718 6.513672,6.511719 z m -6.509765,6.509766 -6.509766,6.509766 6.511719,6.511718 6.509766,-6.507812 z m -6.513672,-6.511719 -6.509766,-6.513671 -6.511718,6.511718 6.513671,6.511719 z m -6.509766,-6.513671 6.507813,-6.507813 -6.509766,-6.513672 -6.511718,6.509766 z" />
      <path
         id="lpe_path-effect2621-1"
         style="fill:#813d9c;stroke-width:1.6"
         class="powerclip"
         d="M -3.000003,-3 H 67 V 67.000277 H -3.000003 Z m 35.117191,8.8242188 -6.511719,6.5117192 6.513672,6.511718 6.509765,-6.509765 z m 0.002,13.0234372 -6.511719,6.511719 6.513672,6.509766 6.509765,-6.507813 z m 6.511718,6.513672 6.513672,6.509766 6.507813,-6.507813 -6.511719,-6.513672 z m 6.513672,6.509766 -6.511719,6.511718 6.513672,6.511719 6.507813,-6.509765 z m -6.511719,6.511718 -6.511718,-6.513671 -6.511719,6.511718 6.513672,6.511719 z m -6.509765,6.509766 -6.509766,6.509766 6.511719,6.511718 6.509766,-6.507812 z m -6.513672,-6.511719 -6.509766,-6.513671 -6.511718,6.511718 6.513671,6.511719 z m -6.509766,-6.513671 6.507813,-6.507813 -6.509766,-6.513672 -6.511718,6.509766 z" />
    </clipPath>
  </defs>
  <metadata
     id="metadata2">
    <rdf:RDF>
      <cc:Work
         rdf:about="">
        <dc:format>image/svg+xml</dc:format>
        <dc:type
           rdf:resource="http://purl.org/dc/dcmitype/StillImage" />
      </cc:Work>
    </rdf:RDF>
  </metadata>
  <rect
     style="fill:#000000;fill-opacity:0.996424;stroke:#000000;stroke-width:0.911802;stroke-dasharray:none;stroke-opacity:1;filter:url(#filter2)"
     id="rect1-2-3"
     width="13.065404"
     height="12.974159"
     x="1.9816793"
     y="1.9267306"
     rx="2.7149384"
     ry="2.8310909" />
  <rect
     style="fill:url(#linearGradient4);fill-opacity:0.996424;stroke:url(#linearGradient41);stroke-width:0.911802;stroke-dasharray:none;stroke-opacity:1"
     id="rect1-2"
     width="13.065404"
     height="12.974159"
     x="1.9816793"
     y="1.9267306"
     rx="2.7149384"
     ry="2.8310909" />
  <path
     id="path4-7"
     style="fill:#000000;stroke-width:2;opacity:0.3"
     d="M 32,2 C 30.4285,2 28.856375,2.5850594 27.681641,3.7597656 L 15.71875,15.722656 3.7597656,27.683594 C 2.5843371,28.858992 1.9984601,30.42878 2,32 c 0.00157,1.569368 0.5895821,3.140439 1.7636719,4.314453 l 3.8203125,3.822266 -0.00195,0.002 8.1406246,8.138672 8.138672,8.138672 0.002,-0.002 3.820313,3.822266 c 2.34947,2.349412 6.285291,2.353146 8.634765,0.0039 l 12.085938,-12.08789 -0.002,-0.002 8.013672,-8.011719 3.820312,-3.822266 c 0.293678,-0.293677 0.55102,-0.61239 0.771484,-0.949218 0.110233,-0.168415 0.210852,-0.340635 0.302735,-0.517579 2.69e-4,-5.18e-4 -2.69e-4,-0.0014 0,-0.002 0.09156,-0.176448 0.174759,-0.357587 0.248047,-0.541015 0.0735,-0.183968 0.138248,-0.3711 0.193359,-0.560547 0.110222,-0.378895 0.183982,-0.766884 0.220703,-1.158203 C 61.991017,32.392231 62,32.196392 62,32 c 0,-0.196392 -0.009,-0.392289 -0.02734,-0.587891 -0.03678,-0.391203 -0.11042,-0.779423 -0.220703,-1.158203 -0.05514,-0.18939 -0.119858,-0.376579 -0.193359,-0.560547 -0.0735,-0.183967 -0.156195,-0.365967 -0.248047,-0.542968 -0.09185,-0.177002 -0.192543,-0.349087 -0.302735,-0.517579 C 60.787429,28.29583 60.53001,27.97727 60.236328,27.683594 l -3.820312,-3.822266 -8.138672,-8.138672 v -0.002 L 40.138672,7.5820312 v -0.00195 L 36.314453,3.7558594 C 35.140331,2.5849283 33.568976,2 32,2 Z"
     clip-path="url(#clipath_lpe_path-effect2621-1)"
     inkscape:path-effect="#path-effect2621-1"
     inkscape:original-d="M 32,2 C 30.4285,2 28.856375,2.5850594 27.681641,3.7597656 L 15.71875,15.722656 3.7597656,27.683594 C 2.5843371,28.858992 1.9984601,30.42878 2,32 c 0.00157,1.569368 0.5895821,3.140439 1.7636719,4.314453 l 3.8203125,3.822266 -0.00195,0.002 8.1406246,8.138672 8.138672,8.138672 0.002,-0.002 3.820313,3.822266 c 2.34947,2.349412 6.285291,2.353146 8.634765,0.0039 l 12.085938,-12.08789 -0.002,-0.002 8.013672,-8.011719 3.820312,-3.822266 c 0.293678,-0.293677 0.55102,-0.61239 0.771484,-0.949218 0.110233,-0.168415 0.210852,-0.340635 0.302735,-0.517579 2.69e-4,-5.18e-4 -2.69e-4,-0.0014 0,-0.002 0.09156,-0.176448 0.174759,-0.357587 0.248047,-0.541015 0.0735,-0.183968 0.138248,-0.3711 0.193359,-0.560547 0.110222,-0.378895 0.183982,-0.766884 0.220703,-1.158203 C 61.991017,32.392231 62,32.196392 62,32 c 0,-0.196392 -0.009,-0.392289 -0.02734,-0.587891 -0.03678,-0.391203 -0.11042,-0.779423 -0.220703,-1.158203 -0.05514,-0.18939 -0.119858,-0.376579 -0.193359,-0.560547 -0.0735,-0.183967 -0.156195,-0.365967 -0.248047,-0.542968 -0.09185,-0.177002 -0.192543,-0.349087 -0.302735,-0.517579 C 60.787429,28.29583 60.53001,27.97727 60.236328,27.683594 l -3.820312,-3.822266 -8.138672,-8.138672 v -0.002 L 40.138672,7.5820312 v -0.00195 L 36.314453,3.7558594 C 35.140331,2.5849283 33.568976,2 32,2 Z"
     transform="matrix(0.13506716,0,0,0.13506716,4.0721458,4.7569689)" />
  <path
     id="path4"
     style="fill:url(#linearGradient55);stroke-width:2"
     d="M 32,2 C 30.4285,2 28.856375,2.5850594 27.681641,3.7597656 L 15.71875,15.722656 3.7597656,27.683594 C 2.5843371,28.858992 1.9984601,30.42878 2,32 c 0.00157,1.569368 0.5895821,3.140439 1.7636719,4.314453 l 3.8203125,3.822266 -0.00195,0.002 8.1406246,8.138672 8.138672,8.138672 0.002,-0.002 3.820313,3.822266 c 2.34947,2.349412 6.285291,2.353146 8.634765,0.0039 l 12.085938,-12.08789 -0.002,-0.002 8.013672,-8.011719 3.820312,-3.822266 c 0.293678,-0.293677 0.55102,-0.61239 0.771484,-0.949218 0.110233,-0.168415 0.210852,-0.340635 0.302735,-0.517579 2.69e-4,-5.18e-4 -2.69e-4,-0.0014 0,-0.002 0.09156,-0.176448 0.174759,-0.357587 0.248047,-0.541015 0.0735,-0.183968 0.138248,-0.3711 0.193359,-0.560547 0.110222,-0.378895 0.183982,-0.766884 0.220703,-1.158203 C 61.991017,32.392231 62,32.196392 62,32 c 0,-0.196392 -0.009,-0.392289 -0.02734,-0.587891 -0.03678,-0.391203 -0.11042,-0.779423 -0.220703,-1.158203 -0.05514,-0.18939 -0.119858,-0.376579 -0.193359,-0.560547 -0.0735,-0.183967 -0.156195,-0.365967 -0.248047,-0.542968 -0.09185,-0.177002 -0.192543,-0.349087 -0.302735,-0.517579 C 60.787429,28.29583 60.53001,27.97727 60.236328,27.683594 l -3.820312,-3.822266 -8.138672,-8.138672 v -0.002 L 40.138672,7.5820312 v -0.00195 L 36.314453,3.7558594 C 35.140331,2.5849283 33.568976,2 32,2 Z"
     clip-path="url(#clipPath2617)"
     inkscape:path-effect="#path-effect2621"
     inkscape:original-d="M 32,2 C 30.4285,2 28.856375,2.5850594 27.681641,3.7597656 L 15.71875,15.722656 3.7597656,27.683594 C 2.5843371,28.858992 1.9984601,30.42878 2,32 c 0.00157,1.569368 0.5895821,3.140439 1.7636719,4.314453 l 3.8203125,3.822266 -0.00195,0.002 8.1406246,8.138672 8.138672,8.138672 0.002,-0.002 3.820313,3.822266 c 2.34947,2.349412 6.285291,2.353146 8.634765,0.0039 l 12.085938,-12.08789 -0.002,-0.002 8.013672,-8.011719 3.820312,-3.822266 c 0.293678,-0.293677 0.55102,-0.61239 0.771484,-0.949218 0.110233,-0.168415 0.210852,-0.340635 0.302735,-0.517579 2.69e-4,-5.18e-4 -2.69e-4,-0.0014 0,-0.002 0.09156,-0.176448 0.174759,-0.357587 0.248047,-0.541015 0.0735,-0.183968 0.138248,-0.3711 0.193359,-0.560547 0.110222,-0.378895 0.183982,-0.766884 0.220703,-1.158203 C 61.991017,32.392231 62,32.196392 62,32 c 0,-0.196392 -0.009,-0.392289 -0.02734,-0.587891 -0.03678,-0.391203 -0.11042,-0.779423 -0.220703,-1.158203 -0.05514,-0.18939 -0.119858,-0.376579 -0.193359,-0.560547 -0.0735,-0.183967 -0.156195,-0.365967 -0.248047,-0.542968 -0.09185,-0.177002 -0.192543,-0.349087 -0.302735,-0.517579 C 60.787429,28.29583 60.53001,27.97727 60.236328,27.683594 l -3.820312,-3.822266 -8.138672,-8.138672 v -0.002 L 40.138672,7.5820312 v -0.00195 L 36.314453,3.7558594 C 35.140331,2.5849283 33.568976,2 32,2 Z"
     transform="matrix(0.13506716,0,0,0.13506716,4.0721458,4.2278127)" />
  <rect
     style="opacity:0.5;fill:none;fill-opacity:0.996424;stroke:url(#linearGradient9);stroke-width:0.566102;stroke-dasharray:none;stroke-opacity:1"
     id="rect1-2-6"
     width="11.574203"
     height="11.508601"
     x="2.729686"
     y="2.6615164"
     rx="2.0246315"
     ry="2.0627522" />
</svg>
