<?xml version="1.0" encoding="UTF-8" standalone="no"?>
<svg
   width="64"
   height="64"
   version="1.1"
   viewBox="0 0 16.933 16.933"
   id="svg7"
   sodipodi:docname="Template 4.svg"
   inkscape:version="1.3.2 (091e20ef0f, 2023-11-25)"
   xmlns:inkscape="http://www.inkscape.org/namespaces/inkscape"
   xmlns:sodipodi="http://sodipodi.sourceforge.net/DTD/sodipodi-0.dtd"
   xmlns:xlink="http://www.w3.org/1999/xlink"
   xmlns="http://www.w3.org/2000/svg"
   xmlns:svg="http://www.w3.org/2000/svg"
   xmlns:rdf="http://www.w3.org/1999/02/22-rdf-syntax-ns#"
   xmlns:cc="http://creativecommons.org/ns#"
   xmlns:dc="http://purl.org/dc/elements/1.1/">
  <sodipodi:namedview
     id="namedview7"
     pagecolor="#9c4444"
     bordercolor="#000000"
     borderopacity="0.25"
     inkscape:showpageshadow="2"
     inkscape:pageopacity="0.0"
     inkscape:pagecheckerboard="0"
     inkscape:deskcolor="#d1d1d1"
     inkscape:zoom="4.3531261"
     inkscape:cx="32.964816"
     inkscape:cy="24.350317"
     inkscape:window-width="1463"
     inkscape:window-height="604"
     inkscape:window-x="199"
     inkscape:window-y="276"
     inkscape:window-maximized="0"
     inkscape:current-layer="svg7"
     showgrid="false" />
  <defs
     id="defs2">
    <linearGradient
       id="linearGradient5"
       inkscape:collect="always">
      <stop
         style="stop-color:#392713;stop-opacity:1;"
         offset="0"
         id="stop2" />
      <stop
         style="stop-color:#eed59e;stop-opacity:1;"
         offset="0.5"
         id="stop3" />
      <stop
         style="stop-color:#beaa8a;stop-opacity:1;"
         offset="1"
         id="stop4" />
    </linearGradient>
    <linearGradient
       id="linearGradient8"
       inkscape:collect="always">
      <stop
         style="stop-color:#1a1a1a;stop-opacity:1;"
         offset="0"
         id="stop8" />
      <stop
         style="stop-color:#ffffff;stop-opacity:0;"
         offset="1"
         id="stop9" />
    </linearGradient>
    <linearGradient
       inkscape:collect="always"
       xlink:href="#linearGradient5"
       id="linearGradient41"
       x1="13.675659"
       y1="16.110115"
       x2="13.728528"
       y2="10.548769"
       gradientUnits="userSpaceOnUse"
       gradientTransform="matrix(2.046153,0,0,2.046153,-18.798306,-18.911347)" />
    <linearGradient
       inkscape:collect="always"
       xlink:href="#linearGradient42"
       id="linearGradient4"
       x1="11.885941"
       y1="16.50819"
       x2="12.026573"
       y2="10.244942"
       gradientUnits="userSpaceOnUse"
       gradientTransform="matrix(2.046153,0,0,2.046153,-18.798306,-18.911347)" />
    <linearGradient
       id="linearGradient42"
       inkscape:collect="always">
      <stop
         style="stop-color:#010101;stop-opacity:1;"
         offset="0"
         id="stop42" />
      <stop
         style="stop-color:#6e6c6d;stop-opacity:1;"
         offset="1"
         id="stop43" />
    </linearGradient>
    <linearGradient
       inkscape:collect="always"
       xlink:href="#linearGradient8"
       id="linearGradient9"
       x1="9.3404646"
       y1="4.1692023"
       x2="9.4279938"
       y2="16.46883"
       gradientUnits="userSpaceOnUse"
       gradientTransform="matrix(1.05,0,0,1.05,-0.50277005,-0.1977751)" />
    <filter
       style="color-interpolation-filters:sRGB;"
       inkscape:label="Blur"
       id="filter2"
       x="-0.14510849"
       y="-0.14612901"
       width="1.290217"
       height="1.292258">
      <feGaussianBlur
         stdDeviation="0.6 0.6"
         result="blur"
         id="feGaussianBlur2" />
    </filter>
    <linearGradient
       inkscape:collect="always"
       xlink:href="#linearGradient5"
       id="linearGradient21"
       x1="8.5032339"
       y1="12.611255"
       x2="8.5018444"
       y2="4.3776422"
       gradientUnits="userSpaceOnUse" />
  </defs>
  <metadata
     id="metadata2">
    <rdf:RDF>
      <cc:Work
         rdf:about="">
        <dc:format>image/svg+xml</dc:format>
        <dc:type
           rdf:resource="http://purl.org/dc/dcmitype/StillImage" />
      </cc:Work>
    </rdf:RDF>
  </metadata>
  <rect
     style="fill:#000000;fill-opacity:0.996424;stroke:#000000;stroke-width:0.911802;stroke-dasharray:none;stroke-opacity:1;filter:url(#filter2)"
     id="rect1-2-3"
     width="13.065404"
     height="12.974159"
     x="1.9816793"
     y="1.9267306"
     rx="2.7149384"
     ry="2.8310909" />
  <rect
     style="fill:url(#linearGradient4);fill-opacity:0.996424;stroke:url(#linearGradient41);stroke-width:0.911802;stroke-dasharray:none;stroke-opacity:1"
     id="rect1-2"
     width="13.065404"
     height="12.974159"
     x="1.9816793"
     y="1.9267306"
     rx="2.7149384"
     ry="2.8310909" />
  <path
     d="m 9.4343224,12.379737 v 0.303492 c 0,0.166472 -0.1373398,0.303492 -0.3038123,0.303492 H 7.9159007 c -0.1664725,0 -0.303492,-0.13702 -0.303492,-0.303492 V 12.379737 Z M 8.5232054,6.9139965 c -1.1659481,0 -2.1254063,0.9594582 -2.1254063,2.1254063 0,0.722555 0.3611174,1.3573922 0.9107969,1.7428392 v 0.686378 c 0,0.166472 0.1370198,0.303492 0.3038125,0.303492 h 1.8219139 c 0.1664727,0 0.3034929,-0.13702 0.3034929,-0.303492 v -0.686378 c 0.5496787,-0.385447 0.9107967,-1.0202842 0.9107967,-1.7428392 0,-1.1659481 -0.9594581,-2.1254063 -2.1254066,-2.1254063 z m 3.7565166,2.9568087 -0.71327,-0.231781 c -0.169674,-0.054744 -0.351194,0.037776 -0.406257,0.2071302 -0.05507,0.1690336 0.03777,0.3508726 0.206809,0.4062576 l 0.713592,0.23146 c 0.03298,0.01089 0.06628,0.01601 0.09956,0.01601 0.135739,0 0.261873,-0.08676 0.306692,-0.222817 0.05474,-0.169674 -0.03809,-0.3511927 -0.20713,-0.4062569 z M 5.3666296,9.6390242 4.6527185,9.870485 c -0.1690337,0.054744 -0.2618741,0.236583 -0.2068101,0.406257 0.044179,0.13606 0.1706343,0.222817 0.3063734,0.222817 0.032975,0 0.066589,-0.0051 0.099883,-0.01601 l 0.7135916,-0.23114 C 5.7347902,10.197027 5.8276305,10.015508 5.7725666,9.8461544 5.7181429,9.6768007 5.5375843,9.5842803 5.3666296,9.6390242 Z M 11.466888,8.3184487 c 0.03298,0 0.06627,-0.00544 0.09956,-0.016007 l 0.713273,-0.2317808 c 0.169033,-0.055064 0.261874,-0.2369034 0.20713,-0.4062572 -0.05538,-0.1690335 -0.237862,-0.2615539 -0.406256,-0.20681 l -0.713592,0.231781 c -0.169033,0.055064 -0.261874,0.2369032 -0.206809,0.405937 0.04418,0.1363793 0.170634,0.2231372 0.306693,0.2231372 z M 5.5660766,7.6893745 4.8524856,7.4572733 c -0.1706344,-0.055064 -0.3511931,0.037456 -0.4062571,0.2068101 -0.055064,0.169354 0.037456,0.3511931 0.20649,0.4062572 l 0.713591,0.2321011 c 0.033295,0.01056 0.066588,0.015686 0.099883,0.015686 0.1360594,0 0.2621944,-0.086438 0.3063737,-0.2228171 C 5.8276305,7.9262777 5.7351103,7.7444384 5.5660766,7.6893745 Z M 6.3510588,6.6079432 c 0.063067,0.087077 0.1613502,0.1328579 0.2612337,0.1328579 0.065628,0 0.1318976,-0.019848 0.1892026,-0.061467 C 6.9452378,6.5749694 6.9772516,6.373281 6.8732071,6.2292181 L 6.4323741,5.6222336 C 6.3273684,5.4784909 6.1263208,5.4458366 5.9816176,5.5508425 5.837875,5.6552079 5.8058611,5.8568959 5.9105468,6.0009587 Z M 10.500708,5.6222336 c 0.105006,-0.1440629 0.305413,-0.1767169 0.450437,-0.071391 0.143741,0.1043647 0.176074,0.3060534 0.07139,0.4501161 l -0.440833,0.6069847 c -0.06306,0.087077 -0.161349,0.1328579 -0.261234,0.1328579 -0.06531,0 -0.131896,-0.019848 -0.189202,-0.061467 C 9.9875242,6.5749694 9.95551,6.373281 10.059876,6.2292181 Z M 8.4662205,6.1382985 c 0.1783177,0 0.3227007,-0.1447031 0.3227007,-0.3223805 V 5.0661512 c 0,-0.1783177 -0.144383,-0.3227005 -0.3227007,-0.3227005 -0.1779975,0 -0.3223805,0.1443828 -0.3223805,0.3227005 V 5.815918 c 0,0.1776774 0.144383,0.3223805 0.3223805,0.3223805 z"
     fill="url(#b)"
     fill-rule="nonzero"
     id="path4-0"
     style="fill:#000000;fill-opacity:1;stroke-width:0.32014;opacity:0.3" />
  <path
     d="m 9.4343224,11.850581 v 0.303492 c 0,0.166472 -0.1373398,0.303492 -0.3038123,0.303492 H 7.9159007 c -0.1664725,0 -0.303492,-0.13702 -0.303492,-0.303492 V 11.850581 Z M 8.5232054,6.3848403 c -1.1659481,0 -2.1254063,0.9594582 -2.1254063,2.1254063 0,0.722555 0.3611174,1.3573918 0.9107969,1.7428394 v 0.686378 c 0,0.166472 0.1370198,0.303492 0.3038125,0.303492 h 1.8219139 c 0.1664727,0 0.3034929,-0.13702 0.3034929,-0.303492 V 10.253086 C 10.287494,9.8676383 10.648612,9.2328016 10.648612,8.5102466 c 0,-1.1659481 -0.9594581,-2.1254063 -2.1254066,-2.1254063 z M 12.279722,9.341649 11.566452,9.109868 c -0.169674,-0.054744 -0.351194,0.037776 -0.406257,0.2071302 -0.05507,0.1690338 0.03777,0.350873 0.206809,0.4062571 l 0.713592,0.2314609 c 0.03298,0.01089 0.06628,0.016007 0.09956,0.016007 0.135739,0 0.261873,-0.086758 0.306692,-0.222817 0.05474,-0.1696741 -0.03809,-0.3511931 -0.20713,-0.4062573 z M 5.3666296,9.109868 4.6527185,9.3413288 C 4.4836848,9.3960725 4.3908444,9.5779121 4.4459084,9.747586 c 0.044179,0.1360593 0.1706343,0.222817 0.3063734,0.222817 0.032975,0 0.066589,-0.00511 0.099883,-0.016007 L 5.5657564,9.7232553 C 5.7347902,9.6678712 5.8276305,9.486352 5.7725666,9.3169982 5.7181429,9.1476445 5.5375843,9.0551241 5.3666296,9.109868 Z M 11.466888,7.7892925 c 0.03298,0 0.06627,-0.00544 0.09956,-0.016007 l 0.713273,-0.2317808 c 0.169033,-0.055064 0.261874,-0.2369034 0.20713,-0.4062572 -0.05538,-0.1690335 -0.237862,-0.2615539 -0.406256,-0.20681 l -0.713592,0.231781 c -0.169033,0.055064 -0.261874,0.2369032 -0.206809,0.405937 0.04418,0.1363793 0.170634,0.2231372 0.306693,0.2231372 z M 5.5660766,7.1602183 4.8524856,6.9281171 c -0.1706344,-0.055064 -0.3511931,0.037456 -0.4062571,0.2068101 -0.055064,0.169354 0.037456,0.3511931 0.20649,0.4062572 l 0.713591,0.2321011 c 0.033295,0.01056 0.066588,0.015686 0.099883,0.015686 0.1360594,0 0.2621944,-0.086438 0.3063737,-0.2228171 C 5.8276305,7.3971215 5.7351103,7.2152822 5.5660766,7.1602183 Z M 6.3510588,6.078787 c 0.063067,0.087077 0.1613502,0.1328579 0.2612337,0.1328579 0.065628,0 0.1318976,-0.019848 0.1892026,-0.061467 0.1437427,-0.1043647 0.1757565,-0.3060531 0.071712,-0.450116 L 6.4323741,5.0930774 C 6.3273684,4.9493347 6.1263208,4.9166804 5.9816176,5.0216863 5.837875,5.1260517 5.8058611,5.3277397 5.9105468,5.4718025 Z M 10.500708,5.0930774 c 0.105006,-0.1440629 0.305413,-0.1767169 0.450437,-0.071391 0.143741,0.1043647 0.176074,0.3060534 0.07139,0.4501161 l -0.440833,0.6069847 c -0.06306,0.087077 -0.161349,0.1328579 -0.261234,0.1328579 -0.06531,0 -0.131896,-0.019848 -0.189202,-0.061467 C 9.9875242,6.0458132 9.95551,5.8441248 10.059876,5.7000619 Z M 8.4662205,5.6091423 c 0.1783177,0 0.3227007,-0.1447031 0.3227007,-0.3223805 V 4.536995 c 0,-0.1783177 -0.144383,-0.3227005 -0.3227007,-0.3227005 -0.1779975,0 -0.3223805,0.1443828 -0.3223805,0.3227005 v 0.7497668 c 0,0.1776774 0.144383,0.3223805 0.3223805,0.3223805 z"
     fill="url(#b)"
     fill-rule="nonzero"
     id="path4"
     style="fill:url(#linearGradient21);stroke-width:0.32014;fill-opacity:1" />
  <rect
     style="opacity:0.5;fill:none;fill-opacity:0.996424;stroke:url(#linearGradient9);stroke-width:0.566102;stroke-dasharray:none;stroke-opacity:1"
     id="rect1-2-6"
     width="11.574203"
     height="11.508601"
     x="2.729686"
     y="2.6615164"
     rx="2.0246315"
     ry="2.0627522" />
</svg>
