<?xml version="1.0" encoding="UTF-8" standalone="no"?>
<svg
   width="64"
   height="64"
   version="1.1"
   viewBox="0 0 16.933 16.933"
   id="svg7"
   sodipodi:docname="Template 4.svg"
   inkscape:version="1.3.2 (091e20ef0f, 2023-11-25)"
   xmlns:inkscape="http://www.inkscape.org/namespaces/inkscape"
   xmlns:sodipodi="http://sodipodi.sourceforge.net/DTD/sodipodi-0.dtd"
   xmlns:xlink="http://www.w3.org/1999/xlink"
   xmlns="http://www.w3.org/2000/svg"
   xmlns:svg="http://www.w3.org/2000/svg"
   xmlns:rdf="http://www.w3.org/1999/02/22-rdf-syntax-ns#"
   xmlns:cc="http://creativecommons.org/ns#"
   xmlns:dc="http://purl.org/dc/elements/1.1/">
  <sodipodi:namedview
     id="namedview7"
     pagecolor="#9c4444"
     bordercolor="#000000"
     borderopacity="0.25"
     inkscape:showpageshadow="2"
     inkscape:pageopacity="0.0"
     inkscape:pagecheckerboard="0"
     inkscape:deskcolor="#d1d1d1"
     inkscape:zoom="4.3531261"
     inkscape:cx="32.849956"
     inkscape:cy="24.350317"
     inkscape:window-width="1356"
     inkscape:window-height="786"
     inkscape:window-x="35"
     inkscape:window-y="32"
     inkscape:window-maximized="0"
     inkscape:current-layer="svg7"
     showgrid="false" />
  <defs
     id="defs2">
    <linearGradient
       id="linearGradient5"
       inkscape:collect="always">
      <stop
         style="stop-color:#392713;stop-opacity:1;"
         offset="0"
         id="stop2" />
      <stop
         style="stop-color:#eed59e;stop-opacity:1;"
         offset="0.5"
         id="stop3" />
      <stop
         style="stop-color:#beaa8a;stop-opacity:1;"
         offset="1"
         id="stop4" />
    </linearGradient>
    <linearGradient
       id="linearGradient8"
       inkscape:collect="always">
      <stop
         style="stop-color:#1a1a1a;stop-opacity:1;"
         offset="0"
         id="stop8" />
      <stop
         style="stop-color:#ffffff;stop-opacity:0;"
         offset="1"
         id="stop9" />
    </linearGradient>
    <linearGradient
       inkscape:collect="always"
       xlink:href="#linearGradient5"
       id="linearGradient41"
       x1="13.675659"
       y1="16.110115"
       x2="13.728528"
       y2="10.548769"
       gradientUnits="userSpaceOnUse"
       gradientTransform="matrix(2.046153,0,0,2.046153,-18.798306,-18.911347)" />
    <linearGradient
       inkscape:collect="always"
       xlink:href="#linearGradient42"
       id="linearGradient4"
       x1="11.885941"
       y1="16.50819"
       x2="12.026573"
       y2="10.244942"
       gradientUnits="userSpaceOnUse"
       gradientTransform="matrix(2.046153,0,0,2.046153,-18.798306,-18.911347)" />
    <linearGradient
       id="linearGradient42"
       inkscape:collect="always">
      <stop
         style="stop-color:#010101;stop-opacity:1;"
         offset="0"
         id="stop42" />
      <stop
         style="stop-color:#6e6c6d;stop-opacity:1;"
         offset="1"
         id="stop43" />
    </linearGradient>
    <linearGradient
       inkscape:collect="always"
       xlink:href="#linearGradient8"
       id="linearGradient9"
       x1="9.3404646"
       y1="4.1692023"
       x2="9.4279938"
       y2="16.46883"
       gradientUnits="userSpaceOnUse"
       gradientTransform="matrix(1.05,0,0,1.05,-0.50277005,-0.1977751)" />
    <filter
       style="color-interpolation-filters:sRGB;"
       inkscape:label="Blur"
       id="filter2"
       x="-0.14510849"
       y="-0.14612901"
       width="1.290217"
       height="1.292258">
      <feGaussianBlur
         stdDeviation="0.6 0.6"
         result="blur"
         id="feGaussianBlur2" />
    </filter>
    <linearGradient
       inkscape:collect="always"
       xlink:href="#linearGradient5"
       id="linearGradient48"
       x1="33.403778"
       y1="50.403111"
       x2="33.705799"
       y2="14.006994"
       gradientUnits="userSpaceOnUse"
       gradientTransform="matrix(0.23573911,0,0,0.23573911,0.98162274,0.84614076)" />
  </defs>
  <metadata
     id="metadata2">
    <rdf:RDF>
      <cc:Work
         rdf:about="">
        <dc:format>image/svg+xml</dc:format>
        <dc:type
           rdf:resource="http://purl.org/dc/dcmitype/StillImage" />
      </cc:Work>
    </rdf:RDF>
  </metadata>
  <rect
     style="fill:#000000;fill-opacity:0.996424;stroke:#000000;stroke-width:0.911802;stroke-dasharray:none;stroke-opacity:1;filter:url(#filter2)"
     id="rect1-2-3"
     width="13.065404"
     height="12.974159"
     x="1.9816793"
     y="1.9267306"
     rx="2.7149384"
     ry="2.8310909" />
  <rect
     style="fill:url(#linearGradient4);fill-opacity:0.996424;stroke:url(#linearGradient41);stroke-width:0.911802;stroke-dasharray:none;stroke-opacity:1"
     id="rect1-2"
     width="13.065404"
     height="12.974159"
     x="1.9816793"
     y="1.9267306"
     rx="2.7149384"
     ry="2.8310909" />
  <path
     style="fill:#000000;fill-opacity:1;stroke:none;stroke-width:0.259313;stroke-dasharray:none;stroke-dashoffset:2.2;stroke-opacity:0.3;opacity:0.3"
     d="M 7.0870493,13.213655 C 6.6337632,13.143406 6.1458724,12.959139 5.7942729,12.725396 5.4184565,12.475554 5.0165513,11.981853 4.9144104,11.644571 4.8770878,11.521326 4.983416,11.37244 5.2739188,11.14117 5.4260652,11.020044 5.5849961,10.87578 5.6270981,10.820581 5.6847078,10.745051 5.7440843,10.556436 5.8670897,10.058228 6.1115957,9.0679016 6.3913532,8.2551419 6.8411962,7.2282216 7.3649954,6.0324729 7.7187537,5.4939758 8.2261543,5.1200162 8.6153844,4.8331495 8.9400881,4.7164754 9.4847166,4.6677815 c 0.8899464,-0.079568 1.2687334,-0.00594 1.7192354,0.3341973 0.419374,0.3166299 0.913344,1.2726184 0.950254,1.8390421 0.02455,0.3767735 -0.05714,0.3935323 -0.278352,0.0571 -0.148699,-0.226153 -0.283019,-0.3549467 -0.370179,-0.3549467 -0.167854,0 -0.432357,0.3040287 -0.605902,0.6964422 -0.123163,0.2784962 -0.274314,0.7376312 -0.345237,1.0486972 -0.119378,0.5235883 -0.08334,1.1922043 0.125074,2.3204694 0.1101,0.596033 0.100309,0.567227 0.207955,0.611815 0.147792,0.06122 0.404735,0.326756 0.438875,0.453558 0.08157,0.302925 -0.195343,0.640663 -0.746279,0.910223 -0.47337,0.231613 -1.0359063,0.398145 -1.8847385,0.557953 -0.4613028,0.08685 -1.2752715,0.122944 -1.6083732,0.07132 z M 8.985779,11.27605 9.3059199,11.00557 9.6240401,11.112096 c 0.1749665,0.05859 0.3212631,0.103345 0.3251034,0.09945 0.00378,-0.0039 -0.03177,-0.167911 -0.079119,-0.36449 -0.047361,-0.196574 -0.086407,-0.380951 -0.086781,-0.409723 -3.54e-4,-0.02877 0.080191,-0.194747 0.1790199,-0.368835 0.098833,-0.1740901 0.1721503,-0.3240725 0.1629273,-0.3332963 -0.0092,-0.00922 -0.1739487,-0.022374 -0.3660577,-0.029223 L 9.4098437,9.6935289 9.1920506,9.3664058 C 9.0722642,9.1864883 8.9659103,9.0476297 8.9557089,9.057831 c -0.0102,0.0102 -0.05955,0.1874593 -0.1096639,0.3939055 L 8.7549299,9.8270928 8.4360671,9.9659608 C 8.260692,10.042338 8.1072535,10.11478 8.0950923,10.126941 c -0.012162,0.01216 0.1097594,0.154478 0.2709348,0.31626 l 0.2930468,0.29415 -0.021452,0.404827 c -0.011798,0.222655 -0.010323,0.40472 0.00328,0.404591 0.013604,-1.28e-4 0.1687993,-0.12195 0.3448766,-0.270715 z M 7.7282747,10.570764 c 0.025042,-0.214832 0.051848,-0.395386 0.05957,-0.401232 0.00772,-0.0058 0.137988,-0.101727 0.2894822,-0.2130684 C 8.228821,9.8451226 8.3462512,9.7434764 8.3382827,9.7305828 8.3303147,9.7176902 8.1844579,9.6246743 8.0141584,9.5238824 L 7.7045236,9.3406253 7.6191716,8.9397013 C 7.572228,8.7191933 7.5247648,8.538771 7.5136986,8.5387632 7.5026307,8.538755 7.3955177,8.6740506 7.2756672,8.8394198 L 7.0577563,9.1400912 6.834125,9.1216282 C 6.7111279,9.1114726 6.5465123,9.095497 6.4683117,9.0861269 l -0.1421828,-0.017037 0.063526,0.1592618 c 0.03494,0.087593 0.1072239,0.2714198 0.1606315,0.4085028 l 0.097105,0.2492417 -0.144592,0.3741958 c -0.079525,0.205809 -0.1390679,0.37972 -0.1323161,0.386474 0.00676,0.0067 0.1867518,-0.02707 0.3999995,-0.07515 L 7.1582059,10.484181 7.39069,10.73087 c 0.1278661,0.135679 0.2458867,0.243049 0.2622682,0.238597 0.016382,-0.0044 0.050274,-0.183863 0.075317,-0.398694 z M 9.7229938,8.9283773 V 8.5138192 L 9.9985031,8.2552026 C 10.150033,8.112963 10.260608,7.9908106 10.244226,7.9837518 10.227846,7.9766868 10.068063,7.9074786 9.8891549,7.8299431 L 9.5638672,7.6889683 9.4416259,7.3223339 C 9.3743933,7.1206854 9.3066282,6.9550139 9.291037,6.9541756 9.2754452,6.9533505 9.1872219,7.0886994 9.094985,7.2549798 9.0027474,7.4212607 8.9186696,7.5659196 8.9081445,7.5764444 c -0.010526,0.010526 -0.1684224,0.029925 -0.3508842,0.043109 -0.1824618,0.013188 -0.338341,0.030566 -0.3463986,0.038624 -0.013239,0.013239 0.1134105,0.2712635 0.2964168,0.6039039 L 8.5762833,8.3875085 8.47538,8.7767293 C 8.419883,8.9908002 8.382228,9.1737007 8.391702,9.1831737 c 0.00948,0.00948 0.1759618,-0.044527 0.3699749,-0.1200002 0.194013,-0.075474 0.3597486,-0.1372241 0.3683008,-0.1372241 0.00856,0 0.1354281,0.093187 0.2819453,0.2070814 0.146517,0.1138947 0.2764472,0.2077163 0.2887329,0.2084928 0.012287,7.781e-4 0.022339,-0.1851398 0.022336,-0.4131462 z"
     id="path92-2" />
  <path
     style="fill:url(#linearGradient48);fill-opacity:1;stroke:none;stroke-width:0.259313;stroke-dasharray:none;stroke-dashoffset:2.2;stroke-opacity:0.3"
     d="M 7.0870493,12.684499 C 6.6337632,12.61425 6.1458724,12.429983 5.7942729,12.19624 5.4184565,11.946398 5.0165513,11.452697 4.9144104,11.115415 4.8770878,10.99217 4.983416,10.843284 5.2739188,10.612014 5.4260652,10.490888 5.5849961,10.346624 5.6270981,10.291425 5.6847078,10.215895 5.7440843,10.02728 5.8670897,9.5290713 6.1115957,8.5387454 6.3913532,7.7259857 6.8411962,6.6990654 7.3649954,5.5033167 7.7187537,4.9648196 8.2261543,4.59086 8.6153844,4.3039933 8.9400881,4.1873192 9.4847166,4.1386253 c 0.8899464,-0.079568 1.2687334,-0.00594 1.7192354,0.3341973 0.419374,0.3166299 0.913344,1.2726184 0.950254,1.8390421 0.02455,0.3767735 -0.05714,0.3935323 -0.278352,0.0571 -0.148699,-0.226153 -0.283019,-0.3549467 -0.370179,-0.3549467 -0.167854,0 -0.432357,0.3040287 -0.605902,0.6964422 -0.123163,0.2784962 -0.274314,0.7376312 -0.345237,1.0486972 -0.119378,0.5235883 -0.08334,1.1922043 0.125074,2.3204696 0.1101,0.596033 0.100309,0.567227 0.207955,0.611815 0.147792,0.06122 0.404735,0.326756 0.438875,0.453558 0.08157,0.302925 -0.195343,0.640663 -0.746279,0.910223 -0.47337,0.231613 -1.0359063,0.398145 -1.8847385,0.557953 -0.4613028,0.08685 -1.2752715,0.122944 -1.6083732,0.07132 z m 1.8987297,-1.937605 0.3201409,-0.27048 0.3181202,0.106526 c 0.1749665,0.05859 0.3212631,0.103345 0.3251034,0.09945 0.00378,-0.0039 -0.03177,-0.167911 -0.079119,-0.36449 C 9.8226638,10.121326 9.7836173,9.9369483 9.7832438,9.9081771 9.7828898,9.8794041 9.8634347,9.7134294 9.9622637,9.5393415 10.061097,9.3652517 10.134414,9.2152693 10.125191,9.2060455 10.115966,9.1968214 9.9512423,9.1836715 9.7591333,9.1768225 L 9.4098437,9.1643727 9.1920506,8.8372496 C 9.0722642,8.6573321 8.9659103,8.5184735 8.9557089,8.5286748 8.9455085,8.5388753 8.8961588,8.7161341 8.846045,8.9225803 L 8.7549299,9.2979366 8.4360671,9.4368046 C 8.260692,9.513182 8.1072535,9.5856234 8.0950923,9.5977846 8.0829305,9.6099463 8.2048517,9.7522625 8.3660271,9.9140451 l 0.2930468,0.2941499 -0.021452,0.404827 c -0.011798,0.222655 -0.010323,0.40472 0.00328,0.404591 0.013604,-1.28e-4 0.1687993,-0.12195 0.3448766,-0.270715 z M 7.7282747,10.041608 c 0.025042,-0.214832 0.051848,-0.3953861 0.05957,-0.4012326 0.00772,-0.00583 0.137988,-0.101727 0.2894822,-0.213068 C 8.228821,9.3159664 8.3462512,9.2143202 8.3382827,9.2014266 8.3303147,9.188534 8.1844579,9.0955181 8.0141584,8.9947262 L 7.7045236,8.8114691 7.6191716,8.4105451 C 7.572228,8.1900371 7.5247648,8.0096148 7.5136986,8.009607 7.5026307,8.0095988 7.3955177,8.1448944 7.2756672,8.3102636 L 7.0577563,8.610935 6.834125,8.592472 C 6.7111279,8.5823164 6.5465123,8.5663408 6.4683117,8.5569707 l -0.1421828,-0.017037 0.063526,0.1592618 c 0.03494,0.087593 0.1072239,0.2714198 0.1606315,0.4085028 L 6.6473918,9.35694 6.5027998,9.731136 c -0.079525,0.2058087 -0.1390679,0.37972 -0.1323161,0.386474 0.00676,0.0067 0.1867518,-0.02707 0.3999995,-0.07515 L 7.1582059,9.9550248 7.39069,10.201714 c 0.1278661,0.135679 0.2458867,0.243049 0.2622682,0.238597 0.016382,-0.0044 0.050274,-0.183863 0.075317,-0.398694 z M 9.7229938,8.3992211 V 7.984663 L 9.9985031,7.7260464 C 10.150033,7.5838068 10.260608,7.4616544 10.244226,7.4545956 10.227846,7.4475306 10.068063,7.3783224 9.8891549,7.3007869 L 9.5638672,7.1598121 9.4416259,6.7931777 C 9.3743933,6.5915292 9.3066282,6.4258577 9.291037,6.4250194 9.2754452,6.4241943 9.1872219,6.5595432 9.094985,6.7258236 9.0027474,6.8921045 8.9186696,7.0367634 8.9081445,7.0472882 8.8976181,7.0578146 8.7397221,7.0772132 8.5572603,7.0903973 8.3747985,7.103585 8.2189193,7.1209631 8.2108617,7.1290217 8.1976227,7.1422607 8.3242722,7.4002852 8.5072785,7.7329256 L 8.5762833,7.8583523 8.47538,8.2475731 C 8.419883,8.461644 8.382228,8.6445445 8.391702,8.6540175 c 0.00948,0.00948 0.1759618,-0.044527 0.3699749,-0.1200002 0.194013,-0.075474 0.3597486,-0.1372241 0.3683008,-0.1372241 0.00856,0 0.1354281,0.093187 0.2819453,0.2070814 0.146517,0.1138947 0.2764472,0.2077163 0.2887329,0.2084928 0.012287,7.78e-4 0.022339,-0.1851398 0.022336,-0.4131462 z"
     id="path92" />
  <rect
     style="opacity:0.5;fill:none;fill-opacity:0.996424;stroke:url(#linearGradient9);stroke-width:0.566102;stroke-dasharray:none;stroke-opacity:1"
     id="rect1-2-6"
     width="11.574203"
     height="11.508601"
     x="2.729686"
     y="2.6615164"
     rx="2.0246315"
     ry="2.0627522" />
</svg>
