<?xml version="1.0" encoding="UTF-8" standalone="no"?>
<svg
   width="64"
   height="64"
   version="1.1"
   viewBox="0 0 16.933 16.933"
   id="svg7"
   sodipodi:docname="Template 4.svg"
   inkscape:version="1.3.2 (091e20ef0f, 2023-11-25)"
   xmlns:inkscape="http://www.inkscape.org/namespaces/inkscape"
   xmlns:sodipodi="http://sodipodi.sourceforge.net/DTD/sodipodi-0.dtd"
   xmlns:xlink="http://www.w3.org/1999/xlink"
   xmlns="http://www.w3.org/2000/svg"
   xmlns:svg="http://www.w3.org/2000/svg"
   xmlns:rdf="http://www.w3.org/1999/02/22-rdf-syntax-ns#"
   xmlns:cc="http://creativecommons.org/ns#"
   xmlns:dc="http://purl.org/dc/elements/1.1/">
  <sodipodi:namedview
     id="namedview7"
     pagecolor="#9c4444"
     bordercolor="#000000"
     borderopacity="0.25"
     inkscape:showpageshadow="2"
     inkscape:pageopacity="0.0"
     inkscape:pagecheckerboard="0"
     inkscape:deskcolor="#d1d1d1"
     inkscape:zoom="4.3531261"
     inkscape:cx="32.964816"
     inkscape:cy="24.350317"
     inkscape:window-width="1463"
     inkscape:window-height="604"
     inkscape:window-x="42"
     inkscape:window-y="99"
     inkscape:window-maximized="0"
     inkscape:current-layer="svg7"
     showgrid="false" />
  <defs
     id="defs2">
    <linearGradient
       id="linearGradient5"
       inkscape:collect="always">
      <stop
         style="stop-color:#392713;stop-opacity:1;"
         offset="0"
         id="stop2" />
      <stop
         style="stop-color:#eed59e;stop-opacity:1;"
         offset="0.5"
         id="stop3" />
      <stop
         style="stop-color:#beaa8a;stop-opacity:1;"
         offset="1"
         id="stop4" />
    </linearGradient>
    <linearGradient
       id="linearGradient8"
       inkscape:collect="always">
      <stop
         style="stop-color:#1a1a1a;stop-opacity:1;"
         offset="0"
         id="stop8" />
      <stop
         style="stop-color:#ffffff;stop-opacity:0;"
         offset="1"
         id="stop9" />
    </linearGradient>
    <linearGradient
       inkscape:collect="always"
       xlink:href="#linearGradient5"
       id="linearGradient41"
       x1="13.675659"
       y1="16.110115"
       x2="13.728528"
       y2="10.548769"
       gradientUnits="userSpaceOnUse"
       gradientTransform="matrix(2.046153,0,0,2.046153,-18.798306,-18.911347)" />
    <linearGradient
       inkscape:collect="always"
       xlink:href="#linearGradient42"
       id="linearGradient4"
       x1="11.885941"
       y1="16.50819"
       x2="12.026573"
       y2="10.244942"
       gradientUnits="userSpaceOnUse"
       gradientTransform="matrix(2.046153,0,0,2.046153,-18.798306,-18.911347)" />
    <linearGradient
       id="linearGradient42"
       inkscape:collect="always">
      <stop
         style="stop-color:#010101;stop-opacity:1;"
         offset="0"
         id="stop42" />
      <stop
         style="stop-color:#6e6c6d;stop-opacity:1;"
         offset="1"
         id="stop43" />
    </linearGradient>
    <linearGradient
       inkscape:collect="always"
       xlink:href="#linearGradient8"
       id="linearGradient9"
       x1="9.3404646"
       y1="4.1692023"
       x2="9.4279938"
       y2="16.46883"
       gradientUnits="userSpaceOnUse"
       gradientTransform="matrix(1.05,0,0,1.05,-0.50277005,-0.1977751)" />
    <filter
       style="color-interpolation-filters:sRGB;"
       inkscape:label="Blur"
       id="filter2"
       x="-0.14510849"
       y="-0.14612901"
       width="1.290217"
       height="1.292258">
      <feGaussianBlur
         stdDeviation="0.6 0.6"
         result="blur"
         id="feGaussianBlur2" />
    </filter>
    <linearGradient
       inkscape:collect="always"
       xlink:href="#linearGradient5"
       id="linearGradient12"
       x1="9.0866127"
       y1="11.777634"
       x2="8.8996"
       y2="4.9254456"
       gradientUnits="userSpaceOnUse" />
  </defs>
  <metadata
     id="metadata2">
    <rdf:RDF>
      <cc:Work
         rdf:about="">
        <dc:format>image/svg+xml</dc:format>
        <dc:type
           rdf:resource="http://purl.org/dc/dcmitype/StillImage" />
      </cc:Work>
    </rdf:RDF>
  </metadata>
  <rect
     style="fill:#000000;fill-opacity:0.996424;stroke:#000000;stroke-width:0.911802;stroke-dasharray:none;stroke-opacity:1;filter:url(#filter2)"
     id="rect1-2-3"
     width="13.065404"
     height="12.974159"
     x="1.9816793"
     y="1.9267306"
     rx="2.7149384"
     ry="2.8310909" />
  <rect
     style="fill:url(#linearGradient4);fill-opacity:0.996424;stroke:url(#linearGradient41);stroke-width:0.911802;stroke-dasharray:none;stroke-opacity:1"
     id="rect1-2"
     width="13.065404"
     height="12.974159"
     x="1.9816793"
     y="1.9267306"
     rx="2.7149384"
     ry="2.8310909" />
  <path
     d="M 9.4008779,5.4596158 6.3284542,6.290695 C 6.0977403,6.3556448 5.9116438,6.6131865 5.9116438,6.8633857 V 10.829577 C 5.6775411,10.70109 5.3773584,10.649412 5.0655979,10.734129 c -0.5622421,0.153057 -0.9146675,0.647525 -0.7940861,1.104152 0.1202991,0.456628 0.6746341,0.712193 1.2368765,0.559136 0.4484385,-0.121993 0.7573749,-0.467923 0.8065114,-0.831926 L 6.328455,7.8175878 9.0829053,7.0443988 V 9.8875201 C 8.878736,9.8149456 8.6423739,9.7951782 8.3978223,9.8618224 7.8355801,10.014596 7.4837201,10.509063 7.6043014,10.965972 c 0.1205814,0.456628 0.6740694,0.711911 1.2363117,0.558855 0.3993019,-0.10844 0.686777,-0.394219 0.7802487,-0.712476 0.1005309,-0.185814 0.1462789,-0.395066 0.1462789,-0.478654 0,-0.02626 0.00332,-0.08867 0.00364,-0.116345 v -0.10392 c 0.013835,-0.102508 0.064103,-0.1852481 0.1985211,-0.1852481 0.1363962,0 0.1892032,0.083305 0.2092522,0.1852481 h 0.0048 v 0.463122 c 0,0.153622 0.09234,0.277592 0.206429,0.277592 0.113804,0 0.206429,-0.12397 0.206429,-0.277592 V 9.5576863 c 0,-0.081611 0.07625,-0.3702155 0.137525,-0.3702155 0.06099,0 0.137525,0.2886044 0.137525,0.3702155 v 0.092907 c 0,0.1536214 0.09291,0.2775906 0.206993,0.2775906 0.113804,0 0.206147,-0.1239692 0.206147,-0.2775906 V 8.8169735 c 0,-0.081894 0.07653,-0.185249 0.137807,-0.185249 0.06099,0 0.137524,0.1033552 0.137524,0.185249 v 0.092907 c 0,0.1533388 0.09234,0.2775911 0.206145,0.2775911 0.114087,0 0.20643,-0.1242523 0.20643,-0.2775911 V 8.6317246 h 0.619003 c 0.114086,0 0.206428,-0.1239701 0.206428,-0.2773089 0,-0.1536215 -0.09234,-0.2781561 -0.206428,-0.2781561 H 11.97234 V 7.7986684 c 0,-0.1533389 -0.09234,-0.2778736 -0.206429,-0.2778736 -0.113804,0 -0.206147,0.1245347 -0.206147,0.2778736 v 0.092342 c 0,0.081894 -0.07653,0.1852492 -0.137523,0.1852492 -0.06127,0 -0.137807,-0.1033555 -0.137807,-0.1852492 V 7.0579545 c 0,-0.1533387 -0.09234,-0.2781561 -0.206147,-0.2781561 -0.114086,0 -0.206993,0.1248174 -0.206993,0.2781561 v 0.092342 c 0,0.081894 -0.07653,0.3704981 -0.137525,0.3704981 -0.06127,0 -0.137525,-0.2886045 -0.137525,-0.3704981 V 6.1319912 c 0,-0.1533385 -0.09262,-0.2781558 -0.206428,-0.2781558 -0.114087,0 -0.206429,0.1248173 -0.206429,0.2781558 v 0.4628404 c -0.01412,0.1022261 -0.06637,0.1849668 -0.2140532,0.1849668 -0.134418,0 -0.1781896,-0.082741 -0.1923087,-0.1849668 L 9.7360772,6.4064764 C 9.735801,6.3790842 9.7027547,5.9859948 9.6942837,5.960862 9.6722606,5.8964767 9.6663265,5.8278554 9.6536201,5.7634701 9.6349803,5.6025067 9.5361439,5.4833376 9.4008779,5.4596166 Z"
     fill="url(#d)"
     fill-rule="nonzero"
     id="path11-7"
     style="fill:#000000;fill-opacity:1;stroke-width:0.282392;opacity:0.3" />
  <path
     d="M 9.4008779,4.9304596 6.3284542,5.7615388 C 6.0977403,5.8264886 5.9116438,6.0840303 5.9116438,6.3342295 V 10.300421 C 5.6775411,10.171934 5.3773584,10.120256 5.0655979,10.204973 4.5033558,10.35803 4.1509304,10.852498 4.2715118,11.309125 c 0.1202991,0.456628 0.6746341,0.712193 1.2368765,0.559136 0.4484385,-0.121993 0.7573749,-0.467923 0.8065114,-0.831926 L 6.328455,7.2884316 9.0829053,6.5152426 V 9.3583639 C 8.878736,9.2857894 8.6423739,9.266022 8.3978223,9.3326662 7.8355801,9.4854393 7.4837201,9.9799072 7.6043014,10.436816 c 0.1205814,0.456628 0.6740694,0.711911 1.2363117,0.558855 0.3993019,-0.10844 0.686777,-0.394219 0.7802487,-0.712476 0.1005309,-0.185814 0.1462789,-0.3950662 0.1462789,-0.4786538 0,-0.02626 0.00332,-0.088671 0.00364,-0.1163452 V 9.5842755 c 0.013835,-0.1025075 0.064103,-0.1852478 0.1985211,-0.1852478 0.1363962,0 0.1892032,0.083305 0.2092522,0.1852478 h 0.0048 v 0.4631225 c 0,0.153622 0.09234,0.277592 0.206429,0.277592 0.113804,0 0.206429,-0.12397 0.206429,-0.277592 V 9.0285301 c 0,-0.081611 0.07625,-0.3702155 0.137525,-0.3702155 0.06099,0 0.137525,0.2886044 0.137525,0.3702155 v 0.092907 c 0,0.1536214 0.09291,0.2775906 0.206993,0.2775906 0.113804,0 0.206147,-0.1239692 0.206147,-0.2775906 V 8.2878173 c 0,-0.081894 0.07653,-0.185249 0.137807,-0.185249 0.06099,0 0.137524,0.1033552 0.137524,0.185249 v 0.092907 c 0,0.1533387 0.09234,0.2775911 0.206145,0.2775911 0.114087,0 0.20643,-0.1242524 0.20643,-0.2775911 v -0.278156 h 0.619003 c 0.114086,0 0.206428,-0.1239701 0.206428,-0.2773089 0,-0.1536215 -0.09234,-0.278156 -0.206428,-0.278156 H 11.97234 V 7.2695122 c 0,-0.1533389 -0.09234,-0.2778736 -0.206429,-0.2778736 -0.113804,0 -0.206147,0.1245347 -0.206147,0.2778736 v 0.092342 c 0,0.081894 -0.07653,0.1852492 -0.137523,0.1852492 -0.06127,0 -0.137807,-0.1033555 -0.137807,-0.1852492 V 6.5287983 c 0,-0.1533387 -0.09234,-0.2781561 -0.206147,-0.2781561 -0.114086,0 -0.206993,0.1248174 -0.206993,0.2781561 v 0.092342 c 0,0.081894 -0.07653,0.3704981 -0.137525,0.3704981 -0.06127,0 -0.137525,-0.2886045 -0.137525,-0.3704981 V 5.602835 c 0,-0.1533385 -0.09262,-0.2781558 -0.206428,-0.2781558 -0.114087,0 -0.206429,0.1248173 -0.206429,0.2781558 v 0.4628404 c -0.01412,0.1022261 -0.06637,0.1849668 -0.2140532,0.1849668 -0.134418,0 -0.1781896,-0.082741 -0.1923087,-0.1849668 L 9.7360772,5.8773202 C 9.735801,5.849928 9.7027547,5.4568386 9.6942837,5.4317058 9.6722606,5.3673205 9.6663265,5.2986992 9.6536201,5.2343139 9.6349803,5.0733505 9.5361439,4.9541814 9.4008779,4.9304604 Z"
     fill="url(#d)"
     fill-rule="nonzero"
     id="path11"
     style="fill:url(#linearGradient12);fill-opacity:1;stroke-width:0.282392" />
  <rect
     style="opacity:0.5;fill:none;fill-opacity:0.996424;stroke:url(#linearGradient9);stroke-width:0.566102;stroke-dasharray:none;stroke-opacity:1"
     id="rect1-2-6"
     width="11.574203"
     height="11.508601"
     x="2.729686"
     y="2.6615164"
     rx="2.0246315"
     ry="2.0627522" />
</svg>
