<?xml version="1.0" encoding="UTF-8" standalone="no"?>
<svg
   width="64"
   height="64"
   version="1.1"
   viewBox="0 0 16.933 16.933"
   id="svg7"
   sodipodi:docname="Template 4.svg"
   inkscape:version="1.3.2 (091e20ef0f, 2023-11-25)"
   xmlns:inkscape="http://www.inkscape.org/namespaces/inkscape"
   xmlns:sodipodi="http://sodipodi.sourceforge.net/DTD/sodipodi-0.dtd"
   xmlns:xlink="http://www.w3.org/1999/xlink"
   xmlns="http://www.w3.org/2000/svg"
   xmlns:svg="http://www.w3.org/2000/svg"
   xmlns:rdf="http://www.w3.org/1999/02/22-rdf-syntax-ns#"
   xmlns:cc="http://creativecommons.org/ns#"
   xmlns:dc="http://purl.org/dc/elements/1.1/">
  <sodipodi:namedview
     id="namedview7"
     pagecolor="#9c4444"
     bordercolor="#000000"
     borderopacity="0.25"
     inkscape:showpageshadow="2"
     inkscape:pageopacity="0.0"
     inkscape:pagecheckerboard="0"
     inkscape:deskcolor="#d1d1d1"
     inkscape:zoom="8.7062522"
     inkscape:cx="32.849956"
     inkscape:cy="24.407747"
     inkscape:window-width="1356"
     inkscape:window-height="973"
     inkscape:window-x="35"
     inkscape:window-y="32"
     inkscape:window-maximized="0"
     inkscape:current-layer="svg7"
     showgrid="false" />
  <defs
     id="defs2">
    <linearGradient
       id="linearGradient5"
       inkscape:collect="always">
      <stop
         style="stop-color:#392713;stop-opacity:1;"
         offset="0"
         id="stop2" />
      <stop
         style="stop-color:#eed59e;stop-opacity:1;"
         offset="0.5"
         id="stop3" />
      <stop
         style="stop-color:#beaa8a;stop-opacity:1;"
         offset="1"
         id="stop4" />
    </linearGradient>
    <linearGradient
       id="linearGradient8"
       inkscape:collect="always">
      <stop
         style="stop-color:#1a1a1a;stop-opacity:1;"
         offset="0"
         id="stop8" />
      <stop
         style="stop-color:#ffffff;stop-opacity:0;"
         offset="1"
         id="stop9" />
    </linearGradient>
    <linearGradient
       inkscape:collect="always"
       xlink:href="#linearGradient5"
       id="linearGradient41"
       x1="13.675659"
       y1="16.110115"
       x2="13.728528"
       y2="10.548769"
       gradientUnits="userSpaceOnUse"
       gradientTransform="matrix(2.046153,0,0,2.046153,-18.798306,-18.911347)" />
    <linearGradient
       inkscape:collect="always"
       xlink:href="#linearGradient42"
       id="linearGradient4"
       x1="11.885941"
       y1="16.50819"
       x2="12.026573"
       y2="10.244942"
       gradientUnits="userSpaceOnUse"
       gradientTransform="matrix(2.046153,0,0,2.046153,-18.798306,-18.911347)" />
    <linearGradient
       id="linearGradient42"
       inkscape:collect="always">
      <stop
         style="stop-color:#010101;stop-opacity:1;"
         offset="0"
         id="stop42" />
      <stop
         style="stop-color:#6e6c6d;stop-opacity:1;"
         offset="1"
         id="stop43" />
    </linearGradient>
    <linearGradient
       inkscape:collect="always"
       xlink:href="#linearGradient8"
       id="linearGradient9"
       x1="9.3404646"
       y1="4.1692023"
       x2="9.4279938"
       y2="16.46883"
       gradientUnits="userSpaceOnUse"
       gradientTransform="matrix(1.05,0,0,1.05,-0.50277005,-0.1977751)" />
    <filter
       style="color-interpolation-filters:sRGB;"
       inkscape:label="Blur"
       id="filter2"
       x="-0.14510849"
       y="-0.14612901"
       width="1.290217"
       height="1.292258">
      <feGaussianBlur
         stdDeviation="0.6 0.6"
         result="blur"
         id="feGaussianBlur2" />
    </filter>
    <linearGradient
       inkscape:collect="always"
       xlink:href="#linearGradient5"
       id="linearGradient8-0"
       x1="33.129635"
       y1="45.267918"
       x2="33.025204"
       y2="19.020929"
       gradientUnits="userSpaceOnUse"
       gradientTransform="matrix(0.23017087,0,0,0.23573911,1.1985627,0.80580811)" />
  </defs>
  <metadata
     id="metadata2">
    <rdf:RDF>
      <cc:Work
         rdf:about="">
        <dc:format>image/svg+xml</dc:format>
        <dc:type
           rdf:resource="http://purl.org/dc/dcmitype/StillImage" />
      </cc:Work>
    </rdf:RDF>
  </metadata>
  <rect
     style="fill:#000000;fill-opacity:0.996424;stroke:#000000;stroke-width:0.911802;stroke-dasharray:none;stroke-opacity:1;filter:url(#filter2)"
     id="rect1-2-3"
     width="13.065404"
     height="12.974159"
     x="1.9816793"
     y="1.9267306"
     rx="2.7149384"
     ry="2.8310909" />
  <rect
     style="fill:url(#linearGradient4);fill-opacity:0.996424;stroke:url(#linearGradient41);stroke-width:0.911802;stroke-dasharray:none;stroke-opacity:1"
     id="rect1-2"
     width="13.065404"
     height="12.974159"
     x="1.9816793"
     y="1.9267306"
     rx="2.7149384"
     ry="2.8310909" />
  <path
     d="m 5.1913752,11.05637 -1.6756611,0.893726 c 0.4187519,-0.35735 0.8140864,-0.696481 1.1860051,-1.01739 l -0.00726,-0.0023 0.054029,-0.04611 C 4.6266509,10.824767 4.5104143,10.760836 4.3997568,10.692635 1.7476184,9.058064 7.4939175,4.6572906 10.146056,6.0403918 c 0.196454,0.1586 0.294684,0.363639 0.294684,0.6151121 0,0.2514733 0,0.3772094 -0.294684,0.6422495 -2.4556834,2.0117832 -3.7326392,3.0595886 -3.8308663,3.1434116 -0.098228,0.08383 -0.2455684,0.167648 -0.4420233,0.251471 l -0.1623319,0.08658 -0.018282,-0.03119 c 0.6382073,0.689439 1.9076782,0.752231 3.8084112,0.188372 0.8188983,-0.242942 2.3108843,-0.86905 4.4759603,-1.8783376 V 10.692633 C 9.948805,11.64343 7.0049739,11.764643 5.14543,11.056279 Z M 5.3475855,10.373264 C 7.699783,8.3273192 8.9554785,7.1345321 9.1146721,6.7949021 c 0.2946825,-0.6286825 -4.567571,0 -3.8308657,3.1434114 0.03214,0.1371355 0.074584,0.2640395 0.1273353,0.3807135 z"
     id="path20-3-6-6"
     fill="#f5f7fa"
     style="fill:#000000;stroke:none;stroke-width:0.229537;stroke-dasharray:none;stroke-opacity:0.3;opacity:0.3" />
  <path
     d="M 5.1913752,10.527214 3.5157141,11.42094 C 3.934466,11.06359 4.3298005,10.724459 4.7017192,10.40355 l -0.00726,-0.0023 0.054029,-0.04611 C 4.6266509,10.295611 4.5104143,10.23168 4.3997568,10.163479 1.7476184,8.5289078 7.4939175,4.1281344 10.146056,5.5112356 c 0.196454,0.1586 0.294684,0.363639 0.294684,0.6151121 0,0.2514733 0,0.3772094 -0.294684,0.6422495 C 7.6903726,8.7803804 6.4134168,9.8281855 6.3151897,9.9120088 6.216962,9.9958352 6.0696213,10.079657 5.8731664,10.16348 l -0.1623319,0.08658 -0.018282,-0.03119 c 0.6382073,0.689439 1.9076782,0.752231 3.8084112,0.188372 C 10.319862,10.1643 11.811848,9.5381913 13.976924,8.5289042 V 10.163477 C 9.948805,11.114274 7.0049739,11.235487 5.14543,10.527123 Z M 5.3475855,9.8441074 C 7.699783,7.798163 8.9554785,6.6053759 9.1146721,6.2657459 c 0.2946825,-0.6286825 -4.567571,0 -3.8308657,3.1434114 0.03214,0.1371353 0.074584,0.2640398 0.1273353,0.3807135 z"
     id="path20-3-6"
     fill="#f5f7fa"
     style="fill:url(#linearGradient8-0);stroke:none;stroke-width:0.229537;stroke-dasharray:none;stroke-opacity:0.3" />
  <rect
     style="opacity:0.5;fill:none;fill-opacity:0.996424;stroke:url(#linearGradient9);stroke-width:0.566102;stroke-dasharray:none;stroke-opacity:1"
     id="rect1-2-6"
     width="11.574203"
     height="11.508601"
     x="2.729686"
     y="2.6615164"
     rx="2.0246315"
     ry="2.0627522" />
</svg>
