<?xml version="1.0" encoding="UTF-8" standalone="no"?>
<svg
   width="64"
   height="64"
   version="1.1"
   viewBox="0 0 16.933 16.933"
   id="svg7"
   sodipodi:docname="Template 4.svg"
   inkscape:version="1.3.2 (091e20ef0f, 2023-11-25)"
   xmlns:inkscape="http://www.inkscape.org/namespaces/inkscape"
   xmlns:sodipodi="http://sodipodi.sourceforge.net/DTD/sodipodi-0.dtd"
   xmlns:xlink="http://www.w3.org/1999/xlink"
   xmlns="http://www.w3.org/2000/svg"
   xmlns:svg="http://www.w3.org/2000/svg"
   xmlns:rdf="http://www.w3.org/1999/02/22-rdf-syntax-ns#"
   xmlns:cc="http://creativecommons.org/ns#"
   xmlns:dc="http://purl.org/dc/elements/1.1/">
  <sodipodi:namedview
     id="namedview7"
     pagecolor="#9c4444"
     bordercolor="#000000"
     borderopacity="0.25"
     inkscape:showpageshadow="2"
     inkscape:pageopacity="0.0"
     inkscape:pagecheckerboard="0"
     inkscape:deskcolor="#d1d1d1"
     inkscape:zoom="4.3531261"
     inkscape:cx="32.849956"
     inkscape:cy="24.350317"
     inkscape:window-width="1356"
     inkscape:window-height="786"
     inkscape:window-x="35"
     inkscape:window-y="32"
     inkscape:window-maximized="0"
     inkscape:current-layer="svg7"
     showgrid="false" />
  <defs
     id="defs2">
    <linearGradient
       id="linearGradient5"
       inkscape:collect="always">
      <stop
         style="stop-color:#392713;stop-opacity:1;"
         offset="0"
         id="stop2" />
      <stop
         style="stop-color:#eed59e;stop-opacity:1;"
         offset="0.5"
         id="stop3" />
      <stop
         style="stop-color:#beaa8a;stop-opacity:1;"
         offset="1"
         id="stop4" />
    </linearGradient>
    <linearGradient
       id="linearGradient8"
       inkscape:collect="always">
      <stop
         style="stop-color:#1a1a1a;stop-opacity:1;"
         offset="0"
         id="stop8" />
      <stop
         style="stop-color:#ffffff;stop-opacity:0;"
         offset="1"
         id="stop9" />
    </linearGradient>
    <linearGradient
       inkscape:collect="always"
       xlink:href="#linearGradient5"
       id="linearGradient41"
       x1="13.675659"
       y1="16.110115"
       x2="13.728528"
       y2="10.548769"
       gradientUnits="userSpaceOnUse"
       gradientTransform="matrix(2.046153,0,0,2.046153,-18.798306,-18.911347)" />
    <linearGradient
       inkscape:collect="always"
       xlink:href="#linearGradient42"
       id="linearGradient4"
       x1="11.885941"
       y1="16.50819"
       x2="12.026573"
       y2="10.244942"
       gradientUnits="userSpaceOnUse"
       gradientTransform="matrix(2.046153,0,0,2.046153,-18.798306,-18.911347)" />
    <linearGradient
       id="linearGradient42"
       inkscape:collect="always">
      <stop
         style="stop-color:#010101;stop-opacity:1;"
         offset="0"
         id="stop42" />
      <stop
         style="stop-color:#6e6c6d;stop-opacity:1;"
         offset="1"
         id="stop43" />
    </linearGradient>
    <linearGradient
       inkscape:collect="always"
       xlink:href="#linearGradient8"
       id="linearGradient9"
       x1="9.3404646"
       y1="4.1692023"
       x2="9.4279938"
       y2="16.46883"
       gradientUnits="userSpaceOnUse"
       gradientTransform="matrix(1.05,0,0,1.05,-0.50277005,-0.1977751)" />
    <filter
       style="color-interpolation-filters:sRGB;"
       inkscape:label="Blur"
       id="filter2"
       x="-0.14510849"
       y="-0.14612901"
       width="1.290217"
       height="1.292258">
      <feGaussianBlur
         stdDeviation="0.6 0.6"
         result="blur"
         id="feGaussianBlur2" />
    </filter>
    <linearGradient
       inkscape:collect="always"
       xlink:href="#linearGradient5"
       id="linearGradient10"
       x1="31.374861"
       y1="49.620422"
       x2="30.863852"
       y2="14.79537"
       gradientUnits="userSpaceOnUse"
       gradientTransform="matrix(0.23573911,0,0,0.23573911,0.94719077,0.75241096)" />
  </defs>
  <metadata
     id="metadata2">
    <rdf:RDF>
      <cc:Work
         rdf:about="">
        <dc:format>image/svg+xml</dc:format>
        <dc:type
           rdf:resource="http://purl.org/dc/dcmitype/StillImage" />
      </cc:Work>
    </rdf:RDF>
  </metadata>
  <rect
     style="fill:#000000;fill-opacity:0.996424;stroke:#000000;stroke-width:0.911802;stroke-dasharray:none;stroke-opacity:1;filter:url(#filter2)"
     id="rect1-2-3"
     width="13.065404"
     height="12.974159"
     x="1.9816793"
     y="1.9267306"
     rx="2.7149384"
     ry="2.8310909" />
  <rect
     style="fill:url(#linearGradient4);fill-opacity:0.996424;stroke:url(#linearGradient41);stroke-width:0.911802;stroke-dasharray:none;stroke-opacity:1"
     id="rect1-2"
     width="13.065404"
     height="12.974159"
     x="1.9816793"
     y="1.9267306"
     rx="2.7149384"
     ry="2.8310909" />
  <path
     id="path36-0"
     style="fill:#000000;fill-opacity:1;stroke-width:0.0421221;stroke-opacity:0.3;opacity:0.3"
     d="m 9.8585258,4.768481 c -0.080587,0 -0.6337836,0.4859665 -0.8377029,0.7359021 -0.2074492,0.2542601 -0.4973547,0.7917293 -0.4973547,0.9217772 0,0.047335 0.036352,0.069399 0.1154751,0.069893 0.2450164,0.00153 0.7188164,0.1309346 1.0215518,0.2790653 0.4210759,0.2060348 0.8178489,0.6043222 1.0271229,1.031174 0.08377,0.1708593 0.16412,0.377272 0.178278,0.4583561 l 0.02582,0.1473831 -0.07445,-0.1053459 C 10.647829,8.0656609 10.34064,7.78665 10.12189,7.6751169 9.9391055,7.5819213 9.5207386,7.4644248 9.3718065,7.4644248 c -0.011408,0 0.069558,0.064088 0.1803045,0.1428246 0.996398,0.7084133 0.966818,2.1974786 -0.057228,2.8813116 -0.5094851,0.340222 -1.1134671,0.36623 -1.7088333,0.07394 C 6.9709868,10.162367 6.4870735,9.2872684 6.8622422,8.8926724 7.1061934,8.6360899 7.3993883,8.5123736 7.9020271,8.4545753 8.097274,8.4321235 8.1851271,8.3947254 8.3548129,8.2605969 8.4706135,8.1690613 8.5644508,8.0707277 8.5629727,8.0423084 8.5614874,8.0138893 8.3954979,7.9104809 8.1942618,7.8123705 7.9930257,7.7142599 7.6831393,7.5175743 7.5054609,7.375286 L 7.1823325,7.1164795 7.1342194,6.8404529 C 7.1063736,6.6805579 7.0986025,6.4500691 7.1154781,6.2924519 L 7.144342,6.0204768 6.9640392,6.1212645 C 6.8648625,6.1765811 6.6432468,6.3524619 6.4717491,6.5122602 6.2939106,6.6779652 6.145017,6.786553 6.1248159,6.7649885 6.0651772,6.7013193 5.9961728,6.295593 5.9961728,6.0088283 c 0,-0.1494455 -0.016603,-0.2714683 -0.03647,-0.2714683 -0.019866,0 -0.1953341,0.1654921 -0.3904887,0.3682038 -0.7893474,0.819914 -1.143535,1.696265 -1.1446241,2.8331975 -6.129e-4,0.6418676 0.1008131,1.0960417 0.3742821,1.6784437 0.2270197,0.483481 0.4677054,0.824199 0.8452999,1.196283 0.6242142,0.615106 1.3503908,0.990726 2.2183429,1.14817 0.9586564,0.173895 2.0212593,-0.02831 2.9020781,-0.55256 0.730334,-0.434681 1.430213,-1.276443 1.714403,-2.061842 C 12.69096,9.7614766 12.75022,9.3759906 12.724131,8.7503538 12.696324,8.0835122 12.575695,7.6294146 12.274386,7.0562095 12.086749,6.699255 11.727721,6.1832359 11.691946,6.2190132 c -0.0085,0.00842 0.02507,0.094658 0.07445,0.1914464 0.104345,0.2045326 0.253237,0.7571907 0.253237,0.940516 0,0.1182008 -0.01444,0.1070338 -0.224873,-0.1762519 C 11.671155,7.0083286 11.29055,6.5867643 10.948955,6.2377528 10.321554,5.5967301 10.036464,5.2242418 9.9481685,4.9295387 9.9216086,4.840884 9.8812373,4.768481 9.8585285,4.768481 Z M 9.086664,7.8483297 C 9.062408,7.8468297 9.036875,7.8538497 9.0036,7.8655507 8.90953,7.8986337 8.8764841,7.9478567 8.8334257,8.117267 8.7928297,8.2769739 8.7308572,8.3745017 8.5776589,8.5209243 8.3996278,8.6910793 8.3465955,8.7172942 8.1299375,8.7427583 7.8514938,8.7754843 7.7046316,8.8408203 7.5601572,8.9954873 7.4737512,9.0879843 7.4640092,9.1283377 7.4887472,9.2932921 7.5456412,9.6726972 7.9293738,10.07319 8.3421509,10.184174 8.7551113,10.295208 8.9998465,10.235034 9.2811481,9.9537297 9.7852221,9.4496549 9.7939677,8.5368751 9.2998895,8.0139468 9.1876968,7.8952016 9.1400341,7.8516785 9.086666,7.8483303 Z" />
  <path
     id="path36"
     style="fill:url(#linearGradient10);fill-opacity:1;stroke-width:0.0421221;stroke-opacity:0.3"
     d="m 9.8585258,4.2393248 c -0.080587,0 -0.6337836,0.4859665 -0.8377029,0.7359021 -0.2074492,0.2542601 -0.4973547,0.7917293 -0.4973547,0.9217772 0,0.047335 0.036352,0.069399 0.1154751,0.069893 0.2450164,0.00153 0.7188164,0.1309346 1.0215518,0.2790653 0.4210759,0.2060348 0.8178489,0.6043222 1.0271229,1.031174 0.08377,0.1708593 0.16412,0.377272 0.178278,0.4583561 l 0.02582,0.1473831 -0.07445,-0.1053459 C 10.647829,7.5365047 10.34064,7.2574938 10.12189,7.1459607 9.9391055,7.0527651 9.5207386,6.9352686 9.3718065,6.9352686 c -0.011408,0 0.069558,0.064088 0.1803045,0.1428246 0.996398,0.7084133 0.966818,2.1974786 -0.057228,2.881312 C 8.9853979,10.299627 8.3814159,10.325635 7.7860497,10.033349 6.9709868,9.6332109 6.4870735,8.7581122 6.8622422,8.3635162 7.1061934,8.1069337 7.3993883,7.9832174 7.9020271,7.9254191 8.097274,7.9029673 8.1851271,7.8655692 8.3548129,7.7314407 8.4706135,7.6399051 8.5644508,7.5415715 8.5629727,7.5131522 8.5614874,7.4847331 8.3954979,7.3813247 8.1942618,7.2832143 7.9930257,7.1851037 7.6831393,6.9884181 7.5054609,6.8461298 L 7.1823325,6.5873233 7.1342194,6.3112967 C 7.1063736,6.1514017 7.0986025,5.9209129 7.1154781,5.7632957 L 7.144342,5.4913206 6.9640392,5.5921083 C 6.8648625,5.6474249 6.6432468,5.8233057 6.4717491,5.983104 6.2939106,6.148809 6.145017,6.2573968 6.1248159,6.2358323 6.0651772,6.1721631 5.9961728,5.7664368 5.9961728,5.4796721 c 0,-0.1494455 -0.016603,-0.2714683 -0.03647,-0.2714683 -0.019866,0 -0.1953341,0.1654921 -0.3904887,0.3682038 -0.7893474,0.819914 -1.143535,1.696265 -1.1446241,2.8331975 -6.129e-4,0.6418676 0.1008131,1.0960418 0.3742821,1.6784439 0.2270197,0.483481 0.4677054,0.824199 0.8452999,1.196283 0.6242142,0.615106 1.3503908,0.990726 2.2183429,1.14817 0.9586564,0.173895 2.0212593,-0.02831 2.9020781,-0.55256 0.730334,-0.434681 1.430213,-1.276443 1.714403,-2.0618418 C 12.69096,9.2323204 12.75022,8.8468344 12.724131,8.2211976 12.696324,7.554356 12.575695,7.1002584 12.274386,6.5270533 12.086749,6.1700988 11.727721,5.6540797 11.691946,5.689857 c -0.0085,0.00842 0.02507,0.094658 0.07445,0.1914464 0.104345,0.2045326 0.253237,0.7571907 0.253237,0.940516 0,0.1182008 -0.01444,0.1070338 -0.224873,-0.1762519 C 11.671155,6.4791724 11.29055,6.0576081 10.948955,5.7085966 10.321554,5.0675739 10.036464,4.6950856 9.9481685,4.4003825 9.9216086,4.3117278 9.8812373,4.2393248 9.8585285,4.2393248 Z M 9.086664,7.3191735 C 9.062408,7.3176735 9.036875,7.3246935 9.0036,7.3363945 8.90953,7.3694775 8.8764841,7.4187005 8.8334257,7.5881108 8.7928297,7.7478177 8.7308572,7.8453455 8.5776589,7.9917681 8.3996278,8.1619231 8.3465955,8.188138 8.1299375,8.2136021 7.8514938,8.2463281 7.7046316,8.3116641 7.5601572,8.4663311 7.4737512,8.5588281 7.4640092,8.5991815 7.4887472,8.7641359 7.5456412,9.143541 7.9293738,9.5440338 8.3421509,9.6550179 8.7551113,9.7660516 8.9998465,9.7058779 9.2811481,9.4245735 9.7852221,8.9204987 9.7939677,8.0077189 9.2998895,7.4847906 9.1876968,7.3660454 9.1400341,7.3225223 9.086666,7.3191741 Z" />
  <rect
     style="opacity:0.5;fill:none;fill-opacity:0.996424;stroke:url(#linearGradient9);stroke-width:0.566102;stroke-dasharray:none;stroke-opacity:1"
     id="rect1-2-6"
     width="11.574203"
     height="11.508601"
     x="2.729686"
     y="2.6615164"
     rx="2.0246315"
     ry="2.0627522" />
</svg>
