<?xml version="1.0" encoding="UTF-8" standalone="no"?>
<svg
   width="64"
   height="64"
   version="1.1"
   viewBox="0 0 16.933 16.933"
   id="svg7"
   sodipodi:docname="Template 4.svg"
   inkscape:version="1.3.2 (091e20ef0f, 2023-11-25)"
   xmlns:inkscape="http://www.inkscape.org/namespaces/inkscape"
   xmlns:sodipodi="http://sodipodi.sourceforge.net/DTD/sodipodi-0.dtd"
   xmlns:xlink="http://www.w3.org/1999/xlink"
   xmlns="http://www.w3.org/2000/svg"
   xmlns:svg="http://www.w3.org/2000/svg"
   xmlns:rdf="http://www.w3.org/1999/02/22-rdf-syntax-ns#"
   xmlns:cc="http://creativecommons.org/ns#"
   xmlns:dc="http://purl.org/dc/elements/1.1/">
  <sodipodi:namedview
     id="namedview7"
     pagecolor="#9c4444"
     bordercolor="#000000"
     borderopacity="0.25"
     inkscape:showpageshadow="2"
     inkscape:pageopacity="0.0"
     inkscape:pagecheckerboard="0"
     inkscape:deskcolor="#d1d1d1"
     inkscape:zoom="4.3531261"
     inkscape:cx="32.964816"
     inkscape:cy="24.350317"
     inkscape:window-width="1463"
     inkscape:window-height="604"
     inkscape:window-x="199"
     inkscape:window-y="276"
     inkscape:window-maximized="0"
     inkscape:current-layer="svg7"
     showgrid="false" />
  <defs
     id="defs2">
    <linearGradient
       id="linearGradient5"
       inkscape:collect="always">
      <stop
         style="stop-color:#392713;stop-opacity:1;"
         offset="0"
         id="stop2" />
      <stop
         style="stop-color:#eed59e;stop-opacity:1;"
         offset="0.5"
         id="stop3" />
      <stop
         style="stop-color:#beaa8a;stop-opacity:1;"
         offset="1"
         id="stop4" />
    </linearGradient>
    <linearGradient
       id="linearGradient8"
       inkscape:collect="always">
      <stop
         style="stop-color:#1a1a1a;stop-opacity:1;"
         offset="0"
         id="stop8" />
      <stop
         style="stop-color:#ffffff;stop-opacity:0;"
         offset="1"
         id="stop9" />
    </linearGradient>
    <linearGradient
       inkscape:collect="always"
       xlink:href="#linearGradient5"
       id="linearGradient41"
       x1="13.675659"
       y1="16.110115"
       x2="13.728528"
       y2="10.548769"
       gradientUnits="userSpaceOnUse"
       gradientTransform="matrix(2.046153,0,0,2.046153,-18.798306,-18.911347)" />
    <linearGradient
       inkscape:collect="always"
       xlink:href="#linearGradient42"
       id="linearGradient4"
       x1="11.885941"
       y1="16.50819"
       x2="12.026573"
       y2="10.244942"
       gradientUnits="userSpaceOnUse"
       gradientTransform="matrix(2.046153,0,0,2.046153,-18.798306,-18.911347)" />
    <linearGradient
       id="linearGradient42"
       inkscape:collect="always">
      <stop
         style="stop-color:#010101;stop-opacity:1;"
         offset="0"
         id="stop42" />
      <stop
         style="stop-color:#6e6c6d;stop-opacity:1;"
         offset="1"
         id="stop43" />
    </linearGradient>
    <linearGradient
       inkscape:collect="always"
       xlink:href="#linearGradient8"
       id="linearGradient9"
       x1="9.3404646"
       y1="4.1692023"
       x2="9.4279938"
       y2="16.46883"
       gradientUnits="userSpaceOnUse"
       gradientTransform="matrix(1.05,0,0,1.05,-0.50277005,-0.1977751)" />
    <filter
       style="color-interpolation-filters:sRGB;"
       inkscape:label="Blur"
       id="filter2"
       x="-0.14510849"
       y="-0.14612901"
       width="1.290217"
       height="1.292258">
      <feGaussianBlur
         stdDeviation="0.6 0.6"
         result="blur"
         id="feGaussianBlur2" />
    </filter>
    <linearGradient
       inkscape:collect="always"
       xlink:href="#linearGradient5"
       id="linearGradient27"
       x1="9.201685"
       y1="12.594537"
       x2="9.3031054"
       y2="4.2579293"
       gradientUnits="userSpaceOnUse" />
  </defs>
  <metadata
     id="metadata2">
    <rdf:RDF>
      <cc:Work
         rdf:about="">
        <dc:format>image/svg+xml</dc:format>
        <dc:type
           rdf:resource="http://purl.org/dc/dcmitype/StillImage" />
      </cc:Work>
    </rdf:RDF>
  </metadata>
  <rect
     style="fill:#000000;fill-opacity:0.996424;stroke:#000000;stroke-width:0.911802;stroke-dasharray:none;stroke-opacity:1;filter:url(#filter2)"
     id="rect1-2-3"
     width="13.065404"
     height="12.974159"
     x="1.9816793"
     y="1.9267306"
     rx="2.7149384"
     ry="2.8310909" />
  <rect
     style="fill:url(#linearGradient4);fill-opacity:0.996424;stroke:url(#linearGradient41);stroke-width:0.911802;stroke-dasharray:none;stroke-opacity:1"
     id="rect1-2"
     width="13.065404"
     height="12.974159"
     x="1.9816793"
     y="1.9267306"
     rx="2.7149384"
     ry="2.8310909" />
  <path
     id="path6-5"
     style="fill:#000000;stroke:none;stroke-width:0.0226358;stroke-opacity:0.33;opacity:0.3"
     d="m 8.5037706,4.7317151 c -2.7199875,0 -3.1120138,0.00193 -3.1911424,0.016952 -0.4336659,0.082265 -0.789955,0.3925722 -0.9229488,0.8035305 -0.06213,0.1919829 -0.058768,6.704e-4 -0.058768,3.3501155 0,2.5110019 0.00281,3.1265179 0.014692,3.1858689 0.019242,0.09607 0.066175,0.240422 0.1013361,0.311542 0.079255,0.160311 0.2283914,0.337641 0.3752068,0.446407 0.1268246,0.09395 0.3165075,0.176305 0.4833238,0.209451 0.064547,0.01282 0.6075718,0.01531 3.186245,0.0162 2.7914839,9.9e-4 3.1179699,-4.8e-4 3.2028209,-0.01658 0.423856,-0.0804 0.778622,-0.385812 0.913908,-0.786954 0.06806,-0.201779 0.06367,0.02278 0.06367,-3.3659365 0,-2.6272826 -0.0024,-3.1246427 -0.01582,-3.1915191 C 12.55834,5.2226009 12.193584,4.8514185 11.715255,4.7539413 11.606683,4.7318159 11.553679,4.7317151 8.5037706,4.7317151 Z M 4.8684826,6.1236725 H 8.5015101 12.134538 V 6.8763467 7.6290209 H 8.5015101 4.8684826 V 6.8763467 Z M 6.8036613,6.508674 V 7.0631967 7.6177194 H 7.2225669 7.6414728 V 7.0631967 6.508674 H 7.2225669 Z m 2.3371321,1.7600068 c 0.115416,0 0.1294705,0.0022 0.1906172,0.033151 0.1688802,0.085496 0.2685146,0.2804893 0.234316,0.4588376 C 9.5316871,8.9381864 9.4010675,9.0735785 9.2281909,9.1102593 9.0838591,9.1408834 8.9430576,9.098621 8.8375389,8.9931013 8.6302455,8.785808 8.6855386,8.441508 8.9482926,8.304092 9.0126366,8.270441 9.0231486,8.268681 9.1407934,8.2686808 Z m 1.2789426,0 c 0.115474,0 0.129394,0.00213 0.190617,0.033151 0.03896,0.019741 0.09095,0.060219 0.126576,0.098699 0.22604,0.2441491 0.09777,0.640227 -0.229795,0.7097289 -0.07368,0.015635 -0.11591,0.015124 -0.18911,-0.00302 -0.3867535,-0.095834 -0.4457377,-0.6175219 -0.09079,-0.8031548 0.06434,-0.033651 0.07485,-0.035411 0.1925,-0.035411 z m 1.278942,0 c 0.115474,0 0.129395,0.00213 0.190619,0.033151 0.03896,0.019741 0.09095,0.060219 0.126576,0.098699 0.227149,0.2453478 0.09938,0.6398853 -0.229796,0.7097283 -0.145604,0.030894 -0.285336,-0.011457 -0.391029,-0.1186647 -0.208432,-0.2114178 -0.150708,-0.5492613 0.118288,-0.6908933 0.05619,-0.029587 0.07051,-0.032021 0.185342,-0.03202 z m -5.3779639,0.417022 c 0.5334461,-0.020977 1.0251341,0.287379 1.2390117,0.8012703 0.1062879,0.2553827 0.1213471,0.5666219 0.040685,0.8449689 -0.1351691,0.466441 -0.529904,0.816708 -1.015997,0.901476 -0.1200197,0.02094 -0.3205867,0.021 -0.434351,3.86e-4 C 5.575323,11.129621 5.1537751,10.673858 5.093004,10.090854 5.0264535,9.4524075 5.4615468,8.8519613 6.0901653,8.7150957 6.1673758,8.6982844 6.2445077,8.6887087 6.3207141,8.6857118 Z m 2.8200793,0.8619211 c 0.1179405,0 0.1283553,0.00166 0.1936308,0.035789 0.040174,0.021002 0.09298,0.062316 0.1265759,0.099076 0.2226942,0.2436619 0.092909,0.6376041 -0.2328092,0.7067141 -0.1443318,0.03062 -0.2851333,-0.01164 -0.390652,-0.117158 -0.2072934,-0.207293 -0.1520003,-0.5515941 0.1107537,-0.6890099 0.064344,-0.033652 0.074856,-0.03541 0.1925008,-0.035411 z m 1.2789426,0 c 0.115416,0 0.129471,0.0022 0.190617,0.033151 0.03897,0.01973 0.09051,0.060147 0.126199,0.098699 0.226647,0.2448068 0.099,0.6400471 -0.229418,0.7097291 -0.07368,0.01564 -0.11591,0.01475 -0.18911,-0.0033 -0.225849,-0.05596 -0.3653083,-0.276896 -0.317947,-0.5040442 0.02804,-0.1345009 0.106151,-0.2346029 0.235069,-0.3025012 0.05565,-0.029306 0.06997,-0.031643 0.18459,-0.031643 z m 1.278942,0 c 0.115416,0 0.129471,0.0022 0.190619,0.033151 0.03897,0.01973 0.09051,0.060147 0.126199,0.098699 0.227199,0.2454022 0.09979,0.6398781 -0.229419,0.7097281 -0.144333,0.03063 -0.285133,-0.01163 -0.390653,-0.117157 -0.209066,-0.209067 -0.150905,-0.5508629 0.117912,-0.6924002 0.05619,-0.029587 0.07051,-0.032021 0.185342,-0.032021 z M 9.1407934,10.82619 c 0.1148362,0 0.1295257,0.0028 0.18572,0.0324 0.083065,0.04373 0.1608126,0.119061 0.1973979,0.191371 0.1111099,0.219604 0.020469,0.483229 -0.2019185,0.587297 -0.080181,0.03752 -0.2029864,0.05155 -0.2802751,0.03202 -0.119103,-0.03009 -0.2318789,-0.121089 -0.2847955,-0.229417 -0.1069622,-0.218962 -0.023076,-0.464589 0.1985281,-0.581268 0.056194,-0.02959 0.070507,-0.0324 0.1853431,-0.0324 z m 1.2789426,0 c 0.117941,0 0.128355,0.0021 0.193631,0.03616 0.04018,0.02101 0.09298,0.06232 0.126576,0.09908 0.194311,0.212607 0.124329,0.552595 -0.139007,0.675825 -0.08587,0.04018 -0.206974,0.05212 -0.288564,0.02825 -0.3886012,-0.113681 -0.4373416,-0.617713 -0.07798,-0.806924 0.05619,-0.02959 0.07052,-0.0324 0.185343,-0.0324 z m 1.278942,0 c 0.115416,0 0.129471,0.0025 0.190619,0.03353 0.03897,0.01972 0.09051,0.06015 0.126199,0.0987 0.19826,0.214144 0.130471,0.55412 -0.135241,0.678461 -0.258773,0.121095 -0.559567,-0.03976 -0.606132,-0.324351 -0.02912,-0.177967 0.06257,-0.357474 0.228665,-0.447536 0.06903,-0.03743 0.07561,-0.03881 0.19589,-0.03881 z" />
  <path
     id="path6"
     style="fill:url(#linearGradient27);stroke:none;stroke-width:0.0226358;stroke-opacity:0.33"
     d="m 8.5037706,4.2025589 c -2.7199875,0 -3.1120138,0.00193 -3.1911424,0.016952 -0.4336659,0.082265 -0.789955,0.3925722 -0.9229488,0.8035305 -0.06213,0.1919829 -0.058768,6.704e-4 -0.058768,3.3501155 0,2.5110021 0.00281,3.1265181 0.014692,3.1858691 0.019242,0.09607 0.066175,0.240422 0.1013361,0.311542 0.079255,0.160311 0.2283914,0.337641 0.3752068,0.446407 0.1268246,0.09395 0.3165075,0.176305 0.4833238,0.209451 0.064547,0.01282 0.6075718,0.01531 3.186245,0.0162 2.7914839,9.9e-4 3.1179699,-4.8e-4 3.2028209,-0.01658 0.423856,-0.0804 0.778622,-0.385812 0.913908,-0.786954 0.06806,-0.201779 0.06367,0.02278 0.06367,-3.3659367 0,-2.6272826 -0.0024,-3.1246427 -0.01582,-3.1915191 C 12.55834,4.6934447 12.193584,4.3222623 11.715255,4.2247851 11.606683,4.2026597 11.553679,4.2025589 8.5037706,4.2025589 Z M 4.8684826,5.5945163 H 8.5015101 12.134538 V 6.3471905 7.0998647 H 8.5015101 4.8684826 V 6.3471905 Z M 6.8036613,5.9795178 V 6.5340405 7.0885632 H 7.2225669 7.6414728 V 6.5340405 5.9795178 H 7.2225669 Z m 2.3371321,1.7600068 c 0.115416,0 0.1294705,0.0022 0.1906172,0.033151 0.1688802,0.085496 0.2685146,0.2804893 0.234316,0.4588376 C 9.5316871,8.4090302 9.4010675,8.5444223 9.2281909,8.5811031 9.0838591,8.6117272 8.9430576,8.5694648 8.8375389,8.4639451 8.6302455,8.2566518 8.6855386,7.9123518 8.9482926,7.7749358 c 0.064344,-0.033651 0.074856,-0.035411 0.1925008,-0.035411 z m 1.2789426,0 c 0.115474,0 0.129394,0.00213 0.190617,0.033151 0.03896,0.019741 0.09095,0.060219 0.126576,0.098699 0.22604,0.2441491 0.09777,0.640227 -0.229795,0.7097289 -0.07368,0.015635 -0.11591,0.015124 -0.18911,-0.00302 -0.3867535,-0.095834 -0.4457377,-0.6175218 -0.09079,-0.8031547 0.06434,-0.033651 0.07485,-0.035411 0.1925,-0.035411 z m 1.278942,0 c 0.115474,0 0.129395,0.00213 0.190619,0.033151 0.03896,0.019741 0.09095,0.060219 0.126576,0.098699 0.227149,0.2453478 0.09938,0.6398853 -0.229796,0.7097283 -0.145604,0.030894 -0.285336,-0.011457 -0.391029,-0.1186647 -0.208432,-0.2114178 -0.150708,-0.5492613 0.118288,-0.6908933 0.05619,-0.029587 0.07051,-0.032021 0.185342,-0.03202 z m -5.3779639,0.417022 c 0.5334461,-0.020977 1.0251341,0.287379 1.2390117,0.8012703 0.1062879,0.2553827 0.1213471,0.5666217 0.040685,0.8449692 -0.1351691,0.4664409 -0.529904,0.8167079 -1.015997,0.9014759 -0.1200197,0.02094 -0.3205867,0.021 -0.434351,3.86e-4 C 5.575323,10.600465 5.1537751,10.144702 5.093004,9.561698 5.0264535,8.9232513 5.4615468,8.3228051 6.0901653,8.1859395 6.1673758,8.1691282 6.2445077,8.1595525 6.3207141,8.1565556 Z m 2.8200793,0.8619211 c 0.1179405,0 0.1283553,0.00166 0.1936308,0.035789 0.040174,0.021002 0.09298,0.062316 0.1265759,0.099076 C 9.6836943,9.3969946 9.5539088,9.7909366 9.2281909,9.8600466 9.0838591,9.8906702 8.9430576,9.8484085 8.8375389,9.7428883 8.6302455,9.5355954 8.6855386,9.1912947 8.9482926,9.0538789 c 0.064344,-0.033652 0.074856,-0.03541 0.1925008,-0.035411 z m 1.2789426,0 c 0.115416,0 0.129471,0.0022 0.190617,0.033151 0.03897,0.01973 0.09051,0.060147 0.126199,0.098699 0.226647,0.2448068 0.099,0.6400469 -0.229418,0.7097288 -0.07368,0.015641 -0.11591,0.01475 -0.18911,-0.00332 -0.225849,-0.055963 -0.3653083,-0.2768956 -0.317947,-0.5040439 0.02804,-0.1345009 0.106151,-0.234603 0.235069,-0.3025012 0.05565,-0.029306 0.06997,-0.031643 0.18459,-0.031643 z m 1.278942,0 c 0.115416,0 0.129471,0.0022 0.190619,0.033151 0.03897,0.01973 0.09051,0.060147 0.126199,0.098699 0.227199,0.2454022 0.09979,0.6398776 -0.229419,0.709728 -0.144333,0.030626 -0.285133,-0.011632 -0.390653,-0.1171572 -0.209066,-0.2090666 -0.150905,-0.5508626 0.117912,-0.6924 0.05619,-0.029587 0.07051,-0.032021 0.185342,-0.032021 z M 9.1407934,10.297034 c 0.1148362,0 0.1295257,0.0028 0.18572,0.0324 0.083065,0.04373 0.1608126,0.119061 0.1973979,0.191371 0.1111099,0.219604 0.020469,0.483229 -0.2019185,0.587297 -0.080181,0.03752 -0.2029864,0.05155 -0.2802751,0.03202 -0.119103,-0.03009 -0.2318789,-0.121089 -0.2847955,-0.229417 -0.1069622,-0.218962 -0.023076,-0.464589 0.1985281,-0.581268 0.056194,-0.02959 0.070507,-0.0324 0.1853431,-0.0324 z m 1.2789426,0 c 0.117941,0 0.128355,0.0021 0.193631,0.03616 0.04018,0.02101 0.09298,0.06232 0.126576,0.09908 0.194311,0.212607 0.124329,0.552595 -0.139007,0.675825 -0.08587,0.04018 -0.206974,0.05212 -0.288564,0.02825 -0.3886012,-0.113681 -0.4373416,-0.617713 -0.07798,-0.806924 0.05619,-0.02959 0.07052,-0.0324 0.185343,-0.0324 z m 1.278942,0 c 0.115416,0 0.129471,0.0025 0.190619,0.03353 0.03897,0.01972 0.09051,0.06015 0.126199,0.0987 0.19826,0.214144 0.130471,0.55412 -0.135241,0.678461 -0.258773,0.121095 -0.559567,-0.03976 -0.606132,-0.324351 -0.02912,-0.177967 0.06257,-0.357474 0.228665,-0.447536 0.06903,-0.03743 0.07561,-0.03881 0.19589,-0.03881 z" />
  <rect
     style="opacity:0.5;fill:none;fill-opacity:0.996424;stroke:url(#linearGradient9);stroke-width:0.566102;stroke-dasharray:none;stroke-opacity:1"
     id="rect1-2-6"
     width="11.574203"
     height="11.508601"
     x="2.729686"
     y="2.6615164"
     rx="2.0246315"
     ry="2.0627522" />
</svg>
