<?xml version="1.0" encoding="UTF-8" standalone="no"?>
<svg
   width="64"
   height="64"
   version="1.1"
   viewBox="0 0 16.933 16.933"
   id="svg7"
   sodipodi:docname="Template 4.svg"
   inkscape:version="1.3.2 (091e20ef0f, 2023-11-25)"
   xmlns:inkscape="http://www.inkscape.org/namespaces/inkscape"
   xmlns:sodipodi="http://sodipodi.sourceforge.net/DTD/sodipodi-0.dtd"
   xmlns:xlink="http://www.w3.org/1999/xlink"
   xmlns="http://www.w3.org/2000/svg"
   xmlns:svg="http://www.w3.org/2000/svg"
   xmlns:rdf="http://www.w3.org/1999/02/22-rdf-syntax-ns#"
   xmlns:cc="http://creativecommons.org/ns#"
   xmlns:dc="http://purl.org/dc/elements/1.1/">
  <sodipodi:namedview
     id="namedview7"
     pagecolor="#9c4444"
     bordercolor="#000000"
     borderopacity="0.25"
     inkscape:showpageshadow="2"
     inkscape:pageopacity="0.0"
     inkscape:pagecheckerboard="0"
     inkscape:deskcolor="#d1d1d1"
     inkscape:zoom="4.3531261"
     inkscape:cx="32.964816"
     inkscape:cy="24.350317"
     inkscape:window-width="1463"
     inkscape:window-height="604"
     inkscape:window-x="199"
     inkscape:window-y="276"
     inkscape:window-maximized="0"
     inkscape:current-layer="svg7"
     showgrid="false" />
  <defs
     id="defs2">
    <linearGradient
       id="linearGradient5"
       inkscape:collect="always">
      <stop
         style="stop-color:#392713;stop-opacity:1;"
         offset="0"
         id="stop2" />
      <stop
         style="stop-color:#eed59e;stop-opacity:1;"
         offset="0.5"
         id="stop3" />
      <stop
         style="stop-color:#beaa8a;stop-opacity:1;"
         offset="1"
         id="stop4" />
    </linearGradient>
    <linearGradient
       id="linearGradient8"
       inkscape:collect="always">
      <stop
         style="stop-color:#1a1a1a;stop-opacity:1;"
         offset="0"
         id="stop8" />
      <stop
         style="stop-color:#ffffff;stop-opacity:0;"
         offset="1"
         id="stop9" />
    </linearGradient>
    <linearGradient
       inkscape:collect="always"
       xlink:href="#linearGradient5"
       id="linearGradient41"
       x1="13.675659"
       y1="16.110115"
       x2="13.728528"
       y2="10.548769"
       gradientUnits="userSpaceOnUse"
       gradientTransform="matrix(2.046153,0,0,2.046153,-18.798306,-18.911347)" />
    <linearGradient
       inkscape:collect="always"
       xlink:href="#linearGradient42"
       id="linearGradient4"
       x1="11.885941"
       y1="16.50819"
       x2="12.026573"
       y2="10.244942"
       gradientUnits="userSpaceOnUse"
       gradientTransform="matrix(2.046153,0,0,2.046153,-18.798306,-18.911347)" />
    <linearGradient
       id="linearGradient42"
       inkscape:collect="always">
      <stop
         style="stop-color:#010101;stop-opacity:1;"
         offset="0"
         id="stop42" />
      <stop
         style="stop-color:#6e6c6d;stop-opacity:1;"
         offset="1"
         id="stop43" />
    </linearGradient>
    <linearGradient
       inkscape:collect="always"
       xlink:href="#linearGradient8"
       id="linearGradient9"
       x1="9.3404646"
       y1="4.1692023"
       x2="9.4279938"
       y2="16.46883"
       gradientUnits="userSpaceOnUse"
       gradientTransform="matrix(1.05,0,0,1.05,-0.50277005,-0.1977751)" />
    <filter
       style="color-interpolation-filters:sRGB;"
       inkscape:label="Blur"
       id="filter2"
       x="-0.14510849"
       y="-0.14612901"
       width="1.290217"
       height="1.292258">
      <feGaussianBlur
         stdDeviation="0.6 0.6"
         result="blur"
         id="feGaussianBlur2" />
    </filter>
    <linearGradient
       inkscape:collect="always"
       xlink:href="#linearGradient5"
       id="linearGradient25"
       x1="8.5910311"
       y1="12.235793"
       x2="8.5924301"
       y2="4.2520771"
       gradientUnits="userSpaceOnUse" />
  </defs>
  <metadata
     id="metadata2">
    <rdf:RDF>
      <cc:Work
         rdf:about="">
        <dc:format>image/svg+xml</dc:format>
        <dc:type
           rdf:resource="http://purl.org/dc/dcmitype/StillImage" />
      </cc:Work>
    </rdf:RDF>
  </metadata>
  <rect
     style="fill:#000000;fill-opacity:0.996424;stroke:#000000;stroke-width:0.911802;stroke-dasharray:none;stroke-opacity:1;filter:url(#filter2)"
     id="rect1-2-3"
     width="13.065404"
     height="12.974159"
     x="1.9816793"
     y="1.9267306"
     rx="2.7149384"
     ry="2.8310909" />
  <rect
     style="fill:url(#linearGradient4);fill-opacity:0.996424;stroke:url(#linearGradient41);stroke-width:0.911802;stroke-dasharray:none;stroke-opacity:1"
     id="rect1-2"
     width="13.065404"
     height="12.974159"
     x="1.9816793"
     y="1.9267306"
     rx="2.7149384"
     ry="2.8310909" />
  <path
     style="fill:#000000;fill-opacity:1;stroke-width:0.136932;opacity:0.3"
     d="m 8.5599807,4.8658562 c -0.8171773,0 -1.6326751,0.3128202 -2.1824171,0.8380755 C 5.8278214,6.229187 5.4706663,6.9807693 5.4706663,7.8168261 v 0.3021797 c -0.5458278,0.3390675 -0.853778,1.2282304 -0.853778,2.2707292 0,1.334375 0.6192361,2.417433 1.4171482,2.417433 V 7.8168261 c 0,-0.6260934 0.2643355,-1.2023797 0.718201,-1.636018 0.4538089,-0.4337068 1.0948573,-0.6259426 1.8080189,-0.6259426 0.7131883,0 1.3541531,0.1923118 1.8080186,0.6259426 0.453866,0.4336314 0.718201,1.0099246 0.718201,1.636018 v 4.9903419 c 0.79794,0 1.416873,-1.083058 1.416873,-2.417433 0,-1.0425679 -0.293843,-1.9316096 -0.839698,-2.2707292 V 7.8168261 c 0,-0.8360568 -0.35688,-1.5876391 -0.906623,-2.1128944 C 10.207231,5.1786417 9.3773493,4.8658562 8.5602564,4.8658562 Z m -2.3939121,3.106444 v 3.704e-4 4.8345224 c 0.1126627,0 0.2253251,-0.07686 0.2816688,-0.230343 V 8.1257661 C 6.3914061,8.0490249 6.2787437,7.9723152 6.1660686,7.9723152 Z m 4.7883754,0 c -0.112675,0 -0.225339,0.076709 -0.281669,0.1534502 v 4.4510736 c 0.05634,0.153482 0.169006,0.230344 0.281669,0.230344 V 7.9726372 Z"
     id="path12-0" />
  <path
     style="fill:url(#linearGradient25);fill-opacity:1;stroke-width:0.136932"
     d="M 8.5599807,4.3367 C 7.7428034,4.3367 6.9273056,4.6495202 6.3775636,5.1747755 5.8278214,5.7000308 5.4706663,6.4516131 5.4706663,7.2876699 V 7.5898496 C 4.9248385,7.9289171 4.6168883,8.81808 4.6168883,9.8605792 c 0,1.3343748 0.6192361,2.4174328 1.4171482,2.4174328 V 7.2876699 c 0,-0.6260934 0.2643355,-1.2023797 0.718201,-1.636018 0.4538089,-0.4337068 1.0948573,-0.6259426 1.8080189,-0.6259426 0.7131883,0 1.3541531,0.1923118 1.8080186,0.6259426 0.453866,0.4336314 0.718201,1.0099246 0.718201,1.636018 v 4.9903421 c 0.79794,0 1.416873,-1.083058 1.416873,-2.4174328 0,-1.0425683 -0.293843,-1.93161 -0.839698,-2.2707296 V 7.2876699 c 0,-0.8360568 -0.35688,-1.5876391 -0.906623,-2.1128944 C 10.207231,4.6494855 9.3773493,4.3367 8.5602564,4.3367 Z M 6.1660686,7.443144 v 3.704e-4 4.8345226 c 0.1126627,0 0.2253251,-0.07686 0.2816688,-0.230343 V 7.5966099 C 6.3914061,7.5198687 6.2787437,7.443159 6.1660686,7.443159 Z m 4.7883754,0 c -0.112675,0 -0.225339,0.076709 -0.281669,0.1534502 v 4.4510738 c 0.05634,0.153482 0.169006,0.230344 0.281669,0.230344 V 7.443481 Z"
     id="path12" />
  <rect
     style="opacity:0.5;fill:none;fill-opacity:0.996424;stroke:url(#linearGradient9);stroke-width:0.566102;stroke-dasharray:none;stroke-opacity:1"
     id="rect1-2-6"
     width="11.574203"
     height="11.508601"
     x="2.729686"
     y="2.6615164"
     rx="2.0246315"
     ry="2.0627522" />
</svg>
