<?xml version="1.0" encoding="UTF-8" standalone="no"?>
<svg
   width="64"
   height="64"
   version="1.1"
   viewBox="0 0 16.933 16.933"
   id="svg7"
   sodipodi:docname="Template 4.svg"
   inkscape:version="1.3.2 (091e20ef0f, 2023-11-25)"
   xmlns:inkscape="http://www.inkscape.org/namespaces/inkscape"
   xmlns:sodipodi="http://sodipodi.sourceforge.net/DTD/sodipodi-0.dtd"
   xmlns:xlink="http://www.w3.org/1999/xlink"
   xmlns="http://www.w3.org/2000/svg"
   xmlns:svg="http://www.w3.org/2000/svg"
   xmlns:rdf="http://www.w3.org/1999/02/22-rdf-syntax-ns#"
   xmlns:cc="http://creativecommons.org/ns#"
   xmlns:dc="http://purl.org/dc/elements/1.1/">
  <sodipodi:namedview
     id="namedview7"
     pagecolor="#9c4444"
     bordercolor="#000000"
     borderopacity="0.25"
     inkscape:showpageshadow="2"
     inkscape:pageopacity="0.0"
     inkscape:pagecheckerboard="0"
     inkscape:deskcolor="#d1d1d1"
     inkscape:zoom="4.3531261"
     inkscape:cx="32.849956"
     inkscape:cy="24.350317"
     inkscape:window-width="1356"
     inkscape:window-height="786"
     inkscape:window-x="35"
     inkscape:window-y="32"
     inkscape:window-maximized="0"
     inkscape:current-layer="svg7"
     showgrid="false" />
  <defs
     id="defs2">
    <linearGradient
       id="linearGradient5"
       inkscape:collect="always">
      <stop
         style="stop-color:#392713;stop-opacity:1;"
         offset="0"
         id="stop2" />
      <stop
         style="stop-color:#eed59e;stop-opacity:1;"
         offset="0.5"
         id="stop3" />
      <stop
         style="stop-color:#beaa8a;stop-opacity:1;"
         offset="1"
         id="stop4" />
    </linearGradient>
    <linearGradient
       id="linearGradient8"
       inkscape:collect="always">
      <stop
         style="stop-color:#1a1a1a;stop-opacity:1;"
         offset="0"
         id="stop8" />
      <stop
         style="stop-color:#ffffff;stop-opacity:0;"
         offset="1"
         id="stop9" />
    </linearGradient>
    <linearGradient
       inkscape:collect="always"
       xlink:href="#linearGradient5"
       id="linearGradient41"
       x1="13.675659"
       y1="16.110115"
       x2="13.728528"
       y2="10.548769"
       gradientUnits="userSpaceOnUse"
       gradientTransform="matrix(2.046153,0,0,2.046153,-18.798306,-18.911347)" />
    <linearGradient
       inkscape:collect="always"
       xlink:href="#linearGradient42"
       id="linearGradient4"
       x1="11.885941"
       y1="16.50819"
       x2="12.026573"
       y2="10.244942"
       gradientUnits="userSpaceOnUse"
       gradientTransform="matrix(2.046153,0,0,2.046153,-18.798306,-18.911347)" />
    <linearGradient
       id="linearGradient42"
       inkscape:collect="always">
      <stop
         style="stop-color:#010101;stop-opacity:1;"
         offset="0"
         id="stop42" />
      <stop
         style="stop-color:#6e6c6d;stop-opacity:1;"
         offset="1"
         id="stop43" />
    </linearGradient>
    <linearGradient
       inkscape:collect="always"
       xlink:href="#linearGradient8"
       id="linearGradient9"
       x1="9.3404646"
       y1="4.1692023"
       x2="9.4279938"
       y2="16.46883"
       gradientUnits="userSpaceOnUse"
       gradientTransform="matrix(1.05,0,0,1.05,-0.50277005,-0.1977751)" />
    <filter
       style="color-interpolation-filters:sRGB;"
       inkscape:label="Blur"
       id="filter2"
       x="-0.14510849"
       y="-0.14612901"
       width="1.290217"
       height="1.292258">
      <feGaussianBlur
         stdDeviation="0.6 0.6"
         result="blur"
         id="feGaussianBlur2" />
    </filter>
    <linearGradient
       inkscape:collect="always"
       xlink:href="#linearGradient5"
       id="linearGradient16"
       x1="33.892647"
       y1="50.180771"
       x2="33.327797"
       y2="13.883552"
       gradientUnits="userSpaceOnUse"
       gradientTransform="matrix(0.23573911,0,0,0.23573911,0.93724699,0.84666102)" />
  </defs>
  <metadata
     id="metadata2">
    <rdf:RDF>
      <cc:Work
         rdf:about="">
        <dc:format>image/svg+xml</dc:format>
        <dc:type
           rdf:resource="http://purl.org/dc/dcmitype/StillImage" />
      </cc:Work>
    </rdf:RDF>
  </metadata>
  <rect
     style="fill:#000000;fill-opacity:0.996424;stroke:#000000;stroke-width:0.911802;stroke-dasharray:none;stroke-opacity:1;filter:url(#filter2)"
     id="rect1-2-3"
     width="13.065404"
     height="12.974159"
     x="1.9816793"
     y="1.9267306"
     rx="2.7149384"
     ry="2.8310909" />
  <rect
     style="fill:url(#linearGradient4);fill-opacity:0.996424;stroke:url(#linearGradient41);stroke-width:0.911802;stroke-dasharray:none;stroke-opacity:1"
     id="rect1-2"
     width="13.065404"
     height="12.974159"
     x="1.9816793"
     y="1.9267306"
     rx="2.7149384"
     ry="2.8310909" />
  <path
     style="fill:#000000;fill-opacity:1;stroke:none;stroke-width:0.25672;stroke-dasharray:none;stroke-dashoffset:2.2;stroke-opacity:0.3;opacity:0.3"
     d="M 8.3855887,13.28282 C 7.9859221,13.133643 7.4134893,12.776521 7.0301837,12.437228 5.7347729,11.290559 5.0059154,9.1078393 5.0671075,6.558379 5.0837365,5.8654586 5.1096103,5.7277155 5.2358144,5.6601733 5.4010706,5.5717304 8.4332689,4.5689599 8.5324606,4.5699476 c 0.061971,6.129e-4 0.8020321,0.235523 1.7019424,0.5402219 1.875349,0.634971 1.706885,0.5311262 1.740924,1.0731396 0.03234,0.5148377 -0.0047,1.6063945 -0.07125,2.100889 -0.143229,1.0639748 -0.370059,1.8496439 -0.761927,2.6390729 -0.504306,1.015941 -1.2095578,1.738864 -2.1444651,2.198195 -0.4119422,0.202391 -0.4648125,0.216328 -0.612095,0.161354 z M 8.8630522,9.8696548 C 9.3920392,9.1442602 9.8473342,8.5035991 9.8748182,8.445963 9.9485201,8.2914118 9.9401933,8.1199988 9.8548436,8.0346459 9.7497203,7.9295237 9.5982815,7.9012147 9.1400982,7.9010335 L 8.7239895,7.9008691 8.9448119,7.3037604 C 9.2073814,6.5937677 9.2265897,6.4923014 9.118827,6.3845386 9.0446286,6.3103402 9.0335403,6.3085795 8.6405397,6.3085795 c -0.4511587,0 -0.5545234,0.028964 -0.6771572,0.1897452 -0.09514,0.1247333 -0.7808663,2.1387052 -0.7808663,2.2933931 0,0.08916 0.02008,0.13632 0.086193,0.2024327 l 0.086193,0.086193 H 7.7364773 8.1180534 L 7.9443488,10.103765 c -0.095537,0.562881 -0.1667475,1.041548 -0.1582455,1.063705 0.00851,0.02216 0.037889,0.03597 0.065307,0.03067 0.027418,-0.0052 0.4826565,-0.603105 1.0116435,-1.3284987 z"
     id="path83-9" />
  <path
     style="fill:url(#linearGradient16);fill-opacity:1;stroke:none;stroke-width:0.25672;stroke-dasharray:none;stroke-dashoffset:2.2;stroke-opacity:0.3"
     d="M 8.3855887,12.753664 C 7.9859221,12.604487 7.4134893,12.247365 7.0301837,11.908072 5.7347729,10.761403 5.0059154,8.5786831 5.0671075,6.0292228 5.0837365,5.3363024 5.1096103,5.1985593 5.2358144,5.1310171 5.4010706,5.0425742 8.4332689,4.0398037 8.5324606,4.0407914 c 0.061971,6.129e-4 0.8020321,0.235523 1.7019424,0.5402219 1.875349,0.634971 1.706885,0.5311262 1.740924,1.0731396 0.03234,0.5148377 -0.0047,1.6063945 -0.07125,2.100889 -0.143229,1.0639748 -0.370059,1.8496436 -0.761927,2.6390731 -0.504306,1.015941 -1.2095578,1.738864 -2.1444651,2.198195 -0.4119422,0.202391 -0.4648125,0.216328 -0.612095,0.161354 z M 8.8630522,9.3404986 C 9.3920392,8.615104 9.8473342,7.9744429 9.8748182,7.9168068 9.9485201,7.7622556 9.9401933,7.5908426 9.8548436,7.5054897 9.7497203,7.4003675 9.5982815,7.3720585 9.1400982,7.3718773 L 8.7239895,7.3717129 8.9448119,6.7746042 C 9.2073814,6.0646115 9.2265897,5.9631452 9.118827,5.8553824 9.0446286,5.781184 9.0335403,5.7794233 8.6405397,5.7794233 c -0.4511587,0 -0.5545234,0.028964 -0.6771572,0.1897452 -0.09514,0.1247333 -0.7808663,2.1387052 -0.7808663,2.2933931 0,0.08916 0.02008,0.13632 0.086193,0.2024327 l 0.086193,0.086193 H 7.7364773 8.1180534 L 7.9443488,9.5746085 C 7.8488122,10.13749 7.7776013,10.616157 7.7861033,10.638314 c 0.00851,0.02216 0.037889,0.03597 0.065307,0.03067 0.027418,-0.0052 0.4826565,-0.603105 1.0116435,-1.3284989 z"
     id="path83" />
  <rect
     style="opacity:0.5;fill:none;fill-opacity:0.996424;stroke:url(#linearGradient9);stroke-width:0.566102;stroke-dasharray:none;stroke-opacity:1"
     id="rect1-2-6"
     width="11.574203"
     height="11.508601"
     x="2.729686"
     y="2.6615164"
     rx="2.0246315"
     ry="2.0627522" />
</svg>
