<?xml version="1.0" encoding="UTF-8" standalone="no"?>
<svg
   width="64"
   height="64"
   version="1.1"
   viewBox="0 0 16.933 16.933"
   id="svg7"
   sodipodi:docname="Template 4.svg"
   inkscape:version="1.3.2 (091e20ef0f, 2023-11-25)"
   xmlns:inkscape="http://www.inkscape.org/namespaces/inkscape"
   xmlns:sodipodi="http://sodipodi.sourceforge.net/DTD/sodipodi-0.dtd"
   xmlns:xlink="http://www.w3.org/1999/xlink"
   xmlns="http://www.w3.org/2000/svg"
   xmlns:svg="http://www.w3.org/2000/svg"
   xmlns:rdf="http://www.w3.org/1999/02/22-rdf-syntax-ns#"
   xmlns:cc="http://creativecommons.org/ns#"
   xmlns:dc="http://purl.org/dc/elements/1.1/">
  <sodipodi:namedview
     id="namedview7"
     pagecolor="#9c4444"
     bordercolor="#000000"
     borderopacity="0.25"
     inkscape:showpageshadow="2"
     inkscape:pageopacity="0.0"
     inkscape:pagecheckerboard="0"
     inkscape:deskcolor="#d1d1d1"
     inkscape:zoom="4.3531261"
     inkscape:cx="32.849956"
     inkscape:cy="24.350317"
     inkscape:window-width="1356"
     inkscape:window-height="786"
     inkscape:window-x="35"
     inkscape:window-y="32"
     inkscape:window-maximized="0"
     inkscape:current-layer="svg7"
     showgrid="false" />
  <defs
     id="defs2">
    <linearGradient
       id="linearGradient5"
       inkscape:collect="always">
      <stop
         style="stop-color:#392713;stop-opacity:1;"
         offset="0"
         id="stop2" />
      <stop
         style="stop-color:#eed59e;stop-opacity:1;"
         offset="0.5"
         id="stop3" />
      <stop
         style="stop-color:#beaa8a;stop-opacity:1;"
         offset="1"
         id="stop4" />
    </linearGradient>
    <linearGradient
       id="linearGradient8"
       inkscape:collect="always">
      <stop
         style="stop-color:#1a1a1a;stop-opacity:1;"
         offset="0"
         id="stop8" />
      <stop
         style="stop-color:#ffffff;stop-opacity:0;"
         offset="1"
         id="stop9" />
    </linearGradient>
    <linearGradient
       inkscape:collect="always"
       xlink:href="#linearGradient5"
       id="linearGradient41"
       x1="13.675659"
       y1="16.110115"
       x2="13.728528"
       y2="10.548769"
       gradientUnits="userSpaceOnUse"
       gradientTransform="matrix(2.046153,0,0,2.046153,-18.798306,-18.911347)" />
    <linearGradient
       inkscape:collect="always"
       xlink:href="#linearGradient42"
       id="linearGradient4"
       x1="11.885941"
       y1="16.50819"
       x2="12.026573"
       y2="10.244942"
       gradientUnits="userSpaceOnUse"
       gradientTransform="matrix(2.046153,0,0,2.046153,-18.798306,-18.911347)" />
    <linearGradient
       id="linearGradient42"
       inkscape:collect="always">
      <stop
         style="stop-color:#010101;stop-opacity:1;"
         offset="0"
         id="stop42" />
      <stop
         style="stop-color:#6e6c6d;stop-opacity:1;"
         offset="1"
         id="stop43" />
    </linearGradient>
    <linearGradient
       inkscape:collect="always"
       xlink:href="#linearGradient8"
       id="linearGradient9"
       x1="9.3404646"
       y1="4.1692023"
       x2="9.4279938"
       y2="16.46883"
       gradientUnits="userSpaceOnUse"
       gradientTransform="matrix(1.05,0,0,1.05,-0.50277005,-0.1977751)" />
    <filter
       style="color-interpolation-filters:sRGB;"
       inkscape:label="Blur"
       id="filter2"
       x="-0.14510849"
       y="-0.14612901"
       width="1.290217"
       height="1.292258">
      <feGaussianBlur
         stdDeviation="0.6 0.6"
         result="blur"
         id="feGaussianBlur2" />
    </filter>
    <linearGradient
       inkscape:collect="always"
       xlink:href="#linearGradient5"
       id="linearGradient42-1"
       x1="32.57106"
       y1="48.59473"
       x2="32.972271"
       y2="17.004292"
       gradientUnits="userSpaceOnUse"
       gradientTransform="matrix(0.23573911,0,0,0.23573911,0.94428494,0.67138179)" />
  </defs>
  <metadata
     id="metadata2">
    <rdf:RDF>
      <cc:Work
         rdf:about="">
        <dc:format>image/svg+xml</dc:format>
        <dc:type
           rdf:resource="http://purl.org/dc/dcmitype/StillImage" />
      </cc:Work>
    </rdf:RDF>
  </metadata>
  <rect
     style="fill:#000000;fill-opacity:0.996424;stroke:#000000;stroke-width:0.911802;stroke-dasharray:none;stroke-opacity:1;filter:url(#filter2)"
     id="rect1-2-3"
     width="13.065404"
     height="12.974159"
     x="1.9816793"
     y="1.9267306"
     rx="2.7149384"
     ry="2.8310909" />
  <rect
     style="fill:url(#linearGradient4);fill-opacity:0.996424;stroke:url(#linearGradient41);stroke-width:0.911802;stroke-dasharray:none;stroke-opacity:1"
     id="rect1-2"
     width="13.065404"
     height="12.974159"
     x="1.9816793"
     y="1.9267306"
     rx="2.7149384"
     ry="2.8310909" />
  <path
     id="path39-1"
     style="fill:#000000;stroke-width:0.0421221;stroke-opacity:0.3;opacity:0.3"
     d="m 10.423401,5.1342073 c -0.08853,-0.00458 -0.168376,0.011821 -0.23551,0.049127 C 10.136501,5.2118899 9.8800525,5.4434892 9.6181113,5.6979092 9.3561709,5.9523291 9.0438518,6.2534231 8.9242462,6.3669572 L 8.7069706,6.5735971 7.99082,5.8741613 C 7.4300613,5.3268647 7.2435168,5.1694346 7.1313383,5.1483887 6.6394946,5.056118 6.2166832,5.5456631 6.4030336,5.9916624 c 0.069979,0.1674762 1.9114715,2.064466 2.0669075,2.129203 0.046339,0.0193 0.1629349,0.036508 0.2593137,0.037985 0.1420689,0.00217 0.2140701,-0.028205 0.3793471,-0.1595383 0.2717861,-0.215966 1.7696921,-1.7511948 1.8714091,-1.9180038 0.177469,-0.2910418 0.04178,-0.7293271 -0.26944,-0.8706234 -0.101427,-0.046046 -0.198635,-0.071888 -0.28717,-0.076478 z m 0.995721,2.5905985 c -0.161347,3.536e-4 -0.306812,0.028453 -0.400618,0.076983 -0.08108,0.04195 -0.652204,0.5759222 -1.2687103,1.1866611 -0.616506,0.6107389 -1.1454769,1.1106891 -1.1760258,1.1106891 -0.03055,0 -0.5624207,-0.5025634 -1.1815963,-1.116767 C 6.6458277,8.2420223 6.2120522,7.8421892 6.1047223,7.7967246 5.9044201,7.7118772 5.5267199,7.7105699 5.3277957,7.7936859 4.959563,7.9475434 4.7061553,8.3002977 4.6688771,8.711411 c -0.041017,0.452319 -0.00137,0.5034871 1.7620117,2.277597 0.9332001,0.938868 1.6356977,1.612847 1.7230148,1.652614 0.1847542,0.08414 0.5885692,0.08829 0.7804719,0.0081 0.080104,-0.03347 0.2241694,-0.123483 0.3200898,-0.200056 0.3318787,-0.264934 3.0318227,-3.078868 3.1208737,-3.25255 0.05854,-0.1141721 0.08864,-0.2507469 0.08812,-0.4041641 -0.0015,-0.596922 -0.463912,-1.0695211 -1.044342,-1.0681468 z" />
  <path
     id="path39"
     style="fill:url(#linearGradient42-1);stroke-width:0.0421221;stroke-opacity:0.3"
     d="m 10.423401,4.6050511 c -0.08853,-0.00458 -0.168376,0.011821 -0.23551,0.049127 C 10.136501,4.6827337 9.8800525,4.914333 9.6181113,5.168753 9.3561709,5.4231729 9.0438518,5.7242669 8.9242462,5.837801 L 8.7069706,6.0444409 7.99082,5.3450051 C 7.4300613,4.7977085 7.2435168,4.6402784 7.1313383,4.6192325 6.6394946,4.5269618 6.2166832,5.0165069 6.4030336,5.4625062 c 0.069979,0.1674762 1.9114715,2.064466 2.0669075,2.129203 0.046339,0.0193 0.1629349,0.036508 0.2593137,0.037985 0.1420689,0.00217 0.2140701,-0.028205 0.3793471,-0.1595383 C 9.380388,7.2541899 10.878294,5.7189611 10.980011,5.5521521 11.15748,5.2611103 11.021791,4.822825 10.710571,4.6815287 10.609144,4.6354827 10.511936,4.6096412 10.423401,4.6050511 Z m 0.995721,2.5905985 c -0.161347,3.536e-4 -0.306812,0.028453 -0.400618,0.076983 -0.08108,0.04195 -0.652204,0.5759222 -1.2687103,1.1866611 -0.616506,0.6107389 -1.1454769,1.1106895 -1.1760258,1.1106895 -0.03055,0 -0.5624207,-0.5025638 -1.1815963,-1.1167674 C 6.6458277,7.7128661 6.2120522,7.313033 6.1047223,7.2675684 5.9044201,7.182721 5.5267199,7.1814137 5.3277957,7.2645297 4.959563,7.4183872 4.7061553,7.7711415 4.6688771,8.1822548 c -0.041017,0.452319 -0.00137,0.5034871 1.7620117,2.2775972 0.9332001,0.938868 1.6356977,1.612847 1.7230148,1.652614 0.1847542,0.08414 0.5885692,0.08829 0.7804719,0.0081 0.080104,-0.03347 0.2241694,-0.123483 0.3200898,-0.200056 0.3318787,-0.264934 3.0318227,-3.0788683 3.1208737,-3.2525503 0.05854,-0.1141721 0.08864,-0.2507469 0.08812,-0.4041641 -0.0015,-0.596922 -0.463912,-1.069521 -1.044342,-1.0681467 z" />
  <rect
     style="opacity:0.5;fill:none;fill-opacity:0.996424;stroke:url(#linearGradient9);stroke-width:0.566102;stroke-dasharray:none;stroke-opacity:1"
     id="rect1-2-6"
     width="11.574203"
     height="11.508601"
     x="2.729686"
     y="2.6615164"
     rx="2.0246315"
     ry="2.0627522" />
</svg>
