<?xml version="1.0" encoding="UTF-8" standalone="no"?>
<svg
   width="64"
   height="64"
   version="1.1"
   viewBox="0 0 16.933 16.933"
   id="svg7"
   sodipodi:docname="accessories-character-map.svg"
   inkscape:version="1.4 (e7c3feb100, 2024-10-09)"
   xmlns:inkscape="http://www.inkscape.org/namespaces/inkscape"
   xmlns:sodipodi="http://sodipodi.sourceforge.net/DTD/sodipodi-0.dtd"
   xmlns:xlink="http://www.w3.org/1999/xlink"
   xmlns="http://www.w3.org/2000/svg"
   xmlns:svg="http://www.w3.org/2000/svg"
   xmlns:rdf="http://www.w3.org/1999/02/22-rdf-syntax-ns#"
   xmlns:cc="http://creativecommons.org/ns#"
   xmlns:dc="http://purl.org/dc/elements/1.1/">
  <sodipodi:namedview
     id="namedview7"
     pagecolor="#9c4444"
     bordercolor="#000000"
     borderopacity="0.25"
     inkscape:showpageshadow="2"
     inkscape:pageopacity="0.0"
     inkscape:pagecheckerboard="0"
     inkscape:deskcolor="#d1d1d1"
     inkscape:zoom="4.3531261"
     inkscape:cx="32.964816"
     inkscape:cy="24.350317"
     inkscape:window-width="1463"
     inkscape:window-height="669"
     inkscape:window-x="75"
     inkscape:window-y="186"
     inkscape:window-maximized="0"
     inkscape:current-layer="svg7"
     showgrid="false" />
  <defs
     id="defs2">
    <linearGradient
       id="linearGradient5"
       inkscape:collect="always">
      <stop
         style="stop-color:#392713;stop-opacity:1;"
         offset="0"
         id="stop2" />
      <stop
         style="stop-color:#eed59e;stop-opacity:1;"
         offset="0.5"
         id="stop3" />
      <stop
         style="stop-color:#beaa8a;stop-opacity:1;"
         offset="1"
         id="stop4" />
    </linearGradient>
    <linearGradient
       id="linearGradient8"
       inkscape:collect="always">
      <stop
         style="stop-color:#1a1a1a;stop-opacity:1;"
         offset="0"
         id="stop8" />
      <stop
         style="stop-color:#ffffff;stop-opacity:0;"
         offset="1"
         id="stop9" />
    </linearGradient>
    <linearGradient
       inkscape:collect="always"
       xlink:href="#linearGradient5"
       id="linearGradient41"
       x1="13.675659"
       y1="16.110115"
       x2="13.728528"
       y2="10.548769"
       gradientUnits="userSpaceOnUse"
       gradientTransform="matrix(2.046153,0,0,2.046153,-18.798306,-18.911347)" />
    <linearGradient
       inkscape:collect="always"
       xlink:href="#linearGradient42"
       id="linearGradient4"
       x1="11.885941"
       y1="16.50819"
       x2="12.026573"
       y2="10.244942"
       gradientUnits="userSpaceOnUse"
       gradientTransform="matrix(2.046153,0,0,2.046153,-18.798306,-18.911347)" />
    <linearGradient
       id="linearGradient42"
       inkscape:collect="always">
      <stop
         style="stop-color:#010101;stop-opacity:1;"
         offset="0"
         id="stop42" />
      <stop
         style="stop-color:#6e6c6d;stop-opacity:1;"
         offset="1"
         id="stop43" />
    </linearGradient>
    <linearGradient
       inkscape:collect="always"
       xlink:href="#linearGradient8"
       id="linearGradient9"
       x1="9.3404646"
       y1="4.1692023"
       x2="9.4279938"
       y2="16.46883"
       gradientUnits="userSpaceOnUse"
       gradientTransform="matrix(1.05,0,0,1.05,-0.50277005,-0.1977751)" />
    <filter
       style="color-interpolation-filters:sRGB;"
       inkscape:label="Blur"
       id="filter2"
       x="-0.14510849"
       y="-0.14612901"
       width="1.290217"
       height="1.292258">
      <feGaussianBlur
         stdDeviation="0.6 0.6"
         result="blur"
         id="feGaussianBlur2" />
    </filter>
    <linearGradient
       inkscape:collect="always"
       xlink:href="#linearGradient5"
       id="linearGradient6"
       x1="8.6758842"
       y1="12.686557"
       x2="8.7886286"
       y2="4.116735"
       gradientUnits="userSpaceOnUse" />
  </defs>
  <metadata
     id="metadata2">
    <rdf:RDF>
      <cc:Work
         rdf:about="">
        <dc:format>image/svg+xml</dc:format>
        <dc:type
           rdf:resource="http://purl.org/dc/dcmitype/StillImage" />
      </cc:Work>
    </rdf:RDF>
  </metadata>
  <rect
     style="fill:#000000;fill-opacity:0.996424;stroke:#000000;stroke-width:0.911802;stroke-dasharray:none;stroke-opacity:1;filter:url(#filter2)"
     id="rect1-2-3"
     width="13.065404"
     height="12.974159"
     x="1.9816793"
     y="1.9267306"
     rx="2.7149384"
     ry="2.8310909" />
  <rect
     style="fill:url(#linearGradient4);fill-opacity:0.996424;stroke:url(#linearGradient41);stroke-width:0.911802;stroke-dasharray:none;stroke-opacity:1"
     id="rect1-2"
     width="13.065404"
     height="12.974159"
     x="1.9816793"
     y="1.9267306"
     rx="2.7149384"
     ry="2.8310909" />
  <path
     d="m 8.6106983,4.711078 c -2.3473534,0 -4.2501143,1.9027609 -4.2501143,4.2501142 0,2.3473518 1.9027609,4.2501128 4.2501143,4.2501128 2.3473537,0 4.2501147,-1.902761 4.2501147,-4.2501128 0,-2.3473533 -1.902761,-4.2501142 -4.2501147,-4.2501142 z m 0,0.5311765 c 2.0539927,0 3.7189387,1.6649453 3.7189387,3.7189377 -0.0016,1.7074188 -1.165742,3.1942938 -2.8229863,3.6057448 -0.023573,-0.05952 -0.033141,-0.122991 -0.026839,-0.143762 0.03174,-0.105022 0.054378,-0.246685 0.062079,-0.392081 0.012369,-0.230582 0.1047887,-0.59629 0.2511183,-0.762692 0.1285945,-0.146564 0.1530997,-0.263253 0.1556665,-0.738886 0.00207,-0.393713 0.00621,-0.43969 0.056942,-0.6163596 0.08612,-0.3003622 0.228479,-0.512506 0.332801,-0.6644378 0.05297,-0.077483 0.137229,-0.2154112 0.18764,-0.3066633 0.05064,-0.091486 0.123927,-0.2144781 0.163133,-0.2735236 0.101988,-0.1540318 0.425922,-0.3668759 0.533743,-0.4175199 0.120193,-0.056713 0.252753,-0.2088766 0.29663,-0.3409707 0.04504,-0.1358281 0.03151,-0.3498393 -0.02754,-0.4284888 -0.03454,-0.046443 -0.05671,-0.054612 -0.145631,-0.054612 -0.08145,0 -0.116692,-0.010735 -0.157299,-0.048776 -0.05577,-0.052044 -0.09639,-0.045042 -0.09639,0.016806 0,0.048543 -0.180173,0.1407293 -0.201874,0.1192579 -0.0089,-0.0091 2.33e-4,-0.060446 0.02077,-0.1141235 0.07562,-0.1972078 0.100353,-0.3230006 0.08822,-0.450427 C 10.97998,6.7396345 10.84905,6.4182677 10.77787,6.4044981 10.7606,6.4012281 10.667479,6.4647101 10.570859,6.5461609 10.066533,6.9704484 9.6833202,7.1555201 9.4163319,7.3167866 9.2891389,7.3935692 9.288672,7.3935692 9.073961,7.3889018 8.8198084,7.3833006 8.8639173,7.423442 8.4398628,7.6806287 8.2930658,7.7695474 8.1273645,7.9394491 8.072053,7.9604533 8.0165082,7.9814577 7.8400716,8.0120308 7.6771713,8.0288344 7.3429685,8.0631413 7.2533502,8.0836789 7.1282575,8.1560272 7.0045653,8.227442 6.9732919,8.2806533 6.9996643,8.3758729 c 0.025672,0.093353 0.1626668,0.2772575 0.3274343,0.438991 L 7.4510245,8.9369227 7.3555713,9.0846531 C 7.3028269,9.1661035 7.2234772,9.3164012 7.1791348,9.4188558 7.0913831,9.6221312 7.0673448,9.6604059 6.8923085,9.8758172 6.7406104,10.062523 6.4932258,10.330912 6.3361598,10.638507 6.2019653,10.901529 6.137552,10.969676 5.8911009,11.110638 5.8294878,11.145882 5.7534058,11.205158 5.6752228,11.242032 5.1680844,10.58973 4.8924605,9.7873657 4.8917605,8.9611942 c 0,-2.0539923 1.664945,-3.7189377 3.7189376,-3.7189377 z M 9.2550652,7.6610228 9.0634591,7.9063069 8.7549282,7.9494825 8.946768,7.703965 Z"
     fill="#ffffff"
     fill-rule="nonzero"
     id="path2-0"
     style="fill:#000000;fill-opacity:1;stroke-width:0.233382;opacity:0.3" />
  <path
     d="m 8.6106983,4.1819218 c -2.3473534,0 -4.2501143,1.9027609 -4.2501143,4.2501142 0,2.347352 1.9027609,4.250113 4.2501143,4.250113 2.3473537,0 4.2501147,-1.902761 4.2501147,-4.250113 0,-2.3473533 -1.902761,-4.2501142 -4.2501147,-4.2501142 z m 0,0.5311765 c 2.0539927,0 3.7189387,1.6649453 3.7189387,3.7189377 -0.0016,1.707419 -1.165742,3.194294 -2.8229863,3.605745 -0.023573,-0.05952 -0.033141,-0.122991 -0.026839,-0.143762 0.03174,-0.105022 0.054378,-0.246685 0.062079,-0.392081 0.012369,-0.230582 0.1047887,-0.59629 0.2511183,-0.762692 0.1285945,-0.146564 0.1530997,-0.263253 0.1556665,-0.738886 0.00207,-0.3937135 0.00621,-0.4396898 0.056942,-0.6163598 0.08612,-0.3003622 0.228479,-0.512506 0.332801,-0.6644378 0.05297,-0.077483 0.137229,-0.2154112 0.18764,-0.3066633 0.05064,-0.091486 0.123927,-0.2144781 0.163133,-0.2735236 0.101988,-0.1540318 0.425922,-0.3668759 0.533743,-0.4175199 0.120193,-0.056713 0.252753,-0.2088766 0.29663,-0.3409707 0.04504,-0.1358281 0.03151,-0.3498393 -0.02754,-0.4284888 -0.03454,-0.046443 -0.05671,-0.054612 -0.145631,-0.054612 -0.08145,0 -0.116692,-0.010735 -0.157299,-0.048776 -0.05577,-0.052044 -0.09639,-0.045042 -0.09639,0.016806 0,0.048543 -0.180173,0.1407293 -0.201874,0.1192579 -0.0089,-0.0091 2.33e-4,-0.060446 0.02077,-0.1141235 0.07562,-0.1972078 0.100353,-0.3230006 0.08822,-0.450427 C 10.97998,6.2104783 10.84905,5.8891115 10.77787,5.8753419 10.7606,5.8720719 10.667479,5.9355539 10.570859,6.0170047 10.066533,6.4412922 9.6833202,6.6263639 9.4163319,6.7876304 9.2891389,6.864413 9.288672,6.864413 9.073961,6.8597456 8.8198084,6.8541444 8.8639173,6.8942858 8.4398628,7.1514725 8.2930658,7.2403912 8.1273645,7.4102929 8.072053,7.4312971 8.0165082,7.4523015 7.8400716,7.4828746 7.6771713,7.4996782 7.3429685,7.5339851 7.2533502,7.5545227 7.1282575,7.626871 7.0045653,7.6982858 6.9732919,7.7514971 6.9996643,7.8467167 c 0.025672,0.093353 0.1626668,0.2772575 0.3274343,0.438991 L 7.4510245,8.4077665 7.3555713,8.5554969 C 7.3028269,8.6369473 7.2234772,8.787245 7.1791348,8.8896996 7.0913831,9.092975 7.0673448,9.1312497 6.8923085,9.346661 6.7406104,9.5333666 6.4932258,9.8017555 6.3361598,10.109351 6.2019653,10.372373 6.137552,10.44052 5.8911009,10.581482 5.8294878,10.616726 5.7534058,10.676002 5.6752228,10.712876 5.1680844,10.060574 4.8924605,9.2582095 4.8917605,8.432038 c 0,-2.0539923 1.664945,-3.7189377 3.7189376,-3.7189377 z M 9.2550652,7.1318666 9.0634591,7.3771507 8.7549282,7.4203263 8.946768,7.1748088 Z"
     fill="#ffffff"
     fill-rule="nonzero"
     id="path2"
     style="fill:url(#linearGradient6);fill-opacity:1;stroke-width:0.233382" />
  <rect
     style="opacity:0.5;fill:none;fill-opacity:0.996424;stroke:url(#linearGradient9);stroke-width:0.566102;stroke-dasharray:none;stroke-opacity:1"
     id="rect1-2-6"
     width="11.574203"
     height="11.508601"
     x="2.729686"
     y="2.6615164"
     rx="2.0246315"
     ry="2.0627522" />
</svg>
