<?xml version="1.0" encoding="UTF-8" standalone="no"?>
<svg
   width="64"
   height="64"
   version="1.1"
   viewBox="0 0 16.933 16.933"
   id="svg7"
   sodipodi:docname="Template 4.svg"
   inkscape:version="1.3.2 (091e20ef0f, 2023-11-25)"
   xmlns:inkscape="http://www.inkscape.org/namespaces/inkscape"
   xmlns:sodipodi="http://sodipodi.sourceforge.net/DTD/sodipodi-0.dtd"
   xmlns:xlink="http://www.w3.org/1999/xlink"
   xmlns="http://www.w3.org/2000/svg"
   xmlns:svg="http://www.w3.org/2000/svg"
   xmlns:rdf="http://www.w3.org/1999/02/22-rdf-syntax-ns#"
   xmlns:cc="http://creativecommons.org/ns#"
   xmlns:dc="http://purl.org/dc/elements/1.1/">
  <sodipodi:namedview
     id="namedview7"
     pagecolor="#9c4444"
     bordercolor="#000000"
     borderopacity="0.25"
     inkscape:showpageshadow="2"
     inkscape:pageopacity="0.0"
     inkscape:pagecheckerboard="0"
     inkscape:deskcolor="#d1d1d1"
     inkscape:zoom="4.3531261"
     inkscape:cx="32.964816"
     inkscape:cy="24.580037"
     inkscape:window-width="1463"
     inkscape:window-height="604"
     inkscape:window-x="199"
     inkscape:window-y="276"
     inkscape:window-maximized="0"
     inkscape:current-layer="svg7"
     showgrid="false" />
  <defs
     id="defs2">
    <linearGradient
       id="linearGradient5"
       inkscape:collect="always">
      <stop
         style="stop-color:#392713;stop-opacity:1;"
         offset="0"
         id="stop2" />
      <stop
         style="stop-color:#eed59e;stop-opacity:1;"
         offset="0.5"
         id="stop3" />
      <stop
         style="stop-color:#beaa8a;stop-opacity:1;"
         offset="1"
         id="stop4" />
    </linearGradient>
    <linearGradient
       id="linearGradient8"
       inkscape:collect="always">
      <stop
         style="stop-color:#1a1a1a;stop-opacity:1;"
         offset="0"
         id="stop8" />
      <stop
         style="stop-color:#ffffff;stop-opacity:0;"
         offset="1"
         id="stop9" />
    </linearGradient>
    <linearGradient
       inkscape:collect="always"
       xlink:href="#linearGradient5"
       id="linearGradient41"
       x1="13.675659"
       y1="16.110115"
       x2="13.728528"
       y2="10.548769"
       gradientUnits="userSpaceOnUse"
       gradientTransform="matrix(2.046153,0,0,2.046153,-18.798306,-18.911347)" />
    <linearGradient
       inkscape:collect="always"
       xlink:href="#linearGradient42"
       id="linearGradient4"
       x1="11.885941"
       y1="16.50819"
       x2="12.026573"
       y2="10.244942"
       gradientUnits="userSpaceOnUse"
       gradientTransform="matrix(2.046153,0,0,2.046153,-18.798306,-18.911347)" />
    <linearGradient
       id="linearGradient42"
       inkscape:collect="always">
      <stop
         style="stop-color:#010101;stop-opacity:1;"
         offset="0"
         id="stop42" />
      <stop
         style="stop-color:#6e6c6d;stop-opacity:1;"
         offset="1"
         id="stop43" />
    </linearGradient>
    <linearGradient
       inkscape:collect="always"
       xlink:href="#linearGradient8"
       id="linearGradient9"
       x1="9.3404646"
       y1="4.1692023"
       x2="9.4279938"
       y2="16.46883"
       gradientUnits="userSpaceOnUse"
       gradientTransform="matrix(1.05,0,0,1.05,-0.50277005,-0.1977751)" />
    <filter
       style="color-interpolation-filters:sRGB;"
       inkscape:label="Blur"
       id="filter2"
       x="-0.14510849"
       y="-0.14612901"
       width="1.290217"
       height="1.292258">
      <feGaussianBlur
         stdDeviation="0.6 0.6"
         result="blur"
         id="feGaussianBlur2" />
    </filter>
    <linearGradient
       inkscape:collect="always"
       xlink:href="#linearGradient5"
       id="linearGradient12"
       x1="8.2640133"
       y1="12.351761"
       x2="8.2319851"
       y2="4.3398514"
       gradientUnits="userSpaceOnUse" />
  </defs>
  <metadata
     id="metadata2">
    <rdf:RDF>
      <cc:Work
         rdf:about="">
        <dc:format>image/svg+xml</dc:format>
        <dc:type
           rdf:resource="http://purl.org/dc/dcmitype/StillImage" />
      </cc:Work>
    </rdf:RDF>
  </metadata>
  <rect
     style="fill:#000000;fill-opacity:0.996424;stroke:#000000;stroke-width:0.911802;stroke-dasharray:none;stroke-opacity:1;filter:url(#filter2)"
     id="rect1-2-3"
     width="13.065404"
     height="12.974159"
     x="1.9816793"
     y="1.9267306"
     rx="2.7149384"
     ry="2.8310909" />
  <rect
     style="fill:url(#linearGradient4);fill-opacity:0.996424;stroke:url(#linearGradient41);stroke-width:0.911802;stroke-dasharray:none;stroke-opacity:1"
     id="rect1-2"
     width="13.065404"
     height="12.974159"
     x="1.9816793"
     y="1.9267306"
     rx="2.7149384"
     ry="2.8310909" />
  <path
     style="fill:#000000;stroke-width:0.0747239;opacity:0.3"
     d="M 5.0414172,12.839462 C 4.9558683,12.804853 4.7961442,12.669901 4.686475,12.539567 4.2832859,12.060404 4.5141202,11.236495 5.3690936,10.103124 6.083744,9.1557654 6.7708779,8.6226396 8.1112235,7.97559 8.808981,7.6387489 9.0182475,7.4933574 9.4960162,7.0134801 9.89613,6.6116019 10.155359,6.2650887 10.392712,5.8148648 c 0.305097,-0.5787227 0.364071,-0.645769 0.6842,-0.7778434 0.336513,-0.1388342 0.363647,-0.1394446 0.688226,-0.015488 0.618515,0.236213 0.805527,0.8506361 0.482512,1.5852728 C 11.662023,7.9387 10.597567,8.980647 8.9846603,9.8007963 7.6136668,10.497934 7.0400604,11.023636 6.5182443,12.061232 c -0.3035156,0.603521 -0.6001632,0.852106 -1.0094364,0.84589 -0.1715154,-0.0026 -0.3818415,-0.03306 -0.4673907,-0.06766 z m 2.0886905,-0.03802 c -0.123709,-0.322381 0.7070118,-1.512181 1.2576226,-1.801233 0.3079981,-0.161687 3.0081187,-0.15087 3.4194177,0.01369 0.385889,0.154402 0.600744,0.496 0.600744,0.955119 0,0.291119 -0.0413,0.392316 -0.255705,0.62634 l -0.255704,0.279119 -2.3608442,0.0217 c -2.0819636,0.01914 -2.3661231,0.0079 -2.4055311,-0.09474 z M 5.1858726,6.9269774 C 5.0564778,6.8894925 4.8463149,6.7400375 4.7188431,6.5948555 4.269684,6.0832912 4.4708043,5.2722261 5.1065331,5.0314052 5.3728416,4.9305247 5.746809,4.915412 7.5426832,4.9329563 9.994113,4.9569035 9.9536319,4.9449172 9.6554552,5.5586529 9.4189562,6.0454402 9.1433493,6.3887532 8.7209919,6.7226792 L 8.3593399,7.0086105 6.8902374,7.0018718 C 6.0822313,6.9981623 5.3152671,6.9644626 5.1858726,6.9269774 Z"
     id="path1-7" />
  <path
     style="fill:url(#linearGradient12);stroke-width:0.0747239"
     d="M 5.0414172,12.310306 C 4.9558683,12.275697 4.7961442,12.140745 4.686475,12.010411 4.2832859,11.531248 4.5141202,10.707339 5.3690936,9.5739673 6.083744,8.6266092 6.7708779,8.0934834 8.1112235,7.4464338 8.808981,7.1095927 9.0182475,6.9642012 9.4960162,6.4843239 9.89613,6.0824457 10.155359,5.7359325 10.392712,5.2857086 10.697809,4.7069859 10.756783,4.6399396 11.076912,4.5078652 11.413425,4.369031 11.440559,4.3684206 11.765138,4.4923772 12.383653,4.7285902 12.570665,5.3430133 12.24765,6.07765 11.662023,7.4095438 10.597567,8.4514908 8.9846603,9.2716401 7.6136668,9.968778 7.0400604,10.49448 6.5182443,11.532076 c -0.3035156,0.603521 -0.6001632,0.852106 -1.0094364,0.84589 -0.1715154,-0.0026 -0.3818415,-0.03306 -0.4673907,-0.06766 z m 2.0886905,-0.03802 c -0.123709,-0.322381 0.7070118,-1.512181 1.2576226,-1.801233 0.3079981,-0.161687 3.0081187,-0.15087 3.4194177,0.01369 0.385889,0.154402 0.600744,0.496 0.600744,0.955119 0,0.291119 -0.0413,0.392316 -0.255705,0.62634 l -0.255704,0.279119 -2.3608442,0.0217 c -2.0819636,0.01914 -2.3661231,0.0079 -2.4055311,-0.09474 z M 5.1858726,6.3978212 C 5.0564778,6.3603363 4.8463149,6.2108813 4.7188431,6.0656993 4.269684,5.554135 4.4708043,4.7430699 5.1065331,4.502249 5.3728416,4.4013685 5.746809,4.3862558 7.5426832,4.4038001 9.994113,4.4277473 9.9536319,4.415761 9.6554552,5.0294967 9.4189562,5.516284 9.1433493,5.859597 8.7209919,6.193523 L 8.3593399,6.4794543 6.8902374,6.4727156 C 6.0822313,6.4690061 5.3152671,6.4353064 5.1858726,6.3978212 Z"
     id="path1" />
  <rect
     style="opacity:0.5;fill:none;fill-opacity:0.996424;stroke:url(#linearGradient9);stroke-width:0.566102;stroke-dasharray:none;stroke-opacity:1"
     id="rect1-2-6"
     width="11.574203"
     height="11.508601"
     x="2.729686"
     y="2.6615164"
     rx="2.0246315"
     ry="2.0627522" />
</svg>
