<?xml version="1.0" encoding="UTF-8" standalone="no"?>
<svg
   width="64"
   height="64"
   version="1.1"
   viewBox="0 0 16.933 16.933"
   id="svg7"
   sodipodi:docname="Template 4.svg"
   inkscape:version="1.3.2 (091e20ef0f, 2023-11-25)"
   xmlns:inkscape="http://www.inkscape.org/namespaces/inkscape"
   xmlns:sodipodi="http://sodipodi.sourceforge.net/DTD/sodipodi-0.dtd"
   xmlns:xlink="http://www.w3.org/1999/xlink"
   xmlns="http://www.w3.org/2000/svg"
   xmlns:svg="http://www.w3.org/2000/svg"
   xmlns:rdf="http://www.w3.org/1999/02/22-rdf-syntax-ns#"
   xmlns:cc="http://creativecommons.org/ns#"
   xmlns:dc="http://purl.org/dc/elements/1.1/">
  <sodipodi:namedview
     id="namedview7"
     pagecolor="#9c4444"
     bordercolor="#000000"
     borderopacity="0.25"
     inkscape:showpageshadow="2"
     inkscape:pageopacity="0.0"
     inkscape:pagecheckerboard="0"
     inkscape:deskcolor="#d1d1d1"
     inkscape:zoom="4.3531261"
     inkscape:cx="32.964816"
     inkscape:cy="24.350317"
     inkscape:window-width="1463"
     inkscape:window-height="604"
     inkscape:window-x="42"
     inkscape:window-y="99"
     inkscape:window-maximized="0"
     inkscape:current-layer="svg7"
     showgrid="false" />
  <defs
     id="defs2">
    <linearGradient
       id="linearGradient5"
       inkscape:collect="always">
      <stop
         style="stop-color:#392713;stop-opacity:1;"
         offset="0"
         id="stop2" />
      <stop
         style="stop-color:#eed59e;stop-opacity:1;"
         offset="0.5"
         id="stop3" />
      <stop
         style="stop-color:#beaa8a;stop-opacity:1;"
         offset="1"
         id="stop4" />
    </linearGradient>
    <linearGradient
       id="linearGradient8"
       inkscape:collect="always">
      <stop
         style="stop-color:#1a1a1a;stop-opacity:1;"
         offset="0"
         id="stop8" />
      <stop
         style="stop-color:#ffffff;stop-opacity:0;"
         offset="1"
         id="stop9" />
    </linearGradient>
    <linearGradient
       inkscape:collect="always"
       xlink:href="#linearGradient5"
       id="linearGradient41"
       x1="13.675659"
       y1="16.110115"
       x2="13.728528"
       y2="10.548769"
       gradientUnits="userSpaceOnUse"
       gradientTransform="matrix(2.046153,0,0,2.046153,-18.798306,-18.911347)" />
    <linearGradient
       inkscape:collect="always"
       xlink:href="#linearGradient42"
       id="linearGradient4"
       x1="11.885941"
       y1="16.50819"
       x2="12.026573"
       y2="10.244942"
       gradientUnits="userSpaceOnUse"
       gradientTransform="matrix(2.046153,0,0,2.046153,-18.798306,-18.911347)" />
    <linearGradient
       id="linearGradient42"
       inkscape:collect="always">
      <stop
         style="stop-color:#010101;stop-opacity:1;"
         offset="0"
         id="stop42" />
      <stop
         style="stop-color:#6e6c6d;stop-opacity:1;"
         offset="1"
         id="stop43" />
    </linearGradient>
    <linearGradient
       inkscape:collect="always"
       xlink:href="#linearGradient8"
       id="linearGradient9"
       x1="9.3404646"
       y1="4.1692023"
       x2="9.4279938"
       y2="16.46883"
       gradientUnits="userSpaceOnUse"
       gradientTransform="matrix(1.05,0,0,1.05,-0.50277005,-0.1977751)" />
    <filter
       style="color-interpolation-filters:sRGB;"
       inkscape:label="Blur"
       id="filter2"
       x="-0.14510849"
       y="-0.14612901"
       width="1.290217"
       height="1.292258">
      <feGaussianBlur
         stdDeviation="0.6 0.6"
         result="blur"
         id="feGaussianBlur2" />
    </filter>
    <linearGradient
       inkscape:collect="always"
       xlink:href="#linearGradient5"
       id="linearGradient49"
       x1="8.6884527"
       y1="12.41521"
       x2="8.8653488"
       y2="4.0619106"
       gradientUnits="userSpaceOnUse" />
  </defs>
  <metadata
     id="metadata2">
    <rdf:RDF>
      <cc:Work
         rdf:about="">
        <dc:format>image/svg+xml</dc:format>
        <dc:type
           rdf:resource="http://purl.org/dc/dcmitype/StillImage" />
      </cc:Work>
    </rdf:RDF>
  </metadata>
  <rect
     style="fill:#000000;fill-opacity:0.996424;stroke:#000000;stroke-width:0.911802;stroke-dasharray:none;stroke-opacity:1;filter:url(#filter2)"
     id="rect1-2-3"
     width="13.065404"
     height="12.974159"
     x="1.9816793"
     y="1.9267306"
     rx="2.7149384"
     ry="2.8310909" />
  <rect
     style="fill:url(#linearGradient4);fill-opacity:0.996424;stroke:url(#linearGradient41);stroke-width:0.911802;stroke-dasharray:none;stroke-opacity:1"
     id="rect1-2"
     width="13.065404"
     height="12.974159"
     x="1.9816793"
     y="1.9267306"
     rx="2.7149384"
     ry="2.8310909" />
  <path
     d="m 4.757105,4.6493082 v 0.00214 1.6763554 1.6763549 1.6763557 0.5552658 1.121091 0.276577 0.278688 a 1.0412184,1.1189781 0 0 0 1.0392543,1.116866 H 5.5232851 l 0.01768,0.0021 H 6.320896 7.8807588 9.4406214 11.000486 12.560348 V 11.354779 H 11.000486 9.4406235 8.4504841 L 9.3089976,10.822737 10.658652,9.9845587 12.010271,9.1463815 11.23034,7.6959322 9.8787201,8.5341097 8.5290668,9.3722884 7.6744813,9.9022188 8.1675873,8.9838123 8.9475184,7.5333635 9.7274494,6.0808036 8.3719014,5.2405151 7.5919701,6.693075 6.8120385,8.1435237 6.316969,9.0661526 V 8.0020657 6.3257102 4.6493544 Z m 1.0392543,6.7033098 c 0.1375185,0 0.2691456,0.05911 0.367373,0.162568 0.098229,0.103458 0.1512706,0.24702 0.1512706,0.39481 0,0.14779 -0.055007,0.289245 -0.1512706,0.394809 -0.096264,0.105559 -0.2298545,0.162568 -0.367373,0.162568 -0.1375192,0 -0.269146,-0.05912 -0.3673738,-0.162568 -0.098228,-0.103457 -0.1512709,-0.247019 -0.1512709,-0.394809 0,-0.14779 0.055008,-0.289244 0.1512709,-0.39481 0.096264,-0.10556 0.2298546,-0.162568 0.3673738,-0.162568 z"
     fill="#bebebe"
     id="path2-3-7"
     style="fill:#000000;fill-opacity:1;stroke:none;stroke-width:0.279568;stroke-dasharray:none;stroke-opacity:0.3;opacity:0.3" />
  <path
     d="m 4.757105,4.120152 v 0.00214 1.6763554 1.6763549 1.6763557 0.555266 1.121091 0.276577 0.278688 a 1.0412184,1.1189781 0 0 0 1.0392543,1.116866 H 5.5232851 l 0.01768,0.0021 H 6.320896 7.8807588 9.4406214 11.000486 12.560348 V 10.825623 H 11.000486 9.4406235 8.4504841 L 9.3089976,10.293581 10.658652,9.4554025 12.010271,8.6172253 11.23034,7.166776 9.8787201,8.0049535 8.5290668,8.8431322 7.6744813,9.3730626 8.1675873,8.4546561 8.9475184,7.0042073 9.7274494,5.5516474 8.3719014,4.7113589 7.5919701,6.1639188 6.8120385,7.6143675 6.316969,8.5369964 V 7.4729095 5.796554 4.1201982 Z m 1.0392543,6.70331 c 0.1375185,0 0.2691456,0.05911 0.367373,0.162568 0.098229,0.103458 0.1512706,0.24702 0.1512706,0.39481 0,0.14779 -0.055007,0.289245 -0.1512706,0.394809 -0.096264,0.105559 -0.2298545,0.162568 -0.367373,0.162568 -0.1375192,0 -0.269146,-0.05912 -0.3673738,-0.162568 -0.098228,-0.103457 -0.1512709,-0.247019 -0.1512709,-0.394809 0,-0.14779 0.055008,-0.289244 0.1512709,-0.39481 0.096264,-0.10556 0.2298546,-0.162568 0.3673738,-0.162568 z"
     fill="#bebebe"
     id="path2-3"
     style="fill:url(#linearGradient49);fill-opacity:1;stroke:none;stroke-width:0.279568;stroke-dasharray:none;stroke-opacity:0.3" />
  <rect
     style="opacity:0.5;fill:none;fill-opacity:0.996424;stroke:url(#linearGradient9);stroke-width:0.566102;stroke-dasharray:none;stroke-opacity:1"
     id="rect1-2-6"
     width="11.574203"
     height="11.508601"
     x="2.729686"
     y="2.6615164"
     rx="2.0246315"
     ry="2.0627522" />
</svg>
