<?xml version="1.0" encoding="UTF-8" standalone="no"?>
<svg
   width="64"
   height="64"
   version="1.1"
   viewBox="0 0 16.933 16.933"
   id="svg7"
   sodipodi:docname="Template 4.svg"
   inkscape:version="1.3.2 (091e20ef0f, 2023-11-25)"
   xmlns:inkscape="http://www.inkscape.org/namespaces/inkscape"
   xmlns:sodipodi="http://sodipodi.sourceforge.net/DTD/sodipodi-0.dtd"
   xmlns:xlink="http://www.w3.org/1999/xlink"
   xmlns="http://www.w3.org/2000/svg"
   xmlns:svg="http://www.w3.org/2000/svg"
   xmlns:rdf="http://www.w3.org/1999/02/22-rdf-syntax-ns#"
   xmlns:cc="http://creativecommons.org/ns#"
   xmlns:dc="http://purl.org/dc/elements/1.1/">
  <sodipodi:namedview
     id="namedview7"
     pagecolor="#9c4444"
     bordercolor="#000000"
     borderopacity="0.25"
     inkscape:showpageshadow="2"
     inkscape:pageopacity="0.0"
     inkscape:pagecheckerboard="0"
     inkscape:deskcolor="#d1d1d1"
     inkscape:zoom="4.3531261"
     inkscape:cx="32.964816"
     inkscape:cy="24.350317"
     inkscape:window-width="1463"
     inkscape:window-height="604"
     inkscape:window-x="199"
     inkscape:window-y="276"
     inkscape:window-maximized="0"
     inkscape:current-layer="svg7"
     showgrid="false" />
  <defs
     id="defs2">
    <linearGradient
       id="linearGradient5"
       inkscape:collect="always">
      <stop
         style="stop-color:#392713;stop-opacity:1;"
         offset="0"
         id="stop2" />
      <stop
         style="stop-color:#eed59e;stop-opacity:1;"
         offset="0.5"
         id="stop3" />
      <stop
         style="stop-color:#beaa8a;stop-opacity:1;"
         offset="1"
         id="stop4" />
    </linearGradient>
    <linearGradient
       id="linearGradient8"
       inkscape:collect="always">
      <stop
         style="stop-color:#1a1a1a;stop-opacity:1;"
         offset="0"
         id="stop8" />
      <stop
         style="stop-color:#ffffff;stop-opacity:0;"
         offset="1"
         id="stop9" />
    </linearGradient>
    <linearGradient
       inkscape:collect="always"
       xlink:href="#linearGradient5"
       id="linearGradient41"
       x1="13.675659"
       y1="16.110115"
       x2="13.728528"
       y2="10.548769"
       gradientUnits="userSpaceOnUse"
       gradientTransform="matrix(2.046153,0,0,2.046153,-18.798306,-18.911347)" />
    <linearGradient
       inkscape:collect="always"
       xlink:href="#linearGradient42"
       id="linearGradient4"
       x1="11.885941"
       y1="16.50819"
       x2="12.026573"
       y2="10.244942"
       gradientUnits="userSpaceOnUse"
       gradientTransform="matrix(2.046153,0,0,2.046153,-18.798306,-18.911347)" />
    <linearGradient
       id="linearGradient42"
       inkscape:collect="always">
      <stop
         style="stop-color:#010101;stop-opacity:1;"
         offset="0"
         id="stop42" />
      <stop
         style="stop-color:#6e6c6d;stop-opacity:1;"
         offset="1"
         id="stop43" />
    </linearGradient>
    <linearGradient
       inkscape:collect="always"
       xlink:href="#linearGradient8"
       id="linearGradient9"
       x1="9.3404646"
       y1="4.1692023"
       x2="9.4279938"
       y2="16.46883"
       gradientUnits="userSpaceOnUse"
       gradientTransform="matrix(1.05,0,0,1.05,-0.50277005,-0.1977751)" />
    <filter
       style="color-interpolation-filters:sRGB;"
       inkscape:label="Blur"
       id="filter2"
       x="-0.14510849"
       y="-0.14612901"
       width="1.290217"
       height="1.292258">
      <feGaussianBlur
         stdDeviation="0.6 0.6"
         result="blur"
         id="feGaussianBlur2" />
    </filter>
    <linearGradient
       inkscape:collect="always"
       xlink:href="#linearGradient5"
       id="linearGradient64"
       x1="33.877071"
       y1="49.806255"
       x2="33.506401"
       y2="14.449214"
       gradientUnits="userSpaceOnUse"
       gradientTransform="matrix(0.2121652,0,0,0.2121652,1.632045,1.5986906)" />
  </defs>
  <metadata
     id="metadata2">
    <rdf:RDF>
      <cc:Work
         rdf:about="">
        <dc:format>image/svg+xml</dc:format>
        <dc:type
           rdf:resource="http://purl.org/dc/dcmitype/StillImage" />
      </cc:Work>
    </rdf:RDF>
  </metadata>
  <rect
     style="fill:#000000;fill-opacity:0.996424;stroke:#000000;stroke-width:0.911802;stroke-dasharray:none;stroke-opacity:1;filter:url(#filter2)"
     id="rect1-2-3"
     width="13.065404"
     height="12.974159"
     x="1.9816793"
     y="1.9267306"
     rx="2.7149384"
     ry="2.8310909" />
  <rect
     style="fill:url(#linearGradient4);fill-opacity:0.996424;stroke:url(#linearGradient41);stroke-width:0.911802;stroke-dasharray:none;stroke-opacity:1"
     id="rect1-2"
     width="13.065404"
     height="12.974159"
     x="1.9816793"
     y="1.9267306"
     rx="2.7149384"
     ry="2.8310909" />
  <path
     id="path1-9"
     style="fill:#000000;fill-opacity:1;stroke-width:0.0208504;opacity:0.3"
     d="m 7.6953604,5.1225336 c -2.4067643,4.455e-4 -2.522092,0.00172 -2.6017972,0.038608 -0.1021997,0.047317 -0.1851994,0.1333664 -0.2281398,0.2361621 -0.028692,0.068684 -0.032592,0.3758395 -0.032592,2.6955589 0,2.3197194 0.00388,2.6268734 0.032592,2.6955574 0.042935,0.102796 0.1259401,0.188847 0.2281398,0.236164 0.079709,0.03692 0.1950329,0.03868 2.6017972,0.0391 2.7579966,5.08e-4 2.5965006,0.0078 2.7331656,-0.120339 0.03299,-0.03093 0.07754,-0.09402 0.09878,-0.139892 0.03694,-0.07977 0.03868,-0.198078 0.0391,-2.7166177 4.45e-4,-2.5506133 -0.0012,-2.6356685 -0.03961,-2.7106007 -0.05117,-0.099507 -0.137904,-0.1812838 -0.235653,-0.2221167 -0.06865,-0.028679 -0.3655156,-0.032 -2.5957804,-0.031589 z M 6.909657,6.2737616 c 0.028624,-4.666e-4 0.058441,0.00871 0.087744,0.030586 0.029545,0.022056 0.060799,0.065872 0.069193,0.097273 C 7.085474,6.4722076 7.05138,6.5754031 7.00041,6.6026847 6.935138,6.6376185 6.8557037,6.6254474 6.8023537,6.5720984 6.6889538,6.458698 6.7856372,6.2757419 6.9096552,6.2737615 Z m -1.1803111,0.036603 c 0.2864978,0 0.3544954,0.00545 0.3544954,0.02858 0,0.017294 -0.032932,0.033996 -0.083737,0.042118 -0.064487,0.010313 -0.088792,0.025923 -0.104293,0.066686 -0.030788,0.080981 -0.026722,1.1821681 0.00446,1.2134023 0.030953,0.030955 0.2434231,0.032975 0.3229062,0.00301 0.09048,-0.034113 0.1813216,-0.1334877 0.2466919,-0.2702577 0.039928,-0.083536 0.071695,-0.1243489 0.096768,-0.1243489 0.029245,0 0.035309,0.012276 0.027576,0.05716 -0.033951,0.1972084 -0.072142,0.4349539 -0.072199,0.4482572 -3.68e-5,0.00859 -0.258249,0.015543 -0.5736092,0.015543 -0.5515735,0 -0.573609,-0.00158 -0.573609,-0.040113 0,-0.027565 0.019505,-0.044167 0.062671,-0.053651 0.034494,-0.00758 0.072364,-0.030898 0.083737,-0.052145 0.027557,-0.051499 0.027557,-1.1573927 0,-1.20889 -0.011372,-0.02125 -0.049234,-0.045072 -0.083737,-0.052647 -0.034494,-0.00758 -0.062671,-0.026831 -0.062671,-0.043121 0,-0.02443 0.062138,-0.029584 0.3544941,-0.029584 z m 1.6787086,0 h 0.198056 v 0.2622351 0.2622357 l 0.074209,-0.045628 c 0.1076405,-0.066525 0.2768604,-0.051112 0.3660265,0.033594 0.1230504,0.1168938 0.1539321,0.2046753 0.1539321,0.4362232 0,0.1924584 -0.00466,0.2171221 -0.062177,0.3209 C 8.0489601,7.7408703 7.950185,7.8009742 7.7745813,7.8010439 7.6641004,7.8010875 7.6241762,7.7917539 7.5690052,7.7524079 l -0.068697,-0.049138 -0.070696,0.054152 c -0.038976,0.029732 -0.08103,0.054153 -0.093265,0.054153 -0.01531,0 -0.022066,-0.2177626 -0.022066,-0.6989602 V 6.4136542 L 7.2621362,6.3900872 C 7.233464,6.3770246 7.209992,6.3538019 7.209992,6.3384416 c 0,-0.021379 0.046439,-0.028078 0.1980556,-0.028078 z m 1.5658917,0.4362232 c 0.04377,0.00247 0.082786,0.02103 0.1108112,0.056659 0.061924,0.078729 0.057004,0.1812505 -0.011527,0.2351596 -0.073597,0.057891 -0.1035446,0.054898 -0.177498,-0.019053 -0.034406,-0.034403 -0.076857,-0.062675 -0.09376,-0.062675 -0.060187,0 -0.091062,0.1329085 -0.090752,0.3900942 3.394e-4,0.3041781 0.00854,0.3380442 0.085736,0.3534911 0.040355,0.00807 0.060168,0.024779 0.060168,0.051143 0,0.03622 -0.020134,0.03911 -0.2712608,0.03911 -0.2450006,0 -0.2707603,-0.00338 -0.2707603,-0.036602 0,-0.020215 0.020832,-0.045842 0.046633,-0.057161 0.046021,-0.020188 0.047089,-0.028649 0.052648,-0.422685 l 0.00553,-0.4016266 -0.052648,-0.020054 c -0.028915,-0.010994 -0.052143,-0.034159 -0.052143,-0.051645 0,-0.026257 0.034456,-0.031588 0.1980555,-0.031588 h 0.198058 l 5.092e-4,0.06769 c 7.001e-4,0.066595 0.00147,0.067186 0.036599,0.025572 0.067087,-0.07936 0.1526797,-0.119912 0.2256325,-0.115825 z m 0.625254,0.00252 c 0.059304,4.879e-4 0.1166507,0.010546 0.1544332,0.030083 0.1171465,0.06058 0.2085856,0.2312329 0.2085856,0.3890913 v 0.080227 H 9.7220458 9.4823725 l 5.092e-4,0.07822 c 5.091e-4,0.088834 0.05846,0.2302819 0.1128163,0.2752716 0.065493,0.054203 0.1708241,0.037824 0.2502017,-0.03911 0.045797,-0.04439 0.08397,-0.064842 0.1052952,-0.05666 0.029727,0.011408 0.029934,0.018791 0.00297,0.070198 C 9.913295,7.6545113 9.797797,7.7624762 9.7260521,7.7895253 9.6464589,7.8195415 9.5067327,7.815967 9.4287374,7.7820085 9.2798698,7.7171835 9.1810351,7.5171717 9.1810351,7.2800942 c 0,-0.240339 0.099781,-0.4397246 0.2522068,-0.5034117 0.045167,-0.018875 0.106666,-0.028054 0.1659663,-0.027577 z m 1.2184178,0.016547 -0.0055,2.1334825 c -0.0061,2.3504407 0.0038,2.1813787 -0.133374,2.3185017 -0.136888,0.136891 0.02057,0.127691 -2.2137078,0.133874 l -2.0286897,0.0055 0.00601,0.540015 0.00651,0.540013 0.062672,0.08925 c 0.067067,0.09537 0.1608405,0.160212 0.2677501,0.186021 0.03624,0.0087 1.1921855,0.01433 2.5692057,0.01253 l 2.5040217,-0.003 0.101283,-0.06317 c 0.07402,-0.04577 0.117536,-0.0928 0.15995,-0.173988 l 0.05866,-0.111813 V 9.7520154 7.131166 L 12.11473,7.0178484 C 12.07169,6.9329514 12.03177,6.8888837 11.954783,6.8418548 l -0.102288,-0.062675 -0.517452,-0.00652 z m -3.9515834,0.00352 h 0.1980558 v 0.4477554 c 0,0.4255235 0.00203,0.4496003 0.041615,0.47433 0.022927,0.014325 0.041616,0.0425 0.041616,0.062675 0,0.032885 -0.024722,0.036602 -0.2396731,0.036602 -0.2258759,0 -0.2401731,-0.00233 -0.2401731,-0.041617 0,-0.022935 0.00893,-0.041616 0.019553,-0.041616 0.010644,0 0.034125,-0.014571 0.052144,-0.032591 0.027343,-0.027351 0.032592,-0.094549 0.032592,-0.4061434 V 6.8950169 l -0.052144,-0.034096 c -0.028672,-0.018784 -0.052143,-0.047293 -0.052143,-0.063176 0,-0.022577 0.043702,-0.02858 0.1985571,-0.02858 z m 2.7316616,0.072701 c -0.072607,0 -0.1024382,0.049015 -0.1243495,0.203571 l -0.014041,0.098771 h 0.1263551 0.1263539 l -0.00146,-0.07822 C 9.7099142,7.0229916 9.6981707,6.9552091 9.6844801,6.9150722 9.6634922,6.8535176 9.6502681,6.8418672 9.5977349,6.8418672 Z m -1.8592148,0.037605 c -0.015379,4.667e-4 -0.031234,0.00527 -0.047632,0.014041 -0.073365,0.039264 -0.084736,0.094615 -0.084736,0.4136599 0,0.2833762 0.00378,0.316019 0.043121,0.3660264 0.072666,0.092384 0.1617149,0.063233 0.2151026,-0.070196 C 7.914539,7.477535 7.910541,7.1008872 7.857837,6.9847705 7.825689,6.9139746 7.7846452,6.8780945 7.7384999,6.8794743 Z M 7.0756224,8.2483144 C 7.2070785,8.2443634 7.3354355,8.3045131 7.3644327,8.4207986 7.3971801,8.5521183 7.2953766,8.6513102 7.18543,8.5952877 7.1421833,8.5732488 7.1371961,8.5568884 7.1408063,8.4513803 7.1449778,8.3299976 7.1304845,8.311165 7.0640944,8.353105 7.0410475,8.3676615 7.030852,8.422364 7.0254858,8.5611884 l -0.00757,0.1885289 h 0.085736 c 0.077275,0 0.085241,0.00502 0.085241,0.052145 0,0.046912 -0.00815,0.052145 -0.083232,0.052145 h -0.083736 v 0.375553 c 0,0.3475048 0.00349,0.3780569 0.042121,0.4166689 0.022939,0.022935 0.060294,0.041616 0.083233,0.041616 0.023172,0 0.041616,0.014215 0.041616,0.031588 0,0.026256 -0.044984,0.031088 -0.2812894,0.031088 -0.2213105,0 -0.2817893,-0.00612 -0.2817893,-0.028078 0,-0.015358 0.023472,-0.038583 0.052144,-0.051646 l 0.052144,-0.023565 V 9.2506236 8.854011 h -0.052144 c -0.041702,0 -0.052143,-0.010447 -0.052143,-0.052145 0,-0.040496 0.010867,-0.052146 0.048137,-0.052146 0.043868,0 0.049748,-0.013527 0.070696,-0.1589458 0.01333,-0.092535 0.039859,-0.1817767 0.063176,-0.2135988 0.06143,-0.083859 0.1655067,-0.1257935 0.2677514,-0.1288612 z m 0.6779017,5.093e-4 c 0.096991,0.00403 0.1892622,0.040917 0.2371645,0.1093062 0.026712,0.038138 0.032088,0.04001 0.032088,0.01053 0,-0.055513 0.077071,-0.1193347 0.1439034,-0.1193347 0.1012875,0 0.1584445,0.064378 0.1584445,0.1774979 0,0.077323 -0.01011,0.1057792 -0.049136,0.137385 -0.063137,0.051132 -0.129276,0.050627 -0.1955475,-0.0015 L 8.027793,8.5210811 7.997704,8.5657061 C 7.963122,8.6177851 7.8568939,8.6268491 7.803158,8.5822531 7.771003,8.5555671 7.7678,8.472458 7.795098,8.3746709 7.810147,8.3208459 7.723985,8.3385579 7.695318,8.3952299 7.68081,8.4238999 7.668916,8.51566 7.668742,8.5988008 v 0.1509235 h 0.083232 c 0.075063,0 0.083233,0.00522 0.083233,0.052146 0,0.046912 -0.00815,0.052146 -0.083233,0.052146 h -0.083227 v 0.3529859 c 0,0.1942032 0.00873,0.3774769 0.020054,0.4071419 0.01371,0.036055 0.041694,0.058279 0.083737,0.066686 0.034592,0.00692 0.062672,0.025346 0.062672,0.041116 0,0.022909 -0.056355,0.02858 -0.2812888,0.02858 -0.2213117,0 -0.2817905,-0.00612 -0.2817905,-0.028079 0,-0.015359 0.023472,-0.038583 0.052143,-0.051646 L 7.376417,9.6472371 V 9.2506221 8.8540097 H 7.324273 c -0.041702,0 -0.052143,-0.010447 -0.052143,-0.052146 0,-0.041289 0.010541,-0.052145 0.05064,-0.052145 0.046157,0 0.051804,-0.010527 0.064175,-0.1198362 C 7.405516,8.4658188 7.432121,8.3882056 7.486724,8.3370623 7.554597,8.2734803 7.6564793,8.2447873 7.7534723,8.2488143 Z m -1.9113612,0.00352 c 0.020637,-2.031e-4 0.0415,1.152e-4 0.062672,0.0015 0.2590906,0.016996 0.4554715,0.1579312 0.571604,0.4101503 0.1053373,0.2287781 0.083232,0.6074787 -0.047632,0.8147848 -0.076362,0.1209676 -0.2339591,0.2473847 -0.3514848,0.282286 -0.109873,0.032629 -0.3420055,0.038766 -0.43121,0.011531 C 5.4512232,9.713101 5.282555,9.5545133 5.2048727,9.3574335 5.1494492,9.2168295 5.1383882,8.8774295 5.1848188,8.7392 5.2868342,8.4354989 5.5326384,8.2553783 5.8421629,8.2523355 Z m 0.00553,0.082732 c -0.03823,-0.0013 -0.072734,0.013389 -0.119836,0.045127 -0.1564305,0.1054191 -0.2175079,0.3289826 -0.2035706,0.7475968 0.00796,0.23804 0.014359,0.2718062 0.070696,0.3845786 0.044934,0.089951 0.081253,0.1334103 0.1343764,0.1599484 0.089297,0.044609 0.1502616,0.046048 0.2286415,0.00551 C 6.1024169,9.603144 6.1740814,9.3940079 6.1761092,9.0415419 6.1782314,8.6714289 6.100222,8.4374728 5.9509787,8.3666494 5.9089939,8.346725 5.8774201,8.3360671 5.8476879,8.3350602 Z M 9.785737,8.7181479 c 0.025969,0.00126 0.052026,0.00548 0.078214,0.012535 0.153619,0.041365 0.236541,0.1651043 0.275272,0.4101502 l 0.01404,0.088749 H 9.8990398 9.6448253 l 0.014544,0.098777 c 0.0389,0.2593932 0.2058503,0.3580788 0.3575027,0.2110918 0.0618,-0.059905 0.132873,-0.071988 0.132873,-0.022563 0,0.041614 -0.1609419,0.2008571 -0.2386695,0.2361626 C 9.7022757,9.8478809 9.4691225,9.7367109 9.3901172,9.5048451 9.3533816,9.3970402 9.3471908,9.1520398 9.3785902,9.0390389 9.4345765,8.8374815 9.603951,8.7092797 9.7857312,8.7181391 Z m -0.8077652,0.00201 c 0.1532076,0.00571 0.2847994,0.091852 0.2847994,0.2411765 0,0.095966 -0.044643,0.142901 -0.1358816,0.142901 -0.075731,0 -0.1049322,-0.041158 -0.1208384,-0.1714811 -0.012781,-0.1046568 -0.016232,-0.1098077 -0.074713,-0.1098077 -0.099015,0 -0.1452808,0.1012932 -0.1464103,0.3219025 -0.00108,0.2122424 0.043575,0.3487366 0.1403932,0.4302063 0.081399,0.068492 0.1808799,0.058575 0.2697572,-0.026574 0.049116,-0.047054 0.063719,-0.052346 0.07872,-0.028079 0.010674,0.017265 0.010274,0.044538 -5.092e-4,0.064681 C 9.238815,9.6494958 9.1089331,9.7480668 9.0296051,9.7700959 8.8299574,9.8255419 8.6583379,9.7490695 8.5532685,9.557503 8.50162,9.4633259 8.4934597,9.4257013 8.4931005,9.2817296 8.4925913,9.076621 8.525169,8.9780219 8.6329929,8.8610498 8.7263551,8.7597625 8.8588009,8.7157159 8.9779602,8.7201548 Z m -0.8609154,0.029579 h 0.1980542 v 0.4362233 c 0,0.3688962 0.00485,0.4416185 0.032593,0.4693159 0.018019,0.018022 0.0415,0.032591 0.052143,0.032591 0.010644,0 0.019553,0.014385 0.019553,0.031588 0,0.026065 -0.041694,0.031088 -0.2502009,0.031088 -0.1951782,0 -0.2502018,-0.0063 -0.2502018,-0.028079 0,-0.015358 0.022976,-0.038583 0.051639,-0.051646 l 0.052144,-0.023565 V 9.2501323 8.8530184 l -0.052144,-0.023567 c -0.028672,-0.013063 -0.051639,-0.036285 -0.051639,-0.051645 0,-0.021379 0.046439,-0.028078 0.1980557,-0.028078 z m 1.6270626,0.065183 c -0.030115,0.00131 -0.042997,0.01748 -0.064174,0.068191 -0.016942,0.040555 -0.030582,0.1117037 -0.030582,0.157943 v 0.084236 H 9.7641865 9.8785078 V 9.0260109 C 9.878083,8.8951874 9.8408178,8.8243373 9.7681968,8.815922 9.7590768,8.814862 9.7510818,8.814612 9.7441318,8.814923 Z" />
  <path
     id="path1"
     style="fill:url(#linearGradient64);fill-opacity:1;stroke-width:0.0208504"
     d="m 7.6953604,4.5933774 c -2.4067643,4.455e-4 -2.522092,0.00172 -2.6017972,0.038608 -0.1021997,0.047317 -0.1851994,0.1333664 -0.2281398,0.2361621 -0.028692,0.068684 -0.032592,0.3758395 -0.032592,2.6955589 0,2.3197192 0.00388,2.6268736 0.032592,2.6955576 0.042935,0.102796 0.1259401,0.188847 0.2281398,0.236164 0.079709,0.03692 0.1950329,0.03868 2.6017972,0.0391 2.7579966,5.08e-4 2.5965006,0.0078 2.7331656,-0.120339 0.03299,-0.03093 0.07754,-0.09402 0.09878,-0.139892 0.03694,-0.07977 0.03868,-0.198078 0.0391,-2.7166179 4.45e-4,-2.5506133 -0.0012,-2.6356685 -0.03961,-2.7106007 -0.05117,-0.099507 -0.137904,-0.1812838 -0.235653,-0.2221167 -0.06865,-0.028679 -0.3655156,-0.032 -2.5957804,-0.031589 z M 6.909657,5.7446054 c 0.028624,-4.666e-4 0.058441,0.00871 0.087744,0.030586 0.029545,0.022056 0.060799,0.065872 0.069193,0.097273 C 7.085474,5.9430514 7.05138,6.0462469 7.00041,6.0735285 6.935138,6.1084623 6.8557037,6.0962912 6.8023537,6.0429422 6.6889538,5.9295418 6.7856372,5.7465857 6.9096552,5.7446053 Z m -1.1803111,0.036603 c 0.2864978,0 0.3544954,0.00545 0.3544954,0.02858 0,0.017294 -0.032932,0.033996 -0.083737,0.042118 -0.064487,0.010313 -0.088792,0.025923 -0.104293,0.066686 -0.030788,0.080981 -0.026722,1.1821681 0.00446,1.2134023 0.030953,0.030955 0.2434231,0.032975 0.3229062,0.00301 0.09048,-0.034113 0.1813216,-0.1334877 0.2466919,-0.2702577 0.039928,-0.083536 0.071695,-0.1243489 0.096768,-0.1243489 0.029245,0 0.035309,0.012276 0.027576,0.05716 -0.033951,0.1972084 -0.072142,0.4349539 -0.072199,0.4482572 -3.68e-5,0.00859 -0.258249,0.015543 -0.5736092,0.015543 -0.5515735,0 -0.573609,-0.00158 -0.573609,-0.040113 0,-0.027565 0.019505,-0.044167 0.062671,-0.053651 0.034494,-0.00758 0.072364,-0.030898 0.083737,-0.052145 0.027557,-0.051499 0.027557,-1.1573927 0,-1.20889 -0.011372,-0.02125 -0.049234,-0.045072 -0.083737,-0.052647 -0.034494,-0.00758 -0.062671,-0.026831 -0.062671,-0.043121 0,-0.02443 0.062138,-0.029584 0.3544941,-0.029584 z m 1.6787086,0 h 0.198056 v 0.2622351 0.2622357 l 0.074209,-0.045628 C 7.78796,6.1935262 7.9571799,6.2089392 8.046346,6.2936452 8.1693964,6.410539 8.2002781,6.4983205 8.2002781,6.7298684 c 0,0.1924584 -0.00466,0.2171221 -0.062177,0.3209 C 8.0489601,7.2117141 7.950185,7.271818 7.7745813,7.2718877 7.6641004,7.2719313 7.6241762,7.2625977 7.5690052,7.2232517 l -0.068697,-0.049138 -0.070696,0.054152 c -0.038976,0.029732 -0.08103,0.054153 -0.093265,0.054153 -0.01531,0 -0.022066,-0.2177626 -0.022066,-0.6989602 V 5.884498 L 7.2621362,5.860931 C 7.233464,5.8478684 7.209992,5.8246457 7.209992,5.8092854 c 0,-0.021379 0.046439,-0.028078 0.1980556,-0.028078 z m 1.5658917,0.4362232 c 0.04377,0.00247 0.082786,0.02103 0.1108112,0.056659 0.061924,0.078729 0.057004,0.1812505 -0.011527,0.2351596 -0.073597,0.057891 -0.1035446,0.054898 -0.177498,-0.019053 -0.034406,-0.034403 -0.076857,-0.062675 -0.09376,-0.062675 -0.060187,0 -0.091062,0.1329085 -0.090752,0.3900942 3.394e-4,0.3041781 0.00854,0.3380442 0.085736,0.3534911 0.040355,0.00807 0.060168,0.024779 0.060168,0.051143 0,0.03622 -0.020134,0.03911 -0.2712608,0.03911 -0.2450006,0 -0.2707603,-0.00338 -0.2707603,-0.036602 0,-0.020215 0.020832,-0.045842 0.046633,-0.057161 0.046021,-0.020188 0.047089,-0.028649 0.052648,-0.422685 l 0.00553,-0.4016266 -0.052648,-0.020054 c -0.028915,-0.010994 -0.052143,-0.034159 -0.052143,-0.051645 0,-0.026257 0.034456,-0.031588 0.1980555,-0.031588 h 0.198058 l 5.092e-4,0.06769 c 7.001e-4,0.066595 0.00147,0.067186 0.036599,0.025572 0.067087,-0.07936 0.1526797,-0.119912 0.2256325,-0.115825 z m 0.625254,0.00252 c 0.059304,4.879e-4 0.1166507,0.010546 0.1544332,0.030083 0.1171465,0.06058 0.2085856,0.2312329 0.2085856,0.3890913 v 0.080227 H 9.7220458 9.4823725 l 5.092e-4,0.07822 c 5.091e-4,0.088834 0.05846,0.2302819 0.1128163,0.2752716 0.065493,0.054203 0.1708241,0.037824 0.2502017,-0.03911 0.045797,-0.04439 0.08397,-0.064842 0.1052952,-0.05666 0.029727,0.011408 0.029934,0.018791 0.00297,0.070198 C 9.913295,7.1253551 9.797797,7.23332 9.7260521,7.2603691 9.6464589,7.2903853 9.5067327,7.2868108 9.4287374,7.2528523 9.2798698,7.1880273 9.1810351,6.9880155 9.1810351,6.750938 c 0,-0.240339 0.099781,-0.4397246 0.2522068,-0.5034117 0.045167,-0.018875 0.106666,-0.028054 0.1659663,-0.027577 z m 1.2184178,0.016547 -0.0055,2.1334825 c -0.0061,2.3504409 0.0038,2.1813789 -0.133374,2.3185019 -0.136888,0.136891 0.02057,0.127691 -2.2137078,0.133874 l -2.0286897,0.0055 0.00601,0.540015 0.00651,0.540013 0.062672,0.08925 c 0.067067,0.09537 0.1608405,0.160212 0.2677501,0.186021 0.03624,0.0087 1.1921855,0.01433 2.5692057,0.01253 l 2.5040217,-0.003 0.101283,-0.06317 c 0.07402,-0.04577 0.117536,-0.0928 0.15995,-0.173988 l 0.05866,-0.111813 V 9.2228592 6.6020098 L 12.11473,6.4886922 C 12.07169,6.4037952 12.03177,6.3597275 11.954783,6.3126986 l -0.102288,-0.062675 -0.517452,-0.00652 z m -3.9515834,0.00352 H 7.0640904 V 6.687774 c 0,0.4255235 0.00203,0.4496003 0.041615,0.47433 0.022927,0.014325 0.041616,0.0425 0.041616,0.062675 0,0.032885 -0.024722,0.036602 -0.2396731,0.036602 -0.2258759,0 -0.2401731,-0.00233 -0.2401731,-0.041617 0,-0.022935 0.00893,-0.041616 0.019553,-0.041616 0.010644,0 0.034125,-0.014571 0.052144,-0.032591 0.027343,-0.027351 0.032592,-0.094549 0.032592,-0.4061434 V 6.3658607 l -0.052144,-0.034096 c -0.028672,-0.018784 -0.052143,-0.047293 -0.052143,-0.063176 0,-0.022577 0.043702,-0.02858 0.1985571,-0.02858 z M 9.5976962,6.31272 c -0.072607,0 -0.1024382,0.049015 -0.1243495,0.203571 l -0.014041,0.098771 h 0.1263551 0.1263539 l -0.00146,-0.07822 C 9.7099142,6.4938354 9.6981707,6.4260529 9.6844801,6.385916 9.6634922,6.3243614 9.6502681,6.312711 9.5977349,6.312711 Z M 7.7384814,6.350325 c -0.015379,4.667e-4 -0.031234,0.00527 -0.047632,0.014041 -0.073365,0.039264 -0.084736,0.094615 -0.084736,0.4136599 0,0.2833762 0.00378,0.316019 0.043121,0.3660264 0.072666,0.092384 0.1617149,0.063233 0.2151026,-0.070196 C 7.914539,6.9483788 7.910541,6.571731 7.857837,6.4556143 7.825689,6.3848184 7.7846452,6.3489383 7.7384999,6.3503181 Z M 7.0756224,7.7191582 C 7.2070785,7.7152072 7.3354355,7.7753569 7.3644327,7.8916424 7.3971801,8.0229621 7.2953766,8.122154 7.18543,8.0661315 7.1421833,8.0440926 7.1371961,8.0277322 7.1408063,7.9222241 7.1449778,7.8008414 7.1304845,7.7820088 7.0640944,7.8239488 7.0410475,7.8385053 7.030852,7.8932078 7.0254858,8.0320322 l -0.00757,0.1885289 h 0.085736 c 0.077275,0 0.085241,0.00502 0.085241,0.052145 0,0.046912 -0.00815,0.052145 -0.083232,0.052145 h -0.083736 v 0.375553 c 0,0.3475048 0.00349,0.3780569 0.042121,0.4166689 0.022939,0.022935 0.060294,0.041616 0.083233,0.041616 0.023172,0 0.041616,0.014215 0.041616,0.031588 0,0.026256 -0.044984,0.031088 -0.2812894,0.031088 -0.2213105,0 -0.2817893,-0.00612 -0.2817893,-0.028078 0,-0.015358 0.023472,-0.038583 0.052144,-0.051646 L 6.7301041,9.118076 V 8.7214674 8.3248548 h -0.052144 c -0.041702,0 -0.052143,-0.010447 -0.052143,-0.052145 0,-0.040496 0.010867,-0.052146 0.048137,-0.052146 0.043868,0 0.049748,-0.013527 0.070696,-0.1589458 0.01333,-0.092535 0.039859,-0.1817767 0.063176,-0.2135988 0.06143,-0.083859 0.1655067,-0.1257936 0.2677514,-0.1288613 z m 0.6779017,5.093e-4 c 0.096991,0.00403 0.1892622,0.040917 0.2371645,0.1093062 0.026712,0.038138 0.032088,0.04001 0.032088,0.01053 0,-0.055513 0.077071,-0.1193347 0.1439034,-0.1193347 0.1012875,0 0.1584445,0.064378 0.1584445,0.1774978 0,0.077323 -0.01011,0.1057793 -0.049136,0.1373851 -0.063137,0.051132 -0.129276,0.050627 -0.1955475,-0.0015 L 8.027793,7.9919249 7.997704,8.0365499 C 7.963122,8.0886289 7.8568939,8.0976929 7.803158,8.0530969 7.771003,8.0264109 7.7678,7.9433018 7.795098,7.8455147 7.810147,7.7916897 7.723985,7.8094017 7.695318,7.8660737 7.68081,7.8947437 7.668916,7.9865038 7.668742,8.0696446 v 0.1509235 h 0.083232 c 0.075063,0 0.083233,0.00522 0.083233,0.052146 0,0.046912 -0.00815,0.052146 -0.083233,0.052146 H 7.6687466 V 8.677846 c 0,0.1942032 0.00873,0.3774769 0.020054,0.4071419 0.01371,0.036055 0.041694,0.058279 0.083737,0.066686 0.034592,0.00692 0.062672,0.025346 0.062672,0.041116 0,0.022909 -0.056355,0.02858 -0.2812888,0.02858 -0.2213117,0 -0.2817905,-0.00612 -0.2817905,-0.028079 0,-0.015359 0.023472,-0.038583 0.052143,-0.051646 L 7.376417,9.1180809 V 8.7214659 8.3248535 H 7.324273 c -0.041702,0 -0.052143,-0.010447 -0.052143,-0.052146 0,-0.041289 0.010541,-0.052145 0.05064,-0.052145 0.046157,0 0.051804,-0.010527 0.064175,-0.1198362 C 7.405516,7.9366626 7.432121,7.8590494 7.486724,7.8079061 7.554597,7.7443241 7.6564793,7.7156311 7.7534723,7.7196581 Z m -1.9113612,0.00352 c 0.020637,-2.031e-4 0.0415,1.152e-4 0.062672,0.0015 0.2590906,0.016996 0.4554715,0.1579312 0.571604,0.4101503 0.1053373,0.2287781 0.083232,0.6074787 -0.047632,0.8147848 -0.076362,0.1209676 -0.2339591,0.2473847 -0.3514848,0.282286 -0.109873,0.032629 -0.3420055,0.038766 -0.43121,0.011531 C 5.4512232,9.1839448 5.282555,9.0253571 5.2048727,8.8282773 5.1494492,8.6876733 5.1383882,8.3482733 5.1848188,8.2100438 5.2868342,7.9063427 5.5326384,7.7262221 5.8421629,7.7231793 Z m 0.00553,0.082732 c -0.03823,-0.0013 -0.072734,0.013389 -0.119836,0.045127 -0.1564305,0.1054191 -0.2175079,0.3289826 -0.2035706,0.7475968 0.00796,0.23804 0.014359,0.2718062 0.070696,0.3845786 0.044934,0.089951 0.081253,0.1334103 0.1343764,0.1599484 0.089297,0.044609 0.1502616,0.046048 0.2286415,0.00551 C 6.1024169,9.0739878 6.1740814,8.8648517 6.1761092,8.5123857 6.1782314,8.1422727 6.100222,7.9083166 5.9509787,7.8374932 5.9089939,7.8175688 5.8774201,7.8069109 5.8476879,7.805904 Z M 9.785737,8.1889917 c 0.025969,0.00126 0.052026,0.00548 0.078214,0.012535 0.153619,0.041365 0.236541,0.1651043 0.275272,0.4101502 l 0.01404,0.088749 H 9.8990398 9.6448253 l 0.014544,0.098777 c 0.0389,0.2593931 0.2058503,0.3580788 0.3575027,0.2110917 0.0618,-0.059905 0.132873,-0.071988 0.132873,-0.022563 0,0.041614 -0.1609419,0.2008571 -0.2386695,0.2361627 C 9.7022757,9.3187247 9.4691225,9.2075547 9.3901172,8.9756889 9.3533816,8.867884 9.3471908,8.6228836 9.3785902,8.5098827 9.4345765,8.3083253 9.603951,8.1801235 9.7857312,8.1889829 Z m -0.8077652,0.00201 c 0.1532076,0.00571 0.2847994,0.091852 0.2847994,0.2411764 0,0.095966 -0.044643,0.142901 -0.1358816,0.142901 -0.075731,0 -0.1049322,-0.041158 -0.1208384,-0.1714811 -0.012781,-0.1046568 -0.016232,-0.1098077 -0.074713,-0.1098077 -0.099015,0 -0.1452808,0.1012932 -0.1464103,0.3219025 -0.00108,0.2122424 0.043575,0.3487366 0.1403932,0.4302063 0.081399,0.068492 0.1808799,0.058575 0.2697572,-0.026574 0.049116,-0.047054 0.063719,-0.052346 0.07872,-0.028079 0.010674,0.017265 0.010274,0.044538 -5.092e-4,0.064681 C 9.238815,9.1203396 9.1089331,9.2189106 9.0296051,9.2409397 8.8299574,9.2963857 8.6583379,9.2199133 8.5532685,9.0283468 8.50162,8.9341697 8.4934597,8.8965451 8.4931005,8.7525734 8.4925913,8.5474648 8.525169,8.4488657 8.6329929,8.3318936 8.7263551,8.2306063 8.8588009,8.1865597 8.9779602,8.1909986 Z m -0.8609154,0.029579 h 0.1980542 v 0.4362232 c 0,0.3688962 0.00485,0.4416185 0.032593,0.469316 0.018019,0.018022 0.0415,0.032591 0.052143,0.032591 0.010644,0 0.019553,0.014385 0.019553,0.031588 0,0.026065 -0.041694,0.031088 -0.2502009,0.031088 -0.1951782,0 -0.2502018,-0.0063 -0.2502018,-0.028079 0,-0.015358 0.022976,-0.038583 0.051639,-0.051646 l 0.052144,-0.023565 V 8.7209761 8.3238622 l -0.052144,-0.023567 c -0.028672,-0.013063 -0.051639,-0.036285 -0.051639,-0.051645 0,-0.021379 0.046439,-0.028078 0.1980557,-0.028078 z m 1.6270626,0.065183 c -0.030115,0.00131 -0.042997,0.01748 -0.064174,0.068191 -0.016942,0.040555 -0.030582,0.1117037 -0.030582,0.157943 v 0.084236 H 9.7641865 9.8785078 V 8.4968547 C 9.878083,8.3660312 9.8408178,8.2951811 9.7681968,8.2867658 c -0.00912,-0.00106 -0.017115,-0.00131 -0.024065,-9.99e-4 z" />
  <rect
     style="opacity:0.5;fill:none;fill-opacity:0.996424;stroke:url(#linearGradient9);stroke-width:0.566102;stroke-dasharray:none;stroke-opacity:1"
     id="rect1-2-6"
     width="11.574203"
     height="11.508601"
     x="2.729686"
     y="2.6615164"
     rx="2.0246315"
     ry="2.0627522" />
</svg>
