<?xml version="1.0" encoding="UTF-8" standalone="no"?>
<svg
   width="64"
   height="64"
   version="1.1"
   viewBox="0 0 16.933 16.933"
   id="svg7"
   sodipodi:docname="Template 4.svg"
   inkscape:version="1.3.2 (091e20ef0f, 2023-11-25)"
   xmlns:inkscape="http://www.inkscape.org/namespaces/inkscape"
   xmlns:sodipodi="http://sodipodi.sourceforge.net/DTD/sodipodi-0.dtd"
   xmlns:xlink="http://www.w3.org/1999/xlink"
   xmlns="http://www.w3.org/2000/svg"
   xmlns:svg="http://www.w3.org/2000/svg"
   xmlns:rdf="http://www.w3.org/1999/02/22-rdf-syntax-ns#"
   xmlns:cc="http://creativecommons.org/ns#"
   xmlns:dc="http://purl.org/dc/elements/1.1/">
  <sodipodi:namedview
     id="namedview7"
     pagecolor="#9c4444"
     bordercolor="#000000"
     borderopacity="0.25"
     inkscape:showpageshadow="2"
     inkscape:pageopacity="0.0"
     inkscape:pagecheckerboard="0"
     inkscape:deskcolor="#d1d1d1"
     inkscape:zoom="4.3531261"
     inkscape:cx="32.964816"
     inkscape:cy="24.350317"
     inkscape:window-width="1463"
     inkscape:window-height="604"
     inkscape:window-x="199"
     inkscape:window-y="276"
     inkscape:window-maximized="0"
     inkscape:current-layer="svg7"
     showgrid="false" />
  <defs
     id="defs2">
    <linearGradient
       id="linearGradient5"
       inkscape:collect="always">
      <stop
         style="stop-color:#392713;stop-opacity:1;"
         offset="0"
         id="stop2" />
      <stop
         style="stop-color:#eed59e;stop-opacity:1;"
         offset="0.5"
         id="stop3" />
      <stop
         style="stop-color:#beaa8a;stop-opacity:1;"
         offset="1"
         id="stop4" />
    </linearGradient>
    <linearGradient
       id="linearGradient8"
       inkscape:collect="always">
      <stop
         style="stop-color:#1a1a1a;stop-opacity:1;"
         offset="0"
         id="stop8" />
      <stop
         style="stop-color:#ffffff;stop-opacity:0;"
         offset="1"
         id="stop9" />
    </linearGradient>
    <linearGradient
       inkscape:collect="always"
       xlink:href="#linearGradient5"
       id="linearGradient41"
       x1="13.675659"
       y1="16.110115"
       x2="13.728528"
       y2="10.548769"
       gradientUnits="userSpaceOnUse"
       gradientTransform="matrix(2.046153,0,0,2.046153,-18.798306,-18.911347)" />
    <linearGradient
       inkscape:collect="always"
       xlink:href="#linearGradient42"
       id="linearGradient4"
       x1="11.885941"
       y1="16.50819"
       x2="12.026573"
       y2="10.244942"
       gradientUnits="userSpaceOnUse"
       gradientTransform="matrix(2.046153,0,0,2.046153,-18.798306,-18.911347)" />
    <linearGradient
       id="linearGradient42"
       inkscape:collect="always">
      <stop
         style="stop-color:#010101;stop-opacity:1;"
         offset="0"
         id="stop42" />
      <stop
         style="stop-color:#6e6c6d;stop-opacity:1;"
         offset="1"
         id="stop43" />
    </linearGradient>
    <linearGradient
       inkscape:collect="always"
       xlink:href="#linearGradient8"
       id="linearGradient9"
       x1="9.3404646"
       y1="4.1692023"
       x2="9.4279938"
       y2="16.46883"
       gradientUnits="userSpaceOnUse"
       gradientTransform="matrix(1.05,0,0,1.05,-0.50277005,-0.1977751)" />
    <filter
       style="color-interpolation-filters:sRGB;"
       inkscape:label="Blur"
       id="filter2"
       x="-0.14510849"
       y="-0.14612901"
       width="1.290217"
       height="1.292258">
      <feGaussianBlur
         stdDeviation="0.6 0.6"
         result="blur"
         id="feGaussianBlur2" />
    </filter>
    <linearGradient
       inkscape:collect="always"
       xlink:href="#linearGradient5"
       id="linearGradient60"
       x1="33.488716"
       y1="45.719074"
       x2="32.953915"
       y2="19.028452"
       gradientUnits="userSpaceOnUse"
       gradientTransform="matrix(0.23573911,0,0,0.23573911,0.976154,0.7860565)" />
  </defs>
  <metadata
     id="metadata2">
    <rdf:RDF>
      <cc:Work
         rdf:about="">
        <dc:format>image/svg+xml</dc:format>
        <dc:type
           rdf:resource="http://purl.org/dc/dcmitype/StillImage" />
      </cc:Work>
    </rdf:RDF>
  </metadata>
  <rect
     style="fill:#000000;fill-opacity:0.996424;stroke:#000000;stroke-width:0.911802;stroke-dasharray:none;stroke-opacity:1;filter:url(#filter2)"
     id="rect1-2-3"
     width="13.065404"
     height="12.974159"
     x="1.9816793"
     y="1.9267306"
     rx="2.7149384"
     ry="2.8310909" />
  <rect
     style="fill:url(#linearGradient4);fill-opacity:0.996424;stroke:url(#linearGradient41);stroke-width:0.911802;stroke-dasharray:none;stroke-opacity:1"
     id="rect1-2"
     width="13.065404"
     height="12.974159"
     x="1.9816793"
     y="1.9267306"
     rx="2.7149384"
     ry="2.8310909" />
  <path
     style="fill:#000000;fill-opacity:1;stroke:none;stroke-width:0.25672;stroke-dasharray:none;stroke-opacity:0.3;opacity:0.3"
     d="M 7.3831328,12.141105 C 6.9041622,12.095799 6.4436944,11.837302 6.10424,11.423163 5.8512706,11.114537 5.6485789,10.54363 5.5724782,9.9253874 L 5.557457,9.8033592 5.3949163,9.7958415 C 5.3055195,9.7917089 5.0162161,9.7846981 4.7520199,9.780278 l -0.4803564,-0.00806 3.07e-5,-0.1399673 c 1.67e-5,-0.076983 0.00365,-0.2571319 0.00812,-0.4003322 l 0.00806,-0.2603643 0.1995307,0.00437 c 0.1097422,0.00241 0.3917975,0.00932 0.626791,0.015385 0.2349924,0.00605 0.428766,0.00955 0.4306086,0.00775 0.00182,-0.00176 0.00878,-0.076191 0.015415,-0.1653307 C 5.5919211,8.4080139 5.7199468,7.9337884 5.8969529,7.5864524 6.166233,7.0580475 6.5439757,6.7472382 7.011246,6.669602 7.5486324,6.580316 8.0807955,6.711462 8.5406984,7.0465175 8.7034086,7.165057 8.980172,7.4350851 9.1441012,7.6352326 c 0.071307,0.087062 0.241175,0.3096402 0.3774839,0.494618 0.4350831,0.5904288 0.5767629,0.7513515 0.7249949,0.8234618 0.08996,0.043767 0.122983,0.046421 0.19224,0.015465 0.06971,-0.031159 0.09102,-0.05934 0.106842,-0.1412092 0.03057,-0.1582337 -0.0039,-0.3747863 -0.157365,-0.986057 C 10.240378,7.2520023 10.21818,7.122046 10.217809,6.8433741 c -2.83e-4,-0.2046358 0.0024,-0.2333231 0.03294,-0.3439371 0.120802,-0.4386221 0.458548,-0.7301124 0.845965,-0.7301124 0.31446,0 0.73084,0.1748452 1.155537,0.485229 0.128786,0.094121 0.477266,0.3797852 0.483832,0.3966173 0.006,0.015504 -0.518125,0.6041019 -0.531055,0.5963244 -0.0061,-0.00374 -0.07985,-0.064134 -0.163585,-0.1341896 -0.282467,-0.2363002 -0.486547,-0.3736839 -0.697696,-0.4696765 -0.149882,-0.068138 -0.222533,-0.08493 -0.261082,-0.060341 -0.03754,0.02395 -0.05487,0.087018 -0.05495,0.2000631 -1.44e-4,0.1888235 0.03985,0.4042173 0.169113,0.9108158 0.148094,0.5803993 0.186472,0.8200369 0.174734,1.0910979 -0.0081,0.1886142 -0.04046,0.3182046 -0.117571,0.4717048 -0.04928,0.098119 -0.07466,0.1312602 -0.176056,0.2298933 -0.09644,0.093827 -0.1392,0.1255629 -0.23003,0.1707492 C 10.46019,9.8504907 10.081591,9.8222257 9.7194386,9.5733671 9.5226025,9.4381048 9.2906647,9.1904259 9.0433166,8.8513551 8.9712229,8.7525283 8.8569455,8.5956411 8.789366,8.5027181 8.3158245,7.8515904 7.9389605,7.5283401 7.5664993,7.4538194 7.3868861,7.4178826 7.1351246,7.4399627 7.0076911,7.5028279 6.8708459,7.5703358 6.7180697,7.7521486 6.6141059,7.9712172 6.4904299,8.2318238 6.393931,8.6167418 6.3729262,8.9332434 l -0.00855,0.1288266 0.060012,0.00785 c 0.516513,0.06753 0.8385335,0.1526079 1.1474211,0.3031476 0.439725,0.2143047 0.7072998,0.4815468 0.9407661,0.9395954 0.2572074,0.504626 0.2773789,0.952336 0.058797,1.305014 -0.1852642,0.298923 -0.5097243,0.485423 -0.9105076,0.523362 -0.1350203,0.01278 -0.1433827,0.01278 -0.2777337,7.3e-5 z m 0.4068914,-0.848839 c 0.049058,-0.02477 0.070724,-0.04434 0.084424,-0.07626 0.065112,-0.151704 0.00214,-0.40316 -0.172701,-0.689659 C 7.5349764,10.253065 7.3373512,10.10878 6.9681132,9.9907103 6.8344296,9.9479628 6.5118743,9.8846678 6.4270851,9.8845445 l -0.032525,-4.79e-5 0.023442,0.1297304 c 0.05455,0.301915 0.1409513,0.572488 0.2502675,0.783743 0.094912,0.18342 0.2568409,0.331878 0.4731369,0.43378 0.1683325,0.0793 0.2686707,0.101495 0.4400683,0.09731 0.1275907,-0.0031 0.1494858,-0.0069 0.2085511,-0.0368 z"
     id="path109-6" />
  <path
     style="fill:url(#linearGradient60);fill-opacity:1;stroke:none;stroke-width:0.25672;stroke-dasharray:none;stroke-opacity:0.3"
     d="M 7.3831328,11.611949 C 6.9041622,11.566643 6.4436944,11.308146 6.10424,10.894007 5.8512706,10.585381 5.6485789,10.014474 5.5724782,9.3962312 L 5.557457,9.274203 5.3949163,9.2666853 C 5.3055195,9.2625527 5.0162161,9.2555419 4.7520199,9.2511218 l -0.4803564,-0.00806 3.07e-5,-0.1399673 c 1.67e-5,-0.076983 0.00365,-0.2571319 0.00812,-0.4003322 l 0.00806,-0.2603643 0.1995307,0.00437 c 0.1097422,0.00241 0.3917975,0.00932 0.626791,0.015385 0.2349924,0.00605 0.428766,0.00955 0.4306086,0.00775 0.00182,-0.00176 0.00878,-0.076191 0.015415,-0.1653307 C 5.5919211,7.8788577 5.7199468,7.4046322 5.8969529,7.0572962 6.166233,6.5288913 6.5439757,6.218082 7.011246,6.1404458 c 0.5373864,-0.089286 1.0695495,0.04186 1.5294524,0.3769155 0.1627102,0.1185395 0.4394736,0.3885676 0.6034028,0.5887151 0.071307,0.087062 0.241175,0.3096402 0.3774839,0.494618 0.4350831,0.5904288 0.5767629,0.7513515 0.7249949,0.8234618 0.08996,0.043767 0.122983,0.046421 0.19224,0.015465 0.06971,-0.031159 0.09102,-0.05934 0.106842,-0.1412092 0.03057,-0.1582337 -0.0039,-0.3747863 -0.157365,-0.986057 -0.147919,-0.5895089 -0.170117,-0.7194652 -0.170488,-0.9981371 -2.83e-4,-0.2046358 0.0024,-0.2333231 0.03294,-0.3439371 0.120802,-0.4386221 0.458548,-0.7301124 0.845965,-0.7301124 0.31446,0 0.73084,0.1748452 1.155537,0.485229 0.128786,0.094121 0.477266,0.3797852 0.483832,0.3966173 0.006,0.015504 -0.518125,0.6041019 -0.531055,0.5963244 -0.0061,-0.00374 -0.07985,-0.064134 -0.163585,-0.1341896 C 11.758976,6.3478493 11.554896,6.2104656 11.343747,6.114473 11.193865,6.046335 11.121214,6.029543 11.082665,6.054132 c -0.03754,0.02395 -0.05487,0.087018 -0.05495,0.2000631 -1.44e-4,0.1888235 0.03985,0.4042173 0.169113,0.9108158 0.148094,0.5803993 0.186472,0.8200369 0.174734,1.0910979 -0.0081,0.1886142 -0.04046,0.3182046 -0.117571,0.4717048 -0.04928,0.098119 -0.07466,0.1312602 -0.176056,0.2298933 -0.09644,0.093827 -0.1392,0.1255629 -0.23003,0.1707492 C 10.46019,9.3213345 10.081591,9.2930695 9.7194386,9.0442109 9.5226025,8.9089486 9.2906647,8.6612697 9.0433166,8.3221989 8.9712229,8.2233721 8.8569455,8.0664849 8.789366,7.9735619 8.3158245,7.3224342 7.9389605,6.9991839 7.5664993,6.9246632 7.3868861,6.8887264 7.1351246,6.9108065 7.0076911,6.9736717 6.8708459,7.0411796 6.7180697,7.2229924 6.6141059,7.442061 6.4904299,7.7026676 6.393931,8.0875856 6.3729262,8.4040872 l -0.00855,0.1288266 0.060012,0.00785 c 0.516513,0.06753 0.8385335,0.1526079 1.1474211,0.3031476 0.439725,0.2143047 0.7072998,0.4815468 0.9407661,0.9395955 0.2572074,0.5046261 0.2773789,0.9523361 0.058797,1.3050141 -0.1852642,0.298923 -0.5097243,0.485423 -0.9105076,0.523362 -0.1350203,0.01278 -0.1433827,0.01278 -0.2777337,7.3e-5 z M 7.7900242,10.76311 c 0.049058,-0.02477 0.070724,-0.04434 0.084424,-0.07626 0.065112,-0.151704 0.00214,-0.40316 -0.172701,-0.689659 C 7.5349764,9.7239085 7.3373512,9.5796238 6.9681132,9.4615541 6.8344296,9.4188066 6.5118743,9.3555116 6.4270851,9.3553883 L 6.39456,9.3553404 6.4180023,9.485071 c 0.05455,0.3019146 0.1409513,0.572488 0.2502675,0.783743 0.094912,0.18342 0.2568409,0.331878 0.4731369,0.43378 0.1683325,0.0793 0.2686707,0.101495 0.4400683,0.09731 0.1275907,-0.0031 0.1494858,-0.0069 0.2085511,-0.0368 z"
     id="path109" />
  <rect
     style="opacity:0.5;fill:none;fill-opacity:0.996424;stroke:url(#linearGradient9);stroke-width:0.566102;stroke-dasharray:none;stroke-opacity:1"
     id="rect1-2-6"
     width="11.574203"
     height="11.508601"
     x="2.729686"
     y="2.6615164"
     rx="2.0246315"
     ry="2.0627522" />
</svg>
