<?xml version="1.0" encoding="UTF-8" standalone="no"?>
<svg
   width="64"
   height="64"
   version="1.1"
   viewBox="0 0 16.933 16.933"
   id="svg7"
   sodipodi:docname="Template 4.svg"
   inkscape:version="1.3.2 (091e20ef0f, 2023-11-25)"
   xmlns:inkscape="http://www.inkscape.org/namespaces/inkscape"
   xmlns:sodipodi="http://sodipodi.sourceforge.net/DTD/sodipodi-0.dtd"
   xmlns:xlink="http://www.w3.org/1999/xlink"
   xmlns="http://www.w3.org/2000/svg"
   xmlns:svg="http://www.w3.org/2000/svg"
   xmlns:rdf="http://www.w3.org/1999/02/22-rdf-syntax-ns#"
   xmlns:cc="http://creativecommons.org/ns#"
   xmlns:dc="http://purl.org/dc/elements/1.1/">
  <sodipodi:namedview
     id="namedview7"
     pagecolor="#9c4444"
     bordercolor="#000000"
     borderopacity="0.25"
     inkscape:showpageshadow="2"
     inkscape:pageopacity="0.0"
     inkscape:pagecheckerboard="0"
     inkscape:deskcolor="#d1d1d1"
     inkscape:zoom="4.3531261"
     inkscape:cx="32.964816"
     inkscape:cy="24.350317"
     inkscape:window-width="1463"
     inkscape:window-height="604"
     inkscape:window-x="199"
     inkscape:window-y="276"
     inkscape:window-maximized="0"
     inkscape:current-layer="svg7"
     showgrid="false" />
  <defs
     id="defs2">
    <linearGradient
       id="linearGradient5"
       inkscape:collect="always">
      <stop
         style="stop-color:#392713;stop-opacity:1;"
         offset="0"
         id="stop2" />
      <stop
         style="stop-color:#eed59e;stop-opacity:1;"
         offset="0.5"
         id="stop3" />
      <stop
         style="stop-color:#beaa8a;stop-opacity:1;"
         offset="1"
         id="stop4" />
    </linearGradient>
    <linearGradient
       id="linearGradient8"
       inkscape:collect="always">
      <stop
         style="stop-color:#1a1a1a;stop-opacity:1;"
         offset="0"
         id="stop8" />
      <stop
         style="stop-color:#ffffff;stop-opacity:0;"
         offset="1"
         id="stop9" />
    </linearGradient>
    <linearGradient
       inkscape:collect="always"
       xlink:href="#linearGradient5"
       id="linearGradient41"
       x1="13.675659"
       y1="16.110115"
       x2="13.728528"
       y2="10.548769"
       gradientUnits="userSpaceOnUse"
       gradientTransform="matrix(2.046153,0,0,2.046153,-18.798306,-18.911347)" />
    <linearGradient
       inkscape:collect="always"
       xlink:href="#linearGradient42"
       id="linearGradient4"
       x1="11.885941"
       y1="16.50819"
       x2="12.026573"
       y2="10.244942"
       gradientUnits="userSpaceOnUse"
       gradientTransform="matrix(2.046153,0,0,2.046153,-18.798306,-18.911347)" />
    <linearGradient
       id="linearGradient42"
       inkscape:collect="always">
      <stop
         style="stop-color:#010101;stop-opacity:1;"
         offset="0"
         id="stop42" />
      <stop
         style="stop-color:#6e6c6d;stop-opacity:1;"
         offset="1"
         id="stop43" />
    </linearGradient>
    <linearGradient
       inkscape:collect="always"
       xlink:href="#linearGradient8"
       id="linearGradient9"
       x1="9.3404646"
       y1="4.1692023"
       x2="9.4279938"
       y2="16.46883"
       gradientUnits="userSpaceOnUse"
       gradientTransform="matrix(1.05,0,0,1.05,-0.50277005,-0.1977751)" />
    <filter
       style="color-interpolation-filters:sRGB;"
       inkscape:label="Blur"
       id="filter2"
       x="-0.14510849"
       y="-0.14612901"
       width="1.290217"
       height="1.292258">
      <feGaussianBlur
         stdDeviation="0.6 0.6"
         result="blur"
         id="feGaussianBlur2" />
    </filter>
    <linearGradient
       inkscape:collect="always"
       xlink:href="#linearGradient5"
       id="linearGradient56"
       x1="34.072945"
       y1="50.752522"
       x2="33.705734"
       y2="14.404296"
       gradientUnits="userSpaceOnUse"
       gradientTransform="matrix(0.23573911,0,0,0.23573911,0.94000426,0.77619709)" />
  </defs>
  <metadata
     id="metadata2">
    <rdf:RDF>
      <cc:Work
         rdf:about="">
        <dc:format>image/svg+xml</dc:format>
        <dc:type
           rdf:resource="http://purl.org/dc/dcmitype/StillImage" />
      </cc:Work>
    </rdf:RDF>
  </metadata>
  <rect
     style="fill:#000000;fill-opacity:0.996424;stroke:#000000;stroke-width:0.911802;stroke-dasharray:none;stroke-opacity:1;filter:url(#filter2)"
     id="rect1-2-3"
     width="13.065404"
     height="12.974159"
     x="1.9816793"
     y="1.9267306"
     rx="2.7149384"
     ry="2.8310909" />
  <rect
     style="fill:url(#linearGradient4);fill-opacity:0.996424;stroke:url(#linearGradient41);stroke-width:0.911802;stroke-dasharray:none;stroke-opacity:1"
     id="rect1-2"
     width="13.065404"
     height="12.974159"
     x="1.9816793"
     y="1.9267306"
     rx="2.7149384"
     ry="2.8310909" />
  <path
     id="path90-5"
     style="fill:#000000;fill-opacity:1;stroke:none;stroke-width:0.282392;stroke-dasharray:none;stroke-opacity:0.3;opacity:0.3"
     d="M 8.556902,4.618369 C 8.1002588,4.6180389 7.9233145,4.6347104 7.5824285,4.7110144 6.6291596,4.9243906 5.9011541,5.4191323 5.6040382,6.0549463 5.4136168,6.4624378 5.4172315,6.8778138 5.615389,7.28717 c 0.3714323,0.7673037 1.3647618,1.3061477 2.6027347,1.4121763 0.1545296,0.01323 0.7421612,-0.005 0.9109747,-0.028214 C 10.44552,8.4901052 11.419976,7.794701 11.594903,6.9116307 11.627929,6.7449062 11.622465,6.5130853 11.581421,6.3397449 11.403461,5.588102 10.591409,4.9494478 9.5104465,4.7110144 9.155852,4.6328004 9.011465,4.6187202 8.556903,4.618369 Z m 2.843957,3.7412769 -0.0532,0.072058 C 11.252137,8.561101 11.043375,8.7611955 10.886485,8.8735813 9.8332207,9.6280709 8.0209654,9.7573747 6.7186349,9.1709615 6.3180284,8.9905767 5.9753311,8.737375 5.7594153,8.4618233 5.6687522,8.3461204 5.6812083,8.343173 5.6019094,8.4961362 5.4927875,8.7066316 5.4426769,8.966695 5.4695913,9.1816371 c 0.020578,0.1643338 0.082507,0.3520458 0.166019,0.5032594 0.084083,0.1522446 0.3412168,0.4364795 0.5062153,0.5596845 0.508796,0.379926 1.2125682,0.626165 1.9844215,0.694269 0.2242008,0.01978 0.7869512,0.0077 1.0170419,-0.02174 0.7218683,-0.09253 1.350626,-0.328944 1.807759,-0.680162 0.147649,-0.113438 0.369566,-0.3489198 0.451232,-0.4788589 0.07993,-0.1271695 0.161373,-0.3181894 0.190849,-0.4472153 0.0309,-0.1352671 0.0309,-0.3710425 0,-0.5063096 C 11.567992,8.6945192 11.481013,8.4804726 11.431013,8.405007 Z M 5.6916597,10.606013 c -0.02382,8e-6 -0.1222403,0.185682 -0.1695669,0.329407 -0.078446,0.238232 -0.078758,0.480665 -0.00113,0.729726 0.2533304,0.812096 1.3298811,1.420068 2.7041904,1.527317 0.1572823,0.01228 0.7328292,-0.0052 0.9109745,-0.02783 0.5704357,-0.07228 1.1113983,-0.244375 1.5182903,-0.482671 0.298356,-0.174731 0.612087,-0.458905 0.748149,-0.677493 0.07987,-0.128317 0.161262,-0.318863 0.190497,-0.446836 0.03091,-0.135266 0.03091,-0.371042 0,-0.506309 -0.02509,-0.109876 -0.111918,-0.324334 -0.161754,-0.399559 l -0.02979,-0.04499 -0.0681,0.08692 c -0.392657,0.503489 -1.093141,0.869693 -1.9503646,1.019484 -1.4235201,0.248747 -2.9275693,-0.159236 -3.5981365,-0.976018 -0.048552,-0.05914 -0.087976,-0.112914 -0.087976,-0.119334 0,-0.0084 -0.00191,-0.01182 -0.00533,-0.01182 z" />
  <path
     id="path90"
     style="fill:url(#linearGradient56);fill-opacity:1;stroke:none;stroke-width:0.282392;stroke-dasharray:none;stroke-opacity:0.3"
     d="M 8.556902,4.0892128 C 8.1002588,4.0888827 7.9233145,4.1055542 7.5824285,4.1818582 6.6291596,4.3952344 5.9011541,4.8899761 5.6040382,5.5257901 5.4136168,5.9332816 5.4172315,6.3486576 5.615389,6.7580138 5.9868213,7.5253175 6.9801508,8.0641615 8.2181237,8.1701901 8.3726533,8.1834201 8.9602849,8.1651951 9.1290984,8.141976 10.44552,7.960949 11.419976,7.2655448 11.594903,6.3824745 11.627929,6.21575 11.622465,5.9839291 11.581421,5.8105887 11.403461,5.0589458 10.591409,4.4202916 9.5104465,4.1818582 9.155852,4.1036442 9.011465,4.089564 8.556903,4.0892128 Z m 2.843957,3.7412769 -0.0532,0.072058 C 11.252137,8.0319448 11.043375,8.2320393 10.886485,8.3444251 9.8332207,9.0989147 8.0209654,9.2282185 6.7186349,8.6418053 6.3180284,8.4614205 5.9753311,8.2082188 5.7594153,7.9326671 5.6687522,7.8169642 5.6812083,7.8140168 5.6019094,7.96698 5.4927875,8.1774754 5.4426769,8.4375388 5.4695913,8.6524809 c 0.020578,0.1643338 0.082507,0.3520458 0.166019,0.5032594 0.084083,0.1522446 0.3412168,0.4364798 0.5062153,0.5596849 0.508796,0.3799258 1.2125682,0.6261648 1.9844215,0.6942688 0.2242008,0.01978 0.7869512,0.0077 1.0170419,-0.02174 0.7218683,-0.09253 1.350626,-0.328944 1.807759,-0.6801627 0.147649,-0.113438 0.369566,-0.3489193 0.451232,-0.4788584 0.07993,-0.1271695 0.161373,-0.3181894 0.190849,-0.4472153 0.0309,-0.1352671 0.0309,-0.3710425 0,-0.5063096 C 11.567992,8.165363 11.481013,7.9513164 11.431013,7.8758508 Z M 5.6916597,10.076857 c -0.02382,8e-6 -0.1222403,0.185682 -0.1695669,0.329407 -0.078446,0.238232 -0.078758,0.480665 -0.00113,0.729726 0.2533304,0.812096 1.3298811,1.420068 2.7041904,1.527317 0.1572823,0.01228 0.7328292,-0.0052 0.9109745,-0.02783 0.5704357,-0.07228 1.1113983,-0.244375 1.5182903,-0.482671 0.298356,-0.174731 0.612087,-0.458905 0.748149,-0.677493 0.07987,-0.128317 0.161262,-0.318863 0.190497,-0.446836 0.03091,-0.135266 0.03091,-0.371042 0,-0.506309 -0.02509,-0.109876 -0.111918,-0.324334 -0.161754,-0.399559 l -0.02979,-0.04499 -0.0681,0.08692 c -0.392657,0.503489 -1.093141,0.869693 -1.9503646,1.019484 -1.4235201,0.248747 -2.9275693,-0.159236 -3.5981365,-0.976018 -0.048552,-0.05914 -0.087976,-0.112914 -0.087976,-0.119334 0,-0.0084 -0.00191,-0.01182 -0.00533,-0.01182 z" />
  <rect
     style="opacity:0.5;fill:none;fill-opacity:0.996424;stroke:url(#linearGradient9);stroke-width:0.566102;stroke-dasharray:none;stroke-opacity:1"
     id="rect1-2-6"
     width="11.574203"
     height="11.508601"
     x="2.729686"
     y="2.6615164"
     rx="2.0246315"
     ry="2.0627522" />
</svg>
