<?xml version="1.0" encoding="UTF-8" standalone="no"?>
<svg
   width="64"
   height="64"
   version="1.1"
   viewBox="0 0 16.933 16.933"
   id="svg7"
   sodipodi:docname="Template 4.svg"
   inkscape:version="1.3.2 (091e20ef0f, 2023-11-25)"
   xmlns:inkscape="http://www.inkscape.org/namespaces/inkscape"
   xmlns:sodipodi="http://sodipodi.sourceforge.net/DTD/sodipodi-0.dtd"
   xmlns:xlink="http://www.w3.org/1999/xlink"
   xmlns="http://www.w3.org/2000/svg"
   xmlns:svg="http://www.w3.org/2000/svg"
   xmlns:rdf="http://www.w3.org/1999/02/22-rdf-syntax-ns#"
   xmlns:cc="http://creativecommons.org/ns#"
   xmlns:dc="http://purl.org/dc/elements/1.1/">
  <sodipodi:namedview
     id="namedview7"
     pagecolor="#9c4444"
     bordercolor="#000000"
     borderopacity="0.25"
     inkscape:showpageshadow="2"
     inkscape:pageopacity="0.0"
     inkscape:pagecheckerboard="0"
     inkscape:deskcolor="#d1d1d1"
     inkscape:zoom="4.3531261"
     inkscape:cx="32.964816"
     inkscape:cy="24.350317"
     inkscape:window-width="1463"
     inkscape:window-height="604"
     inkscape:window-x="199"
     inkscape:window-y="276"
     inkscape:window-maximized="0"
     inkscape:current-layer="svg7"
     showgrid="false" />
  <defs
     id="defs2">
    <linearGradient
       id="linearGradient5"
       inkscape:collect="always">
      <stop
         style="stop-color:#392713;stop-opacity:1;"
         offset="0"
         id="stop2" />
      <stop
         style="stop-color:#eed59e;stop-opacity:1;"
         offset="0.5"
         id="stop3" />
      <stop
         style="stop-color:#beaa8a;stop-opacity:1;"
         offset="1"
         id="stop4" />
    </linearGradient>
    <linearGradient
       id="linearGradient8"
       inkscape:collect="always">
      <stop
         style="stop-color:#1a1a1a;stop-opacity:1;"
         offset="0"
         id="stop8" />
      <stop
         style="stop-color:#ffffff;stop-opacity:0;"
         offset="1"
         id="stop9" />
    </linearGradient>
    <linearGradient
       inkscape:collect="always"
       xlink:href="#linearGradient5"
       id="linearGradient41"
       x1="13.675659"
       y1="16.110115"
       x2="13.728528"
       y2="10.548769"
       gradientUnits="userSpaceOnUse"
       gradientTransform="matrix(2.046153,0,0,2.046153,-18.798306,-18.911347)" />
    <linearGradient
       inkscape:collect="always"
       xlink:href="#linearGradient42"
       id="linearGradient4"
       x1="11.885941"
       y1="16.50819"
       x2="12.026573"
       y2="10.244942"
       gradientUnits="userSpaceOnUse"
       gradientTransform="matrix(2.046153,0,0,2.046153,-18.798306,-18.911347)" />
    <linearGradient
       id="linearGradient42"
       inkscape:collect="always">
      <stop
         style="stop-color:#010101;stop-opacity:1;"
         offset="0"
         id="stop42" />
      <stop
         style="stop-color:#6e6c6d;stop-opacity:1;"
         offset="1"
         id="stop43" />
    </linearGradient>
    <linearGradient
       inkscape:collect="always"
       xlink:href="#linearGradient8"
       id="linearGradient9"
       x1="9.3404646"
       y1="4.1692023"
       x2="9.4279938"
       y2="16.46883"
       gradientUnits="userSpaceOnUse"
       gradientTransform="matrix(1.05,0,0,1.05,-0.50277005,-0.1977751)" />
    <filter
       style="color-interpolation-filters:sRGB;"
       inkscape:label="Blur"
       id="filter2"
       x="-0.14510849"
       y="-0.14612901"
       width="1.290217"
       height="1.292258">
      <feGaussianBlur
         stdDeviation="0.6 0.6"
         result="blur"
         id="feGaussianBlur2" />
    </filter>
    <linearGradient
       inkscape:collect="always"
       xlink:href="#linearGradient5"
       id="linearGradient58"
       x1="33.891048"
       y1="44.494854"
       x2="33.95137"
       y2="20.757559"
       gradientUnits="userSpaceOnUse"
       gradientTransform="matrix(0.23573911,0,0,0.23573911,0.92417032,0.82485866)" />
  </defs>
  <metadata
     id="metadata2">
    <rdf:RDF>
      <cc:Work
         rdf:about="">
        <dc:format>image/svg+xml</dc:format>
        <dc:type
           rdf:resource="http://purl.org/dc/dcmitype/StillImage" />
      </cc:Work>
    </rdf:RDF>
  </metadata>
  <rect
     style="fill:#000000;fill-opacity:0.996424;stroke:#000000;stroke-width:0.911802;stroke-dasharray:none;stroke-opacity:1;filter:url(#filter2)"
     id="rect1-2-3"
     width="13.065404"
     height="12.974159"
     x="1.9816793"
     y="1.9267306"
     rx="2.7149384"
     ry="2.8310909" />
  <rect
     style="fill:url(#linearGradient4);fill-opacity:0.996424;stroke:url(#linearGradient41);stroke-width:0.911802;stroke-dasharray:none;stroke-opacity:1"
     id="rect1-2"
     width="13.065404"
     height="12.974159"
     x="1.9816793"
     y="1.9267306"
     rx="2.7149384"
     ry="2.8310909" />
  <path
     style="fill:#000000;fill-opacity:1;stroke:none;stroke-width:0.25672;stroke-dasharray:none;stroke-opacity:0.3;opacity:0.3"
     d="M 4.4659257,9.0514362 V 6.2178893 H 8.4560782 12.446232 V 9.0514362 11.884982 H 8.4560782 4.4659257 Z M 8.1311477,10.75658 V 10.17984 H 6.6299658 5.1287845 v 0.57674 0.576738 h 1.5011813 1.5011819 z m 3.6652223,-5.1e-5 v -0.576791 l -1.504431,0.0032 -1.5044308,0.0032 -0.00338,0.573603 -0.00338,0.573605 h 1.5078108 1.50781 V 10.756455 Z M 8.1311477,9.0514362 V 8.4746965 H 6.6299658 5.1287845 V 9.0514364 9.628176 H 6.6299658 8.1311477 Z M 11.79637,9.0513864 V 8.474594 l -1.504431,0.0032 -1.5044308,0.00319 -0.00338,0.5736058 -0.00338,0.5736048 h 1.5078108 1.50781 V 9.0513841 Z M 8.1311477,7.3462933 V 6.7695532 H 6.6299658 5.1287845 V 7.3462933 7.9230328 H 6.6299658 8.1311477 Z M 11.79637,7.3462407 V 6.7694488 l -1.504431,0.00319 -1.5044308,0.00319 -0.00338,0.5736046 -0.00338,0.5736054 h 1.5078108 1.50781 V 7.3462472 Z"
     id="path2224-7" />
  <path
     style="fill:url(#linearGradient58);fill-opacity:1;stroke:none;stroke-width:0.25672;stroke-dasharray:none;stroke-opacity:0.3"
     d="M 4.4659257,8.52228 V 5.6887331 H 8.4560782 12.446232 V 8.52228 11.355826 H 8.4560782 4.4659257 Z m 3.665222,1.705144 V 9.6506834 H 6.6299658 5.1287845 v 0.5767406 0.576738 h 1.5011813 1.5011819 z m 3.6652223,-5.1e-5 V 9.6505814 l -1.504431,0.00316 -1.5044308,0.00316 -0.00338,0.5736036 -0.00338,0.573605 h 1.5078108 1.50781 V 10.227299 Z M 8.1311477,8.52228 V 7.9455403 H 6.6299658 5.1287845 V 8.5222802 9.0990198 H 6.6299658 8.1311477 Z M 11.79637,8.5222302 V 7.9454378 l -1.504431,0.0032 -1.5044308,0.00319 -0.00338,0.5736058 -0.00338,0.5736048 h 1.5078108 1.50781 V 8.5222279 Z M 8.1311477,6.8171371 V 6.240397 H 6.6299658 5.1287845 V 6.8171371 7.3938766 H 6.6299658 8.1311477 Z M 11.79637,6.8170845 V 6.2402926 l -1.504431,0.00319 -1.5044308,0.00319 -0.00338,0.5736046 -0.00338,0.5736054 h 1.5078108 1.50781 V 6.817091 Z"
     id="path2224" />
  <rect
     style="opacity:0.5;fill:none;fill-opacity:0.996424;stroke:url(#linearGradient9);stroke-width:0.566102;stroke-dasharray:none;stroke-opacity:1"
     id="rect1-2-6"
     width="11.574203"
     height="11.508601"
     x="2.729686"
     y="2.6615164"
     rx="2.0246315"
     ry="2.0627522" />
</svg>
