<?xml version="1.0" encoding="UTF-8" standalone="no"?>
<svg
   width="64"
   height="64"
   version="1.1"
   viewBox="0 0 16.933 16.933"
   id="svg7"
   sodipodi:docname="Template 4.svg"
   inkscape:version="1.3.2 (091e20ef0f, 2023-11-25)"
   xmlns:inkscape="http://www.inkscape.org/namespaces/inkscape"
   xmlns:sodipodi="http://sodipodi.sourceforge.net/DTD/sodipodi-0.dtd"
   xmlns:xlink="http://www.w3.org/1999/xlink"
   xmlns="http://www.w3.org/2000/svg"
   xmlns:svg="http://www.w3.org/2000/svg"
   xmlns:rdf="http://www.w3.org/1999/02/22-rdf-syntax-ns#"
   xmlns:cc="http://creativecommons.org/ns#"
   xmlns:dc="http://purl.org/dc/elements/1.1/">
  <sodipodi:namedview
     id="namedview7"
     pagecolor="#9c4444"
     bordercolor="#000000"
     borderopacity="0.25"
     inkscape:showpageshadow="2"
     inkscape:pageopacity="0.0"
     inkscape:pagecheckerboard="0"
     inkscape:deskcolor="#d1d1d1"
     inkscape:zoom="4.3531261"
     inkscape:cx="32.964816"
     inkscape:cy="24.350317"
     inkscape:window-width="1463"
     inkscape:window-height="604"
     inkscape:window-x="199"
     inkscape:window-y="276"
     inkscape:window-maximized="0"
     inkscape:current-layer="svg7"
     showgrid="false" />
  <defs
     id="defs2">
    <linearGradient
       id="linearGradient5"
       inkscape:collect="always">
      <stop
         style="stop-color:#392713;stop-opacity:1;"
         offset="0"
         id="stop2" />
      <stop
         style="stop-color:#eed59e;stop-opacity:1;"
         offset="0.5"
         id="stop3" />
      <stop
         style="stop-color:#beaa8a;stop-opacity:1;"
         offset="1"
         id="stop4" />
    </linearGradient>
    <linearGradient
       id="linearGradient8"
       inkscape:collect="always">
      <stop
         style="stop-color:#1a1a1a;stop-opacity:1;"
         offset="0"
         id="stop8" />
      <stop
         style="stop-color:#ffffff;stop-opacity:0;"
         offset="1"
         id="stop9" />
    </linearGradient>
    <linearGradient
       inkscape:collect="always"
       xlink:href="#linearGradient5"
       id="linearGradient41"
       x1="13.675659"
       y1="16.110115"
       x2="13.728528"
       y2="10.548769"
       gradientUnits="userSpaceOnUse"
       gradientTransform="matrix(2.046153,0,0,2.046153,-18.798306,-18.911347)" />
    <linearGradient
       inkscape:collect="always"
       xlink:href="#linearGradient42"
       id="linearGradient4"
       x1="11.885941"
       y1="16.50819"
       x2="12.026573"
       y2="10.244942"
       gradientUnits="userSpaceOnUse"
       gradientTransform="matrix(2.046153,0,0,2.046153,-18.798306,-18.911347)" />
    <linearGradient
       id="linearGradient42"
       inkscape:collect="always">
      <stop
         style="stop-color:#010101;stop-opacity:1;"
         offset="0"
         id="stop42" />
      <stop
         style="stop-color:#6e6c6d;stop-opacity:1;"
         offset="1"
         id="stop43" />
    </linearGradient>
    <linearGradient
       inkscape:collect="always"
       xlink:href="#linearGradient8"
       id="linearGradient9"
       x1="9.3404646"
       y1="4.1692023"
       x2="9.4279938"
       y2="16.46883"
       gradientUnits="userSpaceOnUse"
       gradientTransform="matrix(1.05,0,0,1.05,-0.50277005,-0.1977751)" />
    <filter
       style="color-interpolation-filters:sRGB;"
       inkscape:label="Blur"
       id="filter2"
       x="-0.14510849"
       y="-0.14612901"
       width="1.290217"
       height="1.292258">
      <feGaussianBlur
         stdDeviation="0.6 0.6"
         result="blur"
         id="feGaussianBlur2" />
    </filter>
    <linearGradient
       inkscape:collect="always"
       xlink:href="#linearGradient5"
       id="linearGradient29"
       x1="9.3816805"
       y1="12.789761"
       x2="9.3200884"
       y2="4.4135489"
       gradientUnits="userSpaceOnUse" />
  </defs>
  <metadata
     id="metadata2">
    <rdf:RDF>
      <cc:Work
         rdf:about="">
        <dc:format>image/svg+xml</dc:format>
        <dc:type
           rdf:resource="http://purl.org/dc/dcmitype/StillImage" />
      </cc:Work>
    </rdf:RDF>
  </metadata>
  <rect
     style="fill:#000000;fill-opacity:0.996424;stroke:#000000;stroke-width:0.911802;stroke-dasharray:none;stroke-opacity:1;filter:url(#filter2)"
     id="rect1-2-3"
     width="13.065404"
     height="12.974159"
     x="1.9816793"
     y="1.9267306"
     rx="2.7149384"
     ry="2.8310909" />
  <rect
     style="fill:url(#linearGradient4);fill-opacity:0.996424;stroke:url(#linearGradient41);stroke-width:0.911802;stroke-dasharray:none;stroke-opacity:1"
     id="rect1-2"
     width="13.065404"
     height="12.974159"
     x="1.9816793"
     y="1.9267306"
     rx="2.7149384"
     ry="2.8310909" />
  <path
     class="st0"
     d="m 8.5069684,4.844201 c -2.3278213,0 -4.220891,1.8930694 -4.220891,4.2208909 0,2.3278211 1.8930697,4.2208911 4.220891,4.2208911 2.3278216,0 4.2208916,-1.89307 4.2208916,-4.2208911 0,-2.3278215 -1.89307,-4.2208909 -4.2208916,-4.2208909 z m 0,6.858948 c -1.3633478,0 -2.4882152,-1.04045 -2.6253941,-2.3679202 v -0.00209 H 5.1049306 c -0.1076328,0 -0.2026031,-0.063313 -0.2427015,-0.1625039 C 4.8221307,9.0714442 4.843235,8.9574798 4.9192113,8.8836146 L 6.2108042,7.5899112 c 0.1034114,-0.1034114 0.2701369,-0.1034114 0.3735483,0 l 1.2789301,1.2789304 c 0.054872,0.04854 0.090749,0.1202952 0.090749,0.200492 0,0.145621 -0.118185,0.2638059 -0.2638056,0.2638059 H 6.9473494 c 0.1266268,0.7470975 0.7787542,1.3169175 1.559619,1.3169175 0.8737245,0 1.5828346,-0.7091091 1.5828346,-1.5828342 0,-0.8716134 -0.7091101,-1.5828335 -1.5828346,-1.5828335 -0.2912413,0 -0.5276109,-0.2363702 -0.5276109,-0.5276117 0,-0.2912412 0.2363696,-0.5276113 0.5276109,-0.5276113 1.4540973,0 2.6380576,1.1839598 2.6380576,2.6380565 0,1.4519872 -1.1839603,2.6359472 -2.6380576,2.6359472 z"
     id="path4-8"
     style="fill:#000000;fill-opacity:1;stroke-width:0.0211045;opacity:0.3" />
  <path
     class="st0"
     d="m 8.5069684,4.3150448 c -2.3278213,0 -4.220891,1.8930694 -4.220891,4.2208909 0,2.3278213 1.8930697,4.2208913 4.220891,4.2208913 2.3278216,0 4.2208916,-1.89307 4.2208916,-4.2208913 0,-2.3278215 -1.89307,-4.2208909 -4.2208916,-4.2208909 z m 0,6.8589482 c -1.3633478,0 -2.4882152,-1.04045 -2.6253941,-2.3679204 v -0.00209 H 5.1049306 c -0.1076328,0 -0.2026031,-0.063313 -0.2427015,-0.1625039 C 4.8221307,8.542288 4.843235,8.4283236 4.9192113,8.3544584 L 6.2108042,7.060755 c 0.1034114,-0.1034114 0.2701369,-0.1034114 0.3735483,0 l 1.2789301,1.2789304 c 0.054872,0.04854 0.090749,0.1202952 0.090749,0.200492 0,0.1456209 -0.118185,0.2638059 -0.2638056,0.2638059 H 6.9473494 c 0.1266268,0.7470977 0.7787542,1.3169177 1.559619,1.3169177 0.8737245,0 1.5828346,-0.7091093 1.5828346,-1.5828344 0,-0.8716134 -0.7091101,-1.5828335 -1.5828346,-1.5828335 -0.2912413,0 -0.5276109,-0.2363702 -0.5276109,-0.5276117 0,-0.2912412 0.2363696,-0.5276113 0.5276109,-0.5276113 1.4540973,0 2.6380576,1.1839598 2.6380576,2.6380565 0,1.451987 -1.1839603,2.6359474 -2.6380576,2.6359474 z"
     id="path4"
     style="fill:url(#linearGradient29);fill-opacity:1;stroke-width:0.0211045" />
  <rect
     style="opacity:0.5;fill:none;fill-opacity:0.996424;stroke:url(#linearGradient9);stroke-width:0.566102;stroke-dasharray:none;stroke-opacity:1"
     id="rect1-2-6"
     width="11.574203"
     height="11.508601"
     x="2.729686"
     y="2.6615164"
     rx="2.0246315"
     ry="2.0627522" />
</svg>
