<?xml version="1.0" encoding="UTF-8" standalone="no"?>
<svg
   width="64"
   height="64"
   version="1.1"
   viewBox="0 0 16.933 16.933"
   id="svg7"
   sodipodi:docname="Template 4.svg"
   inkscape:version="1.3.2 (091e20ef0f, 2023-11-25)"
   xmlns:inkscape="http://www.inkscape.org/namespaces/inkscape"
   xmlns:sodipodi="http://sodipodi.sourceforge.net/DTD/sodipodi-0.dtd"
   xmlns:xlink="http://www.w3.org/1999/xlink"
   xmlns="http://www.w3.org/2000/svg"
   xmlns:svg="http://www.w3.org/2000/svg"
   xmlns:rdf="http://www.w3.org/1999/02/22-rdf-syntax-ns#"
   xmlns:cc="http://creativecommons.org/ns#"
   xmlns:dc="http://purl.org/dc/elements/1.1/">
  <sodipodi:namedview
     id="namedview7"
     pagecolor="#9c4444"
     bordercolor="#000000"
     borderopacity="0.25"
     inkscape:showpageshadow="2"
     inkscape:pageopacity="0.0"
     inkscape:pagecheckerboard="0"
     inkscape:deskcolor="#d1d1d1"
     inkscape:zoom="4.3531261"
     inkscape:cx="32.964816"
     inkscape:cy="24.350317"
     inkscape:window-width="1463"
     inkscape:window-height="604"
     inkscape:window-x="199"
     inkscape:window-y="276"
     inkscape:window-maximized="0"
     inkscape:current-layer="svg7"
     showgrid="false" />
  <defs
     id="defs2">
    <linearGradient
       id="linearGradient5"
       inkscape:collect="always">
      <stop
         style="stop-color:#392713;stop-opacity:1;"
         offset="0"
         id="stop2" />
      <stop
         style="stop-color:#eed59e;stop-opacity:1;"
         offset="0.5"
         id="stop3" />
      <stop
         style="stop-color:#beaa8a;stop-opacity:1;"
         offset="1"
         id="stop4" />
    </linearGradient>
    <linearGradient
       id="linearGradient8"
       inkscape:collect="always">
      <stop
         style="stop-color:#1a1a1a;stop-opacity:1;"
         offset="0"
         id="stop8" />
      <stop
         style="stop-color:#ffffff;stop-opacity:0;"
         offset="1"
         id="stop9" />
    </linearGradient>
    <linearGradient
       inkscape:collect="always"
       xlink:href="#linearGradient5"
       id="linearGradient41"
       x1="13.675659"
       y1="16.110115"
       x2="13.728528"
       y2="10.548769"
       gradientUnits="userSpaceOnUse"
       gradientTransform="matrix(2.046153,0,0,2.046153,-18.798306,-18.911347)" />
    <linearGradient
       inkscape:collect="always"
       xlink:href="#linearGradient42"
       id="linearGradient4"
       x1="11.885941"
       y1="16.50819"
       x2="12.026573"
       y2="10.244942"
       gradientUnits="userSpaceOnUse"
       gradientTransform="matrix(2.046153,0,0,2.046153,-18.798306,-18.911347)" />
    <linearGradient
       id="linearGradient42"
       inkscape:collect="always">
      <stop
         style="stop-color:#010101;stop-opacity:1;"
         offset="0"
         id="stop42" />
      <stop
         style="stop-color:#6e6c6d;stop-opacity:1;"
         offset="1"
         id="stop43" />
    </linearGradient>
    <linearGradient
       inkscape:collect="always"
       xlink:href="#linearGradient8"
       id="linearGradient9"
       x1="9.3404646"
       y1="4.1692023"
       x2="9.4279938"
       y2="16.46883"
       gradientUnits="userSpaceOnUse"
       gradientTransform="matrix(1.05,0,0,1.05,-0.50277005,-0.1977751)" />
    <filter
       style="color-interpolation-filters:sRGB;"
       inkscape:label="Blur"
       id="filter2"
       x="-0.14510849"
       y="-0.14612901"
       width="1.290217"
       height="1.292258">
      <feGaussianBlur
         stdDeviation="0.6 0.6"
         result="blur"
         id="feGaussianBlur2" />
    </filter>
    <linearGradient
       inkscape:collect="always"
       xlink:href="#linearGradient5"
       id="linearGradient84"
       x1="32.856262"
       y1="48.863529"
       x2="32.584946"
       y2="16.139557"
       gradientUnits="userSpaceOnUse"
       gradientTransform="matrix(0.23573911,0,0,0.23573911,0.87269369,0.78172388)" />
  </defs>
  <metadata
     id="metadata2">
    <rdf:RDF>
      <cc:Work
         rdf:about="">
        <dc:format>image/svg+xml</dc:format>
        <dc:type
           rdf:resource="http://purl.org/dc/dcmitype/StillImage" />
      </cc:Work>
    </rdf:RDF>
  </metadata>
  <rect
     style="fill:#000000;fill-opacity:0.996424;stroke:#000000;stroke-width:0.911802;stroke-dasharray:none;stroke-opacity:1;filter:url(#filter2)"
     id="rect1-2-3"
     width="13.065404"
     height="12.974159"
     x="1.9816793"
     y="1.9267306"
     rx="2.7149384"
     ry="2.8310909" />
  <rect
     style="fill:url(#linearGradient4);fill-opacity:0.996424;stroke:url(#linearGradient41);stroke-width:0.911802;stroke-dasharray:none;stroke-opacity:1"
     id="rect1-2"
     width="13.065404"
     height="12.974159"
     x="1.9816793"
     y="1.9267306"
     rx="2.7149384"
     ry="2.8310909" />
  <path
     id="path69-7"
     style="fill:#000000;fill-opacity:1;stroke-width:0.0421221;stroke-opacity:0.3;opacity:0.3"
     d="M 12.16062,5.0134043 C 11.594328,5.0139229 10.559771,5.2951717 9.9848192,5.6049618 9.3011905,5.9733094 8.7767035,6.5034299 7.392195,8.2249352 l -0.3302194,0.4107476 -0.7009563,0.00151 -0.7009548,0.00151 -0.2866629,0.4472136 c -0.1575831,0.2458129 -0.27131,0.4614206 -0.2527299,0.4791214 0.018583,0.017702 0.2547598,0.092315 0.5247048,0.1661224 0.5581663,0.1526086 0.5925764,0.1917371 0.450759,0.5084958 -0.042968,0.09598 -0.077997,0.207929 -0.077997,0.249184 0,0.176286 0.5955727,0.840377 0.8913885,0.993696 0.1002664,0.05196 0.1361801,0.04745 0.3368038,-0.03901 0.1847399,-0.07961 0.3722558,-0.105849 0.3722558,-0.05217 0,0.0356 0.264888,1.019532 0.2821041,1.047887 0.027022,0.04451 0.012555,0.05261 0.5084968,-0.286156 l 0.4310074,-0.29425 V 11.117363 10.375889 L 9.6930929,9.6425257 C 11.052262,8.4741515 11.463392,8.0275471 11.803556,7.3497328 12.044798,6.8690317 12.251266,6.056973 12.314587,5.33955 l 0.02887,-0.3261667 z m -2.016261,1.6039924 c 0.222839,0.00953 0.441576,0.1327673 0.554079,0.3651658 0.15284,0.3157251 0.06695,0.64844 -0.22386,0.8655583 C 10.346781,7.9435348 10.042312,7.979163 9.8931479,7.9164948 9.5115754,7.75618 9.3594086,7.2968857 9.5674881,6.9339411 9.6948433,6.7118001 9.9215186,6.6078679 10.144359,6.6173967 Z M 5.570925,10.634217 c -0.034382,6.83e-4 -0.095285,0.0416 -0.1813166,0.125604 -0.3498987,0.341667 -0.5952417,0.987607 -0.6553738,1.726052 l -0.030892,0.374788 0.3732691,-0.02533 c 0.703684,-0.04832 1.2760507,-0.27091 1.6293172,-0.633595 0.271528,-0.278768 0.1945459,-0.326774 -0.2056268,-0.128137 -0.2913361,0.144612 -0.7974699,0.264426 -1.1299377,0.267416 l -0.1635892,0.0014 0.029884,-0.340347 c 0.038224,-0.438174 0.1203328,-0.758927 0.2709623,-1.055992 0.1031635,-0.203456 0.1206143,-0.31315 0.063305,-0.311985 z" />
  <path
     id="path69"
     style="fill:url(#linearGradient84);fill-opacity:1;stroke-width:0.0421221;stroke-opacity:0.3"
     d="M 12.16062,4.4842481 C 11.594328,4.4847667 10.559771,4.7660155 9.9848192,5.0758056 9.3011905,5.4441532 8.7767035,5.9742737 7.392195,7.695779 l -0.3302194,0.4107476 -0.7009563,0.00151 -0.7009548,0.00151 -0.2866629,0.4472136 c -0.1575831,0.2458129 -0.27131,0.4614206 -0.2527299,0.4791214 0.018583,0.017702 0.2547598,0.092315 0.5247048,0.1661224 0.5581663,0.1526086 0.5925764,0.1917371 0.450759,0.5084954 -0.042968,0.095981 -0.077997,0.2079289 -0.077997,0.249184 0,0.1762866 0.5955727,0.8403776 0.8913885,0.9936966 0.1002664,0.05196 0.1361801,0.04745 0.3368038,-0.03901 0.1847399,-0.07961 0.3722558,-0.105849 0.3722558,-0.05217 0,0.0356 0.264888,1.019532 0.2821041,1.047887 0.027022,0.04451 0.012555,0.05261 0.5084968,-0.286156 l 0.4310074,-0.29425 V 10.588207 9.8467329 L 9.6930929,9.1133695 C 11.052262,7.9449953 11.463392,7.4983909 11.803556,6.8205766 12.044798,6.3398755 12.251266,5.5278168 12.314587,4.8103938 l 0.02887,-0.3261667 z m -2.016261,1.6039924 c 0.222839,0.00953 0.441576,0.1327673 0.554079,0.3651658 0.15284,0.3157251 0.06695,0.64844 -0.22386,0.8655583 -0.127797,0.095414 -0.432266,0.1310422 -0.5814301,0.068374 C 9.5115754,7.2270238 9.3594086,6.7677295 9.5674881,6.4047849 9.6948433,6.1826439 9.9215186,6.0787117 10.144359,6.0882405 Z M 5.570925,10.105061 c -0.034382,6.83e-4 -0.095285,0.0416 -0.1813166,0.125604 -0.3498987,0.341667 -0.5952417,0.987607 -0.6553738,1.726052 l -0.030892,0.374788 0.3732691,-0.02533 c 0.703684,-0.04832 1.2760507,-0.27091 1.6293172,-0.633595 0.271528,-0.278768 0.1945459,-0.326774 -0.2056268,-0.128137 -0.2913361,0.144612 -0.7974699,0.264426 -1.1299377,0.267416 l -0.1635892,0.0014 0.029884,-0.340347 C 5.2748832,11.034738 5.356992,10.713985 5.5076215,10.41692 5.610785,10.213464 5.6282358,10.10377 5.5709265,10.104935 Z" />
  <rect
     style="opacity:0.5;fill:none;fill-opacity:0.996424;stroke:url(#linearGradient9);stroke-width:0.566102;stroke-dasharray:none;stroke-opacity:1"
     id="rect1-2-6"
     width="11.574203"
     height="11.508601"
     x="2.729686"
     y="2.6615164"
     rx="2.0246315"
     ry="2.0627522" />
</svg>
