<?xml version="1.0" encoding="UTF-8" standalone="no"?>
<svg
   width="64"
   height="64"
   version="1.1"
   viewBox="0 0 16.933 16.933"
   id="svg7"
   sodipodi:docname="Template 4.svg"
   inkscape:version="1.3.2 (091e20ef0f, 2023-11-25)"
   xmlns:inkscape="http://www.inkscape.org/namespaces/inkscape"
   xmlns:sodipodi="http://sodipodi.sourceforge.net/DTD/sodipodi-0.dtd"
   xmlns:xlink="http://www.w3.org/1999/xlink"
   xmlns="http://www.w3.org/2000/svg"
   xmlns:svg="http://www.w3.org/2000/svg"
   xmlns:rdf="http://www.w3.org/1999/02/22-rdf-syntax-ns#"
   xmlns:cc="http://creativecommons.org/ns#"
   xmlns:dc="http://purl.org/dc/elements/1.1/">
  <sodipodi:namedview
     id="namedview7"
     pagecolor="#9c4444"
     bordercolor="#000000"
     borderopacity="0.25"
     inkscape:showpageshadow="2"
     inkscape:pageopacity="0.0"
     inkscape:pagecheckerboard="0"
     inkscape:deskcolor="#d1d1d1"
     inkscape:zoom="4.3531261"
     inkscape:cx="33.424256"
     inkscape:cy="25.039477"
     inkscape:window-width="1463"
     inkscape:window-height="604"
     inkscape:window-x="199"
     inkscape:window-y="276"
     inkscape:window-maximized="0"
     inkscape:current-layer="svg7"
     showgrid="false" />
  <defs
     id="defs2">
    <linearGradient
       id="linearGradient5"
       inkscape:collect="always">
      <stop
         style="stop-color:#392713;stop-opacity:1;"
         offset="0"
         id="stop2" />
      <stop
         style="stop-color:#eed59e;stop-opacity:1;"
         offset="0.5"
         id="stop3" />
      <stop
         style="stop-color:#beaa8a;stop-opacity:1;"
         offset="1"
         id="stop4" />
    </linearGradient>
    <linearGradient
       id="linearGradient8"
       inkscape:collect="always">
      <stop
         style="stop-color:#1a1a1a;stop-opacity:1;"
         offset="0"
         id="stop8" />
      <stop
         style="stop-color:#ffffff;stop-opacity:0;"
         offset="1"
         id="stop9" />
    </linearGradient>
    <linearGradient
       inkscape:collect="always"
       xlink:href="#linearGradient5"
       id="linearGradient41"
       x1="13.675659"
       y1="16.110115"
       x2="13.728528"
       y2="10.548769"
       gradientUnits="userSpaceOnUse"
       gradientTransform="matrix(2.046153,0,0,2.046153,-18.798306,-18.911347)" />
    <linearGradient
       inkscape:collect="always"
       xlink:href="#linearGradient42"
       id="linearGradient4"
       x1="11.885941"
       y1="16.50819"
       x2="12.026573"
       y2="10.244942"
       gradientUnits="userSpaceOnUse"
       gradientTransform="matrix(2.046153,0,0,2.046153,-18.798306,-18.911347)" />
    <linearGradient
       id="linearGradient42"
       inkscape:collect="always">
      <stop
         style="stop-color:#010101;stop-opacity:1;"
         offset="0"
         id="stop42" />
      <stop
         style="stop-color:#6e6c6d;stop-opacity:1;"
         offset="1"
         id="stop43" />
    </linearGradient>
    <linearGradient
       inkscape:collect="always"
       xlink:href="#linearGradient8"
       id="linearGradient9"
       x1="9.3404646"
       y1="4.1692023"
       x2="9.4279938"
       y2="16.46883"
       gradientUnits="userSpaceOnUse"
       gradientTransform="matrix(1.05,0,0,1.05,-0.50277005,-0.1977751)" />
    <filter
       style="color-interpolation-filters:sRGB;"
       inkscape:label="Blur"
       id="filter2"
       x="-0.14510849"
       y="-0.14612901"
       width="1.290217"
       height="1.292258">
      <feGaussianBlur
         stdDeviation="0.6 0.6"
         result="blur"
         id="feGaussianBlur2" />
    </filter>
    <linearGradient
       inkscape:collect="always"
       xlink:href="#linearGradient5"
       id="linearGradient49"
       x1="8.8617773"
       y1="12.24453"
       x2="8.4054317"
       y2="4.1510158"
       gradientUnits="userSpaceOnUse" />
  </defs>
  <metadata
     id="metadata2">
    <rdf:RDF>
      <cc:Work
         rdf:about="">
        <dc:format>image/svg+xml</dc:format>
        <dc:type
           rdf:resource="http://purl.org/dc/dcmitype/StillImage" />
      </cc:Work>
    </rdf:RDF>
  </metadata>
  <rect
     style="fill:#000000;fill-opacity:0.996424;stroke:#000000;stroke-width:0.911802;stroke-dasharray:none;stroke-opacity:1;filter:url(#filter2)"
     id="rect1-2-3"
     width="13.065404"
     height="12.974159"
     x="1.9816793"
     y="1.9267306"
     rx="2.7149384"
     ry="2.8310909" />
  <rect
     style="fill:url(#linearGradient4);fill-opacity:0.996424;stroke:url(#linearGradient41);stroke-width:0.911802;stroke-dasharray:none;stroke-opacity:1"
     id="rect1-2"
     width="13.065404"
     height="12.974159"
     x="1.9816793"
     y="1.9267306"
     rx="2.7149384"
     ry="2.8310909" />
  <path
     style="fill:#000000;stroke-width:0.0150403;opacity:0.3"
     d="M 8.2183344,12.697194 C 7.2671111,12.633387 6.357292,12.2208 5.6821628,11.547083 5.0664863,10.932693 4.6885369,10.170027 4.5537434,9.270037 c -0.027277,-0.182121 -0.027277,-0.8406169 0,-1.0227377 C 4.6490101,7.6112218 4.8476208,7.0844002 5.1802945,6.58535 5.5812443,5.9838779 6.0887998,5.537842 6.7293483,5.2240528 7.1277168,5.0289017 7.4726887,4.9212716 7.9175291,4.8533445 c 0.299116,-0.045675 0.7988232,-0.045675 1.0979393,0 0.4458608,0.068083 0.7980561,0.1779003 1.1881806,0.3704853 0.411728,0.2032493 0.732407,0.4324416 1.052723,0.7523896 0.612339,0.6116366 0.9882,1.3718318 1.122882,2.2710799 0.02727,0.1821208 0.02727,0.8406167 0,1.0227377 -0.09323,0.6224837 -0.295127,1.162599 -0.616633,1.64963 -0.549185,0.831927 -1.397326,1.432307 -2.3561059,1.667835 -0.3477462,0.08543 -0.8536638,0.13213 -1.1881807,0.109692 z M 7.0725031,10.312878 c 0.070975,-0.0378 0.06947,-0.01813 0.069973,-0.9145651 l 4.86e-4,-0.849341 0.5903303,0.5884804 c 0.4984109,0.4968488 0.5996979,0.5910296 0.6504915,0.604853 0.074927,0.020391 0.090671,0.02038 0.1654429,-1.249e-4 0.050693,-0.013901 0.1530707,-0.1090694 0.6504914,-0.6046829 l 0.5903312,-0.5881855 4.86e-4,0.8491711 c 3.645e-4,0.6438059 0.00494,0.8549419 0.0188,0.8730339 0.040492,0.05274 0.080741,0.05886 0.3869776,0.05886 h 0.302951 l 0.04397,-0.04397 0.04397,-0.04397 V 8.7586681 7.2748882 l -0.04397,-0.043963 -0.04397,-0.043963 -0.230522,3.299e-4 c -0.193572,2.777e-4 -0.240164,0.00485 -0.2906828,0.028547 -0.04023,0.018872 -0.29673,0.2653157 -0.7745108,0.7441624 -0.3928931,0.39377 -0.7245578,0.7159459 -0.7370313,0.7159459 -0.012474,0 -0.3441381,-0.3219412 -0.7370324,-0.7154247 C 7.3365879,7.5670378 6.9900181,7.2320159 6.9593272,7.2160285 6.9111281,7.1909204 6.8715237,7.18696 6.668645,7.18696 H 6.4337649 l -0.043963,0.043963 -0.043963,0.043963 v 1.4837814 1.4837786 l 0.043963,0.04397 0.043963,0.04397 h 0.3029509 c 0.2014722,0 0.3139554,-0.0058 0.3358029,-0.0175 z"
     id="path5-3" />
  <path
     style="fill:url(#linearGradient49);stroke-width:0.0150403"
     d="M 8.2183344,12.168038 C 7.2671111,12.104231 6.357292,11.691644 5.6821628,11.017927 5.0664863,10.403537 4.6885369,9.640871 4.5537434,8.7408808 c -0.027277,-0.182121 -0.027277,-0.8406169 0,-1.0227377 C 4.6490101,7.0820656 4.8476208,6.555244 5.1802945,6.0561938 5.5812443,5.4547217 6.0887998,5.0086858 6.7293483,4.6948966 7.1277168,4.4997455 7.4726887,4.3921154 7.9175291,4.3241883 c 0.299116,-0.045675 0.7988232,-0.045675 1.0979393,0 0.4458608,0.068083 0.7980561,0.1779003 1.1881806,0.3704853 0.411728,0.2032493 0.732407,0.4324416 1.052723,0.7523896 0.612339,0.6116366 0.9882,1.3718318 1.122882,2.2710799 0.02727,0.1821208 0.02727,0.8406167 0,1.0227377 -0.09323,0.6224837 -0.295127,1.1625992 -0.616633,1.6496302 -0.549185,0.831927 -1.397326,1.432307 -2.3561059,1.667835 -0.3477462,0.08543 -0.8536638,0.13213 -1.1881807,0.109692 z M 7.0725031,9.7837214 c 0.070975,-0.037803 0.06947,-0.018128 0.069973,-0.9145647 l 4.86e-4,-0.849341 0.5903303,0.5884804 c 0.4984109,0.4968488 0.5996979,0.5910296 0.6504915,0.604853 0.074927,0.020391 0.090671,0.02038 0.1654429,-1.249e-4 0.050693,-0.013901 0.1530707,-0.1090694 0.6504914,-0.6046829 l 0.5903312,-0.5881855 4.86e-4,0.8491711 c 3.645e-4,0.643806 0.00494,0.8549421 0.0188,0.8730342 0.040492,0.052739 0.080741,0.058863 0.3869776,0.058863 h 0.302951 l 0.04397,-0.043967 0.04397,-0.043967 V 8.2295119 6.745732 l -0.04397,-0.043963 -0.04397,-0.043963 -0.230522,3.299e-4 c -0.193572,2.777e-4 -0.240164,0.00485 -0.2906828,0.028547 -0.04023,0.018872 -0.29673,0.2653157 -0.7745108,0.7441624 C 8.8106553,7.8246153 8.4789906,8.1467912 8.4665171,8.1467912 8.4540431,8.1467912 8.122379,7.82485 7.7294847,7.4313665 7.3365879,7.0378816 6.9900181,6.7028597 6.9593272,6.6868723 6.9111281,6.6617642 6.8715237,6.6578038 6.668645,6.6578038 H 6.4337649 l -0.043963,0.043963 -0.043963,0.043963 v 1.4837814 1.4837786 l 0.043963,0.043967 0.043963,0.043967 h 0.3029509 c 0.2014722,0 0.3139554,-0.00583 0.3358029,-0.017496 z"
     id="path5" />
  <rect
     style="opacity:0.5;fill:none;fill-opacity:0.996424;stroke:url(#linearGradient9);stroke-width:0.566102;stroke-dasharray:none;stroke-opacity:1"
     id="rect1-2-6"
     width="11.574203"
     height="11.508601"
     x="2.729686"
     y="2.6615164"
     rx="2.0246315"
     ry="2.0627522" />
</svg>
