<?xml version="1.0" encoding="UTF-8" standalone="no"?>
<svg
   width="64"
   height="64"
   version="1.1"
   viewBox="0 0 16.933 16.933"
   id="svg7"
   sodipodi:docname="Template 4.svg"
   inkscape:version="1.3.2 (091e20ef0f, 2023-11-25)"
   xmlns:inkscape="http://www.inkscape.org/namespaces/inkscape"
   xmlns:sodipodi="http://sodipodi.sourceforge.net/DTD/sodipodi-0.dtd"
   xmlns:xlink="http://www.w3.org/1999/xlink"
   xmlns="http://www.w3.org/2000/svg"
   xmlns:svg="http://www.w3.org/2000/svg"
   xmlns:rdf="http://www.w3.org/1999/02/22-rdf-syntax-ns#"
   xmlns:cc="http://creativecommons.org/ns#"
   xmlns:dc="http://purl.org/dc/elements/1.1/">
  <sodipodi:namedview
     id="namedview7"
     pagecolor="#9c4444"
     bordercolor="#000000"
     borderopacity="0.25"
     inkscape:showpageshadow="2"
     inkscape:pageopacity="0.0"
     inkscape:pagecheckerboard="0"
     inkscape:deskcolor="#d1d1d1"
     inkscape:zoom="4.3531261"
     inkscape:cx="32.849956"
     inkscape:cy="24.350317"
     inkscape:window-width="1356"
     inkscape:window-height="786"
     inkscape:window-x="35"
     inkscape:window-y="32"
     inkscape:window-maximized="0"
     inkscape:current-layer="svg7"
     showgrid="false" />
  <defs
     id="defs2">
    <linearGradient
       id="linearGradient5"
       inkscape:collect="always">
      <stop
         style="stop-color:#392713;stop-opacity:1;"
         offset="0"
         id="stop2" />
      <stop
         style="stop-color:#eed59e;stop-opacity:1;"
         offset="0.5"
         id="stop3" />
      <stop
         style="stop-color:#beaa8a;stop-opacity:1;"
         offset="1"
         id="stop4" />
    </linearGradient>
    <linearGradient
       id="linearGradient8"
       inkscape:collect="always">
      <stop
         style="stop-color:#1a1a1a;stop-opacity:1;"
         offset="0"
         id="stop8" />
      <stop
         style="stop-color:#ffffff;stop-opacity:0;"
         offset="1"
         id="stop9" />
    </linearGradient>
    <linearGradient
       inkscape:collect="always"
       xlink:href="#linearGradient5"
       id="linearGradient41"
       x1="13.675659"
       y1="16.110115"
       x2="13.728528"
       y2="10.548769"
       gradientUnits="userSpaceOnUse"
       gradientTransform="matrix(2.046153,0,0,2.046153,-18.798306,-18.911347)" />
    <linearGradient
       inkscape:collect="always"
       xlink:href="#linearGradient42"
       id="linearGradient4"
       x1="11.885941"
       y1="16.50819"
       x2="12.026573"
       y2="10.244942"
       gradientUnits="userSpaceOnUse"
       gradientTransform="matrix(2.046153,0,0,2.046153,-18.798306,-18.911347)" />
    <linearGradient
       id="linearGradient42"
       inkscape:collect="always">
      <stop
         style="stop-color:#010101;stop-opacity:1;"
         offset="0"
         id="stop42" />
      <stop
         style="stop-color:#6e6c6d;stop-opacity:1;"
         offset="1"
         id="stop43" />
    </linearGradient>
    <linearGradient
       inkscape:collect="always"
       xlink:href="#linearGradient8"
       id="linearGradient9"
       x1="9.3404646"
       y1="4.1692023"
       x2="9.4279938"
       y2="16.46883"
       gradientUnits="userSpaceOnUse"
       gradientTransform="matrix(1.05,0,0,1.05,-0.50277005,-0.1977751)" />
    <filter
       style="color-interpolation-filters:sRGB;"
       inkscape:label="Blur"
       id="filter2"
       x="-0.14510849"
       y="-0.14612901"
       width="1.290217"
       height="1.292258">
      <feGaussianBlur
         stdDeviation="0.6 0.6"
         result="blur"
         id="feGaussianBlur2" />
    </filter>
    <linearGradient
       inkscape:collect="always"
       xlink:href="#linearGradient5"
       id="linearGradient44"
       x1="32.767902"
       y1="50.988667"
       x2="32.293781"
       y2="13.605487"
       gradientUnits="userSpaceOnUse"
       gradientTransform="matrix(0.2121652,0,0,0.2121652,1.7113807,1.5176244)" />
  </defs>
  <metadata
     id="metadata2">
    <rdf:RDF>
      <cc:Work
         rdf:about="">
        <dc:format>image/svg+xml</dc:format>
        <dc:type
           rdf:resource="http://purl.org/dc/dcmitype/StillImage" />
      </cc:Work>
    </rdf:RDF>
  </metadata>
  <rect
     style="fill:#000000;fill-opacity:0.996424;stroke:#000000;stroke-width:0.911802;stroke-dasharray:none;stroke-opacity:1;filter:url(#filter2)"
     id="rect1-2-3"
     width="13.065404"
     height="12.974159"
     x="1.9816793"
     y="1.9267306"
     rx="2.7149384"
     ry="2.8310909" />
  <rect
     style="fill:url(#linearGradient4);fill-opacity:0.996424;stroke:url(#linearGradient41);stroke-width:0.911802;stroke-dasharray:none;stroke-opacity:1"
     id="rect1-2"
     width="13.065404"
     height="12.974159"
     x="1.9816793"
     y="1.9267306"
     rx="2.7149384"
     ry="2.8310909" />
  <path
     id="path127-0"
     style="fill:#000000;fill-opacity:1;stroke:none;stroke-width:0.254153;stroke-dasharray:none;stroke-dashoffset:2.2;stroke-opacity:0.3;opacity:0.3"
     d="M 8.4745979,5.0003168 C 8.2122657,4.9999986 7.9549249,5.0148311 7.780642,5.0454887 6.99533,5.1836267 6.2637349,5.5692081 5.6769325,6.1539316 5.2258246,6.6034422 4.9097175,7.1113788 4.7164141,7.6972143 4.5616869,8.1661409 4.559805,8.2370421 4.7089672,7.9439214 4.9857895,7.3999349 5.4100705,6.9701642 5.927113,6.709891 6.3279847,6.508097 6.5584159,6.458286 7.0916486,6.4597094 c 1.3476013,0.00357 2.1982466,0.5040141 2.4134578,1.4191847 0.059728,0.2539963 0.04662,0.8763793 -0.021842,1.0344808 -0.024332,0.056196 -0.061036,0.1546865 -0.081905,0.2189087 -0.020868,0.064223 -0.088529,0.1948772 -0.1504067,0.2903894 -0.061879,0.095512 -0.1126809,0.1823993 -0.1126809,0.1930964 0,0.010697 0.027361,0.054456 0.061057,0.097293 0.1211787,0.1540547 0.4858854,0.2922596 0.8915202,0.3375456 0.599192,0.0669 1.07389,-0.03423 1.516479,-0.3231504 C 12.25172,9.3067935 12.489294,8.8103508 12.406518,8.0580915 12.366621,7.6955209 12.294169,7.4583739 12.108683,7.0886379 11.915726,6.7040106 11.773837,6.5002506 11.505567,6.2194555 10.917407,5.603835 10.106516,5.191623 9.1998266,5.0474742 9.0041803,5.0163646 8.7369298,5.0006357 8.4745979,5.0003168 Z M 6.6741845,6.696488 C 6.4908567,6.6945343 6.4184641,6.7078961 6.2735962,6.7515888 5.4731805,6.9929875 4.8179999,7.8311063 4.6980478,8.7664437 c -0.055205,0.4304623 0.030766,1.1075759 0.2084846,1.6420653 0.4156507,1.250069 1.3745004,2.15242 2.5241532,2.375729 0.1858668,0.03609 0.3106376,0.03671 1.0359702,0.0068 0.024083,-9.9e-4 0.1822123,0.0084 0.3514457,0.02036 0.3495084,0.02486 0.5734579,-0.0049 0.9242812,-0.122112 0.7218293,-0.241279 1.4748453,-0.794459 1.9160743,-1.407271 0.172327,-0.239342 0.192537,-0.295882 0.125586,-0.351445 -0.03107,-0.02578 -0.07464,-0.0092 -0.195578,0.07396 -0.08555,0.05885 -0.234898,0.142561 -0.332086,0.186147 -0.307688,0.137987 -0.453674,0.160116 -1.037957,0.157852 -0.5022775,-0.002 -0.5583127,-0.0075 -0.8026649,-0.0819 C 8.894343,11.107797 8.4835119,10.856172 8.1157066,10.471051 7.8577537,10.200953 7.706269,9.963851 7.5920133,9.6505151 7.4059454,9.1402432 7.4164223,8.6743196 7.6198111,8.3886869 7.7151592,8.2547828 7.6892749,8.2588823 7.5006771,8.407052 7.0913752,8.7286175 6.7753387,9.204781 6.6081643,9.7512814 c -0.068926,0.2253201 -0.078929,0.3070596 -0.079919,0.6656626 -0.00131,0.466554 0.035954,0.639539 0.2184121,1.021572 0.1439334,0.30137 0.3733032,0.598217 0.6274395,0.812097 0.2105036,0.17716 0.6222188,0.400539 0.8736501,0.473559 l 0.1459393,0.04218 -0.2104702,-0.0144 C 7.2905791,12.690179 6.5529229,11.968769 6.3490476,10.959002 6.2768931,10.60163 6.3018773,10.041233 6.4056363,9.6932038 6.6226368,8.9653356 7.1240277,8.3466526 7.6783857,8.1236126 7.931702,8.0216931 8.2968411,8.1218517 8.4949499,8.3474851 8.6114473,8.4801679 8.7277553,8.7210179 8.7327217,8.8404025 8.7401942,9.0201 8.7846159,8.7024421 8.7858358,8.4606627 8.7892644,7.7793749 8.4853091,7.2271007 7.955372,6.9511346 7.629701,6.7815404 7.3736269,6.7213749 6.9010357,6.7029383 c -0.092585,-0.00361 -0.1657424,-0.0058 -0.2268512,-0.00645 z" />
  <path
     id="path127"
     style="fill:url(#linearGradient44);fill-opacity:1;stroke:none;stroke-width:0.254153;stroke-dasharray:none;stroke-dashoffset:2.2;stroke-opacity:0.3"
     d="M 8.4745979,4.4711606 C 8.2122657,4.4708424 7.9549249,4.4856749 7.780642,4.5163325 6.99533,4.6544705 6.2637349,5.0400519 5.6769325,5.6247754 5.2258246,6.074286 4.9097175,6.5822226 4.7164141,7.1680581 4.5616869,7.6369847 4.559805,7.7078859 4.7089672,7.4147652 4.9857895,6.8707787 5.4100705,6.441008 5.927113,6.1807348 6.3279847,5.9789408 6.5584159,5.9291298 7.0916486,5.9305532 c 1.3476013,0.00357 2.1982466,0.5040141 2.4134578,1.4191847 0.059728,0.2539963 0.04662,0.8763793 -0.021842,1.0344808 -0.024332,0.056196 -0.061036,0.1546865 -0.081905,0.2189087 -0.020868,0.064223 -0.088529,0.1948772 -0.1504067,0.2903894 -0.061879,0.095512 -0.1126809,0.1823993 -0.1126809,0.1930964 0,0.010697 0.027361,0.054456 0.061057,0.097293 0.1211787,0.1540547 0.4858854,0.2922592 0.8915202,0.337546 0.599192,0.066901 1.07389,-0.034227 1.516479,-0.3231508 C 12.25172,8.7776373 12.489294,8.2811946 12.406518,7.5289353 12.366621,7.1663647 12.294169,6.9292177 12.108683,6.5594817 11.915726,6.1748544 11.773837,5.9710944 11.505567,5.6902993 10.917407,5.0746788 10.106516,4.6624668 9.1998266,4.518318 9.0041803,4.4872084 8.7369298,4.4714795 8.4745979,4.4711606 Z M 6.6741845,6.1673318 C 6.4908567,6.1653781 6.4184641,6.1787399 6.2735962,6.2224326 5.4731805,6.4638313 4.8179999,7.3019501 4.6980478,8.2372875 c -0.055205,0.4304623 0.030766,1.1075759 0.2084846,1.6420652 0.4156507,1.2500693 1.3745004,2.1524203 2.5241532,2.3757293 0.1858668,0.03609 0.3106376,0.03671 1.0359702,0.0068 0.024083,-9.9e-4 0.1822123,0.0084 0.3514457,0.02036 0.3495084,0.02486 0.5734579,-0.0049 0.9242812,-0.122112 0.7218293,-0.241279 1.4748453,-0.794459 1.9160743,-1.407271 0.172327,-0.239342 0.192537,-0.295882 0.125586,-0.351445 -0.03107,-0.02578 -0.07464,-0.0092 -0.195578,0.07396 -0.08555,0.05885 -0.234898,0.142561 -0.332086,0.186147 -0.307688,0.137987 -0.453674,0.160116 -1.037957,0.157852 -0.5022775,-0.002 -0.5583127,-0.0075 -0.8026649,-0.0819 C 8.894343,10.578641 8.4835119,10.327016 8.1157066,9.9418946 7.8577537,9.671797 7.706269,9.4346948 7.5920133,9.1213589 7.4059454,8.611087 7.4164223,8.1451634 7.6198111,7.8595307 7.7151592,7.7256266 7.6892749,7.7297261 7.5006771,7.8778958 7.0913752,8.1994613 6.7753387,8.6756248 6.6081643,9.2221252 c -0.068926,0.2253201 -0.078929,0.30706 -0.079919,0.6656623 -0.00131,0.4665545 0.035954,0.6395395 0.2184121,1.0215725 0.1439334,0.30137 0.3733032,0.598217 0.6274395,0.812097 0.2105036,0.17716 0.6222188,0.400539 0.8736501,0.473559 l 0.1459393,0.04218 -0.2104702,-0.0144 C 7.2905791,12.161023 6.5529229,11.439613 6.3490476,10.429846 6.2768931,10.072474 6.3018773,9.5120772 6.4056363,9.1640476 6.6226368,8.4361794 7.1240277,7.8174964 7.6783857,7.5944564 7.931702,7.4925369 8.2968411,7.5926955 8.4949499,7.8183289 8.6114473,7.9510117 8.7277553,8.1918617 8.7327217,8.3112463 8.7401942,8.4909438 8.7846159,8.1732859 8.7858358,7.9315065 8.7892644,7.2502187 8.4853091,6.6979445 7.955372,6.4219784 7.629701,6.2523842 7.3736269,6.1922187 6.9010357,6.1737821 6.8084511,6.170169 6.7352933,6.1679815 6.6741845,6.167328 Z" />
  <rect
     style="opacity:0.5;fill:none;fill-opacity:0.996424;stroke:url(#linearGradient9);stroke-width:0.566102;stroke-dasharray:none;stroke-opacity:1"
     id="rect1-2-6"
     width="11.574203"
     height="11.508601"
     x="2.729686"
     y="2.6615164"
     rx="2.0246315"
     ry="2.0627522" />
</svg>
