<?xml version="1.0" encoding="UTF-8" standalone="no"?>
<svg
   width="64"
   height="64"
   version="1.1"
   viewBox="0 0 16.933 16.933"
   id="svg7"
   sodipodi:docname="mintwelcome.svg"
   inkscape:version="1.3.2 (091e20ef0f, 2023-11-25)"
   xmlns:inkscape="http://www.inkscape.org/namespaces/inkscape"
   xmlns:sodipodi="http://sodipodi.sourceforge.net/DTD/sodipodi-0.dtd"
   xmlns:xlink="http://www.w3.org/1999/xlink"
   xmlns="http://www.w3.org/2000/svg"
   xmlns:svg="http://www.w3.org/2000/svg"
   xmlns:rdf="http://www.w3.org/1999/02/22-rdf-syntax-ns#"
   xmlns:cc="http://creativecommons.org/ns#"
   xmlns:dc="http://purl.org/dc/elements/1.1/">
  <sodipodi:namedview
     id="namedview7"
     pagecolor="#9c4444"
     bordercolor="#000000"
     borderopacity="0.25"
     inkscape:showpageshadow="2"
     inkscape:pageopacity="0.0"
     inkscape:pagecheckerboard="0"
     inkscape:deskcolor="#d1d1d1"
     inkscape:zoom="4.3531261"
     inkscape:cx="32.964816"
     inkscape:cy="24.350317"
     inkscape:window-width="1463"
     inkscape:window-height="604"
     inkscape:window-x="191"
     inkscape:window-y="142"
     inkscape:window-maximized="0"
     inkscape:current-layer="svg7"
     showgrid="false" />
  <defs
     id="defs2">
    <linearGradient
       id="linearGradient5"
       inkscape:collect="always">
      <stop
         style="stop-color:#392713;stop-opacity:1;"
         offset="0"
         id="stop2" />
      <stop
         style="stop-color:#eed59e;stop-opacity:1;"
         offset="0.5"
         id="stop3" />
      <stop
         style="stop-color:#beaa8a;stop-opacity:1;"
         offset="1"
         id="stop4" />
    </linearGradient>
    <linearGradient
       id="linearGradient8"
       inkscape:collect="always">
      <stop
         style="stop-color:#1a1a1a;stop-opacity:1;"
         offset="0"
         id="stop8" />
      <stop
         style="stop-color:#ffffff;stop-opacity:0;"
         offset="1"
         id="stop9" />
    </linearGradient>
    <linearGradient
       inkscape:collect="always"
       xlink:href="#linearGradient5"
       id="linearGradient41"
       x1="13.675659"
       y1="16.110115"
       x2="13.728528"
       y2="10.548769"
       gradientUnits="userSpaceOnUse"
       gradientTransform="matrix(2.046153,0,0,2.046153,-18.798306,-18.911347)" />
    <linearGradient
       inkscape:collect="always"
       xlink:href="#linearGradient42"
       id="linearGradient4"
       x1="11.885941"
       y1="16.50819"
       x2="12.026573"
       y2="10.244942"
       gradientUnits="userSpaceOnUse"
       gradientTransform="matrix(2.046153,0,0,2.046153,-18.798306,-18.911347)" />
    <linearGradient
       id="linearGradient42"
       inkscape:collect="always">
      <stop
         style="stop-color:#010101;stop-opacity:1;"
         offset="0"
         id="stop42" />
      <stop
         style="stop-color:#6e6c6d;stop-opacity:1;"
         offset="1"
         id="stop43" />
    </linearGradient>
    <linearGradient
       inkscape:collect="always"
       xlink:href="#linearGradient8"
       id="linearGradient9"
       x1="9.3404646"
       y1="4.1692023"
       x2="9.4279938"
       y2="16.46883"
       gradientUnits="userSpaceOnUse"
       gradientTransform="matrix(1.05,0,0,1.05,-0.50277005,-0.1977751)" />
    <filter
       style="color-interpolation-filters:sRGB;"
       inkscape:label="Blur"
       id="filter2"
       x="-0.14510849"
       y="-0.14612901"
       width="1.290217"
       height="1.292258">
      <feGaussianBlur
         stdDeviation="0.6 0.6"
         result="blur"
         id="feGaussianBlur2" />
    </filter>
    <linearGradient
       inkscape:collect="always"
       xlink:href="#linearGradient5"
       id="linearGradient6"
       x1="8.9877672"
       y1="12.225436"
       x2="9.117938"
       y2="4.6053338"
       gradientUnits="userSpaceOnUse" />
  </defs>
  <metadata
     id="metadata2">
    <rdf:RDF>
      <cc:Work
         rdf:about="">
        <dc:format>image/svg+xml</dc:format>
        <dc:type
           rdf:resource="http://purl.org/dc/dcmitype/StillImage" />
      </cc:Work>
    </rdf:RDF>
  </metadata>
  <rect
     style="fill:#000000;fill-opacity:0.996424;stroke:#000000;stroke-width:0.911802;stroke-dasharray:none;stroke-opacity:1;filter:url(#filter2)"
     id="rect1-2-3"
     width="13.065404"
     height="12.974159"
     x="1.9816793"
     y="1.9267306"
     rx="2.7149384"
     ry="2.8310909" />
  <rect
     style="fill:url(#linearGradient4);fill-opacity:0.996424;stroke:url(#linearGradient41);stroke-width:0.911802;stroke-dasharray:none;stroke-opacity:1"
     id="rect1-2"
     width="13.065404"
     height="12.974159"
     x="1.9816793"
     y="1.9267306"
     rx="2.7149384"
     ry="2.8310909" />
  <path
     d="m 4.3415107,5.0099256 v 5.5040714 c 0,1.343713 1.1088469,2.446157 2.4607088,2.446157 H 10.16252 c 1.351863,0 2.460709,-1.102444 2.460709,-2.446157 V 7.4942082 c 0,-1.0061111 -0.815773,-1.8218849 -1.821885,-1.8218849 C 10.377887,5.6726144 9.9681083,5.8201696 9.6418571,6.0896688 9.3156058,5.8201696 8.9055362,5.6726144 8.4823699,5.6723233 c -1.0061111,0 -1.8218849,0.8157738 -1.8218849,1.8218849 V 10.64118 H 7.9855716 V 7.4942082 c 0,-0.2744468 0.2223515,-0.4967982 0.4967983,-0.4967982 0.2744469,0 0.4967984,0.2223514 0.4967984,0.4967982 V 10.64118 H 10.304255 V 7.4942082 c 0,-0.2744468 0.222642,-0.4967982 0.497089,-0.4967982 0.274156,0 0.496798,0.2223514 0.496798,0.4967982 v 2.9205458 c 0,0.68277 -0.548311,1.220314 -1.235156,1.220314 H 6.9017538 c -0.6868448,0 -1.2357385,-0.537544 -1.2351565,-1.220314 V 5.0099256 Z"
     fill="#ffffff"
     fill-rule="nonzero"
     id="path2-5"
     style="fill:#000000;stroke-width:0.291036;opacity:0.3" />
  <path
     d="m 4.3415107,4.4807694 v 5.5040715 c 0,1.3437131 1.1088469,2.4461571 2.4607088,2.4461571 H 10.16252 c 1.351863,0 2.460709,-1.102444 2.460709,-2.4461571 V 6.965052 c 0,-1.0061111 -0.815773,-1.8218849 -1.821885,-1.8218849 C 10.377887,5.1434582 9.9681083,5.2910134 9.6418571,5.5605126 9.3156058,5.2910134 8.9055362,5.1434582 8.4823699,5.1431671 c -1.0061111,0 -1.8218849,0.8157738 -1.8218849,1.8218849 v 3.146972 H 7.9855716 V 6.965052 c 0,-0.2744468 0.2223515,-0.4967982 0.4967983,-0.4967982 0.2744469,0 0.4967984,0.2223514 0.4967984,0.4967982 v 3.146972 H 10.304255 V 6.965052 c 0,-0.2744468 0.222642,-0.4967982 0.497089,-0.4967982 0.274156,0 0.496798,0.2223514 0.496798,0.4967982 v 2.9205457 c 0,0.6827703 -0.548311,1.2203143 -1.235156,1.2203143 H 6.9017538 c -0.6868448,0 -1.2357385,-0.537544 -1.2351565,-1.2203143 V 4.4807694 Z"
     fill="#ffffff"
     fill-rule="nonzero"
     id="path2"
     style="stroke-width:0.291036;fill:url(#linearGradient6)" />
  <rect
     style="opacity:0.5;fill:none;fill-opacity:0.996424;stroke:url(#linearGradient9);stroke-width:0.566102;stroke-dasharray:none;stroke-opacity:1"
     id="rect1-2-6"
     width="11.574203"
     height="11.508601"
     x="2.729686"
     y="2.6615164"
     rx="2.0246315"
     ry="2.0627522" />
</svg>
