<?xml version="1.0" encoding="UTF-8" standalone="no"?>
<svg
   width="64"
   height="64"
   version="1.1"
   viewBox="0 0 16.933 16.933"
   id="svg7"
   sodipodi:docname="Template 4.svg"
   inkscape:version="1.3.2 (091e20ef0f, 2023-11-25)"
   xmlns:inkscape="http://www.inkscape.org/namespaces/inkscape"
   xmlns:sodipodi="http://sodipodi.sourceforge.net/DTD/sodipodi-0.dtd"
   xmlns:xlink="http://www.w3.org/1999/xlink"
   xmlns="http://www.w3.org/2000/svg"
   xmlns:svg="http://www.w3.org/2000/svg"
   xmlns:rdf="http://www.w3.org/1999/02/22-rdf-syntax-ns#"
   xmlns:cc="http://creativecommons.org/ns#"
   xmlns:dc="http://purl.org/dc/elements/1.1/">
  <sodipodi:namedview
     id="namedview7"
     pagecolor="#9c4444"
     bordercolor="#000000"
     borderopacity="0.25"
     inkscape:showpageshadow="2"
     inkscape:pageopacity="0.0"
     inkscape:pagecheckerboard="0"
     inkscape:deskcolor="#d1d1d1"
     inkscape:zoom="4.3531261"
     inkscape:cx="33.424256"
     inkscape:cy="25.039477"
     inkscape:window-width="1463"
     inkscape:window-height="604"
     inkscape:window-x="199"
     inkscape:window-y="276"
     inkscape:window-maximized="0"
     inkscape:current-layer="svg7"
     showgrid="false" />
  <defs
     id="defs2">
    <linearGradient
       id="linearGradient5"
       inkscape:collect="always">
      <stop
         style="stop-color:#392713;stop-opacity:1;"
         offset="0"
         id="stop2" />
      <stop
         style="stop-color:#eed59e;stop-opacity:1;"
         offset="0.5"
         id="stop3" />
      <stop
         style="stop-color:#beaa8a;stop-opacity:1;"
         offset="1"
         id="stop4" />
    </linearGradient>
    <linearGradient
       id="linearGradient8"
       inkscape:collect="always">
      <stop
         style="stop-color:#1a1a1a;stop-opacity:1;"
         offset="0"
         id="stop8" />
      <stop
         style="stop-color:#ffffff;stop-opacity:0;"
         offset="1"
         id="stop9" />
    </linearGradient>
    <linearGradient
       inkscape:collect="always"
       xlink:href="#linearGradient5"
       id="linearGradient41"
       x1="13.675659"
       y1="16.110115"
       x2="13.728528"
       y2="10.548769"
       gradientUnits="userSpaceOnUse"
       gradientTransform="matrix(2.046153,0,0,2.046153,-18.798306,-18.911347)" />
    <linearGradient
       inkscape:collect="always"
       xlink:href="#linearGradient42"
       id="linearGradient4"
       x1="11.885941"
       y1="16.50819"
       x2="12.026573"
       y2="10.244942"
       gradientUnits="userSpaceOnUse"
       gradientTransform="matrix(2.046153,0,0,2.046153,-18.798306,-18.911347)" />
    <linearGradient
       id="linearGradient42"
       inkscape:collect="always">
      <stop
         style="stop-color:#010101;stop-opacity:1;"
         offset="0"
         id="stop42" />
      <stop
         style="stop-color:#6e6c6d;stop-opacity:1;"
         offset="1"
         id="stop43" />
    </linearGradient>
    <linearGradient
       inkscape:collect="always"
       xlink:href="#linearGradient8"
       id="linearGradient9"
       x1="9.3404646"
       y1="4.1692023"
       x2="9.4279938"
       y2="16.46883"
       gradientUnits="userSpaceOnUse"
       gradientTransform="matrix(1.05,0,0,1.05,-0.50277005,-0.1977751)" />
    <filter
       style="color-interpolation-filters:sRGB;"
       inkscape:label="Blur"
       id="filter2"
       x="-0.14510849"
       y="-0.14612901"
       width="1.290217"
       height="1.292258">
      <feGaussianBlur
         stdDeviation="0.6 0.6"
         result="blur"
         id="feGaussianBlur2" />
    </filter>
    <linearGradient
       id="b"
       x2="1"
       gradientTransform="matrix(0,8.6905657,-8.6905657,0,8.6268792,4.0943712)"
       gradientUnits="userSpaceOnUse"
       xlink:href="#linearGradient5">
      <stop
         stop-color="#ff4035"
         offset="0"
         id="stop5" />
      <stop
         stop-color="#dc311a"
         offset="1"
         id="stop6" />
    </linearGradient>
    <linearGradient
       inkscape:collect="always"
       xlink:href="#linearGradient5"
       id="linearGradient18"
       x1="8.406826"
       y1="12.418586"
       x2="8.568347"
       y2="4.0100708"
       gradientUnits="userSpaceOnUse" />
  </defs>
  <metadata
     id="metadata2">
    <rdf:RDF>
      <cc:Work
         rdf:about="">
        <dc:format>image/svg+xml</dc:format>
        <dc:type
           rdf:resource="http://purl.org/dc/dcmitype/StillImage" />
      </cc:Work>
    </rdf:RDF>
  </metadata>
  <rect
     style="fill:#000000;fill-opacity:0.996424;stroke:#000000;stroke-width:0.911802;stroke-dasharray:none;stroke-opacity:1;filter:url(#filter2)"
     id="rect1-2-3"
     width="13.065404"
     height="12.974159"
     x="1.9816793"
     y="1.9267306"
     rx="2.7149384"
     ry="2.8310909" />
  <rect
     style="fill:url(#linearGradient4);fill-opacity:0.996424;stroke:url(#linearGradient41);stroke-width:0.911802;stroke-dasharray:none;stroke-opacity:1"
     id="rect1-2"
     width="13.065404"
     height="12.974159"
     x="1.9816793"
     y="1.9267306"
     rx="2.7149384"
     ry="2.8310909" />
  <path
     id="path8-9"
     style="fill:#000000;stroke-width:0.0229237;opacity:0.3"
     d="m 8.8879858,4.5667512 c -0.022759,6.164e-4 -0.037513,0.00353 -0.042374,0.00878 C 8.8180568,4.6052932 8.667119,4.9949195 8.5836176,5.2519623 L 8.5117888,5.4726212 8.2363587,5.4850233 C 7.9941623,5.4962493 7.7140558,5.5393028 7.6038516,5.5816562 7.5768152,5.5920462 7.5411101,5.5544269 7.4679453,5.4395489 7.2938854,5.1662522 7.0224521,4.7913815 6.9987326,4.7915392 6.9089676,4.7921371 6.1445385,5.1603453 5.9150992,5.3134609 c -0.031587,0.021079 0.018724,0.3593414 0.1090351,0.7337909 0.02528,0.1048152 0.045991,0.2094646 0.045991,0.2320225 0,0.023132 -0.062334,0.089544 -0.143141,0.1524426 -0.0788,0.061337 -0.2543239,0.2228242 -0.3896326,0.3591441 L 5.291377,7.038903 5.205079,6.9949788 C 5.1114183,6.947242 4.7546074,6.7931607 4.5663708,6.719549 L 4.4490677,6.6740746 4.2878404,6.9184993 C 4.1076573,7.191845 3.8928571,7.570904 3.8341302,7.719468 l -0.038757,0.097667 0.1105853,0.1317723 c 0.060714,0.072367 0.2044253,0.2346147 0.3193541,0.3606943 l 0.2087687,0.229439 0.1214372,0.9854501 c 0.066712,0.5421443 0.1284247,1.0214973 0.1369399,1.0650303 0.015149,0.07745 0.019166,0.08001 0.1860315,0.11472 0.2087902,0.04343 0.2137849,0.05141 0.2526927,0.400485 l 0.028422,0.257343 0.2852483,0.05219 c 0.1566906,0.02864 0.2900184,0.04639 0.296617,0.03979 0.0066,-0.0066 -0.00361,-0.133604 -0.022738,-0.282147 -0.035937,-0.279058 -0.029201,-0.331757 0.048058,-0.37103 0.023497,-0.01194 0.2653388,-0.0053 0.5947841,0.01654 0.4380429,0.02903 0.5628122,0.04448 0.5911667,0.07286 0.02413,0.02415 0.048265,0.135138 0.073379,0.33744 l 0.037206,0.301268 0.1741464,0.0077 c 0.095638,0.0043 0.2945125,0.0093 0.4423413,0.01188 l 0.2687129,0.0046 -0.010334,-0.06304 c -0.062156,-0.36537 -0.070853,-0.607365 -0.023254,-0.646869 0.045255,-0.03756 1.5670332,-0.228376 1.6319096,-0.204635 0.062134,0.02273 0.066796,0.03806 0.1116189,0.387049 0.020211,0.157344 0.039471,0.289579 0.043407,0.293516 0.0067,0.0067 0.8180532,-0.20179 0.8345582,-0.214453 0.0042,-0.0032 -0.01038,-0.146985 -0.03204,-0.319354 -0.03828,-0.304721 -0.0379,-0.314656 0.0041,-0.353977 0.04358,-0.04076 1.026534,-0.367929 1.105336,-0.367929 0.0819,0 0.112872,0.07325 0.148309,0.351392 0.01899,0.149058 0.03982,0.275977 0.04599,0.282149 0.0062,0.0062 0.128137,-0.04326 0.271296,-0.109552 0.143154,-0.06629 0.262272,-0.121055 0.264574,-0.121954 0.0023,-9e-4 -0.01116,-0.119437 -0.02997,-0.263545 -0.01881,-0.144108 -0.02845,-0.2857659 -0.02119,-0.3147034 0.0085,-0.03368 0.05452,-0.073531 0.127638,-0.1105854 0.06283,-0.031836 0.113725,-0.070751 0.113169,-0.086298 -5.55e-4,-0.015547 -0.06094,-0.5026309 -0.134356,-1.0826 l -0.133839,-1.0546951 0.0863,-0.1488252 c 0.04728,-0.081952 0.14807,-0.273932 0.224271,-0.4263222 L 12.714551,6.7009465 12.560042,6.5195658 c -0.179307,-0.2102576 -0.730707,-0.7430923 -0.76893,-0.7430925 -0.0222,0 -0.452793,0.3178803 -0.666096,0.4914332 l -0.06873,0.05581 L 10.884209,6.21003 C 10.789647,6.1475242 10.582118,6.0321915 10.423262,5.9537192 l -0.288865,-0.142624 -0.01499,-0.2749134 c -0.0085,-0.151296 -0.02178,-0.3757758 -0.02946,-0.4986676 L 10.076004,4.8137596 9.9013406,4.7589837 C 9.5992146,4.6638134 9.0473047,4.562441 8.8879858,4.5667512 Z m 1.7161412,3.3516674 c 0.12238,0.00127 0.241695,0.02291 0.333306,0.065111 0.179558,0.082717 0.293387,0.1766731 0.389115,0.3209045 0.329846,0.4969738 0.09916,1.1691495 -0.461978,1.3461446 C 10.359075,9.810022 9.8574405,9.5282868 9.7246106,9.0098034 9.6799583,8.8355075 9.6936944,8.6552795 9.765951,8.4615271 9.83339,8.2806925 10.064929,8.0506368 10.253767,7.9768118 c 0.102812,-0.040194 0.227978,-0.059657 0.35036,-0.058393 z m -0.09043,0.3792974 c -0.29778,2.91e-4 -0.5676233,0.2425189 -0.5689462,0.5751475 -9.26e-4,0.2326926 0.1547342,0.4542431 0.3767142,0.5363907 0.119978,0.0444 0.321463,0.031203 0.438207,-0.028938 0.427969,-0.2204687 0.430879,-0.8105153 0.0052,-1.0226566 -0.0825,-0.041113 -0.167764,-0.060027 -0.251143,-0.059944 z M 6.4711266,8.4470579 c 0.2307026,0 0.2633925,0.00596 0.3849818,0.065628 0.1695813,0.083221 0.3379337,0.2510576 0.4211546,0.4206379 0.059669,0.1215903 0.065111,0.1542791 0.065111,0.3849818 0,0.2307027 -0.00544,0.2633926 -0.065111,0.3849819 C 7.194088,9.8727744 7.0259538,10.040816 6.8571421,10.123408 6.6844054,10.207921 6.3551988,10.226293 6.1734762,10.161132 5.922835,10.071259 5.729888,9.8807456 5.6329513,9.6278412 5.5607934,9.4395822 5.5760191,9.1162537 5.6660236,8.9322902 5.7486158,8.7634787 5.9166584,8.5958606 6.0861448,8.5126857 6.2077351,8.4530178 6.2404237,8.4470579 6.4711266,8.4470579 Z M 6.5465726,8.787599 C 6.4466966,8.790189 6.3444172,8.819828 6.2494389,8.882682 6.0616708,9.0069411 5.9520457,9.2594494 5.9977799,9.4629968 c 0.044398,0.1976017 0.1679886,0.3482107 0.3513928,0.4278725 0.107859,0.046848 0.3314482,0.043093 0.443375,-0.00775 C 6.9981749,9.7897072 7.1233108,9.5937191 7.1237871,9.3642957 7.124475,9.0193155 6.8462015,8.7798064 6.5465726,8.787599 Z m 6.3963824,1.0557286 c -0.02254,-0.01393 -0.385499,0.1495422 -0.385499,0.1736294 0,0.0083 0.01568,0.132328 0.03462,0.275947 0.01894,0.143619 0.02867,0.279315 0.0217,0.301268 -0.0124,0.03908 -0.08786,0.07874 -0.636124,0.333824 -0.289405,0.134652 -0.367194,0.143374 -0.403579,0.04599 -0.01047,-0.02802 -0.03223,-0.172243 -0.04857,-0.320388 -0.01775,-0.160806 -0.03989,-0.269331 -0.05478,-0.26923 -0.01371,9.4e-5 -0.179842,0.04958 -0.368963,0.110069 -0.290671,0.09297 -0.343241,0.117337 -0.341574,0.155027 0.0011,0.02452 0.0155,0.170787 0.03256,0.325555 0.02681,0.243187 0.02695,0.286155 -0.0016,0.314186 -0.03554,0.03495 -1.1285666,0.33279 -1.2210901,0.33279 -0.030729,0 -0.0687,-0.01487 -0.084231,-0.03359 -0.015496,-0.01871 -0.045625,-0.17345 -0.067144,-0.34364 -0.021518,-0.17019 -0.045578,-0.316357 -0.053742,-0.324522 -0.014123,-0.01412 -1.1876605,0.123647 -1.2061042,0.141591 -0.00484,0.0047 0.00782,0.141791 0.028421,0.304368 0.045823,0.361645 0.045934,0.3592 0.00156,0.403585 -0.030957,0.03096 -0.1222846,0.03566 -0.6505936,0.03566 -0.5561779,0 -0.6198113,-0.0038 -0.6655794,-0.04082 -0.043329,-0.03509 -0.055671,-0.08499 -0.088365,-0.349326 l -0.038238,-0.309026 -0.3782641,-0.0248 c -0.2078907,-0.01375 -0.3816743,-0.02198 -0.386532,-0.01809 -0.00486,0.0039 0.00751,0.13865 0.027905,0.2992 0.033075,0.260433 0.03337,0.29769 0.00259,0.344675 -0.021888,0.03341 -0.056865,0.05271 -0.096116,0.05271 -0.1174663,0 -0.934664,-0.16487 -0.9658136,-0.194816 -0.018447,-0.01774 -0.045394,-0.146842 -0.066142,-0.31522 L 4.848519,10.965202 4.6397502,10.925412 c -0.114797,-0.02178 -0.232076,-0.0453 -0.2604441,-0.05219 -0.049742,-0.01209 -0.051159,-0.0069 -0.051159,0.146758 0,0.557521 0.3638708,1.107175 0.9818328,1.482567 0.4769028,0.289702 1.1793866,0.509515 1.906306,0.596334 0.3191767,0.03812 1.1891069,0.04513 1.5161567,0.0124 1.4739534,-0.147519 2.7848104,-0.666687 3.5759384,-1.416423 0.452466,-0.428793 0.67961,-0.85806 0.702269,-1.328058 0.01116,-0.231522 -0.02311,-0.4959181 -0.0677,-0.5234723 z" />
  <path
     id="path8"
     style="fill:url(#linearGradient18);stroke-width:0.0229237"
     d="m 8.8879858,4.037595 c -0.022759,6.164e-4 -0.037513,0.00353 -0.042374,0.00878 C 8.8180568,4.076137 8.667119,4.4657633 8.5836176,4.7228061 L 8.5117888,4.943465 8.2363587,4.9558671 C 7.9941623,4.9670931 7.7140558,5.0101466 7.6038516,5.0525 7.5768152,5.06289 7.5411101,5.0252707 7.4679453,4.9103927 7.2938854,4.637096 7.0224521,4.2622253 6.9987326,4.262383 6.9089676,4.2629809 6.1445385,4.6311891 5.9150992,4.7843047 c -0.031587,0.021079 0.018724,0.3593414 0.1090351,0.7337909 0.02528,0.1048152 0.045991,0.2094646 0.045991,0.2320225 0,0.023132 -0.062334,0.089544 -0.143141,0.1524426 -0.0788,0.061337 -0.2543239,0.2228242 -0.3896326,0.3591441 L 5.291377,6.5097468 5.205079,6.4658226 C 5.1114183,6.4180858 4.7546074,6.2640045 4.5663708,6.1903928 L 4.4490677,6.1449184 4.2878404,6.3893431 C 4.1076573,6.6626888 3.8928571,7.0417478 3.8341302,7.1903118 l -0.038757,0.097667 0.1105853,0.1317723 c 0.060714,0.072367 0.2044253,0.2346147 0.3193541,0.3606943 l 0.2087687,0.229439 0.1214372,0.9854501 c 0.066712,0.5421446 0.1284247,1.0214975 0.1369399,1.0650305 0.015149,0.07745 0.019166,0.08001 0.1860315,0.11472 0.2087902,0.04343 0.2137849,0.05141 0.2526927,0.400485 l 0.028422,0.257343 0.2852483,0.05219 c 0.1566906,0.02864 0.2900184,0.04639 0.296617,0.03979 0.0066,-0.0066 -0.00361,-0.133604 -0.022738,-0.282147 -0.035937,-0.279058 -0.029201,-0.331757 0.048058,-0.37103 0.023497,-0.01194 0.2653388,-0.0053 0.5947841,0.01654 0.4380429,0.02903 0.5628122,0.04448 0.5911667,0.07286 0.02413,0.02415 0.048265,0.135138 0.073379,0.33744 l 0.037206,0.301268 0.1741464,0.0077 c 0.095638,0.0043 0.2945125,0.0093 0.4423413,0.01188 l 0.2687129,0.0046 -0.010334,-0.06304 c -0.062156,-0.36537 -0.070853,-0.607365 -0.023254,-0.646869 0.045255,-0.03756 1.5670332,-0.228376 1.6319096,-0.204635 0.062134,0.02273 0.066796,0.03806 0.1116189,0.387049 0.020211,0.157344 0.039471,0.289579 0.043407,0.293516 0.0067,0.0067 0.8180532,-0.20179 0.8345582,-0.214453 0.0042,-0.0032 -0.01038,-0.146985 -0.03204,-0.319354 -0.03828,-0.3047217 -0.0379,-0.314656 0.0041,-0.3539776 0.04358,-0.040761 1.026534,-0.367929 1.105336,-0.3679287 0.0819,0 0.112872,0.073245 0.148309,0.3513925 0.01899,0.1490578 0.03982,0.2759768 0.04599,0.2821488 0.0062,0.0062 0.128137,-0.04326 0.271296,-0.109552 0.143154,-0.066287 0.262272,-0.1210551 0.264574,-0.1219547 0.0023,-8.995e-4 -0.01116,-0.1194366 -0.02997,-0.2635446 -0.01881,-0.1441081 -0.02845,-0.2857658 -0.02119,-0.3147033 0.0085,-0.03368 0.05452,-0.073531 0.127638,-0.1105854 0.06283,-0.031836 0.113725,-0.070751 0.113169,-0.086298 -5.55e-4,-0.015547 -0.06094,-0.5026309 -0.134356,-1.0826 l -0.133839,-1.0546951 0.0863,-0.1488252 c 0.04728,-0.081952 0.14807,-0.273932 0.224271,-0.4263222 L 12.714551,6.1717903 12.560042,5.9904096 C 12.380735,5.780152 11.829335,5.2473173 11.791112,5.2473171 c -0.0222,0 -0.452793,0.3178803 -0.666096,0.4914332 l -0.06873,0.05581 -0.172077,-0.1136865 C 10.789647,5.618368 10.582118,5.5030353 10.423262,5.424563 L 10.134397,5.281939 10.119407,5.0070256 c -0.0085,-0.151296 -0.02178,-0.3757758 -0.02946,-0.4986676 L 10.076004,4.2846034 9.9013406,4.2298275 C 9.5992146,4.1346572 9.0473047,4.0332848 8.8879858,4.037595 Z m 1.7161412,3.3516674 c 0.12238,0.00127 0.241695,0.02291 0.333306,0.065111 0.179558,0.082717 0.293387,0.1766731 0.389115,0.3209045 0.329846,0.4969738 0.09916,1.1691495 -0.461978,1.3461446 C 10.359075,9.2808658 9.8574405,8.9991306 9.7246106,8.4806472 9.6799583,8.3063513 9.6936944,8.1261233 9.765951,7.9323709 9.83339,7.7515363 10.064929,7.5214806 10.253767,7.4476556 c 0.102812,-0.040194 0.227978,-0.059657 0.35036,-0.058393 z m -0.09043,0.3792974 c -0.29778,2.91e-4 -0.5676233,0.2425189 -0.5689462,0.5751475 -9.26e-4,0.2326926 0.1547342,0.4542431 0.3767142,0.5363907 0.119978,0.0444 0.321463,0.031203 0.438207,-0.028938 0.427969,-0.2204687 0.430879,-0.8105153 0.0052,-1.0226566 -0.0825,-0.041113 -0.167764,-0.060027 -0.251143,-0.059944 z M 6.4711266,7.9179017 c 0.2307026,0 0.2633925,0.00596 0.3849818,0.065628 0.1695813,0.083221 0.3379337,0.2510576 0.4211546,0.4206379 0.059669,0.1215903 0.065111,0.154279 0.065111,0.3849818 0,0.2307026 -0.00544,0.2633926 -0.065111,0.3849818 C 7.194088,9.3436182 7.0259538,9.5116602 6.8571421,9.5942522 6.6844054,9.6787646 6.3551988,9.6971363 6.1734762,9.6319753 5.922835,9.5421023 5.729888,9.3515894 5.6329513,9.098685 5.5607934,8.910426 5.5760191,8.5870975 5.6660236,8.403134 5.7486158,8.2343225 5.9166584,8.0667044 6.0861448,7.9835295 6.2077351,7.9238616 6.2404237,7.9179017 6.4711266,7.9179017 Z m 0.075446,0.3405411 c -0.099876,0.00259 -0.2021554,0.032229 -0.2971337,0.095083 -0.1877681,0.1242591 -0.2973932,0.3767674 -0.251659,0.5803148 0.044398,0.1976017 0.1679886,0.3482107 0.3513928,0.4278725 0.107859,0.046848 0.3314482,0.043093 0.443375,-0.00775 C 6.9981749,9.260551 7.1233108,9.0645629 7.1237871,8.8351395 7.124475,8.4901593 6.8462015,8.2506502 6.5465726,8.2584428 Z m 6.3963824,1.0557286 c -0.02254,-0.01393 -0.385499,0.1495422 -0.385499,0.1736294 0,0.00827 0.01568,0.132328 0.03462,0.2759468 0.01894,0.1436191 0.02867,0.2793154 0.0217,0.3012684 -0.0124,0.03908 -0.08786,0.07874 -0.636124,0.333824 -0.289405,0.134652 -0.367194,0.143374 -0.403579,0.04599 -0.01047,-0.02802 -0.03223,-0.172243 -0.04857,-0.320388 -0.01775,-0.1608059 -0.03989,-0.2693311 -0.05478,-0.2692301 -0.01371,9.34e-5 -0.179842,0.04958 -0.368963,0.1100688 -0.290671,0.092969 -0.343241,0.1173373 -0.341574,0.1550273 0.0011,0.02452 0.0155,0.170787 0.03256,0.325555 0.02681,0.243187 0.02695,0.286155 -0.0016,0.314186 -0.03554,0.03495 -1.1285666,0.33279 -1.2210901,0.33279 -0.030729,0 -0.0687,-0.01487 -0.084231,-0.03359 -0.015496,-0.01871 -0.045625,-0.17345 -0.067144,-0.34364 -0.021518,-0.17019 -0.045578,-0.316357 -0.053742,-0.324522 -0.014123,-0.01412 -1.1876605,0.123647 -1.2061042,0.141591 -0.00484,0.0047 0.00782,0.141791 0.028421,0.304368 0.045823,0.361645 0.045934,0.3592 0.00156,0.403585 -0.030957,0.03096 -0.1222846,0.03566 -0.6505936,0.03566 -0.5561779,0 -0.6198113,-0.0038 -0.6655794,-0.04082 -0.043329,-0.03509 -0.055671,-0.08499 -0.088365,-0.349326 l -0.038238,-0.309026 -0.3782641,-0.0248 c -0.2078907,-0.01375 -0.3816743,-0.02198 -0.386532,-0.01809 -0.00486,0.0039 0.00751,0.13865 0.027905,0.2992 0.033075,0.260433 0.03337,0.29769 0.00259,0.344675 -0.021888,0.03341 -0.056865,0.05271 -0.096116,0.05271 -0.1174663,0 -0.934664,-0.16487 -0.9658136,-0.194816 -0.018447,-0.01774 -0.045394,-0.146842 -0.066142,-0.31522 L 4.848519,10.436046 4.6397502,10.396256 c -0.114797,-0.02178 -0.232076,-0.0453 -0.2604441,-0.05219 -0.049742,-0.01209 -0.051159,-0.0069 -0.051159,0.146758 0,0.557521 0.3638708,1.107175 0.9818328,1.482567 0.4769028,0.289702 1.1793866,0.509515 1.906306,0.596334 0.3191767,0.03812 1.1891069,0.04513 1.5161567,0.0124 1.4739534,-0.147519 2.7848104,-0.666687 3.5759384,-1.416423 0.452466,-0.428793 0.67961,-0.85806 0.702269,-1.3280585 0.01116,-0.2315222 -0.02311,-0.4959178 -0.0677,-0.523472 z" />
  <rect
     style="opacity:0.5;fill:none;fill-opacity:0.996424;stroke:url(#linearGradient9);stroke-width:0.566102;stroke-dasharray:none;stroke-opacity:1"
     id="rect1-2-6"
     width="11.574203"
     height="11.508601"
     x="2.729686"
     y="2.6615164"
     rx="2.0246315"
     ry="2.0627522" />
</svg>
