<?xml version="1.0" encoding="UTF-8" standalone="no"?>
<svg
   width="64"
   height="64"
   version="1.1"
   viewBox="0 0 16.933 16.933"
   id="svg7"
   sodipodi:docname="Template 4.svg"
   inkscape:version="1.3.2 (091e20ef0f, 2023-11-25)"
   xmlns:inkscape="http://www.inkscape.org/namespaces/inkscape"
   xmlns:sodipodi="http://sodipodi.sourceforge.net/DTD/sodipodi-0.dtd"
   xmlns:xlink="http://www.w3.org/1999/xlink"
   xmlns="http://www.w3.org/2000/svg"
   xmlns:svg="http://www.w3.org/2000/svg"
   xmlns:rdf="http://www.w3.org/1999/02/22-rdf-syntax-ns#"
   xmlns:cc="http://creativecommons.org/ns#"
   xmlns:dc="http://purl.org/dc/elements/1.1/">
  <sodipodi:namedview
     id="namedview7"
     pagecolor="#9c4444"
     bordercolor="#000000"
     borderopacity="0.25"
     inkscape:showpageshadow="2"
     inkscape:pageopacity="0.0"
     inkscape:pagecheckerboard="0"
     inkscape:deskcolor="#d1d1d1"
     inkscape:zoom="4.3531261"
     inkscape:cx="32.964816"
     inkscape:cy="24.350317"
     inkscape:window-width="1463"
     inkscape:window-height="604"
     inkscape:window-x="191"
     inkscape:window-y="142"
     inkscape:window-maximized="0"
     inkscape:current-layer="svg7"
     showgrid="false" />
  <defs
     id="defs2">
    <linearGradient
       id="linearGradient5"
       inkscape:collect="always">
      <stop
         style="stop-color:#392713;stop-opacity:1;"
         offset="0"
         id="stop2" />
      <stop
         style="stop-color:#eed59e;stop-opacity:1;"
         offset="0.5"
         id="stop3" />
      <stop
         style="stop-color:#beaa8a;stop-opacity:1;"
         offset="1"
         id="stop4" />
    </linearGradient>
    <linearGradient
       id="linearGradient8"
       inkscape:collect="always">
      <stop
         style="stop-color:#1a1a1a;stop-opacity:1;"
         offset="0"
         id="stop8" />
      <stop
         style="stop-color:#ffffff;stop-opacity:0;"
         offset="1"
         id="stop9" />
    </linearGradient>
    <linearGradient
       inkscape:collect="always"
       xlink:href="#linearGradient5"
       id="linearGradient41"
       x1="13.675659"
       y1="16.110115"
       x2="13.728528"
       y2="10.548769"
       gradientUnits="userSpaceOnUse"
       gradientTransform="matrix(2.046153,0,0,2.046153,-18.798306,-18.911347)" />
    <linearGradient
       inkscape:collect="always"
       xlink:href="#linearGradient42"
       id="linearGradient4"
       x1="11.885941"
       y1="16.50819"
       x2="12.026573"
       y2="10.244942"
       gradientUnits="userSpaceOnUse"
       gradientTransform="matrix(2.046153,0,0,2.046153,-18.798306,-18.911347)" />
    <linearGradient
       id="linearGradient42"
       inkscape:collect="always">
      <stop
         style="stop-color:#010101;stop-opacity:1;"
         offset="0"
         id="stop42" />
      <stop
         style="stop-color:#6e6c6d;stop-opacity:1;"
         offset="1"
         id="stop43" />
    </linearGradient>
    <linearGradient
       inkscape:collect="always"
       xlink:href="#linearGradient8"
       id="linearGradient9"
       x1="9.3404646"
       y1="4.1692023"
       x2="9.4279938"
       y2="16.46883"
       gradientUnits="userSpaceOnUse"
       gradientTransform="matrix(1.05,0,0,1.05,-0.50277005,-0.1977751)" />
    <filter
       style="color-interpolation-filters:sRGB;"
       inkscape:label="Blur"
       id="filter2"
       x="-0.14510849"
       y="-0.14612901"
       width="1.290217"
       height="1.292258">
      <feGaussianBlur
         stdDeviation="0.6 0.6"
         result="blur"
         id="feGaussianBlur2" />
    </filter>
    <linearGradient
       inkscape:collect="always"
       xlink:href="#linearGradient5"
       id="linearGradient28"
       x1="34.019283"
       y1="49.404594"
       x2="33.863453"
       y2="13.777525"
       gradientUnits="userSpaceOnUse"
       gradientTransform="matrix(0.23573911,0,0,0.23573911,0.92387918,0.78391651)" />
  </defs>
  <metadata
     id="metadata2">
    <rdf:RDF>
      <cc:Work
         rdf:about="">
        <dc:format>image/svg+xml</dc:format>
        <dc:type
           rdf:resource="http://purl.org/dc/dcmitype/StillImage" />
      </cc:Work>
    </rdf:RDF>
  </metadata>
  <rect
     style="fill:#000000;fill-opacity:0.996424;stroke:#000000;stroke-width:0.911802;stroke-dasharray:none;stroke-opacity:1;filter:url(#filter2)"
     id="rect1-2-3"
     width="13.065404"
     height="12.974159"
     x="1.9816793"
     y="1.9267306"
     rx="2.7149384"
     ry="2.8310909" />
  <rect
     style="fill:url(#linearGradient4);fill-opacity:0.996424;stroke:url(#linearGradient41);stroke-width:0.911802;stroke-dasharray:none;stroke-opacity:1"
     id="rect1-2"
     width="13.065404"
     height="12.974159"
     x="1.9816793"
     y="1.9267306"
     rx="2.7149384"
     ry="2.8310909" />
  <path
     style="fill:#000000;stroke:none;stroke-width:0.282392;stroke-dasharray:none;stroke-opacity:0.3;opacity:0.3"
     d="M 5.0239619,12.955406 C 4.5607151,12.793935 4.2206523,12.451035 4.1068726,12.030671 4.027632,11.737911 4.0815506,11.326743 4.235064,11.05312 4.5306495,10.526269 5.2404922,10.22325 5.8019139,10.384265 l 0.1397431,0.04008 0.028674,-0.274338 C 6.0435748,9.4492505 6.5592692,8.8321956 7.2556014,8.6121128 7.3914306,8.5691827 7.5116446,8.5264534 7.5227443,8.5171583 7.5338452,8.5078656 7.3349897,8.2916127 7.0808455,8.0366004 L 6.6187648,7.5729421 7.0718895,7.133249 7.525014,6.6935563 V 6.0717097 5.4498632 H 8.1687294 8.8124452 L 9.2689537,5.0192159 9.725463,4.5885691 9.9386236,4.7687105 c 0.1172394,0.099077 0.3236044,0.292868 0.4585874,0.4306466 l 0.245429,0.2505061 h 0.641388 0.641388 v 0.6200589 0.6200585 l 0.474373,0.4411251 0.474377,0.4411257 -0.474377,0.4467714 -0.474373,0.4467712 v 0.6024416 0.6024415 h -0.609537 -0.609536 l -0.359105,0.3255398 -0.3591027,0.3255391 0.3084217,0.02829 c 0.396709,0.03638 0.701356,0.19012 0.970942,0.489962 0.462646,0.514575 0.456368,1.201879 -0.0157,1.71839 -0.13732,0.150253 -0.313293,0.284563 -0.459261,0.350532 l -0.236638,0.106949 -2.6492215,0.01046 c -2.4581457,0.0097 -2.6660639,0.0046 -2.8827209,-0.07093 z M 10.129641,9.3794298 C 10.747998,9.3020758 11.367653,8.753785 11.567326,8.1073179 11.901912,7.0240488 11.19545,5.9496256 10.020572,5.7549423 9.4379798,5.6584034 8.8395892,5.8469145 8.3954793,6.2668958 7.8249489,6.8064286 7.6531208,7.6623332 7.9841348,8.3158749 8.0749508,8.4951783 8.1137023,8.5258831 8.333251,8.592494 c 0.4478185,0.1358671 0.8612691,0.4096688 1.0171874,0.6736181 0.053158,0.08999 0.1200421,0.1355769 0.214763,0.1463799 0.1395167,0.015915 0.2023808,0.012233 0.5644396,-0.033062 z"
     id="path53290-9" />
  <path
     style="fill:url(#linearGradient28);stroke:none;stroke-width:0.282392;stroke-dasharray:none;stroke-opacity:0.3"
     d="M 5.0239619,12.42625 C 4.5607151,12.264779 4.2206523,11.921879 4.1068726,11.501515 4.027632,11.208755 4.0815506,10.797587 4.235064,10.523964 4.5306495,9.9971128 5.2404922,9.6940939 5.8019139,9.855109 L 5.941657,9.895186 5.970331,9.6208474 C 6.0435748,8.9200943 6.5592692,8.3030394 7.2556014,8.0829566 7.3914306,8.0400265 7.5116446,7.9972972 7.5227443,7.9880021 7.5338452,7.9787094 7.3349897,7.7624565 7.0808455,7.5074442 L 6.6187648,7.0437859 7.0718895,6.6040928 7.525014,6.1644001 V 5.5425535 4.920707 H 8.1687294 8.8124452 L 9.2689537,4.4900597 9.725463,4.0594129 9.9386236,4.2395543 c 0.1172394,0.099077 0.3236044,0.292868 0.4585874,0.4306466 L 10.64264,4.920707 h 0.641388 0.641388 v 0.6200589 0.6200585 l 0.474373,0.4411251 0.474377,0.4411257 -0.474377,0.4467714 -0.474373,0.4467712 v 0.6024416 0.6024415 h -0.609537 -0.609536 l -0.359105,0.3255398 -0.3591027,0.3255387 0.3084217,0.028285 c 0.396709,0.036385 0.701356,0.1901206 0.970942,0.4899626 0.462646,0.514575 0.456368,1.201879 -0.0157,1.71839 -0.13732,0.150253 -0.313293,0.284563 -0.459261,0.350532 l -0.236638,0.106949 -2.6492215,0.01046 c -2.4581457,0.0097 -2.6660639,0.0046 -2.8827209,-0.07093 z M 10.129641,8.8502736 C 10.747998,8.7729196 11.367653,8.2246288 11.567326,7.5781617 11.901912,6.4948926 11.19545,5.4204694 10.020572,5.2257861 9.4379798,5.1292472 8.8395892,5.3177583 8.3954793,5.7377396 7.8249489,6.2772724 7.6531208,7.133177 7.9841348,7.7867187 c 0.090816,0.1793034 0.1295675,0.2100082 0.3491162,0.2766191 0.4478185,0.1358671 0.8612691,0.4096688 1.0171874,0.6736181 0.053158,0.08999 0.1200421,0.1355769 0.214763,0.1463799 0.1395167,0.015915 0.2023808,0.012233 0.5644396,-0.033062 z"
     id="path53290" />
  <rect
     style="opacity:0.5;fill:none;fill-opacity:0.996424;stroke:url(#linearGradient9);stroke-width:0.566102;stroke-dasharray:none;stroke-opacity:1"
     id="rect1-2-6"
     width="11.574203"
     height="11.508601"
     x="2.729686"
     y="2.6615164"
     rx="2.0246315"
     ry="2.0627522" />
</svg>
