<?xml version="1.0" encoding="UTF-8" standalone="no"?>
<svg
   width="64"
   height="64"
   version="1.1"
   viewBox="0 0 16.933 16.933"
   id="svg7"
   sodipodi:docname="Template 4.svg"
   inkscape:version="1.3.2 (091e20ef0f, 2023-11-25)"
   xmlns:inkscape="http://www.inkscape.org/namespaces/inkscape"
   xmlns:sodipodi="http://sodipodi.sourceforge.net/DTD/sodipodi-0.dtd"
   xmlns:xlink="http://www.w3.org/1999/xlink"
   xmlns="http://www.w3.org/2000/svg"
   xmlns:svg="http://www.w3.org/2000/svg"
   xmlns:rdf="http://www.w3.org/1999/02/22-rdf-syntax-ns#"
   xmlns:cc="http://creativecommons.org/ns#"
   xmlns:dc="http://purl.org/dc/elements/1.1/">
  <sodipodi:namedview
     id="namedview7"
     pagecolor="#9c4444"
     bordercolor="#000000"
     borderopacity="0.25"
     inkscape:showpageshadow="2"
     inkscape:pageopacity="0.0"
     inkscape:pagecheckerboard="0"
     inkscape:deskcolor="#d1d1d1"
     inkscape:zoom="4.3531261"
     inkscape:cx="32.964816"
     inkscape:cy="24.350317"
     inkscape:window-width="1463"
     inkscape:window-height="604"
     inkscape:window-x="199"
     inkscape:window-y="276"
     inkscape:window-maximized="0"
     inkscape:current-layer="svg7"
     showgrid="false" />
  <defs
     id="defs2">
    <linearGradient
       id="linearGradient5"
       inkscape:collect="always">
      <stop
         style="stop-color:#392713;stop-opacity:1;"
         offset="0"
         id="stop2" />
      <stop
         style="stop-color:#eed59e;stop-opacity:1;"
         offset="0.5"
         id="stop3" />
      <stop
         style="stop-color:#beaa8a;stop-opacity:1;"
         offset="1"
         id="stop4" />
    </linearGradient>
    <linearGradient
       id="linearGradient8"
       inkscape:collect="always">
      <stop
         style="stop-color:#1a1a1a;stop-opacity:1;"
         offset="0"
         id="stop8" />
      <stop
         style="stop-color:#ffffff;stop-opacity:0;"
         offset="1"
         id="stop9" />
    </linearGradient>
    <linearGradient
       inkscape:collect="always"
       xlink:href="#linearGradient5"
       id="linearGradient41"
       x1="13.675659"
       y1="16.110115"
       x2="13.728528"
       y2="10.548769"
       gradientUnits="userSpaceOnUse"
       gradientTransform="matrix(2.046153,0,0,2.046153,-18.798306,-18.911347)" />
    <linearGradient
       inkscape:collect="always"
       xlink:href="#linearGradient42"
       id="linearGradient4"
       x1="11.885941"
       y1="16.50819"
       x2="12.026573"
       y2="10.244942"
       gradientUnits="userSpaceOnUse"
       gradientTransform="matrix(2.046153,0,0,2.046153,-18.798306,-18.911347)" />
    <linearGradient
       id="linearGradient42"
       inkscape:collect="always">
      <stop
         style="stop-color:#010101;stop-opacity:1;"
         offset="0"
         id="stop42" />
      <stop
         style="stop-color:#6e6c6d;stop-opacity:1;"
         offset="1"
         id="stop43" />
    </linearGradient>
    <linearGradient
       inkscape:collect="always"
       xlink:href="#linearGradient8"
       id="linearGradient9"
       x1="9.3404646"
       y1="4.1692023"
       x2="9.4279938"
       y2="16.46883"
       gradientUnits="userSpaceOnUse"
       gradientTransform="matrix(1.05,0,0,1.05,-0.50277005,-0.1977751)" />
    <filter
       style="color-interpolation-filters:sRGB;"
       inkscape:label="Blur"
       id="filter2"
       x="-0.14510849"
       y="-0.14612901"
       width="1.290217"
       height="1.292258">
      <feGaussianBlur
         stdDeviation="0.6 0.6"
         result="blur"
         id="feGaussianBlur2" />
    </filter>
    <linearGradient
       inkscape:collect="always"
       xlink:href="#linearGradient5"
       id="linearGradient12"
       x1="32.31583"
       y1="50.946877"
       x2="32.577534"
       y2="13.232242"
       gradientUnits="userSpaceOnUse"
       gradientTransform="matrix(0.23573911,0,0,0.23573911,0.94473071,0.85026756)" />
  </defs>
  <metadata
     id="metadata2">
    <rdf:RDF>
      <cc:Work
         rdf:about="">
        <dc:format>image/svg+xml</dc:format>
        <dc:type
           rdf:resource="http://purl.org/dc/dcmitype/StillImage" />
      </cc:Work>
    </rdf:RDF>
  </metadata>
  <rect
     style="fill:#000000;fill-opacity:0.996424;stroke:#000000;stroke-width:0.911802;stroke-dasharray:none;stroke-opacity:1;filter:url(#filter2)"
     id="rect1-2-3"
     width="13.065404"
     height="12.974159"
     x="1.9816793"
     y="1.9267306"
     rx="2.7149384"
     ry="2.8310909" />
  <rect
     style="fill:url(#linearGradient4);fill-opacity:0.996424;stroke:url(#linearGradient41);stroke-width:0.911802;stroke-dasharray:none;stroke-opacity:1"
     id="rect1-2"
     width="13.065404"
     height="12.974159"
     x="1.9816793"
     y="1.9267306"
     rx="2.7149384"
     ry="2.8310909" />
  <path
     style="fill:#000000;fill-opacity:1;stroke:none;stroke-width:0.282392;stroke-dasharray:none;stroke-opacity:0.3;opacity:0.3"
     d="M 8.2396791,13.059051 C 6.627859,11.244978 5.8549991,9.7176653 5.6804308,8.0015035 5.5273086,6.4961727 6.4035885,5.0586479 7.7481669,4.6094145 8.1573404,4.4727065 8.6652724,4.4414206 9.0878181,4.5268991 c 1.1002529,0.2225745 1.9720739,1.0909115 2.2936769,2.2845056 0.07494,0.2781825 0.08404,0.3717505 0.08398,0.8633978 -7.2e-5,0.4753533 -0.01223,0.6091196 -0.08819,0.9698741 -0.177651,0.8437466 -0.496241,1.6409684 -0.979342,2.4506634 -0.371566,0.622755 -0.8022397,1.180826 -1.7203779,2.229281 L 8.5773342,13.439073 Z M 9.0313866,8.4546321 C 9.5057884,8.2302041 9.777974,7.6180502 9.6573236,7.0468764 9.5707697,6.6371152 9.3653358,6.3580725 9.0279334,6.19197 8.8431212,6.1009875 8.7792945,6.0863145 8.5683152,6.0863145 c -0.2021177,0 -0.2772741,0.01579 -0.4293761,0.090207 C 7.9000326,6.293407 7.6534302,6.5619199 7.559668,6.8072605 7.4256348,7.1579745 7.4425747,7.6151175 7.601302,7.9307846 7.68088,8.0890482 7.9332936,8.3613734 8.0631828,8.4291029 c 0.3089556,0.1611037 0.661949,0.1704112 0.9682038,0.025529 z"
     id="path7-9" />
  <path
     style="fill:url(#linearGradient12);fill-opacity:1;stroke:none;stroke-width:0.282392;stroke-dasharray:none;stroke-opacity:0.3"
     d="M 8.2396791,12.529895 C 6.627859,10.715822 5.8549991,9.1885091 5.6804308,7.4723473 5.5273086,5.9670165 6.4035885,4.5294917 7.7481669,4.0802583 8.1573404,3.9435503 8.6652724,3.9122644 9.0878181,3.9977429 c 1.1002529,0.2225745 1.9720739,1.0909115 2.2936769,2.2845056 0.07494,0.2781825 0.08404,0.3717505 0.08398,0.8633978 -7.2e-5,0.4753533 -0.01223,0.6091196 -0.08819,0.9698741 -0.177651,0.8437466 -0.496241,1.6409684 -0.979342,2.4506636 -0.371566,0.622755 -0.8022397,1.180826 -1.7203779,2.229281 L 8.5773342,12.909917 Z M 9.0313866,7.9254759 C 9.5057884,7.7010479 9.777974,7.088894 9.6573236,6.5177202 9.5707697,6.107959 9.3653358,5.8289163 9.0279334,5.6628138 8.8431212,5.5718313 8.7792945,5.5571583 8.5683152,5.5571583 c -0.2021177,0 -0.2772741,0.01579 -0.4293761,0.090207 -0.2389065,0.1168855 -0.4855089,0.3853984 -0.5792711,0.630739 -0.1340332,0.350714 -0.1170933,0.807857 0.041634,1.1235241 0.079578,0.1582635 0.3319916,0.4305888 0.4618808,0.4983183 0.3089556,0.1611037 0.661949,0.1704111 0.9682038,0.025529 z"
     id="path7" />
  <rect
     style="opacity:0.5;fill:none;fill-opacity:0.996424;stroke:url(#linearGradient9);stroke-width:0.566102;stroke-dasharray:none;stroke-opacity:1"
     id="rect1-2-6"
     width="11.574203"
     height="11.508601"
     x="2.729686"
     y="2.6615164"
     rx="2.0246315"
     ry="2.0627522" />
</svg>
