<?xml version="1.0" encoding="UTF-8" standalone="no"?>
<svg
   width="64"
   height="64"
   version="1.1"
   viewBox="0 0 16.933 16.933"
   id="svg7"
   sodipodi:docname="preferences-system.svg"
   inkscape:version="1.3.2 (091e20ef0f, 2023-11-25)"
   xmlns:inkscape="http://www.inkscape.org/namespaces/inkscape"
   xmlns:sodipodi="http://sodipodi.sourceforge.net/DTD/sodipodi-0.dtd"
   xmlns:xlink="http://www.w3.org/1999/xlink"
   xmlns="http://www.w3.org/2000/svg"
   xmlns:svg="http://www.w3.org/2000/svg"
   xmlns:rdf="http://www.w3.org/1999/02/22-rdf-syntax-ns#"
   xmlns:cc="http://creativecommons.org/ns#"
   xmlns:dc="http://purl.org/dc/elements/1.1/">
  <sodipodi:namedview
     id="namedview7"
     pagecolor="#9c4444"
     bordercolor="#000000"
     borderopacity="0.25"
     inkscape:showpageshadow="2"
     inkscape:pageopacity="0.0"
     inkscape:pagecheckerboard="0"
     inkscape:deskcolor="#d1d1d1"
     inkscape:zoom="4.3531261"
     inkscape:cx="32.849956"
     inkscape:cy="24.465177"
     inkscape:window-width="1463"
     inkscape:window-height="604"
     inkscape:window-x="199"
     inkscape:window-y="276"
     inkscape:window-maximized="0"
     inkscape:current-layer="svg7"
     showgrid="false" />
  <defs
     id="defs2">
    <linearGradient
       id="linearGradient5"
       inkscape:collect="always">
      <stop
         style="stop-color:#392713;stop-opacity:1;"
         offset="0"
         id="stop2" />
      <stop
         style="stop-color:#eed59e;stop-opacity:1;"
         offset="0.5"
         id="stop3" />
      <stop
         style="stop-color:#beaa8a;stop-opacity:1;"
         offset="1"
         id="stop4" />
    </linearGradient>
    <linearGradient
       id="linearGradient8"
       inkscape:collect="always">
      <stop
         style="stop-color:#1a1a1a;stop-opacity:1;"
         offset="0"
         id="stop8" />
      <stop
         style="stop-color:#ffffff;stop-opacity:0;"
         offset="1"
         id="stop9" />
    </linearGradient>
    <linearGradient
       inkscape:collect="always"
       xlink:href="#linearGradient5"
       id="linearGradient41"
       x1="13.675659"
       y1="16.110115"
       x2="13.728528"
       y2="10.548769"
       gradientUnits="userSpaceOnUse"
       gradientTransform="matrix(2.046153,0,0,2.046153,-18.798306,-18.911347)" />
    <linearGradient
       inkscape:collect="always"
       xlink:href="#linearGradient42"
       id="linearGradient4"
       x1="11.885941"
       y1="16.50819"
       x2="12.026573"
       y2="10.244942"
       gradientUnits="userSpaceOnUse"
       gradientTransform="matrix(2.046153,0,0,2.046153,-18.798306,-18.911347)" />
    <linearGradient
       id="linearGradient42"
       inkscape:collect="always">
      <stop
         style="stop-color:#010101;stop-opacity:1;"
         offset="0"
         id="stop42" />
      <stop
         style="stop-color:#6e6c6d;stop-opacity:1;"
         offset="1"
         id="stop43" />
    </linearGradient>
    <linearGradient
       inkscape:collect="always"
       xlink:href="#linearGradient8"
       id="linearGradient9"
       x1="9.3404646"
       y1="4.1692023"
       x2="9.4279938"
       y2="16.46883"
       gradientUnits="userSpaceOnUse"
       gradientTransform="matrix(1.05,0,0,1.05,-0.50277005,-0.1977751)" />
    <filter
       style="color-interpolation-filters:sRGB;"
       inkscape:label="Blur"
       id="filter2"
       x="-0.14510849"
       y="-0.14612901"
       width="1.290217"
       height="1.292258">
      <feGaussianBlur
         stdDeviation="0.6 0.6"
         result="blur"
         id="feGaussianBlur2" />
    </filter>
    <linearGradient
       inkscape:collect="always"
       xlink:href="#linearGradient5"
       id="linearGradient29"
       x1="8.4661036"
       y1="12.966873"
       x2="8.5116663"
       y2="3.8986933"
       gradientUnits="userSpaceOnUse" />
  </defs>
  <metadata
     id="metadata2">
    <rdf:RDF>
      <cc:Work
         rdf:about="">
        <dc:format>image/svg+xml</dc:format>
        <dc:type
           rdf:resource="http://purl.org/dc/dcmitype/StillImage" />
      </cc:Work>
    </rdf:RDF>
  </metadata>
  <rect
     style="fill:#000000;fill-opacity:0.996424;stroke:#000000;stroke-width:0.911802;stroke-dasharray:none;stroke-opacity:1;filter:url(#filter2)"
     id="rect1-2-3"
     width="13.065404"
     height="12.974159"
     x="1.9816793"
     y="1.9267306"
     rx="2.7149384"
     ry="2.8310909" />
  <rect
     style="fill:url(#linearGradient4);fill-opacity:0.996424;stroke:url(#linearGradient41);stroke-width:0.911802;stroke-dasharray:none;stroke-opacity:1"
     id="rect1-2"
     width="13.065404"
     height="12.974159"
     x="1.9816793"
     y="1.9267306"
     rx="2.7149384"
     ry="2.8310909" />
  <path
     id="path2-4"
     style="opacity:0.3;fill:#000000;fill-opacity:1;stroke-width:0.0583115"
     d="M 7.9522573,4.4748098 6.1922715,5.3489788 C 5.0845277,5.898937 4.3989048,6.27228 4.3431469,6.3563489 4.1566633,6.6375172 4.2623089,6.713424 6.1330144,7.6463298 7.0946966,8.1259124 7.967634,8.5305786 8.0733036,8.5453157 c 0.5807398,0.080988 0.7566646,0.021081 2.5541314,-0.8691039 0.946101,-0.4685491 1.766161,-0.8929371 1.822283,-0.9430488 0.05612,-0.05011 0.101801,-0.1485583 0.101801,-0.2187951 0,-0.070236 -0.04568,-0.1686839 -0.101801,-0.2187954 -0.05613,-0.050111 -0.884148,-0.4801162 -1.84001,-0.9557102 L 8.8715016,4.4748098 H 8.4121326 Z M 10.927266,7.9380572 9.9948531,8.4050229 C 8.5230618,9.1420027 8.2726764,9.142354 6.7909199,8.4121139 L 5.8412871,7.9441349 5.0881652,8.3219623 C 4.6601353,8.5364481 4.3066082,8.751887 4.2697084,8.820836 4.1233656,9.0942797 4.3579913,9.2418607 6.8370089,10.43445 l 1.1370266,0.546988 0.4765891,-0.01773 0.4760824,-0.01773 1.722,-0.857452 C 12.514223,9.1593719 12.64939,9.0627609 12.468967,8.7874018 12.40886,8.6956654 12.101669,8.5091378 11.649999,8.2895413 Z M 5.8068472,10.377726 5.0420763,10.766694 c -1.2296056,0.625243 -1.2336516,0.617715 0.9395033,1.705793 0.9355548,0.468423 1.7664142,0.873377 1.8465923,0.899999 0.080177,0.02662 0.3557532,0.04027 0.6123234,0.03039 l 0.4664594,-0.01773 1.6617303,-0.831626 c 1.666178,-0.833986 1.92459,-0.990969 1.92459,-1.169947 0,-0.157024 -0.223667,-0.318698 -0.929881,-0.671074 L 10.895865,10.379752 9.86925,10.886222 8.842633,11.392693 H 8.3528756 7.8636248 L 6.8354893,10.885206 Z" />
  <path
     id="path2"
     style="fill:url(#linearGradient29);fill-opacity:1;stroke-width:0.0583115"
     d="M 7.9522573,3.9456536 6.1922715,4.8198226 C 5.0845277,5.3697808 4.3989048,5.7431238 4.3431469,5.8271927 4.1566633,6.108361 4.2623089,6.1842678 6.1330144,7.1171736 7.0946966,7.5967562 7.967634,8.0014224 8.0733036,8.0161595 c 0.5807398,0.080988 0.7566646,0.021081 2.5541314,-0.8691039 0.946101,-0.4685491 1.766161,-0.8929371 1.822283,-0.9430488 0.05612,-0.05011 0.101801,-0.1485583 0.101801,-0.2187951 0,-0.070236 -0.04568,-0.1686839 -0.101801,-0.2187954 -0.05613,-0.050111 -0.884148,-0.4801162 -1.84001,-0.9557102 L 8.8715016,3.9456536 H 8.4121326 Z M 10.927266,7.408901 9.9948531,7.8758667 C 8.5230618,8.6128465 8.2726764,8.6131978 6.7909199,7.8829577 L 5.8412871,7.4149787 5.0881652,7.7928061 C 4.6601353,8.0072919 4.3066082,8.2227308 4.2697084,8.2916798 4.1233656,8.5651235 4.3579913,8.7127045 6.8370089,9.9052938 l 1.1370266,0.5469882 0.4765891,-0.01773 0.4760824,-0.01773 1.722,-0.8574522 C 12.514223,8.6302157 12.64939,8.5336047 12.468967,8.2582456 12.40886,8.1665092 12.101669,7.9799816 11.649999,7.7603851 Z M 5.8068472,9.8485701 5.0420763,10.237538 c -1.2296056,0.625243 -1.2336516,0.617715 0.9395033,1.705793 0.9355548,0.468423 1.7664142,0.873377 1.8465923,0.899999 0.080177,0.02662 0.3557532,0.04027 0.6123234,0.03039 l 0.4664594,-0.01773 1.6617303,-0.831626 c 1.666178,-0.833986 1.92459,-0.990969 1.92459,-1.169947 0,-0.157024 -0.223667,-0.318698 -0.929881,-0.671074 L 10.895865,9.8505961 9.86925,10.357066 8.842633,10.863537 H 8.3528756 7.8636248 L 6.8354893,10.35605 Z" />
  <rect
     style="opacity:0.5;fill:none;fill-opacity:0.996424;stroke:url(#linearGradient9);stroke-width:0.566102;stroke-dasharray:none;stroke-opacity:1"
     id="rect1-2-6"
     width="11.574203"
     height="11.508601"
     x="2.729686"
     y="2.6615164"
     rx="2.0246315"
     ry="2.0627522" />
</svg>
