<?xml version="1.0" encoding="UTF-8" standalone="no"?>
<svg
   width="64"
   height="64"
   version="1.1"
   viewBox="0 0 16.933 16.933"
   id="svg7"
   sodipodi:docname="Template 4.svg"
   inkscape:version="1.3.2 (091e20ef0f, 2023-11-25)"
   xmlns:inkscape="http://www.inkscape.org/namespaces/inkscape"
   xmlns:sodipodi="http://sodipodi.sourceforge.net/DTD/sodipodi-0.dtd"
   xmlns:xlink="http://www.w3.org/1999/xlink"
   xmlns="http://www.w3.org/2000/svg"
   xmlns:svg="http://www.w3.org/2000/svg"
   xmlns:rdf="http://www.w3.org/1999/02/22-rdf-syntax-ns#"
   xmlns:cc="http://creativecommons.org/ns#"
   xmlns:dc="http://purl.org/dc/elements/1.1/">
  <sodipodi:namedview
     id="namedview7"
     pagecolor="#9c4444"
     bordercolor="#000000"
     borderopacity="0.25"
     inkscape:showpageshadow="2"
     inkscape:pageopacity="0.0"
     inkscape:pagecheckerboard="0"
     inkscape:deskcolor="#d1d1d1"
     inkscape:zoom="4.3531261"
     inkscape:cx="33.424256"
     inkscape:cy="25.039477"
     inkscape:window-width="1463"
     inkscape:window-height="604"
     inkscape:window-x="199"
     inkscape:window-y="276"
     inkscape:window-maximized="0"
     inkscape:current-layer="svg7"
     showgrid="false" />
  <defs
     id="defs2">
    <linearGradient
       id="linearGradient5"
       inkscape:collect="always">
      <stop
         style="stop-color:#392713;stop-opacity:1;"
         offset="0"
         id="stop2" />
      <stop
         style="stop-color:#eed59e;stop-opacity:1;"
         offset="0.5"
         id="stop3" />
      <stop
         style="stop-color:#beaa8a;stop-opacity:1;"
         offset="1"
         id="stop4" />
    </linearGradient>
    <linearGradient
       id="linearGradient8"
       inkscape:collect="always">
      <stop
         style="stop-color:#1a1a1a;stop-opacity:1;"
         offset="0"
         id="stop8" />
      <stop
         style="stop-color:#ffffff;stop-opacity:0;"
         offset="1"
         id="stop9" />
    </linearGradient>
    <linearGradient
       inkscape:collect="always"
       xlink:href="#linearGradient5"
       id="linearGradient41"
       x1="13.675659"
       y1="16.110115"
       x2="13.728528"
       y2="10.548769"
       gradientUnits="userSpaceOnUse"
       gradientTransform="matrix(2.046153,0,0,2.046153,-18.798306,-18.911347)" />
    <linearGradient
       inkscape:collect="always"
       xlink:href="#linearGradient42"
       id="linearGradient4"
       x1="11.885941"
       y1="16.50819"
       x2="12.026573"
       y2="10.244942"
       gradientUnits="userSpaceOnUse"
       gradientTransform="matrix(2.046153,0,0,2.046153,-18.798306,-18.911347)" />
    <linearGradient
       id="linearGradient42"
       inkscape:collect="always">
      <stop
         style="stop-color:#010101;stop-opacity:1;"
         offset="0"
         id="stop42" />
      <stop
         style="stop-color:#6e6c6d;stop-opacity:1;"
         offset="1"
         id="stop43" />
    </linearGradient>
    <linearGradient
       inkscape:collect="always"
       xlink:href="#linearGradient8"
       id="linearGradient9"
       x1="9.3404646"
       y1="4.1692023"
       x2="9.4279938"
       y2="16.46883"
       gradientUnits="userSpaceOnUse"
       gradientTransform="matrix(1.05,0,0,1.05,-0.50277005,-0.1977751)" />
    <filter
       style="color-interpolation-filters:sRGB;"
       inkscape:label="Blur"
       id="filter2"
       x="-0.14510849"
       y="-0.14612901"
       width="1.290217"
       height="1.292258">
      <feGaussianBlur
         stdDeviation="0.6 0.6"
         result="blur"
         id="feGaussianBlur2" />
    </filter>
    <linearGradient
       inkscape:collect="always"
       xlink:href="#linearGradient5"
       id="linearGradient34"
       x1="8.5112209"
       y1="13.022354"
       x2="8.5718527"
       y2="3.7128689"
       gradientUnits="userSpaceOnUse"
       gradientTransform="matrix(0.9,0,0,0.9,0.8465953,0.83898263)" />
  </defs>
  <metadata
     id="metadata2">
    <rdf:RDF>
      <cc:Work
         rdf:about="">
        <dc:format>image/svg+xml</dc:format>
        <dc:type
           rdf:resource="http://purl.org/dc/dcmitype/StillImage" />
      </cc:Work>
    </rdf:RDF>
  </metadata>
  <rect
     style="fill:#000000;fill-opacity:0.996424;stroke:#000000;stroke-width:0.911802;stroke-dasharray:none;stroke-opacity:1;filter:url(#filter2)"
     id="rect1-2-3"
     width="13.065404"
     height="12.974159"
     x="1.9816793"
     y="1.9267306"
     rx="2.7149384"
     ry="2.8310909" />
  <rect
     style="fill:url(#linearGradient4);fill-opacity:0.996424;stroke:url(#linearGradient41);stroke-width:0.911802;stroke-dasharray:none;stroke-opacity:1"
     id="rect1-2"
     width="13.065404"
     height="12.974159"
     x="1.9816793"
     y="1.9267306"
     rx="2.7149384"
     ry="2.8310909" />
  <path
     id="path5-4"
     style="fill:#000000;stroke-width:0.0206313;opacity:0.3"
     d="m 10.064661,4.6842058 c -0.01936,0 -0.1197848,0.067253 -0.1916129,0.1283618 -0.07768,0.066088 -0.09949,0.061046 -0.1227808,-0.028835 L 9.7335251,4.720482 9.6191157,4.8251247 C 9.4972129,4.9365369 9.457432,4.9377597 9.455408,4.8297777 9.4545269,4.7827824 9.439082,4.793676 9.3116986,4.9311648 L 9.169384,5.0851037 9.141014,5.0176677 9.112644,4.9502317 9.040091,5.0390617 C 8.8517585,5.2691364 8.7357387,5.5387199 8.7350005,5.7478413 c -3.572e-4,0.1047643 0.010174,0.1422566 0.066506,0.2348647 0.038543,0.063362 0.098437,0.1283078 0.1409189,0.1525458 l 0.073948,0.041857 0.1734742,-0.1260364 C 9.5851321,5.7644737 9.9899439,5.5456776 10.467419,5.3595007 10.893114,5.1935141 10.892014,5.2030189 10.457186,5.4441448 9.926952,5.7381778 9.4853366,6.0424922 9.2726306,6.260358 c -0.090339,0.092529 -0.091121,0.094265 -0.066972,0.1748697 0.05675,0.1894156 0.2929106,0.3655922 0.5878595,0.4381039 0.081186,0.019959 0.2164149,0.036838 0.3004409,0.037671 l 0.153011,0.0014 -0.0386,-0.042323 c -0.03293,-0.036391 -0.03416,-0.045546 -0.0084,-0.061855 0.01657,-0.01048 0.05908,-0.018895 0.09441,-0.019068 0.07366,-3.572e-4 0.27843,-0.037055 0.29393,-0.052554 0.0057,-0.00571 -0.0079,-0.023393 -0.02976,-0.039532 -0.05259,-0.038816 -0.02942,-0.058099 0.135803,-0.113014 0.07375,-0.024515 0.157198,-0.057746 0.185566,-0.073948 l 0.05162,-0.0293 -0.05162,-0.0014 c -0.05251,-0.00107 -0.119969,-0.032262 -0.102317,-0.047438 0.0053,-0.0046 0.06539,-0.037641 0.133477,-0.073482 0.06808,-0.035842 0.151525,-0.087949 0.185567,-0.1158047 l 0.06186,-0.050693 -0.06557,-9.27e-4 c -0.03621,-4.068e-4 -0.07106,-0.00867 -0.0772,-0.018607 -0.0061,-0.00994 0.05322,-0.065994 0.132083,-0.1246411 0.07887,-0.058648 0.149098,-0.1156551 0.155801,-0.1265015 0.0068,-0.011129 -0.01995,-0.019997 -0.06139,-0.019997 -0.04038,0 -0.07348,-0.00688 -0.07348,-0.015814 0,-0.00894 0.04705,-0.062751 0.104643,-0.1190601 0.05759,-0.056309 0.114103,-0.1195231 0.125571,-0.1404538 0.01793,-0.032721 0.01514,-0.035928 -0.02186,-0.024184 -0.05097,0.016177 -0.125571,-0.00369 -0.125571,-0.033485 0,-0.011559 0.05335,-0.073095 0.118594,-0.1367332 l 0.118598,-0.1158044 -0.08278,-0.011627 c -0.07369,-0.010238 -0.08141,-0.016729 -0.07534,-0.062786 0.0038,-0.028368 0.03373,-0.1004141 0.06697,-0.1599871 l 0.06046,-0.1083634 -0.159988,-0.00139 c -0.08804,-7.975e-4 -0.17706,-0.00815 -0.197658,-0.016277 -0.03547,-0.013984 -0.03524,-0.016451 0.0047,-0.052554 0.02317,-0.020966 0.03723,-0.046444 0.03116,-0.056274 -0.01722,-0.027865 -0.148031,-0.020893 -0.292535,0.015348 -0.0724,0.018158 -0.137396,0.026777 -0.144639,0.019534 -0.0072,-0.00725 -0.0029,-0.040339 0.0098,-0.073948 0.01269,-0.033609 0.01705,-0.061391 0.0093,-0.061391 -0.0077,0 -0.08134,0.018698 -0.163243,0.041392 -0.08189,0.022694 -0.153704,0.041392 -0.159522,0.041392 -0.02456,0 -0.0077,-0.072093 0.02558,-0.1097586 0.03522,-0.039812 0.03479,-0.040748 -0.02558,-0.026975 -0.03404,0.00777 -0.11728,0.041423 -0.185101,0.074413 -0.131432,0.06393 -0.166505,0.055206 -0.145105,-0.035811 0.006,-0.025531 0.0059,-0.046508 -4.76e-4,-0.046508 z m -3.4318164,0.0014 c -0.016889,8.288e-4 -0.012997,0.016049 0.00605,0.045112 0.053276,0.081311 0.013304,0.1086914 -0.1046426,0.071157 -0.05523,-0.017576 -0.1328291,-0.038375 -0.1725444,-0.046043 -0.059054,-0.011402 -0.067598,-0.009 -0.046507,0.013022 0.027832,0.029064 0.036097,0.121788 0.010696,0.1213856 -0.00851,-1.347e-4 -0.066882,-0.013944 -0.129292,-0.030695 -0.1169854,-0.0314 -0.2888139,-0.041683 -0.2888139,-0.017208 0,0.00761 0.015573,0.031268 0.034416,0.052088 0.018842,0.020821 0.027495,0.044578 0.019068,0.053019 -0.00842,0.00844 -0.098356,0.018824 -0.1995189,0.022789 l -0.183706,0.00697 0.041392,0.0586 c 0.040038,0.056228 0.1027824,0.2096981 0.1027823,0.2516076 1e-7,0.011129 -0.036861,0.016427 -0.082319,0.012091 -0.045389,-0.00433 -0.082784,1.935e-4 -0.082784,0.00977 0,0.00957 0.057546,0.072114 0.1278965,0.1390586 0.070351,0.066944 0.1207137,0.1285687 0.1120842,0.1371982 -0.00863,0.00863 -0.051239,0.015814 -0.094876,0.015814 h -0.07953 l 0.040462,0.05674 c 0.022188,0.031159 0.081692,0.090326 0.1320823,0.1316171 0.1008654,0.082652 0.1020386,0.1116189 0.00465,0.1116189 h -0.064181 l 0.049764,0.053484 c 0.027508,0.029399 0.094461,0.08592 0.14836,0.1255711 0.053899,0.03965 0.097667,0.080776 0.097667,0.091156 0,0.01038 -0.033308,0.019068 -0.074413,0.019068 -0.1015107,0 -0.073701,0.029641 0.1358028,0.1451046 0.091275,0.050304 0.1628765,0.1005969 0.159057,0.1120839 -0.00382,0.011487 -0.03433,0.026336 -0.067436,0.032556 l -0.059995,0.011161 0.061855,0.03209 c 0.034042,0.017769 0.1264281,0.053672 0.2050997,0.079528 l 0.1427793,0.046973 -0.047903,0.039067 c -0.02638,0.021362 -0.043447,0.043058 -0.038137,0.048368 0.016675,0.016675 0.224827,0.051159 0.3088123,0.051159 0.088016,0 0.1226275,0.040524 0.079063,0.093016 -0.022091,0.026617 -0.00801,0.03054 0.1060379,0.03023 C 7.3403705,6.9108412 7.6948419,6.7317512 7.819725,6.4687135 L 7.869024,6.3659305 7.7071765,6.2110593 C 7.6182155,6.1259553 7.4579931,5.9937928 7.3509262,5.9175947 7.1396589,5.7672375 6.6141484,5.4487791 6.4096068,5.3469431 6.2473679,5.2661682 6.2251033,5.2321368 6.3663546,5.2809019 6.9103731,5.4687171 7.5193734,5.7889107 7.9029747,6.0892088 l 0.1278966,0.100457 0.0879,-0.066972 C 8.3470008,5.9486178 8.3695058,5.6968046 8.1894633,5.3343859 8.088429,5.1310086 7.9115938,4.9097895 7.9099507,4.9846467 7.9077088,5.0872365 7.8654589,5.0737032 7.7220591,4.9246515 l -0.141849,-0.1474299 -4.763e-4,0.065576 c -3.484e-4,0.036209 -0.010342,0.07213 -0.022312,0.079529 -0.011972,0.0074 -0.074901,-0.036108 -0.1395238,-0.096736 C 7.3045008,4.7192003 7.3001434,4.7172107 7.293257,4.7669906 7.27876,4.8717902 7.252986,4.8728588 7.1211777,4.7758306 6.9823097,4.6736016 6.9590906,4.66553 6.974678,4.7251366 c 0.00589,0.022525 0.00558,0.055127 -9.27e-4,0.072087 C 6.964001,4.8226276 6.935316,4.8154406 6.8119034,4.7562966 6.7105989,4.7077448 6.6545621,4.6845365 6.632846,4.6856012 Z m 1.8621753,2.2751657 c -0.3116075,0.00529 -0.687243,0.1799492 -0.8413273,0.402293 -0.061389,0.088585 -0.070801,0.200063 -0.024184,0.2902092 0.071539,0.1383405 0.320434,0.2869738 0.5711169,0.3413678 0.1796396,0.03898 0.4822845,0.038612 0.673899,-9.286e-4 C 9.2837194,7.9092621 9.4966068,7.696654 9.4070393,7.4621228 9.3180278,7.2290507 8.9448385,7.0018947 8.5894308,6.9644886 c -0.030541,-0.00321 -0.062176,-0.00427 -0.094411,-0.00373 z M 7.1583835,7.1440074 C 7.0442153,7.1437217 6.9155558,7.1515535 6.8416649,7.1672623 6.4444707,7.2516945 6.1537844,7.5064125 6.0189407,7.8885994 5.9840718,7.9874298 5.9461658,8.3036031 5.9635963,8.3490274 6.0127179,8.4770356 6.5760355,8.0968054 7.07746,7.5974602 7.2846323,7.391147 7.4216631,7.2021883 7.3881324,7.1686576 7.3721998,7.1527321 7.2725525,7.1442929 7.1583835,7.1440084 Z m 2.6449027,0.019997 c -0.036756,5.238e-4 -0.074004,0.00252 -0.1116189,0.00605 -0.1291999,0.012106 -0.1525458,0.019985 -0.1525458,0.052088 0,0.1667254 0.8830155,0.9686943 1.2598975,1.1440939 0.06147,0.028607 0.121202,0.048737 0.132549,0.045113 0.03464,-0.011066 0.03533,-0.2747201 9e-4,-0.4115961 C 10.802501,7.4824771 10.354635,7.1563192 9.8032848,7.1640045 Z M 9.5419121,8.0885814 C 9.3198092,8.0874622 9.1056428,8.1696426 8.9438208,8.3467 8.8276761,8.4737825 8.7613191,8.6253322 8.7317449,8.8308469 c -0.046204,0.3210893 0.090669,0.702669 0.3436933,0.9594575 0.1446326,0.1467862 0.2714419,0.2273926 0.4636833,0.2948606 0.1099697,0.03859 0.1672455,0.04602 0.3195095,0.04046 0.214898,-0.0078 0.362072,-0.06345 0.501355,-0.189287 C 10.664819,9.6609402 10.729093,9.1636208 10.514392,8.7392266 10.304496,8.3243295 9.9120847,8.0904316 9.5419121,8.0885814 Z M 7.4862642,8.1434608 C 7.3360341,8.1439847 7.273895,8.1543834 7.160244,8.1983399 6.5267634,8.4433602 6.2006246,9.2014488 6.487275,9.7633299 c 0.098926,0.1939087 0.3229323,0.3631611 0.5413517,0.4092691 0.047465,0.01001 0.1458059,0.01348 0.2185869,0.0079 C 8.1479618,10.111516 8.6492193,8.9121502 8.0183142,8.3355374 7.8634394,8.1939925 7.7206393,8.1426504 7.4862642,8.1434601 Z m 3.5843618,0.5473983 c -0.01607,3.334e-4 -0.03077,0.00823 -0.05441,0.02372 -0.07735,0.050677 -0.11534,0.2060469 -0.11534,0.4697297 0,0.491047 0.133451,1.0203552 0.299511,1.1864152 0.07019,0.07019 0.119873,0.06089 0.204635,-0.03814 0.158323,-0.184965 0.237739,-0.4214044 0.238119,-0.7101753 C 11.643428,9.3931935 11.595311,9.221139 11.482224,9.0461791 11.396664,8.9138026 11.239224,8.7630169 11.13388,8.7122528 11.104,8.6978538 11.0867,8.6905318 11.07063,8.6908598 Z m -5.2056263,0.023255 c -0.02867,-0.00251 -0.06022,0.014801 -0.1339427,0.065576 -0.2901455,0.1998301 -0.4422899,0.4976136 -0.4422899,0.8659767 0,0.2953954 0.0816,0.5371451 0.2404458,0.7129651 0.040636,0.04498 0.089514,0.08185 0.1083634,0.08185 0.2046268,0 0.4121279,-0.6920928 0.390666,-1.3031503 -0.00906,-0.2581138 -0.046939,-0.3747446 -0.1339426,-0.4143849 -0.010373,-0.00472 -0.019742,-0.008 -0.0293,-0.00884 z m 2.652809,1.3147768 c -0.2596032,0.0043 -0.5221839,0.101996 -0.7269182,0.301837 -0.1458122,0.142327 -0.2506318,0.360701 -0.2669549,0.555768 -0.041075,0.490852 0.3464948,0.928236 0.8906256,1.005036 0.107584,0.01518 0.3255912,-0.0098 0.4539169,-0.05209 C 9.4242921,11.65649 9.6943364,11.072394 9.4507568,10.579543 9.2709111,10.215657 8.8972275,10.022598 8.5178087,10.028891 Z m 2.2695843,0.348344 c -0.170107,0.0047 -0.368832,0.13014 -0.631112,0.392062 -0.2124947,0.212203 -0.2492642,0.259966 -0.3348566,0.434383 -0.167678,0.341696 -0.2227823,0.676244 -0.140919,0.85621 0.044522,0.09787 0.079323,0.129417 0.1832412,0.166498 0.1864434,0.06653 0.4675164,0.01314 0.7152914,-0.135802 0.131632,-0.07913 0.378324,-0.32914 0.455312,-0.461824 0.09912,-0.170822 0.140336,-0.336643 0.141383,-0.569256 0.0014,-0.330185 -0.08619,-0.580487 -0.226493,-0.64739 -0.05169,-0.02465 -0.105144,-0.03645 -0.161847,-0.03488 z m -4.6238128,0.146966 c -0.057604,4.05e-4 -0.1093996,0.01168 -0.1525459,0.03395 -0.2287286,0.118077 -0.2468135,0.596719 -0.039066,1.03201 0.1260571,0.264131 0.4545343,0.535002 0.7427306,0.612509 0.1479777,0.0398 0.2974333,0.03807 0.4088042,-0.0047 0.1262233,-0.04839 0.1873903,-0.163591 0.1869616,-0.3525 -0.0011,-0.488634 -0.3372662,-0.993452 -0.8222595,-1.234766 -0.1163112,-0.05787 -0.2286192,-0.08718 -0.3246248,-0.08651 z m 2.3956205,1.702187 c -0.3786539,-9.9e-5 -0.6039109,0.04291 -0.8343512,0.159057 -0.2508611,0.12644 -0.2630134,0.216521 -0.055809,0.419502 0.1489939,0.145955 0.40191,0.281145 0.6115785,0.327415 0.3497202,0.07718 0.7612232,-0.05694 1.0524732,-0.342763 0.2124823,-0.208518 0.2055983,-0.31574 -0.02837,-0.429732 C 9.0909645,12.25572 8.9295334,12.226487 8.5592007,12.226388 Z" />
  <path
     id="path5"
     style="fill:url(#linearGradient34);stroke-width:0.0206313"
     d="m 10.064661,4.1550496 c -0.01936,0 -0.1197848,0.067253 -0.1916129,0.1283618 -0.07768,0.066088 -0.09949,0.061046 -0.1227808,-0.028835 L 9.7335251,4.1913258 9.6191157,4.2959685 C 9.4972129,4.4073807 9.457432,4.4086035 9.455408,4.3006215 9.4545269,4.2536262 9.439082,4.2645198 9.3116986,4.4020086 L 9.169384,4.5559475 9.141014,4.4885115 9.112644,4.4210755 9.040091,4.5099055 C 8.8517585,4.7399802 8.7357387,5.0095637 8.7350005,5.2186851 c -3.572e-4,0.1047643 0.010174,0.1422566 0.066506,0.2348647 0.038543,0.063362 0.098437,0.1283078 0.1409189,0.1525458 l 0.073948,0.041857 0.1734742,-0.1260364 C 9.5851321,5.2353175 9.9899439,5.0165214 10.467419,4.8303445 10.893114,4.6643579 10.892014,4.6738627 10.457186,4.9149886 9.926952,5.2090216 9.4853366,5.513336 9.2726306,5.7312018 c -0.090339,0.092529 -0.091121,0.094265 -0.066972,0.1748697 0.05675,0.1894156 0.2929106,0.3655922 0.5878595,0.4381039 0.081186,0.019959 0.2164149,0.036838 0.3004409,0.037671 l 0.153011,0.0014 -0.0386,-0.042323 c -0.03293,-0.036391 -0.03416,-0.045546 -0.0084,-0.061855 0.01657,-0.01048 0.05908,-0.018895 0.09441,-0.019068 0.07366,-3.572e-4 0.27843,-0.037055 0.29393,-0.052554 0.0057,-0.00571 -0.0079,-0.023393 -0.02976,-0.039532 -0.05259,-0.038816 -0.02942,-0.058099 0.135803,-0.113014 0.07375,-0.024515 0.157198,-0.057746 0.185566,-0.073948 l 0.05162,-0.0293 -0.05162,-0.0014 c -0.05251,-0.00107 -0.119969,-0.032262 -0.102317,-0.047438 0.0053,-0.0046 0.06539,-0.037641 0.133477,-0.073482 0.06808,-0.035842 0.151525,-0.087949 0.185567,-0.1158047 l 0.06186,-0.050693 -0.06557,-9.27e-4 c -0.03621,-4.068e-4 -0.07106,-0.00867 -0.0772,-0.018607 -0.0061,-0.00994 0.05322,-0.065994 0.132083,-0.1246411 0.07887,-0.058648 0.149098,-0.1156551 0.155801,-0.1265015 0.0068,-0.011129 -0.01995,-0.019997 -0.06139,-0.019997 -0.04038,0 -0.07348,-0.00688 -0.07348,-0.015814 0,-0.00894 0.04705,-0.062751 0.104643,-0.1190601 0.05759,-0.056309 0.114103,-0.1195231 0.125571,-0.1404538 0.01793,-0.032721 0.01514,-0.035928 -0.02186,-0.024184 -0.05097,0.016177 -0.125571,-0.00369 -0.125571,-0.033485 0,-0.011559 0.05335,-0.073095 0.118594,-0.1367332 l 0.118598,-0.1158044 -0.08278,-0.011627 c -0.07369,-0.010238 -0.08141,-0.016729 -0.07534,-0.062786 0.0038,-0.028368 0.03373,-0.1004141 0.06697,-0.1599871 l 0.06046,-0.1083634 -0.159988,-0.00139 c -0.08804,-7.975e-4 -0.17706,-0.00815 -0.197658,-0.016277 -0.03547,-0.013984 -0.03524,-0.016451 0.0047,-0.052554 0.02317,-0.020966 0.03723,-0.046444 0.03116,-0.056274 -0.01722,-0.027865 -0.148031,-0.020893 -0.292535,0.015348 -0.0724,0.018158 -0.137396,0.026777 -0.144639,0.019534 -0.0072,-0.00725 -0.0029,-0.040339 0.0098,-0.073948 0.01269,-0.033609 0.01705,-0.061391 0.0093,-0.061391 -0.0077,0 -0.08134,0.018698 -0.163243,0.041392 -0.08189,0.022694 -0.153704,0.041392 -0.159522,0.041392 -0.02456,0 -0.0077,-0.072093 0.02558,-0.1097586 0.03522,-0.039812 0.03479,-0.040748 -0.02558,-0.026975 -0.03404,0.00777 -0.11728,0.041423 -0.185101,0.074413 -0.131432,0.06393 -0.166505,0.055206 -0.145105,-0.035811 0.006,-0.025531 0.0059,-0.046508 -4.76e-4,-0.046508 z m -3.4318164,0.0014 c -0.016889,8.288e-4 -0.012997,0.016049 0.00605,0.045112 0.053276,0.081311 0.013304,0.1086914 -0.1046426,0.071157 -0.05523,-0.017576 -0.1328291,-0.038375 -0.1725444,-0.046043 -0.059054,-0.011402 -0.067598,-0.009 -0.046507,0.013022 0.027832,0.029064 0.036097,0.121788 0.010696,0.1213856 -0.00851,-1.347e-4 -0.066882,-0.013944 -0.129292,-0.030695 -0.1169854,-0.0314 -0.2888139,-0.041683 -0.2888139,-0.017208 0,0.00761 0.015573,0.031268 0.034416,0.052088 0.018842,0.020821 0.027495,0.044578 0.019068,0.053019 -0.00842,0.00844 -0.098356,0.018824 -0.1995189,0.022789 l -0.183706,0.00697 0.041392,0.0586 c 0.040038,0.056228 0.1027824,0.209698 0.1027823,0.2516076 1e-7,0.011129 -0.036861,0.016427 -0.082319,0.012091 -0.045389,-0.00433 -0.082784,1.935e-4 -0.082784,0.00977 0,0.00957 0.057546,0.072114 0.1278965,0.1390586 0.070351,0.066944 0.1207137,0.1285687 0.1120842,0.1371982 -0.00863,0.00863 -0.051239,0.015814 -0.094876,0.015814 h -0.07953 l 0.040462,0.05674 c 0.022188,0.031159 0.081692,0.090326 0.1320823,0.1316171 0.1008654,0.082652 0.1020386,0.1116189 0.00465,0.1116189 h -0.064181 l 0.049764,0.053484 c 0.027508,0.029399 0.094461,0.08592 0.14836,0.1255711 0.053899,0.03965 0.097667,0.080776 0.097667,0.091156 0,0.01038 -0.033308,0.019068 -0.074413,0.019068 -0.1015107,0 -0.073701,0.029641 0.1358028,0.1451046 0.091275,0.050304 0.1628765,0.1005969 0.159057,0.1120839 -0.00382,0.011487 -0.03433,0.026336 -0.067436,0.032556 l -0.059995,0.011161 0.061855,0.03209 c 0.034042,0.017769 0.1264281,0.053672 0.2050997,0.079528 l 0.1427793,0.046973 -0.047903,0.039067 c -0.02638,0.021362 -0.043447,0.043058 -0.038137,0.048368 0.016675,0.016675 0.224827,0.051159 0.3088123,0.051159 0.088016,0 0.1226275,0.040524 0.079063,0.093016 -0.022091,0.026617 -0.00801,0.03054 0.1060379,0.03023 C 7.3403705,6.381685 7.6948419,6.202595 7.819725,5.9395573 L 7.869024,5.8367743 7.7071765,5.6819031 C 7.6182155,5.5967991 7.4579931,5.4646366 7.3509262,5.3884385 7.1396589,5.2380813 6.6141484,4.9196229 6.4096068,4.8177869 6.2473679,4.737012 6.2251033,4.7029806 6.3663546,4.7517457 6.9103731,4.9395609 7.5193734,5.2597545 7.9029747,5.5600526 l 0.1278966,0.100457 0.0879,-0.066972 C 8.3470008,5.4194616 8.3695058,5.1676484 8.1894633,4.8052297 8.088429,4.6018524 7.9115938,4.3806333 7.9099507,4.4554905 7.9077088,4.5580803 7.8654589,4.544547 7.7220591,4.3954953 l -0.141849,-0.1474299 -4.763e-4,0.065576 c -3.484e-4,0.036209 -0.010342,0.07213 -0.022312,0.079529 -0.011972,0.0074 -0.074901,-0.036108 -0.1395238,-0.096736 C 7.3045008,4.1900441 7.3001434,4.1880545 7.293257,4.2378344 7.27876,4.342634 7.252986,4.3437026 7.1211777,4.2466744 6.9823097,4.1444454 6.9590906,4.1363738 6.974678,4.1959804 c 0.00589,0.022525 0.00558,0.055127 -9.27e-4,0.072087 C 6.964001,4.2934714 6.935316,4.2862844 6.8119034,4.2271404 6.7105989,4.1785886 6.6545621,4.1553803 6.632846,4.156445 Z m 1.8621753,2.2751657 c -0.3116075,0.00529 -0.687243,0.1799492 -0.8413273,0.402293 -0.061389,0.088585 -0.070801,0.200063 -0.024184,0.2902092 0.071539,0.1383405 0.320434,0.2869738 0.5711169,0.3413678 0.1796396,0.03898 0.4822845,0.038612 0.673899,-9.286e-4 C 9.2837194,7.3801059 9.4966068,7.1674978 9.4070393,6.9329666 9.3180278,6.6998945 8.9448385,6.4727385 8.5894308,6.4353324 c -0.030541,-0.00321 -0.062176,-0.00427 -0.094411,-0.00373 z M 7.1583835,6.6148512 C 7.0442153,6.6145655 6.9155558,6.6223973 6.8416649,6.6381061 6.4444707,6.7225383 6.1537844,6.9772563 6.0189407,7.3594432 5.9840718,7.4582736 5.9461658,7.7744469 5.9635963,7.8198712 6.0127179,7.9478794 6.5760355,7.5676492 7.07746,7.068304 7.2846323,6.8619908 7.4216631,6.6730321 7.3881324,6.6395014 7.3721998,6.6235759 7.2725525,6.6151367 7.1583835,6.6148522 Z m 2.6449027,0.019997 c -0.036756,5.238e-4 -0.074004,0.00252 -0.1116189,0.00605 -0.1291999,0.012106 -0.1525458,0.019985 -0.1525458,0.052088 0,0.1667254 0.8830155,0.9686943 1.2598975,1.1440938 0.06147,0.028607 0.121202,0.048737 0.132549,0.045113 0.03464,-0.011066 0.03533,-0.2747202 9e-4,-0.4115961 C 10.802501,6.9533209 10.354635,6.627163 9.8032848,6.6348483 Z M 9.5419121,7.5594252 C 9.3198092,7.558306 9.1056428,7.6404864 8.9438208,7.8175438 8.8276761,7.9446263 8.7613191,8.096176 8.7317449,8.3016907 8.6855409,8.62278 8.8224142,9.0043597 9.0754382,9.2611482 9.2200708,9.4079344 9.3468801,9.4885404 9.5391215,9.5560083 9.6490912,9.5945994 9.706367,9.6020298 9.858631,9.5964696 10.073529,9.5886216 10.220703,9.533016 10.359986,9.4071828 10.664819,9.131784 10.729093,8.6344646 10.514392,8.2100704 10.304496,7.7951733 9.9120847,7.5612754 9.5419121,7.5594252 Z M 7.4862642,7.6143046 C 7.3360341,7.6148285 7.273895,7.6252272 7.160244,7.6691837 6.5267634,7.914204 6.2006246,8.6722926 6.487275,9.2341737 6.5862008,9.4280824 6.8102073,9.5973348 7.0286267,9.643443 7.076092,9.6534536 7.1744326,9.656923 7.2472136,9.6513486 8.1479618,9.5823596 8.6492193,8.382994 8.0183142,7.8063812 7.8634394,7.6648363 7.7206393,7.6134942 7.4862642,7.6143039 Z m 3.5843618,0.5473983 c -0.01607,3.334e-4 -0.03077,0.00823 -0.05441,0.02372 -0.07735,0.050677 -0.11534,0.2060469 -0.11534,0.4697297 0,0.491047 0.133451,1.0203553 0.299511,1.1864153 0.07019,0.070191 0.119873,0.060885 0.204635,-0.038137 C 11.563345,9.6184655 11.642761,9.3820264 11.643141,9.0932555 11.643428,8.8640373 11.595311,8.6919828 11.482224,8.5170229 11.396664,8.3846464 11.239224,8.2338607 11.13388,8.1830966 11.104,8.1686976 11.0867,8.1613756 11.07063,8.1617036 Z M 5.8649997,8.184958 C 5.8363297,8.182448 5.8047797,8.199759 5.731057,8.250534 5.4409115,8.4503641 5.2887671,8.7481476 5.2887671,9.1165107 c 0,0.2953954 0.0816,0.5371451 0.2404458,0.7129655 0.040636,0.044982 0.089514,0.081854 0.1083634,0.081854 0.2046268,0 0.4121279,-0.6920932 0.390666,-1.3031507 -0.00906,-0.2581138 -0.046939,-0.3747446 -0.1339426,-0.4143849 -0.010373,-0.00472 -0.019742,-0.008 -0.0293,-0.00884 z m 2.652809,1.3147772 C 8.2582055,9.5040428 7.9956248,9.6017305 7.7908905,9.8015715 7.6450783,9.9438983 7.5402587,10.162273 7.5239356,10.35734 c -0.041075,0.490852 0.3464948,0.928236 0.8906256,1.005036 0.107584,0.01518 0.3255912,-0.0098 0.4539169,-0.05209 0.555814,-0.182952 0.8258583,-0.767048 0.5822787,-1.259899 C 9.2709111,9.6865006 8.8972275,9.4934419 8.5178087,9.4997352 Z m 2.2695843,0.3483437 c -0.170107,0.00468 -0.368832,0.13014 -0.631112,0.3920621 -0.2124947,0.212203 -0.2492642,0.259966 -0.3348566,0.434383 -0.167678,0.341696 -0.2227823,0.676244 -0.140919,0.85621 0.044522,0.09787 0.079323,0.129417 0.1832412,0.166498 0.1864434,0.06653 0.4675164,0.01314 0.7152914,-0.135802 0.131632,-0.07913 0.378324,-0.32914 0.455312,-0.461824 0.09912,-0.170822 0.140336,-0.336643 0.141383,-0.569256 0.0014,-0.330185 -0.08619,-0.5804874 -0.226493,-0.6473898 -0.05169,-0.024651 -0.105144,-0.03645 -0.161847,-0.034884 z M 6.1635802,9.9950444 c -0.057604,4.05e-4 -0.1093996,0.011682 -0.1525459,0.033948 -0.2287286,0.118077 -0.2468135,0.596719 -0.039066,1.03201 0.1260571,0.264131 0.4545343,0.535002 0.7427306,0.612509 0.1479777,0.0398 0.2974333,0.03807 0.4088042,-0.0047 0.1262233,-0.04839 0.1873903,-0.163591 0.1869616,-0.3525 C 7.3093664,10.827678 6.9731985,10.32286 6.4882052,10.081546 6.371894,10.023676 6.259586,9.9943631 6.1635804,9.9950381 Z m 2.3956205,1.7021876 c -0.3786539,-9.9e-5 -0.6039109,0.04291 -0.8343512,0.159057 -0.2508611,0.12644 -0.2630134,0.216521 -0.055809,0.419502 0.1489939,0.145955 0.40191,0.281145 0.6115785,0.327415 0.3497202,0.07718 0.7612232,-0.05694 1.0524732,-0.342763 0.2124823,-0.208518 0.2055983,-0.31574 -0.02837,-0.429732 -0.2137577,-0.104147 -0.3751888,-0.13338 -0.7455215,-0.133479 z" />
  <rect
     style="opacity:0.5;fill:none;fill-opacity:0.996424;stroke:url(#linearGradient9);stroke-width:0.566102;stroke-dasharray:none;stroke-opacity:1"
     id="rect1-2-6"
     width="11.574203"
     height="11.508601"
     x="2.729686"
     y="2.6615164"
     rx="2.0246315"
     ry="2.0627522" />
</svg>
