<?xml version="1.0" encoding="UTF-8" standalone="no"?>
<svg
   width="64"
   height="64"
   version="1.1"
   viewBox="0 0 16.933 16.933"
   id="svg7"
   sodipodi:docname="preferences-system.svg"
   inkscape:version="1.3.2 (091e20ef0f, 2023-11-25)"
   xmlns:inkscape="http://www.inkscape.org/namespaces/inkscape"
   xmlns:sodipodi="http://sodipodi.sourceforge.net/DTD/sodipodi-0.dtd"
   xmlns:xlink="http://www.w3.org/1999/xlink"
   xmlns="http://www.w3.org/2000/svg"
   xmlns:svg="http://www.w3.org/2000/svg"
   xmlns:rdf="http://www.w3.org/1999/02/22-rdf-syntax-ns#"
   xmlns:cc="http://creativecommons.org/ns#"
   xmlns:dc="http://purl.org/dc/elements/1.1/">
  <sodipodi:namedview
     id="namedview7"
     pagecolor="#9c4444"
     bordercolor="#000000"
     borderopacity="0.25"
     inkscape:showpageshadow="2"
     inkscape:pageopacity="0.0"
     inkscape:pagecheckerboard="0"
     inkscape:deskcolor="#d1d1d1"
     inkscape:zoom="4.3531261"
     inkscape:cx="32.849956"
     inkscape:cy="24.465177"
     inkscape:window-width="1463"
     inkscape:window-height="604"
     inkscape:window-x="199"
     inkscape:window-y="276"
     inkscape:window-maximized="0"
     inkscape:current-layer="svg7"
     showgrid="false" />
  <defs
     id="defs2">
    <linearGradient
       id="linearGradient5"
       inkscape:collect="always">
      <stop
         style="stop-color:#392713;stop-opacity:1;"
         offset="0"
         id="stop2" />
      <stop
         style="stop-color:#eed59e;stop-opacity:1;"
         offset="0.5"
         id="stop3" />
      <stop
         style="stop-color:#beaa8a;stop-opacity:1;"
         offset="1"
         id="stop4" />
    </linearGradient>
    <linearGradient
       id="linearGradient8"
       inkscape:collect="always">
      <stop
         style="stop-color:#1a1a1a;stop-opacity:1;"
         offset="0"
         id="stop8" />
      <stop
         style="stop-color:#ffffff;stop-opacity:0;"
         offset="1"
         id="stop9" />
    </linearGradient>
    <linearGradient
       inkscape:collect="always"
       xlink:href="#linearGradient5"
       id="linearGradient41"
       x1="13.675659"
       y1="16.110115"
       x2="13.728528"
       y2="10.548769"
       gradientUnits="userSpaceOnUse"
       gradientTransform="matrix(2.046153,0,0,2.046153,-18.798306,-18.911347)" />
    <linearGradient
       inkscape:collect="always"
       xlink:href="#linearGradient42"
       id="linearGradient4"
       x1="11.885941"
       y1="16.50819"
       x2="12.026573"
       y2="10.244942"
       gradientUnits="userSpaceOnUse"
       gradientTransform="matrix(2.046153,0,0,2.046153,-18.798306,-18.911347)" />
    <linearGradient
       id="linearGradient42"
       inkscape:collect="always">
      <stop
         style="stop-color:#010101;stop-opacity:1;"
         offset="0"
         id="stop42" />
      <stop
         style="stop-color:#6e6c6d;stop-opacity:1;"
         offset="1"
         id="stop43" />
    </linearGradient>
    <linearGradient
       inkscape:collect="always"
       xlink:href="#linearGradient8"
       id="linearGradient9"
       x1="9.3404646"
       y1="4.1692023"
       x2="9.4279938"
       y2="16.46883"
       gradientUnits="userSpaceOnUse"
       gradientTransform="matrix(1.05,0,0,1.05,-0.50277005,-0.1977751)" />
    <filter
       style="color-interpolation-filters:sRGB;"
       inkscape:label="Blur"
       id="filter2"
       x="-0.14510849"
       y="-0.14612901"
       width="1.290217"
       height="1.292258">
      <feGaussianBlur
         stdDeviation="0.6 0.6"
         result="blur"
         id="feGaussianBlur2" />
    </filter>
    <linearGradient
       inkscape:collect="always"
       xlink:href="#linearGradient5"
       id="linearGradient19"
       x1="8.6788273"
       y1="11.900512"
       x2="8.8277912"
       y2="4.9382129"
       gradientUnits="userSpaceOnUse" />
  </defs>
  <metadata
     id="metadata2">
    <rdf:RDF>
      <cc:Work
         rdf:about="">
        <dc:format>image/svg+xml</dc:format>
        <dc:type
           rdf:resource="http://purl.org/dc/dcmitype/StillImage" />
      </cc:Work>
    </rdf:RDF>
  </metadata>
  <rect
     style="fill:#000000;fill-opacity:0.996424;stroke:#000000;stroke-width:0.911802;stroke-dasharray:none;stroke-opacity:1;filter:url(#filter2)"
     id="rect1-2-3"
     width="13.065404"
     height="12.974159"
     x="1.9816793"
     y="1.9267306"
     rx="2.7149384"
     ry="2.8310909" />
  <rect
     style="fill:url(#linearGradient4);fill-opacity:0.996424;stroke:url(#linearGradient41);stroke-width:0.911802;stroke-dasharray:none;stroke-opacity:1"
     id="rect1-2"
     width="13.065404"
     height="12.974159"
     x="1.9816793"
     y="1.9267306"
     rx="2.7149384"
     ry="2.8310909" />
  <path
     style="opacity:0.3;fill:#000000;fill-opacity:1;stroke:none;stroke-width:0.270169;stroke-dasharray:none;stroke-opacity:0.3"
     d="m 4.7636123,12.526061 c -0.1567404,-0.04888 -0.3241446,-0.19734 -0.409712,-0.363349 -0.057255,-0.111084 -0.059317,-0.221345 -0.058664,-3.1341876 6.365e-4,-2.8724195 0.00347,-3.0250832 0.058153,-3.1431805 0.031604,-0.068269 0.09763,-0.161787 0.1467185,-0.2078168 0.1834618,-0.1720353 0.2388694,-0.1800779 1.2405784,-0.1800779 0.5907781,0 0.9622221,0.012476 1.0368078,0.034822 0.081057,0.024282 0.2039565,0.1231924 0.4061513,0.3268567 C 7.3803482,6.05726 7.532819,6.1807682 7.6578216,6.2432327 l 0.1842461,0.092069 2.2991373,4.75e-5 c 2.127561,4.51e-5 2.307079,0.0041 2.405542,0.054306 0.05853,0.02984 0.135326,0.09368 0.170673,0.1418661 0.06384,0.087018 0.06427,0.1057243 0.06427,2.7773234 0,2.1354963 -0.0084,2.7132973 -0.04055,2.8041693 -0.02231,0.06296 -0.0937,0.169204 -0.158635,0.236119 -0.230499,0.237511 0.02104,0.223758 -4.0498948,0.221432 -2.9811386,-0.0017 -3.657332,-0.0097 -3.7689809,-0.04451 z m 6.5553587,-0.748954 0.08181,-0.08181 -5.19e-4,-1.337883 L 11.399744,9.0195311 10.973729,8.561816 10.547714,8.1041004 H 9.6384024 8.7290928 l -0.076095,0.082111 -0.076095,0.08211 v 1.7045912 1.7045914 l 0.090707,0.09071 0.090707,0.0907 h 1.2394175 1.2394177 z"
     id="path10-0-5" />
  <path
     style="fill:url(#linearGradient19);fill-opacity:1;stroke:none;stroke-width:0.270169;stroke-dasharray:none;stroke-opacity:0.3"
     d="M 4.7636123,11.996905 C 4.6068719,11.948023 4.4394677,11.799565 4.3539003,11.633556 4.2966456,11.522472 4.2945829,11.412211 4.2952364,8.4993682 4.2958729,5.6269487 4.2987089,5.474285 4.3533896,5.3561877 4.3849936,5.2879182 4.4510198,5.1944007 4.5001081,5.1483709 4.6835699,4.9763356 4.7389775,4.968293 5.7406865,4.968293 c 0.5907781,0 0.9622221,0.012476 1.0368078,0.034822 0.081057,0.024282 0.2039565,0.1231924 0.4061513,0.3268567 0.1967029,0.1981321 0.3491737,0.3216403 0.4741763,0.3841048 l 0.1842461,0.092069 2.299137,4.75e-5 c 2.127561,4.51e-5 2.307079,0.0041 2.405542,0.054306 0.05853,0.02984 0.135326,0.09368 0.170673,0.1418661 0.06384,0.087018 0.06427,0.1057243 0.06427,2.7773234 0,2.1354965 -0.0084,2.7132975 -0.04055,2.8041695 -0.02231,0.06296 -0.0937,0.169204 -0.158635,0.236119 -0.230499,0.237511 0.02104,0.223758 -4.0498945,0.221432 -2.9811386,-0.0017 -3.657332,-0.0097 -3.7689809,-0.04451 z m 6.5553587,-0.748954 0.08181,-0.08181 -5.19e-4,-1.3378837 -5.18e-4,-1.3378825 -0.426015,-0.457715 -0.426015,-0.4577156 H 9.6384024 8.7290928 l -0.076095,0.082111 -0.076095,0.08211 v 1.7045912 1.7045916 l 0.090707,0.09071 0.090707,0.0907 h 1.2394175 1.2394177 z"
     id="path10-0" />
  <rect
     style="opacity:0.5;fill:none;fill-opacity:0.996424;stroke:url(#linearGradient9);stroke-width:0.566102;stroke-dasharray:none;stroke-opacity:1"
     id="rect1-2-6"
     width="11.574203"
     height="11.508601"
     x="2.729686"
     y="2.6615164"
     rx="2.0246315"
     ry="2.0627522" />
</svg>
