<?xml version="1.0" encoding="UTF-8" standalone="no"?>
<svg
   width="64"
   height="64"
   version="1.1"
   viewBox="0 0 16.933 16.933"
   id="svg7"
   sodipodi:docname="Template 4.svg"
   inkscape:version="1.3.2 (091e20ef0f, 2023-11-25)"
   xmlns:inkscape="http://www.inkscape.org/namespaces/inkscape"
   xmlns:sodipodi="http://sodipodi.sourceforge.net/DTD/sodipodi-0.dtd"
   xmlns:xlink="http://www.w3.org/1999/xlink"
   xmlns="http://www.w3.org/2000/svg"
   xmlns:svg="http://www.w3.org/2000/svg"
   xmlns:rdf="http://www.w3.org/1999/02/22-rdf-syntax-ns#"
   xmlns:cc="http://creativecommons.org/ns#"
   xmlns:dc="http://purl.org/dc/elements/1.1/">
  <sodipodi:namedview
     id="namedview7"
     pagecolor="#9c4444"
     bordercolor="#000000"
     borderopacity="0.25"
     inkscape:showpageshadow="2"
     inkscape:pageopacity="0.0"
     inkscape:pagecheckerboard="0"
     inkscape:deskcolor="#d1d1d1"
     inkscape:zoom="4.3531261"
     inkscape:cx="32.849956"
     inkscape:cy="24.465177"
     inkscape:window-width="1356"
     inkscape:window-height="973"
     inkscape:window-x="35"
     inkscape:window-y="32"
     inkscape:window-maximized="0"
     inkscape:current-layer="svg7"
     showgrid="false" />
  <defs
     id="defs2">
    <linearGradient
       id="linearGradient5"
       inkscape:collect="always">
      <stop
         style="stop-color:#392713;stop-opacity:1;"
         offset="0"
         id="stop2" />
      <stop
         style="stop-color:#eed59e;stop-opacity:1;"
         offset="0.5"
         id="stop3" />
      <stop
         style="stop-color:#beaa8a;stop-opacity:1;"
         offset="1"
         id="stop4" />
    </linearGradient>
    <linearGradient
       id="linearGradient8"
       inkscape:collect="always">
      <stop
         style="stop-color:#1a1a1a;stop-opacity:1;"
         offset="0"
         id="stop8" />
      <stop
         style="stop-color:#ffffff;stop-opacity:0;"
         offset="1"
         id="stop9" />
    </linearGradient>
    <linearGradient
       inkscape:collect="always"
       xlink:href="#linearGradient5"
       id="linearGradient41"
       x1="13.675659"
       y1="16.110115"
       x2="13.728528"
       y2="10.548769"
       gradientUnits="userSpaceOnUse"
       gradientTransform="matrix(2.046153,0,0,2.046153,-18.798306,-18.911347)" />
    <linearGradient
       inkscape:collect="always"
       xlink:href="#linearGradient42"
       id="linearGradient4"
       x1="11.885941"
       y1="16.50819"
       x2="12.026573"
       y2="10.244942"
       gradientUnits="userSpaceOnUse"
       gradientTransform="matrix(2.046153,0,0,2.046153,-18.798306,-18.911347)" />
    <linearGradient
       id="linearGradient42"
       inkscape:collect="always">
      <stop
         style="stop-color:#010101;stop-opacity:1;"
         offset="0"
         id="stop42" />
      <stop
         style="stop-color:#6e6c6d;stop-opacity:1;"
         offset="1"
         id="stop43" />
    </linearGradient>
    <linearGradient
       inkscape:collect="always"
       xlink:href="#linearGradient8"
       id="linearGradient9"
       x1="9.3404646"
       y1="4.1692023"
       x2="9.4279938"
       y2="16.46883"
       gradientUnits="userSpaceOnUse"
       gradientTransform="matrix(1.05,0,0,1.05,-0.50277005,-0.1977751)" />
    <filter
       style="color-interpolation-filters:sRGB;"
       inkscape:label="Blur"
       id="filter2"
       x="-0.14510849"
       y="-0.14612901"
       width="1.290217"
       height="1.292258">
      <feGaussianBlur
         stdDeviation="0.6 0.6"
         result="blur"
         id="feGaussianBlur2" />
    </filter>
    <linearGradient
       inkscape:collect="always"
       xlink:href="#linearGradient5"
       id="linearGradient22"
       x1="34.430916"
       y1="41.893017"
       x2="34.372765"
       y2="21.221706"
       gradientUnits="userSpaceOnUse"
       gradientTransform="matrix(0.23573911,0,0,0.23573911,0.93361249,0.90375351)" />
  </defs>
  <metadata
     id="metadata2">
    <rdf:RDF>
      <cc:Work
         rdf:about="">
        <dc:format>image/svg+xml</dc:format>
        <dc:type
           rdf:resource="http://purl.org/dc/dcmitype/StillImage" />
      </cc:Work>
    </rdf:RDF>
  </metadata>
  <rect
     style="fill:#000000;fill-opacity:0.996424;stroke:#000000;stroke-width:0.911802;stroke-dasharray:none;stroke-opacity:1;filter:url(#filter2)"
     id="rect1-2-3"
     width="13.065404"
     height="12.974159"
     x="1.9816793"
     y="1.9267306"
     rx="2.7149384"
     ry="2.8310909" />
  <rect
     style="fill:url(#linearGradient4);fill-opacity:0.996424;stroke:url(#linearGradient41);stroke-width:0.911802;stroke-dasharray:none;stroke-opacity:1"
     id="rect1-2"
     width="13.065404"
     height="12.974159"
     x="1.9816793"
     y="1.9267306"
     rx="2.7149384"
     ry="2.8310909" />
  <path
     id="path51393-5"
     style="fill:#000000;fill-opacity:1;stroke:none;stroke-width:0.25672;stroke-dasharray:none;stroke-opacity:0.3;opacity:0.3"
     d="m 10.663278,6.4443507 c -0.964486,-0.00163 -1.5459587,0.540833 -1.7804931,1.6606569 -0.1218821,0.5819541 -0.1204516,1.6150859 0.00301,2.0733144 0.1747179,0.648476 0.5468528,1.064892 1.0374091,1.161757 0.39921,0.07882 0.887501,-0.07405 1.134181,-0.354995 0.310219,-0.353322 0.459207,-0.974597 0.374045,-1.5588714 C 11.373848,9.0311231 11.242925,8.7604724 11.000723,8.5372197 10.794711,8.3473253 10.606823,8.2810286 10.278699,8.2820038 9.9751094,8.2828997 9.7624348,8.388168 9.5316034,8.6520418 L 9.3395652,8.8711562 V 8.6816247 c 0,-0.2840602 0.1073509,-0.789717 0.2181115,-1.0273809 0.1224605,-0.262769 0.319294,-0.463812 0.5575643,-0.5700986 0.216842,-0.096728 0.690564,-0.1367646 0.908045,-0.076715 l 0.15343,0.042117 V 6.7717693 c 0,-0.3277811 0.0013,-0.3265454 -0.513438,-0.3274186 z m -3.8237227,0.00401 c -0.034219,1.688e-4 -0.069325,0.00127 -0.1052953,0.00301 -0.3020801,0.014626 -0.3903,0.036334 -0.5991803,0.1484141 -0.1347055,0.07228 -0.317009,0.1929056 -0.4056376,0.2677511 l -0.1614526,0.1358845 0.1348779,0.210089 c 0.074131,0.1155217 0.1469596,0.2100891 0.1619547,0.2100891 0.014993,0 0.094728,-0.055534 0.1769959,-0.1233457 C 6.2770417,7.1063614 6.5124003,7.0169568 6.792423,7.0159556 7.2468264,7.0143275 7.468457,7.2662717 7.4668144,7.7826054 7.4649757,8.3712952 7.356549,8.5490877 5.9966918,10.199382 L 5.5434206,10.749926 V 11.0257 11.301472 H 6.870141 8.1968614 V 10.995114 10.689257 H 7.2136042 c -0.5685116,0 -0.9775878,-0.01577 -0.9697195,-0.0371 C 6.251361,10.631868 6.4965492,10.33586 6.7884116,9.9943139 7.8739812,8.7239421 8.0594847,8.3665234 8.0258819,7.6116257 8.0118743,7.2968892 7.9914708,7.2064849 7.8910038,7.0224735 7.6722296,6.6217802 7.35282,6.4458295 6.8395553,6.4483647 Z M 3.8421499,7.6697861 C 3.778417,7.6692439 3.7103946,7.7017618 3.643593,7.7685628 L 3.5433119,7.8688432 v 1.0168515 c 0,0.966908 0.00379,1.0218795 0.084236,1.1241523 0.1302091,0.165534 0.3251039,0.138764 0.427198,-0.058665 0.087053,-0.1683437 0.087053,-1.948091 0,-2.1164346 -0.056198,-0.108671 -0.1306524,-0.164275 -0.212596,-0.1649591 z m 9.3477121,0 c -0.06374,-5.422e-4 -0.131753,0.031974 -0.198557,0.098777 l -0.10028,0.1002814 v 1.0168512 c 0,0.9669114 0.0042,1.0218796 0.08473,1.1241523 0.13021,0.165535 0.325101,0.138764 0.427196,-0.058664 0.08705,-0.1683444 0.08705,-1.9480901 0,-2.1164344 -0.05619,-0.108676 -0.131143,-0.16428 -0.213089,-0.1649636 z m -3.005426,1.1417005 c 0.296611,0 0.472826,0.1019136 0.600683,0.346973 0.07196,0.1379407 0.08525,0.2361942 0.08525,0.6327743 0,0.4380121 -0.0076,0.4820901 -0.111813,0.6593491 -0.07756,0.131927 -0.165569,0.215855 -0.288309,0.275271 -0.201255,0.09742 -0.401559,0.107221 -0.5796249,0.02808 C 9.4396747,10.553517 9.201688,9.6729063 9.473441,9.2106092 9.6314017,8.9418923 9.863774,8.8114902 10.184436,8.8114902 Z" />
  <path
     id="path51393"
     style="fill:url(#linearGradient22);fill-opacity:1;stroke:none;stroke-width:0.25672;stroke-dasharray:none;stroke-opacity:0.3"
     d="m 10.663278,5.9151945 c -0.964486,-0.00163 -1.5459587,0.540833 -1.7804931,1.6606569 -0.1218821,0.5819541 -0.1204516,1.6150859 0.00301,2.073314 0.1747179,0.6484766 0.5468528,1.0648926 1.0374091,1.1617576 0.39921,0.07882 0.887501,-0.07405 1.134181,-0.354995 C 11.367604,10.102606 11.516592,9.4813311 11.43143,8.8970564 11.373848,8.5019669 11.242925,8.2313162 11.000723,8.0080635 10.794711,7.8181691 10.606823,7.7518724 10.278699,7.7528476 9.9751094,7.7537435 9.7624348,7.8590118 9.5316034,8.1228856 L 9.3395652,8.342 V 8.1524685 c 0,-0.2840602 0.1073509,-0.789717 0.2181115,-1.0273809 0.1224605,-0.262769 0.319294,-0.463812 0.5575643,-0.5700986 0.216842,-0.096728 0.690564,-0.1367646 0.908045,-0.076715 l 0.15343,0.042117 V 6.2426131 c 0,-0.3277811 0.0013,-0.3265454 -0.513438,-0.3274186 z m -3.8237227,0.00401 c -0.034219,1.688e-4 -0.069325,0.00127 -0.1052953,0.00301 -0.3020801,0.014626 -0.3903,0.036334 -0.5991803,0.1484141 -0.1347055,0.07228 -0.317009,0.1929056 -0.4056376,0.2677511 l -0.1614526,0.1358845 0.1348779,0.210089 c 0.074131,0.1155217 0.1469596,0.2100891 0.1619547,0.2100891 0.014993,0 0.094728,-0.055534 0.1769959,-0.1233457 C 6.2770417,6.5772052 6.5124003,6.4878006 6.792423,6.4867994 7.2468264,6.4851713 7.468457,6.7371155 7.4668144,7.2534492 7.4649757,7.842139 7.356549,8.0199315 5.9966918,9.6702261 L 5.5434206,10.22077 v 0.275774 0.275772 H 6.870141 8.1968614 V 10.465958 10.160101 H 7.2136042 c -0.5685116,0 -0.9775878,-0.01577 -0.9697195,-0.0371 C 6.251361,10.102712 6.4965492,9.806704 6.7884116,9.4651577 7.8739812,8.1947859 8.0594847,7.8373672 8.0258819,7.0824695 8.0118743,6.767733 7.9914708,6.6773287 7.8910038,6.4933173 7.6722296,6.092624 7.35282,5.9166733 6.8395553,5.9192085 Z M 3.8421499,7.1406299 C 3.778417,7.1400877 3.7103946,7.1726056 3.643593,7.2394066 L 3.5433119,7.339687 v 1.0168515 c 0,0.966908 0.00379,1.0218795 0.084236,1.1241523 0.1302091,0.1655343 0.3251039,0.1387637 0.427198,-0.058665 0.087053,-0.1683437 0.087053,-1.948091 0,-2.1164346 -0.056198,-0.108671 -0.1306524,-0.164275 -0.212596,-0.1649591 z m 9.3477121,0 c -0.06374,-5.422e-4 -0.131753,0.031974 -0.198557,0.098777 l -0.10028,0.1002814 v 1.0168512 c 0,0.9669114 0.0042,1.0218796 0.08473,1.1241524 0.13021,0.1655348 0.325101,0.1387636 0.427196,-0.058664 0.08705,-0.1683444 0.08705,-1.9480901 0,-2.1164344 -0.05619,-0.108676 -0.131143,-0.16428 -0.213089,-0.1649636 z m -3.005426,1.1417005 c 0.296611,0 0.472826,0.1019136 0.600683,0.346973 0.07196,0.1379407 0.08525,0.2361942 0.08525,0.6327743 0,0.4380116 -0.0076,0.4820902 -0.111813,0.6593494 -0.07756,0.1319269 -0.165569,0.2158549 -0.288309,0.2752709 -0.201255,0.09742 -0.401559,0.107221 -0.5796249,0.02808 C 9.4396747,10.024361 9.201688,9.1437501 9.473441,8.681453 9.6314017,8.4127361 9.863774,8.282334 10.184436,8.282334 Z" />
  <rect
     style="opacity:0.5;fill:none;fill-opacity:0.996424;stroke:url(#linearGradient9);stroke-width:0.566102;stroke-dasharray:none;stroke-opacity:1"
     id="rect1-2-6"
     width="11.574203"
     height="11.508601"
     x="2.729686"
     y="2.6615164"
     rx="2.0246315"
     ry="2.0627522" />
</svg>
