<?xml version="1.0" encoding="UTF-8" standalone="no"?>
<svg
   width="64"
   height="64"
   version="1.1"
   viewBox="0 0 16.933 16.933"
   id="svg7"
   sodipodi:docname="Template 4.svg"
   inkscape:version="1.3.2 (091e20ef0f, 2023-11-25)"
   xmlns:inkscape="http://www.inkscape.org/namespaces/inkscape"
   xmlns:sodipodi="http://sodipodi.sourceforge.net/DTD/sodipodi-0.dtd"
   xmlns:xlink="http://www.w3.org/1999/xlink"
   xmlns="http://www.w3.org/2000/svg"
   xmlns:svg="http://www.w3.org/2000/svg"
   xmlns:rdf="http://www.w3.org/1999/02/22-rdf-syntax-ns#"
   xmlns:cc="http://creativecommons.org/ns#"
   xmlns:dc="http://purl.org/dc/elements/1.1/">
  <sodipodi:namedview
     id="namedview7"
     pagecolor="#9c4444"
     bordercolor="#000000"
     borderopacity="0.25"
     inkscape:showpageshadow="2"
     inkscape:pageopacity="0.0"
     inkscape:pagecheckerboard="0"
     inkscape:deskcolor="#d1d1d1"
     inkscape:zoom="4.3531261"
     inkscape:cx="32.849956"
     inkscape:cy="24.465177"
     inkscape:window-width="1356"
     inkscape:window-height="973"
     inkscape:window-x="35"
     inkscape:window-y="32"
     inkscape:window-maximized="0"
     inkscape:current-layer="svg7"
     showgrid="false" />
  <defs
     id="defs2">
    <linearGradient
       id="linearGradient5"
       inkscape:collect="always">
      <stop
         style="stop-color:#392713;stop-opacity:1;"
         offset="0"
         id="stop2" />
      <stop
         style="stop-color:#eed59e;stop-opacity:1;"
         offset="0.5"
         id="stop3" />
      <stop
         style="stop-color:#beaa8a;stop-opacity:1;"
         offset="1"
         id="stop4" />
    </linearGradient>
    <linearGradient
       id="linearGradient8"
       inkscape:collect="always">
      <stop
         style="stop-color:#1a1a1a;stop-opacity:1;"
         offset="0"
         id="stop8" />
      <stop
         style="stop-color:#ffffff;stop-opacity:0;"
         offset="1"
         id="stop9" />
    </linearGradient>
    <linearGradient
       inkscape:collect="always"
       xlink:href="#linearGradient5"
       id="linearGradient41"
       x1="13.675659"
       y1="16.110115"
       x2="13.728528"
       y2="10.548769"
       gradientUnits="userSpaceOnUse"
       gradientTransform="matrix(2.046153,0,0,2.046153,-18.798306,-18.911347)" />
    <linearGradient
       inkscape:collect="always"
       xlink:href="#linearGradient42"
       id="linearGradient4"
       x1="11.885941"
       y1="16.50819"
       x2="12.026573"
       y2="10.244942"
       gradientUnits="userSpaceOnUse"
       gradientTransform="matrix(2.046153,0,0,2.046153,-18.798306,-18.911347)" />
    <linearGradient
       id="linearGradient42"
       inkscape:collect="always">
      <stop
         style="stop-color:#010101;stop-opacity:1;"
         offset="0"
         id="stop42" />
      <stop
         style="stop-color:#6e6c6d;stop-opacity:1;"
         offset="1"
         id="stop43" />
    </linearGradient>
    <linearGradient
       inkscape:collect="always"
       xlink:href="#linearGradient8"
       id="linearGradient9"
       x1="9.3404646"
       y1="4.1692023"
       x2="9.4279938"
       y2="16.46883"
       gradientUnits="userSpaceOnUse"
       gradientTransform="matrix(1.05,0,0,1.05,-0.50277005,-0.1977751)" />
    <filter
       style="color-interpolation-filters:sRGB;"
       inkscape:label="Blur"
       id="filter2"
       x="-0.14510849"
       y="-0.14612901"
       width="1.290217"
       height="1.292258">
      <feGaussianBlur
         stdDeviation="0.6 0.6"
         result="blur"
         id="feGaussianBlur2" />
    </filter>
    <linearGradient
       inkscape:collect="always"
       xlink:href="#linearGradient5"
       id="linearGradient84"
       x1="33.886631"
       y1="49.497787"
       x2="33.420799"
       y2="14.783957"
       gradientUnits="userSpaceOnUse"
       gradientTransform="matrix(0.23573911,0,0,0.23573911,0.94400138,0.77262947)" />
  </defs>
  <metadata
     id="metadata2">
    <rdf:RDF>
      <cc:Work
         rdf:about="">
        <dc:format>image/svg+xml</dc:format>
        <dc:type
           rdf:resource="http://purl.org/dc/dcmitype/StillImage" />
      </cc:Work>
    </rdf:RDF>
  </metadata>
  <rect
     style="fill:#000000;fill-opacity:0.996424;stroke:#000000;stroke-width:0.911802;stroke-dasharray:none;stroke-opacity:1;filter:url(#filter2)"
     id="rect1-2-3"
     width="13.065404"
     height="12.974159"
     x="1.9816793"
     y="1.9267306"
     rx="2.7149384"
     ry="2.8310909" />
  <rect
     style="fill:url(#linearGradient4);fill-opacity:0.996424;stroke:url(#linearGradient41);stroke-width:0.911802;stroke-dasharray:none;stroke-opacity:1"
     id="rect1-2"
     width="13.065404"
     height="12.974159"
     x="1.9816793"
     y="1.9267306"
     rx="2.7149384"
     ry="2.8310909" />
  <path
     id="path43-3"
     style="fill:#000000;fill-opacity:1;stroke-width:0.0421221;stroke-opacity:0.3;opacity:0.3"
     d="m 9.0259005,4.7400559 v 1.8805258 1.8805258 h 1.8324115 c 1.781288,0 1.832412,-0.00259 1.832412,-0.081542 0,-0.2401375 -0.105637,-0.786321 -0.216265,-1.1192999 C 12.149543,6.3222944 11.467534,5.5383642 10.563546,5.1042083 10.110587,4.8866668 9.7917761,4.7972531 9.3525737,4.7643666 Z M 8.1836381,5.1204154 7.8833012,5.149791 C 6.5439203,5.28177 5.4066017,6.0766722 4.8135802,7.2946947 4.5348913,7.867102 4.4301813,8.323187 4.4301813,8.9645287 c 0,0.9437011 0.3018352,1.7810583 0.8969607,2.4898093 l 0.1818235,0.216769 1.3365769,-1.363925 1.3365768,-1.3639251 9.63e-4,-1.9114204 z m 0.2734956,4.1388788 -1.3477198,1.3502508 -1.3477196,1.350756 0.1894202,0.167643 c 0.4331211,0.382942 1.1062902,0.723616 1.6976908,0.858975 0.3969261,0.09084 1.3903836,0.05688 1.7964527,-0.06128 1.191991,-0.346841 2.161214,-1.281046 2.579457,-2.486772 0.07207,-0.207783 0.202069,-0.9168573 0.202588,-1.106131 2.31e-4,-0.069107 -0.117645,-0.073438 -1.885085,-0.073438 z" />
  <path
     id="path43"
     style="fill:url(#linearGradient84);fill-opacity:1;stroke-width:0.0421221;stroke-opacity:0.3"
     d="m 9.0259005,4.2108997 v 1.8805258 1.8805258 h 1.8324115 c 1.781288,0 1.832412,-0.00259 1.832412,-0.081542 0,-0.2401375 -0.105637,-0.786321 -0.216265,-1.1192999 C 12.149543,5.7931382 11.467534,5.009208 10.563546,4.5750521 10.110587,4.3575106 9.7917761,4.2680969 9.3525737,4.2352104 Z M 8.1836381,4.5912592 7.8833012,4.6206348 C 6.5439203,4.7526138 5.4066017,5.547516 4.8135802,6.7655385 4.5348913,7.3379458 4.4301813,7.7940308 4.4301813,8.4353725 c 0,0.9437011 0.3018352,1.7810585 0.8969607,2.4898095 l 0.1818235,0.216769 1.3365769,-1.363925 1.3365768,-1.3639253 9.63e-4,-1.9114204 z m 0.2734956,4.1388788 -1.3477198,1.350251 -1.3477196,1.350756 0.1894202,0.167643 c 0.4331211,0.382942 1.1062902,0.723616 1.6976908,0.858975 0.3969261,0.09084 1.3903836,0.05688 1.7964527,-0.06128 1.191991,-0.346841 2.161214,-1.281046 2.579457,-2.4867722 0.07207,-0.2077833 0.202069,-0.9168573 0.202588,-1.106131 2.31e-4,-0.069107 -0.117645,-0.073438 -1.885085,-0.073438 z" />
  <rect
     style="opacity:0.5;fill:none;fill-opacity:0.996424;stroke:url(#linearGradient9);stroke-width:0.566102;stroke-dasharray:none;stroke-opacity:1"
     id="rect1-2-6"
     width="11.574203"
     height="11.508601"
     x="2.729686"
     y="2.6615164"
     rx="2.0246315"
     ry="2.0627522" />
</svg>
