<?xml version="1.0" encoding="UTF-8" standalone="no"?>
<svg
   width="64"
   height="64"
   version="1.1"
   viewBox="0 0 16.933 16.933"
   id="svg7"
   sodipodi:docname="Template 4.svg"
   inkscape:version="1.3.2 (091e20ef0f, 2023-11-25)"
   xmlns:inkscape="http://www.inkscape.org/namespaces/inkscape"
   xmlns:sodipodi="http://sodipodi.sourceforge.net/DTD/sodipodi-0.dtd"
   xmlns:xlink="http://www.w3.org/1999/xlink"
   xmlns="http://www.w3.org/2000/svg"
   xmlns:svg="http://www.w3.org/2000/svg"
   xmlns:rdf="http://www.w3.org/1999/02/22-rdf-syntax-ns#"
   xmlns:cc="http://creativecommons.org/ns#"
   xmlns:dc="http://purl.org/dc/elements/1.1/">
  <sodipodi:namedview
     id="namedview7"
     pagecolor="#9c4444"
     bordercolor="#000000"
     borderopacity="0.25"
     inkscape:showpageshadow="2"
     inkscape:pageopacity="0.0"
     inkscape:pagecheckerboard="0"
     inkscape:deskcolor="#d1d1d1"
     inkscape:zoom="4.3531261"
     inkscape:cx="32.964816"
     inkscape:cy="24.350317"
     inkscape:window-width="1463"
     inkscape:window-height="604"
     inkscape:window-x="199"
     inkscape:window-y="276"
     inkscape:window-maximized="0"
     inkscape:current-layer="svg7"
     showgrid="false" />
  <defs
     id="defs2">
    <linearGradient
       id="linearGradient5"
       inkscape:collect="always">
      <stop
         style="stop-color:#392713;stop-opacity:1;"
         offset="0"
         id="stop2" />
      <stop
         style="stop-color:#eed59e;stop-opacity:1;"
         offset="0.5"
         id="stop3" />
      <stop
         style="stop-color:#beaa8a;stop-opacity:1;"
         offset="1"
         id="stop4" />
    </linearGradient>
    <linearGradient
       id="linearGradient8"
       inkscape:collect="always">
      <stop
         style="stop-color:#1a1a1a;stop-opacity:1;"
         offset="0"
         id="stop8" />
      <stop
         style="stop-color:#ffffff;stop-opacity:0;"
         offset="1"
         id="stop9" />
    </linearGradient>
    <linearGradient
       inkscape:collect="always"
       xlink:href="#linearGradient5"
       id="linearGradient41"
       x1="13.675659"
       y1="16.110115"
       x2="13.728528"
       y2="10.548769"
       gradientUnits="userSpaceOnUse"
       gradientTransform="matrix(2.046153,0,0,2.046153,-18.798306,-18.911347)" />
    <linearGradient
       inkscape:collect="always"
       xlink:href="#linearGradient42"
       id="linearGradient4"
       x1="11.885941"
       y1="16.50819"
       x2="12.026573"
       y2="10.244942"
       gradientUnits="userSpaceOnUse"
       gradientTransform="matrix(2.046153,0,0,2.046153,-18.798306,-18.911347)" />
    <linearGradient
       id="linearGradient42"
       inkscape:collect="always">
      <stop
         style="stop-color:#010101;stop-opacity:1;"
         offset="0"
         id="stop42" />
      <stop
         style="stop-color:#6e6c6d;stop-opacity:1;"
         offset="1"
         id="stop43" />
    </linearGradient>
    <linearGradient
       inkscape:collect="always"
       xlink:href="#linearGradient8"
       id="linearGradient9"
       x1="9.3404646"
       y1="4.1692023"
       x2="9.4279938"
       y2="16.46883"
       gradientUnits="userSpaceOnUse"
       gradientTransform="matrix(1.05,0,0,1.05,-0.50277005,-0.1977751)" />
    <filter
       style="color-interpolation-filters:sRGB;"
       inkscape:label="Blur"
       id="filter2"
       x="-0.14510849"
       y="-0.14612901"
       width="1.290217"
       height="1.292258">
      <feGaussianBlur
         stdDeviation="0.6 0.6"
         result="blur"
         id="feGaussianBlur2" />
    </filter>
    <linearGradient
       inkscape:collect="always"
       xlink:href="#linearGradient5"
       id="linearGradient62"
       x1="36.514698"
       y1="42.520039"
       x2="36.335224"
       y2="21.856426"
       gradientUnits="userSpaceOnUse"
       gradientTransform="matrix(0.23573911,0,0,0.23573911,0.89706829,0.80028087)" />
  </defs>
  <metadata
     id="metadata2">
    <rdf:RDF>
      <cc:Work
         rdf:about="">
        <dc:format>image/svg+xml</dc:format>
        <dc:type
           rdf:resource="http://purl.org/dc/dcmitype/StillImage" />
      </cc:Work>
    </rdf:RDF>
  </metadata>
  <rect
     style="fill:#000000;fill-opacity:0.996424;stroke:#000000;stroke-width:0.911802;stroke-dasharray:none;stroke-opacity:1;filter:url(#filter2)"
     id="rect1-2-3"
     width="13.065404"
     height="12.974159"
     x="1.9816793"
     y="1.9267306"
     rx="2.7149384"
     ry="2.8310909" />
  <rect
     style="fill:url(#linearGradient4);fill-opacity:0.996424;stroke:url(#linearGradient41);stroke-width:0.911802;stroke-dasharray:none;stroke-opacity:1"
     id="rect1-2"
     width="13.065404"
     height="12.974159"
     x="1.9816793"
     y="1.9267306"
     rx="2.7149384"
     ry="2.8310909" />
  <path
     id="path58-3"
     style="fill:#000000;fill-opacity:1;stroke-width:0.0382928;stroke-opacity:0.3;opacity:0.3"
     d="M 5.9444757,6.4851841 5.7243915,6.5095867 C 5.2112197,6.5672291 4.6832335,6.9662036 4.4393361,7.4810895 4.3235203,7.7255896 4.316862,7.7644497 4.316862,8.1804796 c 0,0.4232254 0.00517,0.4509837 0.1307615,0.7085988 0.21788,0.4469405 0.6268819,0.7873263 1.1137763,0.9268415 0.10272,0.029431 0.2992755,0.043289 0.4866723,0.034531 C 6.5632658,9.8263723 7.0565904,9.5501184 7.3446375,9.124357 7.4857596,8.9157665 7.6291822,8.5150708 7.6291822,8.3296585 V 8.2186954 H 6.7865985 5.9444757 v -0.866986 z m 2.6037217,0.4314207 v 0.2873073 0.287307 h 2.1059976 2.106458 V 7.2039121 6.9166048 h -2.106458 z m 0,1.91492 v 0.3061845 0.3066454 h 2.1059976 2.106458 V 9.1377093 8.8315248 H 10.654195 Z M 4.7188153,10.7842 v 0.287307 0.287307 H 7.8971512 11.075487 V 11.071507 10.7842 H 7.8971512 Z" />
  <path
     id="path58"
     style="fill:url(#linearGradient62);fill-opacity:1;stroke-width:0.0382928;stroke-opacity:0.3"
     d="M 5.9444757,5.9560279 5.7243915,5.9804305 C 5.2112197,6.0380729 4.6832335,6.4370474 4.4393361,6.9519333 4.3235203,7.1964334 4.316862,7.2352935 4.316862,7.6513234 c 0,0.4232254 0.00517,0.4509837 0.1307615,0.7085988 0.21788,0.4469405 0.6268819,0.7873263 1.1137763,0.9268415 0.10272,0.029431 0.2992755,0.043289 0.4866723,0.034531 C 6.5632658,9.2972161 7.0565904,9.0209622 7.3446375,8.5952008 7.4857596,8.3866103 7.6291822,7.9859146 7.6291822,7.8005023 V 7.6895392 H 6.7865985 5.9444757 v -0.866986 z m 2.6037217,0.4314207 v 0.2873073 0.287307 h 2.1059976 2.106458 V 6.6747559 6.3874486 h -2.106458 z m 0,1.91492 v 0.3061845 0.3066454 h 2.1059976 2.106458 V 8.6085531 8.3023686 H 10.654195 Z M 4.7188153,10.255044 v 0.287307 0.287307 H 7.8971512 11.075487 V 10.542351 10.255044 H 7.8971512 Z" />
  <rect
     style="opacity:0.5;fill:none;fill-opacity:0.996424;stroke:url(#linearGradient9);stroke-width:0.566102;stroke-dasharray:none;stroke-opacity:1"
     id="rect1-2-6"
     width="11.574203"
     height="11.508601"
     x="2.729686"
     y="2.6615164"
     rx="2.0246315"
     ry="2.0627522" />
</svg>
