<?xml version="1.0" encoding="UTF-8" standalone="no"?>
<svg
   width="64"
   height="64"
   version="1.1"
   viewBox="0 0 16.933 16.933"
   id="svg7"
   sodipodi:docname="Template 4.svg"
   inkscape:version="1.3.2 (091e20ef0f, 2023-11-25)"
   xmlns:inkscape="http://www.inkscape.org/namespaces/inkscape"
   xmlns:sodipodi="http://sodipodi.sourceforge.net/DTD/sodipodi-0.dtd"
   xmlns:xlink="http://www.w3.org/1999/xlink"
   xmlns="http://www.w3.org/2000/svg"
   xmlns:svg="http://www.w3.org/2000/svg"
   xmlns:rdf="http://www.w3.org/1999/02/22-rdf-syntax-ns#"
   xmlns:cc="http://creativecommons.org/ns#"
   xmlns:dc="http://purl.org/dc/elements/1.1/">
  <sodipodi:namedview
     id="namedview7"
     pagecolor="#9c4444"
     bordercolor="#000000"
     borderopacity="0.25"
     inkscape:showpageshadow="2"
     inkscape:pageopacity="0.0"
     inkscape:pagecheckerboard="0"
     inkscape:deskcolor="#d1d1d1"
     inkscape:zoom="4.3531261"
     inkscape:cx="32.964816"
     inkscape:cy="24.350317"
     inkscape:window-width="1463"
     inkscape:window-height="604"
     inkscape:window-x="199"
     inkscape:window-y="276"
     inkscape:window-maximized="0"
     inkscape:current-layer="svg7"
     showgrid="false" />
  <defs
     id="defs2">
    <linearGradient
       id="linearGradient5"
       inkscape:collect="always">
      <stop
         style="stop-color:#392713;stop-opacity:1;"
         offset="0"
         id="stop2" />
      <stop
         style="stop-color:#eed59e;stop-opacity:1;"
         offset="0.5"
         id="stop3" />
      <stop
         style="stop-color:#beaa8a;stop-opacity:1;"
         offset="1"
         id="stop4" />
    </linearGradient>
    <linearGradient
       id="linearGradient8"
       inkscape:collect="always">
      <stop
         style="stop-color:#1a1a1a;stop-opacity:1;"
         offset="0"
         id="stop8" />
      <stop
         style="stop-color:#ffffff;stop-opacity:0;"
         offset="1"
         id="stop9" />
    </linearGradient>
    <linearGradient
       inkscape:collect="always"
       xlink:href="#linearGradient5"
       id="linearGradient41"
       x1="13.675659"
       y1="16.110115"
       x2="13.728528"
       y2="10.548769"
       gradientUnits="userSpaceOnUse"
       gradientTransform="matrix(2.046153,0,0,2.046153,-18.798306,-18.911347)" />
    <linearGradient
       inkscape:collect="always"
       xlink:href="#linearGradient42"
       id="linearGradient4"
       x1="11.885941"
       y1="16.50819"
       x2="12.026573"
       y2="10.244942"
       gradientUnits="userSpaceOnUse"
       gradientTransform="matrix(2.046153,0,0,2.046153,-18.798306,-18.911347)" />
    <linearGradient
       id="linearGradient42"
       inkscape:collect="always">
      <stop
         style="stop-color:#010101;stop-opacity:1;"
         offset="0"
         id="stop42" />
      <stop
         style="stop-color:#6e6c6d;stop-opacity:1;"
         offset="1"
         id="stop43" />
    </linearGradient>
    <linearGradient
       inkscape:collect="always"
       xlink:href="#linearGradient8"
       id="linearGradient9"
       x1="9.3404646"
       y1="4.1692023"
       x2="9.4279938"
       y2="16.46883"
       gradientUnits="userSpaceOnUse"
       gradientTransform="matrix(1.05,0,0,1.05,-0.50277005,-0.1977751)" />
    <filter
       style="color-interpolation-filters:sRGB;"
       inkscape:label="Blur"
       id="filter2"
       x="-0.14510849"
       y="-0.14612901"
       width="1.290217"
       height="1.292258">
      <feGaussianBlur
         stdDeviation="0.6 0.6"
         result="blur"
         id="feGaussianBlur2" />
    </filter>
    <linearGradient
       inkscape:collect="always"
       xlink:href="#linearGradient5"
       id="linearGradient8-4"
       x1="33.753265"
       y1="49.895676"
       x2="34.254879"
       y2="14.356085"
       gradientUnits="userSpaceOnUse"
       gradientTransform="matrix(0.23573911,0,0,0.23573911,0.93987887,0.80385029)" />
  </defs>
  <metadata
     id="metadata2">
    <rdf:RDF>
      <cc:Work
         rdf:about="">
        <dc:format>image/svg+xml</dc:format>
        <dc:type
           rdf:resource="http://purl.org/dc/dcmitype/StillImage" />
      </cc:Work>
    </rdf:RDF>
  </metadata>
  <rect
     style="fill:#000000;fill-opacity:0.996424;stroke:#000000;stroke-width:0.911802;stroke-dasharray:none;stroke-opacity:1;filter:url(#filter2)"
     id="rect1-2-3"
     width="13.065404"
     height="12.974159"
     x="1.9816793"
     y="1.9267306"
     rx="2.7149384"
     ry="2.8310909" />
  <rect
     style="fill:url(#linearGradient4);fill-opacity:0.996424;stroke:url(#linearGradient41);stroke-width:0.911802;stroke-dasharray:none;stroke-opacity:1"
     id="rect1-2"
     width="13.065404"
     height="12.974159"
     x="1.9816793"
     y="1.9267306"
     rx="2.7149384"
     ry="2.8310909" />
  <path
     id="path112-7"
     style="fill:#000000;fill-opacity:1;stroke:none;stroke-width:0.282392;stroke-dasharray:none;stroke-dashoffset:2.2;stroke-opacity:0.3;opacity:0.3"
     d="m 8.5291132,4.7342226 c -0.5429548,6.129e-4 -0.6330079,0.0089 -0.9492116,0.088249 -1.7057561,0.4280169 -2.9246589,1.7646569 -3.1873879,3.4945992 -0.1570126,1.0338475 0.1048221,2.1651246 0.7043247,3.0401236 0.3538653,0.516479 1.0080196,1.083951 1.5779753,1.368938 0.2759401,0.137976 0.8104434,0.314179 1.1262582,0.371191 0.1417381,0.02559 0.4022963,0.04802 0.5791237,0.04964 0.2882564,0.0025 0.3362677,-0.006 0.4616445,-0.07943 0.086317,-0.05058 0.1744039,-0.140389 0.2299952,-0.234959 0.076878,-0.130781 0.089902,-0.189017 0.089902,-0.397113 0,-0.224792 -0.00887,-0.257349 -0.1158248,-0.421381 -0.1651652,-0.253341 -0.2025981,-0.365429 -0.1847678,-0.551002 0.019387,-0.201743 0.1398508,-0.382663 0.3254125,-0.48867 0.1307479,-0.07469 0.173706,-0.07928 0.8835788,-0.09928 0.838596,-0.02363 0.945034,-0.04428 1.378314,-0.261434 0.217106,-0.108807 0.334442,-0.196585 0.551547,-0.414761 0.310842,-0.3123642 0.45603,-0.5379012 0.588501,-0.9122483 0.366421,-1.0354633 0.003,-2.3694369 -0.896816,-3.2905272 C 11.111058,5.4018322 10.292846,4.9688728 9.4160003,4.7915836 9.2010289,4.7481185 8.9790338,4.7337144 8.5291132,4.7342226 Z M 7.2236025,5.6619241 c 0.098417,-0.00324 0.2007967,0.017629 0.3011443,0.068392 0.5023178,0.254123 0.4992871,0.9362968 -0.00496,1.1935471 C 7.1984854,7.0877753 6.8048879,6.9369468 6.6472348,6.5896254 6.4442555,6.1424467 6.7971266,5.6760175 7.2236015,5.6619241 Z m 2.3016039,5.658e-4 c 0.1801394,0.00179 0.3588191,0.081722 0.4892206,0.2399225 0.280352,0.3401145 0.164769,0.8421295 -0.2360609,1.0242222 C 9.1372282,7.2178975 8.5605375,6.4239388 9.02716,5.8924848 9.1636998,5.736974 9.3450673,5.6606736 9.5252064,5.6624899 Z m 1.5575676,1.959645 c 0.242357,-0.017949 0.485794,0.1090064 0.615527,0.3303766 0.192418,0.3283406 0.06265,0.7564282 -0.281841,0.9304592 -0.419961,0.2121637 -0.939836,-0.1187354 -0.939836,-0.5984282 0,-0.2964082 0.215575,-0.5736228 0.502458,-0.6458612 0.03424,-0.00862 0.06907,-0.013981 0.103692,-0.016546 z m -5.4542441,0.00608 c 0.3372976,0.00137 0.6629585,0.2575914 0.6629585,0.6712323 0,0.17764 -0.1599118,0.4435692 -0.3248608,0.5410677 C 5.6407028,9.0331535 5.294893,8.9576609 5.075328,8.6452582 4.9897379,8.5234773 4.9777049,8.4784499 4.9777049,8.284547 c 0,-0.1943629 0.012063,-0.2389306 0.098727,-0.3623664 C 5.2194859,7.7184289 5.4261512,7.6273933 5.62853,7.6282064 Z" />
  <path
     id="path112"
     style="fill:url(#linearGradient8-4);fill-opacity:1;stroke:none;stroke-width:0.282392;stroke-dasharray:none;stroke-dashoffset:2.2;stroke-opacity:0.3"
     d="M 8.5291132,4.2050664 C 7.9861584,4.2056793 7.8961053,4.2139674 7.5799016,4.293315 5.8741455,4.7213319 4.6552427,6.0579719 4.3925137,7.7879142 4.2355011,8.8217617 4.4973358,9.9530391 5.0968384,10.828038 c 0.3538653,0.516479 1.0080196,1.083951 1.5779753,1.368938 0.2759401,0.137976 0.8104434,0.314179 1.1262582,0.371191 0.1417381,0.02559 0.4022963,0.04802 0.5791237,0.04964 0.2882564,0.0025 0.3362677,-0.006 0.4616445,-0.07943 0.086317,-0.05058 0.1744039,-0.140389 0.2299952,-0.234959 0.076878,-0.130781 0.089902,-0.189017 0.089902,-0.397113 0,-0.224792 -0.00887,-0.257349 -0.1158248,-0.421381 -0.1651652,-0.253341 -0.2025981,-0.365429 -0.1847678,-0.551002 0.019387,-0.201743 0.1398508,-0.382663 0.3254125,-0.48867 0.1307479,-0.07469 0.173706,-0.07928 0.8835788,-0.09928 0.838596,-0.02363 0.945034,-0.04428 1.378314,-0.261434 0.217106,-0.1088069 0.334442,-0.1965857 0.551547,-0.4147617 0.310842,-0.3123637 0.45603,-0.5379007 0.588501,-0.9122478 0.366421,-1.0354633 0.003,-2.3694369 -0.896816,-3.2905272 C 11.111058,4.872676 10.292846,4.4397166 9.4160003,4.2624274 9.2010289,4.2189623 8.9790338,4.2045582 8.5291132,4.2050664 Z M 7.2236025,5.1327679 c 0.098417,-0.00324 0.2007967,0.017629 0.3011443,0.068392 0.5023178,0.254123 0.4992871,0.9362968 -0.00496,1.1935471 C 7.1984854,6.5586191 6.8048879,6.4077906 6.6472348,6.0604692 6.4442555,5.6132905 6.7971266,5.1468613 7.2236015,5.1327679 Z m 2.3016039,5.658e-4 c 0.1801394,0.00179 0.3588191,0.081722 0.4892206,0.2399225 0.280352,0.3401145 0.164769,0.8421295 -0.2360609,1.0242222 C 9.1372282,6.6887413 8.5605375,5.8947826 9.02716,5.3633286 9.1636998,5.2078178 9.3450673,5.1315174 9.5252064,5.1333337 Z m 1.5575676,1.959645 c 0.242357,-0.017949 0.485794,0.1090064 0.615527,0.3303766 0.192418,0.3283405 0.06265,0.7564281 -0.281841,0.9304592 -0.419961,0.2121637 -0.939836,-0.1187354 -0.939836,-0.5984282 0,-0.2964082 0.215575,-0.5736228 0.502458,-0.6458612 0.03424,-0.00862 0.06907,-0.013981 0.103692,-0.016546 z m -5.4542441,0.00608 c 0.3372976,0.00137 0.6629585,0.2575914 0.6629585,0.6712323 0,0.17764 -0.1599118,0.4435692 -0.3248608,0.5410677 C 5.6407028,8.5039973 5.294893,8.4285047 5.075328,8.116102 4.9897379,7.9943211 4.9777049,7.9492937 4.9777049,7.7553908 c 0,-0.1943629 0.012063,-0.2389306 0.098727,-0.3623664 C 5.2194859,7.1892727 5.4261512,7.0982371 5.62853,7.0990502 Z" />
  <rect
     style="opacity:0.5;fill:none;fill-opacity:0.996424;stroke:url(#linearGradient9);stroke-width:0.566102;stroke-dasharray:none;stroke-opacity:1"
     id="rect1-2-6"
     width="11.574203"
     height="11.508601"
     x="2.729686"
     y="2.6615164"
     rx="2.0246315"
     ry="2.0627522" />
</svg>
