<?xml version="1.0" encoding="UTF-8" standalone="no"?>
<svg
   width="64"
   height="64"
   version="1.1"
   viewBox="0 0 16.933 16.933"
   id="svg7"
   sodipodi:docname="Template 4.svg"
   inkscape:version="1.3.2 (091e20ef0f, 2023-11-25)"
   xmlns:inkscape="http://www.inkscape.org/namespaces/inkscape"
   xmlns:sodipodi="http://sodipodi.sourceforge.net/DTD/sodipodi-0.dtd"
   xmlns:xlink="http://www.w3.org/1999/xlink"
   xmlns="http://www.w3.org/2000/svg"
   xmlns:svg="http://www.w3.org/2000/svg"
   xmlns:rdf="http://www.w3.org/1999/02/22-rdf-syntax-ns#"
   xmlns:cc="http://creativecommons.org/ns#"
   xmlns:dc="http://purl.org/dc/elements/1.1/">
  <sodipodi:namedview
     id="namedview7"
     pagecolor="#9c4444"
     bordercolor="#000000"
     borderopacity="0.25"
     inkscape:showpageshadow="2"
     inkscape:pageopacity="0.0"
     inkscape:pagecheckerboard="0"
     inkscape:deskcolor="#d1d1d1"
     inkscape:zoom="4.3531261"
     inkscape:cx="32.964816"
     inkscape:cy="24.350317"
     inkscape:window-width="1463"
     inkscape:window-height="604"
     inkscape:window-x="199"
     inkscape:window-y="276"
     inkscape:window-maximized="0"
     inkscape:current-layer="svg7"
     showgrid="false" />
  <defs
     id="defs2">
    <linearGradient
       id="linearGradient5"
       inkscape:collect="always">
      <stop
         style="stop-color:#392713;stop-opacity:1;"
         offset="0"
         id="stop2" />
      <stop
         style="stop-color:#eed59e;stop-opacity:1;"
         offset="0.5"
         id="stop3" />
      <stop
         style="stop-color:#beaa8a;stop-opacity:1;"
         offset="1"
         id="stop4" />
    </linearGradient>
    <linearGradient
       id="linearGradient8"
       inkscape:collect="always">
      <stop
         style="stop-color:#1a1a1a;stop-opacity:1;"
         offset="0"
         id="stop8" />
      <stop
         style="stop-color:#ffffff;stop-opacity:0;"
         offset="1"
         id="stop9" />
    </linearGradient>
    <linearGradient
       inkscape:collect="always"
       xlink:href="#linearGradient5"
       id="linearGradient41"
       x1="13.675659"
       y1="16.110115"
       x2="13.728528"
       y2="10.548769"
       gradientUnits="userSpaceOnUse"
       gradientTransform="matrix(2.046153,0,0,2.046153,-18.798306,-18.911347)" />
    <linearGradient
       inkscape:collect="always"
       xlink:href="#linearGradient42"
       id="linearGradient4"
       x1="11.885941"
       y1="16.50819"
       x2="12.026573"
       y2="10.244942"
       gradientUnits="userSpaceOnUse"
       gradientTransform="matrix(2.046153,0,0,2.046153,-18.798306,-18.911347)" />
    <linearGradient
       id="linearGradient42"
       inkscape:collect="always">
      <stop
         style="stop-color:#010101;stop-opacity:1;"
         offset="0"
         id="stop42" />
      <stop
         style="stop-color:#6e6c6d;stop-opacity:1;"
         offset="1"
         id="stop43" />
    </linearGradient>
    <linearGradient
       inkscape:collect="always"
       xlink:href="#linearGradient8"
       id="linearGradient9"
       x1="9.3404646"
       y1="4.1692023"
       x2="9.4279938"
       y2="16.46883"
       gradientUnits="userSpaceOnUse"
       gradientTransform="matrix(1.05,0,0,1.05,-0.50277005,-0.1977751)" />
    <filter
       style="color-interpolation-filters:sRGB;"
       inkscape:label="Blur"
       id="filter2"
       x="-0.14510849"
       y="-0.14612901"
       width="1.290217"
       height="1.292258">
      <feGaussianBlur
         stdDeviation="0.6 0.6"
         result="blur"
         id="feGaussianBlur2" />
    </filter>
    <linearGradient
       inkscape:collect="always"
       xlink:href="#linearGradient5"
       id="linearGradient12"
       x1="32.680916"
       y1="48.56881"
       x2="31.490448"
       y2="15.418941"
       gradientUnits="userSpaceOnUse"
       gradientTransform="matrix(0.23573911,0,0,0.23573911,0.93090662,0.79608836)" />
  </defs>
  <metadata
     id="metadata2">
    <rdf:RDF>
      <cc:Work
         rdf:about="">
        <dc:format>image/svg+xml</dc:format>
        <dc:type
           rdf:resource="http://purl.org/dc/dcmitype/StillImage" />
      </cc:Work>
    </rdf:RDF>
  </metadata>
  <rect
     style="fill:#000000;fill-opacity:0.996424;stroke:#000000;stroke-width:0.911802;stroke-dasharray:none;stroke-opacity:1;filter:url(#filter2)"
     id="rect1-2-3"
     width="13.065404"
     height="12.974159"
     x="1.9816793"
     y="1.9267306"
     rx="2.7149384"
     ry="2.8310909" />
  <rect
     style="fill:url(#linearGradient4);fill-opacity:0.996424;stroke:url(#linearGradient41);stroke-width:0.911802;stroke-dasharray:none;stroke-opacity:1"
     id="rect1-2"
     width="13.065404"
     height="12.974159"
     x="1.9816793"
     y="1.9267306"
     rx="2.7149384"
     ry="2.8310909" />
  <path
     d="m 5.3795778,9.1590679 c -0.4310579,0 -0.7781842,0.3466081 -0.7781842,0.7771479 v 2.0723922 c 0,0.430539 0.3471263,0.777147 0.7781842,0.777147 h 4.6680642 c 0.431059,0 0.778185,-0.346608 0.778185,-0.777147 V 9.9362158 c 0,-0.4305396 -0.347126,-0.7771479 -0.778185,-0.7771479 z m 0.032121,0.5180985 c 1.6506616,0.1393687 3.1686894,0.1191628 4.6033032,0 0.156983,-0.012951 0.292207,0.1347059 0.292207,0.2916896 v 1.489014 c 0,0.156984 -0.13574,0.274075 -0.292207,0.29169 -1.5563671,0.176153 -3.0899379,0.169417 -4.6033029,0 C 5.2557515,11.73194 5.1200096,11.614854 5.1200096,11.45787 V 9.968856 c 0,-0.1569837 0.1352237,-0.3046419 0.2916892,-0.2916896 z M 9.5285085,5.014282 c -0.4305396,0 -0.7771469,0.3466076 -0.7771469,0.7771472 v 2.0723937 c 0,0.4305391 0.3466073,0.777147 0.7771469,0.777147 h 2.0749835 c 0.431058,0 0.778184,-0.3466079 0.778184,-0.777147 V 5.7914292 c 0,-0.4305396 -0.347126,-0.7771472 -0.778184,-0.7771472 z m 0.032638,0.5180981 a 10.424138,10.424137 0 0 0 2.0102205,0 c 0.156465,-0.015029 0.291689,0.134706 0.291689,0.2916892 v 1.4895334 c 0,0.156465 -0.135741,0.2720009 -0.291689,0.2911709 -0.650214,0.079787 -1.317007,0.093258 -2.0102205,0 C 9.4057161,7.5840474 9.2694563,7.4700677 9.2694563,7.313084 V 5.8240693 c 0,-0.1564653 0.1357422,-0.3067135 0.2916889,-0.2911715 z m -4.181571,0 c -0.4310585,0 -0.7781841,0.3466082 -0.7781841,0.7771476 v 1.5542952 c 0,0.4305391 0.3471266,0.7771477 0.7781841,0.7771477 H 7.454041 c 0.431057,0 0.7781835,-0.3466086 0.7781835,-0.7771477 V 6.3095277 c 0,-0.4305394 -0.3471265,-0.7771476 -0.7781835,-0.7771476 z m 0.03212,0.5180991 c 0.8766225,0.1036192 1.4755438,0.067352 2.0102218,0 0.1554296,-0.019687 0.2916887,0.1347049 0.2916887,0.2916885 v 1.489015 c 0,0.1569829 -0.1357414,0.2714833 -0.2916887,0.2916894 a 7.8279477,7.8279477 0 0 1 -2.0102218,0 C 5.2562662,8.1031832 5.1200069,7.9881656 5.1200069,7.8311827 v -1.489015 c 0,-0.1564656 0.1357414,-0.3093044 0.291689,-0.2911713 z"
     fill="#474747"
     overflow="visible"
     id="path2-5-6"
     style="fill:#000000;fill-opacity:1;stroke:none;stroke-width:0.25672;stroke-dasharray:none;stroke-opacity:0.3;opacity:0.3" />
  <path
     d="m 5.3795778,8.6299117 c -0.4310579,0 -0.7781842,0.3466081 -0.7781842,0.7771479 v 2.0723924 c 0,0.430539 0.3471263,0.777147 0.7781842,0.777147 h 4.6680642 c 0.431059,0 0.778185,-0.346608 0.778185,-0.777147 V 9.4070596 c 0,-0.4305396 -0.347126,-0.7771479 -0.778185,-0.7771479 z m 0.032121,0.5180985 c 1.6506616,0.1393687 3.1686894,0.1191628 4.6033032,0 0.156983,-0.012951 0.292207,0.1347059 0.292207,0.2916896 v 1.4890142 c 0,0.156984 -0.13574,0.274075 -0.292207,0.29169 -1.5563671,0.176153 -3.0899379,0.169417 -4.6033029,0 -0.1559476,-0.01762 -0.2916895,-0.134706 -0.2916895,-0.29169 V 9.4396998 c 0,-0.1569837 0.1352237,-0.3046419 0.2916892,-0.2916896 z M 9.5285085,4.4851258 c -0.4305396,0 -0.7771469,0.3466076 -0.7771469,0.7771472 v 2.0723937 c 0,0.4305391 0.3466073,0.777147 0.7771469,0.777147 h 2.0749835 c 0.431058,0 0.778184,-0.3466079 0.778184,-0.777147 V 5.262273 c 0,-0.4305396 -0.347126,-0.7771472 -0.778184,-0.7771472 z m 0.032638,0.5180981 a 10.424138,10.424137 0 0 0 2.0102205,0 c 0.156465,-0.015029 0.291689,0.134706 0.291689,0.2916892 v 1.4895334 c 0,0.156465 -0.135741,0.2720009 -0.291689,0.2911709 -0.650214,0.079787 -1.317007,0.093258 -2.0102205,0 C 9.4057161,7.0548912 9.2694563,6.9409115 9.2694563,6.7839278 V 5.2949131 c 0,-0.1564653 0.1357422,-0.3067135 0.2916889,-0.2911715 z m -4.181571,0 c -0.4310585,0 -0.7781841,0.3466082 -0.7781841,0.7771476 v 1.5542952 c 0,0.4305391 0.3471266,0.7771477 0.7781841,0.7771477 H 7.454041 c 0.431057,0 0.7781835,-0.3466086 0.7781835,-0.7771477 V 5.7803715 c 0,-0.4305394 -0.3471265,-0.7771476 -0.7781835,-0.7771476 z m 0.03212,0.5180991 c 0.8766225,0.1036192 1.4755438,0.067352 2.0102218,0 C 7.5773469,5.501636 7.713606,5.6560279 7.713606,5.8130115 v 1.489015 c 0,0.1569829 -0.1357414,0.2714833 -0.2916887,0.2916894 a 7.8279477,7.8279477 0 0 1 -2.0102218,0 C 5.2562662,7.574027 5.1200069,7.4590094 5.1200069,7.3020265 v -1.489015 c 0,-0.1564656 0.1357414,-0.3093044 0.291689,-0.2911713 z"
     fill="#474747"
     overflow="visible"
     id="path2-5"
     style="fill:url(#linearGradient12);fill-opacity:1;stroke:none;stroke-width:0.25672;stroke-dasharray:none;stroke-opacity:0.3" />
  <rect
     style="opacity:0.5;fill:none;fill-opacity:0.996424;stroke:url(#linearGradient9);stroke-width:0.566102;stroke-dasharray:none;stroke-opacity:1"
     id="rect1-2-6"
     width="11.574203"
     height="11.508601"
     x="2.729686"
     y="2.6615164"
     rx="2.0246315"
     ry="2.0627522" />
</svg>
