<?xml version="1.0" encoding="UTF-8" standalone="no"?>
<svg
   width="64"
   height="64"
   version="1.1"
   viewBox="0 0 16.933 16.933"
   id="svg7"
   sodipodi:docname="Template 4.svg"
   inkscape:version="1.3.2 (091e20ef0f, 2023-11-25)"
   xmlns:inkscape="http://www.inkscape.org/namespaces/inkscape"
   xmlns:sodipodi="http://sodipodi.sourceforge.net/DTD/sodipodi-0.dtd"
   xmlns:xlink="http://www.w3.org/1999/xlink"
   xmlns="http://www.w3.org/2000/svg"
   xmlns:svg="http://www.w3.org/2000/svg"
   xmlns:rdf="http://www.w3.org/1999/02/22-rdf-syntax-ns#"
   xmlns:cc="http://creativecommons.org/ns#"
   xmlns:dc="http://purl.org/dc/elements/1.1/">
  <sodipodi:namedview
     id="namedview7"
     pagecolor="#9c4444"
     bordercolor="#000000"
     borderopacity="0.25"
     inkscape:showpageshadow="2"
     inkscape:pageopacity="0.0"
     inkscape:pagecheckerboard="0"
     inkscape:deskcolor="#d1d1d1"
     inkscape:zoom="4.3531261"
     inkscape:cx="32.849956"
     inkscape:cy="24.350317"
     inkscape:window-width="1356"
     inkscape:window-height="786"
     inkscape:window-x="35"
     inkscape:window-y="32"
     inkscape:window-maximized="0"
     inkscape:current-layer="svg7"
     showgrid="false" />
  <defs
     id="defs2">
    <linearGradient
       id="linearGradient5"
       inkscape:collect="always">
      <stop
         style="stop-color:#392713;stop-opacity:1;"
         offset="0"
         id="stop2" />
      <stop
         style="stop-color:#eed59e;stop-opacity:1;"
         offset="0.5"
         id="stop3" />
      <stop
         style="stop-color:#beaa8a;stop-opacity:1;"
         offset="1"
         id="stop4" />
    </linearGradient>
    <linearGradient
       id="linearGradient8"
       inkscape:collect="always">
      <stop
         style="stop-color:#1a1a1a;stop-opacity:1;"
         offset="0"
         id="stop8" />
      <stop
         style="stop-color:#ffffff;stop-opacity:0;"
         offset="1"
         id="stop9" />
    </linearGradient>
    <linearGradient
       inkscape:collect="always"
       xlink:href="#linearGradient5"
       id="linearGradient41"
       x1="13.675659"
       y1="16.110115"
       x2="13.728528"
       y2="10.548769"
       gradientUnits="userSpaceOnUse"
       gradientTransform="matrix(2.046153,0,0,2.046153,-18.798306,-18.911347)" />
    <linearGradient
       inkscape:collect="always"
       xlink:href="#linearGradient42"
       id="linearGradient4"
       x1="11.885941"
       y1="16.50819"
       x2="12.026573"
       y2="10.244942"
       gradientUnits="userSpaceOnUse"
       gradientTransform="matrix(2.046153,0,0,2.046153,-18.798306,-18.911347)" />
    <linearGradient
       id="linearGradient42"
       inkscape:collect="always">
      <stop
         style="stop-color:#010101;stop-opacity:1;"
         offset="0"
         id="stop42" />
      <stop
         style="stop-color:#6e6c6d;stop-opacity:1;"
         offset="1"
         id="stop43" />
    </linearGradient>
    <linearGradient
       inkscape:collect="always"
       xlink:href="#linearGradient8"
       id="linearGradient9"
       x1="9.3404646"
       y1="4.1692023"
       x2="9.4279938"
       y2="16.46883"
       gradientUnits="userSpaceOnUse"
       gradientTransform="matrix(1.05,0,0,1.05,-0.50277005,-0.1977751)" />
    <filter
       style="color-interpolation-filters:sRGB;"
       inkscape:label="Blur"
       id="filter2"
       x="-0.14510849"
       y="-0.14612901"
       width="1.290217"
       height="1.292258">
      <feGaussianBlur
         stdDeviation="0.6 0.6"
         result="blur"
         id="feGaussianBlur2" />
    </filter>
    <linearGradient
       inkscape:collect="always"
       xlink:href="#linearGradient5"
       id="linearGradient28"
       x1="32.459076"
       y1="47.999859"
       x2="31.923759"
       y2="15.721378"
       gradientUnits="userSpaceOnUse"
       gradientTransform="matrix(0.23573911,0,0,0.23573911,1.0259528,0.77776492)" />
  </defs>
  <metadata
     id="metadata2">
    <rdf:RDF>
      <cc:Work
         rdf:about="">
        <dc:format>image/svg+xml</dc:format>
        <dc:type
           rdf:resource="http://purl.org/dc/dcmitype/StillImage" />
      </cc:Work>
    </rdf:RDF>
  </metadata>
  <rect
     style="fill:#000000;fill-opacity:0.996424;stroke:#000000;stroke-width:0.911802;stroke-dasharray:none;stroke-opacity:1;filter:url(#filter2)"
     id="rect1-2-3"
     width="13.065404"
     height="12.974159"
     x="1.9816793"
     y="1.9267306"
     rx="2.7149384"
     ry="2.8310909" />
  <rect
     style="fill:url(#linearGradient4);fill-opacity:0.996424;stroke:url(#linearGradient41);stroke-width:0.911802;stroke-dasharray:none;stroke-opacity:1"
     id="rect1-2"
     width="13.065404"
     height="12.974159"
     x="1.9816793"
     y="1.9267306"
     rx="2.7149384"
     ry="2.8310909" />
  <path
     fill="#f5f7fa"
     d="m 10.200621,12.231083 -0.34098,-0.665741 c -0.3810992,0.243796 -1.0329777,0.42195 -1.6647979,0.42195 -1.8653735,0 -2.8782918,-0.900158 -2.8782918,-2.6348357 0,-1.8847039 1.5344204,-3.4974847 3.5903437,-3.4974847 1.805201,0 2.868263,0.8438979 2.868263,2.3535378 0,0.9939224 -0.481388,1.9597146 -1.313784,1.9597146 -0.300867,0 -0.421214,-0.14065 -0.421214,-0.4125716 0,-0.1406481 0.03008,-0.4031961 0.07019,-0.6188574 L 10.421257,7.25209 C 10.100333,7.0645584 9.5688023,6.9520384 9.0874145,6.9520384 c -1.2235246,0 -2.4570779,0.7782609 -2.4570779,2.4660549 0,0.8157677 0.4312423,1.4721307 1.4742467,1.4721307 0.4713582,0 0.8925715,-0.168777 1.1733813,-0.496961 h 0.040118 c 0.1404034,0.290677 0.4613287,0.496961 1.0229474,0.496961 1.404046,0 2.316675,-1.1908317 2.316675,-2.784859 0,-1.8190677 -1.434132,-3.0005244 -3.6204313,-3.0005244 -2.647628,0 -4.6132902,1.9222115 -4.6132902,4.3413828 0,2.0065996 1.2636401,3.2818236 3.6204304,3.2818236 0.8424259,0 1.6447371,-0.196911 2.1562121,-0.496964 z M 8.2851034,10.177602 c -0.5215021,0 -0.772225,-0.2812991 -0.772225,-0.9095328 0,-0.9376655 0.6318206,-1.5940297 1.464219,-1.5940297 0.1905479,0 0.3710687,0.037508 0.4914149,0.075014 L 9.2378483,9.2211857 C 9.2177945,9.3243272 9.1877093,9.5868741 9.1877093,9.6993926 9.0372768,9.952563 8.6962937,10.177602 8.2851083,10.177602 Z"
     id="path42-9"
     style="fill:#000000;fill-opacity:1;stroke:none;stroke-width:0.25672;stroke-dasharray:none;stroke-opacity:0.3;opacity:0.3" />
  <path
     fill="#f5f7fa"
     d="m 10.200621,11.701927 -0.34098,-0.665741 c -0.3810992,0.243796 -1.0329777,0.42195 -1.6647979,0.42195 -1.8653735,0 -2.8782918,-0.900158 -2.8782918,-2.6348359 0,-1.8847039 1.5344204,-3.4974847 3.5903437,-3.4974847 1.805201,0 2.868263,0.8438979 2.868263,2.3535378 0,0.9939224 -0.481388,1.9597149 -1.313784,1.9597149 -0.300867,0 -0.421214,-0.1406501 -0.421214,-0.4125719 0,-0.1406481 0.03008,-0.4031961 0.07019,-0.6188574 l 0.310907,-1.884705 C 10.100333,6.5354022 9.5688023,6.4228822 9.0874145,6.4228822 c -1.2235246,0 -2.4570779,0.7782609 -2.4570779,2.4660549 0,0.815768 0.4312423,1.4721309 1.4742467,1.4721309 0.4713582,0 0.8925715,-0.168777 1.1733813,-0.4969611 h 0.040118 c 0.1404034,0.2906771 0.4613287,0.4969611 1.0229474,0.4969611 1.404046,0 2.316675,-1.1908319 2.316675,-2.7848592 0,-1.8190677 -1.434132,-3.0005244 -3.6204313,-3.0005244 -2.647628,0 -4.6132902,1.9222115 -4.6132902,4.3413828 0,2.0065998 1.2636401,3.2818238 3.6204304,3.2818238 0.8424259,0 1.6447371,-0.196911 2.1562121,-0.496964 z M 8.2851034,9.6484454 c -0.5215021,0 -0.772225,-0.2812987 -0.772225,-0.9095324 0,-0.9376655 0.6318206,-1.5940297 1.464219,-1.5940297 0.1905479,0 0.3710687,0.037508 0.4914149,0.075014 L 9.2378483,8.6920295 C 9.2177945,8.795171 9.1877093,9.0577179 9.1877093,9.1702364 9.0372768,9.4234068 8.6962937,9.6484454 8.2851083,9.6484454 Z"
     id="path42"
     style="fill:url(#linearGradient28);fill-opacity:1;stroke:none;stroke-width:0.25672;stroke-dasharray:none;stroke-opacity:0.3" />
  <rect
     style="opacity:0.5;fill:none;fill-opacity:0.996424;stroke:url(#linearGradient9);stroke-width:0.566102;stroke-dasharray:none;stroke-opacity:1"
     id="rect1-2-6"
     width="11.574203"
     height="11.508601"
     x="2.729686"
     y="2.6615164"
     rx="2.0246315"
     ry="2.0627522" />
</svg>
