<?xml version="1.0" encoding="UTF-8" standalone="no"?>
<svg
   width="64"
   height="64"
   version="1.1"
   viewBox="0 0 16.933 16.933"
   id="svg7"
   sodipodi:docname="Template 4.svg"
   inkscape:version="1.3.2 (091e20ef0f, 2023-11-25)"
   xmlns:inkscape="http://www.inkscape.org/namespaces/inkscape"
   xmlns:sodipodi="http://sodipodi.sourceforge.net/DTD/sodipodi-0.dtd"
   xmlns:xlink="http://www.w3.org/1999/xlink"
   xmlns="http://www.w3.org/2000/svg"
   xmlns:svg="http://www.w3.org/2000/svg"
   xmlns:rdf="http://www.w3.org/1999/02/22-rdf-syntax-ns#"
   xmlns:cc="http://creativecommons.org/ns#"
   xmlns:dc="http://purl.org/dc/elements/1.1/">
  <sodipodi:namedview
     id="namedview7"
     pagecolor="#9c4444"
     bordercolor="#000000"
     borderopacity="0.25"
     inkscape:showpageshadow="2"
     inkscape:pageopacity="0.0"
     inkscape:pagecheckerboard="0"
     inkscape:deskcolor="#d1d1d1"
     inkscape:zoom="4.3531261"
     inkscape:cx="32.964816"
     inkscape:cy="24.350317"
     inkscape:window-width="1463"
     inkscape:window-height="604"
     inkscape:window-x="199"
     inkscape:window-y="276"
     inkscape:window-maximized="0"
     inkscape:current-layer="svg7"
     showgrid="false" />
  <defs
     id="defs2">
    <linearGradient
       id="linearGradient5"
       inkscape:collect="always">
      <stop
         style="stop-color:#392713;stop-opacity:1;"
         offset="0"
         id="stop2" />
      <stop
         style="stop-color:#eed59e;stop-opacity:1;"
         offset="0.5"
         id="stop3" />
      <stop
         style="stop-color:#beaa8a;stop-opacity:1;"
         offset="1"
         id="stop4" />
    </linearGradient>
    <linearGradient
       id="linearGradient8"
       inkscape:collect="always">
      <stop
         style="stop-color:#1a1a1a;stop-opacity:1;"
         offset="0"
         id="stop8" />
      <stop
         style="stop-color:#ffffff;stop-opacity:0;"
         offset="1"
         id="stop9" />
    </linearGradient>
    <linearGradient
       inkscape:collect="always"
       xlink:href="#linearGradient5"
       id="linearGradient41"
       x1="13.675659"
       y1="16.110115"
       x2="13.728528"
       y2="10.548769"
       gradientUnits="userSpaceOnUse"
       gradientTransform="matrix(2.046153,0,0,2.046153,-18.798306,-18.911347)" />
    <linearGradient
       inkscape:collect="always"
       xlink:href="#linearGradient42"
       id="linearGradient4"
       x1="11.885941"
       y1="16.50819"
       x2="12.026573"
       y2="10.244942"
       gradientUnits="userSpaceOnUse"
       gradientTransform="matrix(2.046153,0,0,2.046153,-18.798306,-18.911347)" />
    <linearGradient
       id="linearGradient42"
       inkscape:collect="always">
      <stop
         style="stop-color:#010101;stop-opacity:1;"
         offset="0"
         id="stop42" />
      <stop
         style="stop-color:#6e6c6d;stop-opacity:1;"
         offset="1"
         id="stop43" />
    </linearGradient>
    <linearGradient
       inkscape:collect="always"
       xlink:href="#linearGradient8"
       id="linearGradient9"
       x1="9.3404646"
       y1="4.1692023"
       x2="9.4279938"
       y2="16.46883"
       gradientUnits="userSpaceOnUse"
       gradientTransform="matrix(1.05,0,0,1.05,-0.50277005,-0.1977751)" />
    <filter
       style="color-interpolation-filters:sRGB;"
       inkscape:label="Blur"
       id="filter2"
       x="-0.14510849"
       y="-0.14612901"
       width="1.290217"
       height="1.292258">
      <feGaussianBlur
         stdDeviation="0.6 0.6"
         result="blur"
         id="feGaussianBlur2" />
    </filter>
    <linearGradient
       inkscape:collect="always"
       xlink:href="#linearGradient5"
       id="linearGradient6"
       x1="34.20266"
       y1="44.620358"
       x2="34.108135"
       y2="21.07497"
       gradientUnits="userSpaceOnUse" />
    <linearGradient
       inkscape:collect="always"
       xlink:href="#linearGradient5"
       id="linearGradient10"
       x1="34.20266"
       y1="44.620358"
       x2="34.108135"
       y2="21.07497"
       gradientUnits="userSpaceOnUse" />
  </defs>
  <metadata
     id="metadata2">
    <rdf:RDF>
      <cc:Work
         rdf:about="">
        <dc:format>image/svg+xml</dc:format>
        <dc:type
           rdf:resource="http://purl.org/dc/dcmitype/StillImage" />
      </cc:Work>
    </rdf:RDF>
  </metadata>
  <rect
     style="fill:#000000;fill-opacity:0.996424;stroke:#000000;stroke-width:0.911802;stroke-dasharray:none;stroke-opacity:1;filter:url(#filter2)"
     id="rect1-2-3"
     width="13.065404"
     height="12.974159"
     x="1.9816793"
     y="1.9267306"
     rx="2.7149384"
     ry="2.8310909" />
  <rect
     style="fill:url(#linearGradient4);fill-opacity:0.996424;stroke:url(#linearGradient41);stroke-width:0.911802;stroke-dasharray:none;stroke-opacity:1"
     id="rect1-2"
     width="13.065404"
     height="12.974159"
     x="1.9816793"
     y="1.9267306"
     rx="2.7149384"
     ry="2.8310909" />
  <g
     id="text1-6"
     style="fill:#000000;stroke:#000000;opacity:0.3"
     aria-label="2    0&#10;4    8"
     transform="matrix(0.32013953,0,0,0.32013953,-1.7002552,-1.5588464)">
    <path
       d="m 25.334519,29.609768 h -5.664 v -0.876 l 2.244,-2.268 q 0.648,-0.648 1.092,-1.152 0.444,-0.504 0.672,-0.984 0.228,-0.492 0.228,-1.068 0,-0.708 -0.42,-1.068 -0.42,-0.372 -1.092,-0.372 -0.624,0 -1.104,0.216 -0.468,0.216 -0.96,0.6 l -0.564,-0.708 q 0.336,-0.288 0.732,-0.516 0.408,-0.228 0.876,-0.36 0.48,-0.132 1.02,-0.132 0.804,0 1.38,0.276 0.576,0.276 0.888,0.792 0.324,0.504 0.324,1.212 0,0.672 -0.276,1.26 -0.276,0.588 -0.768,1.164 -0.492,0.564 -1.152,1.212 l -1.788,1.764 v 0.048 h 4.332 z m 19.380017,-4.296 q 0,1.044 -0.156,1.86 -0.156,0.816 -0.504,1.392 -0.336,0.564 -0.888,0.864 -0.54,0.3 -1.308,0.3 -0.96,0 -1.596,-0.528 -0.624,-0.528 -0.936,-1.512 -0.3,-0.996 -0.3,-2.376 0,-1.392 0.276,-2.376 0.288,-0.984 0.912,-1.5 0.624,-0.528 1.644,-0.528 0.96,0 1.596,0.528 0.636,0.516 0.948,1.5 0.312,0.984 0.312,2.376 z m -4.632,0 q 0,1.176 0.168,1.956 0.18,0.78 0.564,1.176 0.396,0.384 1.044,0.384 0.648,0 1.032,-0.384 0.396,-0.384 0.576,-1.164 0.18,-0.792 0.18,-1.968 0,-1.176 -0.18,-1.944 -0.18,-0.78 -0.576,-1.164 -0.384,-0.396 -1.032,-0.396 -0.648,0 -1.044,0.396 -0.384,0.384 -0.564,1.164 -0.168,0.768 -0.168,1.944 z"
       id="path2-2"
       style="fill:#000000;stroke:#000000" />
    <path
       d="m 25.718519,42.665768 h -1.248 v 1.944 h -1.02 v -1.944 h -4.104 v -0.9 l 4.032,-5.772 h 1.092 v 5.724 h 1.248 z m -2.268,-3.648 q 0,-0.312 0,-0.564 0.012,-0.264 0.024,-0.492 0.012,-0.228 0.012,-0.432 0.012,-0.216 0.024,-0.408 h -0.048 q -0.096,0.228 -0.24,0.492 -0.144,0.264 -0.276,0.444 l -2.568,3.66 h 3.072 z m 18.408017,-3.096 q 0.756,0 1.332,0.24 0.576,0.228 0.9,0.684 0.336,0.456 0.336,1.128 0,0.516 -0.228,0.9 -0.216,0.384 -0.588,0.684 -0.372,0.288 -0.816,0.516 0.528,0.252 0.96,0.576 0.432,0.312 0.684,0.732 0.264,0.42 0.264,1.008 0,0.72 -0.348,1.248 -0.348,0.516 -0.984,0.804 -0.624,0.288 -1.476,0.288 -0.924,0 -1.572,-0.276 -0.636,-0.276 -0.972,-0.78 -0.324,-0.516 -0.324,-1.248 0,-0.588 0.24,-1.02 0.252,-0.432 0.66,-0.744 0.408,-0.312 0.876,-0.528 -0.42,-0.24 -0.768,-0.54 -0.336,-0.312 -0.54,-0.708 -0.192,-0.396 -0.192,-0.924 0,-0.66 0.336,-1.104 0.336,-0.456 0.912,-0.696 0.576,-0.24 1.308,-0.24 z m -1.8,6.516 q 0,0.624 0.444,1.044 0.444,0.408 1.368,0.408 0.876,0 1.332,-0.408 0.468,-0.42 0.468,-1.08 0,-0.42 -0.228,-0.732 -0.216,-0.324 -0.624,-0.576 -0.396,-0.252 -0.948,-0.456 l -0.192,-0.072 q -0.528,0.228 -0.888,0.492 -0.36,0.264 -0.552,0.6 -0.18,0.336 -0.18,0.78 z m 1.788,-5.664 q -0.66,0 -1.092,0.324 -0.42,0.312 -0.42,0.912 0,0.444 0.204,0.744 0.216,0.3 0.576,0.516 0.36,0.204 0.792,0.396 0.42,-0.18 0.744,-0.396 0.336,-0.216 0.528,-0.516 0.204,-0.312 0.204,-0.744 0,-0.6 -0.42,-0.912 -0.42,-0.324 -1.116,-0.324 z"
       id="path3-9"
       style="fill:#000000;stroke:#000000" />
  </g>
  <g
     id="text1"
     style="fill:url(#linearGradient6);stroke:url(#linearGradient10)"
     aria-label="2    0&#10;4    8"
     transform="matrix(0.32013953,0,0,0.32013953,-1.7002552,-2.0880027)">
    <path
       d="m 25.334519,29.609768 h -5.664 v -0.876 l 2.244,-2.268 q 0.648,-0.648 1.092,-1.152 0.444,-0.504 0.672,-0.984 0.228,-0.492 0.228,-1.068 0,-0.708 -0.42,-1.068 -0.42,-0.372 -1.092,-0.372 -0.624,0 -1.104,0.216 -0.468,0.216 -0.96,0.6 l -0.564,-0.708 q 0.336,-0.288 0.732,-0.516 0.408,-0.228 0.876,-0.36 0.48,-0.132 1.02,-0.132 0.804,0 1.38,0.276 0.576,0.276 0.888,0.792 0.324,0.504 0.324,1.212 0,0.672 -0.276,1.26 -0.276,0.588 -0.768,1.164 -0.492,0.564 -1.152,1.212 l -1.788,1.764 v 0.048 h 4.332 z m 19.380017,-4.296 q 0,1.044 -0.156,1.86 -0.156,0.816 -0.504,1.392 -0.336,0.564 -0.888,0.864 -0.54,0.3 -1.308,0.3 -0.96,0 -1.596,-0.528 -0.624,-0.528 -0.936,-1.512 -0.3,-0.996 -0.3,-2.376 0,-1.392 0.276,-2.376 0.288,-0.984 0.912,-1.5 0.624,-0.528 1.644,-0.528 0.96,0 1.596,0.528 0.636,0.516 0.948,1.5 0.312,0.984 0.312,2.376 z m -4.632,0 q 0,1.176 0.168,1.956 0.18,0.78 0.564,1.176 0.396,0.384 1.044,0.384 0.648,0 1.032,-0.384 0.396,-0.384 0.576,-1.164 0.18,-0.792 0.18,-1.968 0,-1.176 -0.18,-1.944 -0.18,-0.78 -0.576,-1.164 -0.384,-0.396 -1.032,-0.396 -0.648,0 -1.044,0.396 -0.384,0.384 -0.564,1.164 -0.168,0.768 -0.168,1.944 z"
       id="path2"
       style="fill:url(#linearGradient6);stroke:url(#linearGradient10)" />
    <path
       d="m 25.718519,42.665768 h -1.248 v 1.944 h -1.02 v -1.944 h -4.104 v -0.9 l 4.032,-5.772 h 1.092 v 5.724 h 1.248 z m -2.268,-3.648 q 0,-0.312 0,-0.564 0.012,-0.264 0.024,-0.492 0.012,-0.228 0.012,-0.432 0.012,-0.216 0.024,-0.408 h -0.048 q -0.096,0.228 -0.24,0.492 -0.144,0.264 -0.276,0.444 l -2.568,3.66 h 3.072 z m 18.408017,-3.096 q 0.756,0 1.332,0.24 0.576,0.228 0.9,0.684 0.336,0.456 0.336,1.128 0,0.516 -0.228,0.9 -0.216,0.384 -0.588,0.684 -0.372,0.288 -0.816,0.516 0.528,0.252 0.96,0.576 0.432,0.312 0.684,0.732 0.264,0.42 0.264,1.008 0,0.72 -0.348,1.248 -0.348,0.516 -0.984,0.804 -0.624,0.288 -1.476,0.288 -0.924,0 -1.572,-0.276 -0.636,-0.276 -0.972,-0.78 -0.324,-0.516 -0.324,-1.248 0,-0.588 0.24,-1.02 0.252,-0.432 0.66,-0.744 0.408,-0.312 0.876,-0.528 -0.42,-0.24 -0.768,-0.54 -0.336,-0.312 -0.54,-0.708 -0.192,-0.396 -0.192,-0.924 0,-0.66 0.336,-1.104 0.336,-0.456 0.912,-0.696 0.576,-0.24 1.308,-0.24 z m -1.8,6.516 q 0,0.624 0.444,1.044 0.444,0.408 1.368,0.408 0.876,0 1.332,-0.408 0.468,-0.42 0.468,-1.08 0,-0.42 -0.228,-0.732 -0.216,-0.324 -0.624,-0.576 -0.396,-0.252 -0.948,-0.456 l -0.192,-0.072 q -0.528,0.228 -0.888,0.492 -0.36,0.264 -0.552,0.6 -0.18,0.336 -0.18,0.78 z m 1.788,-5.664 q -0.66,0 -1.092,0.324 -0.42,0.312 -0.42,0.912 0,0.444 0.204,0.744 0.216,0.3 0.576,0.516 0.36,0.204 0.792,0.396 0.42,-0.18 0.744,-0.396 0.336,-0.216 0.528,-0.516 0.204,-0.312 0.204,-0.744 0,-0.6 -0.42,-0.912 -0.42,-0.324 -1.116,-0.324 z"
       id="path3"
       style="fill:url(#linearGradient6);stroke:url(#linearGradient10)" />
  </g>
  <rect
     style="opacity:0.5;fill:none;fill-opacity:0.996424;stroke:url(#linearGradient9);stroke-width:0.566102;stroke-dasharray:none;stroke-opacity:1"
     id="rect1-2-6"
     width="11.574203"
     height="11.508601"
     x="2.729686"
     y="2.6615164"
     rx="2.0246315"
     ry="2.0627522" />
</svg>
