<?xml version="1.0" encoding="UTF-8" standalone="no"?>
<svg
   width="64"
   height="64"
   version="1.1"
   viewBox="0 0 16.933 16.933"
   id="svg7"
   sodipodi:docname="Template 4.svg"
   inkscape:version="1.3.2 (091e20ef0f, 2023-11-25)"
   xmlns:inkscape="http://www.inkscape.org/namespaces/inkscape"
   xmlns:sodipodi="http://sodipodi.sourceforge.net/DTD/sodipodi-0.dtd"
   xmlns:xlink="http://www.w3.org/1999/xlink"
   xmlns="http://www.w3.org/2000/svg"
   xmlns:svg="http://www.w3.org/2000/svg"
   xmlns:rdf="http://www.w3.org/1999/02/22-rdf-syntax-ns#"
   xmlns:cc="http://creativecommons.org/ns#"
   xmlns:dc="http://purl.org/dc/elements/1.1/">
  <sodipodi:namedview
     id="namedview7"
     pagecolor="#9c4444"
     bordercolor="#000000"
     borderopacity="0.25"
     inkscape:showpageshadow="2"
     inkscape:pageopacity="0.0"
     inkscape:pagecheckerboard="0"
     inkscape:deskcolor="#d1d1d1"
     inkscape:zoom="4.3531261"
     inkscape:cx="32.964816"
     inkscape:cy="24.350317"
     inkscape:window-width="1463"
     inkscape:window-height="604"
     inkscape:window-x="199"
     inkscape:window-y="276"
     inkscape:window-maximized="0"
     inkscape:current-layer="svg7"
     showgrid="false" />
  <defs
     id="defs2">
    <linearGradient
       id="linearGradient5"
       inkscape:collect="always">
      <stop
         style="stop-color:#392713;stop-opacity:1;"
         offset="0"
         id="stop2" />
      <stop
         style="stop-color:#eed59e;stop-opacity:1;"
         offset="0.5"
         id="stop3" />
      <stop
         style="stop-color:#beaa8a;stop-opacity:1;"
         offset="1"
         id="stop4" />
    </linearGradient>
    <linearGradient
       id="linearGradient8"
       inkscape:collect="always">
      <stop
         style="stop-color:#1a1a1a;stop-opacity:1;"
         offset="0"
         id="stop8" />
      <stop
         style="stop-color:#ffffff;stop-opacity:0;"
         offset="1"
         id="stop9" />
    </linearGradient>
    <linearGradient
       inkscape:collect="always"
       xlink:href="#linearGradient5"
       id="linearGradient41"
       x1="13.675659"
       y1="16.110115"
       x2="13.728528"
       y2="10.548769"
       gradientUnits="userSpaceOnUse"
       gradientTransform="matrix(2.046153,0,0,2.046153,-18.798306,-18.911347)" />
    <linearGradient
       inkscape:collect="always"
       xlink:href="#linearGradient42"
       id="linearGradient4"
       x1="11.885941"
       y1="16.50819"
       x2="12.026573"
       y2="10.244942"
       gradientUnits="userSpaceOnUse"
       gradientTransform="matrix(2.046153,0,0,2.046153,-18.798306,-18.911347)" />
    <linearGradient
       id="linearGradient42"
       inkscape:collect="always">
      <stop
         style="stop-color:#010101;stop-opacity:1;"
         offset="0"
         id="stop42" />
      <stop
         style="stop-color:#6e6c6d;stop-opacity:1;"
         offset="1"
         id="stop43" />
    </linearGradient>
    <linearGradient
       inkscape:collect="always"
       xlink:href="#linearGradient8"
       id="linearGradient9"
       x1="9.3404646"
       y1="4.1692023"
       x2="9.4279938"
       y2="16.46883"
       gradientUnits="userSpaceOnUse"
       gradientTransform="matrix(1.05,0,0,1.05,-0.50277005,-0.1977751)" />
    <filter
       style="color-interpolation-filters:sRGB;"
       inkscape:label="Blur"
       id="filter2"
       x="-0.14510849"
       y="-0.14612901"
       width="1.290217"
       height="1.292258">
      <feGaussianBlur
         stdDeviation="0.6 0.6"
         result="blur"
         id="feGaussianBlur2" />
    </filter>
    <linearGradient
       inkscape:collect="always"
       xlink:href="#linearGradient5"
       id="linearGradient8-6"
       x1="33.802116"
       y1="50.01384"
       x2="33.780945"
       y2="14.238887"
       gradientUnits="userSpaceOnUse"
       gradientTransform="matrix(0.2121652,0,0,0.2121652,1.6992172,1.5829527)" />
  </defs>
  <metadata
     id="metadata2">
    <rdf:RDF>
      <cc:Work
         rdf:about="">
        <dc:format>image/svg+xml</dc:format>
        <dc:type
           rdf:resource="http://purl.org/dc/dcmitype/StillImage" />
      </cc:Work>
    </rdf:RDF>
  </metadata>
  <rect
     style="fill:#000000;fill-opacity:0.996424;stroke:#000000;stroke-width:0.911802;stroke-dasharray:none;stroke-opacity:1;filter:url(#filter2)"
     id="rect1-2-3"
     width="13.065404"
     height="12.974159"
     x="1.9816793"
     y="1.9267306"
     rx="2.7149384"
     ry="2.8310909" />
  <rect
     style="fill:url(#linearGradient4);fill-opacity:0.996424;stroke:url(#linearGradient41);stroke-width:0.911802;stroke-dasharray:none;stroke-opacity:1"
     id="rect1-2"
     width="13.065404"
     height="12.974159"
     x="1.9816793"
     y="1.9267306"
     rx="2.7149384"
     ry="2.8310909" />
  <path
     id="path10-4"
     style="fill:#000000;fill-opacity:1;stroke-width:0.0379099;stroke-opacity:0.3;opacity:0.3"
     d="M 8.5406521,5.0921734 C 7.1175693,5.0951543 5.7247368,5.8692229 5.0449387,7.2350005 4.7476826,7.832215 4.6421349,8.2945765 4.646548,8.9789814 c 0.00256,0.3976859 0.021541,0.5636832 0.098914,0.8605956 0.3931063,1.508529 1.5844065,2.610929 3.1210265,2.888554 0.595084,0.107515 1.3225255,0.05216 1.9007865,-0.144952 C 11.692988,11.926724 12.792813,9.9544475 12.31624,8.0121796 12.100878,7.1344779 11.491422,6.2790813 10.703538,5.7481037 10.039686,5.3007184 9.2860766,5.0906116 8.5406521,5.0921734 Z m 0.020966,0.8177474 c 0.5601201,4.88e-4 0.6037379,0.00608 0.9289694,0.119426 0.5458335,0.1902194 0.8285825,0.36667 1.2339145,0.7698861 0.296136,0.2945891 0.394031,0.4225926 0.538328,0.7037916 0.271453,0.5289966 0.348727,0.8469691 0.347792,1.4381241 -8.02e-4,0.5812159 -0.05594,0.8235271 -0.29993,1.3264464 -0.409463,0.844012 -1.201005,1.463236 -2.1109208,1.650993 C 7.5309972,12.262934 5.9417924,11.286998 5.529477,9.6645407 5.4261684,9.25802 5.4262539,8.6396676 5.529477,8.2090957 5.7352672,7.3506885 6.3365321,6.6051236 7.1403587,6.2121319 7.6697206,5.953327 7.8771679,5.9093374 8.5616181,5.9099208 Z M 9.6505817,6.7632227 C 9.5823428,6.7620345 9.5119663,6.7815964 9.4677958,6.821569 9.4312066,6.8546779 9.2084256,7.2186502 8.972315,7.6306557 8.5450421,8.3762353 8.5419659,8.3802071 8.3647019,8.4433893 8.1581499,8.5170112 8.0323144,8.6686833 8.0041458,8.8787011 L 7.9850044,9.0218297 7.0450956,9.5036351 C 6.5281296,9.7686833 6.083757,10.01112 6.0577803,10.042419 c -0.035945,0.04332 -0.037039,0.0796 -0.00459,0.150877 0.048912,0.107353 0.2065336,0.127369 0.3300166,0.04194 C 6.4243271,10.206783 6.8400085,9.991382 7.3071583,9.7566207 8.1471273,9.3345023 8.157672,9.3301602 8.260746,9.391047 8.4032557,9.4752285 8.6669221,9.4691446 8.8159399,9.3782832 8.9971215,9.2678103 9.0677142,9.1026548 9.0443079,8.8445135 l -0.0196,-0.2151487 0.451266,-0.7894864 C 9.941313,7.0257077 9.956676,6.9814404 9.8214885,6.827494 9.7851551,6.7861211 9.7187957,6.7644085 9.6505547,6.7632222 Z M 8.5233295,8.6567146 c 0.2696,0 0.4062051,0.3077316 0.2160602,0.4863637 -0.1886606,0.1772373 -0.4959362,0.055896 -0.4959362,-0.1955482 0,-0.1843522 0.1026763,-0.2908155 0.279876,-0.2908155 z" />
  <path
     id="path10"
     style="fill:url(#linearGradient8-6);fill-opacity:1;stroke-width:0.0379099;stroke-opacity:0.3"
     d="M 8.5406521,4.5630172 C 7.1175693,4.5659981 5.7247368,5.3400667 5.0449387,6.7058443 4.7476826,7.3030588 4.6421349,7.7654203 4.646548,8.4498252 4.649113,8.8475111 4.6680895,9.0135084 4.7454622,9.3104208 5.1385685,10.81895 6.3298687,11.92135 7.8664887,12.198975 8.4615727,12.30649 9.1890142,12.251139 9.7672752,12.054023 11.692988,11.397568 12.792813,9.4252913 12.31624,7.4830234 12.100878,6.6053217 11.491422,5.7499251 10.703538,5.2189475 10.039686,4.7715622 9.2860766,4.5614554 8.5406521,4.5630172 Z m 0.020966,0.8177474 c 0.5601201,4.88e-4 0.6037379,0.00608 0.9289694,0.119426 0.5458335,0.1902194 0.8285825,0.36667 1.2339145,0.7698861 0.296136,0.2945891 0.394031,0.4225926 0.538328,0.7037916 0.271453,0.5289966 0.348727,0.8469691 0.347792,1.4381241 -8.02e-4,0.5812159 -0.05594,0.8235271 -0.29993,1.3264463 C 10.901229,10.582451 10.109687,11.201675 9.1997712,11.389432 7.5309972,11.733778 5.9417924,10.757842 5.529477,9.1353845 5.4261684,8.7288638 5.4262539,8.1105114 5.529477,7.6799395 5.7352672,6.8215323 6.3365321,6.0759674 7.1403587,5.6829757 7.6697206,5.4241708 7.8771679,5.3801812 8.5616181,5.3807646 Z M 9.6505817,6.2340665 C 9.5823428,6.2328783 9.5119663,6.2524402 9.4677958,6.2924128 9.4312066,6.3255217 9.2084256,6.689494 8.972315,7.1014995 8.5450421,7.8470791 8.5419659,7.8510509 8.3647019,7.9142331 8.1581499,7.987855 8.0323144,8.1395271 8.0041458,8.3495449 L 7.9850044,8.4926735 7.0450956,8.9744789 C 6.5281296,9.2395271 6.083757,9.4819636 6.0577803,9.5132628 6.0218349,9.55658 6.0207414,9.592859 6.0531876,9.6641399 6.1020992,9.7714932 6.2597212,9.7915091 6.3832042,9.7060792 6.4243271,9.6776264 6.8400085,9.4622258 7.3071583,9.2274645 8.1471273,8.8053461 8.157672,8.801004 8.260746,8.8618908 8.4032557,8.9460723 8.6669221,8.9399884 8.8159399,8.849127 8.9971215,8.7386541 9.0677142,8.5734986 9.0443079,8.3153573 l -0.0196,-0.2151487 0.451266,-0.7894864 C 9.941313,6.4965515 9.956676,6.4522842 9.8214885,6.2983378 9.7851551,6.2569649 9.7187957,6.2352523 9.6505547,6.234066 Z M 8.5233295,8.1275584 c 0.2696,0 0.4062051,0.3077316 0.2160602,0.4863637 -0.1886606,0.1772373 -0.4959362,0.055896 -0.4959362,-0.1955482 0,-0.1843522 0.1026763,-0.2908155 0.279876,-0.2908155 z" />
  <rect
     style="opacity:0.5;fill:none;fill-opacity:0.996424;stroke:url(#linearGradient9);stroke-width:0.566102;stroke-dasharray:none;stroke-opacity:1"
     id="rect1-2-6"
     width="11.574203"
     height="11.508601"
     x="2.729686"
     y="2.6615164"
     rx="2.0246315"
     ry="2.0627522" />
</svg>
