<?xml version="1.0" encoding="UTF-8" standalone="no"?>
<svg
   width="64"
   height="64"
   version="1.1"
   viewBox="0 0 16.933 16.933"
   id="svg7"
   sodipodi:docname="Template 4.svg"
   inkscape:version="1.3.2 (091e20ef0f, 2023-11-25)"
   xmlns:inkscape="http://www.inkscape.org/namespaces/inkscape"
   xmlns:sodipodi="http://sodipodi.sourceforge.net/DTD/sodipodi-0.dtd"
   xmlns:xlink="http://www.w3.org/1999/xlink"
   xmlns="http://www.w3.org/2000/svg"
   xmlns:svg="http://www.w3.org/2000/svg"
   xmlns:rdf="http://www.w3.org/1999/02/22-rdf-syntax-ns#"
   xmlns:cc="http://creativecommons.org/ns#"
   xmlns:dc="http://purl.org/dc/elements/1.1/">
  <sodipodi:namedview
     id="namedview7"
     pagecolor="#9c4444"
     bordercolor="#000000"
     borderopacity="0.25"
     inkscape:showpageshadow="2"
     inkscape:pageopacity="0.0"
     inkscape:pagecheckerboard="0"
     inkscape:deskcolor="#d1d1d1"
     inkscape:zoom="4.3531261"
     inkscape:cx="32.849956"
     inkscape:cy="24.465177"
     inkscape:window-width="1356"
     inkscape:window-height="973"
     inkscape:window-x="35"
     inkscape:window-y="32"
     inkscape:window-maximized="0"
     inkscape:current-layer="svg7"
     showgrid="false" />
  <defs
     id="defs2">
    <linearGradient
       id="linearGradient5"
       inkscape:collect="always">
      <stop
         style="stop-color:#392713;stop-opacity:1;"
         offset="0"
         id="stop2" />
      <stop
         style="stop-color:#eed59e;stop-opacity:1;"
         offset="0.5"
         id="stop3" />
      <stop
         style="stop-color:#beaa8a;stop-opacity:1;"
         offset="1"
         id="stop4" />
    </linearGradient>
    <linearGradient
       id="linearGradient8"
       inkscape:collect="always">
      <stop
         style="stop-color:#1a1a1a;stop-opacity:1;"
         offset="0"
         id="stop8" />
      <stop
         style="stop-color:#ffffff;stop-opacity:0;"
         offset="1"
         id="stop9" />
    </linearGradient>
    <linearGradient
       inkscape:collect="always"
       xlink:href="#linearGradient5"
       id="linearGradient41"
       x1="13.675659"
       y1="16.110115"
       x2="13.728528"
       y2="10.548769"
       gradientUnits="userSpaceOnUse"
       gradientTransform="matrix(2.046153,0,0,2.046153,-18.798306,-18.911347)" />
    <linearGradient
       inkscape:collect="always"
       xlink:href="#linearGradient42"
       id="linearGradient4"
       x1="11.885941"
       y1="16.50819"
       x2="12.026573"
       y2="10.244942"
       gradientUnits="userSpaceOnUse"
       gradientTransform="matrix(2.046153,0,0,2.046153,-18.798306,-18.911347)" />
    <linearGradient
       id="linearGradient42"
       inkscape:collect="always">
      <stop
         style="stop-color:#010101;stop-opacity:1;"
         offset="0"
         id="stop42" />
      <stop
         style="stop-color:#6e6c6d;stop-opacity:1;"
         offset="1"
         id="stop43" />
    </linearGradient>
    <linearGradient
       inkscape:collect="always"
       xlink:href="#linearGradient8"
       id="linearGradient9"
       x1="9.3404646"
       y1="4.1692023"
       x2="9.4279938"
       y2="16.46883"
       gradientUnits="userSpaceOnUse"
       gradientTransform="matrix(1.05,0,0,1.05,-0.50277005,-0.1977751)" />
    <filter
       style="color-interpolation-filters:sRGB;"
       inkscape:label="Blur"
       id="filter2"
       x="-0.14510849"
       y="-0.14612901"
       width="1.290217"
       height="1.292258">
      <feGaussianBlur
         stdDeviation="0.6 0.6"
         result="blur"
         id="feGaussianBlur2" />
    </filter>
    <linearGradient
       inkscape:collect="always"
       xlink:href="#linearGradient5"
       id="linearGradient30"
       x1="33.359959"
       y1="49.876369"
       x2="33.208946"
       y2="14.495747"
       gradientUnits="userSpaceOnUse"
       gradientTransform="matrix(0.23573911,0,0,0.23573911,0.96574811,0.86680472)" />
  </defs>
  <metadata
     id="metadata2">
    <rdf:RDF>
      <cc:Work
         rdf:about="">
        <dc:format>image/svg+xml</dc:format>
        <dc:type
           rdf:resource="http://purl.org/dc/dcmitype/StillImage" />
      </cc:Work>
    </rdf:RDF>
  </metadata>
  <rect
     style="fill:#000000;fill-opacity:0.996424;stroke:#000000;stroke-width:0.911802;stroke-dasharray:none;stroke-opacity:1;filter:url(#filter2)"
     id="rect1-2-3"
     width="13.065404"
     height="12.974159"
     x="1.9816793"
     y="1.9267306"
     rx="2.7149384"
     ry="2.8310909" />
  <rect
     style="fill:url(#linearGradient4);fill-opacity:0.996424;stroke:url(#linearGradient41);stroke-width:0.911802;stroke-dasharray:none;stroke-opacity:1"
     id="rect1-2"
     width="13.065404"
     height="12.974159"
     x="1.9816793"
     y="1.9267306"
     rx="2.7149384"
     ry="2.8310909" />
  <path
     d="M 8.5615903,4.7717526 A 4.0594784,4.1624594 0 0 0 4.501862,8.933956 4.0594784,4.1624594 0 0 0 8.5615903,13.096671 4.0594784,4.1624594 0 0 0 12.621319,8.933956 4.0594784,4.1624594 0 0 0 8.5615903,4.7717526 Z m 0,0.5295304 A 3.543149,3.6330313 0 0 1 10.189352,5.7107955 L 9.6539218,6.6493269 A 2.4835503,2.5465524 0 0 0 8.5615903,6.3873264 2.4835503,2.5465524 0 0 0 7.4843642,6.6428368 L 6.9274619,5.7122936 A 3.543149,3.6330313 0 0 1 8.5615654,5.30127 Z m 0,1.5885645 A 1.9935612,2.0441339 0 0 1 10.555102,8.9339305 1.9935612,2.0441339 0 0 1 8.5615903,10.978013 1.9935612,2.0441339 0 0 1 6.5680786,8.9339307 1.9935612,2.0441339 0 0 1 8.5615903,6.8898475 Z m 3.1399247,0.3650191 a 3.543149,3.6330313 0 0 1 0.402801,1.6790639 3.543149,3.6330313 0 0 1 -0.401828,1.6745575 L 10.788624,10.057479 A 2.4835503,2.5465524 0 0 0 11.045117,8.9339305 2.4835503,2.5465524 0 0 0 10.781309,7.7988866 l 0.92018,-0.54402 z M 5.4099329,7.2823657 6.3330592,7.8128941 A 2.4835503,2.5465524 0 0 0 6.0780154,8.9339345 2.4835503,2.5465524 0 0 0 6.3403749,10.066982 L 5.418222,10.607495 A 3.543149,3.6330313 0 0 1 5.0183415,8.9339345 3.543149,3.6330313 0 0 1 5.4099329,7.2823657 Z m 2.0578778,3.9361463 a 2.4835503,2.5465524 0 0 0 1.0938049,0.262 2.4835503,2.5465524 0 0 0 1.0747789,-0.254509 l 0.5656665,0.926038 A 3.543149,3.6330313 0 0 1 8.5616156,12.567058 3.543149,3.6330313 0 0 1 6.9099602,12.14605 l 0.5578754,-0.927522 z"
     fill="url(#linearGradient898)"
     stroke-width="0.664406"
     id="path27-8"
     style="fill:#000000;fill-opacity:1;stroke:none;stroke-width:0.25672;stroke-dasharray:none;stroke-opacity:0.3;opacity:0.3" />
  <path
     d="M 8.5615903,4.2425964 A 4.0594784,4.1624594 0 0 0 4.501862,8.4047998 4.0594784,4.1624594 0 0 0 8.5615903,12.567515 4.0594784,4.1624594 0 0 0 12.621319,8.4047998 4.0594784,4.1624594 0 0 0 8.5615903,4.2425964 Z m 0,0.5295304 A 3.543149,3.6330313 0 0 1 10.189352,5.1816393 L 9.6539218,6.1201707 A 2.4835503,2.5465524 0 0 0 8.5615903,5.8581702 2.4835503,2.5465524 0 0 0 7.4843642,6.1136806 L 6.9274619,5.1831374 A 3.543149,3.6330313 0 0 1 8.5615654,4.7721138 Z m 0,1.5885645 A 1.9935612,2.0441339 0 0 1 10.555102,8.4047743 1.9935612,2.0441339 0 0 1 8.5615903,10.448857 1.9935612,2.0441339 0 0 1 6.5680786,8.4047745 1.9935612,2.0441339 0 0 1 8.5615903,6.3606913 Z m 3.1399247,0.3650191 a 3.543149,3.6330313 0 0 1 0.402801,1.6790639 3.543149,3.6330313 0 0 1 -0.401828,1.6745577 L 10.788624,9.528323 A 2.4835503,2.5465524 0 0 0 11.045117,8.4047743 2.4835503,2.5465524 0 0 0 10.781309,7.2697304 l 0.92018,-0.54402 z M 5.4099329,6.7532095 6.3330592,7.2837379 A 2.4835503,2.5465524 0 0 0 6.0780154,8.4047783 2.4835503,2.5465524 0 0 0 6.3403749,9.5378259 L 5.418222,10.078339 A 3.543149,3.6330313 0 0 1 5.0183415,8.4047783 3.543149,3.6330313 0 0 1 5.4099329,6.7532095 Z m 2.0578778,3.9361465 a 2.4835503,2.5465524 0 0 0 1.0938049,0.262 2.4835503,2.5465524 0 0 0 1.0747789,-0.254509 l 0.5656665,0.926038 A 3.543149,3.6330313 0 0 1 8.5616156,12.037902 3.543149,3.6330313 0 0 1 6.9099602,11.616894 l 0.5578754,-0.927522 z"
     fill="url(#linearGradient898)"
     stroke-width="0.664406"
     id="path27"
     style="fill:url(#linearGradient30);fill-opacity:1;stroke:none;stroke-width:0.25672;stroke-dasharray:none;stroke-opacity:0.3" />
  <rect
     style="opacity:0.5;fill:none;fill-opacity:0.996424;stroke:url(#linearGradient9);stroke-width:0.566102;stroke-dasharray:none;stroke-opacity:1"
     id="rect1-2-6"
     width="11.574203"
     height="11.508601"
     x="2.729686"
     y="2.6615164"
     rx="2.0246315"
     ry="2.0627522" />
</svg>
