<?xml version="1.0" encoding="UTF-8" standalone="no"?>
<svg
   width="64"
   height="64"
   version="1.1"
   viewBox="0 0 16.933 16.933"
   id="svg7"
   sodipodi:docname="Template 4.svg"
   inkscape:version="1.3.2 (091e20ef0f, 2023-11-25)"
   xmlns:inkscape="http://www.inkscape.org/namespaces/inkscape"
   xmlns:sodipodi="http://sodipodi.sourceforge.net/DTD/sodipodi-0.dtd"
   xmlns:xlink="http://www.w3.org/1999/xlink"
   xmlns="http://www.w3.org/2000/svg"
   xmlns:svg="http://www.w3.org/2000/svg"
   xmlns:rdf="http://www.w3.org/1999/02/22-rdf-syntax-ns#"
   xmlns:cc="http://creativecommons.org/ns#"
   xmlns:dc="http://purl.org/dc/elements/1.1/">
  <sodipodi:namedview
     id="namedview7"
     pagecolor="#9c4444"
     bordercolor="#000000"
     borderopacity="0.25"
     inkscape:showpageshadow="2"
     inkscape:pageopacity="0.0"
     inkscape:pagecheckerboard="0"
     inkscape:deskcolor="#d1d1d1"
     inkscape:zoom="4.3531261"
     inkscape:cx="32.964816"
     inkscape:cy="24.350317"
     inkscape:window-width="1463"
     inkscape:window-height="604"
     inkscape:window-x="42"
     inkscape:window-y="99"
     inkscape:window-maximized="0"
     inkscape:current-layer="svg7"
     showgrid="false" />
  <defs
     id="defs2">
    <linearGradient
       id="linearGradient5"
       inkscape:collect="always">
      <stop
         style="stop-color:#392713;stop-opacity:1;"
         offset="0"
         id="stop2" />
      <stop
         style="stop-color:#eed59e;stop-opacity:1;"
         offset="0.5"
         id="stop3" />
      <stop
         style="stop-color:#beaa8a;stop-opacity:1;"
         offset="1"
         id="stop4" />
    </linearGradient>
    <linearGradient
       id="linearGradient8"
       inkscape:collect="always">
      <stop
         style="stop-color:#1a1a1a;stop-opacity:1;"
         offset="0"
         id="stop8" />
      <stop
         style="stop-color:#ffffff;stop-opacity:0;"
         offset="1"
         id="stop9" />
    </linearGradient>
    <linearGradient
       inkscape:collect="always"
       xlink:href="#linearGradient5"
       id="linearGradient41"
       x1="13.675659"
       y1="16.110115"
       x2="13.728528"
       y2="10.548769"
       gradientUnits="userSpaceOnUse"
       gradientTransform="matrix(2.046153,0,0,2.046153,-18.798306,-18.911347)" />
    <linearGradient
       inkscape:collect="always"
       xlink:href="#linearGradient42"
       id="linearGradient4"
       x1="11.885941"
       y1="16.50819"
       x2="12.026573"
       y2="10.244942"
       gradientUnits="userSpaceOnUse"
       gradientTransform="matrix(2.046153,0,0,2.046153,-18.798306,-18.911347)" />
    <linearGradient
       id="linearGradient42"
       inkscape:collect="always">
      <stop
         style="stop-color:#010101;stop-opacity:1;"
         offset="0"
         id="stop42" />
      <stop
         style="stop-color:#6e6c6d;stop-opacity:1;"
         offset="1"
         id="stop43" />
    </linearGradient>
    <linearGradient
       inkscape:collect="always"
       xlink:href="#linearGradient8"
       id="linearGradient9"
       x1="9.3404646"
       y1="4.1692023"
       x2="9.4279938"
       y2="16.46883"
       gradientUnits="userSpaceOnUse"
       gradientTransform="matrix(1.05,0,0,1.05,-0.50277005,-0.1977751)" />
    <filter
       style="color-interpolation-filters:sRGB;"
       inkscape:label="Blur"
       id="filter2"
       x="-0.14510849"
       y="-0.14612901"
       width="1.290217"
       height="1.292258">
      <feGaussianBlur
         stdDeviation="0.6 0.6"
         result="blur"
         id="feGaussianBlur2" />
    </filter>
    <linearGradient
       id="b"
       x2="1"
       gradientTransform="matrix(-0.15598952,-8.4517946,8.4517946,-0.15598952,8.6516278,12.692258)"
       gradientUnits="userSpaceOnUse">
      <stop
         stop-color="#b5c6cb"
         offset="0"
         id="stop3-4" />
      <stop
         stop-color="#fff"
         offset="1"
         id="stop4-3" />
    </linearGradient>
    <linearGradient
       inkscape:collect="always"
       xlink:href="#linearGradient5"
       id="linearGradient53"
       x1="9.2544737"
       y1="12.547666"
       x2="9.2443981"
       y2="4.1655149"
       gradientUnits="userSpaceOnUse" />
  </defs>
  <metadata
     id="metadata2">
    <rdf:RDF>
      <cc:Work
         rdf:about="">
        <dc:format>image/svg+xml</dc:format>
        <dc:type
           rdf:resource="http://purl.org/dc/dcmitype/StillImage" />
      </cc:Work>
    </rdf:RDF>
  </metadata>
  <rect
     style="fill:#000000;fill-opacity:0.996424;stroke:#000000;stroke-width:0.911802;stroke-dasharray:none;stroke-opacity:1;filter:url(#filter2)"
     id="rect1-2-3"
     width="13.065404"
     height="12.974159"
     x="1.9816793"
     y="1.9267306"
     rx="2.7149384"
     ry="2.8310909" />
  <rect
     style="fill:url(#linearGradient4);fill-opacity:0.996424;stroke:url(#linearGradient41);stroke-width:0.911802;stroke-dasharray:none;stroke-opacity:1"
     id="rect1-2"
     width="13.065404"
     height="12.974159"
     x="1.9816793"
     y="1.9267306"
     rx="2.7149384"
     ry="2.8310909" />
  <path
     d="m 7.1757581,4.4978777 c 0.093105,0.023336 0.4352839,0.1788284 0.6295901,0.1709704 0.1943062,-0.00762 0.5595827,0.2488358 0.5595827,0.2721715 0,0.023336 0.4305216,0.080484 0.6114929,0.144539 0.1190604,0.042147 0.2216901,0.2128797 0.6145891,0.4009947 0.220023,0.1052491 0.4738601,0.3302728 0.5905391,0.3848024 0.116678,0.054292 0.481717,0.2121652 0.55101,0.2905067 0.05738,0.065007 0.181924,0.2909831 0.187163,0.3545612 0.01262,0.1478727 0.03905,0.4307597 -0.005,0.627447 -0.02909,0.1290612 -0.298164,0.2981266 -0.402223,0.3309873 C 10.453723,7.4934312 10.191791,7.2595971 10.041299,7.2062582 9.6586389,7.0705295 9.7300746,7.1800649 9.1319165,7.1043426 9.01619,7.0898173 8.8161689,7.0419552 8.7694974,7.1198205 c -0.00214,0.00333 -0.014525,0.1559688 0.1266799,0.2897924 0.1476347,0.1400147 1.01725,0.8860457 1.3784797,1.2779917 0.201449,0.2181182 0.425759,0.5257696 0.375516,0.8862837 -0.05119,0.3683722 -0.310748,0.9015237 -0.341941,0.9715307 -0.03119,0.07001 -0.3769451,0.185258 -0.3807557,0.380992 -0.00855,0.420282 0.8046087,0.365753 0.8288977,0.796989 0.01643,0.297174 -0.221928,0.261932 -0.218118,0.332177 0.0045,0.08263 0.288602,0.09477 0.288602,0.242406 0,0.147635 -0.0095,0.546487 -0.0095,0.546487 0,0 -0.645306,0.376944 -2.1276061,0.363133 -1.2594183,-0.01191 -2.1678473,-0.301221 -2.1678473,-0.301221 0,0 -0.0031,-0.390042 0.00881,-0.549344 0.00833,-0.109536 0.2404981,-0.134062 0.2500229,-0.220975 0.00667,-0.06287 -0.2164513,-0.01381 -0.2152607,-0.316701 0.00143,-0.3598 0.7493645,-0.421949 0.7762722,-0.818895 0.01524,-0.224309 -0.088342,-0.299555 -0.088342,-0.299555 0,0 -0.7229333,-0.334321 -0.8160383,-0.45862 C 6.3440038,10.117993 6.9819282,10.039176 7.036934,9.4734015 7.0986071,8.8357154 6.7404742,8.0813503 6.4837805,7.2650739 6.227325,6.4490355 6.4294891,6.1380504 6.654989,5.7882517 6.8802508,5.438453 7.4476915,5.0807963 7.4710273,5.0576986 7.494363,5.0343628 7.082415,4.474542 7.1757581,4.4978777 Z"
     fill="url(#b)"
     id="path5-0"
     style="fill:#000000;fill-opacity:1;stroke-width:0.23812;opacity:0.3" />
  <path
     d="m 7.1757581,3.9687215 c 0.093105,0.023336 0.4352839,0.1788284 0.6295901,0.1709704 0.1943062,-0.00762 0.5595827,0.2488358 0.5595827,0.2721715 0,0.023336 0.4305216,0.080484 0.6114929,0.144539 0.1190604,0.042147 0.2216901,0.2128797 0.6145891,0.4009947 0.220023,0.1052491 0.4738601,0.3302728 0.5905391,0.3848024 0.116678,0.054292 0.481717,0.2121652 0.55101,0.2905067 0.05738,0.065007 0.181924,0.2909831 0.187163,0.3545612 0.01262,0.1478727 0.03905,0.4307597 -0.005,0.627447 C 10.885633,6.7437756 10.616561,6.912841 10.512502,6.9457017 10.453723,6.964275 10.191791,6.7304409 10.041299,6.677102 9.6586389,6.5413733 9.7300746,6.6509087 9.1319165,6.5751864 9.01619,6.5606611 8.8161689,6.512799 8.7694974,6.5906643 c -0.00214,0.00333 -0.014525,0.1559688 0.1266799,0.2897924 0.1476347,0.1400147 1.01725,0.8860457 1.3784797,1.2779917 0.201449,0.2181182 0.425759,0.5257696 0.375516,0.8862837 -0.05119,0.3683722 -0.310748,0.9015233 -0.341941,0.9715309 -0.03119,0.07001 -0.3769451,0.185258 -0.3807557,0.380992 -0.00855,0.420282 0.8046087,0.365753 0.8288977,0.796989 0.01643,0.297174 -0.221928,0.261932 -0.218118,0.332177 0.0045,0.08263 0.288602,0.09477 0.288602,0.242406 0,0.147635 -0.0095,0.546487 -0.0095,0.546487 0,0 -0.645306,0.376944 -2.1276061,0.363133 -1.2594183,-0.01191 -2.1678473,-0.301221 -2.1678473,-0.301221 0,0 -0.0031,-0.390042 0.00881,-0.549344 0.00833,-0.109536 0.2404981,-0.134062 0.2500229,-0.220975 0.00667,-0.06287 -0.2164513,-0.01381 -0.2152607,-0.316701 0.00143,-0.3598 0.7493645,-0.421949 0.7762722,-0.818895 0.01524,-0.224309 -0.088342,-0.299555 -0.088342,-0.299555 0,0 -0.7229333,-0.3343214 -0.8160383,-0.4586199 C 6.3440038,9.588837 6.9819282,9.5100193 7.036934,8.9442453 7.0986071,8.3065592 6.7404742,7.5521941 6.4837805,6.7359177 6.227325,5.9198793 6.4294891,5.6088942 6.654989,5.2590955 6.8802508,4.9092968 7.4476915,4.5516401 7.4710273,4.5285424 7.494363,4.5052066 7.082415,3.9453858 7.1757581,3.9687215 Z"
     fill="url(#b)"
     id="path5"
     style="fill:url(#linearGradient53);stroke-width:0.23812;fill-opacity:1" />
  <rect
     style="opacity:0.5;fill:none;fill-opacity:0.996424;stroke:url(#linearGradient9);stroke-width:0.566102;stroke-dasharray:none;stroke-opacity:1"
     id="rect1-2-6"
     width="11.574203"
     height="11.508601"
     x="2.729686"
     y="2.6615164"
     rx="2.0246315"
     ry="2.0627522" />
</svg>
