<?xml version="1.0" encoding="UTF-8" standalone="no"?>
<svg
   width="64"
   height="64"
   version="1.1"
   viewBox="0 0 16.933 16.933"
   id="svg7"
   sodipodi:docname="preferences-system.svg"
   inkscape:version="1.3.2 (091e20ef0f, 2023-11-25)"
   xmlns:inkscape="http://www.inkscape.org/namespaces/inkscape"
   xmlns:sodipodi="http://sodipodi.sourceforge.net/DTD/sodipodi-0.dtd"
   xmlns:xlink="http://www.w3.org/1999/xlink"
   xmlns="http://www.w3.org/2000/svg"
   xmlns:svg="http://www.w3.org/2000/svg"
   xmlns:rdf="http://www.w3.org/1999/02/22-rdf-syntax-ns#"
   xmlns:cc="http://creativecommons.org/ns#"
   xmlns:dc="http://purl.org/dc/elements/1.1/">
  <sodipodi:namedview
     id="namedview7"
     pagecolor="#9c4444"
     bordercolor="#000000"
     borderopacity="0.25"
     inkscape:showpageshadow="2"
     inkscape:pageopacity="0.0"
     inkscape:pagecheckerboard="0"
     inkscape:deskcolor="#d1d1d1"
     inkscape:zoom="4.3531261"
     inkscape:cx="32.849956"
     inkscape:cy="24.465177"
     inkscape:window-width="1463"
     inkscape:window-height="604"
     inkscape:window-x="199"
     inkscape:window-y="276"
     inkscape:window-maximized="0"
     inkscape:current-layer="svg7"
     showgrid="false" />
  <defs
     id="defs2">
    <linearGradient
       id="linearGradient5"
       inkscape:collect="always">
      <stop
         style="stop-color:#392713;stop-opacity:1;"
         offset="0"
         id="stop2" />
      <stop
         style="stop-color:#eed59e;stop-opacity:1;"
         offset="0.5"
         id="stop3" />
      <stop
         style="stop-color:#beaa8a;stop-opacity:1;"
         offset="1"
         id="stop4" />
    </linearGradient>
    <linearGradient
       id="linearGradient11"
       inkscape:collect="always">
      <stop
         style="stop-color:#392713;stop-opacity:1;"
         offset="0"
         id="stop10" />
      <stop
         style="stop-color:#eed59e;stop-opacity:1;"
         offset="0.5"
         id="stop1" />
      <stop
         style="stop-color:#beaa8a;stop-opacity:1;"
         offset="1"
         id="stop11" />
    </linearGradient>
    <linearGradient
       id="linearGradient8"
       inkscape:collect="always">
      <stop
         style="stop-color:#1a1a1a;stop-opacity:1;"
         offset="0"
         id="stop8" />
      <stop
         style="stop-color:#ffffff;stop-opacity:0;"
         offset="1"
         id="stop9" />
    </linearGradient>
    <linearGradient
       inkscape:collect="always"
       xlink:href="#linearGradient5"
       id="linearGradient41"
       x1="13.675659"
       y1="16.110115"
       x2="13.728528"
       y2="10.548769"
       gradientUnits="userSpaceOnUse"
       gradientTransform="matrix(2.046153,0,0,2.046153,-18.798306,-18.911347)" />
    <linearGradient
       inkscape:collect="always"
       xlink:href="#linearGradient42"
       id="linearGradient4"
       x1="11.885941"
       y1="16.50819"
       x2="12.026573"
       y2="10.244942"
       gradientUnits="userSpaceOnUse"
       gradientTransform="matrix(2.046153,0,0,2.046153,-18.798306,-18.911347)" />
    <linearGradient
       id="linearGradient42"
       inkscape:collect="always">
      <stop
         style="stop-color:#010101;stop-opacity:1;"
         offset="0"
         id="stop42" />
      <stop
         style="stop-color:#6e6c6d;stop-opacity:1;"
         offset="1"
         id="stop43" />
    </linearGradient>
    <linearGradient
       inkscape:collect="always"
       xlink:href="#linearGradient8"
       id="linearGradient9"
       x1="9.3404646"
       y1="4.1692023"
       x2="9.4279938"
       y2="16.46883"
       gradientUnits="userSpaceOnUse"
       gradientTransform="matrix(1.05,0,0,1.05,-0.50277005,-0.1977751)" />
    <filter
       style="color-interpolation-filters:sRGB;"
       inkscape:label="Blur"
       id="filter2"
       x="-0.14510849"
       y="-0.14612901"
       width="1.290217"
       height="1.292258">
      <feGaussianBlur
         stdDeviation="0.6 0.6"
         result="blur"
         id="feGaussianBlur2" />
    </filter>
    <linearGradient
       inkscape:collect="always"
       xlink:href="#linearGradient11"
       id="linearGradient15"
       x1="8.6337347"
       y1="11.884821"
       x2="8.5698195"
       y2="5.0944304"
       gradientUnits="userSpaceOnUse"
       gradientTransform="matrix(1.1,0,0,1.1,-0.85802891,-0.87112266)" />
  </defs>
  <metadata
     id="metadata2">
    <rdf:RDF>
      <cc:Work
         rdf:about="">
        <dc:format>image/svg+xml</dc:format>
        <dc:type
           rdf:resource="http://purl.org/dc/dcmitype/StillImage" />
      </cc:Work>
    </rdf:RDF>
  </metadata>
  <rect
     style="fill:#000000;fill-opacity:0.996424;stroke:#000000;stroke-width:0.911802;stroke-dasharray:none;stroke-opacity:1;filter:url(#filter2)"
     id="rect1-2-3"
     width="13.065404"
     height="12.974159"
     x="1.9816793"
     y="1.9267306"
     rx="2.7149384"
     ry="2.8310909" />
  <rect
     style="fill:url(#linearGradient4);fill-opacity:0.996424;stroke:url(#linearGradient41);stroke-width:0.911802;stroke-dasharray:none;stroke-opacity:1"
     id="rect1-2"
     width="13.065404"
     height="12.974159"
     x="1.9816793"
     y="1.9267306"
     rx="2.7149384"
     ry="2.8310909" />
  <path
     id="path10-6"
     style="opacity:0.3;fill:#000000;fill-opacity:1;stroke:none;stroke-width:0.235739;stroke-dasharray:none;stroke-opacity:0.66"
     d="m 11.77967,5.2590097 c -0.04288,2.083e-4 -0.08692,0.00666 -0.130827,0.019806 -0.336012,0.100672 -0.431499,0.3382931 -0.434168,1.0778655 l -0.0021,0.5300723 0.119355,-0.046908 c 0.06556,-0.025707 0.265784,-0.046908 0.444595,-0.046908 0.178809,0 0.378506,0.021201 0.444072,0.046908 l 0.11932,0.046908 V 6.3332256 c 0,-0.4875489 -0.01153,-0.5759349 -0.09746,-0.7463751 C 12.136174,5.3760079 11.965476,5.2581064 11.77966,5.2590086 Z m -6.4010027,0.00679 C 5.1022844,5.2681617 4.8410432,5.5263009 4.840776,5.9449355 V 6.193032 L 4.951794,6.150814 c 0.061153,-0.02325 0.2548172,-0.042218 0.4305213,-0.042218 0.1757054,0 0.3698862,0.018966 0.4310425,0.042218 L 5.9243754,6.193031 V 5.9449251 C 5.9242642,5.7754578 5.8970949,5.6527791 5.8394179,5.5581859 5.7155451,5.3550307 5.5444973,5.2643591 5.3786669,5.2657864 Z m 3.1965923,0 c -0.164012,0.00101 -0.3291191,0.088309 -0.4461578,0.2658142 -0.074164,0.1124805 -0.080005,0.2360805 -0.080267,1.6485922 l -5.311e-4,1.5271445 0.1110184,-0.042218 c 0.141119,-0.053649 0.6479636,-0.054974 0.8323749,-0.00208 l 0.1402058,0.040129 V 7.2219018 C 9.1318436,5.8969831 9.1241378,5.7244671 9.0563271,5.5915521 8.9457669,5.3747305 8.7611301,5.2646493 8.5752492,5.2657947 Z M 5.357818,6.422362 c -0.7684445,0.01067 -1.4227817,0.8026679 -1.1445813,1.6402529 0.096515,0.2905804 0.4355036,0.6449546 0.7151028,0.7474173 0.2671316,0.097896 0.7408229,0.07384 0.982485,-0.050037 C 6.3409402,8.5395137 6.5940759,8.1261191 6.5920475,7.6472041 6.5900142,7.1681231 6.3379918,6.7690262 5.8983154,6.5490113 5.7189008,6.4592314 5.5351535,6.4198935 5.357818,6.4223565 Z m 6.442699,0.6838294 c -0.390121,5.314e-4 -0.674289,0.1261469 -0.922026,0.4075874 -0.419424,0.476506 -0.421295,1.1330143 -0.0041,1.6068955 0.203122,0.2307563 0.443742,0.3658598 0.725007,0.4075874 0.557921,0.082775 1.037119,-0.1740599 1.314488,-0.7051992 0.132358,-0.253558 0.131512,-0.7557223 -0.0021,-1.0116774 C 12.665092,7.3387406 12.297642,7.1054899 11.800543,7.1061838 Z M 8.5966293,8.9319901 C 8.1177503,8.9269696 7.7457319,9.1481949 7.5052118,9.5824623 7.3942297,9.7828444 7.3766602,9.8597101 7.3775147,10.140159 c 7.855e-4,0.254696 0.022877,0.367353 0.1021581,0.520168 0.1950158,0.375895 0.5002227,0.61417 0.8871015,0.692692 0.7627878,0.154816 1.5177223,-0.522353 1.4474053,-1.297818 C 9.7751356,9.6246394 9.5078292,9.2289889 9.1209676,9.0289355 9.0439994,8.989131 8.8520241,8.9469373 8.6940958,8.9356387 c -0.032871,-0.00235 -0.06554,-0.00331 -0.097463,-0.00365 z M 4.840776,9.0987778 v 1.5839612 c 0,1.75447 0.00788,1.811326 0.2684242,1.970181 0.078916,0.04811 0.2015923,0.08755 0.2731151,0.08755 0.071522,0 0.1947173,-0.03945 0.2736361,-0.08755 0.2605516,-0.158855 0.268424,-0.215711 0.268424,-1.970181 V 9.0987757 L 5.7398661,9.1316118 C 5.6385407,9.1497739 5.477681,9.164449 5.3823153,9.164449 c -0.095366,0 -0.2562265,-0.014674 -0.3575522,-0.032837 z m 6.371817,0.6572478 5.31e-4,1.1998284 c 1.37e-4,0.680842 0.01925,1.268585 0.04431,1.358799 0.02477,0.08919 0.111127,0.217449 0.196494,0.292399 0.210275,0.184626 0.434464,0.184626 0.644738,0 0.08536,-0.07495 0.171733,-0.203213 0.1965,-0.292399 0.02506,-0.09021 0.04418,-0.677957 0.0443,-1.358799 l 5.31e-4,-1.1998285 -0.140728,0.040133 c -0.181066,0.051928 -0.664865,0.051928 -0.845927,0 z M 9.1319128,11.572447 9.013077,11.618834 c -0.1480474,0.05723 -0.5852447,0.07069 -0.8021448,0.025 l -0.1626186,-0.03387 v 0.363806 c 0,0.30713 0.015642,0.387047 0.099028,0.510788 0.054355,0.08066 0.1469906,0.170868 0.2058785,0.200665 0.2624035,0.132778 0.5679203,0.01777 0.6947756,-0.261647 0.057724,-0.127134 0.082203,-0.281244 0.082869,-0.516001 z" />
  <path
     id="path10"
     style="fill:url(#linearGradient15);fill-opacity:1;stroke:none;stroke-width:0.235739;stroke-dasharray:none;stroke-opacity:0.66"
     d="m 11.77967,4.6769379 c -0.04288,2.083e-4 -0.08692,0.00665 -0.130827,0.019805 -0.336012,0.100672 -0.431499,0.3382931 -0.434168,1.0778654 l -0.0021,0.5300723 0.119355,-0.046908 c 0.06556,-0.025707 0.265784,-0.046908 0.444595,-0.046908 0.178809,0 0.378506,0.021201 0.444072,0.046908 l 0.11932,0.046908 V 5.7511538 c 0,-0.487549 -0.01153,-0.575935 -0.09746,-0.7463751 C 12.136174,4.7939361 11.965476,4.6760346 11.77966,4.6769368 Z m -6.4010027,0.00679 C 5.1022844,4.6860899 4.8410432,4.9442291 4.840776,5.3628637 v 0.2480965 l 0.111018,-0.042218 c 0.061153,-0.02325 0.2548172,-0.042218 0.4305213,-0.042218 0.1757054,0 0.3698862,0.018966 0.4310425,0.042218 l 0.1110176,0.042217 V 5.3628533 C 5.9242642,5.193386 5.8970949,5.0707073 5.8394179,4.9761141 5.7155451,4.7729589 5.5444973,4.6822873 5.3786669,4.6837145 Z m 3.1965923,0 c -0.164012,0.00101 -0.3291191,0.088309 -0.4461578,0.2658142 -0.074164,0.1124805 -0.080005,0.2360805 -0.080267,1.6485922 l -5.311e-4,1.5271444 0.1110184,-0.042218 c 0.141119,-0.053649 0.6479636,-0.054974 0.8323749,-0.00208 l 0.1402058,0.040129 V 6.63983 C 9.1318436,5.3149113 9.1241378,5.1423953 9.0563271,5.0094803 8.9457669,4.7926586 8.7611301,4.6825775 8.5752492,4.6837229 Z M 5.357818,5.8402902 c -0.7684445,0.01067 -1.4227817,0.8026679 -1.1445813,1.6402529 0.096515,0.2905804 0.4355036,0.6449546 0.7151028,0.7474173 0.2671316,0.097896 0.7408229,0.07384 0.982485,-0.050037 C 6.3409402,7.9574419 6.5940759,7.5440473 6.5920475,7.0651323 6.5900142,6.5860512 6.3379918,6.1869544 5.8983154,5.9669394 5.7189008,5.8771595 5.5351535,5.8378217 5.357818,5.8402847 Z m 6.442699,0.6838294 c -0.390121,5.314e-4 -0.674289,0.1261469 -0.922026,0.4075874 -0.419424,0.476506 -0.421295,1.1330143 -0.0041,1.6068955 0.203122,0.2307562 0.443742,0.3658598 0.725007,0.4075874 0.557921,0.082775 1.037119,-0.1740599 1.314488,-0.7051992 0.132358,-0.2535581 0.131512,-0.7557224 -0.0021,-1.0116774 C 12.665092,6.7566688 12.297642,6.5234181 11.800543,6.524112 Z M 8.5966293,8.3499183 C 8.1177503,8.3448978 7.7457319,8.5661231 7.5052118,9.0003905 7.3942297,9.2007726 7.3766602,9.2776383 7.3775147,9.558087 c 7.855e-4,0.2546961 0.022877,0.3673524 0.1021579,0.520168 0.1950158,0.375896 0.5002226,0.61417 0.8871014,0.692692 C 9.1295621,10.925764 9.8844966,10.248595 9.8141796,9.4731293 9.7751356,9.0425676 9.5078292,8.6469171 9.1209676,8.4468637 9.0439994,8.4070592 8.8520241,8.3648655 8.6940958,8.3535669 c -0.032872,-0.00235 -0.06554,-0.00331 -0.097463,-0.00365 z M 4.840776,8.516706 v 1.583962 c 0,1.754469 0.00788,1.811326 0.2684242,1.97018 0.078916,0.04811 0.2015923,0.08755 0.2731151,0.08755 0.071522,0 0.1947173,-0.03945 0.2736361,-0.08755 0.2605516,-0.158854 0.268424,-0.215711 0.268424,-1.97018 V 8.5167039 l -0.1845093,0.032836 c -0.1013254,0.018162 -0.2621851,0.032837 -0.3575508,0.032837 -0.095366,0 -0.2562265,-0.014674 -0.3575522,-0.032837 z m 6.371817,0.6572478 5.31e-4,1.1998282 c 1.37e-4,0.680842 0.01925,1.268585 0.04431,1.3588 0.02477,0.08919 0.111127,0.217449 0.196494,0.292398 0.210275,0.184627 0.434464,0.184627 0.644738,0 0.08536,-0.07495 0.171733,-0.203213 0.1965,-0.292398 0.02506,-0.09021 0.04418,-0.677958 0.0443,-1.3588 l 5.31e-4,-1.1998283 -0.140728,0.040133 c -0.181066,0.051928 -0.664865,0.051928 -0.845927,0 z M 9.1319128,10.990375 9.013077,11.036757 c -0.1480474,0.05723 -0.5852447,0.07069 -0.8021448,0.025 l -0.1626186,-0.03387 v 0.363807 c 0,0.307129 0.015642,0.387047 0.099028,0.510788 0.054355,0.08066 0.1469906,0.170867 0.2058785,0.200664 0.2624035,0.132779 0.5679203,0.01777 0.6947756,-0.261647 0.057724,-0.127134 0.082203,-0.281244 0.082869,-0.516 z" />
  <rect
     style="opacity:0.5;fill:none;fill-opacity:0.996424;stroke:url(#linearGradient9);stroke-width:0.566102;stroke-dasharray:none;stroke-opacity:1"
     id="rect1-2-6"
     width="11.574203"
     height="11.508601"
     x="2.729686"
     y="2.6615164"
     rx="2.0246315"
     ry="2.0627522" />
</svg>
