<?xml version="1.0" encoding="UTF-8" standalone="no"?>
<svg
   width="64"
   height="64"
   version="1.1"
   viewBox="0 0 16.933 16.933"
   id="svg7"
   sodipodi:docname="Template 4.svg"
   inkscape:version="1.3.2 (091e20ef0f, 2023-11-25)"
   xmlns:inkscape="http://www.inkscape.org/namespaces/inkscape"
   xmlns:sodipodi="http://sodipodi.sourceforge.net/DTD/sodipodi-0.dtd"
   xmlns:xlink="http://www.w3.org/1999/xlink"
   xmlns="http://www.w3.org/2000/svg"
   xmlns:svg="http://www.w3.org/2000/svg"
   xmlns:rdf="http://www.w3.org/1999/02/22-rdf-syntax-ns#"
   xmlns:cc="http://creativecommons.org/ns#"
   xmlns:dc="http://purl.org/dc/elements/1.1/">
  <sodipodi:namedview
     id="namedview7"
     pagecolor="#9c4444"
     bordercolor="#000000"
     borderopacity="0.25"
     inkscape:showpageshadow="2"
     inkscape:pageopacity="0.0"
     inkscape:pagecheckerboard="0"
     inkscape:deskcolor="#d1d1d1"
     inkscape:zoom="4.3531261"
     inkscape:cx="32.964816"
     inkscape:cy="24.350317"
     inkscape:window-width="1463"
     inkscape:window-height="604"
     inkscape:window-x="42"
     inkscape:window-y="99"
     inkscape:window-maximized="0"
     inkscape:current-layer="svg7"
     showgrid="false" />
  <defs
     id="defs2">
    <linearGradient
       id="linearGradient5"
       inkscape:collect="always">
      <stop
         style="stop-color:#392713;stop-opacity:1;"
         offset="0"
         id="stop2" />
      <stop
         style="stop-color:#eed59e;stop-opacity:1;"
         offset="0.5"
         id="stop3" />
      <stop
         style="stop-color:#beaa8a;stop-opacity:1;"
         offset="1"
         id="stop4" />
    </linearGradient>
    <linearGradient
       id="linearGradient8"
       inkscape:collect="always">
      <stop
         style="stop-color:#1a1a1a;stop-opacity:1;"
         offset="0"
         id="stop8" />
      <stop
         style="stop-color:#ffffff;stop-opacity:0;"
         offset="1"
         id="stop9" />
    </linearGradient>
    <linearGradient
       inkscape:collect="always"
       xlink:href="#linearGradient5"
       id="linearGradient41"
       x1="13.675659"
       y1="16.110115"
       x2="13.728528"
       y2="10.548769"
       gradientUnits="userSpaceOnUse"
       gradientTransform="matrix(2.046153,0,0,2.046153,-18.798306,-18.911347)" />
    <linearGradient
       inkscape:collect="always"
       xlink:href="#linearGradient42"
       id="linearGradient4"
       x1="11.885941"
       y1="16.50819"
       x2="12.026573"
       y2="10.244942"
       gradientUnits="userSpaceOnUse"
       gradientTransform="matrix(2.046153,0,0,2.046153,-18.798306,-18.911347)" />
    <linearGradient
       id="linearGradient42"
       inkscape:collect="always">
      <stop
         style="stop-color:#010101;stop-opacity:1;"
         offset="0"
         id="stop42" />
      <stop
         style="stop-color:#6e6c6d;stop-opacity:1;"
         offset="1"
         id="stop43" />
    </linearGradient>
    <linearGradient
       inkscape:collect="always"
       xlink:href="#linearGradient8"
       id="linearGradient9"
       x1="9.3404646"
       y1="4.1692023"
       x2="9.4279938"
       y2="16.46883"
       gradientUnits="userSpaceOnUse"
       gradientTransform="matrix(1.05,0,0,1.05,-0.50277005,-0.1977751)" />
    <filter
       style="color-interpolation-filters:sRGB;"
       inkscape:label="Blur"
       id="filter2"
       x="-0.14510849"
       y="-0.14612901"
       width="1.290217"
       height="1.292258">
      <feGaussianBlur
         stdDeviation="0.6 0.6"
         result="blur"
         id="feGaussianBlur2" />
    </filter>
    <linearGradient
       id="b"
       x2="1"
       gradientTransform="matrix(-0.15598952,-8.4517946,8.4517946,-0.15598952,8.6516278,12.692258)"
       gradientUnits="userSpaceOnUse">
      <stop
         stop-color="#b5c6cb"
         offset="0"
         id="stop3-4" />
      <stop
         stop-color="#fff"
         offset="1"
         id="stop4-3" />
    </linearGradient>
    <clipPath
       clipPathUnits="userSpaceOnUse"
       id="clipPath2617">
      <path
         id="path2619"
         style="display:block;fill:#813d9c;stroke-width:1.6"
         d="m 32.117188,5.8242188 -6.511719,6.5117192 6.513672,6.511718 6.509765,-6.509765 z m 0.002,13.0234372 -6.511719,6.511719 6.513672,6.509766 6.509765,-6.507813 z m 6.511718,6.513672 6.513672,6.509766 6.507813,-6.507813 -6.511719,-6.513672 z m 6.513672,6.509766 -6.511719,6.511718 6.513672,6.511719 6.507813,-6.509765 z m -6.511719,6.511718 -6.511718,-6.513671 -6.511719,6.511718 6.513672,6.511719 z m -6.509765,6.509766 -6.509766,6.509766 6.511719,6.511718 6.509766,-6.507812 z m -6.513672,-6.511719 -6.509766,-6.513671 -6.511718,6.511718 6.513671,6.511719 z m -6.509766,-6.513671 6.507813,-6.507813 -6.509766,-6.513672 -6.511718,6.509766 z" />
    </clipPath>
    <inkscape:path-effect
       effect="powerclip"
       id="path-effect2621"
       is_visible="true"
       lpeversion="1"
       inverse="true"
       flatten="false"
       hide_clip="false"
       message="Use fill-rule evenodd on &lt;b&gt;fill and stroke&lt;/b&gt; dialog if no flatten result after convert clip to paths." />
    <clipPath
       clipPathUnits="userSpaceOnUse"
       id="clipPath2617-4">
      <path
         id="path2619-8"
         style="display:none;fill:#813d9c;stroke-width:1.6"
         d="m 32.117188,5.8242188 -6.511719,6.5117192 6.513672,6.511718 6.509765,-6.509765 z m 0.002,13.0234372 -6.511719,6.511719 6.513672,6.509766 6.509765,-6.507813 z m 6.511718,6.513672 6.513672,6.509766 6.507813,-6.507813 -6.511719,-6.513672 z m 6.513672,6.509766 -6.511719,6.511718 6.513672,6.511719 6.507813,-6.509765 z m -6.511719,6.511718 -6.511718,-6.513671 -6.511719,6.511718 6.513672,6.511719 z m -6.509765,6.509766 -6.509766,6.509766 6.511719,6.511718 6.509766,-6.507812 z m -6.513672,-6.511719 -6.509766,-6.513671 -6.511718,6.511718 6.513671,6.511719 z m -6.509766,-6.513671 6.507813,-6.507813 -6.509766,-6.513672 -6.511718,6.509766 z" />
      <path
         id="lpe_path-effect2621-7"
         style="fill:#813d9c;stroke-width:1.6"
         class="powerclip"
         d="M -3.000003,-3 H 67 V 67.000277 H -3.000003 Z m 35.117191,8.8242188 -6.511719,6.5117192 6.513672,6.511718 6.509765,-6.509765 z m 0.002,13.0234372 -6.511719,6.511719 6.513672,6.509766 6.509765,-6.507813 z m 6.511718,6.513672 6.513672,6.509766 6.507813,-6.507813 -6.511719,-6.513672 z m 6.513672,6.509766 -6.511719,6.511718 6.513672,6.511719 6.507813,-6.509765 z m -6.511719,6.511718 -6.511718,-6.513671 -6.511719,6.511718 6.513672,6.511719 z m -6.509765,6.509766 -6.509766,6.509766 6.511719,6.511718 6.509766,-6.507812 z m -6.513672,-6.511719 -6.509766,-6.513671 -6.511718,6.511718 6.513671,6.511719 z m -6.509766,-6.513671 6.507813,-6.507813 -6.509766,-6.513672 -6.511718,6.509766 z" />
    </clipPath>
    <inkscape:path-effect
       effect="powerclip"
       id="path-effect2621-1"
       is_visible="true"
       lpeversion="1"
       inverse="true"
       flatten="false"
       hide_clip="false"
       message="Use fill-rule evenodd on &lt;b&gt;fill and stroke&lt;/b&gt; dialog if no flatten result after convert clip to paths." />
    <clipPath
       clipPathUnits="userSpaceOnUse"
       id="clipath_lpe_path-effect2621-1">
      <path
         id="path55"
         style="display:block;fill:#813d9c;stroke-width:1.6"
         d="m 32.117188,5.8242188 -6.511719,6.5117192 6.513672,6.511718 6.509765,-6.509765 z m 0.002,13.0234372 -6.511719,6.511719 6.513672,6.509766 6.509765,-6.507813 z m 6.511718,6.513672 6.513672,6.509766 6.507813,-6.507813 -6.511719,-6.513672 z m 6.513672,6.509766 -6.511719,6.511718 6.513672,6.511719 6.507813,-6.509765 z m -6.511719,6.511718 -6.511718,-6.513671 -6.511719,6.511718 6.513672,6.511719 z m -6.509765,6.509766 -6.509766,6.509766 6.511719,6.511718 6.509766,-6.507812 z m -6.513672,-6.511719 -6.509766,-6.513671 -6.511718,6.511718 6.513671,6.511719 z m -6.509766,-6.513671 6.507813,-6.507813 -6.509766,-6.513672 -6.511718,6.509766 z" />
    </clipPath>
    <linearGradient
       inkscape:collect="always"
       xlink:href="#linearGradient5"
       id="linearGradient69"
       x1="8.7130966"
       y1="13.085232"
       x2="8.7513599"
       y2="4.188262"
       gradientUnits="userSpaceOnUse" />
  </defs>
  <metadata
     id="metadata2">
    <rdf:RDF>
      <cc:Work
         rdf:about="">
        <dc:format>image/svg+xml</dc:format>
        <dc:type
           rdf:resource="http://purl.org/dc/dcmitype/StillImage" />
      </cc:Work>
    </rdf:RDF>
  </metadata>
  <rect
     style="fill:#000000;fill-opacity:0.996424;stroke:#000000;stroke-width:0.911802;stroke-dasharray:none;stroke-opacity:1;filter:url(#filter2)"
     id="rect1-2-3"
     width="13.065404"
     height="12.974159"
     x="1.9816793"
     y="1.9267306"
     rx="2.7149384"
     ry="2.8310909" />
  <rect
     style="fill:url(#linearGradient4);fill-opacity:0.996424;stroke:url(#linearGradient41);stroke-width:0.911802;stroke-dasharray:none;stroke-opacity:1"
     id="rect1-2"
     width="13.065404"
     height="12.974159"
     x="1.9816793"
     y="1.9267306"
     rx="2.7149384"
     ry="2.8310909" />
  <path
     style="fill:#000000;fill-opacity:1;stroke-width:0.157035;opacity:0.3"
     d="m 8.2918564,4.6396223 c -0.4770543,0 -0.8610484,0.4004814 -0.8610484,0.8980176 V 5.9586152 A 3.2291557,3.3678015 0 0 0 6.4123865,6.5722243 L 6.0625016,6.3617363 C 5.649361,6.1129682 5.1246331,6.2597442 4.8861065,6.6906235 L 4.6707693,7.0790232 C 4.432242,7.5099028 4.5729756,8.0571594 4.9861166,8.3059279 L 5.3345,8.515789 A 3.2291557,3.3678015 0 0 0 5.2780378,9.1300244 3.2291557,3.3678015 0 0 0 5.3345,9.7442598 L 4.9861166,9.9541209 C 4.5729756,10.202889 4.432242,10.750146 4.6707693,11.181026 l 0.2153372,0.388399 c 0.2385266,0.43088 0.7632545,0.577655 1.1763951,0.328888 L 6.409984,11.689077 a 3.2291557,3.3678015 0 0 0 1.0208242,0.611416 v 0.421915 c 0,0.497537 0.3839943,0.898018 0.8610482,0.898018 h 0.4306741 c 0.4770538,0 0.8610481,-0.400481 0.8610481,-0.898018 v -0.42348 A 3.2291557,3.3678015 0 0 0 10.602,11.687824 l 0.349886,0.210487 c 0.41314,0.248769 0.937867,0.101992 1.176395,-0.328886 l 0.215337,-0.388399 c 0.238526,-0.43088 0.09779,-0.978137 -0.315347,-1.2269051 L 11.679887,9.7442598 a 3.2291557,3.3678015 0 0 0 0.05646,-0.6142354 3.2291557,3.3678015 0 0 0 -0.05646,-0.6142354 l 0.348384,-0.2098611 c 0.41314,-0.2487685 0.553873,-0.7960251 0.315347,-1.2269047 L 12.128281,6.6906235 C 11.889753,6.2597439 11.365026,6.1129682 10.951886,6.3617363 L 10.604402,6.5709714 A 3.2291557,3.3678015 0 0 0 9.5835786,5.9592421 V 5.5376399 c 0,-0.4975362 -0.3839943,-0.8980176 -0.8610481,-0.8980176 z"
     id="path4-7" />
  <path
     style="fill:url(#linearGradient69);fill-opacity:1;stroke-width:0.157035"
     d="m 8.2918564,4.1104661 c -0.4770543,0 -0.8610484,0.4004814 -0.8610484,0.8980176 V 5.429459 A 3.2291557,3.3678015 0 0 0 6.4123865,6.0430681 L 6.0625016,5.8325801 C 5.649361,5.583812 5.1246331,5.730588 4.8861065,6.1614673 L 4.6707693,6.549867 C 4.432242,6.9807466 4.5729756,7.5280032 4.9861166,7.7767717 L 5.3345,7.9866328 A 3.2291557,3.3678015 0 0 0 5.2780378,8.6008682 3.2291557,3.3678015 0 0 0 5.3345,9.2151036 L 4.9861166,9.4249647 C 4.5729756,9.6737328 4.432242,10.22099 4.6707693,10.65187 l 0.2153372,0.388399 c 0.2385266,0.43088 0.7632545,0.577655 1.1763951,0.328888 L 6.409984,11.159921 a 3.2291557,3.3678015 0 0 0 1.0208242,0.611416 v 0.421915 c 0,0.497537 0.3839943,0.898018 0.8610482,0.898018 h 0.4306741 c 0.4770538,0 0.8610481,-0.400481 0.8610481,-0.898018 v -0.42348 A 3.2291557,3.3678015 0 0 0 10.602,11.158668 l 0.349886,0.210487 c 0.41314,0.248769 0.937867,0.101992 1.176395,-0.328886 l 0.215337,-0.388399 c 0.238526,-0.43088 0.09779,-0.9781372 -0.315347,-1.2269053 L 11.679887,9.2151036 a 3.2291557,3.3678015 0 0 0 0.05646,-0.6142354 3.2291557,3.3678015 0 0 0 -0.05646,-0.6142354 L 12.028271,7.7767717 C 12.441411,7.5280032 12.582144,6.9807466 12.343618,6.549867 L 12.128281,6.1614673 C 11.889753,5.7305877 11.365026,5.583812 10.951886,5.8325801 L 10.604402,6.0418152 A 3.2291557,3.3678015 0 0 0 9.5835786,5.4300859 V 5.0084837 c 0,-0.4975362 -0.3839943,-0.8980176 -0.8610481,-0.8980176 z"
     id="path4" />
  <rect
     style="opacity:0.5;fill:none;fill-opacity:0.996424;stroke:url(#linearGradient9);stroke-width:0.566102;stroke-dasharray:none;stroke-opacity:1"
     id="rect1-2-6"
     width="11.574203"
     height="11.508601"
     x="2.729686"
     y="2.6615164"
     rx="2.0246315"
     ry="2.0627522" />
</svg>
