<?xml version="1.0" encoding="UTF-8" standalone="no"?>
<svg
   width="64"
   height="64"
   version="1.1"
   viewBox="0 0 16.933 16.933"
   id="svg7"
   sodipodi:docname="Template 4.svg"
   inkscape:version="1.3.2 (091e20ef0f, 2023-11-25)"
   xmlns:inkscape="http://www.inkscape.org/namespaces/inkscape"
   xmlns:sodipodi="http://sodipodi.sourceforge.net/DTD/sodipodi-0.dtd"
   xmlns:xlink="http://www.w3.org/1999/xlink"
   xmlns="http://www.w3.org/2000/svg"
   xmlns:svg="http://www.w3.org/2000/svg"
   xmlns:rdf="http://www.w3.org/1999/02/22-rdf-syntax-ns#"
   xmlns:cc="http://creativecommons.org/ns#"
   xmlns:dc="http://purl.org/dc/elements/1.1/">
  <sodipodi:namedview
     id="namedview7"
     pagecolor="#9c4444"
     bordercolor="#000000"
     borderopacity="0.25"
     inkscape:showpageshadow="2"
     inkscape:pageopacity="0.0"
     inkscape:pagecheckerboard="0"
     inkscape:deskcolor="#d1d1d1"
     inkscape:zoom="4.3531261"
     inkscape:cx="32.964816"
     inkscape:cy="24.350317"
     inkscape:window-width="1463"
     inkscape:window-height="604"
     inkscape:window-x="199"
     inkscape:window-y="276"
     inkscape:window-maximized="0"
     inkscape:current-layer="svg7"
     showgrid="false" />
  <defs
     id="defs2">
    <linearGradient
       id="linearGradient5"
       inkscape:collect="always">
      <stop
         style="stop-color:#392713;stop-opacity:1;"
         offset="0"
         id="stop2" />
      <stop
         style="stop-color:#eed59e;stop-opacity:1;"
         offset="0.5"
         id="stop3" />
      <stop
         style="stop-color:#beaa8a;stop-opacity:1;"
         offset="1"
         id="stop4" />
    </linearGradient>
    <linearGradient
       id="linearGradient8"
       inkscape:collect="always">
      <stop
         style="stop-color:#1a1a1a;stop-opacity:1;"
         offset="0"
         id="stop8" />
      <stop
         style="stop-color:#ffffff;stop-opacity:0;"
         offset="1"
         id="stop9" />
    </linearGradient>
    <linearGradient
       inkscape:collect="always"
       xlink:href="#linearGradient5"
       id="linearGradient41"
       x1="13.675659"
       y1="16.110115"
       x2="13.728528"
       y2="10.548769"
       gradientUnits="userSpaceOnUse"
       gradientTransform="matrix(2.046153,0,0,2.046153,-18.798306,-18.911347)" />
    <linearGradient
       inkscape:collect="always"
       xlink:href="#linearGradient42"
       id="linearGradient4"
       x1="11.885941"
       y1="16.50819"
       x2="12.026573"
       y2="10.244942"
       gradientUnits="userSpaceOnUse"
       gradientTransform="matrix(2.046153,0,0,2.046153,-18.798306,-18.911347)" />
    <linearGradient
       id="linearGradient42"
       inkscape:collect="always">
      <stop
         style="stop-color:#010101;stop-opacity:1;"
         offset="0"
         id="stop42" />
      <stop
         style="stop-color:#6e6c6d;stop-opacity:1;"
         offset="1"
         id="stop43" />
    </linearGradient>
    <linearGradient
       inkscape:collect="always"
       xlink:href="#linearGradient8"
       id="linearGradient9"
       x1="9.3404646"
       y1="4.1692023"
       x2="9.4279938"
       y2="16.46883"
       gradientUnits="userSpaceOnUse"
       gradientTransform="matrix(1.05,0,0,1.05,-0.50277005,-0.1977751)" />
    <filter
       style="color-interpolation-filters:sRGB;"
       inkscape:label="Blur"
       id="filter2"
       x="-0.14510849"
       y="-0.14612901"
       width="1.290217"
       height="1.292258">
      <feGaussianBlur
         stdDeviation="0.6 0.6"
         result="blur"
         id="feGaussianBlur2" />
    </filter>
    <linearGradient
       inkscape:collect="always"
       xlink:href="#linearGradient5"
       id="linearGradient82"
       x1="33.427155"
       y1="50.091507"
       x2="33.234333"
       y2="14.039598"
       gradientUnits="userSpaceOnUse"
       gradientTransform="matrix(0.23573911,0,0,0.23573911,0.96699826,0.84667856)" />
  </defs>
  <metadata
     id="metadata2">
    <rdf:RDF>
      <cc:Work
         rdf:about="">
        <dc:format>image/svg+xml</dc:format>
        <dc:type
           rdf:resource="http://purl.org/dc/dcmitype/StillImage" />
      </cc:Work>
    </rdf:RDF>
  </metadata>
  <rect
     style="fill:#000000;fill-opacity:0.996424;stroke:#000000;stroke-width:0.911802;stroke-dasharray:none;stroke-opacity:1;filter:url(#filter2)"
     id="rect1-2-3"
     width="13.065404"
     height="12.974159"
     x="1.9816793"
     y="1.9267306"
     rx="2.7149384"
     ry="2.8310909" />
  <rect
     style="fill:url(#linearGradient4);fill-opacity:0.996424;stroke:url(#linearGradient41);stroke-width:0.911802;stroke-dasharray:none;stroke-opacity:1"
     id="rect1-2"
     width="13.065404"
     height="12.974159"
     x="1.9816793"
     y="1.9267306"
     rx="2.7149384"
     ry="2.8310909" />
  <path
     id="path2-1"
     style="fill:#000000;fill-opacity:1;stroke-width:0.0421221;stroke-opacity:0.3;opacity:0.3"
     d="m 7.5738226,4.6254751 c -0.8562815,7.29e-5 -0.956973,0.01613 -1.0585243,0.070907 -0.07929,0.04277 -0.1784891,0.1423947 -0.2208217,0.2213276 -0.072439,0.1350665 -0.076987,0.3166609 -0.076987,3.0839005 0,2.8598958 0.00184,2.9451288 0.084073,3.1061858 0.046457,0.09107 0.1364743,0.194082 0.2000564,0.228922 0.099194,0.05435 0.4129809,0.06182 2.2082135,0.05369 l 2.0922315,-0.0096 0.113956,-0.105346 C 11.15125,11.058361 11.145522,11.138799 11.14545,8.0021424 11.145379,4.8018433 11.1558,4.9319029 10.879048,4.728822 10.763182,4.643797 10.708149,4.641097 8.7098328,4.630058 8.2284182,4.627398 7.8592444,4.625468 7.5738179,4.625498 Z m 1.9144609,1.4768685 c 0.1403621,3.772e-4 0.2825834,0.029903 0.416319,0.092178 0.3676715,0.1712098 0.5667405,0.4836379 0.5667405,0.8888561 0,0.2828003 -0.09214,0.4011248 -0.312492,0.4011248 -0.1780284,0 -0.3190774,-0.1582444 -0.3190774,-0.358075 0,-0.2820172 -0.2682257,-0.4595149 -0.5074832,-0.3357898 -0.1689365,0.08736 -0.2086661,0.2075492 -0.2086661,0.6335948 v 0.3550358 h 0.2253788 c 0.1646202,0 0.2437953,0.021167 0.2947663,0.077489 0.07096,0.078404 0.093639,0.327148 0.03748,0.411254 C 9.6243644,8.3532133 9.467708,8.4113431 9.2948122,8.4113431 H 9.1236243 v 0.350478 c 0,0.2065293 -0.026767,0.4297299 -0.065334,0.5429366 C 8.9683569,9.5687114 8.7279117,9.8354995 8.4733158,9.9540533 8.1663873,10.096977 7.7451882,10.093429 7.4482189,9.9454466 7.2124867,9.8279723 7.0658022,9.677902 6.9214881,9.4060507 6.7933977,9.1647816 6.7945476,8.6752621 6.9235391,8.4275498 7.1484252,7.9955967 7.4842309,7.7792672 7.9314158,7.7792672 h 0.2653915 v 0.3160376 0.3160378 h -0.170177 c -0.3354523,0 -0.5454692,0.1984754 -0.5454692,0.5155872 0,0.207955 0.078026,0.3421812 0.2527295,0.4325261 0.166524,0.086114 0.3315661,0.078792 0.4973542,-0.022285 0.2400415,-0.1463485 0.2608321,-0.2569552 0.2608321,-1.393301 0,-0.6408897 0.017848,-1.0775215 0.048113,-1.1785572 C 8.6616852,6.359798 9.0672166,6.1011774 9.4883041,6.1023431 Z M 6.8490627,12.076165 v 0.589533 0.589531 H 8.6814753 10.513887 V 12.665698 12.076165 H 8.6814753 Z" />
  <path
     id="path2"
     style="fill:url(#linearGradient82);fill-opacity:1;stroke-width:0.0421221;stroke-opacity:0.3"
     d="m 7.5738226,4.0963189 c -0.8562815,7.29e-5 -0.956973,0.01613 -1.0585243,0.070907 -0.07929,0.04277 -0.1784891,0.1423947 -0.2208217,0.2213276 -0.072439,0.1350665 -0.076987,0.3166609 -0.076987,3.0839004 0,2.8598961 0.00184,2.9451291 0.084073,3.1061861 0.046457,0.09107 0.1364743,0.194082 0.2000564,0.228922 0.099194,0.05435 0.4129809,0.06182 2.2082135,0.05369 l 2.0922315,-0.0096 0.113956,-0.105346 c 0.23523,-0.217101 0.229502,-0.136663 0.22943,-3.2733198 -7.1e-5,-3.2002991 0.01035,-3.0702395 -0.266402,-3.2733204 -0.115866,-0.085025 -0.170899,-0.087725 -2.1692152,-0.098764 -0.4814146,-0.00266 -0.8505884,-0.00459 -1.1360149,-0.00456 z m 1.9144609,1.4768685 c 0.1403621,3.772e-4 0.2825834,0.029903 0.416319,0.092178 0.3676715,0.1712098 0.5667405,0.4836379 0.5667405,0.8888561 0,0.2828003 -0.09214,0.4011248 -0.312492,0.4011248 -0.1780284,0 -0.3190774,-0.1582444 -0.3190774,-0.358075 0,-0.2820172 -0.2682257,-0.4595149 -0.5074832,-0.3357898 -0.1689365,0.08736 -0.2086661,0.2075492 -0.2086661,0.6335948 v 0.3550358 h 0.2253788 c 0.1646202,0 0.2437953,0.021167 0.2947663,0.077489 0.07096,0.078404 0.093639,0.327148 0.03748,0.411254 C 9.6243644,7.8240571 9.467708,7.8821869 9.2948122,7.8821869 H 9.1236243 v 0.350478 c 0,0.2065293 -0.026767,0.4297299 -0.065334,0.5429366 C 8.9683569,9.0395552 8.7279117,9.3063433 8.4733158,9.4248971 8.1663873,9.5678204 7.7451882,9.5642728 7.4482189,9.4162904 7.2124867,9.2988161 7.0658022,9.1487458 6.9214881,8.8768945 6.7933977,8.6356254 6.7945476,8.1461059 6.9235391,7.8983936 7.1484252,7.4664405 7.4842309,7.250111 7.9314158,7.250111 h 0.2653915 v 0.3160376 0.3160378 h -0.170177 c -0.3354523,0 -0.5454692,0.1984754 -0.5454692,0.5155872 0,0.2079549 0.078026,0.3421812 0.2527295,0.4325261 0.166524,0.086114 0.3315661,0.078792 0.4973542,-0.022285 0.2400415,-0.1463485 0.2608321,-0.2569552 0.2608321,-1.393301 0,-0.6408897 0.017848,-1.0775215 0.048113,-1.1785572 C 8.6616852,5.8306418 9.0672166,5.5720212 9.4883041,5.5731869 Z M 6.8490627,11.547009 v 0.589533 0.589531 H 8.6814753 10.513887 V 12.136542 11.547009 H 8.6814753 Z" />
  <rect
     style="opacity:0.5;fill:none;fill-opacity:0.996424;stroke:url(#linearGradient9);stroke-width:0.566102;stroke-dasharray:none;stroke-opacity:1"
     id="rect1-2-6"
     width="11.574203"
     height="11.508601"
     x="2.729686"
     y="2.6615164"
     rx="2.0246315"
     ry="2.0627522" />
</svg>
