<?xml version="1.0" encoding="UTF-8" standalone="no"?>
<svg
   width="64"
   height="64"
   version="1.1"
   viewBox="0 0 16.933 16.933"
   id="svg7"
   sodipodi:docname="Template 4.svg"
   inkscape:version="1.3.2 (091e20ef0f, 2023-11-25)"
   xmlns:inkscape="http://www.inkscape.org/namespaces/inkscape"
   xmlns:sodipodi="http://sodipodi.sourceforge.net/DTD/sodipodi-0.dtd"
   xmlns:xlink="http://www.w3.org/1999/xlink"
   xmlns="http://www.w3.org/2000/svg"
   xmlns:svg="http://www.w3.org/2000/svg"
   xmlns:rdf="http://www.w3.org/1999/02/22-rdf-syntax-ns#"
   xmlns:cc="http://creativecommons.org/ns#"
   xmlns:dc="http://purl.org/dc/elements/1.1/">
  <sodipodi:namedview
     id="namedview7"
     pagecolor="#9c4444"
     bordercolor="#000000"
     borderopacity="0.25"
     inkscape:showpageshadow="2"
     inkscape:pageopacity="0.0"
     inkscape:pagecheckerboard="0"
     inkscape:deskcolor="#d1d1d1"
     inkscape:zoom="4.3531261"
     inkscape:cx="32.964816"
     inkscape:cy="24.350317"
     inkscape:window-width="1463"
     inkscape:window-height="604"
     inkscape:window-x="191"
     inkscape:window-y="142"
     inkscape:window-maximized="0"
     inkscape:current-layer="svg7"
     showgrid="false" />
  <defs
     id="defs2">
    <linearGradient
       id="linearGradient5"
       inkscape:collect="always">
      <stop
         style="stop-color:#392713;stop-opacity:1;"
         offset="0"
         id="stop2" />
      <stop
         style="stop-color:#eed59e;stop-opacity:1;"
         offset="0.5"
         id="stop3" />
      <stop
         style="stop-color:#beaa8a;stop-opacity:1;"
         offset="1"
         id="stop4" />
    </linearGradient>
    <linearGradient
       id="linearGradient8"
       inkscape:collect="always">
      <stop
         style="stop-color:#1a1a1a;stop-opacity:1;"
         offset="0"
         id="stop8" />
      <stop
         style="stop-color:#ffffff;stop-opacity:0;"
         offset="1"
         id="stop9" />
    </linearGradient>
    <linearGradient
       inkscape:collect="always"
       xlink:href="#linearGradient5"
       id="linearGradient41"
       x1="13.675659"
       y1="16.110115"
       x2="13.728528"
       y2="10.548769"
       gradientUnits="userSpaceOnUse"
       gradientTransform="matrix(2.046153,0,0,2.046153,-18.798306,-18.911347)" />
    <linearGradient
       inkscape:collect="always"
       xlink:href="#linearGradient42"
       id="linearGradient4"
       x1="11.885941"
       y1="16.50819"
       x2="12.026573"
       y2="10.244942"
       gradientUnits="userSpaceOnUse"
       gradientTransform="matrix(2.046153,0,0,2.046153,-18.798306,-18.911347)" />
    <linearGradient
       id="linearGradient42"
       inkscape:collect="always">
      <stop
         style="stop-color:#010101;stop-opacity:1;"
         offset="0"
         id="stop42" />
      <stop
         style="stop-color:#6e6c6d;stop-opacity:1;"
         offset="1"
         id="stop43" />
    </linearGradient>
    <linearGradient
       inkscape:collect="always"
       xlink:href="#linearGradient8"
       id="linearGradient9"
       x1="9.3404646"
       y1="4.1692023"
       x2="9.4279938"
       y2="16.46883"
       gradientUnits="userSpaceOnUse"
       gradientTransform="matrix(1.05,0,0,1.05,-0.50277005,-0.1977751)" />
    <filter
       style="color-interpolation-filters:sRGB;"
       inkscape:label="Blur"
       id="filter2"
       x="-0.14510849"
       y="-0.14612901"
       width="1.290217"
       height="1.292258">
      <feGaussianBlur
         stdDeviation="0.6 0.6"
         result="blur"
         id="feGaussianBlur2" />
    </filter>
    <linearGradient
       inkscape:collect="always"
       xlink:href="#linearGradient5"
       id="linearGradient18"
       x1="33.2714"
       y1="49.583241"
       x2="33.542473"
       y2="14.817144"
       gradientUnits="userSpaceOnUse"
       gradientTransform="matrix(0.23573911,0,0,0.23573911,0.93193041,0.7999033)" />
  </defs>
  <metadata
     id="metadata2">
    <rdf:RDF>
      <cc:Work
         rdf:about="">
        <dc:format>image/svg+xml</dc:format>
        <dc:type
           rdf:resource="http://purl.org/dc/dcmitype/StillImage" />
      </cc:Work>
    </rdf:RDF>
  </metadata>
  <rect
     style="fill:#000000;fill-opacity:0.996424;stroke:#000000;stroke-width:0.911802;stroke-dasharray:none;stroke-opacity:1;filter:url(#filter2)"
     id="rect1-2-3"
     width="13.065404"
     height="12.974159"
     x="1.9816793"
     y="1.9267306"
     rx="2.7149384"
     ry="2.8310909" />
  <rect
     style="fill:url(#linearGradient4);fill-opacity:0.996424;stroke:url(#linearGradient41);stroke-width:0.911802;stroke-dasharray:none;stroke-opacity:1"
     id="rect1-2"
     width="13.065404"
     height="12.974159"
     x="1.9816793"
     y="1.9267306"
     rx="2.7149384"
     ry="2.8310909" />
  <path
     style="fill:#000000;fill-opacity:1;stroke:none;stroke-width:0.270622;stroke-dasharray:none;stroke-opacity:0.3;opacity:0.3"
     d="M 5.5741344,13.078234 C 5.126716,13.026124 4.7514566,12.699163 4.6224653,12.249052 c -0.027332,-0.09537 -0.03058,-0.263913 -0.035949,-1.865358 l -0.0059,-1.7605135 h 3.9158909 3.9158895 l -0.0056,1.7605135 c -0.0066,1.963529 0.0015,1.834255 -0.131039,2.101255 -0.08991,0.181171 -0.295178,0.386434 -0.476347,0.476352 -0.176949,0.08783 -0.299569,0.115987 -0.56295,0.129318 l -0.222481,0.01128 -0.0048,-0.924425 -0.0048,-0.924426 -0.04042,-0.08204 C 10.91235,11.06628 10.806658,10.960592 10.701949,10.909014 l -0.08204,-0.04041 -2.0961178,-0.0046 c -2.4085618,-0.0053 -2.1993461,-0.01941 -2.3787025,0.160243 -0.1706445,0.170931 -0.1646289,0.12798 -0.1646289,1.175426 v 0.896803 l -0.1441611,-0.0023 c -0.07929,-0.0014 -0.1971628,-0.0085 -0.2619437,-0.016 z M 10.335772,9.9769199 c 0.0847,-0.057545 0.117845,-0.1248111 0.117765,-0.2388987 -1.19e-4,-0.1717142 -0.105709,-0.2759545 -0.27952,-0.2759545 -0.173812,0 -0.2793977,0.1042396 -0.2795174,0.2759545 -1.188e-4,0.1759439 0.1056684,0.2830848 0.2795174,0.2830848 0.07468,0 0.111557,-0.01009 0.161759,-0.04419 z m 1.109644,0.00933 c 0.08527,-0.051989 0.126398,-0.1316226 0.126398,-0.2447318 0,-0.1753838 -0.104069,-0.2794551 -0.279455,-0.2794551 -0.175383,0 -0.279453,0.1040722 -0.279453,0.2794551 0,0.1753826 0.10407,0.2794539 0.279453,0.2794539 0.06516,0 0.114454,-0.01121 0.153059,-0.034722 z M 6.2598232,12.677163 v -0.419377 h 2.2366815 2.2366833 v 0.419377 0.41938 H 8.4965047 6.2598232 Z M 4.5869548,7.8412138 C 4.5970774,7.2817694 4.606283,7.2222921 4.7175549,6.9980891 4.8074211,6.8170207 5.0126986,6.6117059 5.1939054,6.5216552 5.4085876,6.4149668 5.5062446,6.3972109 5.8841316,6.3961602 c 0.3072307,-9.36e-4 0.3372227,0.00189 0.4019026,0.036595 0.1531348,0.0822 0.2240104,0.1903634 0.2444997,0.3731214 0.015889,0.141722 0.047349,0.2195136 0.1189733,0.2941818 0.1213976,0.1265568 -0.1098007,0.1154721 2.6158572,0.1254005 l 2.4551076,0.00895 0.103444,0.039194 c 0.146871,0.055647 0.23772,0.1126456 0.332708,0.2087495 0.168891,0.170873 0.231152,0.3329269 0.247839,0.6451117 l 0.0115,0.216136 H 8.4969534 4.5778783 Z M 7.0231579,6.9199344 C 6.8996446,6.8766569 6.8364674,6.7889626 6.8364674,6.6607969 c 0,-0.089893 0.051744,-0.1782432 0.1311162,-0.2238887 0.0288,-0.016563 0.6853598,-0.2517578 1.4590257,-0.5226574 0.7736637,-0.270901 1.8545937,-0.6493826 2.4020617,-0.8410711 1.087869,-0.3809026 1.068983,-0.3763972 1.181358,-0.2818399 0.139277,0.1171947 0.139978,0.3238403 0.0014,0.4224938 -0.02772,0.019687 -0.367915,0.1469268 -0.756069,0.2827448 C 10.86715,5.6323965 10.250761,5.8480769 9.8855527,5.9758695 7.6372283,6.7625862 7.1725572,6.9242288 7.1333703,6.9332473 7.1093425,6.9387877 7.0596765,6.932705 7.0230011,6.9199325 Z"
     id="path1-3-5" />
  <path
     style="fill:url(#linearGradient18);fill-opacity:1;stroke:none;stroke-width:0.270622;stroke-dasharray:none;stroke-opacity:0.3"
     d="M 5.5741344,12.549078 C 5.126716,12.496968 4.7514566,12.170007 4.6224653,11.719896 4.5951332,11.624523 4.5918851,11.455983 4.5865166,9.8545375 l -0.0059,-1.7605132 h 3.9158909 3.9158895 l -0.0056,1.7605132 c -0.0066,1.9635295 0.0015,1.8342555 -0.131039,2.1012555 -0.08991,0.181171 -0.295178,0.386434 -0.476347,0.476352 -0.176949,0.08783 -0.299569,0.115987 -0.56295,0.129318 l -0.222481,0.01128 -0.0048,-0.924425 -0.0048,-0.924426 -0.04042,-0.08204 c -0.05161,-0.104728 -0.157302,-0.210416 -0.262011,-0.261994 l -0.08204,-0.04041 -2.0961178,-0.0046 c -2.4085618,-0.0053 -2.1993461,-0.01941 -2.3787025,0.160243 -0.1706445,0.170931 -0.1646289,0.12798 -0.1646289,1.175426 v 0.896803 l -0.1441611,-0.0023 c -0.07929,-0.0014 -0.1971628,-0.0085 -0.2619437,-0.016 z M 10.335772,9.4477637 c 0.0847,-0.057545 0.117845,-0.1248111 0.117765,-0.2388987 -1.19e-4,-0.1717142 -0.105709,-0.2759545 -0.27952,-0.2759545 -0.173812,0 -0.2793977,0.1042396 -0.2795174,0.2759545 -1.188e-4,0.1759439 0.1056684,0.283085 0.2795174,0.283085 0.07468,0 0.111557,-0.010092 0.161759,-0.04419 z m 1.109644,0.00933 c 0.08527,-0.051989 0.126398,-0.1316226 0.126398,-0.2447318 0,-0.1753838 -0.104069,-0.2794551 -0.279455,-0.2794551 -0.175383,0 -0.279453,0.1040722 -0.279453,0.2794551 0,0.1753826 0.10407,0.2794538 0.279453,0.2794538 0.06516,0 0.114454,-0.011205 0.153059,-0.034722 z M 6.2598232,12.148007 V 11.72863 h 2.2366815 2.2366833 v 0.419377 0.41938 H 8.4965047 6.2598232 Z M 4.5869548,7.3120576 C 4.5970774,6.7526132 4.606283,6.6931359 4.7175549,6.4689329 4.8074211,6.2878645 5.0126986,6.0825497 5.1939054,5.992499 5.4085876,5.8858106 5.5062446,5.8680547 5.8841316,5.867004 c 0.3072307,-9.36e-4 0.3372227,0.00189 0.4019026,0.036595 0.1531348,0.0822 0.2240104,0.1903634 0.2444997,0.3731214 0.015889,0.141722 0.047349,0.2195136 0.1189733,0.2941818 0.1213976,0.1265568 -0.1098007,0.1154721 2.6158572,0.1254005 l 2.4551076,0.00895 0.103444,0.039194 c 0.146871,0.055647 0.23772,0.1126456 0.332708,0.2087495 0.168891,0.170873 0.231152,0.3329269 0.247839,0.6451117 l 0.0115,0.216136 H 8.4969534 4.5778783 Z M 7.0231579,6.3907782 C 6.8996446,6.3475007 6.8364674,6.2598064 6.8364674,6.1316407 c 0,-0.089893 0.051744,-0.1782432 0.1311162,-0.2238887 C 6.9963836,5.891189 7.6529434,5.6559942 8.4266093,5.3850946 9.200273,5.1141936 10.281203,4.735712 10.828671,4.5440235 11.91654,4.1631209 11.897654,4.1676263 12.010029,4.2621836 c 0.139277,0.1171947 0.139978,0.3238403 0.0014,0.4224938 C 11.983713,4.704364 11.643514,4.8316042 11.25536,4.9674222 10.86715,5.1032403 10.250761,5.3189207 9.8855527,5.4467133 7.6372283,6.23343 7.1725572,6.3950726 7.1333703,6.4040911 7.1093425,6.4096315 7.0596765,6.4035488 7.0230011,6.3907763 Z"
     id="path1-3" />
  <rect
     style="opacity:0.5;fill:none;fill-opacity:0.996424;stroke:url(#linearGradient9);stroke-width:0.566102;stroke-dasharray:none;stroke-opacity:1"
     id="rect1-2-6"
     width="11.574203"
     height="11.508601"
     x="2.729686"
     y="2.6615164"
     rx="2.0246315"
     ry="2.0627522" />
</svg>
