<?xml version="1.0" encoding="UTF-8" standalone="no"?>
<svg
   width="64"
   height="64"
   version="1.1"
   viewBox="0 0 16.933 16.933"
   id="svg7"
   sodipodi:docname="Template 4.svg"
   inkscape:version="1.3.2 (091e20ef0f, 2023-11-25)"
   xmlns:inkscape="http://www.inkscape.org/namespaces/inkscape"
   xmlns:sodipodi="http://sodipodi.sourceforge.net/DTD/sodipodi-0.dtd"
   xmlns:xlink="http://www.w3.org/1999/xlink"
   xmlns="http://www.w3.org/2000/svg"
   xmlns:svg="http://www.w3.org/2000/svg"
   xmlns:rdf="http://www.w3.org/1999/02/22-rdf-syntax-ns#"
   xmlns:cc="http://creativecommons.org/ns#"
   xmlns:dc="http://purl.org/dc/elements/1.1/">
  <sodipodi:namedview
     id="namedview7"
     pagecolor="#9c4444"
     bordercolor="#000000"
     borderopacity="0.25"
     inkscape:showpageshadow="2"
     inkscape:pageopacity="0.0"
     inkscape:pagecheckerboard="0"
     inkscape:deskcolor="#d1d1d1"
     inkscape:zoom="4.3531261"
     inkscape:cx="32.964816"
     inkscape:cy="24.350317"
     inkscape:window-width="1463"
     inkscape:window-height="604"
     inkscape:window-x="191"
     inkscape:window-y="142"
     inkscape:window-maximized="0"
     inkscape:current-layer="svg7"
     showgrid="false" />
  <defs
     id="defs2">
    <linearGradient
       id="linearGradient5"
       inkscape:collect="always">
      <stop
         style="stop-color:#392713;stop-opacity:1;"
         offset="0"
         id="stop2" />
      <stop
         style="stop-color:#eed59e;stop-opacity:1;"
         offset="0.5"
         id="stop3" />
      <stop
         style="stop-color:#beaa8a;stop-opacity:1;"
         offset="1"
         id="stop4" />
    </linearGradient>
    <linearGradient
       id="linearGradient8"
       inkscape:collect="always">
      <stop
         style="stop-color:#1a1a1a;stop-opacity:1;"
         offset="0"
         id="stop8" />
      <stop
         style="stop-color:#ffffff;stop-opacity:0;"
         offset="1"
         id="stop9" />
    </linearGradient>
    <linearGradient
       inkscape:collect="always"
       xlink:href="#linearGradient5"
       id="linearGradient41"
       x1="13.675659"
       y1="16.110115"
       x2="13.728528"
       y2="10.548769"
       gradientUnits="userSpaceOnUse"
       gradientTransform="matrix(2.046153,0,0,2.046153,-18.798306,-18.911347)" />
    <linearGradient
       inkscape:collect="always"
       xlink:href="#linearGradient42"
       id="linearGradient4"
       x1="11.885941"
       y1="16.50819"
       x2="12.026573"
       y2="10.244942"
       gradientUnits="userSpaceOnUse"
       gradientTransform="matrix(2.046153,0,0,2.046153,-18.798306,-18.911347)" />
    <linearGradient
       id="linearGradient42"
       inkscape:collect="always">
      <stop
         style="stop-color:#010101;stop-opacity:1;"
         offset="0"
         id="stop42" />
      <stop
         style="stop-color:#6e6c6d;stop-opacity:1;"
         offset="1"
         id="stop43" />
    </linearGradient>
    <linearGradient
       inkscape:collect="always"
       xlink:href="#linearGradient8"
       id="linearGradient9"
       x1="9.3404646"
       y1="4.1692023"
       x2="9.4279938"
       y2="16.46883"
       gradientUnits="userSpaceOnUse"
       gradientTransform="matrix(1.05,0,0,1.05,-0.50277005,-0.1977751)" />
    <filter
       style="color-interpolation-filters:sRGB;"
       inkscape:label="Blur"
       id="filter2"
       x="-0.14510849"
       y="-0.14612901"
       width="1.290217"
       height="1.292258">
      <feGaussianBlur
         stdDeviation="0.6 0.6"
         result="blur"
         id="feGaussianBlur2" />
    </filter>
    <linearGradient
       inkscape:collect="always"
       xlink:href="#linearGradient5"
       id="linearGradient26"
       x1="33.745663"
       y1="48.717743"
       x2="33.770382"
       y2="15.122499"
       gradientUnits="userSpaceOnUse"
       gradientTransform="matrix(0.23573911,0,0,0.23573911,0.9528427,0.91959871)" />
  </defs>
  <metadata
     id="metadata2">
    <rdf:RDF>
      <cc:Work
         rdf:about="">
        <dc:format>image/svg+xml</dc:format>
        <dc:type
           rdf:resource="http://purl.org/dc/dcmitype/StillImage" />
      </cc:Work>
    </rdf:RDF>
  </metadata>
  <rect
     style="fill:#000000;fill-opacity:0.996424;stroke:#000000;stroke-width:0.911802;stroke-dasharray:none;stroke-opacity:1;filter:url(#filter2)"
     id="rect1-2-3"
     width="13.065404"
     height="12.974159"
     x="1.9816793"
     y="1.9267306"
     rx="2.7149384"
     ry="2.8310909" />
  <rect
     style="fill:url(#linearGradient4);fill-opacity:0.996424;stroke:url(#linearGradient41);stroke-width:0.911802;stroke-dasharray:none;stroke-opacity:1"
     id="rect1-2"
     width="13.065404"
     height="12.974159"
     x="1.9816793"
     y="1.9267306"
     rx="2.7149384"
     ry="2.8310909" />
  <path
     id="path40-6"
     style="fill:#000000;fill-opacity:1;stroke:none;stroke-width:0.282392;stroke-dasharray:none;stroke-opacity:0.3;opacity:0.3"
     d="M 8.6843008,5.0379359 C 7.9393167,5.027356 7.1782372,5.1840508 6.47646,5.5299154 4.2167736,6.6435815 3.6405564,9.2405527 5.2696758,10.969268 l 0.217861,0.231097 -0.1395413,0.697156 c -0.076672,0.383549 -0.1399669,0.738292 -0.1406446,0.78816 -7.544e-4,0.05427 0.031218,0.122777 0.078872,0.170429 0.043789,0.04378 0.1129317,0.07886 0.1538816,0.07832 0.04095,-5.42e-4 0.4164432,-0.18753 0.8344902,-0.415868 l 0.7600311,-0.415313 0.2586753,0.07556 c 0.8868002,0.257816 2.0418811,0.222367 2.9309189,-0.08989 0.873213,-0.306714 1.646688,-0.884114 2.102496,-1.569152 0.212247,-0.318987 0.341614,-0.595416 0.458885,-0.9806493 0.07828,-0.257185 0.08695,-0.3370555 0.08934,-0.8201508 0.0032,-0.6384027 -0.05188,-0.8913536 -0.306104,-1.4152836 C 11.884889,5.8941585 10.323267,5.0612098 8.6843008,5.0379359 Z m 1.0308409,1.8636759 0.9486613,0.00883 c 0.924248,0.00838 0.94866,0.010161 0.94866,0.073355 0,0.054343 -0.0292,0.068416 -0.178151,0.086592 -0.13578,0.016573 -0.194778,0.041692 -0.250954,0.1069999 l -0.07391,0.08549 v 1.228843 1.2293978 l 0.07391,0.08549 c 0.05617,0.065308 0.115174,0.09043 0.250954,0.1070002 0.148952,0.018175 0.178151,0.03225 0.178151,0.086593 0,0.0632 -0.02442,0.06498 -0.94866,0.07335 l -0.9486613,0.0088 v -0.08163 c 0,-0.067326 0.015184,-0.08148 0.088799,-0.081628 0.1494682,-3.066e-4 0.3298993,-0.064275 0.3645723,-0.1290623 0.04362,-0.081478 0.04465,-2.5131229 0.0011,-2.5944753 -0.03804,-0.071086 -0.1960844,-0.1307165 -0.3458192,-0.1307165 -0.09448,0 -0.1086552,-0.010712 -0.1086552,-0.081629 z m -4.1195018,0.00108 h 0.9083974 0.9078455 v 0.081078 c 0,0.071265 -0.014085,0.081076 -0.1152731,0.081076 -0.1623942,0 -0.2931432,0.077509 -0.3353402,0.198557 -0.020066,0.057569 -0.035852,0.3157541 -0.035852,0.5846391 V 8.3295548 H 7.5580422 8.190666 V 7.7962 c 0,-0.5103964 -0.00336,-0.5371778 -0.07501,-0.6204897 C 8.0575306,7.1081355 8.0031124,7.0851283 7.8724245,7.072571 7.7213994,7.0580565 7.7036511,7.04839 7.7036511,6.9793592 v -0.076666 h 0.9249436 0.9243922 v 0.081078 c 0,0.071265 -0.014085,0.081077 -0.1152731,0.081077 -0.1623941,0 -0.293143,0.077509 -0.3353405,0.198557 -0.023652,0.067854 -0.036403,0.4899386 -0.036403,1.2343616 0,1.2924608 0.00594,1.3280468 0.2167576,1.3865879 0.068323,0.018967 0.1567634,0.034648 0.1969027,0.034748 0.056174,1.395e-4 0.073355,0.018663 0.073355,0.081077 v 0.08108 H 8.6285947 7.7036511 v -0.07667 c 0,-0.067987 0.019465,-0.079912 0.165464,-0.099278 0.1106416,-0.014677 0.1909132,-0.047511 0.2432321,-0.099831 0.076745,-0.076739 0.07832,-0.088395 0.07832,-0.6635106 V 8.5567846 H 7.558043 6.9254187 v 0.5107321 c 2.593e-4,0.7304952 0.027349,0.7972615 0.3392013,0.8400057 0.1275112,0.017477 0.1472628,0.030679 0.1472628,0.097073 v 0.07667 H 6.5040373 5.5956399 v -0.07667 c 0,-0.067696 0.019206,-0.079433 0.1604999,-0.098175 0.1189959,-0.015785 0.1779297,-0.043213 0.2272372,-0.1058971 0.064371,-0.081842 0.066186,-0.1238951 0.066186,-1.2988929 0,-0.8076603 -0.011433,-1.2360254 -0.034748,-1.2795881 -0.040198,-0.075113 -0.21631,-0.1571911 -0.3369942,-0.1571911 -0.065983,0 -0.08218,-0.015928 -0.08218,-0.081078 z" />
  <path
     id="path40"
     style="fill:url(#linearGradient26);fill-opacity:1;stroke:none;stroke-width:0.282392;stroke-dasharray:none;stroke-opacity:0.3"
     d="M 8.6843008,4.5087797 C 7.9393167,4.4981998 7.1782372,4.6548946 6.47646,5.0007592 4.2167736,6.1144253 3.6405564,8.7113965 5.2696758,10.440112 l 0.217861,0.231097 -0.1395413,0.697156 c -0.076672,0.383549 -0.1399669,0.738292 -0.1406446,0.78816 -7.544e-4,0.05427 0.031218,0.122777 0.078872,0.170429 0.043789,0.04378 0.1129317,0.07886 0.1538816,0.07832 0.04095,-5.42e-4 0.4164432,-0.18753 0.8344902,-0.415868 l 0.7600311,-0.415313 0.2586753,0.07556 c 0.8868002,0.257816 2.0418811,0.222367 2.9309189,-0.08989 0.873213,-0.306714 1.646688,-0.884114 2.102496,-1.5691518 0.212247,-0.3189875 0.341614,-0.5954164 0.458885,-0.9806497 0.07828,-0.257185 0.08695,-0.3370555 0.08934,-0.8201508 C 12.878184,7.551408 12.823059,7.2984571 12.568837,6.7745271 11.884889,5.3650023 10.323267,4.5320536 8.6843008,4.5087797 Z m 1.0308409,1.8636759 0.9486613,0.00883 c 0.924248,0.00838 0.94866,0.010161 0.94866,0.073355 0,0.054343 -0.0292,0.068416 -0.178151,0.086592 -0.13578,0.016573 -0.194778,0.041692 -0.250954,0.1069999 l -0.07391,0.08549 v 1.228843 1.2293978 l 0.07391,0.08549 c 0.05617,0.065308 0.115174,0.09043 0.250954,0.1070001 0.148952,0.018175 0.178151,0.03225 0.178151,0.086593 0,0.063197 -0.02442,0.064979 -0.94866,0.073355 l -0.9486613,0.00883 v -0.081634 c 0,-0.067326 0.015184,-0.08148 0.088799,-0.081628 0.1494682,-3.065e-4 0.3298993,-0.064275 0.3645723,-0.1290623 0.04362,-0.081478 0.04465,-2.5131229 0.0011,-2.5944753 -0.03804,-0.071086 -0.1960844,-0.1307165 -0.3458192,-0.1307165 -0.09448,0 -0.1086552,-0.010712 -0.1086552,-0.081629 z m -4.1195018,0.00108 h 0.9083974 0.9078455 v 0.081078 c 0,0.071265 -0.014085,0.081076 -0.1152731,0.081076 -0.1623942,0 -0.2931432,0.077509 -0.3353402,0.198557 -0.020066,0.057569 -0.035852,0.3157541 -0.035852,0.5846391 V 7.8003986 H 7.5580422 8.190666 V 7.2670438 c 0,-0.5103964 -0.00336,-0.5371778 -0.07501,-0.6204897 C 8.0575306,6.5789793 8.0031124,6.5559721 7.8724245,6.5434148 7.7213994,6.5289003 7.7036511,6.5192338 7.7036511,6.450203 V 6.373537 h 0.9249436 0.9243922 v 0.081078 c 0,0.071265 -0.014085,0.081077 -0.1152731,0.081077 -0.1623941,0 -0.293143,0.077509 -0.3353405,0.198557 -0.023652,0.067854 -0.036403,0.4899386 -0.036403,1.2343616 0,1.2924608 0.00594,1.3280468 0.2167576,1.3865879 0.068323,0.018967 0.1567634,0.034648 0.1969027,0.034748 0.056174,1.395e-4 0.073355,0.018663 0.073355,0.081077 v 0.081078 H 8.6285947 7.7036511 v -0.076666 c 0,-0.067987 0.019465,-0.079912 0.165464,-0.099278 0.1106416,-0.014677 0.1909132,-0.047511 0.2432321,-0.099831 0.076745,-0.076739 0.07832,-0.088395 0.07832,-0.6635106 V 8.0276284 H 7.558043 6.9254187 v 0.5107321 c 2.593e-4,0.7304952 0.027349,0.7972615 0.3392013,0.8400057 0.1275112,0.017477 0.1472628,0.030679 0.1472628,0.097073 v 0.076666 H 6.5040373 5.5956399 v -0.076666 c 0,-0.067696 0.019206,-0.079433 0.1604999,-0.098175 C 5.8751357,9.3614788 5.9340695,9.3340513 5.983377,9.2713671 6.0477477,9.1895247 6.049563,9.147472 6.049563,7.9724742 6.049563,7.1648139 6.0381303,6.7364488 6.0148149,6.6928861 5.9746164,6.617773 5.7985049,6.535695 5.6778207,6.535695 c -0.065983,0 -0.08218,-0.015928 -0.08218,-0.081078 z" />
  <rect
     style="opacity:0.5;fill:none;fill-opacity:0.996424;stroke:url(#linearGradient9);stroke-width:0.566102;stroke-dasharray:none;stroke-opacity:1"
     id="rect1-2-6"
     width="11.574203"
     height="11.508601"
     x="2.729686"
     y="2.6615164"
     rx="2.0246315"
     ry="2.0627522" />
</svg>
