<?xml version="1.0" encoding="UTF-8" standalone="no"?>
<svg
   width="64"
   height="64"
   version="1.1"
   viewBox="0 0 16.933 16.933"
   id="svg7"
   sodipodi:docname="preferences-system.svg"
   inkscape:version="1.3.2 (091e20ef0f, 2023-11-25)"
   xmlns:inkscape="http://www.inkscape.org/namespaces/inkscape"
   xmlns:sodipodi="http://sodipodi.sourceforge.net/DTD/sodipodi-0.dtd"
   xmlns:xlink="http://www.w3.org/1999/xlink"
   xmlns="http://www.w3.org/2000/svg"
   xmlns:svg="http://www.w3.org/2000/svg"
   xmlns:rdf="http://www.w3.org/1999/02/22-rdf-syntax-ns#"
   xmlns:cc="http://creativecommons.org/ns#"
   xmlns:dc="http://purl.org/dc/elements/1.1/">
  <sodipodi:namedview
     id="namedview7"
     pagecolor="#9c4444"
     bordercolor="#000000"
     borderopacity="0.25"
     inkscape:showpageshadow="2"
     inkscape:pageopacity="0.0"
     inkscape:pagecheckerboard="0"
     inkscape:deskcolor="#d1d1d1"
     inkscape:zoom="4.3531261"
     inkscape:cx="32.849956"
     inkscape:cy="24.465177"
     inkscape:window-width="1463"
     inkscape:window-height="604"
     inkscape:window-x="199"
     inkscape:window-y="276"
     inkscape:window-maximized="0"
     inkscape:current-layer="svg7"
     showgrid="false" />
  <defs
     id="defs2">
    <linearGradient
       id="linearGradient5"
       inkscape:collect="always">
      <stop
         style="stop-color:#392713;stop-opacity:1;"
         offset="0"
         id="stop2" />
      <stop
         style="stop-color:#eed59e;stop-opacity:1;"
         offset="0.5"
         id="stop3" />
      <stop
         style="stop-color:#beaa8a;stop-opacity:1;"
         offset="1"
         id="stop4" />
    </linearGradient>
    <linearGradient
       id="linearGradient8"
       inkscape:collect="always">
      <stop
         style="stop-color:#1a1a1a;stop-opacity:1;"
         offset="0"
         id="stop8" />
      <stop
         style="stop-color:#ffffff;stop-opacity:0;"
         offset="1"
         id="stop9" />
    </linearGradient>
    <linearGradient
       inkscape:collect="always"
       xlink:href="#linearGradient5"
       id="linearGradient41"
       x1="13.675659"
       y1="16.110115"
       x2="13.728528"
       y2="10.548769"
       gradientUnits="userSpaceOnUse"
       gradientTransform="matrix(2.046153,0,0,2.046153,-18.798306,-18.911347)" />
    <linearGradient
       inkscape:collect="always"
       xlink:href="#linearGradient42"
       id="linearGradient4"
       x1="11.885941"
       y1="16.50819"
       x2="12.026573"
       y2="10.244942"
       gradientUnits="userSpaceOnUse"
       gradientTransform="matrix(2.046153,0,0,2.046153,-18.798306,-18.911347)" />
    <linearGradient
       id="linearGradient42"
       inkscape:collect="always">
      <stop
         style="stop-color:#010101;stop-opacity:1;"
         offset="0"
         id="stop42" />
      <stop
         style="stop-color:#6e6c6d;stop-opacity:1;"
         offset="1"
         id="stop43" />
    </linearGradient>
    <linearGradient
       inkscape:collect="always"
       xlink:href="#linearGradient8"
       id="linearGradient9"
       x1="9.3404646"
       y1="4.1692023"
       x2="9.4279938"
       y2="16.46883"
       gradientUnits="userSpaceOnUse"
       gradientTransform="matrix(1.05,0,0,1.05,-0.50277005,-0.1977751)" />
    <filter
       style="color-interpolation-filters:sRGB;"
       inkscape:label="Blur"
       id="filter2"
       x="-0.14510849"
       y="-0.14612901"
       width="1.290217"
       height="1.292258">
      <feGaussianBlur
         stdDeviation="0.6 0.6"
         result="blur"
         id="feGaussianBlur2" />
    </filter>
    <linearGradient
       inkscape:collect="always"
       xlink:href="#linearGradient5"
       id="linearGradient31"
       x1="8.717001"
       y1="12.769254"
       x2="8.8235645"
       y2="4.001914"
       gradientUnits="userSpaceOnUse" />
  </defs>
  <metadata
     id="metadata2">
    <rdf:RDF>
      <cc:Work
         rdf:about="">
        <dc:format>image/svg+xml</dc:format>
        <dc:type
           rdf:resource="http://purl.org/dc/dcmitype/StillImage" />
      </cc:Work>
    </rdf:RDF>
  </metadata>
  <rect
     style="fill:#000000;fill-opacity:0.996424;stroke:#000000;stroke-width:0.911802;stroke-dasharray:none;stroke-opacity:1;filter:url(#filter2)"
     id="rect1-2-3"
     width="13.065404"
     height="12.974159"
     x="1.9816793"
     y="1.9267306"
     rx="2.7149384"
     ry="2.8310909" />
  <rect
     style="fill:url(#linearGradient4);fill-opacity:0.996424;stroke:url(#linearGradient41);stroke-width:0.911802;stroke-dasharray:none;stroke-opacity:1"
     id="rect1-2"
     width="13.065404"
     height="12.974159"
     x="1.9816793"
     y="1.9267306"
     rx="2.7149384"
     ry="2.8310909" />
  <path
     d="M 8.4641062,4.443517 C 8.2069778,4.4429511 7.9513356,4.5448402 7.7668167,4.750669 L 4.6973921,8.1738142 c -1.0372625,1.3998173 0.7059465,1.2373109 1.4532355,1.6405398 0.2680614,0.298602 -1.0272582,0.517848 -0.7591969,0.816702 0.2680615,0.298601 1.6196715,0.574917 1.88815,0.873519 0.2680611,0.298602 -0.5482624,0.615771 -0.2802246,0.914347 0.268061,0.298601 0.8874947,0.01551 1.0035812,0.704841 0.082724,0.492603 1.1183444,0.211685 1.6242438,-0.191749 0.2680615,-0.298829 -0.512445,-0.269535 -0.2443836,-0.568137 0.6665785,-0.742888 1.2870775,-0.27118 1.5151665,-1.01556 0.112661,-0.367813 -0.9821087,-0.566038 -0.713584,-0.86464 0.771269,-0.490855 3.436651,-0.8106809 2.171742,-2.1891212 L 9.1743468,4.7507451 C 8.9797584,4.5471573 8.7211639,4.4441495 8.4640123,4.4435928 Z m 0.026069,0.3249104 c 0.1835898,0.00109 0.3667848,0.076493 0.4985167,0.2219277 l 1.2153751,1.3440123 c 0.115175,0.1282544 0.11332,0.3759341 0.04888,0.4473976 L 9.6501534,6.2562262 9.531225,7.0356423 9.02781,6.746248 8.219727,7.3001943 7.9525475,6.1301726 7.5191889,6.9468758 H 6.8577409 C 6.5876141,6.9468758 6.555278,6.573421 6.8007189,6.3059594 7.2294352,5.8016706 7.7210355,5.2881979 7.9884002,4.9903551 8.1227694,4.8406851 8.3066009,4.7673622 8.4901907,4.7684274 Z M 7.032064,9.9987668 c 0.082039,0.055533 1.3226642,0.3304742 1.6258692,0.3852662 0.1051191,0.02416 0.03084,0.142238 -0.1140419,0.221928 -0.32679,0.09464 -1.9118277,-0.6071942 -1.5119177,-0.6071942 z m 4.825702,0.9409852 c -0.249652,0.0094 -0.495823,0.147733 -0.563697,0.408362 0,0.169845 1.146942,0.282211 1.146942,-0.03906 -0.08181,-0.258001 -0.33359,-0.378665 -0.583245,-0.369281 z M 6.592182,11.67477 c -0.3598903,-0.0037 -0.7812721,0.284004 -0.470825,0.577017 0.2719381,0.256256 0.6919269,-0.06494 0.8178561,-0.422555 -0.074105,-0.107304 -0.2061925,-0.15304 -0.3470313,-0.154464 z m 4.556667,0.02309 c -0.350536,0.342669 0.03895,0.690119 0.384474,0.468723 0.07702,-0.08517 -0.0016,-0.383549 -0.384474,-0.468723 z"
     fill="url(#b)"
     stroke-width="0.837773"
     id="path42-4"
     style="opacity:0.3;fill:#000000;fill-opacity:1;stroke:none;stroke-width:0.269556;stroke-dasharray:none;stroke-opacity:0.3" />
  <path
     d="M 8.4641062,3.9143608 C 8.2069778,3.9137949 7.9513356,4.015684 7.7668167,4.2215128 L 4.6973921,7.644658 C 3.6601296,9.0444753 5.4033386,8.8819689 6.1506276,9.2851978 6.418689,9.5837997 5.1233694,9.8030456 5.3914307,10.1019 c 0.2680615,0.298601 1.6196715,0.574917 1.88815,0.873519 0.2680611,0.298602 -0.5482624,0.615771 -0.2802246,0.914347 0.268061,0.298601 0.8874947,0.01551 1.0035812,0.704841 0.082724,0.492603 1.1183444,0.211685 1.6242438,-0.191749 0.2680615,-0.298829 -0.512445,-0.269535 -0.2443836,-0.568137 0.6665785,-0.742888 1.2870775,-0.27118 1.5151665,-1.01556 C 11.010625,10.451348 9.9158553,10.253123 10.18438,9.9545207 10.955649,9.4636658 13.621031,9.1438399 12.356122,7.7653996 L 9.1743468,4.2215889 C 8.9797584,4.0180011 8.7211639,3.9149933 8.4640123,3.9144366 Z m 0.026069,0.3249104 c 0.1835898,0.00109 0.3667848,0.076493 0.4985167,0.2219277 l 1.2153751,1.3440123 c 0.115175,0.1282544 0.11332,0.3759341 0.04888,0.4473976 L 9.6501534,5.72707 9.531225,6.5064861 9.02781,6.2170918 8.219727,6.7710381 7.9525475,5.6010164 7.5191889,6.4177196 h -0.661448 c -0.2701268,0 -0.3024629,-0.3734548 -0.057022,-0.6409164 C 7.2294352,5.2725144 7.7210355,4.7590417 7.9884002,4.4611989 8.1227694,4.3115289 8.3066009,4.238206 8.4901907,4.2392712 Z M 7.032064,9.4696106 c 0.082039,0.055533 1.3226642,0.330474 1.6258692,0.3852666 0.1051191,0.024156 0.03084,0.1422378 -0.1140419,0.2219278 -0.32679,0.09464 -1.9118277,-0.6071944 -1.5119177,-0.6071944 z m 4.825702,0.9409854 c -0.249652,0.0094 -0.495823,0.147733 -0.563697,0.408362 0,0.169845 1.146942,0.282211 1.146942,-0.03906 -0.08181,-0.258001 -0.33359,-0.378665 -0.583245,-0.369281 z m -5.265584,0.735018 c -0.3598903,-0.0037 -0.7812721,0.284004 -0.470825,0.577017 0.2719381,0.256256 0.6919269,-0.06494 0.8178561,-0.422555 -0.074105,-0.107304 -0.2061925,-0.15304 -0.3470313,-0.154464 z m 4.556667,0.02309 c -0.350536,0.342669 0.03895,0.690119 0.384474,0.468723 0.07702,-0.08517 -0.0016,-0.383549 -0.384474,-0.468723 z"
     fill="url(#b)"
     stroke-width="0.837773"
     id="path42"
     style="fill:url(#linearGradient31);fill-opacity:1;stroke:none;stroke-width:0.269556;stroke-dasharray:none;stroke-opacity:0.3" />
  <rect
     style="opacity:0.5;fill:none;fill-opacity:0.996424;stroke:url(#linearGradient9);stroke-width:0.566102;stroke-dasharray:none;stroke-opacity:1"
     id="rect1-2-6"
     width="11.574203"
     height="11.508601"
     x="2.729686"
     y="2.6615164"
     rx="2.0246315"
     ry="2.0627522" />
</svg>
