<?xml version="1.0" encoding="UTF-8" standalone="no"?>
<svg
   width="64"
   height="64"
   version="1.1"
   viewBox="0 0 16.933 16.933"
   id="svg7"
   sodipodi:docname="Template 4.svg"
   inkscape:version="1.3.2 (091e20ef0f, 2023-11-25)"
   xmlns:inkscape="http://www.inkscape.org/namespaces/inkscape"
   xmlns:sodipodi="http://sodipodi.sourceforge.net/DTD/sodipodi-0.dtd"
   xmlns:xlink="http://www.w3.org/1999/xlink"
   xmlns="http://www.w3.org/2000/svg"
   xmlns:svg="http://www.w3.org/2000/svg"
   xmlns:rdf="http://www.w3.org/1999/02/22-rdf-syntax-ns#"
   xmlns:cc="http://creativecommons.org/ns#"
   xmlns:dc="http://purl.org/dc/elements/1.1/">
  <sodipodi:namedview
     id="namedview7"
     pagecolor="#9c4444"
     bordercolor="#000000"
     borderopacity="0.25"
     inkscape:showpageshadow="2"
     inkscape:pageopacity="0.0"
     inkscape:pagecheckerboard="0"
     inkscape:deskcolor="#d1d1d1"
     inkscape:zoom="4.3531261"
     inkscape:cx="32.964816"
     inkscape:cy="24.350317"
     inkscape:window-width="1463"
     inkscape:window-height="604"
     inkscape:window-x="199"
     inkscape:window-y="276"
     inkscape:window-maximized="0"
     inkscape:current-layer="svg7"
     showgrid="false" />
  <defs
     id="defs2">
    <linearGradient
       id="linearGradient5"
       inkscape:collect="always">
      <stop
         style="stop-color:#392713;stop-opacity:1;"
         offset="0"
         id="stop2" />
      <stop
         style="stop-color:#eed59e;stop-opacity:1;"
         offset="0.5"
         id="stop3" />
      <stop
         style="stop-color:#beaa8a;stop-opacity:1;"
         offset="1"
         id="stop4" />
    </linearGradient>
    <linearGradient
       id="linearGradient8"
       inkscape:collect="always">
      <stop
         style="stop-color:#1a1a1a;stop-opacity:1;"
         offset="0"
         id="stop8" />
      <stop
         style="stop-color:#ffffff;stop-opacity:0;"
         offset="1"
         id="stop9" />
    </linearGradient>
    <linearGradient
       inkscape:collect="always"
       xlink:href="#linearGradient5"
       id="linearGradient41"
       x1="13.675659"
       y1="16.110115"
       x2="13.728528"
       y2="10.548769"
       gradientUnits="userSpaceOnUse"
       gradientTransform="matrix(2.046153,0,0,2.046153,-18.798306,-18.911347)" />
    <linearGradient
       inkscape:collect="always"
       xlink:href="#linearGradient42"
       id="linearGradient4"
       x1="11.885941"
       y1="16.50819"
       x2="12.026573"
       y2="10.244942"
       gradientUnits="userSpaceOnUse"
       gradientTransform="matrix(2.046153,0,0,2.046153,-18.798306,-18.911347)" />
    <linearGradient
       id="linearGradient42"
       inkscape:collect="always">
      <stop
         style="stop-color:#010101;stop-opacity:1;"
         offset="0"
         id="stop42" />
      <stop
         style="stop-color:#6e6c6d;stop-opacity:1;"
         offset="1"
         id="stop43" />
    </linearGradient>
    <linearGradient
       inkscape:collect="always"
       xlink:href="#linearGradient8"
       id="linearGradient9"
       x1="9.3404646"
       y1="4.1692023"
       x2="9.4279938"
       y2="16.46883"
       gradientUnits="userSpaceOnUse"
       gradientTransform="matrix(1.05,0,0,1.05,-0.50277005,-0.1977751)" />
    <filter
       style="color-interpolation-filters:sRGB;"
       inkscape:label="Blur"
       id="filter2"
       x="-0.14510849"
       y="-0.14612901"
       width="1.290217"
       height="1.292258">
      <feGaussianBlur
         stdDeviation="0.6 0.6"
         result="blur"
         id="feGaussianBlur2" />
    </filter>
    <linearGradient
       inkscape:collect="always"
       xlink:href="#linearGradient5"
       id="linearGradient29"
       x1="8.5467138"
       y1="12.837435"
       x2="8.6917343"
       y2="3.8421609"
       gradientUnits="userSpaceOnUse" />
  </defs>
  <metadata
     id="metadata2">
    <rdf:RDF>
      <cc:Work
         rdf:about="">
        <dc:format>image/svg+xml</dc:format>
        <dc:type
           rdf:resource="http://purl.org/dc/dcmitype/StillImage" />
      </cc:Work>
    </rdf:RDF>
  </metadata>
  <rect
     style="fill:#000000;fill-opacity:0.996424;stroke:#000000;stroke-width:0.911802;stroke-dasharray:none;stroke-opacity:1;filter:url(#filter2)"
     id="rect1-2-3"
     width="13.065404"
     height="12.974159"
     x="1.9816793"
     y="1.9267306"
     rx="2.7149384"
     ry="2.8310909" />
  <rect
     style="fill:url(#linearGradient4);fill-opacity:0.996424;stroke:url(#linearGradient41);stroke-width:0.911802;stroke-dasharray:none;stroke-opacity:1"
     id="rect1-2"
     width="13.065404"
     height="12.974159"
     x="1.9816793"
     y="1.9267306"
     rx="2.7149384"
     ry="2.8310909" />
  <path
     id="path7-6"
     style="opacity:0.3;fill:#000000;stroke:none;stroke-width:0.0299601;stroke-dasharray:none;stroke-opacity:1"
     d="m 8.4661179,4.3846793 c -0.00261,0.0028 -0.046431,0.1668854 -0.097667,0.3646217 -0.051236,0.1977365 -0.106636,0.4052701 -0.1227802,0.4613581 L 8.2163667,5.3129765 8.0675418,5.3255333 C 7.5185218,5.3719427 6.8233486,5.6457014 6.350005,6.0017579 5.6433635,6.5333053 5.1679328,7.2708039 4.9836026,8.1215868 4.9602926,8.2291881 4.9355966,8.3839547 4.9287206,8.4652799 l -0.012555,0.1478951 -0.101852,0.0293 C 4.7582256,8.658661 4.5483309,8.71432 4.3478388,8.7661859 c -0.200492,0.051866 -0.362261,0.095917 -0.3595062,0.098132 0.00279,0.00221 0.1844463,0.050884 0.4041543,0.1078983 0.5873663,0.1524211 0.5214846,0.1166173 0.5362356,0.2911392 0.03141,0.3715956 0.1613253,0.8008456 0.3674128,1.2129246 0.081144,0.16226 0.1506743,0.29486 0.1544058,0.29486 0.00369,0 0.071388,-0.09003 0.150221,-0.200449 l 0.143244,-0.200914 -0.090225,-0.203703 C 5.4472541,9.7011452 5.3728727,9.3574253 5.3728727,8.863853 c 0,-0.3821935 0.039285,-0.6337953 0.1506862,-0.9696892 0.2989956,-0.9015066 1.0299373,-1.6498457 1.9072882,-1.9524005 0.4753074,-0.1639097 0.9723587,-0.217629 1.420352,-0.153941 0.3702,0.052628 0.5785754,0.1123664 0.9180653,0.2627693 L 9.9725045,6.1403522 10.164117,6.0054795 C 10.269471,5.9313123 10.352852,5.8610143 10.349218,5.849213 10.337374,5.8107623 9.7906745,5.5492786 9.5832335,5.482731 9.3280186,5.400858 9.0581734,5.3417717 8.8660816,5.3255342 L 8.7167959,5.3125112 8.6898229,5.2208906 C 8.6751186,5.170327 8.6199693,4.960449 8.5670403,4.754417 8.5141104,4.5483851 8.4686874,4.3818766 8.4661179,4.3846793 Z m 4.0940891,0.3976423 c -0.003,-0.00373 -1.048514,0.733487 -2.323534,1.6380075 L 7.918255,8.0648474 8.5921539,8.7392116 c 0.37056,0.3707554 0.6781134,0.6736578 0.6836664,0.673434 0.013518,-5.452e-4 3.2913877,-4.6216754 3.2843867,-4.630324 z m -1.069681,2.2137747 c -0.02078,-0.00141 -0.05332,0.040916 -0.151616,0.1781252 l -0.143708,0.1999839 0.07023,0.1511507 c 0.570889,1.2356059 0.314721,2.6455979 -0.64832,3.5699439 -0.495147,0.475253 -1.0766498,0.754545 -1.7598583,0.845512 -0.5682444,0.07566 -1.163186,-0.01989 -1.7207957,-0.276256 l -0.1525457,-0.06976 -0.2032399,0.141849 c -0.2388384,0.166996 -0.2500839,0.137704 0.1288269,0.32416 0.3821241,0.188038 0.7999602,0.31102 1.1589776,0.341369 l 0.1478943,0.01256 0.029304,0.102317 c 0.016056,0.05609 0.071856,0.2669 0.1241757,0.468799 l 0.095342,0.367413 0.096736,-0.367413 c 0.053379,-0.201899 0.110294,-0.41312 0.1260361,-0.469264 l 0.028368,-0.101852 0.1548712,-0.01395 c 0.2204227,-0.01978 0.493489,-0.08208 0.7585436,-0.173474 1.0574792,-0.364635 1.8856862,-1.215216 2.2314482,-2.2914423 0.07103,-0.221095 0.151151,-0.6207237 0.151151,-0.7529627 0,-0.078362 -0.03829,-0.062859 0.529259,-0.2102154 0.219709,-0.057043 0.401785,-0.106006 0.404618,-0.1083633 0.0028,-0.00236 -0.176959,-0.051122 -0.399501,-0.1083634 C 11.977192,8.60947 12.012347,8.623606 12.012347,8.5448182 c 0,-0.1314087 -0.07993,-0.5313275 -0.150687,-0.7529626 C 11.796,7.5862042 11.575978,7.0984309 11.509133,7.0100583 c -0.0062,-0.00825 -0.01167,-0.013482 -0.0186,-0.013953 z M 7.6485097,8.3373835 6.0202673,10.633941 c -0.895305,1.263081 -1.6311491,2.307076 -1.6356824,2.320278 -0.00612,0.0179 -0.00108,0.01838 0.019998,0.0019 0.015516,-0.01218 1.0526036,-0.748205 2.304932,-1.635682 C 7.961844,10.432951 8.9908192,9.7034975 8.9958429,9.6991637 9.0008829,9.6948257 8.6996274,9.3863934 8.3265943,9.0141028 Z" />
  <path
     id="path7"
     style="fill:url(#linearGradient29);stroke:none;stroke-width:0.0299601;stroke-dasharray:none;stroke-opacity:1"
     d="m 8.4661179,3.8555231 c -0.00261,0.0028 -0.046431,0.1668854 -0.097667,0.3646217 -0.051236,0.1977365 -0.106636,0.4052701 -0.1227802,0.4613581 L 8.2163667,4.7838203 8.0675418,4.7963771 C 7.5185218,4.8427865 6.8233486,5.1165452 6.350005,5.4726017 5.6433635,6.0041491 5.1679328,6.7416477 4.9836026,7.5924306 4.9602926,7.7000319 4.9355966,7.8547985 4.9287206,7.9361237 l -0.012555,0.1478951 -0.101852,0.0293 c -0.056088,0.016186 -0.2659827,0.071845 -0.4664748,0.1237109 -0.200492,0.051866 -0.362261,0.095917 -0.3595062,0.098132 0.00279,0.00221 0.1844463,0.050884 0.4041543,0.1078983 0.5873663,0.1524211 0.5214846,0.1166173 0.5362356,0.2911392 0.03141,0.3715956 0.1613253,0.8008453 0.3674128,1.2129246 0.081144,0.1622602 0.1506743,0.2948602 0.1544058,0.2948602 0.00369,0 0.071388,-0.09003 0.150221,-0.200449 L 5.7440061,9.8406206 5.6537811,9.6369173 C 5.4472541,9.171989 5.3728727,8.8282691 5.3728727,8.3346968 c 0,-0.3821935 0.039285,-0.6337953 0.1506862,-0.9696892 0.2989956,-0.9015066 1.0299373,-1.6498457 1.9072882,-1.9524005 0.4753074,-0.1639097 0.9723587,-0.217629 1.420352,-0.153941 0.3702,0.052628 0.5785754,0.1123664 0.9180653,0.2627693 L 9.9725045,5.611196 10.164117,5.4763233 C 10.269471,5.4021561 10.352852,5.3318581 10.349218,5.3200568 10.337374,5.2816061 9.7906745,5.0201224 9.5832335,4.9535748 9.3280186,4.8717018 9.0581734,4.8126155 8.8660816,4.796378 L 8.7167959,4.783355 8.6898229,4.6917344 C 8.6751186,4.6411708 8.6199693,4.4312928 8.5670403,4.2252608 8.5141104,4.0192289 8.4686874,3.8527204 8.4661179,3.8555231 Z m 4.0940891,0.3976423 c -0.003,-0.00373 -1.048514,0.733487 -2.323534,1.6380075 L 7.918255,7.5356912 8.5921539,8.2100554 c 0.37056,0.3707554 0.6781134,0.6736578 0.6836664,0.673434 0.013518,-5.452e-4 3.2913877,-4.6216754 3.2843867,-4.630324 z m -1.069681,2.2137747 c -0.02078,-0.00141 -0.05332,0.040916 -0.151616,0.1781252 l -0.143708,0.1999839 0.07023,0.1511507 c 0.570889,1.2356059 0.314721,2.6455976 -0.64832,3.5699441 -0.495147,0.475253 -1.0766498,0.754545 -1.7598583,0.845512 C 8.2890093,11.487319 7.6940677,11.391766 7.136458,11.1354 L 6.9839123,11.065641 6.7806724,11.20749 c -0.2388384,0.166996 -0.2500839,0.137704 0.1288269,0.32416 0.3821241,0.188038 0.7999602,0.31102 1.1589776,0.341369 l 0.1478943,0.01256 0.029304,0.102317 c 0.016056,0.05609 0.071856,0.2669 0.1241757,0.468799 l 0.095342,0.367413 0.096736,-0.367413 c 0.053379,-0.201899 0.110294,-0.41312 0.1260361,-0.469264 l 0.028368,-0.101852 0.1548712,-0.01395 c 0.2204227,-0.01978 0.493489,-0.08208 0.7585436,-0.173474 1.0574792,-0.364635 1.8856862,-1.215216 2.2314482,-2.2914425 0.07103,-0.221095 0.151151,-0.6207237 0.151151,-0.7529627 0,-0.078362 -0.03829,-0.062859 0.529259,-0.2102154 0.219709,-0.057043 0.401785,-0.106006 0.404618,-0.1083633 0.0028,-0.00236 -0.176959,-0.051122 -0.399501,-0.1083634 -0.569531,-0.1464939 -0.534376,-0.1323579 -0.534376,-0.2111457 0,-0.1314088 -0.07993,-0.5313276 -0.150687,-0.7529626 C 11.796,7.057048 11.575978,6.5692747 11.509133,6.4809021 c -0.0062,-0.00825 -0.01167,-0.013482 -0.0186,-0.013953 z M 7.6485097,7.8082273 6.0202673,10.104785 c -0.895305,1.263081 -1.6311491,2.307076 -1.6356824,2.320278 -0.00612,0.0179 -0.00108,0.01838 0.019998,0.0019 0.015516,-0.01218 1.0526036,-0.748205 2.304932,-1.635682 C 7.961844,9.9037943 8.9908192,9.1743413 8.9958429,9.1700075 9.0008829,9.1656695 8.6996274,8.8572372 8.3265943,8.4849466 Z" />
  <rect
     style="opacity:0.5;fill:none;fill-opacity:0.996424;stroke:url(#linearGradient9);stroke-width:0.566102;stroke-dasharray:none;stroke-opacity:1"
     id="rect1-2-6"
     width="11.574203"
     height="11.508601"
     x="2.729686"
     y="2.6615164"
     rx="2.0246315"
     ry="2.0627522" />
</svg>
