<?xml version="1.0" encoding="UTF-8" standalone="no"?>
<svg
   width="64"
   height="64"
   version="1.1"
   viewBox="0 0 16.933 16.933"
   id="svg7"
   sodipodi:docname="Template 4.svg"
   inkscape:version="1.3.2 (091e20ef0f, 2023-11-25)"
   xmlns:inkscape="http://www.inkscape.org/namespaces/inkscape"
   xmlns:sodipodi="http://sodipodi.sourceforge.net/DTD/sodipodi-0.dtd"
   xmlns:xlink="http://www.w3.org/1999/xlink"
   xmlns="http://www.w3.org/2000/svg"
   xmlns:svg="http://www.w3.org/2000/svg"
   xmlns:rdf="http://www.w3.org/1999/02/22-rdf-syntax-ns#"
   xmlns:cc="http://creativecommons.org/ns#"
   xmlns:dc="http://purl.org/dc/elements/1.1/">
  <sodipodi:namedview
     id="namedview7"
     pagecolor="#9c4444"
     bordercolor="#000000"
     borderopacity="0.25"
     inkscape:showpageshadow="2"
     inkscape:pageopacity="0.0"
     inkscape:pagecheckerboard="0"
     inkscape:deskcolor="#d1d1d1"
     inkscape:zoom="4.3531261"
     inkscape:cx="32.964816"
     inkscape:cy="24.350317"
     inkscape:window-width="1463"
     inkscape:window-height="604"
     inkscape:window-x="191"
     inkscape:window-y="142"
     inkscape:window-maximized="0"
     inkscape:current-layer="svg7"
     showgrid="false" />
  <defs
     id="defs2">
    <linearGradient
       id="linearGradient5"
       inkscape:collect="always">
      <stop
         style="stop-color:#392713;stop-opacity:1;"
         offset="0"
         id="stop2" />
      <stop
         style="stop-color:#eed59e;stop-opacity:1;"
         offset="0.5"
         id="stop3" />
      <stop
         style="stop-color:#beaa8a;stop-opacity:1;"
         offset="1"
         id="stop4" />
    </linearGradient>
    <linearGradient
       id="linearGradient8"
       inkscape:collect="always">
      <stop
         style="stop-color:#1a1a1a;stop-opacity:1;"
         offset="0"
         id="stop8" />
      <stop
         style="stop-color:#ffffff;stop-opacity:0;"
         offset="1"
         id="stop9" />
    </linearGradient>
    <linearGradient
       inkscape:collect="always"
       xlink:href="#linearGradient5"
       id="linearGradient41"
       x1="13.675659"
       y1="16.110115"
       x2="13.728528"
       y2="10.548769"
       gradientUnits="userSpaceOnUse"
       gradientTransform="matrix(2.046153,0,0,2.046153,-18.798306,-18.911347)" />
    <linearGradient
       inkscape:collect="always"
       xlink:href="#linearGradient42"
       id="linearGradient4"
       x1="11.885941"
       y1="16.50819"
       x2="12.026573"
       y2="10.244942"
       gradientUnits="userSpaceOnUse"
       gradientTransform="matrix(2.046153,0,0,2.046153,-18.798306,-18.911347)" />
    <linearGradient
       id="linearGradient42"
       inkscape:collect="always">
      <stop
         style="stop-color:#010101;stop-opacity:1;"
         offset="0"
         id="stop42" />
      <stop
         style="stop-color:#6e6c6d;stop-opacity:1;"
         offset="1"
         id="stop43" />
    </linearGradient>
    <linearGradient
       inkscape:collect="always"
       xlink:href="#linearGradient8"
       id="linearGradient9"
       x1="9.3404646"
       y1="4.1692023"
       x2="9.4279938"
       y2="16.46883"
       gradientUnits="userSpaceOnUse"
       gradientTransform="matrix(1.05,0,0,1.05,-0.50277005,-0.1977751)" />
    <filter
       style="color-interpolation-filters:sRGB;"
       inkscape:label="Blur"
       id="filter2"
       x="-0.14510849"
       y="-0.14612901"
       width="1.290217"
       height="1.292258">
      <feGaussianBlur
         stdDeviation="0.6 0.6"
         result="blur"
         id="feGaussianBlur2" />
    </filter>
    <linearGradient
       inkscape:collect="always"
       xlink:href="#linearGradient5"
       id="linearGradient20"
       x1="32.29586"
       y1="50.760307"
       x2="31.546619"
       y2="14.312935"
       gradientUnits="userSpaceOnUse"
       gradientTransform="matrix(0.23573911,0,0,0.23573911,0.93288768,0.82044596)" />
  </defs>
  <metadata
     id="metadata2">
    <rdf:RDF>
      <cc:Work
         rdf:about="">
        <dc:format>image/svg+xml</dc:format>
        <dc:type
           rdf:resource="http://purl.org/dc/dcmitype/StillImage" />
      </cc:Work>
    </rdf:RDF>
  </metadata>
  <rect
     style="fill:#000000;fill-opacity:0.996424;stroke:#000000;stroke-width:0.911802;stroke-dasharray:none;stroke-opacity:1;filter:url(#filter2)"
     id="rect1-2-3"
     width="13.065404"
     height="12.974159"
     x="1.9816793"
     y="1.9267306"
     rx="2.7149384"
     ry="2.8310909" />
  <rect
     style="fill:url(#linearGradient4);fill-opacity:0.996424;stroke:url(#linearGradient41);stroke-width:0.911802;stroke-dasharray:none;stroke-opacity:1"
     id="rect1-2"
     width="13.065404"
     height="12.974159"
     x="1.9816793"
     y="1.9267306"
     rx="2.7149384"
     ry="2.8310909" />
  <path
     id="path103-7"
     style="fill:#000000;fill-opacity:1;stroke:none;stroke-width:0.25672;stroke-dasharray:none;stroke-opacity:0.3;opacity:0.3"
     d="m 8.5019606,4.634039 c -0.7798114,0 -1.4330083,0.4881144 -1.6285084,1.2165294 -0.042458,0.1582104 -0.044044,0.2269535 -0.044044,1.7206614 0,1.4937078 0.00156,1.5629753 0.044044,1.7211856 0.1577995,0.5879459 0.608759,1.0199386 1.2244094,1.1735116 0.2271283,0.05666 0.5696518,0.05717 0.7999402,0.0011 0.6212397,-0.151385 1.0737916,-0.5826042 1.2326682,-1.1745595 0.04247,-0.1582109 0.04405,-0.2274786 0.04405,-1.7211867 0,-1.4937079 -0.0016,-1.5624505 -0.04405,-1.7206615 C 9.9349688,5.1221552 9.2817719,4.6340418 8.5019606,4.6340418 Z M 5.1232737,8.3838222 v 0.3000665 c 0,0.7001169 0.099155,1.145024 0.3716167,1.6692513 0.3140465,0.604239 0.9036296,1.157795 1.5426237,1.448399 0.215699,0.0981 0.5751162,0.215002 0.7702108,0.250755 l 0.136535,0.02517 v 0.559739 0.559741 h 0.5577007 0.5577008 v -0.559736 -0.55974 l 0.1365351,-0.02517 c 0.1950942,-0.03577 0.5545113,-0.152659 0.7702102,-0.250754 0.5972553,-0.271622 1.1715503,-0.790801 1.4892213,-1.346105 0.298536,-0.5218553 0.425018,-1.0482656 0.425018,-1.7715461 V 8.3838222 H 11.325148 10.7702 l -0.01046,0.4427563 c -0.009,0.3874792 -0.01725,0.4676159 -0.06551,0.641051 -0.214077,0.7692375 -0.8336436,1.3502845 -1.6483357,1.5459715 -0.1634674,0.03926 -0.25102,0.04664 -0.5549481,0.04564 -0.3154271,-0.0011 -0.3868825,-0.008 -0.5687118,-0.05456 C 7.122823,10.80035 6.5209489,10.227232 6.3102455,9.4697279 6.2612882,9.2937194 6.2532344,9.2154158 6.2441803,8.8265783 L 6.2337183,8.3838222 H 5.6787707 Z" />
  <path
     id="path103"
     style="fill:url(#linearGradient20);fill-opacity:1;stroke:none;stroke-width:0.25672;stroke-dasharray:none;stroke-opacity:0.3"
     d="m 8.5019606,4.1048828 c -0.7798114,0 -1.4330083,0.4881144 -1.6285084,1.2165294 -0.042458,0.1582104 -0.044044,0.2269535 -0.044044,1.7206614 0,1.4937078 0.00156,1.5629753 0.044044,1.7211856 0.1577995,0.5879459 0.608759,1.0199383 1.2244094,1.1735114 0.2271283,0.056664 0.5696518,0.057168 0.7999402,0.00108 0.6212397,-0.1513853 1.0737916,-0.582604 1.2326682,-1.1745593 0.04247,-0.1582109 0.04405,-0.2274786 0.04405,-1.7211867 0,-1.4937079 -0.0016,-1.5624505 -0.04405,-1.7206615 C 9.9349688,4.592999 9.2817719,4.1048856 8.5019606,4.1048856 Z M 5.1232737,7.854666 v 0.3000665 c 0,0.7001169 0.099155,1.145024 0.3716167,1.6692517 0.3140465,0.6042388 0.9036296,1.1577948 1.5426237,1.4483988 0.215699,0.0981 0.5751162,0.215002 0.7702108,0.250755 l 0.136535,0.02517 v 0.559739 0.559741 h 0.5577007 0.5577008 v -0.559736 -0.55974 l 0.1365351,-0.02517 C 9.3912907,11.487376 9.7507078,11.370483 9.9664067,11.272388 10.563662,11.000766 11.137957,10.481587 11.455628,9.9262829 11.754164,9.4044275 11.880646,8.8780172 11.880646,8.1547367 V 7.854666 H 11.325148 10.7702 l -0.01046,0.4427563 c -0.009,0.3874792 -0.01725,0.4676159 -0.06551,0.641051 -0.214077,0.7692378 -0.8336436,1.3502847 -1.6483357,1.5459717 -0.1634674,0.03926 -0.25102,0.04664 -0.5549481,0.04564 -0.3154271,-0.0011 -0.3868825,-0.008 -0.5687118,-0.05456 C 7.122823,10.271194 6.5209489,9.6980762 6.3102455,8.9405717 6.2612882,8.7645632 6.2532344,8.6862596 6.2441803,8.2974221 L 6.2337183,7.854666 H 5.6787707 Z" />
  <rect
     style="opacity:0.5;fill:none;fill-opacity:0.996424;stroke:url(#linearGradient9);stroke-width:0.566102;stroke-dasharray:none;stroke-opacity:1"
     id="rect1-2-6"
     width="11.574203"
     height="11.508601"
     x="2.729686"
     y="2.6615164"
     rx="2.0246315"
     ry="2.0627522" />
</svg>
