<?xml version="1.0" encoding="UTF-8" standalone="no"?>
<svg
   width="64"
   height="64"
   version="1.1"
   viewBox="0 0 16.933 16.933"
   id="svg7"
   sodipodi:docname="Template 4.svg"
   inkscape:version="1.3.2 (091e20ef0f, 2023-11-25)"
   xmlns:inkscape="http://www.inkscape.org/namespaces/inkscape"
   xmlns:sodipodi="http://sodipodi.sourceforge.net/DTD/sodipodi-0.dtd"
   xmlns:xlink="http://www.w3.org/1999/xlink"
   xmlns="http://www.w3.org/2000/svg"
   xmlns:svg="http://www.w3.org/2000/svg"
   xmlns:rdf="http://www.w3.org/1999/02/22-rdf-syntax-ns#"
   xmlns:cc="http://creativecommons.org/ns#"
   xmlns:dc="http://purl.org/dc/elements/1.1/">
  <sodipodi:namedview
     id="namedview7"
     pagecolor="#9c4444"
     bordercolor="#000000"
     borderopacity="0.25"
     inkscape:showpageshadow="2"
     inkscape:pageopacity="0.0"
     inkscape:pagecheckerboard="0"
     inkscape:deskcolor="#d1d1d1"
     inkscape:zoom="4.3531261"
     inkscape:cx="32.964816"
     inkscape:cy="24.350317"
     inkscape:window-width="1463"
     inkscape:window-height="604"
     inkscape:window-x="42"
     inkscape:window-y="99"
     inkscape:window-maximized="0"
     inkscape:current-layer="svg7"
     showgrid="false" />
  <defs
     id="defs2">
    <linearGradient
       id="linearGradient5"
       inkscape:collect="always">
      <stop
         style="stop-color:#392713;stop-opacity:1;"
         offset="0"
         id="stop2" />
      <stop
         style="stop-color:#eed59e;stop-opacity:1;"
         offset="0.5"
         id="stop3" />
      <stop
         style="stop-color:#beaa8a;stop-opacity:1;"
         offset="1"
         id="stop4" />
    </linearGradient>
    <linearGradient
       id="linearGradient8"
       inkscape:collect="always">
      <stop
         style="stop-color:#1a1a1a;stop-opacity:1;"
         offset="0"
         id="stop8" />
      <stop
         style="stop-color:#ffffff;stop-opacity:0;"
         offset="1"
         id="stop9" />
    </linearGradient>
    <linearGradient
       inkscape:collect="always"
       xlink:href="#linearGradient5"
       id="linearGradient41"
       x1="13.675659"
       y1="16.110115"
       x2="13.728528"
       y2="10.548769"
       gradientUnits="userSpaceOnUse"
       gradientTransform="matrix(2.046153,0,0,2.046153,-18.798306,-18.911347)" />
    <linearGradient
       inkscape:collect="always"
       xlink:href="#linearGradient42"
       id="linearGradient4"
       x1="11.885941"
       y1="16.50819"
       x2="12.026573"
       y2="10.244942"
       gradientUnits="userSpaceOnUse"
       gradientTransform="matrix(2.046153,0,0,2.046153,-18.798306,-18.911347)" />
    <linearGradient
       id="linearGradient42"
       inkscape:collect="always">
      <stop
         style="stop-color:#010101;stop-opacity:1;"
         offset="0"
         id="stop42" />
      <stop
         style="stop-color:#6e6c6d;stop-opacity:1;"
         offset="1"
         id="stop43" />
    </linearGradient>
    <linearGradient
       inkscape:collect="always"
       xlink:href="#linearGradient8"
       id="linearGradient9"
       x1="9.3404646"
       y1="4.1692023"
       x2="9.4279938"
       y2="16.46883"
       gradientUnits="userSpaceOnUse"
       gradientTransform="matrix(1.05,0,0,1.05,-0.50277005,-0.1977751)" />
    <filter
       style="color-interpolation-filters:sRGB;"
       inkscape:label="Blur"
       id="filter2"
       x="-0.14510849"
       y="-0.14612901"
       width="1.290217"
       height="1.292258">
      <feGaussianBlur
         stdDeviation="0.6 0.6"
         result="blur"
         id="feGaussianBlur2" />
    </filter>
    <linearGradient
       id="b"
       x2="1"
       gradientTransform="matrix(-0.15598952,-8.4517946,8.4517946,-0.15598952,8.6516278,12.692258)"
       gradientUnits="userSpaceOnUse">
      <stop
         stop-color="#b5c6cb"
         offset="0"
         id="stop3-4" />
      <stop
         stop-color="#fff"
         offset="1"
         id="stop4-3" />
    </linearGradient>
    <clipPath
       clipPathUnits="userSpaceOnUse"
       id="clipPath2617">
      <path
         id="path2619"
         style="display:block;fill:#813d9c;stroke-width:1.6"
         d="m 32.117188,5.8242188 -6.511719,6.5117192 6.513672,6.511718 6.509765,-6.509765 z m 0.002,13.0234372 -6.511719,6.511719 6.513672,6.509766 6.509765,-6.507813 z m 6.511718,6.513672 6.513672,6.509766 6.507813,-6.507813 -6.511719,-6.513672 z m 6.513672,6.509766 -6.511719,6.511718 6.513672,6.511719 6.507813,-6.509765 z m -6.511719,6.511718 -6.511718,-6.513671 -6.511719,6.511718 6.513672,6.511719 z m -6.509765,6.509766 -6.509766,6.509766 6.511719,6.511718 6.509766,-6.507812 z m -6.513672,-6.511719 -6.509766,-6.513671 -6.511718,6.511718 6.513671,6.511719 z m -6.509766,-6.513671 6.507813,-6.507813 -6.509766,-6.513672 -6.511718,6.509766 z" />
    </clipPath>
    <inkscape:path-effect
       effect="powerclip"
       id="path-effect2621"
       is_visible="true"
       lpeversion="1"
       inverse="true"
       flatten="false"
       hide_clip="false"
       message="Use fill-rule evenodd on &lt;b&gt;fill and stroke&lt;/b&gt; dialog if no flatten result after convert clip to paths." />
    <clipPath
       clipPathUnits="userSpaceOnUse"
       id="clipPath2617-4">
      <path
         id="path2619-8"
         style="display:none;fill:#813d9c;stroke-width:1.6"
         d="m 32.117188,5.8242188 -6.511719,6.5117192 6.513672,6.511718 6.509765,-6.509765 z m 0.002,13.0234372 -6.511719,6.511719 6.513672,6.509766 6.509765,-6.507813 z m 6.511718,6.513672 6.513672,6.509766 6.507813,-6.507813 -6.511719,-6.513672 z m 6.513672,6.509766 -6.511719,6.511718 6.513672,6.511719 6.507813,-6.509765 z m -6.511719,6.511718 -6.511718,-6.513671 -6.511719,6.511718 6.513672,6.511719 z m -6.509765,6.509766 -6.509766,6.509766 6.511719,6.511718 6.509766,-6.507812 z m -6.513672,-6.511719 -6.509766,-6.513671 -6.511718,6.511718 6.513671,6.511719 z m -6.509766,-6.513671 6.507813,-6.507813 -6.509766,-6.513672 -6.511718,6.509766 z" />
      <path
         id="lpe_path-effect2621-7"
         style="fill:#813d9c;stroke-width:1.6"
         class="powerclip"
         d="M -3.000003,-3 H 67 V 67.000277 H -3.000003 Z m 35.117191,8.8242188 -6.511719,6.5117192 6.513672,6.511718 6.509765,-6.509765 z m 0.002,13.0234372 -6.511719,6.511719 6.513672,6.509766 6.509765,-6.507813 z m 6.511718,6.513672 6.513672,6.509766 6.507813,-6.507813 -6.511719,-6.513672 z m 6.513672,6.509766 -6.511719,6.511718 6.513672,6.511719 6.507813,-6.509765 z m -6.511719,6.511718 -6.511718,-6.513671 -6.511719,6.511718 6.513672,6.511719 z m -6.509765,6.509766 -6.509766,6.509766 6.511719,6.511718 6.509766,-6.507812 z m -6.513672,-6.511719 -6.509766,-6.513671 -6.511718,6.511718 6.513671,6.511719 z m -6.509766,-6.513671 6.507813,-6.507813 -6.509766,-6.513672 -6.511718,6.509766 z" />
    </clipPath>
    <inkscape:path-effect
       effect="powerclip"
       id="path-effect2621-1"
       is_visible="true"
       lpeversion="1"
       inverse="true"
       flatten="false"
       hide_clip="false"
       message="Use fill-rule evenodd on &lt;b&gt;fill and stroke&lt;/b&gt; dialog if no flatten result after convert clip to paths." />
    <clipPath
       clipPathUnits="userSpaceOnUse"
       id="clipath_lpe_path-effect2621-1">
      <path
         id="path55"
         style="display:block;fill:#813d9c;stroke-width:1.6"
         d="m 32.117188,5.8242188 -6.511719,6.5117192 6.513672,6.511718 6.509765,-6.509765 z m 0.002,13.0234372 -6.511719,6.511719 6.513672,6.509766 6.509765,-6.507813 z m 6.511718,6.513672 6.513672,6.509766 6.507813,-6.507813 -6.511719,-6.513672 z m 6.513672,6.509766 -6.511719,6.511718 6.513672,6.511719 6.507813,-6.509765 z m -6.511719,6.511718 -6.511718,-6.513671 -6.511719,6.511718 6.513672,6.511719 z m -6.509765,6.509766 -6.509766,6.509766 6.511719,6.511718 6.509766,-6.507812 z m -6.513672,-6.511719 -6.509766,-6.513671 -6.511718,6.511718 6.513671,6.511719 z m -6.509766,-6.513671 6.507813,-6.507813 -6.509766,-6.513672 -6.511718,6.509766 z" />
    </clipPath>
    <linearGradient
       inkscape:collect="always"
       xlink:href="#linearGradient5"
       id="linearGradient65"
       x1="8.6185904"
       y1="12.780574"
       x2="8.5811796"
       y2="4.0602922"
       gradientUnits="userSpaceOnUse" />
  </defs>
  <metadata
     id="metadata2">
    <rdf:RDF>
      <cc:Work
         rdf:about="">
        <dc:format>image/svg+xml</dc:format>
        <dc:type
           rdf:resource="http://purl.org/dc/dcmitype/StillImage" />
      </cc:Work>
    </rdf:RDF>
  </metadata>
  <rect
     style="fill:#000000;fill-opacity:0.996424;stroke:#000000;stroke-width:0.911802;stroke-dasharray:none;stroke-opacity:1;filter:url(#filter2)"
     id="rect1-2-3"
     width="13.065404"
     height="12.974159"
     x="1.9816793"
     y="1.9267306"
     rx="2.7149384"
     ry="2.8310909" />
  <rect
     style="fill:url(#linearGradient4);fill-opacity:0.996424;stroke:url(#linearGradient41);stroke-width:0.911802;stroke-dasharray:none;stroke-opacity:1"
     id="rect1-2"
     width="13.065404"
     height="12.974159"
     x="1.9816793"
     y="1.9267306"
     rx="2.7149384"
     ry="2.8310909" />
  <path
     d="m 10.09131,11.805779 c 0.054,0.445975 0.04736,0.955171 -0.03471,1.381003 -0.4954798,0.190091 -1.0316792,0.29446 -1.5905951,0.29446 -0.2278098,0 -0.4519764,-0.01736 -0.6709994,-0.0508 0.2179515,-0.344394 0.3986135,-0.776439 0.5173403,-1.188125 0.051006,0.0023 0.102225,0.0037 0.1536591,0.0037 0.590205,0 1.1461207,-0.160731 1.6253141,-0.440189 z m -4.5191178,-1.33514 c 0.3032462,0.588062 0.7809393,1.074112 1.3630006,1.388075 -0.3379641,0.251383 -0.8019416,0.507482 -1.250703,0.646781 C 5.057638,12.007015 4.5651576,11.34566 4.273484,10.58808 4.6868847,10.61594 5.154934,10.56665 5.5721922,10.470639 Z M 11.715981,8.8718994 c 0.388327,0.168232 0.845019,0.444904 1.191554,0.7661521 -0.118941,0.8139435 -0.459905,1.5599495 -0.95903,2.1737285 -0.182161,-0.371396 -0.45819,-0.75115 -0.749221,-1.064041 0.327892,-0.507052 0.519055,-1.1092589 0.519055,-1.7526123 0,-0.041362 -8.91e-4,-0.082294 -0.0023,-0.1232273 z M 9.6755528,9.1648589 7.597834,10.471711 c -0.081437,0.05079 -0.1483012,0.007 -0.1483012,-0.120013 V 7.7915715 c 0,-0.1455154 0.064935,-0.1701608 0.1483012,-0.120227 l 2.0777188,1.306852 c 0.092367,0.058291 0.088509,0.130728 0,0.1866624 z M 5.2153689,9.100995 C 4.7981107,8.9323343 4.3536353,8.6723785 4.0201717,8.382205 4.1361124,7.5489745 4.4847919,6.7858227 4.9974173,6.1613283 5.1800081,6.5318674 5.4556084,6.9103358 5.7459962,7.2223686 5.4097465,7.7337082 5.2136544,8.3432009 5.2136544,8.9951267 c 0,0.035361 6.43e-4,0.070722 0.00172,0.1058683 z M 9.9805132,6.1229672 C 10.336265,5.8477954 10.769382,5.6118419 11.211071,5.4562541 11.853353,5.9564497 12.358477,6.626163 12.655938,7.395744 12.242322,7.367026 11.773202,7.414818 11.354658,7.5097561 11.048197,6.9206226 10.566646,6.4347857 9.9805132,6.1229672 Z M 6.8494695,6.1795446 C 6.8102511,5.7556429 6.8269671,5.2312304 6.9294066,4.7831119 7.4096713,4.6058789 7.9274401,4.5090116 8.4659969,4.5090116 c 0.2278096,0 0.451976,0.017359 0.6712135,0.050791 -0.2181658,0.344179 -0.3990421,0.7764389 -0.5177688,1.1883393 -0.051006,-0.00236 -0.1020108,-0.00364 -0.1534447,-0.00364 -0.5867761,0 -1.1392628,0.1585881 -1.6165274,0.4350458 z"
     fill="#ff3859"
     fill-rule="nonzero"
     id="path3-9"
     style="fill:#000000;stroke-width:0.214308;opacity:0.3" />
  <path
     d="m 10.09131,11.276623 c 0.054,0.445975 0.04736,0.955171 -0.03471,1.381003 -0.4954798,0.190091 -1.0316792,0.29446 -1.5905951,0.29446 -0.2278098,0 -0.4519764,-0.01736 -0.6709994,-0.0508 0.2179515,-0.344394 0.3986135,-0.776439 0.5173403,-1.188125 0.051006,0.0023 0.102225,0.0037 0.1536591,0.0037 0.590205,0 1.1461207,-0.160731 1.6253141,-0.440189 z M 5.5721922,9.9414832 C 5.8754384,10.529545 6.3531315,11.015595 6.9351928,11.329558 6.5972287,11.580941 6.1332512,11.83704 5.6844898,11.976339 5.057638,11.477859 4.5651576,10.816504 4.273484,10.058924 c 0.4134007,0.02786 0.88145,-0.02143 1.2987082,-0.1174408 z m 6.1437888,-1.59874 c 0.388327,0.168232 0.845019,0.444904 1.191554,0.7661521 -0.118941,0.8139435 -0.459905,1.5599497 -0.95903,2.1737287 -0.182161,-0.371396 -0.45819,-0.75115 -0.749221,-1.064041 0.327892,-0.5070524 0.519055,-1.1092591 0.519055,-1.7526125 0,-0.041362 -8.91e-4,-0.082294 -0.0023,-0.1232273 z M 9.6755528,8.6357027 7.597834,9.9425551 C 7.5163968,9.9933421 7.4495328,9.9496021 7.4495328,9.8225419 V 7.2624153 c 0,-0.1455154 0.064935,-0.1701608 0.1483012,-0.120227 l 2.0777188,1.306852 c 0.092367,0.058291 0.088509,0.130728 0,0.1866624 z M 5.2153689,8.5718388 C 4.7981107,8.4031781 4.3536353,8.1432223 4.0201717,7.8530488 4.1361124,7.0198183 4.4847919,6.2566665 4.9974173,5.6321721 5.1800081,6.0027112 5.4556084,6.3811796 5.7459962,6.6932124 5.4097465,7.204552 5.2136544,7.8140447 5.2136544,8.4659705 c 0,0.035361 6.43e-4,0.070722 0.00172,0.1058683 z M 9.9805132,5.593811 C 10.336265,5.3186392 10.769382,5.0826857 11.211071,4.9270979 c 0.642282,0.5001956 1.147406,1.1699089 1.444867,1.9394899 -0.413616,-0.028718 -0.882736,0.019074 -1.30128,0.1140121 C 11.048197,6.3914664 10.566646,5.9056295 9.9805132,5.593811 Z M 6.8494695,5.6503884 C 6.8102511,5.2264867 6.8269671,4.7020742 6.9294066,4.2539557 7.4096713,4.0767227 7.9274401,3.9798554 8.4659969,3.9798554 c 0.2278096,0 0.451976,0.017359 0.6712135,0.050791 -0.2181658,0.344179 -0.3990421,0.7764389 -0.5177688,1.1883393 -0.051006,-0.00236 -0.1020108,-0.00364 -0.1534447,-0.00364 -0.5867761,0 -1.1392628,0.1585881 -1.6165274,0.4350458 z"
     fill="#ff3859"
     fill-rule="nonzero"
     id="path3"
     style="stroke-width:0.214308;fill:url(#linearGradient65)" />
  <rect
     style="opacity:0.5;fill:none;fill-opacity:0.996424;stroke:url(#linearGradient9);stroke-width:0.566102;stroke-dasharray:none;stroke-opacity:1"
     id="rect1-2-6"
     width="11.574203"
     height="11.508601"
     x="2.729686"
     y="2.6615164"
     rx="2.0246315"
     ry="2.0627522" />
</svg>
