<?xml version="1.0" encoding="UTF-8" standalone="no"?>
<svg
   width="64"
   height="64"
   version="1.1"
   viewBox="0 0 16.933 16.933"
   id="svg7"
   sodipodi:docname="Template 4.svg"
   inkscape:version="1.3.2 (091e20ef0f, 2023-11-25)"
   xmlns:inkscape="http://www.inkscape.org/namespaces/inkscape"
   xmlns:sodipodi="http://sodipodi.sourceforge.net/DTD/sodipodi-0.dtd"
   xmlns:xlink="http://www.w3.org/1999/xlink"
   xmlns="http://www.w3.org/2000/svg"
   xmlns:svg="http://www.w3.org/2000/svg"
   xmlns:rdf="http://www.w3.org/1999/02/22-rdf-syntax-ns#"
   xmlns:cc="http://creativecommons.org/ns#"
   xmlns:dc="http://purl.org/dc/elements/1.1/">
  <sodipodi:namedview
     id="namedview7"
     pagecolor="#9c4444"
     bordercolor="#000000"
     borderopacity="0.25"
     inkscape:showpageshadow="2"
     inkscape:pageopacity="0.0"
     inkscape:pagecheckerboard="0"
     inkscape:deskcolor="#d1d1d1"
     inkscape:zoom="4.3531261"
     inkscape:cx="32.849956"
     inkscape:cy="24.465177"
     inkscape:window-width="1356"
     inkscape:window-height="973"
     inkscape:window-x="35"
     inkscape:window-y="32"
     inkscape:window-maximized="0"
     inkscape:current-layer="svg7"
     showgrid="false" />
  <defs
     id="defs2">
    <linearGradient
       id="linearGradient5"
       inkscape:collect="always">
      <stop
         style="stop-color:#392713;stop-opacity:1;"
         offset="0"
         id="stop2" />
      <stop
         style="stop-color:#eed59e;stop-opacity:1;"
         offset="0.5"
         id="stop3" />
      <stop
         style="stop-color:#beaa8a;stop-opacity:1;"
         offset="1"
         id="stop4" />
    </linearGradient>
    <linearGradient
       id="linearGradient8"
       inkscape:collect="always">
      <stop
         style="stop-color:#1a1a1a;stop-opacity:1;"
         offset="0"
         id="stop8" />
      <stop
         style="stop-color:#ffffff;stop-opacity:0;"
         offset="1"
         id="stop9" />
    </linearGradient>
    <linearGradient
       inkscape:collect="always"
       xlink:href="#linearGradient5"
       id="linearGradient41"
       x1="13.675659"
       y1="16.110115"
       x2="13.728528"
       y2="10.548769"
       gradientUnits="userSpaceOnUse"
       gradientTransform="matrix(2.046153,0,0,2.046153,-18.798306,-18.911347)" />
    <linearGradient
       inkscape:collect="always"
       xlink:href="#linearGradient42"
       id="linearGradient4"
       x1="11.885941"
       y1="16.50819"
       x2="12.026573"
       y2="10.244942"
       gradientUnits="userSpaceOnUse"
       gradientTransform="matrix(2.046153,0,0,2.046153,-18.798306,-18.911347)" />
    <linearGradient
       id="linearGradient42"
       inkscape:collect="always">
      <stop
         style="stop-color:#010101;stop-opacity:1;"
         offset="0"
         id="stop42" />
      <stop
         style="stop-color:#6e6c6d;stop-opacity:1;"
         offset="1"
         id="stop43" />
    </linearGradient>
    <linearGradient
       inkscape:collect="always"
       xlink:href="#linearGradient8"
       id="linearGradient9"
       x1="9.3404646"
       y1="4.1692023"
       x2="9.4279938"
       y2="16.46883"
       gradientUnits="userSpaceOnUse"
       gradientTransform="matrix(1.05,0,0,1.05,-0.50277005,-0.1977751)" />
    <filter
       style="color-interpolation-filters:sRGB;"
       inkscape:label="Blur"
       id="filter2"
       x="-0.14510849"
       y="-0.14612901"
       width="1.290217"
       height="1.292258">
      <feGaussianBlur
         stdDeviation="0.6 0.6"
         result="blur"
         id="feGaussianBlur2" />
    </filter>
    <linearGradient
       inkscape:collect="always"
       xlink:href="#linearGradient5"
       id="linearGradient23"
       x1="32.787678"
       y1="49.437305"
       x2="32.851963"
       y2="15.134434"
       gradientUnits="userSpaceOnUse"
       gradientTransform="matrix(0.23573911,0,0,0.23573911,0.90401933,0.83894413)" />
  </defs>
  <metadata
     id="metadata2">
    <rdf:RDF>
      <cc:Work
         rdf:about="">
        <dc:format>image/svg+xml</dc:format>
        <dc:type
           rdf:resource="http://purl.org/dc/dcmitype/StillImage" />
      </cc:Work>
    </rdf:RDF>
  </metadata>
  <rect
     style="fill:#000000;fill-opacity:0.996424;stroke:#000000;stroke-width:0.911802;stroke-dasharray:none;stroke-opacity:1;filter:url(#filter2)"
     id="rect1-2-3"
     width="13.065404"
     height="12.974159"
     x="1.9816793"
     y="1.9267306"
     rx="2.7149384"
     ry="2.8310909" />
  <rect
     style="fill:url(#linearGradient4);fill-opacity:0.996424;stroke:url(#linearGradient41);stroke-width:0.911802;stroke-dasharray:none;stroke-opacity:1"
     id="rect1-2"
     width="13.065404"
     height="12.974159"
     x="1.9816793"
     y="1.9267306"
     rx="2.7149384"
     ry="2.8310909" />
  <path
     style="fill:#000000;fill-opacity:1;stroke:none;stroke-width:0.282392;stroke-dasharray:none;stroke-opacity:0.3;opacity:0.3"
     d="M 5.3116857,13.028268 C 5.0821329,12.9622 4.8316615,12.778148 4.6994687,12.578392 4.4056979,12.134473 4.4603806,11.596773 4.837665,11.219489 4.9505992,11.106555 5.0918991,11.00188 5.1516642,10.98688 L 5.2603288,10.95961 V 9.0166836 7.0737594 L 5.1307452,7.0200839 C 4.9597754,6.9492661 4.7343604,6.72527 4.6318467,6.5243267 4.3700923,6.0112465 4.5567678,5.4016724 5.0676019,5.1014011 5.2490909,4.994721 5.3319902,4.9751035 5.5970941,4.9761032 c 0.4492995,0.0017 0.7765317,0.1943457 0.9704195,0.5713163 l 0.086603,0.1683826 h 1.9309876 1.9309878 l 0.04079,-0.1072666 c 0.123396,-0.324558 0.613401,-0.6547784 0.972872,-0.6556297 0.599864,-0.00139 1.101979,0.4843416 1.105543,1.0695404 8.1e-4,0.1416289 -0.03211,0.33434 -0.07429,0.4342402 -0.09034,0.2139744 -0.348112,0.4898833 -0.526839,0.5639142 l -0.128335,0.053159 v 1.9423449 1.9423435 l 0.129583,0.05367 c 0.190248,0.0788 0.41068,0.310879 0.512413,0.539473 0.363501,0.816803 -0.420118,1.717688 -1.276186,1.467167 -0.289666,-0.08477 -0.548303,-0.288182 -0.670187,-0.527093 l -0.08941,-0.175261 H 8.5864356 6.6608264 l -0.117523,0.200538 c -0.1449526,0.247341 -0.3599697,0.415854 -0.6370063,0.49923 -0.2388667,0.07189 -0.3770868,0.07471 -0.5946114,0.0121 z m 5.2790693,-1.543576 0.07543,-0.158183 -0.260704,-0.263452 C 10.156229,10.811172 10.13683,10.800672 9.9637184,10.823889 9.7503733,10.8525 9.5226432,10.749153 9.4339766,10.583482 9.3763244,10.47576 9.3737189,10.475419 8.6032277,10.475419 H 7.8303116 l -0.1852832,0.185285 c -0.1765869,0.176587 -0.1956615,0.184286 -0.4063904,0.164038 -0.2195314,-0.02109 -0.22295,-0.01938 -0.4798842,0.24026 l -0.2587777,0.261507 0.075431,0.158183 0.075432,0.158182 H 8.5830825 10.515323 Z M 6.5255684,10.849187 C 6.7738323,10.603517 6.7821938,10.587604 6.7575402,10.407736 6.727653,10.189682 6.8188008,9.9766709 6.9899928,9.8645019 l 0.1113207,-0.07294 V 9.0119748 8.2323879 L 6.9867632,8.1573318 C 6.8137932,8.0439974 6.7275252,7.8434559 6.7575402,7.6244716 6.782219,7.4444306 6.773976,7.4288324 6.5228372,7.1803146 L 6.2625578,6.9227517 6.098209,7.0011237 5.93386,7.0794966 v 1.9183386 1.9183368 l 0.1459317,0.09022 c 0.080263,0.04962 0.1554487,0.09189 0.1670806,0.09393 0.011634,0.0021 0.137045,-0.110967 0.2786961,-0.251139 z M 11.187117,9.019013 11.186835,7.085315 11.044796,7.004453 10.902758,6.923592 10.639123,7.1840616 c -0.248823,0.245837 -0.262073,0.2697688 -0.235882,0.4259927 0.03416,0.2037754 -0.08163,0.4727881 -0.233244,0.5418692 -0.104503,0.047614 -0.105146,0.052775 -0.105146,0.8437723 v 0.7958656 l 0.116006,0.07601 c 0.157022,0.102885 0.25822,0.3566006 0.221119,0.5543696 -0.02731,0.145609 -0.01151,0.174558 0.227059,0.415634 l 0.256419,0.259124 0.150974,-0.07198 0.150974,-0.07198 -2.6e-4,-1.9336967 z M 9.4269685,10.051226 C 9.4545061,9.9907921 9.5284682,9.9076446 9.5913329,9.8664541 l 0.1143,-0.074893 V 9.0139971 8.2364329 L 9.5735825,8.1424046 C 9.5009548,8.0906891 9.4288719,8.0084894 9.4133994,7.9597388 9.3867831,7.8758841 9.3423415,7.8711013 8.5897369,7.8711013 h -0.79553 L 7.716248,8.0030747 C 7.67337,8.0756617 7.5982934,8.147743 7.5494098,8.1632581 c -0.084191,0.026719 -0.088879,0.07042 -0.088879,0.8282564 v 0.8000472 l 0.1142998,0.074893 c 0.062865,0.04119 0.1368292,0.1243384 0.1643651,0.1847723 l 0.050065,0.10988 H 8.5830829 9.3769054 Z M 9.4133985,7.4681492 C 9.4288705,7.4194002 9.5024325,7.3361465 9.5768676,7.283144 9.6845032,7.206501 9.7568677,7.191068 9.9304173,7.207744 10.146365,7.228496 10.151319,7.225995 10.407409,6.9672051 L 10.666186,6.705698 10.590759,6.5475154 10.515331,6.3893333 H 8.5882437 6.6611634 L 6.5715387,6.5412368 6.4819131,6.6931399 6.745964,6.9544353 c 0.2501287,0.2475187 0.2745395,0.2606506 0.4629886,0.2490616 0.2356606,-0.014494 0.4323529,0.075415 0.5189401,0.2372038 l 0.062127,0.1160863 h 0.797624 c 0.7546888,0 0.7991384,-0.00477 0.8257548,-0.088638 z"
     id="path2647-3" />
  <path
     style="fill:url(#linearGradient23);fill-opacity:1;stroke:none;stroke-width:0.282392;stroke-dasharray:none;stroke-opacity:0.3"
     d="M 5.3116857,12.499112 C 5.0821329,12.433044 4.8316615,12.248992 4.6994687,12.049236 4.4056979,11.605317 4.4603806,11.067617 4.837665,10.690333 4.9505992,10.577399 5.0918991,10.472724 5.1516642,10.457724 l 0.1086646,-0.02727 V 8.4875274 6.5446032 L 5.1307452,6.4909277 C 4.9597754,6.4201099 4.7343604,6.1961138 4.6318467,5.9951705 4.3700923,5.4820903 4.5567678,4.8725162 5.0676019,4.5722449 5.2490909,4.4655648 5.3319902,4.4459473 5.5970941,4.446947 c 0.4492995,0.0017 0.7765317,0.1943457 0.9704195,0.5713163 l 0.086603,0.1683826 h 1.9309876 1.9309878 l 0.04079,-0.1072666 c 0.123396,-0.324558 0.613401,-0.6547784 0.972872,-0.6556297 0.599864,-0.00139 1.101979,0.4843416 1.105543,1.0695404 8.1e-4,0.1416289 -0.03211,0.33434 -0.07429,0.4342402 -0.09034,0.2139744 -0.348112,0.4898833 -0.526839,0.5639142 l -0.128335,0.053159 v 1.9423449 1.9423437 l 0.129583,0.05367 c 0.190248,0.0788 0.41068,0.310879 0.512413,0.539473 0.363501,0.816803 -0.420118,1.717688 -1.276186,1.467167 -0.289666,-0.08477 -0.548303,-0.288182 -0.670187,-0.527093 l -0.08941,-0.175261 H 8.5864356 6.6608264 l -0.117523,0.200538 c -0.1449526,0.247341 -0.3599697,0.415854 -0.6370063,0.49923 -0.2388667,0.07189 -0.3770868,0.07471 -0.5946114,0.0121 z m 5.2790693,-1.543576 0.07543,-0.158183 -0.260704,-0.263452 C 10.156229,10.282016 10.13683,10.271516 9.9637184,10.294733 9.7503733,10.323344 9.5226432,10.219997 9.4339766,10.054326 9.3763244,9.9466033 9.3737189,9.9462631 8.6032277,9.9462631 H 7.8303116 L 7.6450284,10.131548 c -0.1765869,0.176587 -0.1956615,0.184286 -0.4063904,0.164038 -0.2195314,-0.02109 -0.22295,-0.01938 -0.4798842,0.24026 l -0.2587777,0.261507 0.075431,0.158183 0.075432,0.158182 H 8.5830825 10.515323 Z M 6.5255684,10.320031 C 6.7738323,10.074361 6.7821938,10.058448 6.7575402,9.8785795 6.727653,9.6605262 6.8188008,9.4475147 6.9899928,9.3353457 L 7.1013135,9.262406 V 8.4828186 7.7032317 L 6.9867632,7.6281756 C 6.8137932,7.5148412 6.7275252,7.3142997 6.7575402,7.0953154 6.782219,6.9152744 6.773976,6.8996762 6.5228372,6.6511584 L 6.2625578,6.3935955 6.098209,6.4719675 5.93386,6.5503404 v 1.9183386 1.918337 l 0.1459317,0.09022 c 0.080263,0.04962 0.1554487,0.09189 0.1670806,0.09393 0.011634,0.0021 0.137045,-0.110967 0.2786961,-0.251139 z m 4.6615486,-1.8301742 -2.82e-4,-1.933698 -0.142039,-0.080862 -0.142038,-0.080861 -0.263635,0.2604696 c -0.248823,0.245837 -0.262073,0.2697688 -0.235882,0.4259927 0.03416,0.2037754 -0.08163,0.472788 -0.233244,0.5418691 -0.104503,0.047614 -0.105146,0.052775 -0.105146,0.8437723 v 0.7958656 l 0.116006,0.07601 c 0.157022,0.102885 0.25822,0.3566011 0.221119,0.5543694 -0.02731,0.1456095 -0.01151,0.1745585 0.227059,0.4156345 l 0.256419,0.259124 0.150974,-0.07198 0.150974,-0.07198 -2.6e-4,-1.933697 z M 9.4269685,9.52207 C 9.4545061,9.4616359 9.5284682,9.3784884 9.5913329,9.3372979 l 0.1143,-0.074893 V 8.4848409 7.7072767 L 9.5735825,7.6132484 C 9.5009548,7.5615329 9.4288719,7.4793332 9.4133994,7.4305826 9.3867831,7.3467279 9.3423415,7.3419451 8.5897369,7.3419451 h -0.79553 L 7.716248,7.4739185 C 7.67337,7.5465055 7.5982934,7.6185868 7.5494098,7.6341019 c -0.084191,0.026719 -0.088879,0.07042 -0.088879,0.8282564 v 0.8000472 l 0.1142998,0.074893 c 0.062865,0.04119 0.1368292,0.1243384 0.1643651,0.184772 l 0.050065,0.1098801 h 0.7938222 0.7938225 z m -0.01357,-2.583077 c 0.015472,-0.048749 0.089034,-0.1320027 0.1634691,-0.1850052 0.1076356,-0.076643 0.1800001,-0.092076 0.3535497,-0.0754 0.2159477,0.020752 0.2209017,0.018251 0.4769917,-0.2405389 L 10.666186,6.1765418 10.590759,6.0183592 10.515331,5.8601771 H 8.5882437 6.6611634 L 6.5715387,6.0120806 6.4819131,6.1639837 6.745964,6.4252791 c 0.2501287,0.2475187 0.2745395,0.2606506 0.4629886,0.2490616 0.2356606,-0.014494 0.4323529,0.075415 0.5189401,0.2372038 l 0.062127,0.1160863 h 0.797624 c 0.7546888,0 0.7991384,-0.00477 0.8257548,-0.088638 z"
     id="path2647" />
  <rect
     style="opacity:0.5;fill:none;fill-opacity:0.996424;stroke:url(#linearGradient9);stroke-width:0.566102;stroke-dasharray:none;stroke-opacity:1"
     id="rect1-2-6"
     width="11.574203"
     height="11.508601"
     x="2.729686"
     y="2.6615164"
     rx="2.0246315"
     ry="2.0627522" />
</svg>
