<?xml version="1.0" encoding="UTF-8" standalone="no"?>
<svg
   width="64"
   height="64"
   version="1.1"
   viewBox="0 0 16.933 16.933"
   id="svg7"
   sodipodi:docname="Template 4.svg"
   inkscape:version="1.3.2 (091e20ef0f, 2023-11-25)"
   xmlns:inkscape="http://www.inkscape.org/namespaces/inkscape"
   xmlns:sodipodi="http://sodipodi.sourceforge.net/DTD/sodipodi-0.dtd"
   xmlns:xlink="http://www.w3.org/1999/xlink"
   xmlns="http://www.w3.org/2000/svg"
   xmlns:svg="http://www.w3.org/2000/svg"
   xmlns:rdf="http://www.w3.org/1999/02/22-rdf-syntax-ns#"
   xmlns:cc="http://creativecommons.org/ns#"
   xmlns:dc="http://purl.org/dc/elements/1.1/">
  <sodipodi:namedview
     id="namedview7"
     pagecolor="#9c4444"
     bordercolor="#000000"
     borderopacity="0.25"
     inkscape:showpageshadow="2"
     inkscape:pageopacity="0.0"
     inkscape:pagecheckerboard="0"
     inkscape:deskcolor="#d1d1d1"
     inkscape:zoom="4.3531261"
     inkscape:cx="32.964816"
     inkscape:cy="24.350317"
     inkscape:window-width="1463"
     inkscape:window-height="604"
     inkscape:window-x="199"
     inkscape:window-y="276"
     inkscape:window-maximized="0"
     inkscape:current-layer="svg7"
     showgrid="false" />
  <defs
     id="defs2">
    <linearGradient
       id="linearGradient5"
       inkscape:collect="always">
      <stop
         style="stop-color:#392713;stop-opacity:1;"
         offset="0"
         id="stop2" />
      <stop
         style="stop-color:#eed59e;stop-opacity:1;"
         offset="0.5"
         id="stop3" />
      <stop
         style="stop-color:#beaa8a;stop-opacity:1;"
         offset="1"
         id="stop4" />
    </linearGradient>
    <linearGradient
       id="linearGradient8"
       inkscape:collect="always">
      <stop
         style="stop-color:#1a1a1a;stop-opacity:1;"
         offset="0"
         id="stop8" />
      <stop
         style="stop-color:#ffffff;stop-opacity:0;"
         offset="1"
         id="stop9" />
    </linearGradient>
    <linearGradient
       inkscape:collect="always"
       xlink:href="#linearGradient5"
       id="linearGradient41"
       x1="13.675659"
       y1="16.110115"
       x2="13.728528"
       y2="10.548769"
       gradientUnits="userSpaceOnUse"
       gradientTransform="matrix(2.046153,0,0,2.046153,-18.798306,-18.911347)" />
    <linearGradient
       inkscape:collect="always"
       xlink:href="#linearGradient42"
       id="linearGradient4"
       x1="11.885941"
       y1="16.50819"
       x2="12.026573"
       y2="10.244942"
       gradientUnits="userSpaceOnUse"
       gradientTransform="matrix(2.046153,0,0,2.046153,-18.798306,-18.911347)" />
    <linearGradient
       id="linearGradient42"
       inkscape:collect="always">
      <stop
         style="stop-color:#010101;stop-opacity:1;"
         offset="0"
         id="stop42" />
      <stop
         style="stop-color:#6e6c6d;stop-opacity:1;"
         offset="1"
         id="stop43" />
    </linearGradient>
    <linearGradient
       inkscape:collect="always"
       xlink:href="#linearGradient8"
       id="linearGradient9"
       x1="9.3404646"
       y1="4.1692023"
       x2="9.4279938"
       y2="16.46883"
       gradientUnits="userSpaceOnUse"
       gradientTransform="matrix(1.05,0,0,1.05,-0.50277005,-0.1977751)" />
    <filter
       style="color-interpolation-filters:sRGB;"
       inkscape:label="Blur"
       id="filter2"
       x="-0.14510849"
       y="-0.14612901"
       width="1.290217"
       height="1.292258">
      <feGaussianBlur
         stdDeviation="0.6 0.6"
         result="blur"
         id="feGaussianBlur2" />
    </filter>
    <linearGradient
       inkscape:collect="always"
       xlink:href="#linearGradient5"
       id="linearGradient16"
       x1="33.147881"
       y1="51.608879"
       x2="33.637955"
       y2="12.831382"
       gradientUnits="userSpaceOnUse"
       gradientTransform="matrix(0.23573911,0,0,0.23573911,0.91668918,0.93557309)" />
  </defs>
  <metadata
     id="metadata2">
    <rdf:RDF>
      <cc:Work
         rdf:about="">
        <dc:format>image/svg+xml</dc:format>
        <dc:type
           rdf:resource="http://purl.org/dc/dcmitype/StillImage" />
      </cc:Work>
    </rdf:RDF>
  </metadata>
  <rect
     style="fill:#000000;fill-opacity:0.996424;stroke:#000000;stroke-width:0.911802;stroke-dasharray:none;stroke-opacity:1;filter:url(#filter2)"
     id="rect1-2-3"
     width="13.065404"
     height="12.974159"
     x="1.9816793"
     y="1.9267306"
     rx="2.7149384"
     ry="2.8310909" />
  <rect
     style="fill:url(#linearGradient4);fill-opacity:0.996424;stroke:url(#linearGradient41);stroke-width:0.911802;stroke-dasharray:none;stroke-opacity:1"
     id="rect1-2"
     width="13.065404"
     height="12.974159"
     x="1.9816793"
     y="1.9267306"
     rx="2.7149384"
     ry="2.8310909" />
  <path
     id="path123-9"
     style="fill:#000000;fill-opacity:1;stroke:none;stroke-width:0.282392;stroke-dasharray:none;stroke-dashoffset:2.2;stroke-opacity:0.3;opacity:0.3"
     d="M 8.4345537,4.5187094 C 8.3293851,4.5190866 6.3120177,5.1184231 5.3436865,5.4370344 5.0172537,5.544441 4.7142051,5.6639126 4.6691447,5.7028798 4.5603469,5.7969658 4.5272694,6.0379488 4.526846,6.7304114 c -0.0012,1.940941 0.3718957,3.4833106 1.1422531,4.7190336 0.6185408,0.992195 1.5786021,1.784817 2.5867535,2.13614 0.083055,0.02894 0.1878626,0.04299 0.2432321,0.03199 0.2562524,-0.05095 1.0028113,-0.440673 1.3430159,-0.701014 0.4902234,-0.375145 1.0982454,-1.039781 1.3777644,-1.506275 0.356734,-0.595361 0.711838,-1.508361 0.874752,-2.2475516 0.167214,-0.7586896 0.190796,-0.9975061 0.206832,-2.1091163 0.0159,-1.1020518 -6.13e-4,-1.2970628 -0.116377,-1.3590106 C 12.095336,5.6465822 10.653791,5.1630381 9.9099408,4.9312658 8.9374463,4.6282508 8.5443459,4.5183141 8.4345537,4.5187094 Z m 1.9943933,1.655743 0.170427,0.097623 c 0.384302,0.2204926 0.558165,0.510213 0.558165,0.9288045 0,0.2946339 -0.06338,0.4726895 -0.241576,0.6756446 -0.19879,0.2264086 -0.348337,0.2873332 -0.773819,0.3160371 C 9.7039909,8.2221255 7.0245061,8.2213285 6.5692232,8.1914517 6.3814285,8.1791336 6.22314,8.1508065 6.1638364,8.1186493 5.9874757,8.0230187 5.8061751,7.8428824 5.7088103,7.666381 5.6216357,7.5083543 5.6132085,7.4644762 5.6128412,7.1843292 5.6125111,6.9261459 5.6243288,6.853979 5.6856452,6.7392309 5.8004176,6.5244443 5.9419766,6.3839756 6.1417744,6.2858596 L 6.3259911,6.1948553 8.377193,6.1843763 Z M 10.010322,6.5837001 C 9.8130946,6.583983 9.6128316,6.6700567 9.4615337,6.8423755 9.3406026,6.980107 9.3123062,7.07347 9.3341263,7.2670661 c 0.026095,0.2315034 0.1984026,0.4136071 0.4781915,0.5052165 0.1226925,0.040172 0.4115422,0.00806 0.5250722,-0.058464 0.05535,-0.032433 0.146456,-0.1151105 0.201866,-0.1836649 0.09065,-0.1121573 0.100382,-0.1469344 0.100382,-0.3458195 0,-0.1981024 -0.0099,-0.2333926 -0.09873,-0.3430625 C 10.401767,6.6693552 10.207552,6.5834262 10.010322,6.5837001 Z M 8.6088424,8.9713452 c 0.7408052,9.9e-4 1.4387976,0.011419 1.6038976,0.030335 0.339081,0.038849 0.479106,0.103013 0.666821,0.3066601 0.209498,0.2272789 0.277993,0.4039703 0.278531,0.7142537 7.55e-4,0.412851 -0.172877,0.724184 -0.507423,0.9095 l -0.173185,0.09596 -2.0269356,0.005 c -1.1149673,0.0028 -2.0799344,-0.0055 -2.1438617,-0.01827 -0.2426646,-0.0486 -0.4450712,-0.227549 -0.606701,-0.534959 -0.07569,-0.143954 -0.086885,-0.203565 -0.087144,-0.457232 C 5.6125111,9.6801794 5.6842756,9.4947363 5.9024033,9.2769056 6.1159954,9.0636042 6.2316592,9.0252284 6.7473724,8.9972714 7.0840746,8.9790185 7.8680373,8.9703695 8.6088424,8.9713478 Z M 6.8262438,9.4258199 c -0.025895,-1.45e-5 -0.052878,9.9e-4 -0.080526,0.00331 -0.4335206,0.035953 -0.7320598,0.4836539 -0.5532011,0.8295301 0.075165,0.145355 0.3032331,0.32562 0.4544744,0.359057 0.3314708,0.07328 0.6533085,-0.07081 0.8008458,-0.358505 C 7.5640917,10.032513 7.5104861,9.8101666 7.2917494,9.6127942 7.1485356,9.4835682 7.0075181,9.4259194 6.8262438,9.4258199 Z" />
  <path
     id="path123"
     style="fill:url(#linearGradient16);fill-opacity:1;stroke:none;stroke-width:0.282392;stroke-dasharray:none;stroke-dashoffset:2.2;stroke-opacity:0.3"
     d="M 8.4345537,3.9895532 C 8.3293851,3.9899304 6.3120177,4.5892669 5.3436865,4.9078782 5.0172537,5.0152848 4.7142051,5.1347564 4.6691447,5.1737236 4.5603469,5.2678096 4.5272694,5.5087926 4.526846,6.2012552 c -0.0012,1.940941 0.3718957,3.4833106 1.1422531,4.7190338 0.6185408,0.992195 1.5786021,1.784817 2.5867535,2.13614 0.083055,0.02894 0.1878626,0.04299 0.2432321,0.03199 C 8.7553371,13.037469 9.501896,12.647746 9.8421006,12.387405 10.332324,12.01226 10.940346,11.347624 11.219865,10.88113 11.576599,10.285769 11.931703,9.3727688 12.094617,8.6335782 12.261831,7.8748886 12.285413,7.6360721 12.301449,6.5244619 12.317349,5.4224101 12.300836,5.2273991 12.185072,5.1654513 12.095336,5.117426 10.653791,4.6338819 9.9099408,4.4021096 8.9374463,4.0990946 8.5443459,3.9891579 8.4345537,3.9895532 Z m 1.9943933,1.655743 0.170427,0.097623 c 0.384302,0.2204926 0.558165,0.510213 0.558165,0.9288045 0,0.2946339 -0.06338,0.4726895 -0.241576,0.6756446 -0.19879,0.2264086 -0.348337,0.2873332 -0.773819,0.3160371 C 9.7039909,7.6929693 7.0245061,7.6921723 6.5692232,7.6622955 6.3814285,7.6499774 6.22314,7.6216503 6.1638364,7.5894931 5.9874757,7.4938625 5.8061751,7.3137262 5.7088103,7.1372248 5.6216357,6.9791981 5.6132085,6.93532 5.6128412,6.655173 5.6125111,6.3969897 5.6243288,6.3248228 5.6856452,6.2100747 5.8004176,5.9952881 5.9419766,5.8548194 6.1417744,5.7567034 L 6.3259911,5.6656991 8.377193,5.6552201 Z M 10.010322,6.0545439 C 9.8130946,6.0548268 9.6128316,6.1409005 9.4615337,6.3132193 9.3406026,6.4509508 9.3123062,6.5443138 9.3341263,6.7379099 c 0.026095,0.2315034 0.1984026,0.4136071 0.4781915,0.5052165 0.1226925,0.040172 0.4115422,0.00806 0.5250722,-0.058464 0.05535,-0.032433 0.146456,-0.1151105 0.201866,-0.1836649 0.09065,-0.1121573 0.100382,-0.1469344 0.100382,-0.3458195 0,-0.1981024 -0.0099,-0.2333926 -0.09873,-0.3430625 C 10.401767,6.140199 10.207552,6.05427 10.010322,6.0545439 Z M 8.6088424,8.442189 c 0.7408052,9.9e-4 1.4387976,0.011419 1.6038976,0.030335 0.339081,0.038849 0.479106,0.103013 0.666821,0.3066601 0.209498,0.2272789 0.277993,0.4039703 0.278531,0.7142532 7.55e-4,0.4128513 -0.172877,0.7241847 -0.507423,0.9095007 l -0.173185,0.09596 -2.0269356,0.005 C 7.3355811,10.506675 6.370614,10.498413 6.3066867,10.485632 6.0640221,10.437032 5.8616155,10.258083 5.6999857,9.9506725 5.6242955,9.8067189 5.6131007,9.7471077 5.6128412,9.4934408 5.6125111,9.1510232 5.6842756,8.9655801 5.9024033,8.7477494 6.1159954,8.534448 6.2316592,8.4960722 6.7473724,8.4681152 7.0840746,8.4498623 7.8680373,8.4412133 8.6088424,8.4421916 Z M 6.8262438,8.8966637 c -0.025895,-1.45e-5 -0.052878,9.9e-4 -0.080526,0.00331 C 6.3121972,8.9359271 6.013658,9.3836276 6.1925167,9.7295039 6.267682,9.8748592 6.4957498,10.055124 6.6469911,10.088561 6.9784619,10.161839 7.3002996,10.017749 7.4478369,9.7300555 7.5640917,9.503357 7.5104861,9.2810104 7.2917494,9.083638 7.1485356,8.954412 7.0075181,8.8967632 6.8262438,8.8966637 Z" />
  <rect
     style="opacity:0.5;fill:none;fill-opacity:0.996424;stroke:url(#linearGradient9);stroke-width:0.566102;stroke-dasharray:none;stroke-opacity:1"
     id="rect1-2-6"
     width="11.574203"
     height="11.508601"
     x="2.729686"
     y="2.6615164"
     rx="2.0246315"
     ry="2.0627522" />
</svg>
