<?xml version="1.0" encoding="UTF-8" standalone="no"?>
<svg
   width="64"
   height="64"
   version="1.1"
   viewBox="0 0 16.933 16.933"
   id="svg7"
   sodipodi:docname="Template 4.svg"
   inkscape:version="1.3.2 (091e20ef0f, 2023-11-25)"
   xmlns:inkscape="http://www.inkscape.org/namespaces/inkscape"
   xmlns:sodipodi="http://sodipodi.sourceforge.net/DTD/sodipodi-0.dtd"
   xmlns:xlink="http://www.w3.org/1999/xlink"
   xmlns="http://www.w3.org/2000/svg"
   xmlns:svg="http://www.w3.org/2000/svg"
   xmlns:rdf="http://www.w3.org/1999/02/22-rdf-syntax-ns#"
   xmlns:cc="http://creativecommons.org/ns#"
   xmlns:dc="http://purl.org/dc/elements/1.1/">
  <sodipodi:namedview
     id="namedview7"
     pagecolor="#9c4444"
     bordercolor="#000000"
     borderopacity="0.25"
     inkscape:showpageshadow="2"
     inkscape:pageopacity="0.0"
     inkscape:pagecheckerboard="0"
     inkscape:deskcolor="#d1d1d1"
     inkscape:zoom="4.3531261"
     inkscape:cx="32.964816"
     inkscape:cy="24.350317"
     inkscape:window-width="1463"
     inkscape:window-height="604"
     inkscape:window-x="199"
     inkscape:window-y="276"
     inkscape:window-maximized="0"
     inkscape:current-layer="svg7"
     showgrid="false" />
  <defs
     id="defs2">
    <linearGradient
       id="linearGradient5"
       inkscape:collect="always">
      <stop
         style="stop-color:#392713;stop-opacity:1;"
         offset="0"
         id="stop2" />
      <stop
         style="stop-color:#eed59e;stop-opacity:1;"
         offset="0.5"
         id="stop3" />
      <stop
         style="stop-color:#beaa8a;stop-opacity:1;"
         offset="1"
         id="stop4" />
    </linearGradient>
    <linearGradient
       id="linearGradient8"
       inkscape:collect="always">
      <stop
         style="stop-color:#1a1a1a;stop-opacity:1;"
         offset="0"
         id="stop8" />
      <stop
         style="stop-color:#ffffff;stop-opacity:0;"
         offset="1"
         id="stop9" />
    </linearGradient>
    <linearGradient
       inkscape:collect="always"
       xlink:href="#linearGradient5"
       id="linearGradient41"
       x1="13.675659"
       y1="16.110115"
       x2="13.728528"
       y2="10.548769"
       gradientUnits="userSpaceOnUse"
       gradientTransform="matrix(2.046153,0,0,2.046153,-18.798306,-18.911347)" />
    <linearGradient
       inkscape:collect="always"
       xlink:href="#linearGradient42"
       id="linearGradient4"
       x1="11.885941"
       y1="16.50819"
       x2="12.026573"
       y2="10.244942"
       gradientUnits="userSpaceOnUse"
       gradientTransform="matrix(2.046153,0,0,2.046153,-18.798306,-18.911347)" />
    <linearGradient
       id="linearGradient42"
       inkscape:collect="always">
      <stop
         style="stop-color:#010101;stop-opacity:1;"
         offset="0"
         id="stop42" />
      <stop
         style="stop-color:#6e6c6d;stop-opacity:1;"
         offset="1"
         id="stop43" />
    </linearGradient>
    <linearGradient
       inkscape:collect="always"
       xlink:href="#linearGradient8"
       id="linearGradient9"
       x1="9.3404646"
       y1="4.1692023"
       x2="9.4279938"
       y2="16.46883"
       gradientUnits="userSpaceOnUse"
       gradientTransform="matrix(1.05,0,0,1.05,-0.50277005,-0.1977751)" />
    <filter
       style="color-interpolation-filters:sRGB;"
       inkscape:label="Blur"
       id="filter2"
       x="-0.14510849"
       y="-0.14612901"
       width="1.290217"
       height="1.292258">
      <feGaussianBlur
         stdDeviation="0.6 0.6"
         result="blur"
         id="feGaussianBlur2" />
    </filter>
    <linearGradient
       inkscape:collect="always"
       xlink:href="#linearGradient5"
       id="linearGradient28"
       x1="31.973986"
       y1="51.252205"
       x2="32.39299"
       y2="12.779183"
       gradientUnits="userSpaceOnUse"
       gradientTransform="matrix(0.23573911,0,0,0.23573911,0.93146272,0.79299504)" />
  </defs>
  <metadata
     id="metadata2">
    <rdf:RDF>
      <cc:Work
         rdf:about="">
        <dc:format>image/svg+xml</dc:format>
        <dc:type
           rdf:resource="http://purl.org/dc/dcmitype/StillImage" />
      </cc:Work>
    </rdf:RDF>
  </metadata>
  <rect
     style="fill:#000000;fill-opacity:0.996424;stroke:#000000;stroke-width:0.911802;stroke-dasharray:none;stroke-opacity:1;filter:url(#filter2)"
     id="rect1-2-3"
     width="13.065404"
     height="12.974159"
     x="1.9816793"
     y="1.9267306"
     rx="2.7149384"
     ry="2.8310909" />
  <rect
     style="fill:url(#linearGradient4);fill-opacity:0.996424;stroke:url(#linearGradient41);stroke-width:0.911802;stroke-dasharray:none;stroke-opacity:1"
     id="rect1-2"
     width="13.065404"
     height="12.974159"
     x="1.9816793"
     y="1.9267306"
     rx="2.7149384"
     ry="2.8310909" />
  <path
     id="path11-7"
     style="fill:#000000;fill-opacity:1;stroke:none;stroke-width:0.25672;stroke-dasharray:none;stroke-dashoffset:2.2;stroke-opacity:0.3;opacity:0.3"
     d="m 8.5082732,4.3921846 c -0.1299707,3.773e-4 -0.2584384,0.024368 -0.3489783,0.072203 -0.194502,0.1027578 -0.3774572,0.287313 -0.4683134,0.4723241 -0.06884,0.1401772 -0.081716,0.2033469 -0.081228,0.4021278 4.951e-4,0.197054 0.013411,0.2604167 0.07822,0.3835753 0.097211,0.1847393 0.2607978,0.3491518 0.4271975,0.4297053 l 0.1278588,0.062174 V 6.4619886 6.7101847 H 7.6092526 6.975475 v 0.280286 0.2797841 h 0.6337776 0.633777 v 1.2219269 c 0,0.7938478 -0.010651,1.2507244 -0.031088,1.3046585 C 8.1332345,10.004576 7.9037054,10.141706 7.6388352,10.138799 7.4275892,10.136489 6.8125496,10.014179 6.4695566,9.9066482 6.1794171,9.815687 5.8025589,9.6274166 5.7064164,9.5250784 L 5.6382252,9.4523746 H 5.9069787 6.1762343 L 5.72196,9.023171 C 5.4721571,8.7872031 5.2575454,8.5916943 5.2451227,8.5884514 5.1794101,8.571299 5.0563145,9.1112196 5.0144762,9.5997875 L 4.9954215,9.820908 5.144339,9.6754998 c 0.081843,-0.08011 0.1529778,-0.140004 0.1579429,-0.1328724 0.00498,0.00713 0.028355,0.05195 0.052146,0.099278 0.02379,0.047328 0.1087832,0.1380345 0.1890302,0.2015652 0.2534082,0.2006194 0.5793871,0.3446124 1.4605952,0.6468114 0.2834777,0.09722 0.5811473,0.21006 0.6613548,0.250705 0.080207,0.04064 0.2996491,0.21173 0.4873667,0.380065 0.1877186,0.168336 0.3483662,0.306122 0.3570011,0.306359 0.00863,2.36e-4 0.1744488,-0.139517 0.3685335,-0.310872 0.1940859,-0.171354 0.3990158,-0.335629 0.455778,-0.365023 0.056762,-0.0294 0.3953194,-0.156027 0.7521106,-0.281289 1.004074,-0.352508 1.541044,-0.6415332 1.595474,-0.8584059 0.0098,-0.039124 0.02575,-0.070698 0.0356,-0.070698 0.0098,0 0.08185,0.062465 0.159447,0.1388893 l 0.140895,0.1388899 v -0.13538 c 0,-0.1754929 -0.06921,-0.5641412 -0.156939,-0.8799677 l -0.0697,-0.2507027 -0.439734,0.4427416 -0.43923,0.44224 0.250201,0.014543 0.250701,0.01504 -0.185012,0.1268561 C 10.888915,9.8267929 10.426508,9.9824032 9.7241817,10.100692 9.4285553,10.150484 9.338788,10.155747 9.2373166,10.12877 9.0663388,10.083315 8.9261636,9.9919839 8.8597583,9.8830821 8.8072851,9.7970297 8.8037042,9.715649 8.8036003,8.5307901 V 7.2702562 H 9.4228367 10.042074 V 6.9904704 6.7101844 H 9.4228375 8.8036015 V 6.4624901 6.2142941 L 8.96355,6.1240408 C 9.3693456,5.8950237 9.5411365,5.3504582 9.3386015,4.9342041 9.2537128,4.7597411 9.0435362,4.5499692 8.8657755,4.4623809 8.7698924,4.4151375 8.6382453,4.3917733 8.5082732,4.3921846 Z M 8.4957392,5.00741 c 0.177042,-0.011176 0.3374462,0.1259667 0.3374462,0.3219022 0,0.095601 -0.019491,0.1383239 -0.1002811,0.219115 -0.080791,0.08079 -0.1235138,0.1002809 -0.2191146,0.1002809 -0.3396446,0 -0.4471468,-0.4629041 -0.1413965,-0.6087071 0.040903,-0.019505 0.08249,-0.030012 0.123346,-0.032591 z m 2.6815208,7.037232 c -0.389898,0 -0.780063,0.01292 -0.805258,0.03811 -0.02519,0.02519 -0.0351,0.207165 -0.0351,0.632271 0,0.537576 0.0051,0.600202 0.05164,0.62726 0.07008,0.04082 1.495872,0.0422 1.571909,0.0015 0.05351,-0.02863 0.05716,-0.06767 0.05716,-0.628261 0,-0.425441 -0.01041,-0.607582 -0.0356,-0.632774 -0.0252,-0.0252 -0.414861,-0.03811 -0.804757,-0.03811 z m -5.3409786,0.0025 c -0.663773,0 -0.7800308,0.0068 -0.8197993,0.04663 -0.038936,0.03893 -0.046129,0.137259 -0.046129,0.61723 0,0.556851 0.0013,0.572483 0.065182,0.617231 0.055063,0.03858 0.183141,0.04612 0.8012465,0.04612 0.6431595,0 0.7425715,-0.0066 0.7897147,-0.04913 0.048755,-0.04412 0.054152,-0.104022 0.054152,-0.627759 0,-0.411227 -0.010478,-0.589605 -0.0356,-0.614724 -0.025722,-0.02572 -0.2465526,-0.0356 -0.8087676,-0.0356 z m 2.6589557,0 c -0.5602977,0 -0.7805441,0.0099 -0.8062606,0.0356 -0.02513,0.02513 -0.0356,0.204087 -0.0356,0.617231 0,0.489531 0.00764,0.588767 0.046631,0.62776 0.039694,0.0397 0.1539066,0.04663 0.7962324,0.04663 0.7104904,0 0.7528867,-0.0032 0.8087679,-0.05917 0.054764,-0.05476 0.058665,-0.09847 0.058665,-0.60971 0,-0.470918 -0.0069,-0.558071 -0.048636,-0.604194 -0.044906,-0.04962 -0.1103808,-0.05415 -0.819799,-0.05415 z" />
  <path
     id="path11"
     style="fill:url(#linearGradient28);fill-opacity:1;stroke:none;stroke-width:0.25672;stroke-dasharray:none;stroke-dashoffset:2.2;stroke-opacity:0.3"
     d="m 8.5082732,3.8630284 c -0.1299707,3.773e-4 -0.2584384,0.024368 -0.3489783,0.072203 -0.194502,0.1027578 -0.3774572,0.287313 -0.4683134,0.4723241 -0.06884,0.1401772 -0.081716,0.2033469 -0.081228,0.4021278 4.951e-4,0.197054 0.013411,0.2604167 0.07822,0.3835753 0.097211,0.1847393 0.2607978,0.3491518 0.4271975,0.4297053 l 0.1278588,0.062174 V 5.9328324 6.1810285 H 7.6092526 6.975475 v 0.280286 0.2797841 h 0.6337776 0.633777 v 1.2219269 c 0,0.7938478 -0.010651,1.2507244 -0.031088,1.3046585 C 8.1332345,9.4754195 7.9037054,9.6125494 7.6388352,9.6096431 7.4275892,9.607333 6.8125496,9.4850225 6.4695566,9.377492 6.1794171,9.2865308 5.8025589,9.0982604 5.7064164,8.9959222 L 5.6382252,8.9232184 H 5.9069787 6.1762343 L 5.72196,8.4940148 C 5.4721571,8.2580469 5.2575454,8.0625381 5.2451227,8.0592952 5.1794101,8.0421428 5.0563145,8.5820634 5.0144762,9.0706313 L 4.9954215,9.2917518 5.144339,9.1463436 c 0.081843,-0.08011 0.1529778,-0.140004 0.1579429,-0.1328724 0.00498,0.00713 0.028355,0.05195 0.052146,0.099278 0.02379,0.047328 0.1087832,0.1380345 0.1890302,0.2015652 0.2534082,0.2006197 0.5793871,0.3446125 1.4605952,0.6468116 0.2834777,0.097217 0.5811473,0.21006 0.6613548,0.250705 0.080207,0.04064 0.2996491,0.21173 0.4873667,0.380065 0.1877186,0.168336 0.3483662,0.306122 0.3570011,0.306359 0.00863,2.36e-4 0.1744488,-0.139517 0.3685335,-0.310872 0.1940859,-0.171354 0.3990158,-0.335629 0.455778,-0.365023 0.056762,-0.0294 0.3953194,-0.156027 0.7521106,-0.2812896 1.004074,-0.352508 1.541044,-0.6415328 1.595474,-0.8584055 0.0098,-0.039124 0.02575,-0.070698 0.0356,-0.070698 0.0098,0 0.08185,0.062465 0.159447,0.1388893 l 0.140895,0.1388899 v -0.13538 c 0,-0.1754929 -0.06921,-0.5641412 -0.156939,-0.8799677 l -0.0697,-0.2507027 -0.439734,0.4427416 -0.43923,0.44224 0.250201,0.014543 0.250701,0.01504 -0.185012,0.126856 C 10.888915,9.2976367 10.426508,9.453247 9.7241817,9.5715354 9.4285553,9.6213277 9.338788,9.6265911 9.2373166,9.5996141 9.0663388,9.5541584 8.9261636,9.4628277 8.8597583,9.3539259 8.8072851,9.2678735 8.8037042,9.1864928 8.8036003,8.0016339 V 6.7411 H 9.4228367 10.042074 V 6.4613142 6.1810282 H 9.4228375 8.8036015 V 5.9333339 5.6851379 L 8.96355,5.5948846 C 9.3693456,5.3658675 9.5411365,4.821302 9.3386015,4.4050479 9.2537128,4.2305849 9.0435362,4.020813 8.8657755,3.9332247 8.7698924,3.8859813 8.6382453,3.8626171 8.5082732,3.8630284 Z m -0.012534,0.6152254 c 0.177042,-0.011176 0.3374462,0.1259667 0.3374462,0.3219022 0,0.095601 -0.019491,0.1383239 -0.1002811,0.219115 -0.080791,0.08079 -0.1235138,0.1002809 -0.2191146,0.1002809 -0.3396446,0 -0.4471468,-0.4629042 -0.1413965,-0.6087072 0.040903,-0.019505 0.08249,-0.030012 0.123346,-0.032591 z M 11.17726,11.515486 c -0.389898,0 -0.780063,0.01292 -0.805258,0.03811 -0.02519,0.02519 -0.0351,0.207165 -0.0351,0.632271 0,0.537576 0.0051,0.600202 0.05164,0.62726 0.07008,0.04082 1.495872,0.0422 1.571909,0.0015 0.05351,-0.02863 0.05716,-0.06767 0.05716,-0.628261 0,-0.425441 -0.01041,-0.607582 -0.0356,-0.632774 -0.0252,-0.0252 -0.414861,-0.03811 -0.804757,-0.03811 z m -5.3409786,0.0025 c -0.663773,0 -0.7800308,0.0068 -0.8197993,0.04663 -0.038936,0.03893 -0.046129,0.137259 -0.046129,0.61723 0,0.556851 0.0013,0.572483 0.065182,0.617231 0.055063,0.03858 0.183141,0.04612 0.8012465,0.04612 0.6431595,0 0.7425715,-0.0066 0.7897147,-0.04913 0.048755,-0.04412 0.054152,-0.104022 0.054152,-0.627759 0,-0.411227 -0.010478,-0.589605 -0.0356,-0.614724 -0.025722,-0.02572 -0.2465526,-0.0356 -0.8087676,-0.0356 z m 2.6589557,0 c -0.5602977,0 -0.7805441,0.0099 -0.8062606,0.0356 -0.02513,0.02513 -0.0356,0.204087 -0.0356,0.617231 0,0.489531 0.00764,0.588767 0.046631,0.62776 0.039694,0.0397 0.1539066,0.04663 0.7962324,0.04663 0.7104904,0 0.7528867,-0.0032 0.8087679,-0.05917 0.054764,-0.05476 0.058665,-0.09847 0.058665,-0.60971 0,-0.470918 -0.0069,-0.558071 -0.048636,-0.604194 -0.044906,-0.04962 -0.1103808,-0.05415 -0.819799,-0.05415 z" />
  <rect
     style="opacity:0.5;fill:none;fill-opacity:0.996424;stroke:url(#linearGradient9);stroke-width:0.566102;stroke-dasharray:none;stroke-opacity:1"
     id="rect1-2-6"
     width="11.574203"
     height="11.508601"
     x="2.729686"
     y="2.6615164"
     rx="2.0246315"
     ry="2.0627522" />
</svg>
