<?xml version="1.0" encoding="UTF-8" standalone="no"?>
<svg
   width="64"
   height="64"
   version="1.1"
   viewBox="0 0 16.933 16.933"
   id="svg7"
   sodipodi:docname="Template 4.svg"
   inkscape:version="1.3.2 (091e20ef0f, 2023-11-25)"
   xmlns:inkscape="http://www.inkscape.org/namespaces/inkscape"
   xmlns:sodipodi="http://sodipodi.sourceforge.net/DTD/sodipodi-0.dtd"
   xmlns:xlink="http://www.w3.org/1999/xlink"
   xmlns="http://www.w3.org/2000/svg"
   xmlns:svg="http://www.w3.org/2000/svg"
   xmlns:rdf="http://www.w3.org/1999/02/22-rdf-syntax-ns#"
   xmlns:cc="http://creativecommons.org/ns#"
   xmlns:dc="http://purl.org/dc/elements/1.1/">
  <sodipodi:namedview
     id="namedview7"
     pagecolor="#9c4444"
     bordercolor="#000000"
     borderopacity="0.25"
     inkscape:showpageshadow="2"
     inkscape:pageopacity="0.0"
     inkscape:pagecheckerboard="0"
     inkscape:deskcolor="#d1d1d1"
     inkscape:zoom="4.3531261"
     inkscape:cx="32.964816"
     inkscape:cy="24.350317"
     inkscape:window-width="1463"
     inkscape:window-height="604"
     inkscape:window-x="42"
     inkscape:window-y="99"
     inkscape:window-maximized="0"
     inkscape:current-layer="svg7"
     showgrid="false" />
  <defs
     id="defs2">
    <linearGradient
       id="linearGradient5"
       inkscape:collect="always">
      <stop
         style="stop-color:#392713;stop-opacity:1;"
         offset="0"
         id="stop2" />
      <stop
         style="stop-color:#eed59e;stop-opacity:1;"
         offset="0.5"
         id="stop3" />
      <stop
         style="stop-color:#beaa8a;stop-opacity:1;"
         offset="1"
         id="stop4" />
    </linearGradient>
    <linearGradient
       id="linearGradient8"
       inkscape:collect="always">
      <stop
         style="stop-color:#1a1a1a;stop-opacity:1;"
         offset="0"
         id="stop8" />
      <stop
         style="stop-color:#ffffff;stop-opacity:0;"
         offset="1"
         id="stop9" />
    </linearGradient>
    <linearGradient
       inkscape:collect="always"
       xlink:href="#linearGradient5"
       id="linearGradient41"
       x1="13.675659"
       y1="16.110115"
       x2="13.728528"
       y2="10.548769"
       gradientUnits="userSpaceOnUse"
       gradientTransform="matrix(2.046153,0,0,2.046153,-18.798306,-18.911347)" />
    <linearGradient
       inkscape:collect="always"
       xlink:href="#linearGradient42"
       id="linearGradient4"
       x1="11.885941"
       y1="16.50819"
       x2="12.026573"
       y2="10.244942"
       gradientUnits="userSpaceOnUse"
       gradientTransform="matrix(2.046153,0,0,2.046153,-18.798306,-18.911347)" />
    <linearGradient
       id="linearGradient42"
       inkscape:collect="always">
      <stop
         style="stop-color:#010101;stop-opacity:1;"
         offset="0"
         id="stop42" />
      <stop
         style="stop-color:#6e6c6d;stop-opacity:1;"
         offset="1"
         id="stop43" />
    </linearGradient>
    <linearGradient
       inkscape:collect="always"
       xlink:href="#linearGradient8"
       id="linearGradient9"
       x1="9.3404646"
       y1="4.1692023"
       x2="9.4279938"
       y2="16.46883"
       gradientUnits="userSpaceOnUse"
       gradientTransform="matrix(1.05,0,0,1.05,-0.50277005,-0.1977751)" />
    <filter
       style="color-interpolation-filters:sRGB;"
       inkscape:label="Blur"
       id="filter2"
       x="-0.14510849"
       y="-0.14612901"
       width="1.290217"
       height="1.292258">
      <feGaussianBlur
         stdDeviation="0.6 0.6"
         result="blur"
         id="feGaussianBlur2" />
    </filter>
    <linearGradient
       inkscape:collect="always"
       xlink:href="#linearGradient5"
       id="linearGradient36"
       x1="8.447154"
       y1="12.80084"
       x2="8.5551462"
       y2="4.2967796"
       gradientUnits="userSpaceOnUse" />
  </defs>
  <metadata
     id="metadata2">
    <rdf:RDF>
      <cc:Work
         rdf:about="">
        <dc:format>image/svg+xml</dc:format>
        <dc:type
           rdf:resource="http://purl.org/dc/dcmitype/StillImage" />
      </cc:Work>
    </rdf:RDF>
  </metadata>
  <rect
     style="fill:#000000;fill-opacity:0.996424;stroke:#000000;stroke-width:0.911802;stroke-dasharray:none;stroke-opacity:1;filter:url(#filter2)"
     id="rect1-2-3"
     width="13.065404"
     height="12.974159"
     x="1.9816793"
     y="1.9267306"
     rx="2.7149384"
     ry="2.8310909" />
  <rect
     style="fill:url(#linearGradient4);fill-opacity:0.996424;stroke:url(#linearGradient41);stroke-width:0.911802;stroke-dasharray:none;stroke-opacity:1"
     id="rect1-2"
     width="13.065404"
     height="12.974159"
     x="1.9816793"
     y="1.9267306"
     rx="2.7149384"
     ry="2.8310909" />
  <path
     style="fill:#000000;fill-opacity:1;stroke:none;stroke-width:0.313769;stroke-dasharray:none;stroke-opacity:0.3;opacity:0.3"
     d="m 11.670012,4.7307343 c -0.249256,0.010804 -0.495087,0.1121121 -0.688195,0.3022246 -0.423997,0.4191118 -0.440411,1.1109168 -0.0332,1.5473116 l -0.0045,-0.00872 c 0.319045,0.3370171 0.814589,0.423175 1.225991,0.2157796 L 11.439503,6.0401456 c -0.02519,-0.030244 -0.02519,-0.073624 0,-0.1038681 l 0.940166,-0.963638 C 12.171894,4.7998196 11.919267,4.7199334 11.670011,4.7307352 Z m 0.810601,0.3410916 -0.893938,0.9207472 0.701218,0.7210517 c 0.05878,-0.038885 0.10914,-0.085826 0.159514,-0.1333543 0.407207,-0.4147917 0.419423,-1.0806908 0.0332,-1.5084446 z m -0.04817,0.5541909 c 0.02233,-8.66e-5 0.04352,0.010578 0.05666,0.029488 0.07556,0.1469048 0.05481,0.3236801 -0.05013,0.4489809 -0.01259,0.017287 -0.03827,0.030156 -0.05925,0.030156 -0.0168,0.00431 -0.03788,0.00431 -0.05469,0 l -0.0039,-0.00399 c -0.02939,-0.030244 -0.02548,-0.082336 0.0039,-0.1125798 0.06297,-0.073453 0.07193,-0.1809642 0.02996,-0.2673787 0,-0.00431 -0.0045,-0.00442 -0.0045,-0.00872 -0.0168,-0.038885 0.0045,-0.086586 0.04232,-0.1038688 0.01259,-0.00809 0.02632,-0.012011 0.03972,-0.012063 z m -2.0978,0.7558969 C 9.8838183,6.344446 9.143255,6.8507903 7.2289711,8.8178058 L 7.7830433,9.3887503 10.377615,6.7183149 C 10.469967,6.6232587 10.5919,6.571187 10.722039,6.566868 10.603445,6.4674913 10.484918,6.3944037 10.334644,6.3819137 Z m 0.395208,0.3504741 c -0.09236,0 -0.18451,0.035253 -0.255875,0.1065489 L 7.8878676,9.4832379 8.2361987,9.8591757 10.969451,7.3790553 c 0.07556,-0.069132 0.117561,-0.163681 0.121752,-0.2673789 0.0041,-0.099376 -0.03345,-0.1992867 -0.104824,-0.2727393 -0.07137,-0.071293 -0.164172,-0.1065486 -0.256528,-0.1065493 z m 0.403021,0.6687815 c -0.02099,0.030244 -0.04578,0.056129 -0.07096,0.077735 L 8.3286527,9.9543328 8.8156632,10.455584 C 9.9449229,9.3451551 11.044714,8.2048263 11.132872,7.4011693 Z M 7.128053,8.9042532 6.4437636,9.6085508 6.4313968,9.6259767 c -0.012598,0.012958 -0.01657,0.026271 -0.012365,0.043557 0.00418,0.025926 0.028854,0.043184 0.05404,0.038863 L 7.6443731,9.4490593 Z M 7.7915077,9.6085508 7.4008571,10.010624 c -0.0084,0.01296 -0.0084,0.03059 0,0.04356 0.012593,0.0086 0.025174,0.0086 0.037762,0 L 8.08124,9.8853085 Z m 0.4114859,0.4107832 -1.0619188,0.233203 -2.1915496,2.25965 0.7135882,0.756567 c 0.020991,0.02161 0.058801,0.02161 0.083989,0 0.025179,-0.0173 0.042253,-0.05189 0.033857,-0.08645 l -0.1178477,-0.51867 c -0.012591,-0.0605 0.017046,-0.121203 0.071619,-0.151449 h 0.00387 v -0.0086 C 6.8048895,11.980664 7.8040335,11.319759 8.7107991,10.542027 Z M 4.836234,12.620077 4.2860676,13.191021 c -0.00419,0.01296 -0.00419,0.02963 0,0.04693 0.00419,0.01296 0.020972,0.02651 0.037763,0.03083 l 1.2259899,0.08176 z"
     id="path8-5" />
  <path
     style="fill:url(#linearGradient36);fill-opacity:1;stroke:none;stroke-width:0.313769;stroke-dasharray:none;stroke-opacity:0.3"
     d="m 11.670012,4.2015781 c -0.249256,0.010804 -0.495087,0.1121121 -0.688195,0.3022246 -0.423997,0.4191118 -0.440411,1.1109168 -0.0332,1.5473116 l -0.0045,-0.00872 c 0.319045,0.3370171 0.814589,0.423175 1.225991,0.2157796 L 11.439503,5.5109894 c -0.02519,-0.030244 -0.02519,-0.073624 0,-0.1038681 l 0.940166,-0.963638 C 12.171894,4.2706634 11.919267,4.1907772 11.670011,4.201579 Z m 0.810601,0.3410916 -0.893938,0.9207472 0.701218,0.7210517 c 0.05878,-0.038885 0.10914,-0.085826 0.159514,-0.1333543 0.407207,-0.4147917 0.419423,-1.0806908 0.0332,-1.5084446 z m -0.04817,0.5541909 c 0.02233,-8.66e-5 0.04352,0.010578 0.05666,0.029488 0.07556,0.1469048 0.05481,0.3236801 -0.05013,0.4489809 -0.01259,0.017287 -0.03827,0.030156 -0.05925,0.030156 -0.0168,0.00431 -0.03788,0.00431 -0.05469,0 l -0.0039,-0.00399 c -0.02939,-0.030244 -0.02548,-0.082336 0.0039,-0.1125798 0.06297,-0.073453 0.07193,-0.1809642 0.02996,-0.2673787 0,-0.00431 -0.0045,-0.00442 -0.0045,-0.00872 -0.0168,-0.038885 0.0045,-0.086586 0.04232,-0.1038688 0.01259,-0.00809 0.02632,-0.012011 0.03972,-0.012063 z m -2.0978,0.7558969 C 9.8838183,5.8152898 9.143255,6.3216341 7.2289711,8.2886496 L 7.7830433,8.8595941 10.377615,6.1891587 C 10.469967,6.0941025 10.5919,6.0420308 10.722039,6.0377118 10.603445,5.9383351 10.484918,5.8652475 10.334644,5.8527575 Z m 0.395208,0.3504741 c -0.09236,0 -0.18451,0.035253 -0.255875,0.1065489 L 7.8878676,8.9540817 8.2361987,9.3300195 10.969451,6.8498991 c 0.07556,-0.069132 0.117561,-0.163681 0.121752,-0.2673789 0.0041,-0.099376 -0.03345,-0.1992867 -0.104824,-0.2727393 -0.07137,-0.071293 -0.164172,-0.1065486 -0.256528,-0.1065493 z m 0.403021,0.6687815 c -0.02099,0.030244 -0.04578,0.056129 -0.07096,0.077735 L 8.3286527,9.4251766 8.8156632,9.9264275 C 9.9449229,8.8159989 11.044714,7.6756701 11.132872,6.8720131 Z M 7.128053,8.375097 6.4437636,9.0793946 6.4313968,9.0968205 c -0.012598,0.012958 -0.01657,0.026271 -0.012365,0.043557 0.00418,0.025926 0.028854,0.043184 0.05404,0.038863 L 7.6443731,8.9199031 Z M 7.7915077,9.0793946 7.4008571,9.4814673 c -0.0084,0.012961 -0.0084,0.030593 0,0.043556 0.012593,0.00865 0.025174,0.00865 0.037762,0 L 8.08124,9.3561523 Z m 0.4114859,0.4107835 -1.0619188,0.2332029 -2.1915496,2.25965 0.7135882,0.756567 c 0.020991,0.02161 0.058801,0.02161 0.083989,0 0.025179,-0.0173 0.042253,-0.05189 0.033857,-0.08645 l -0.1178477,-0.51867 c -0.012591,-0.0605 0.017046,-0.121203 0.071619,-0.151449 h 0.00387 v -0.0086 C 6.8048895,11.451508 7.8040335,10.790603 8.7107991,10.012871 Z M 4.836234,12.090921 4.2860676,12.661865 c -0.00419,0.01296 -0.00419,0.02963 0,0.04693 0.00419,0.01296 0.020972,0.02651 0.037763,0.03083 l 1.2259899,0.08176 z"
     id="path8" />
  <rect
     style="opacity:0.5;fill:none;fill-opacity:0.996424;stroke:url(#linearGradient9);stroke-width:0.566102;stroke-dasharray:none;stroke-opacity:1"
     id="rect1-2-6"
     width="11.574203"
     height="11.508601"
     x="2.729686"
     y="2.6615164"
     rx="2.0246315"
     ry="2.0627522" />
</svg>
