<?xml version="1.0" encoding="UTF-8" standalone="no"?>
<svg
   width="64"
   height="64"
   version="1.1"
   viewBox="0 0 16.933 16.933"
   id="svg7"
   sodipodi:docname="Template 4.svg"
   inkscape:version="1.3.2 (091e20ef0f, 2023-11-25)"
   xmlns:inkscape="http://www.inkscape.org/namespaces/inkscape"
   xmlns:sodipodi="http://sodipodi.sourceforge.net/DTD/sodipodi-0.dtd"
   xmlns:xlink="http://www.w3.org/1999/xlink"
   xmlns="http://www.w3.org/2000/svg"
   xmlns:svg="http://www.w3.org/2000/svg"
   xmlns:rdf="http://www.w3.org/1999/02/22-rdf-syntax-ns#"
   xmlns:cc="http://creativecommons.org/ns#"
   xmlns:dc="http://purl.org/dc/elements/1.1/">
  <sodipodi:namedview
     id="namedview7"
     pagecolor="#9c4444"
     bordercolor="#000000"
     borderopacity="0.25"
     inkscape:showpageshadow="2"
     inkscape:pageopacity="0.0"
     inkscape:pagecheckerboard="0"
     inkscape:deskcolor="#d1d1d1"
     inkscape:zoom="4.3531261"
     inkscape:cx="32.964816"
     inkscape:cy="24.350317"
     inkscape:window-width="1463"
     inkscape:window-height="604"
     inkscape:window-x="199"
     inkscape:window-y="276"
     inkscape:window-maximized="0"
     inkscape:current-layer="svg7"
     showgrid="false" />
  <defs
     id="defs2">
    <linearGradient
       id="linearGradient5"
       inkscape:collect="always">
      <stop
         style="stop-color:#392713;stop-opacity:1;"
         offset="0"
         id="stop2" />
      <stop
         style="stop-color:#eed59e;stop-opacity:1;"
         offset="0.5"
         id="stop3" />
      <stop
         style="stop-color:#beaa8a;stop-opacity:1;"
         offset="1"
         id="stop4" />
    </linearGradient>
    <linearGradient
       id="linearGradient8"
       inkscape:collect="always">
      <stop
         style="stop-color:#1a1a1a;stop-opacity:1;"
         offset="0"
         id="stop8" />
      <stop
         style="stop-color:#ffffff;stop-opacity:0;"
         offset="1"
         id="stop9" />
    </linearGradient>
    <linearGradient
       inkscape:collect="always"
       xlink:href="#linearGradient5"
       id="linearGradient41"
       x1="13.675659"
       y1="16.110115"
       x2="13.728528"
       y2="10.548769"
       gradientUnits="userSpaceOnUse"
       gradientTransform="matrix(2.046153,0,0,2.046153,-18.798306,-18.911347)" />
    <linearGradient
       inkscape:collect="always"
       xlink:href="#linearGradient42"
       id="linearGradient4"
       x1="11.885941"
       y1="16.50819"
       x2="12.026573"
       y2="10.244942"
       gradientUnits="userSpaceOnUse"
       gradientTransform="matrix(2.046153,0,0,2.046153,-18.798306,-18.911347)" />
    <linearGradient
       id="linearGradient42"
       inkscape:collect="always">
      <stop
         style="stop-color:#010101;stop-opacity:1;"
         offset="0"
         id="stop42" />
      <stop
         style="stop-color:#6e6c6d;stop-opacity:1;"
         offset="1"
         id="stop43" />
    </linearGradient>
    <linearGradient
       inkscape:collect="always"
       xlink:href="#linearGradient8"
       id="linearGradient9"
       x1="9.3404646"
       y1="4.1692023"
       x2="9.4279938"
       y2="16.46883"
       gradientUnits="userSpaceOnUse"
       gradientTransform="matrix(1.05,0,0,1.05,-0.50277005,-0.1977751)" />
    <filter
       style="color-interpolation-filters:sRGB;"
       inkscape:label="Blur"
       id="filter2"
       x="-0.14510849"
       y="-0.14612901"
       width="1.290217"
       height="1.292258">
      <feGaussianBlur
         stdDeviation="0.6 0.6"
         result="blur"
         id="feGaussianBlur2" />
    </filter>
    <linearGradient
       inkscape:collect="always"
       xlink:href="#linearGradient5"
       id="linearGradient44"
       x1="32.271614"
       y1="50.026207"
       x2="32.299877"
       y2="14.51812"
       gradientUnits="userSpaceOnUse"
       gradientTransform="matrix(0.23573911,0,0,0.23573911,0.91103826,0.7352351)" />
  </defs>
  <metadata
     id="metadata2">
    <rdf:RDF>
      <cc:Work
         rdf:about="">
        <dc:format>image/svg+xml</dc:format>
        <dc:type
           rdf:resource="http://purl.org/dc/dcmitype/StillImage" />
      </cc:Work>
    </rdf:RDF>
  </metadata>
  <rect
     style="fill:#000000;fill-opacity:0.996424;stroke:#000000;stroke-width:0.911802;stroke-dasharray:none;stroke-opacity:1;filter:url(#filter2)"
     id="rect1-2-3"
     width="13.065404"
     height="12.974159"
     x="1.9816793"
     y="1.9267306"
     rx="2.7149384"
     ry="2.8310909" />
  <rect
     style="fill:url(#linearGradient4);fill-opacity:0.996424;stroke:url(#linearGradient41);stroke-width:0.911802;stroke-dasharray:none;stroke-opacity:1"
     id="rect1-2"
     width="13.065404"
     height="12.974159"
     x="1.9816793"
     y="1.9267306"
     rx="2.7149384"
     ry="2.8310909" />
  <path
     style="color:#6e6e6e;fill:#000000;fill-opacity:1;stroke:none;stroke-width:0.282392;stroke-dasharray:none;stroke-opacity:0.3;opacity:0.3"
     class="ColorScheme-Text"
     d="m 6.2686542,4.7103429 c -1.0591551,0 -1.0591551,1.1219893 -1.0591551,1.1219893 v 6.1709408 c 0,1.121989 1.0026489,1.119969 1.0591551,1.121989 H 10.50527 c 0,0 1.059156,-0.0023 1.059156,-1.121989 V 5.8323322 c 0,-1.1219893 -1.059156,-1.1219893 -1.059156,-1.1219893 z m 2.1183087,1.1219893 c 0.2934229,0 0.5295768,0.2521395 0.5295768,0.5609952 0,0.3089062 -0.2361539,0.5609947 -0.5295768,0.5609947 -0.2935126,0 -0.5295771,-0.2520885 -0.5295771,-0.5609947 0,-0.3088557 0.2360645,-0.5609952 0.5295771,-0.5609952 z m 0,1.6829844 c 1.1698895,0 2.1183071,1.0046859 2.1183071,2.2439798 0,1.2392916 -0.9484176,2.2439766 -2.1183071,2.2439766 -1.1698893,0 -2.1183087,-1.004685 -2.1183087,-2.2439766 0,-1.2392939 0.9484194,-2.2439798 2.1183087,-2.2439798 z m 0,1.1219897 c -0.5849713,0 -1.0591546,0.5023313 -1.0591546,1.1219901 0,0.6196556 0.4742001,1.1219866 1.0591546,1.1219866 0.5849548,0 1.0591547,-0.502331 1.0591547,-1.1219866 0,-0.6196588 -0.4741999,-1.1219901 -1.0591547,-1.1219901 z"
     id="path5-1" />
  <path
     style="color:#6e6e6e;fill:url(#linearGradient44);fill-opacity:1;stroke:none;stroke-width:0.282392;stroke-dasharray:none;stroke-opacity:0.3"
     class="ColorScheme-Text"
     d="m 6.2686542,4.1811867 c -1.0591551,0 -1.0591551,1.1219893 -1.0591551,1.1219893 v 6.170941 c 0,1.121989 1.0026489,1.119969 1.0591551,1.121989 H 10.50527 c 0,0 1.059156,-0.0023 1.059156,-1.121989 V 5.303176 c 0,-1.1219893 -1.059156,-1.1219893 -1.059156,-1.1219893 z M 8.3869629,5.303176 c 0.2934229,0 0.5295768,0.2521395 0.5295768,0.5609952 0,0.3089062 -0.2361539,0.5609947 -0.5295768,0.5609947 -0.2935126,0 -0.5295771,-0.2520885 -0.5295771,-0.5609947 0,-0.3088557 0.2360645,-0.5609952 0.5295771,-0.5609952 z m 0,1.6829844 c 1.1698895,0 2.1183071,1.0046859 2.1183071,2.2439798 0,1.2392918 -0.9484176,2.2439768 -2.1183071,2.2439768 -1.1698893,0 -2.1183087,-1.004685 -2.1183087,-2.2439768 0,-1.2392939 0.9484194,-2.2439798 2.1183087,-2.2439798 z m 0,1.1219897 c -0.5849713,0 -1.0591546,0.5023313 -1.0591546,1.1219901 0,0.6196559 0.4742001,1.1219868 1.0591546,1.1219868 0.5849548,0 1.0591547,-0.5023309 1.0591547,-1.1219868 0,-0.6196588 -0.4741999,-1.1219901 -1.0591547,-1.1219901 z"
     id="path5" />
  <rect
     style="opacity:0.5;fill:none;fill-opacity:0.996424;stroke:url(#linearGradient9);stroke-width:0.566102;stroke-dasharray:none;stroke-opacity:1"
     id="rect1-2-6"
     width="11.574203"
     height="11.508601"
     x="2.729686"
     y="2.6615164"
     rx="2.0246315"
     ry="2.0627522" />
</svg>
