<?xml version="1.0" encoding="UTF-8" standalone="no"?>
<svg
   width="64"
   height="64"
   version="1.1"
   viewBox="0 0 16.933 16.933"
   id="svg7"
   sodipodi:docname="Template 4.svg"
   inkscape:version="1.3.2 (091e20ef0f, 2023-11-25)"
   xmlns:inkscape="http://www.inkscape.org/namespaces/inkscape"
   xmlns:sodipodi="http://sodipodi.sourceforge.net/DTD/sodipodi-0.dtd"
   xmlns:xlink="http://www.w3.org/1999/xlink"
   xmlns="http://www.w3.org/2000/svg"
   xmlns:svg="http://www.w3.org/2000/svg"
   xmlns:rdf="http://www.w3.org/1999/02/22-rdf-syntax-ns#"
   xmlns:cc="http://creativecommons.org/ns#"
   xmlns:dc="http://purl.org/dc/elements/1.1/">
  <sodipodi:namedview
     id="namedview7"
     pagecolor="#9c4444"
     bordercolor="#000000"
     borderopacity="0.25"
     inkscape:showpageshadow="2"
     inkscape:pageopacity="0.0"
     inkscape:pagecheckerboard="0"
     inkscape:deskcolor="#d1d1d1"
     inkscape:zoom="4.3531261"
     inkscape:cx="32.964816"
     inkscape:cy="24.350317"
     inkscape:window-width="1463"
     inkscape:window-height="604"
     inkscape:window-x="199"
     inkscape:window-y="276"
     inkscape:window-maximized="0"
     inkscape:current-layer="svg7"
     showgrid="false" />
  <defs
     id="defs2">
    <linearGradient
       id="linearGradient5"
       inkscape:collect="always">
      <stop
         style="stop-color:#392713;stop-opacity:1;"
         offset="0"
         id="stop2" />
      <stop
         style="stop-color:#eed59e;stop-opacity:1;"
         offset="0.5"
         id="stop3" />
      <stop
         style="stop-color:#beaa8a;stop-opacity:1;"
         offset="1"
         id="stop4" />
    </linearGradient>
    <linearGradient
       id="linearGradient8"
       inkscape:collect="always">
      <stop
         style="stop-color:#1a1a1a;stop-opacity:1;"
         offset="0"
         id="stop8" />
      <stop
         style="stop-color:#ffffff;stop-opacity:0;"
         offset="1"
         id="stop9" />
    </linearGradient>
    <linearGradient
       inkscape:collect="always"
       xlink:href="#linearGradient5"
       id="linearGradient41"
       x1="13.675659"
       y1="16.110115"
       x2="13.728528"
       y2="10.548769"
       gradientUnits="userSpaceOnUse"
       gradientTransform="matrix(2.046153,0,0,2.046153,-18.798306,-18.911347)" />
    <linearGradient
       inkscape:collect="always"
       xlink:href="#linearGradient42"
       id="linearGradient4"
       x1="11.885941"
       y1="16.50819"
       x2="12.026573"
       y2="10.244942"
       gradientUnits="userSpaceOnUse"
       gradientTransform="matrix(2.046153,0,0,2.046153,-18.798306,-18.911347)" />
    <linearGradient
       id="linearGradient42"
       inkscape:collect="always">
      <stop
         style="stop-color:#010101;stop-opacity:1;"
         offset="0"
         id="stop42" />
      <stop
         style="stop-color:#6e6c6d;stop-opacity:1;"
         offset="1"
         id="stop43" />
    </linearGradient>
    <linearGradient
       inkscape:collect="always"
       xlink:href="#linearGradient8"
       id="linearGradient9"
       x1="9.3404646"
       y1="4.1692023"
       x2="9.4279938"
       y2="16.46883"
       gradientUnits="userSpaceOnUse"
       gradientTransform="matrix(1.05,0,0,1.05,-0.50277005,-0.1977751)" />
    <filter
       style="color-interpolation-filters:sRGB;"
       inkscape:label="Blur"
       id="filter2"
       x="-0.14510849"
       y="-0.14612901"
       width="1.290217"
       height="1.292258">
      <feGaussianBlur
         stdDeviation="0.6 0.6"
         result="blur"
         id="feGaussianBlur2" />
    </filter>
    <linearGradient
       inkscape:collect="always"
       xlink:href="#linearGradient5"
       id="linearGradient32"
       x1="33.447468"
       y1="47.737274"
       x2="33.182663"
       y2="17.581839"
       gradientUnits="userSpaceOnUse"
       gradientTransform="matrix(0.23573911,0,0,0.23573911,0.94369666,0.88868103)" />
  </defs>
  <metadata
     id="metadata2">
    <rdf:RDF>
      <cc:Work
         rdf:about="">
        <dc:format>image/svg+xml</dc:format>
        <dc:type
           rdf:resource="http://purl.org/dc/dcmitype/StillImage" />
      </cc:Work>
    </rdf:RDF>
  </metadata>
  <rect
     style="fill:#000000;fill-opacity:0.996424;stroke:#000000;stroke-width:0.911802;stroke-dasharray:none;stroke-opacity:1;filter:url(#filter2)"
     id="rect1-2-3"
     width="13.065404"
     height="12.974159"
     x="1.9816793"
     y="1.9267306"
     rx="2.7149384"
     ry="2.8310909" />
  <rect
     style="fill:url(#linearGradient4);fill-opacity:0.996424;stroke:url(#linearGradient41);stroke-width:0.911802;stroke-dasharray:none;stroke-opacity:1"
     id="rect1-2"
     width="13.065404"
     height="12.974159"
     x="1.9816793"
     y="1.9267306"
     rx="2.7149384"
     ry="2.8310909" />
  <path
     style="fill:#000000;fill-opacity:1;stroke:none;stroke-width:0.25672;stroke-dasharray:none;stroke-dashoffset:2.2;stroke-opacity:0.3;opacity:0.3"
     d="M 4.5772817,12.585355 C 4.358868,12.45218 4.3711809,12.676431 4.3806432,9.0040544 c 0.00843,-3.2699063 0.00958,-3.323123 0.073431,-3.3947286 0.1490316,-0.1671246 -0.0047,-0.1611001 4.1106669,-0.1611001 3.6541979,0 3.8423159,0.00283 3.9475609,0.059269 0.06078,0.032597 0.137183,0.1089989 0.16978,0.1697805 0.05629,0.1049449 0.05926,0.2755687 0.05915,3.3870064 -1.18e-4,3.1924594 -0.0018,3.2791564 -0.06344,3.3803344 -0.13298,0.218095 0.145668,0.20431 -4.1271232,0.204175 -3.7806565,-1.2e-4 -3.8719326,-0.0016 -3.9733881,-0.06344 z M 12.053838,7.3537771 c 0.327891,-0.2170083 0.379264,-0.7302045 0.09865,-0.9854536 -0.202449,-0.1841476 0.0039,-0.1740807 -3.5672469,-0.1740807 -3.2797973,0 -3.2837396,7.95e-5 -3.4256987,0.0688 -0.2476731,0.1198947 -0.3769258,0.4138064 -0.3186322,0.7245374 0.02768,0.1475402 0.1909968,0.3347836 0.3589027,0.4114806 0.1236656,0.056489 0.2910376,0.059013 3.4246073,0.05167 l 3.2945878,-0.00772 z"
     id="path15-3" />
  <path
     style="fill:url(#linearGradient32);fill-opacity:1;stroke:none;stroke-width:0.25672;stroke-dasharray:none;stroke-dashoffset:2.2;stroke-opacity:0.3"
     d="M 4.5772817,12.056199 C 4.358868,11.923024 4.3711809,12.147275 4.3806432,8.4748982 c 0.00843,-3.2699063 0.00958,-3.323123 0.073431,-3.3947286 0.1490316,-0.1671246 -0.0047,-0.1611001 4.1106669,-0.1611001 3.6541979,0 3.8423159,0.00283 3.9475609,0.059269 0.06078,0.032597 0.137183,0.1089989 0.16978,0.1697805 0.05629,0.1049449 0.05926,0.2755687 0.05915,3.3870064 -1.18e-4,3.1924596 -0.0018,3.2791566 -0.06344,3.3803346 -0.13298,0.218095 0.145668,0.20431 -4.1271232,0.204175 -3.7806565,-1.2e-4 -3.8719326,-0.0016 -3.9733881,-0.06344 z M 12.053838,6.8246209 c 0.327891,-0.2170083 0.379264,-0.7302045 0.09865,-0.9854536 -0.202449,-0.1841476 0.0039,-0.1740807 -3.5672469,-0.1740807 -3.2797973,0 -3.2837396,7.95e-5 -3.4256987,0.0688 C 4.9118693,5.8537813 4.7826166,6.147693 4.8409102,6.458424 c 0.02768,0.1475402 0.1909968,0.3347836 0.3589027,0.4114806 0.1236656,0.056489 0.2910376,0.059013 3.4246073,0.05167 l 3.2945878,-0.00772 z"
     id="path15" />
  <rect
     style="opacity:0.5;fill:none;fill-opacity:0.996424;stroke:url(#linearGradient9);stroke-width:0.566102;stroke-dasharray:none;stroke-opacity:1"
     id="rect1-2-6"
     width="11.574203"
     height="11.508601"
     x="2.729686"
     y="2.6615164"
     rx="2.0246315"
     ry="2.0627522" />
</svg>
