<?xml version="1.0" encoding="UTF-8" standalone="no"?>
<svg
   width="64"
   height="64"
   version="1.1"
   viewBox="0 0 16.933 16.933"
   id="svg7"
   sodipodi:docname="Template 4.svg"
   inkscape:version="1.3.2 (091e20ef0f, 2023-11-25)"
   xmlns:inkscape="http://www.inkscape.org/namespaces/inkscape"
   xmlns:sodipodi="http://sodipodi.sourceforge.net/DTD/sodipodi-0.dtd"
   xmlns:xlink="http://www.w3.org/1999/xlink"
   xmlns="http://www.w3.org/2000/svg"
   xmlns:svg="http://www.w3.org/2000/svg"
   xmlns:rdf="http://www.w3.org/1999/02/22-rdf-syntax-ns#"
   xmlns:cc="http://creativecommons.org/ns#"
   xmlns:dc="http://purl.org/dc/elements/1.1/">
  <sodipodi:namedview
     id="namedview7"
     pagecolor="#9c4444"
     bordercolor="#000000"
     borderopacity="0.25"
     inkscape:showpageshadow="2"
     inkscape:pageopacity="0.0"
     inkscape:pagecheckerboard="0"
     inkscape:deskcolor="#d1d1d1"
     inkscape:zoom="4.3531261"
     inkscape:cx="32.964816"
     inkscape:cy="24.350317"
     inkscape:window-width="1463"
     inkscape:window-height="604"
     inkscape:window-x="199"
     inkscape:window-y="276"
     inkscape:window-maximized="0"
     inkscape:current-layer="svg7"
     showgrid="false" />
  <defs
     id="defs2">
    <linearGradient
       id="linearGradient5"
       inkscape:collect="always">
      <stop
         style="stop-color:#392713;stop-opacity:1;"
         offset="0"
         id="stop2" />
      <stop
         style="stop-color:#eed59e;stop-opacity:1;"
         offset="0.5"
         id="stop3" />
      <stop
         style="stop-color:#beaa8a;stop-opacity:1;"
         offset="1"
         id="stop4" />
    </linearGradient>
    <linearGradient
       id="linearGradient8"
       inkscape:collect="always">
      <stop
         style="stop-color:#1a1a1a;stop-opacity:1;"
         offset="0"
         id="stop8" />
      <stop
         style="stop-color:#ffffff;stop-opacity:0;"
         offset="1"
         id="stop9" />
    </linearGradient>
    <linearGradient
       inkscape:collect="always"
       xlink:href="#linearGradient5"
       id="linearGradient41"
       x1="13.675659"
       y1="16.110115"
       x2="13.728528"
       y2="10.548769"
       gradientUnits="userSpaceOnUse"
       gradientTransform="matrix(2.046153,0,0,2.046153,-18.798306,-18.911347)" />
    <linearGradient
       inkscape:collect="always"
       xlink:href="#linearGradient42"
       id="linearGradient4"
       x1="11.885941"
       y1="16.50819"
       x2="12.026573"
       y2="10.244942"
       gradientUnits="userSpaceOnUse"
       gradientTransform="matrix(2.046153,0,0,2.046153,-18.798306,-18.911347)" />
    <linearGradient
       id="linearGradient42"
       inkscape:collect="always">
      <stop
         style="stop-color:#010101;stop-opacity:1;"
         offset="0"
         id="stop42" />
      <stop
         style="stop-color:#6e6c6d;stop-opacity:1;"
         offset="1"
         id="stop43" />
    </linearGradient>
    <linearGradient
       inkscape:collect="always"
       xlink:href="#linearGradient8"
       id="linearGradient9"
       x1="9.3404646"
       y1="4.1692023"
       x2="9.4279938"
       y2="16.46883"
       gradientUnits="userSpaceOnUse"
       gradientTransform="matrix(1.05,0,0,1.05,-0.50277005,-0.1977751)" />
    <filter
       style="color-interpolation-filters:sRGB;"
       inkscape:label="Blur"
       id="filter2"
       x="-0.14510849"
       y="-0.14612901"
       width="1.290217"
       height="1.292258">
      <feGaussianBlur
         stdDeviation="0.6 0.6"
         result="blur"
         id="feGaussianBlur2" />
    </filter>
    <linearGradient
       inkscape:collect="always"
       xlink:href="#linearGradient5"
       id="linearGradient10"
       x1="34.235451"
       y1="50.413395"
       x2="34.254765"
       y2="14.558408"
       gradientUnits="userSpaceOnUse"
       gradientTransform="matrix(0.23573911,0,0,0.23573911,0.92995651,0.78265272)" />
  </defs>
  <metadata
     id="metadata2">
    <rdf:RDF>
      <cc:Work
         rdf:about="">
        <dc:format>image/svg+xml</dc:format>
        <dc:type
           rdf:resource="http://purl.org/dc/dcmitype/StillImage" />
      </cc:Work>
    </rdf:RDF>
  </metadata>
  <rect
     style="fill:#000000;fill-opacity:0.996424;stroke:#000000;stroke-width:0.911802;stroke-dasharray:none;stroke-opacity:1;filter:url(#filter2)"
     id="rect1-2-3"
     width="13.065404"
     height="12.974159"
     x="1.9816793"
     y="1.9267306"
     rx="2.7149384"
     ry="2.8310909" />
  <rect
     style="fill:url(#linearGradient4);fill-opacity:0.996424;stroke:url(#linearGradient41);stroke-width:0.911802;stroke-dasharray:none;stroke-opacity:1"
     id="rect1-2"
     width="13.065404"
     height="12.974159"
     x="1.9816793"
     y="1.9267306"
     rx="2.7149384"
     ry="2.8310909" />
  <path
     d="m 8.4865318,4.7194935 c -2.3437076,0 -4.243659,1.8906065 -4.243659,4.2227839 0,2.3321776 1.8999514,4.2227836 4.243659,4.2227836 2.3437052,0 4.2436592,-1.890606 4.2436592,-4.2227836 0,-2.3321772 -1.899954,-4.2227839 -4.2436592,-4.2227839 z M 8.183413,5.8882996 c 0.040557,-0.00423 0.0917,0.00241 0.1326235,0 0.00482,0.019312 -0.029536,0.087998 -0.075775,0.1885185 -0.2945464,0.6402704 -0.3112553,1.3901162 -0.037898,1.7909126 0.04947,0.072667 0.094724,0.1418239 0.094724,0.1508145 0,0.00899 -0.053343,0.01881 -0.1136735,0.01881 -0.141604,0 -0.2756086,-0.085879 -0.5494022,-0.3016211 -0.1216246,-0.09584 -0.2797497,-0.1763382 -0.341011,-0.1885226 -0.09619,-0.01913 -0.12183,-0.01074 -0.2462886,0.1131092 -0.1157814,0.115198 -0.1515485,0.1773138 -0.1515485,0.282776 0,0.399922 0.4771565,0.7178364 1.3640336,0.9048822 1.20441,0.2540127 1.5013156,0.4820731 1.5345353,1.1122508 0.041707,0.7902503 -0.3810782,1.3861403 -1.3071981,1.8474673 -0.1105346,0.05508 -0.1809698,0.07645 -0.2273458,0.09426 -0.020618,-0.0019 -0.036319,0.0019 -0.056803,0 -0.00779,-0.02443 -0.01902,-0.08112 -0.01902,-0.188517 0,-0.419732 -0.1662598,-0.851765 -0.4167804,-1.093399 C 7.6993358,10.555174 7.5110384,10.417735 7.3497931,10.318411 7.1885515,10.219091 7.0260912,10.103713 6.9898381,10.054487 6.9297595,9.9727992 6.9247639,9.9226149 6.9708186,9.7717115 7.0549327,9.4961021 7.1550648,9.342598 7.3497113,9.1684568 7.4517663,9.0771604 7.5544414,9.0006006 7.5770572,8.9987905 7.5997399,8.9969987 7.4466344,8.9512529 7.2171045,8.9045325 6.9875728,8.8577317 6.651844,8.7596892 6.4782365,8.697174 6.1608228,8.5828884 5.7322746,8.3429673 5.5688744,8.1693268 5.5619955,8.1619624 5.5560431,8.1570117 5.549855,8.1505171 5.7839425,7.2226747 6.4408613,6.4622118 7.3117262,6.0956802 7.4939329,6.0189877 7.6817856,5.9663728 7.8800736,5.9260133 7.9788299,5.9059261 8.0812064,5.8986264 8.1831914,5.8883103 Z m 2.841735,1.4138787 c 0.07119,0.043793 0.340045,0.6225892 0.416787,0.9048818 0.09908,0.3644807 0.0919,0.9952201 0,1.3573241 -0.03499,0.1378064 -0.07981,0.2667289 -0.09472,0.2827756 -0.0149,0.016054 -0.06899,-0.076331 -0.132623,-0.188518 C 11.15097,9.5464735 10.947756,9.3081214 10.778864,9.1307946 10.291365,8.618915 10.214706,8.3516429 10.418913,7.9431368 10.521885,7.7371304 10.970042,7.2683356 11.025148,7.3021783 Z"
     fill="#333333"
     id="path2-0-4"
     style="fill:#000000;fill-opacity:1;stroke:none;stroke-width:0.25672;stroke-dasharray:none;stroke-opacity:0.3;opacity:0.3" />
  <path
     d="m 8.4865318,4.1903373 c -2.3437076,0 -4.243659,1.8906065 -4.243659,4.2227839 0,2.3321778 1.8999514,4.2227838 4.243659,4.2227838 2.3437052,0 4.2436592,-1.890606 4.2436592,-4.2227838 0,-2.3321772 -1.899954,-4.2227839 -4.2436592,-4.2227839 z M 8.183413,5.3591434 c 0.040557,-0.00423 0.0917,0.00241 0.1326235,0 0.00482,0.019312 -0.029536,0.087998 -0.075775,0.1885185 -0.2945464,0.6402704 -0.3112553,1.3901162 -0.037898,1.7909126 0.04947,0.072667 0.094724,0.1418239 0.094724,0.1508145 0,0.00899 -0.053343,0.01881 -0.1136735,0.01881 -0.141604,0 -0.2756086,-0.085879 -0.5494022,-0.3016211 -0.1216246,-0.09584 -0.2797497,-0.1763382 -0.341011,-0.1885226 -0.09619,-0.01913 -0.12183,-0.01074 -0.2462886,0.1131092 -0.1157814,0.115198 -0.1515485,0.1773138 -0.1515485,0.282776 0,0.3999219 0.4771565,0.7178364 1.3640336,0.9048822 1.20441,0.2540127 1.5013156,0.4820731 1.5345353,1.1122508 0.041707,0.7902505 -0.3810782,1.3861405 -1.3071981,1.8474675 -0.1105346,0.05508 -0.1809698,0.07645 -0.2273458,0.09426 -0.020618,-0.0019 -0.036319,0.0019 -0.056803,0 -0.00779,-0.02443 -0.01902,-0.08112 -0.01902,-0.188517 0,-0.419732 -0.1662598,-0.851765 -0.4167804,-1.093399 C 7.6993358,10.026018 7.5110384,9.8885792 7.3497931,9.7892543 7.1885515,9.6899346 7.0260912,9.5745572 6.9898381,9.5253312 6.9297595,9.443643 6.9247639,9.3934587 6.9708186,9.2425553 7.0549327,8.9669459 7.1550648,8.8134418 7.3497113,8.6393006 7.4517663,8.5480042 7.5544414,8.4714444 7.5770572,8.4696343 7.5997399,8.4678425 7.4466344,8.4220967 7.2171045,8.3753763 6.9875728,8.3285755 6.651844,8.230533 6.4782365,8.1680178 6.1608228,8.0537322 5.7322746,7.8138111 5.5688744,7.6401706 5.5619955,7.6328062 5.5560431,7.6278555 5.549855,7.6213609 5.7839425,6.6935185 6.4408613,5.9330556 7.3117262,5.566524 7.4939329,5.4898315 7.6817856,5.4372166 7.8800736,5.3968571 7.9788299,5.3767699 8.0812064,5.3694702 8.1831914,5.3591541 Z m 2.841735,1.4138787 c 0.07119,0.043793 0.340045,0.6225892 0.416787,0.9048818 0.09908,0.3644807 0.0919,0.9952201 0,1.3573241 -0.03499,0.1378064 -0.07981,0.2667289 -0.09472,0.2827756 -0.0149,0.016054 -0.06899,-0.076331 -0.132623,-0.188518 C 11.15097,9.0173173 10.947756,8.7789652 10.778864,8.6016384 10.291365,8.0897588 10.214706,7.8224867 10.418913,7.4139806 10.521885,7.2079742 10.970042,6.7391794 11.025148,6.7730221 Z"
     fill="#333333"
     id="path2-0"
     style="fill:url(#linearGradient10);fill-opacity:1;stroke:none;stroke-width:0.25672;stroke-dasharray:none;stroke-opacity:0.3" />
  <rect
     style="opacity:0.5;fill:none;fill-opacity:0.996424;stroke:url(#linearGradient9);stroke-width:0.566102;stroke-dasharray:none;stroke-opacity:1"
     id="rect1-2-6"
     width="11.574203"
     height="11.508601"
     x="2.729686"
     y="2.6615164"
     rx="2.0246315"
     ry="2.0627522" />
</svg>
