<?xml version="1.0" encoding="UTF-8" standalone="no"?>
<svg
   width="64"
   height="64"
   version="1.1"
   viewBox="0 0 16.933 16.933"
   id="svg7"
   sodipodi:docname="Template 4.svg"
   inkscape:version="1.3.2 (091e20ef0f, 2023-11-25)"
   xmlns:inkscape="http://www.inkscape.org/namespaces/inkscape"
   xmlns:sodipodi="http://sodipodi.sourceforge.net/DTD/sodipodi-0.dtd"
   xmlns:xlink="http://www.w3.org/1999/xlink"
   xmlns="http://www.w3.org/2000/svg"
   xmlns:svg="http://www.w3.org/2000/svg"
   xmlns:rdf="http://www.w3.org/1999/02/22-rdf-syntax-ns#"
   xmlns:cc="http://creativecommons.org/ns#"
   xmlns:dc="http://purl.org/dc/elements/1.1/">
  <sodipodi:namedview
     id="namedview7"
     pagecolor="#9c4444"
     bordercolor="#000000"
     borderopacity="0.25"
     inkscape:showpageshadow="2"
     inkscape:pageopacity="0.0"
     inkscape:pagecheckerboard="0"
     inkscape:deskcolor="#d1d1d1"
     inkscape:zoom="4.3531261"
     inkscape:cx="32.964816"
     inkscape:cy="24.350317"
     inkscape:window-width="1463"
     inkscape:window-height="604"
     inkscape:window-x="199"
     inkscape:window-y="276"
     inkscape:window-maximized="0"
     inkscape:current-layer="svg7"
     showgrid="false" />
  <defs
     id="defs2">
    <linearGradient
       id="linearGradient5"
       inkscape:collect="always">
      <stop
         style="stop-color:#392713;stop-opacity:1;"
         offset="0"
         id="stop2" />
      <stop
         style="stop-color:#eed59e;stop-opacity:1;"
         offset="0.5"
         id="stop3" />
      <stop
         style="stop-color:#beaa8a;stop-opacity:1;"
         offset="1"
         id="stop4" />
    </linearGradient>
    <linearGradient
       id="linearGradient8"
       inkscape:collect="always">
      <stop
         style="stop-color:#1a1a1a;stop-opacity:1;"
         offset="0"
         id="stop8" />
      <stop
         style="stop-color:#ffffff;stop-opacity:0;"
         offset="1"
         id="stop9" />
    </linearGradient>
    <linearGradient
       inkscape:collect="always"
       xlink:href="#linearGradient5"
       id="linearGradient41"
       x1="13.675659"
       y1="16.110115"
       x2="13.728528"
       y2="10.548769"
       gradientUnits="userSpaceOnUse"
       gradientTransform="matrix(2.046153,0,0,2.046153,-18.798306,-18.911347)" />
    <linearGradient
       inkscape:collect="always"
       xlink:href="#linearGradient42"
       id="linearGradient4"
       x1="11.885941"
       y1="16.50819"
       x2="12.026573"
       y2="10.244942"
       gradientUnits="userSpaceOnUse"
       gradientTransform="matrix(2.046153,0,0,2.046153,-18.798306,-18.911347)" />
    <linearGradient
       id="linearGradient42"
       inkscape:collect="always">
      <stop
         style="stop-color:#010101;stop-opacity:1;"
         offset="0"
         id="stop42" />
      <stop
         style="stop-color:#6e6c6d;stop-opacity:1;"
         offset="1"
         id="stop43" />
    </linearGradient>
    <linearGradient
       inkscape:collect="always"
       xlink:href="#linearGradient8"
       id="linearGradient9"
       x1="9.3404646"
       y1="4.1692023"
       x2="9.4279938"
       y2="16.46883"
       gradientUnits="userSpaceOnUse"
       gradientTransform="matrix(1.05,0,0,1.05,-0.50277005,-0.1977751)" />
    <filter
       style="color-interpolation-filters:sRGB;"
       inkscape:label="Blur"
       id="filter2"
       x="-0.14510849"
       y="-0.14612901"
       width="1.290217"
       height="1.292258">
      <feGaussianBlur
         stdDeviation="0.6 0.6"
         result="blur"
         id="feGaussianBlur2" />
    </filter>
    <linearGradient
       inkscape:collect="always"
       xlink:href="#linearGradient5"
       id="linearGradient38"
       x1="40.186897"
       y1="34.600246"
       x2="39.873493"
       y2="14.9428"
       gradientUnits="userSpaceOnUse"
       gradientTransform="matrix(0.23573911,0,0,0.23573911,1.2896045,0.53168473)" />
  </defs>
  <metadata
     id="metadata2">
    <rdf:RDF>
      <cc:Work
         rdf:about="">
        <dc:format>image/svg+xml</dc:format>
        <dc:type
           rdf:resource="http://purl.org/dc/dcmitype/StillImage" />
      </cc:Work>
    </rdf:RDF>
  </metadata>
  <rect
     style="fill:#000000;fill-opacity:0.996424;stroke:#000000;stroke-width:0.911802;stroke-dasharray:none;stroke-opacity:1;filter:url(#filter2)"
     id="rect1-2-3"
     width="13.065404"
     height="12.974159"
     x="1.9816793"
     y="1.9267306"
     rx="2.7149384"
     ry="2.8310909" />
  <rect
     style="fill:url(#linearGradient4);fill-opacity:0.996424;stroke:url(#linearGradient41);stroke-width:0.911802;stroke-dasharray:none;stroke-opacity:1"
     id="rect1-2"
     width="13.065404"
     height="12.974159"
     x="1.9816793"
     y="1.9267306"
     rx="2.7149384"
     ry="2.8310909" />
  <path
     fill="#f5f7fa"
     d="M 11.389497,8.9614567 11.181989,8.5563102 c -0.231924,0.1483653 -0.628633,0.2567839 -1.013138,0.2567839 -1.1352011,0 -1.7516277,-0.5478047 -1.7516277,-1.6034693 0,-1.146965 0.9337944,-2.1284467 2.1849567,-2.1284467 1.098583,0 1.745525,0.5135669 1.745525,1.4322806 0,0.6048665 -0.292956,1.1926139 -0.799522,1.1926139 -0.183098,0 -0.256337,-0.085595 -0.256337,-0.2510768 0,-0.085594 0.01831,-0.245371 0.04272,-0.3766149 l 0.1892,-1.1469653 c -0.1953,-0.1141251 -0.518771,-0.1826012 -0.811728,-0.1826012 -0.744594,0 -1.4952908,0.4736223 -1.4952908,1.5007545 0,0.4964485 0.2624389,0.8958884 0.8971758,0.8958884 0.286851,0 0.543186,-0.1027123 0.714078,-0.3024338 h 0.02442 c 0.08545,0.1768961 0.28075,0.3024338 0.62253,0.3024338 0.854454,0 1.409848,-0.7246996 1.409848,-1.6947688 0,-1.1070207 -0.872763,-1.8260142 -2.203269,-1.8260142 -1.6112527,0 -2.807486,1.1697908 -2.807486,2.6420139 0,1.2211461 0.7690069,1.9972032 2.203267,1.9972032 0.51267,0 1.00093,-0.119833 1.312195,-0.3024346 z M 10.22378,7.7117793 c -0.3173685,0 -0.4699492,-0.1711885 -0.4699492,-0.5535097 0,-0.5706306 0.3845032,-0.9700704 0.8910732,-0.9700704 0.11596,0 0.22582,0.022824 0.299057,0.045651 l -0.140374,0.895888 c -0.0122,0.062769 -0.03051,0.2225453 -0.03051,0.2910202 -0.09155,0.1540705 -0.299059,0.2910213 -0.549291,0.2910213 z"
     id="path42-3-4"
     style="fill:#000000;fill-opacity:1;stroke:none;stroke-width:0.214308;stroke-miterlimit:4;stroke-dasharray:none;stroke-opacity:0.3;opacity:0.3" />
  <path
     fill="#f5f7fa"
     d="M 11.389497,8.4323005 11.181989,8.027154 c -0.231924,0.1483653 -0.628633,0.2567839 -1.013138,0.2567839 -1.1352011,0 -1.7516277,-0.5478047 -1.7516277,-1.6034693 0,-1.146965 0.9337944,-2.1284467 2.1849567,-2.1284467 1.098583,0 1.745525,0.5135669 1.745525,1.4322806 0,0.6048665 -0.292956,1.1926139 -0.799522,1.1926139 -0.183098,0 -0.256337,-0.085595 -0.256337,-0.2510768 0,-0.085594 0.01831,-0.245371 0.04272,-0.3766149 l 0.1892,-1.1469653 c -0.1953,-0.1141251 -0.518771,-0.1826012 -0.811728,-0.1826012 -0.744594,0 -1.4952908,0.4736223 -1.4952908,1.5007545 0,0.4964485 0.2624389,0.8958884 0.8971758,0.8958884 0.286851,0 0.543186,-0.1027123 0.714078,-0.3024338 h 0.02442 c 0.08545,0.1768961 0.28075,0.3024338 0.62253,0.3024338 0.854454,0 1.409848,-0.7246996 1.409848,-1.6947688 0,-1.1070207 -0.872763,-1.8260142 -2.203269,-1.8260142 -1.6112527,0 -2.807486,1.1697907 -2.807486,2.6420139 0,1.221146 0.7690069,1.9972031 2.203267,1.9972031 0.51267,0 1.00093,-0.119833 1.312195,-0.3024346 z M 10.22378,7.1826231 c -0.3173685,0 -0.4699492,-0.1711885 -0.4699492,-0.5535097 0,-0.5706306 0.3845032,-0.9700704 0.8910732,-0.9700704 0.11596,0 0.22582,0.022824 0.299057,0.045651 l -0.140374,0.895888 c -0.0122,0.062769 -0.03051,0.2225453 -0.03051,0.2910202 -0.09155,0.1540705 -0.299059,0.2910213 -0.549291,0.2910213 z"
     id="path42-3"
     style="fill:url(#linearGradient38);fill-opacity:1;stroke:none;stroke-width:0.214308;stroke-miterlimit:4;stroke-dasharray:none;stroke-opacity:0.3" />
  <rect
     style="opacity:0.5;fill:none;fill-opacity:0.996424;stroke:url(#linearGradient9);stroke-width:0.566102;stroke-dasharray:none;stroke-opacity:1"
     id="rect1-2-6"
     width="11.574203"
     height="11.508601"
     x="2.729686"
     y="2.6615164"
     rx="2.0246315"
     ry="2.0627522" />
</svg>
