<?xml version="1.0" encoding="UTF-8" standalone="no"?>
<svg
   width="64"
   height="64"
   version="1.1"
   viewBox="0 0 16.933 16.933"
   id="svg7"
   sodipodi:docname="Template 4.svg"
   inkscape:version="1.3.2 (091e20ef0f, 2023-11-25)"
   xmlns:inkscape="http://www.inkscape.org/namespaces/inkscape"
   xmlns:sodipodi="http://sodipodi.sourceforge.net/DTD/sodipodi-0.dtd"
   xmlns:xlink="http://www.w3.org/1999/xlink"
   xmlns="http://www.w3.org/2000/svg"
   xmlns:svg="http://www.w3.org/2000/svg"
   xmlns:rdf="http://www.w3.org/1999/02/22-rdf-syntax-ns#"
   xmlns:cc="http://creativecommons.org/ns#"
   xmlns:dc="http://purl.org/dc/elements/1.1/">
  <sodipodi:namedview
     id="namedview7"
     pagecolor="#9c4444"
     bordercolor="#000000"
     borderopacity="0.25"
     inkscape:showpageshadow="2"
     inkscape:pageopacity="0.0"
     inkscape:pagecheckerboard="0"
     inkscape:deskcolor="#d1d1d1"
     inkscape:zoom="4.3531261"
     inkscape:cx="32.964816"
     inkscape:cy="24.350317"
     inkscape:window-width="1463"
     inkscape:window-height="604"
     inkscape:window-x="199"
     inkscape:window-y="276"
     inkscape:window-maximized="0"
     inkscape:current-layer="svg7"
     showgrid="false" />
  <defs
     id="defs2">
    <linearGradient
       id="linearGradient5"
       inkscape:collect="always">
      <stop
         style="stop-color:#392713;stop-opacity:1;"
         offset="0"
         id="stop2" />
      <stop
         style="stop-color:#eed59e;stop-opacity:1;"
         offset="0.5"
         id="stop3" />
      <stop
         style="stop-color:#beaa8a;stop-opacity:1;"
         offset="1"
         id="stop4" />
    </linearGradient>
    <linearGradient
       id="linearGradient8"
       inkscape:collect="always">
      <stop
         style="stop-color:#1a1a1a;stop-opacity:1;"
         offset="0"
         id="stop8" />
      <stop
         style="stop-color:#ffffff;stop-opacity:0;"
         offset="1"
         id="stop9" />
    </linearGradient>
    <linearGradient
       inkscape:collect="always"
       xlink:href="#linearGradient5"
       id="linearGradient41"
       x1="13.675659"
       y1="16.110115"
       x2="13.728528"
       y2="10.548769"
       gradientUnits="userSpaceOnUse"
       gradientTransform="matrix(2.046153,0,0,2.046153,-18.798306,-18.911347)" />
    <linearGradient
       inkscape:collect="always"
       xlink:href="#linearGradient42"
       id="linearGradient4"
       x1="11.885941"
       y1="16.50819"
       x2="12.026573"
       y2="10.244942"
       gradientUnits="userSpaceOnUse"
       gradientTransform="matrix(2.046153,0,0,2.046153,-18.798306,-18.911347)" />
    <linearGradient
       id="linearGradient42"
       inkscape:collect="always">
      <stop
         style="stop-color:#010101;stop-opacity:1;"
         offset="0"
         id="stop42" />
      <stop
         style="stop-color:#6e6c6d;stop-opacity:1;"
         offset="1"
         id="stop43" />
    </linearGradient>
    <linearGradient
       inkscape:collect="always"
       xlink:href="#linearGradient8"
       id="linearGradient9"
       x1="9.3404646"
       y1="4.1692023"
       x2="9.4279938"
       y2="16.46883"
       gradientUnits="userSpaceOnUse"
       gradientTransform="matrix(1.05,0,0,1.05,-0.50277005,-0.1977751)" />
    <filter
       style="color-interpolation-filters:sRGB;"
       inkscape:label="Blur"
       id="filter2"
       x="-0.14510849"
       y="-0.14612901"
       width="1.290217"
       height="1.292258">
      <feGaussianBlur
         stdDeviation="0.6 0.6"
         result="blur"
         id="feGaussianBlur2" />
    </filter>
    <linearGradient
       inkscape:collect="always"
       xlink:href="#linearGradient5"
       id="linearGradient42-8"
       x1="33.789196"
       y1="44.874928"
       x2="33.44688"
       y2="18.018093"
       gradientUnits="userSpaceOnUse"
       gradientTransform="matrix(0.23573911,0,0,0.23573911,0.93239593,0.77400645)" />
  </defs>
  <metadata
     id="metadata2">
    <rdf:RDF>
      <cc:Work
         rdf:about="">
        <dc:format>image/svg+xml</dc:format>
        <dc:type
           rdf:resource="http://purl.org/dc/dcmitype/StillImage" />
      </cc:Work>
    </rdf:RDF>
  </metadata>
  <rect
     style="fill:#000000;fill-opacity:0.996424;stroke:#000000;stroke-width:0.911802;stroke-dasharray:none;stroke-opacity:1;filter:url(#filter2)"
     id="rect1-2-3"
     width="13.065404"
     height="12.974159"
     x="1.9816793"
     y="1.9267306"
     rx="2.7149384"
     ry="2.8310909" />
  <rect
     style="fill:url(#linearGradient4);fill-opacity:0.996424;stroke:url(#linearGradient41);stroke-width:0.911802;stroke-dasharray:none;stroke-opacity:1"
     id="rect1-2"
     width="13.065404"
     height="12.974159"
     x="1.9816793"
     y="1.9267306"
     rx="2.7149384"
     ry="2.8310909" />
  <path
     style="fill:#000000;fill-opacity:1;stroke:none;stroke-width:0.259313;stroke-dasharray:none;stroke-dashoffset:2.2;stroke-opacity:0.3;opacity:0.3"
     d="M 5.4559051,11.905939 C 5.072618,11.815937 4.6078957,11.414973 4.4100066,11.003543 4.2483563,10.667461 4.2022593,10.455178 4.2024397,10.047682 4.202567,9.7583707 4.2157496,9.6476997 4.2716247,9.4668805 4.4901268,8.7597687 4.9861214,8.2818796 5.6042306,8.182919 5.7775739,8.155168 5.8558127,8.157294 6.0361091,8.19465 6.1572103,8.219744 6.2797492,8.249632 6.308417,8.261069 6.355275,8.279768 6.360539,8.259279 6.360539,8.057913 c 0,-0.6730397 0.2714215,-1.3316004 0.7446345,-1.8067347 0.3990372,-0.4006565 0.7820055,-0.5856644 1.2789822,-0.6178618 1.1671222,-0.075615 2.1606293,0.9606666 2.2546973,2.3517741 0.0108,0.1597205 0.02264,0.2904007 0.02631,0.2904007 0.0036,0 0.06532,-0.021992 0.137,-0.048874 0.195703,-0.07339 0.618782,-0.065762 0.842758,0.015196 0.517168,0.1869315 0.937957,0.6787961 1.091351,1.2756875 0.07521,0.2926769 0.08047,0.7605692 0.01172,1.0445612 -0.152128,0.628485 -0.604563,1.15278 -1.136575,1.317103 -0.188774,0.0583 -0.268934,0.05977 -3.1169674,0.05685 -1.638108,-0.0016 -2.9739152,-0.01489 -3.038549,-0.03009 z"
     id="path99-4" />
  <path
     style="fill:url(#linearGradient42-8);fill-opacity:1;stroke:none;stroke-width:0.259313;stroke-dasharray:none;stroke-dashoffset:2.2;stroke-opacity:0.3"
     d="M 5.4559051,11.376783 C 5.072618,11.286781 4.6078957,10.885817 4.4100066,10.474387 4.2483563,10.138305 4.2022593,9.9260219 4.2024397,9.5185255 4.202567,9.2292145 4.2157496,9.1185435 4.2716247,8.9377243 4.4901268,8.2306125 4.9861214,7.7527234 5.6042306,7.6537628 c 0.1733433,-0.027751 0.2515821,-0.025625 0.4318785,0.011731 0.1211012,0.025094 0.2436401,0.054982 0.2723079,0.066419 0.046858,0.018699 0.052122,-0.00179 0.052122,-0.203156 0,-0.6730397 0.2714215,-1.3316004 0.7446345,-1.8067347 C 7.5042107,5.3213656 7.887179,5.1363577 8.3841557,5.1041603 9.5512779,5.028545 10.544785,6.0648269 10.638853,7.4559344 c 0.0108,0.1597204 0.02264,0.2904007 0.02631,0.2904007 0.0036,0 0.06532,-0.021992 0.137,-0.048874 0.195703,-0.07339 0.618782,-0.065762 0.842758,0.015196 0.517168,0.1869315 0.937957,0.678796 1.091351,1.2756874 0.07521,0.2926769 0.08047,0.7605692 0.01172,1.0445615 -0.152128,0.628485 -0.604563,1.15278 -1.136575,1.317103 -0.188774,0.0583 -0.268934,0.05977 -3.1169674,0.05685 -1.638108,-0.0016 -2.9739152,-0.01489 -3.038549,-0.03009 z"
     id="path99" />
  <rect
     style="opacity:0.5;fill:none;fill-opacity:0.996424;stroke:url(#linearGradient9);stroke-width:0.566102;stroke-dasharray:none;stroke-opacity:1"
     id="rect1-2-6"
     width="11.574203"
     height="11.508601"
     x="2.729686"
     y="2.6615164"
     rx="2.0246315"
     ry="2.0627522" />
</svg>
