<?xml version="1.0" encoding="UTF-8" standalone="no"?>
<svg
   width="64"
   height="64"
   version="1.1"
   viewBox="0 0 16.933 16.933"
   id="svg7"
   sodipodi:docname="Template 4.svg"
   inkscape:version="1.3.2 (091e20ef0f, 2023-11-25)"
   xmlns:inkscape="http://www.inkscape.org/namespaces/inkscape"
   xmlns:sodipodi="http://sodipodi.sourceforge.net/DTD/sodipodi-0.dtd"
   xmlns:xlink="http://www.w3.org/1999/xlink"
   xmlns="http://www.w3.org/2000/svg"
   xmlns:svg="http://www.w3.org/2000/svg"
   xmlns:rdf="http://www.w3.org/1999/02/22-rdf-syntax-ns#"
   xmlns:cc="http://creativecommons.org/ns#"
   xmlns:dc="http://purl.org/dc/elements/1.1/">
  <sodipodi:namedview
     id="namedview7"
     pagecolor="#9c4444"
     bordercolor="#000000"
     borderopacity="0.25"
     inkscape:showpageshadow="2"
     inkscape:pageopacity="0.0"
     inkscape:pagecheckerboard="0"
     inkscape:deskcolor="#d1d1d1"
     inkscape:zoom="4.3531261"
     inkscape:cx="32.964816"
     inkscape:cy="24.350317"
     inkscape:window-width="1463"
     inkscape:window-height="604"
     inkscape:window-x="199"
     inkscape:window-y="276"
     inkscape:window-maximized="0"
     inkscape:current-layer="svg7"
     showgrid="false" />
  <defs
     id="defs2">
    <linearGradient
       id="linearGradient5"
       inkscape:collect="always">
      <stop
         style="stop-color:#392713;stop-opacity:1;"
         offset="0"
         id="stop2" />
      <stop
         style="stop-color:#eed59e;stop-opacity:1;"
         offset="0.5"
         id="stop3" />
      <stop
         style="stop-color:#beaa8a;stop-opacity:1;"
         offset="1"
         id="stop4" />
    </linearGradient>
    <linearGradient
       id="linearGradient8"
       inkscape:collect="always">
      <stop
         style="stop-color:#1a1a1a;stop-opacity:1;"
         offset="0"
         id="stop8" />
      <stop
         style="stop-color:#ffffff;stop-opacity:0;"
         offset="1"
         id="stop9" />
    </linearGradient>
    <linearGradient
       inkscape:collect="always"
       xlink:href="#linearGradient5"
       id="linearGradient41"
       x1="13.675659"
       y1="16.110115"
       x2="13.728528"
       y2="10.548769"
       gradientUnits="userSpaceOnUse"
       gradientTransform="matrix(2.046153,0,0,2.046153,-18.798306,-18.911347)" />
    <linearGradient
       inkscape:collect="always"
       xlink:href="#linearGradient42"
       id="linearGradient4"
       x1="11.885941"
       y1="16.50819"
       x2="12.026573"
       y2="10.244942"
       gradientUnits="userSpaceOnUse"
       gradientTransform="matrix(2.046153,0,0,2.046153,-18.798306,-18.911347)" />
    <linearGradient
       id="linearGradient42"
       inkscape:collect="always">
      <stop
         style="stop-color:#010101;stop-opacity:1;"
         offset="0"
         id="stop42" />
      <stop
         style="stop-color:#6e6c6d;stop-opacity:1;"
         offset="1"
         id="stop43" />
    </linearGradient>
    <linearGradient
       inkscape:collect="always"
       xlink:href="#linearGradient8"
       id="linearGradient9"
       x1="9.3404646"
       y1="4.1692023"
       x2="9.4279938"
       y2="16.46883"
       gradientUnits="userSpaceOnUse"
       gradientTransform="matrix(1.05,0,0,1.05,-0.50277005,-0.1977751)" />
    <filter
       style="color-interpolation-filters:sRGB;"
       inkscape:label="Blur"
       id="filter2"
       x="-0.14510849"
       y="-0.14612901"
       width="1.290217"
       height="1.292258">
      <feGaussianBlur
         stdDeviation="0.6 0.6"
         result="blur"
         id="feGaussianBlur2" />
    </filter>
    <linearGradient
       inkscape:collect="always"
       xlink:href="#linearGradient5"
       id="linearGradient46"
       x1="31.650537"
       y1="49.42577"
       x2="31.820553"
       y2="13.918395"
       gradientUnits="userSpaceOnUse"
       gradientTransform="matrix(0.23573911,0,0,0.23573911,0.95719086,0.89777084)" />
  </defs>
  <metadata
     id="metadata2">
    <rdf:RDF>
      <cc:Work
         rdf:about="">
        <dc:format>image/svg+xml</dc:format>
        <dc:type
           rdf:resource="http://purl.org/dc/dcmitype/StillImage" />
      </cc:Work>
    </rdf:RDF>
  </metadata>
  <rect
     style="fill:#000000;fill-opacity:0.996424;stroke:#000000;stroke-width:0.911802;stroke-dasharray:none;stroke-opacity:1;filter:url(#filter2)"
     id="rect1-2-3"
     width="13.065404"
     height="12.974159"
     x="1.9816793"
     y="1.9267306"
     rx="2.7149384"
     ry="2.8310909" />
  <rect
     style="fill:url(#linearGradient4);fill-opacity:0.996424;stroke:url(#linearGradient41);stroke-width:0.911802;stroke-dasharray:none;stroke-opacity:1"
     id="rect1-2"
     width="13.065404"
     height="12.974159"
     x="1.9816793"
     y="1.9267306"
     rx="2.7149384"
     ry="2.8310909" />
  <path
     style="fill:#000000;fill-opacity:1;stroke:none;stroke-width:0.282392;stroke-dasharray:none;stroke-dashoffset:2.2;stroke-opacity:0.3;opacity:0.3"
     d="M 5.5152357,13.043498 C 5.2148719,12.962488 4.9598502,12.737039 4.8130617,12.422746 L 4.7221689,12.228134 4.7132815,8.4412858 4.7043942,4.6544383 H 5.4834023 6.262411 l 0.00834,2.2299421 0.00833,2.2299428 1.0347428,-1.9233863 c 0.7756808,-1.4418374 1.0466879,-1.9188044 1.082442,-1.9050841 0.026231,0.010063 0.3294049,0.1934088 0.673716,0.4074276 L 9.6960072,6.0824053 9.6207465,6.2198544 C 9.5793526,6.2954517 9.118836,7.1527846 8.5973749,8.1250392 8.0759139,9.0972943 7.641444,9.9062031 7.6318856,9.9226145 7.5959216,9.9843665 7.7599698,9.8864691 9.4523121,8.8362601 10.406708,8.2439958 11.199522,7.7577541 11.214124,7.7557235 c 0.01461,-0.00202 0.19641,0.3101212 0.404022,0.6936716 0.27786,0.5133304 0.367875,0.7068186 0.341094,0.7331914 -0.02,0.019706 -0.820917,0.5215363 -1.779792,1.1151805 -0.9588762,0.593644 -1.7434105,1.092028 -1.7434105,1.107525 0,0.01565 0.9159749,0.02816 2.0596565,0.02816 h 2.059655 v 0.827103 0.827107 l -3.4462742,-0.0023 C 6.4941731,13.083562 5.6272037,13.073592 5.515238,13.043382 Z M 6.0078048,12.46501 c 0.1787217,-0.100445 0.3041288,-0.35819 0.2755898,-0.566403 -0.043371,-0.31643 -0.2397222,-0.4974 -0.5395065,-0.497245 -0.2122378,1.12e-4 -0.3347438,0.0689 -0.4439433,0.249289 -0.087747,0.144951 -0.1028552,0.446127 -0.029455,0.587203 0.1436731,0.276133 0.4708327,0.376928 0.737315,0.227156 z"
     id="path1-1" />
  <path
     style="fill:url(#linearGradient46);fill-opacity:1;stroke:none;stroke-width:0.282392;stroke-dasharray:none;stroke-dashoffset:2.2;stroke-opacity:0.3"
     d="M 5.5152357,12.514342 C 5.2148719,12.433332 4.9598502,12.207883 4.8130617,11.89359 L 4.7221689,11.698978 4.7132815,7.9121296 4.7043942,4.1252821 H 5.4834023 6.262411 L 6.270754,6.3552242 6.279088,8.585167 7.3138308,6.6617807 C 8.0895116,5.2199433 8.3605187,4.7429763 8.3962728,4.7566966 8.4225039,4.76676 8.7256777,4.9501054 9.0699888,5.1641242 L 9.6960072,5.5532491 9.6207465,5.6906982 C 9.5793526,5.7662955 9.118836,6.6236284 8.5973749,7.595883 8.0759139,8.5681381 7.641444,9.3770469 7.6318856,9.3934583 7.5959216,9.4552103 7.7599698,9.3573129 9.4523121,8.3071039 10.406708,7.7148396 11.199522,7.2285979 11.214124,7.2265673 c 0.01461,-0.00202 0.19641,0.3101212 0.404022,0.6936716 0.27786,0.5133304 0.367875,0.7068186 0.341094,0.7331914 -0.02,0.019706 -0.820917,0.5215363 -1.779792,1.1151801 -0.9588762,0.5936446 -1.7434105,1.0920286 -1.7434105,1.1075256 0,0.01565 0.9159749,0.02816 2.0596565,0.02816 h 2.059655 v 0.827103 0.827107 l -3.4462742,-0.0023 c -2.6149017,-0.0018 -3.4818711,-0.01177 -3.5938368,-0.04198 z m 0.4925691,-0.578488 c 0.1787217,-0.100445 0.3041288,-0.35819 0.2755898,-0.566403 -0.043371,-0.31643 -0.2397222,-0.4974 -0.5395065,-0.497245 -0.2122378,1.12e-4 -0.3347438,0.0689 -0.4439433,0.249289 -0.087747,0.144951 -0.1028552,0.446127 -0.029455,0.587203 0.1436731,0.276133 0.4708327,0.376928 0.737315,0.227156 z"
     id="path1" />
  <rect
     style="opacity:0.5;fill:none;fill-opacity:0.996424;stroke:url(#linearGradient9);stroke-width:0.566102;stroke-dasharray:none;stroke-opacity:1"
     id="rect1-2-6"
     width="11.574203"
     height="11.508601"
     x="2.729686"
     y="2.6615164"
     rx="2.0246315"
     ry="2.0627522" />
</svg>
