<?xml version="1.0" encoding="UTF-8" standalone="no"?>
<svg
   width="64"
   height="64"
   version="1.1"
   viewBox="0 0 16.933 16.933"
   id="svg7"
   sodipodi:docname="Template 4.svg"
   inkscape:version="1.3.2 (091e20ef0f, 2023-11-25)"
   xmlns:inkscape="http://www.inkscape.org/namespaces/inkscape"
   xmlns:sodipodi="http://sodipodi.sourceforge.net/DTD/sodipodi-0.dtd"
   xmlns:xlink="http://www.w3.org/1999/xlink"
   xmlns="http://www.w3.org/2000/svg"
   xmlns:svg="http://www.w3.org/2000/svg"
   xmlns:rdf="http://www.w3.org/1999/02/22-rdf-syntax-ns#"
   xmlns:cc="http://creativecommons.org/ns#"
   xmlns:dc="http://purl.org/dc/elements/1.1/">
  <sodipodi:namedview
     id="namedview7"
     pagecolor="#9c4444"
     bordercolor="#000000"
     borderopacity="0.25"
     inkscape:showpageshadow="2"
     inkscape:pageopacity="0.0"
     inkscape:pagecheckerboard="0"
     inkscape:deskcolor="#d1d1d1"
     inkscape:zoom="4.3531261"
     inkscape:cx="32.964816"
     inkscape:cy="24.350317"
     inkscape:window-width="1463"
     inkscape:window-height="604"
     inkscape:window-x="199"
     inkscape:window-y="276"
     inkscape:window-maximized="0"
     inkscape:current-layer="svg7"
     showgrid="false" />
  <defs
     id="defs2">
    <linearGradient
       id="linearGradient5"
       inkscape:collect="always">
      <stop
         style="stop-color:#392713;stop-opacity:1;"
         offset="0"
         id="stop2" />
      <stop
         style="stop-color:#eed59e;stop-opacity:1;"
         offset="0.5"
         id="stop3" />
      <stop
         style="stop-color:#beaa8a;stop-opacity:1;"
         offset="1"
         id="stop4" />
    </linearGradient>
    <linearGradient
       id="linearGradient8"
       inkscape:collect="always">
      <stop
         style="stop-color:#1a1a1a;stop-opacity:1;"
         offset="0"
         id="stop8" />
      <stop
         style="stop-color:#ffffff;stop-opacity:0;"
         offset="1"
         id="stop9" />
    </linearGradient>
    <linearGradient
       inkscape:collect="always"
       xlink:href="#linearGradient5"
       id="linearGradient41"
       x1="13.675659"
       y1="16.110115"
       x2="13.728528"
       y2="10.548769"
       gradientUnits="userSpaceOnUse"
       gradientTransform="matrix(2.046153,0,0,2.046153,-18.798306,-18.911347)" />
    <linearGradient
       inkscape:collect="always"
       xlink:href="#linearGradient42"
       id="linearGradient4"
       x1="11.885941"
       y1="16.50819"
       x2="12.026573"
       y2="10.244942"
       gradientUnits="userSpaceOnUse"
       gradientTransform="matrix(2.046153,0,0,2.046153,-18.798306,-18.911347)" />
    <linearGradient
       id="linearGradient42"
       inkscape:collect="always">
      <stop
         style="stop-color:#010101;stop-opacity:1;"
         offset="0"
         id="stop42" />
      <stop
         style="stop-color:#6e6c6d;stop-opacity:1;"
         offset="1"
         id="stop43" />
    </linearGradient>
    <linearGradient
       inkscape:collect="always"
       xlink:href="#linearGradient8"
       id="linearGradient9"
       x1="9.3404646"
       y1="4.1692023"
       x2="9.4279938"
       y2="16.46883"
       gradientUnits="userSpaceOnUse"
       gradientTransform="matrix(1.05,0,0,1.05,-0.50277005,-0.1977751)" />
    <filter
       style="color-interpolation-filters:sRGB;"
       inkscape:label="Blur"
       id="filter2"
       x="-0.14510849"
       y="-0.14612901"
       width="1.290217"
       height="1.292258">
      <feGaussianBlur
         stdDeviation="0.6 0.6"
         result="blur"
         id="feGaussianBlur2" />
    </filter>
    <linearGradient
       inkscape:collect="always"
       xlink:href="#linearGradient5"
       id="linearGradient52"
       x1="33.118103"
       y1="46.352936"
       x2="33.358276"
       y2="18.220816"
       gradientUnits="userSpaceOnUse"
       gradientTransform="matrix(0.23573911,0,0,0.23573911,0.91485371,0.86176931)" />
  </defs>
  <metadata
     id="metadata2">
    <rdf:RDF>
      <cc:Work
         rdf:about="">
        <dc:format>image/svg+xml</dc:format>
        <dc:type
           rdf:resource="http://purl.org/dc/dcmitype/StillImage" />
      </cc:Work>
    </rdf:RDF>
  </metadata>
  <rect
     style="fill:#000000;fill-opacity:0.996424;stroke:#000000;stroke-width:0.911802;stroke-dasharray:none;stroke-opacity:1;filter:url(#filter2)"
     id="rect1-2-3"
     width="13.065404"
     height="12.974159"
     x="1.9816793"
     y="1.9267306"
     rx="2.7149384"
     ry="2.8310909" />
  <rect
     style="fill:url(#linearGradient4);fill-opacity:0.996424;stroke:url(#linearGradient41);stroke-width:0.911802;stroke-dasharray:none;stroke-opacity:1"
     id="rect1-2"
     width="13.065404"
     height="12.974159"
     x="1.9816793"
     y="1.9267306"
     rx="2.7149384"
     ry="2.8310909" />
  <path
     style="color:#444444;fill:#000000;fill-opacity:1;stroke:none;stroke-width:0.259313;stroke-dasharray:none;stroke-opacity:0.3;opacity:0.3"
     class="ColorScheme-Text"
     d="m 5.4149211,5.6327766 c 0,0 -1.1289362,0 -1.1289362,1.1289364 v 4.515742 c 0,1.128938 1.1289362,1.128938 1.1289362,1.128938 h 6.2091469 c 0,0 1.128937,0 1.128937,-1.128938 V 6.761713 c 0,-1.1289364 -1.128937,-1.1289364 -1.128937,-1.1289364 z m 0.141117,1.1289364 h 0.8467023 c 0.078178,0 0.1411162,0.062938 0.1411162,0.1411173 V 7.749532 c 0,0.078178 -0.062938,0.1411167 -0.1411162,0.1411167 H 5.5560381 c -0.078178,0 -0.141117,-0.062938 -0.141117,-0.1411167 V 6.9028303 c 0,-0.078178 0.062939,-0.1411173 0.141117,-0.1411173 z m 1.6934041,0 H 8.096144 c 0.078178,0 0.1411169,0.062938 0.1411169,0.1411173 V 7.749532 c 0,0.078178 -0.062938,0.1411167 -0.1411169,0.1411167 H 7.2494422 c -0.078178,0 -0.1411173,-0.062938 -0.1411173,-0.1411167 V 6.9028303 c 0,-0.078178 0.062938,-0.1411173 0.1411173,-0.1411173 z m 1.6934039,0 h 0.8467014 c 0.078181,0 0.1411178,0.062938 0.1411178,0.1411173 V 7.749532 c 0,0.078178 -0.062937,0.1411167 -0.1411178,0.1411167 H 8.9428461 c -0.078178,0 -0.1411168,-0.062938 -0.1411168,-0.1411167 V 6.9028303 c 0,-0.078178 0.062937,-0.1411173 0.1411168,-0.1411173 z m 1.6934029,0 h 0.846703 c 0.07818,0 0.141116,0.062938 0.141116,0.1411173 V 7.749532 c 0,0.078178 -0.06295,0.1411167 -0.141116,0.1411167 h -0.846703 c -0.07818,0 -0.141116,-0.062938 -0.141116,-0.1411167 V 6.9028303 c 0,-0.078178 0.06295,-0.1411173 0.141116,-0.1411173 z M 5.5560381,8.4551171 h 0.8467023 c 0.078178,0 0.1411162,0.062938 0.1411162,0.141117 v 0.8467021 c 0,0.078179 -0.062938,0.1411166 -0.1411162,0.1411166 H 5.5560381 c -0.078178,0 -0.141117,-0.062938 -0.141117,-0.1411166 V 8.5962341 c 0,-0.078179 0.062939,-0.141117 0.141117,-0.141117 z m 1.6934041,0 H 8.096144 c 0.078178,0 0.1411169,0.062938 0.1411169,0.141117 v 0.8467021 c 0,0.078179 -0.062938,0.1411166 -0.1411169,0.1411166 H 7.2494422 c -0.078178,0 -0.1411173,-0.062938 -0.1411173,-0.1411166 V 8.5962341 c 0,-0.078179 0.062938,-0.141117 0.1411173,-0.141117 z m 1.6934039,0 h 0.8467014 c 0.078181,0 0.1411178,0.062938 0.1411178,0.141117 v 0.8467021 c 0,0.078179 -0.062937,0.1411166 -0.1411178,0.1411166 H 8.9428461 c -0.078178,0 -0.1411168,-0.062938 -0.1411168,-0.1411166 V 8.5962341 c 0,-0.078179 0.062937,-0.141117 0.1411168,-0.141117 z m 1.6934029,0 h 0.846703 c 0.07818,0 0.141116,0.062938 0.141116,0.141117 v 0.8467021 c 0,0.078179 -0.06295,0.1411166 -0.141116,0.1411166 h -0.846703 c -0.07818,0 -0.141116,-0.062938 -0.141116,-0.1411166 V 8.5962341 c 0,-0.078179 0.06295,-0.141117 0.141116,-0.141117 z M 6.6849741,10.148521 h 3.6690419 c 0.07818,0 0.141117,0.06294 0.141117,0.141117 v 0.846701 c 0,0.07818 -0.06295,0.141116 -0.141117,0.141116 H 6.6849741 c -0.078178,0 -0.1411175,-0.06293 -0.1411175,-0.141116 v -0.846701 c 0,-0.07818 0.062939,-0.141117 0.1411175,-0.141117 z"
     id="path5-3" />
  <path
     style="color:#444444;fill:url(#linearGradient52);fill-opacity:1;stroke:none;stroke-width:0.259313;stroke-dasharray:none;stroke-opacity:0.3"
     class="ColorScheme-Text"
     d="m 5.4149211,5.1036204 c 0,0 -1.1289362,0 -1.1289362,1.1289364 v 4.5157422 c 0,1.128938 1.1289362,1.128938 1.1289362,1.128938 h 6.2091469 c 0,0 1.128937,0 1.128937,-1.128938 V 6.2325568 c 0,-1.1289364 -1.128937,-1.1289364 -1.128937,-1.1289364 z m 0.141117,1.1289364 h 0.8467023 c 0.078178,0 0.1411162,0.062938 0.1411162,0.1411173 v 0.8467017 c 0,0.078178 -0.062938,0.1411167 -0.1411162,0.1411167 H 5.5560381 c -0.078178,0 -0.141117,-0.062938 -0.141117,-0.1411167 V 6.3736741 c 0,-0.078178 0.062939,-0.1411173 0.141117,-0.1411173 z m 1.6934041,0 H 8.096144 c 0.078178,0 0.1411169,0.062938 0.1411169,0.1411173 v 0.8467017 c 0,0.078178 -0.062938,0.1411167 -0.1411169,0.1411167 H 7.2494422 c -0.078178,0 -0.1411173,-0.062938 -0.1411173,-0.1411167 V 6.3736741 c 0,-0.078178 0.062938,-0.1411173 0.1411173,-0.1411173 z m 1.6934039,0 h 0.8467014 c 0.078181,0 0.1411178,0.062938 0.1411178,0.1411173 v 0.8467017 c 0,0.078178 -0.062937,0.1411167 -0.1411178,0.1411167 H 8.9428461 c -0.078178,0 -0.1411168,-0.062938 -0.1411168,-0.1411167 V 6.3736741 c 0,-0.078178 0.062937,-0.1411173 0.1411168,-0.1411173 z m 1.6934029,0 h 0.846703 c 0.07818,0 0.141116,0.062938 0.141116,0.1411173 v 0.8467017 c 0,0.078178 -0.06295,0.1411167 -0.141116,0.1411167 h -0.846703 c -0.07818,0 -0.141116,-0.062938 -0.141116,-0.1411167 V 6.3736741 c 0,-0.078178 0.06295,-0.1411173 0.141116,-0.1411173 z M 5.5560381,7.9259609 h 0.8467023 c 0.078178,0 0.1411162,0.062938 0.1411162,0.141117 V 8.91378 c 0,0.078179 -0.062938,0.1411166 -0.1411162,0.1411166 H 5.5560381 c -0.078178,0 -0.141117,-0.062938 -0.141117,-0.1411166 V 8.0670779 c 0,-0.078179 0.062939,-0.141117 0.141117,-0.141117 z m 1.6934041,0 H 8.096144 c 0.078178,0 0.1411169,0.062938 0.1411169,0.141117 V 8.91378 c 0,0.078179 -0.062938,0.1411166 -0.1411169,0.1411166 H 7.2494422 c -0.078178,0 -0.1411173,-0.062938 -0.1411173,-0.1411166 V 8.0670779 c 0,-0.078179 0.062938,-0.141117 0.1411173,-0.141117 z m 1.6934039,0 h 0.8467014 c 0.078181,0 0.1411178,0.062938 0.1411178,0.141117 V 8.91378 c 0,0.078179 -0.062937,0.1411166 -0.1411178,0.1411166 H 8.9428461 c -0.078178,0 -0.1411168,-0.062938 -0.1411168,-0.1411166 V 8.0670779 c 0,-0.078179 0.062937,-0.141117 0.1411168,-0.141117 z m 1.6934029,0 h 0.846703 c 0.07818,0 0.141116,0.062938 0.141116,0.141117 V 8.91378 c 0,0.078179 -0.06295,0.1411166 -0.141116,0.1411166 h -0.846703 c -0.07818,0 -0.141116,-0.062938 -0.141116,-0.1411166 V 8.0670779 c 0,-0.078179 0.06295,-0.141117 0.141116,-0.141117 z M 6.6849741,9.6193648 h 3.6690419 c 0.07818,0 0.141117,0.062938 0.141117,0.1411165 v 0.8467017 c 0,0.07818 -0.06295,0.141116 -0.141117,0.141116 H 6.6849741 c -0.078178,0 -0.1411175,-0.06293 -0.1411175,-0.141116 V 9.7604813 c 0,-0.078181 0.062939,-0.1411165 0.1411175,-0.1411165 z"
     id="path5" />
  <rect
     style="opacity:0.5;fill:none;fill-opacity:0.996424;stroke:url(#linearGradient9);stroke-width:0.566102;stroke-dasharray:none;stroke-opacity:1"
     id="rect1-2-6"
     width="11.574203"
     height="11.508601"
     x="2.729686"
     y="2.6615164"
     rx="2.0246315"
     ry="2.0627522" />
</svg>
