<?xml version="1.0" encoding="UTF-8" standalone="no"?>
<svg
   width="64"
   height="64"
   version="1.1"
   viewBox="0 0 16.933 16.933"
   id="svg7"
   sodipodi:docname="Template 4.svg"
   inkscape:version="1.3.2 (091e20ef0f, 2023-11-25)"
   xmlns:inkscape="http://www.inkscape.org/namespaces/inkscape"
   xmlns:sodipodi="http://sodipodi.sourceforge.net/DTD/sodipodi-0.dtd"
   xmlns:xlink="http://www.w3.org/1999/xlink"
   xmlns="http://www.w3.org/2000/svg"
   xmlns:svg="http://www.w3.org/2000/svg"
   xmlns:rdf="http://www.w3.org/1999/02/22-rdf-syntax-ns#"
   xmlns:cc="http://creativecommons.org/ns#"
   xmlns:dc="http://purl.org/dc/elements/1.1/">
  <sodipodi:namedview
     id="namedview7"
     pagecolor="#9c4444"
     bordercolor="#000000"
     borderopacity="0.25"
     inkscape:showpageshadow="2"
     inkscape:pageopacity="0.0"
     inkscape:pagecheckerboard="0"
     inkscape:deskcolor="#d1d1d1"
     inkscape:zoom="4.3531261"
     inkscape:cx="32.964816"
     inkscape:cy="24.350317"
     inkscape:window-width="1463"
     inkscape:window-height="604"
     inkscape:window-x="199"
     inkscape:window-y="276"
     inkscape:window-maximized="0"
     inkscape:current-layer="svg7"
     showgrid="false" />
  <defs
     id="defs2">
    <linearGradient
       id="linearGradient5"
       inkscape:collect="always">
      <stop
         style="stop-color:#392713;stop-opacity:1;"
         offset="0"
         id="stop2" />
      <stop
         style="stop-color:#eed59e;stop-opacity:1;"
         offset="0.5"
         id="stop3" />
      <stop
         style="stop-color:#beaa8a;stop-opacity:1;"
         offset="1"
         id="stop4" />
    </linearGradient>
    <linearGradient
       id="linearGradient8"
       inkscape:collect="always">
      <stop
         style="stop-color:#1a1a1a;stop-opacity:1;"
         offset="0"
         id="stop8" />
      <stop
         style="stop-color:#ffffff;stop-opacity:0;"
         offset="1"
         id="stop9" />
    </linearGradient>
    <linearGradient
       inkscape:collect="always"
       xlink:href="#linearGradient5"
       id="linearGradient41"
       x1="13.675659"
       y1="16.110115"
       x2="13.728528"
       y2="10.548769"
       gradientUnits="userSpaceOnUse"
       gradientTransform="matrix(2.046153,0,0,2.046153,-18.798306,-18.911347)" />
    <linearGradient
       inkscape:collect="always"
       xlink:href="#linearGradient42"
       id="linearGradient4"
       x1="11.885941"
       y1="16.50819"
       x2="12.026573"
       y2="10.244942"
       gradientUnits="userSpaceOnUse"
       gradientTransform="matrix(2.046153,0,0,2.046153,-18.798306,-18.911347)" />
    <linearGradient
       id="linearGradient42"
       inkscape:collect="always">
      <stop
         style="stop-color:#010101;stop-opacity:1;"
         offset="0"
         id="stop42" />
      <stop
         style="stop-color:#6e6c6d;stop-opacity:1;"
         offset="1"
         id="stop43" />
    </linearGradient>
    <linearGradient
       inkscape:collect="always"
       xlink:href="#linearGradient8"
       id="linearGradient9"
       x1="9.3404646"
       y1="4.1692023"
       x2="9.4279938"
       y2="16.46883"
       gradientUnits="userSpaceOnUse"
       gradientTransform="matrix(1.05,0,0,1.05,-0.50277005,-0.1977751)" />
    <filter
       style="color-interpolation-filters:sRGB;"
       inkscape:label="Blur"
       id="filter2"
       x="-0.14510849"
       y="-0.14612901"
       width="1.290217"
       height="1.292258">
      <feGaussianBlur
         stdDeviation="0.6 0.6"
         result="blur"
         id="feGaussianBlur2" />
    </filter>
    <linearGradient
       inkscape:collect="always"
       xlink:href="#linearGradient5"
       id="linearGradient34"
       x1="33.342896"
       y1="49.411037"
       x2="33.367603"
       y2="14.73226"
       gradientUnits="userSpaceOnUse"
       gradientTransform="matrix(0.23573911,0,0,0.23573911,0.9397462,0.82060973)" />
  </defs>
  <metadata
     id="metadata2">
    <rdf:RDF>
      <cc:Work
         rdf:about="">
        <dc:format>image/svg+xml</dc:format>
        <dc:type
           rdf:resource="http://purl.org/dc/dcmitype/StillImage" />
      </cc:Work>
    </rdf:RDF>
  </metadata>
  <rect
     style="fill:#000000;fill-opacity:0.996424;stroke:#000000;stroke-width:0.911802;stroke-dasharray:none;stroke-opacity:1;filter:url(#filter2)"
     id="rect1-2-3"
     width="13.065404"
     height="12.974159"
     x="1.9816793"
     y="1.9267306"
     rx="2.7149384"
     ry="2.8310909" />
  <rect
     style="fill:url(#linearGradient4);fill-opacity:0.996424;stroke:url(#linearGradient41);stroke-width:0.911802;stroke-dasharray:none;stroke-opacity:1"
     id="rect1-2"
     width="13.065404"
     height="12.974159"
     x="1.9816793"
     y="1.9267306"
     rx="2.7149384"
     ry="2.8310909" />
  <path
     style="fill:#000000;fill-opacity:1;stroke:none;stroke-width:0.282392;stroke-dasharray:none;stroke-opacity:0.3;opacity:0.3"
     d="m 6.9827304,4.7439001 c -0.2058427,3.6e-6 -0.4181908,0.019199 -0.6354635,0.057044 -0.2172727,0.035952 -0.4409156,0.090818 -0.6719109,0.1646098 v 0.4824228 c 0.1921174,-0.087038 0.3924726,-0.1528689 0.6005996,-0.196392 0.2081282,-0.043518 0.4222377,-0.065191 0.6418021,-0.065192 0.3453504,2.7e-6 0.6128169,0.066388 0.8026487,0.1988365 0.192114,0.1305624 0.2876189,0.343982 0.2876215,0.5842859 v 0.053784 H 7.123768 c -0.5740628,2e-6 -1.0074048,0.088087 -1.2978657,0.2697331 -0.2881757,0.1816494 -0.4318326,0.4230581 -0.4318298,0.7806765 -2.8e-6,0.3065318 0.1152578,0.5523178 0.346256,0.7358579 0.2332842,0.1816491 0.5471326,0.2721781 0.9405168,0.2721781 0.311044,0 0.5741878,-0.045266 0.7891791,-0.1360889 0.2149837,-0.092716 0.3939139,-0.2356371 0.5380035,-0.4286386 v 0.5647283 h 0.631502 V 6.3533345 C 8.6395237,5.8689418 8.5027512,5.3400582 8.228301,5.101643 7.9538478,4.8632327 7.5384934,4.7439037 6.9827304,4.7439001 Z M 9.4508939,5.5783618 V 10.167897 H 10.66794 V 9.6145782 c 0.173785,0.4309668 0.409208,0.4882828 0.805818,0.5533188 0.356807,0 0.852227,-0.157692 1.081486,-0.474273 0.229249,-0.3185113 0.343873,-0.7566133 0.343879,-1.2565809 -6e-6,-0.4999647 -0.11463,-0.8250961 -0.343879,-1.1416802 -0.229259,-0.3185096 -0.724679,-0.4775304 -1.081486,-0.4775335 -0.455633,0.0068 -0.646977,0.2354372 -0.805818,0.5525048 V 5.5783618 Z M 7.4137674,6.3019954 H 8.0983562 V 6.4576427 C 8.0983528,6.9150008 7.9826025,7.1153819 7.7505153,7.3923367 7.5209191,7.6667503 7.2155886,7.8038631 6.8337685,7.8038624 6.556757,7.8038631 6.336747,7.7311136 6.174535,7.5862835 6.0148168,7.4389138 5.9352461,7.2412251 5.9352461,6.9922187 c 0,-0.3125251 0.1070709,-0.3666899 0.3216938,-0.4962762 0.214616,-0.1295818 0.6003097,-0.1939442 1.1568275,-0.1939471 z m 3.8650736,1.3625191 c 0.196834,3.1e-6 0.346562,0.071022 0.44926,0.2135044 0.104406,0.1424859 0.156884,0.3495589 0.156886,0.6209562 -2e-6,0.2714001 -0.05249,0.4784733 -0.156886,0.6209566 -0.102698,0.1424849 -0.252426,0.2135049 -0.44926,0.2135045 -0.196839,4e-7 -0.347897,-0.071018 -0.454014,-0.2135045 C 10.720409,8.9757524 10.667938,8.7686783 10.66794,8.4989751 10.667938,8.2292744 10.72041,8.02295 10.824827,7.8804633 10.930951,7.7362856 11.082002,7.6645176 11.278841,7.6645145 Z M 6.7180862,8.916206 c -0.612413,3.3e-6 -1.1465179,0.1899986 -1.6005427,0.5696171 -0.451393,0.3771453 -0.7440905,0.8822019 -0.8787142,1.5149059 -0.1319856,0.630226 -0.052663,1.136062 0.2377042,1.518165 0.2903674,0.379624 0.7417097,0.569617 1.3541222,0.569617 0.464584,0 0.8670117,-0.110024 1.2075385,-0.330851 0.3405155,-0.220825 0.6075678,-0.543041 0.8002719,-0.964846 H 7.2521284 C 7.1174995,12.102966 6.939817,12.335724 6.7180862,12.489557 6.4989886,12.643393 6.2319367,12.720176 5.9178148,12.720175 5.5218578,12.720176 5.253481,12.576096 5.1135816,12.288276 4.9763165,12.000457 4.9691823,11.571404 5.0906018,11.000729 5.2120258,10.430055 5.4029314,10.001781 5.6642616,9.716441 5.92823,9.4286264 6.2574158,9.2845453 6.650735,9.2845422 c 0.3457965,3.1e-6 0.5935475,0.079975 0.7440146,0.238767 0.1531001,0.1588002 0.2205217,0.4121256 0.2020487,0.7594898 H 8.0199118 L 8.233846,9.2698739 C 7.9936372,9.1507803 7.7472017,9.0629168 7.4937941,9.0058453 7.2430225,8.9463016 6.9846922,8.9162093 6.7180855,8.916206 Z"
     id="path8-2-0" />
  <path
     style="fill:url(#linearGradient34);fill-opacity:1;stroke:none;stroke-width:0.282392;stroke-dasharray:none;stroke-opacity:0.3"
     d="m 6.9827304,4.2147439 c -0.2058427,3.6e-6 -0.4181908,0.019199 -0.6354635,0.057044 -0.2172727,0.035952 -0.4409156,0.090818 -0.6719109,0.1646098 v 0.4824228 c 0.1921174,-0.087038 0.3924726,-0.1528689 0.6005996,-0.196392 0.2081282,-0.043518 0.4222377,-0.065191 0.6418021,-0.065192 0.3453504,2.7e-6 0.6128169,0.066388 0.8026487,0.1988365 0.192114,0.1305624 0.2876189,0.343982 0.2876215,0.5842859 v 0.053784 H 7.123768 c -0.5740628,2e-6 -1.0074048,0.088087 -1.2978657,0.2697331 -0.2881757,0.1816494 -0.4318326,0.4230581 -0.4318298,0.7806765 -2.8e-6,0.3065318 0.1152578,0.5523178 0.346256,0.7358579 0.2332842,0.1816491 0.5471326,0.2721781 0.9405168,0.2721781 0.311044,0 0.5741878,-0.045266 0.7891791,-0.1360889 C 7.6850081,7.3237836 7.8639383,7.1808625 8.0080279,6.987861 v 0.5647283 h 0.631502 V 5.8241783 C 8.6395237,5.3397856 8.5027512,4.810902 8.228301,4.5724868 7.9538478,4.3340765 7.5384934,4.2147475 6.9827304,4.2147439 Z M 9.4508939,5.0492056 V 9.6387409 H 10.66794 V 9.085422 c 0.173785,0.4309663 0.409208,0.4882823 0.805818,0.5533189 0.356807,0 0.852227,-0.1576917 1.081486,-0.4742731 0.229249,-0.3185113 0.343873,-0.7566133 0.343879,-1.2565809 -6e-6,-0.4999647 -0.11463,-0.8250961 -0.343879,-1.1416802 C 12.325985,6.4476971 11.830565,6.2886763 11.473758,6.2886732 11.018125,6.2954772 10.826781,6.5241104 10.66794,6.841178 V 5.0492056 Z M 7.4137674,5.7728392 H 8.0983562 V 5.9284865 C 8.0983528,6.3858446 7.9826025,6.5862257 7.7505153,6.8631805 7.5209191,7.1375941 7.2155886,7.2747069 6.8337685,7.2747062 6.556757,7.2747069 6.336747,7.2019574 6.174535,7.0571273 6.0148168,6.9097576 5.9352461,6.7120689 5.9352461,6.4630625 c 0,-0.3125251 0.1070709,-0.3666899 0.3216938,-0.4962762 0.214616,-0.1295818 0.6003097,-0.1939442 1.1568275,-0.1939471 z m 3.8650736,1.3625191 c 0.196834,3.1e-6 0.346562,0.071022 0.44926,0.2135044 0.104406,0.1424859 0.156884,0.3495589 0.156886,0.6209562 -2e-6,0.2714001 -0.05249,0.4784733 -0.156886,0.6209566 -0.102698,0.1424849 -0.252426,0.2135049 -0.44926,0.2135045 -0.196839,4e-7 -0.347897,-0.071018 -0.454014,-0.2135045 -0.104418,-0.1441793 -0.156889,-0.3512534 -0.156887,-0.6209566 -2e-6,-0.2697007 0.05247,-0.4760251 0.156887,-0.6185118 0.106124,-0.1441777 0.257175,-0.2159457 0.454014,-0.2159488 z M 6.7180862,8.3870498 c -0.612413,3.3e-6 -1.1465179,0.1899986 -1.6005427,0.5696171 -0.451393,0.3771453 -0.7440905,0.8822019 -0.8787142,1.5149061 -0.1319856,0.630226 -0.052663,1.136062 0.2377042,1.518165 0.2903674,0.379624 0.7417097,0.569617 1.3541222,0.569617 0.464584,0 0.8670117,-0.110024 1.2075385,-0.330851 0.3405155,-0.220825 0.6075678,-0.543041 0.8002719,-0.964846 H 7.2521284 C 7.1174995,11.57381 6.939817,11.806568 6.7180862,11.960401 6.4989886,12.114237 6.2319367,12.19102 5.9178148,12.191019 5.5218578,12.19102 5.253481,12.04694 5.1135816,11.75912 4.9763165,11.471301 4.9691823,11.042248 5.0906018,10.471573 5.2120258,9.9008986 5.4029314,9.4726248 5.6642616,9.1872848 5.92823,8.8994702 6.2574158,8.7553891 6.650735,8.755386 c 0.3457965,3.1e-6 0.5935475,0.079975 0.7440146,0.238767 0.1531001,0.1588002 0.2205217,0.4121256 0.2020487,0.7594901 H 8.0199118 L 8.233846,8.7407177 C 7.9936372,8.6216241 7.7472017,8.5337606 7.4937941,8.4766891 7.2430225,8.4171454 6.9846922,8.3870531 6.7180855,8.3870498 Z"
     id="path8-2" />
  <rect
     style="opacity:0.5;fill:none;fill-opacity:0.996424;stroke:url(#linearGradient9);stroke-width:0.566102;stroke-dasharray:none;stroke-opacity:1"
     id="rect1-2-6"
     width="11.574203"
     height="11.508601"
     x="2.729686"
     y="2.6615164"
     rx="2.0246315"
     ry="2.0627522" />
</svg>
