<?xml version="1.0" encoding="UTF-8" standalone="no"?>
<svg
   width="64"
   height="64"
   version="1.1"
   viewBox="0 0 16.933 16.933"
   id="svg7"
   sodipodi:docname="Template 4.svg"
   inkscape:version="1.3.2 (091e20ef0f, 2023-11-25)"
   xmlns:inkscape="http://www.inkscape.org/namespaces/inkscape"
   xmlns:sodipodi="http://sodipodi.sourceforge.net/DTD/sodipodi-0.dtd"
   xmlns:xlink="http://www.w3.org/1999/xlink"
   xmlns="http://www.w3.org/2000/svg"
   xmlns:svg="http://www.w3.org/2000/svg"
   xmlns:rdf="http://www.w3.org/1999/02/22-rdf-syntax-ns#"
   xmlns:cc="http://creativecommons.org/ns#"
   xmlns:dc="http://purl.org/dc/elements/1.1/">
  <sodipodi:namedview
     id="namedview7"
     pagecolor="#9c4444"
     bordercolor="#000000"
     borderopacity="0.25"
     inkscape:showpageshadow="2"
     inkscape:pageopacity="0.0"
     inkscape:pagecheckerboard="0"
     inkscape:deskcolor="#d1d1d1"
     inkscape:zoom="4.3531261"
     inkscape:cx="32.964816"
     inkscape:cy="24.350317"
     inkscape:window-width="1463"
     inkscape:window-height="604"
     inkscape:window-x="199"
     inkscape:window-y="276"
     inkscape:window-maximized="0"
     inkscape:current-layer="svg7"
     showgrid="false" />
  <defs
     id="defs2">
    <linearGradient
       id="linearGradient5"
       inkscape:collect="always">
      <stop
         style="stop-color:#392713;stop-opacity:1;"
         offset="0"
         id="stop2" />
      <stop
         style="stop-color:#eed59e;stop-opacity:1;"
         offset="0.5"
         id="stop3" />
      <stop
         style="stop-color:#beaa8a;stop-opacity:1;"
         offset="1"
         id="stop4" />
    </linearGradient>
    <linearGradient
       id="linearGradient8"
       inkscape:collect="always">
      <stop
         style="stop-color:#1a1a1a;stop-opacity:1;"
         offset="0"
         id="stop8" />
      <stop
         style="stop-color:#ffffff;stop-opacity:0;"
         offset="1"
         id="stop9" />
    </linearGradient>
    <linearGradient
       inkscape:collect="always"
       xlink:href="#linearGradient5"
       id="linearGradient41"
       x1="13.675659"
       y1="16.110115"
       x2="13.728528"
       y2="10.548769"
       gradientUnits="userSpaceOnUse"
       gradientTransform="matrix(2.046153,0,0,2.046153,-18.798306,-18.911347)" />
    <linearGradient
       inkscape:collect="always"
       xlink:href="#linearGradient42"
       id="linearGradient4"
       x1="11.885941"
       y1="16.50819"
       x2="12.026573"
       y2="10.244942"
       gradientUnits="userSpaceOnUse"
       gradientTransform="matrix(2.046153,0,0,2.046153,-18.798306,-18.911347)" />
    <linearGradient
       id="linearGradient42"
       inkscape:collect="always">
      <stop
         style="stop-color:#010101;stop-opacity:1;"
         offset="0"
         id="stop42" />
      <stop
         style="stop-color:#6e6c6d;stop-opacity:1;"
         offset="1"
         id="stop43" />
    </linearGradient>
    <linearGradient
       inkscape:collect="always"
       xlink:href="#linearGradient8"
       id="linearGradient9"
       x1="9.3404646"
       y1="4.1692023"
       x2="9.4279938"
       y2="16.46883"
       gradientUnits="userSpaceOnUse"
       gradientTransform="matrix(1.05,0,0,1.05,-0.50277005,-0.1977751)" />
    <filter
       style="color-interpolation-filters:sRGB;"
       inkscape:label="Blur"
       id="filter2"
       x="-0.14510849"
       y="-0.14612901"
       width="1.290217"
       height="1.292258">
      <feGaussianBlur
         stdDeviation="0.6 0.6"
         result="blur"
         id="feGaussianBlur2" />
    </filter>
    <linearGradient
       inkscape:collect="always"
       xlink:href="#linearGradient5"
       id="linearGradient30"
       x1="32.879295"
       y1="51.936085"
       x2="32.383362"
       y2="11.947518"
       gradientUnits="userSpaceOnUse"
       gradientTransform="matrix(0.2121652,0,0,0.2121652,1.6479611,1.6108907)" />
  </defs>
  <metadata
     id="metadata2">
    <rdf:RDF>
      <cc:Work
         rdf:about="">
        <dc:format>image/svg+xml</dc:format>
        <dc:type
           rdf:resource="http://purl.org/dc/dcmitype/StillImage" />
      </cc:Work>
    </rdf:RDF>
  </metadata>
  <rect
     style="fill:#000000;fill-opacity:0.996424;stroke:#000000;stroke-width:0.911802;stroke-dasharray:none;stroke-opacity:1;filter:url(#filter2)"
     id="rect1-2-3"
     width="13.065404"
     height="12.974159"
     x="1.9816793"
     y="1.9267306"
     rx="2.7149384"
     ry="2.8310909" />
  <rect
     style="fill:url(#linearGradient4);fill-opacity:0.996424;stroke:url(#linearGradient41);stroke-width:0.911802;stroke-dasharray:none;stroke-opacity:1"
     id="rect1-2"
     width="13.065404"
     height="12.974159"
     x="1.9816793"
     y="1.9267306"
     rx="2.7149384"
     ry="2.8310909" />
  <path
     id="path17-9"
     style="fill:#000000;fill-opacity:1;stroke:none;stroke-width:0.254153;stroke-dasharray:none;stroke-dashoffset:2.2;stroke-opacity:0.3;opacity:0.3"
     d="m 8.2061723,4.643189 c -0.056695,0.0076 -0.1137584,0.055409 -0.153385,0.1320404 -0.037877,0.073246 -0.044179,0.32983 -0.044179,1.8232479 0,0.9561034 -0.0098,1.7385258 -0.021842,1.7383641 C 7.9747261,8.3366804 7.5151001,7.957015 6.9656888,7.4934716 6.4162778,7.0299278 5.9451395,6.6425302 5.918302,6.6322314 c -0.026839,-0.010298 -0.080542,0.00202 -0.1191343,0.027302 -0.1188135,0.07785 -0.1596547,0.2581879 -0.091833,0.4070412 0.018872,0.041419 0.4951645,0.4640764 1.0583076,0.9391733 0.5631419,0.4750979 1.0268189,0.8788953 1.0305093,0.8969807 0.00369,0.018085 -0.4466624,0.4004633 -1.0012222,0.849823 -0.5545604,0.4493595 -1.0288238,0.8395545 -1.0538405,0.8671965 -0.074677,0.08251 -0.080537,0.285514 -0.011416,0.395623 0.1130422,0.180084 0.1282626,0.171371 1.2280739,-0.722249 0.553286,-0.4495555 1.016167,-0.8175573 1.0285236,-0.8175573 0.012357,0 0.022337,0.7742613 0.022337,1.7204943 0,1.124482 0.010343,1.748688 0.03028,1.802401 0.01678,0.0452 0.052498,0.09857 0.078926,0.118637 0.026429,0.02007 0.076186,0.03673 0.1106956,0.03673 0.06478,0 2.5571969,-1.883138 2.7068249,-2.045135 0.107399,-0.116281 0.114608,-0.352104 0.0144,-0.469092 C 10.913691,10.597524 10.404483,10.198063 9.8184556,9.7520542 9.2324244,9.3060449 8.7427073,8.9323331 8.7298651,8.9210943 8.717025,8.9098559 9.1997645,8.5223553 9.8030656,8.0603509 10.406364,7.5983457 10.925976,7.1872831 10.957673,7.1469893 c 0.06621,-0.084172 0.07735,-0.3041265 0.02036,-0.406049 -0.0369,-0.065993 -2.6228191,-2.0569118 -2.7162575,-2.0912992 -0.018193,-0.0067 -0.036698,-0.00899 -0.055597,-0.00644 z m 0.2571312,0.8622328 c 0.029922,0 1.8515415,1.4045515 1.8515415,1.4276235 0,0.012346 -0.4096041,0.3368534 -0.9103826,0.7207606 -0.500778,0.3839083 -0.9212099,0.7020067 -0.9342096,0.7073592 -0.012997,0.00535 -0.023826,-0.6345986 -0.023826,-1.4226596 0,-0.7880611 0.00771,-1.4330837 0.016877,-1.4330837 z m 0.00497,3.9413523 c 0.042257,8.092e-4 1.8316855,1.3906749 1.8316855,1.4226589 0,0.01778 -0.4121518,0.348623 -0.9163386,0.735158 -0.5041864,0.386532 -0.9211851,0.702394 -0.9267636,0.702394 -0.00557,0 -0.010424,-0.643383 -0.010424,-1.430105 0,-0.786723 0.0098,-1.4303418 0.021841,-1.4301059 z" />
  <path
     id="path17"
     style="fill:url(#linearGradient30);fill-opacity:1;stroke:none;stroke-width:0.254153;stroke-dasharray:none;stroke-dashoffset:2.2;stroke-opacity:0.3"
     d="m 8.2061723,4.1140328 c -0.056695,0.0076 -0.1137584,0.055409 -0.153385,0.1320404 -0.037877,0.073246 -0.044179,0.32983 -0.044179,1.8232479 0,0.9561034 -0.0098,1.7385258 -0.021842,1.7383641 C 7.9747261,7.8075242 7.5151001,7.4278588 6.9656888,6.9643154 6.4162778,6.5007716 5.9451395,6.113374 5.918302,6.1030752 5.8914633,6.0927768 5.8377602,6.105091 5.7991677,6.1303771 5.6803542,6.2082271 5.639513,6.388565 5.7073348,6.5374183 5.7262069,6.5788372 6.2024993,7.0014947 6.7656424,7.4765916 7.3287843,7.9516895 7.7924613,8.3554869 7.7961517,8.3735723 7.7998417,8.3916569 7.3494893,8.7740356 6.7949295,9.2233953 6.2403691,9.6727552 5.7661057,10.06295 5.741089,10.090592 c -0.074677,0.08251 -0.080537,0.285514 -0.011416,0.395623 0.1130422,0.180084 0.1282626,0.171371 1.2280739,-0.7222491 0.553286,-0.4495556 1.016167,-0.8175574 1.0285236,-0.8175574 0.012357,0 0.022337,0.7742613 0.022337,1.7204945 0,1.124482 0.010343,1.748688 0.03028,1.802401 0.01678,0.0452 0.052498,0.09857 0.078926,0.118637 0.026429,0.02007 0.076186,0.03673 0.1106956,0.03673 0.06478,0 2.5571969,-1.883138 2.7068249,-2.045135 0.107399,-0.116281 0.114608,-0.352104 0.0144,-0.469092 C 10.913691,10.068368 10.404483,9.6689066 9.8184556,9.222898 9.2324244,8.7768887 8.7427073,8.4031769 8.7298651,8.3919381 8.717025,8.3806997 9.1997645,7.9931991 9.8030656,7.5311947 10.406364,7.0691895 10.925976,6.6581269 10.957673,6.6178331 c 0.06621,-0.084172 0.07735,-0.3041265 0.02036,-0.406049 -0.0369,-0.065993 -2.6228191,-2.0569118 -2.7162575,-2.0912992 -0.018193,-0.0067 -0.036698,-0.00899 -0.055597,-0.00644 z m 0.2571312,0.8622328 c 0.029922,0 1.8515415,1.4045515 1.8515415,1.4276235 0,0.012346 -0.4096041,0.3368534 -0.9103826,0.7207606 -0.500778,0.3839083 -0.9212099,0.7020067 -0.9342096,0.7073592 -0.012997,0.00535 -0.023826,-0.6345986 -0.023826,-1.4226596 0,-0.7880611 0.00771,-1.4330837 0.016877,-1.4330837 z m 0.00497,3.9413523 c 0.042257,8.092e-4 1.8316855,1.3906751 1.8316855,1.4226591 0,0.01778 -0.4121518,0.348623 -0.9163386,0.735158 -0.5041864,0.386532 -0.9211851,0.702394 -0.9267636,0.702394 -0.00557,0 -0.010424,-0.643383 -0.010424,-1.430105 0,-0.786723 0.0098,-1.430342 0.021841,-1.4301061 z" />
  <rect
     style="opacity:0.5;fill:none;fill-opacity:0.996424;stroke:url(#linearGradient9);stroke-width:0.566102;stroke-dasharray:none;stroke-opacity:1"
     id="rect1-2-6"
     width="11.574203"
     height="11.508601"
     x="2.729686"
     y="2.6615164"
     rx="2.0246315"
     ry="2.0627522" />
</svg>
