<?xml version="1.0" encoding="UTF-8" standalone="no"?>
<svg
   width="64"
   height="64"
   version="1.1"
   viewBox="0 0 16.933 16.933"
   id="svg7"
   sodipodi:docname="Template 4.svg"
   inkscape:version="1.3.2 (091e20ef0f, 2023-11-25)"
   xmlns:inkscape="http://www.inkscape.org/namespaces/inkscape"
   xmlns:sodipodi="http://sodipodi.sourceforge.net/DTD/sodipodi-0.dtd"
   xmlns:xlink="http://www.w3.org/1999/xlink"
   xmlns="http://www.w3.org/2000/svg"
   xmlns:svg="http://www.w3.org/2000/svg"
   xmlns:rdf="http://www.w3.org/1999/02/22-rdf-syntax-ns#"
   xmlns:cc="http://creativecommons.org/ns#"
   xmlns:dc="http://purl.org/dc/elements/1.1/">
  <sodipodi:namedview
     id="namedview7"
     pagecolor="#9c4444"
     bordercolor="#000000"
     borderopacity="0.25"
     inkscape:showpageshadow="2"
     inkscape:pageopacity="0.0"
     inkscape:pagecheckerboard="0"
     inkscape:deskcolor="#d1d1d1"
     inkscape:zoom="4.3531261"
     inkscape:cx="32.849956"
     inkscape:cy="24.350317"
     inkscape:window-width="1356"
     inkscape:window-height="786"
     inkscape:window-x="35"
     inkscape:window-y="32"
     inkscape:window-maximized="0"
     inkscape:current-layer="svg7"
     showgrid="false" />
  <defs
     id="defs2">
    <linearGradient
       id="linearGradient5"
       inkscape:collect="always">
      <stop
         style="stop-color:#392713;stop-opacity:1;"
         offset="0"
         id="stop2" />
      <stop
         style="stop-color:#eed59e;stop-opacity:1;"
         offset="0.5"
         id="stop3" />
      <stop
         style="stop-color:#beaa8a;stop-opacity:1;"
         offset="1"
         id="stop4" />
    </linearGradient>
    <linearGradient
       id="linearGradient8"
       inkscape:collect="always">
      <stop
         style="stop-color:#1a1a1a;stop-opacity:1;"
         offset="0"
         id="stop8" />
      <stop
         style="stop-color:#ffffff;stop-opacity:0;"
         offset="1"
         id="stop9" />
    </linearGradient>
    <linearGradient
       inkscape:collect="always"
       xlink:href="#linearGradient5"
       id="linearGradient41"
       x1="13.675659"
       y1="16.110115"
       x2="13.728528"
       y2="10.548769"
       gradientUnits="userSpaceOnUse"
       gradientTransform="matrix(2.046153,0,0,2.046153,-18.798306,-18.911347)" />
    <linearGradient
       inkscape:collect="always"
       xlink:href="#linearGradient42"
       id="linearGradient4"
       x1="11.885941"
       y1="16.50819"
       x2="12.026573"
       y2="10.244942"
       gradientUnits="userSpaceOnUse"
       gradientTransform="matrix(2.046153,0,0,2.046153,-18.798306,-18.911347)" />
    <linearGradient
       id="linearGradient42"
       inkscape:collect="always">
      <stop
         style="stop-color:#010101;stop-opacity:1;"
         offset="0"
         id="stop42" />
      <stop
         style="stop-color:#6e6c6d;stop-opacity:1;"
         offset="1"
         id="stop43" />
    </linearGradient>
    <linearGradient
       inkscape:collect="always"
       xlink:href="#linearGradient8"
       id="linearGradient9"
       x1="9.3404646"
       y1="4.1692023"
       x2="9.4279938"
       y2="16.46883"
       gradientUnits="userSpaceOnUse"
       gradientTransform="matrix(1.05,0,0,1.05,-0.50277005,-0.1977751)" />
    <filter
       style="color-interpolation-filters:sRGB;"
       inkscape:label="Blur"
       id="filter2"
       x="-0.14510849"
       y="-0.14612901"
       width="1.290217"
       height="1.292258">
      <feGaussianBlur
         stdDeviation="0.6 0.6"
         result="blur"
         id="feGaussianBlur2" />
    </filter>
    <linearGradient
       inkscape:collect="always"
       xlink:href="#linearGradient5"
       id="linearGradient80"
       x1="32.656166"
       y1="46.657047"
       x2="32.772228"
       y2="18.489071"
       gradientUnits="userSpaceOnUse"
       gradientTransform="matrix(0.2121652,0,0,0.2121652,1.7016953,1.5981682)" />
  </defs>
  <metadata
     id="metadata2">
    <rdf:RDF>
      <cc:Work
         rdf:about="">
        <dc:format>image/svg+xml</dc:format>
        <dc:type
           rdf:resource="http://purl.org/dc/dcmitype/StillImage" />
      </cc:Work>
    </rdf:RDF>
  </metadata>
  <rect
     style="fill:#000000;fill-opacity:0.996424;stroke:#000000;stroke-width:0.911802;stroke-dasharray:none;stroke-opacity:1;filter:url(#filter2)"
     id="rect1-2-3"
     width="13.065404"
     height="12.974159"
     x="1.9816793"
     y="1.9267306"
     rx="2.7149384"
     ry="2.8310909" />
  <rect
     style="fill:url(#linearGradient4);fill-opacity:0.996424;stroke:url(#linearGradient41);stroke-width:0.911802;stroke-dasharray:none;stroke-opacity:1"
     id="rect1-2"
     width="13.065404"
     height="12.974159"
     x="1.9816793"
     y="1.9267306"
     rx="2.7149384"
     ry="2.8310909" />
  <path
     style="color:#444444;fill:#000000;fill-opacity:1;stroke:none;stroke-width:0.231048;stroke-dasharray:none;stroke-opacity:0.3;opacity:0.3"
     class="ColorScheme-Text"
     d="m 5.7796971,5.9754718 c 0,0 -1.0058822,0 -1.0058822,1.0058822 v 4.023528 c 0,1.005882 1.0058822,1.005882 1.0058822,1.005882 h 5.5323509 c 0,0 1.005882,0 1.005882,-1.005882 V 6.981354 c 0,-1.0058822 -1.005882,-1.0058822 -1.005882,-1.0058822 z M 5.9054322,6.981354 h 0.7544119 c 0.069657,0 0.1257346,0.056079 0.1257346,0.1257357 v 0.7544116 c 0,0.069657 -0.056079,0.1257348 -0.1257346,0.1257348 H 5.9054322 c -0.069657,0 -0.1257351,-0.056078 -0.1257351,-0.1257348 V 7.1070897 c 0,-0.069658 0.056079,-0.1257357 0.1257351,-0.1257357 z m 1.5088231,0 h 0.7544114 c 0.069658,0 0.1257353,0.056079 0.1257353,0.1257357 v 0.7544116 c 0,0.069657 -0.056079,0.1257348 -0.1257353,0.1257348 H 7.4142553 C 7.344598,7.9872361 7.28852,7.931158 7.28852,7.8615013 V 7.1070897 c 0,-0.069658 0.056079,-0.1257357 0.1257353,-0.1257357 z m 1.5088229,0 h 0.7544112 c 0.069655,0 0.125736,0.056079 0.125736,0.1257357 v 0.7544116 c 0,0.069657 -0.056084,0.1257348 -0.125736,0.1257348 H 8.9230782 c -0.069658,0 -0.1257348,-0.056078 -0.1257348,-0.1257348 V 7.1070897 c 0,-0.069658 0.056077,-0.1257357 0.1257348,-0.1257357 z m 1.5088228,0 h 0.754413 c 0.06967,0 0.125734,0.056079 0.125734,0.1257357 v 0.7544116 c 0,0.069657 -0.05609,0.1257348 -0.125734,0.1257348 h -0.754413 c -0.06965,0 -0.125735,-0.056078 -0.125735,-0.1257348 V 7.1070897 c 0,-0.069658 0.05609,-0.1257357 0.125735,-0.1257357 z M 5.9054322,8.4901775 h 0.7544119 c 0.069657,0 0.1257346,0.056078 0.1257346,0.1257351 v 0.7544115 c 0,0.069658 -0.056079,0.125735 -0.1257346,0.125735 H 5.9054322 c -0.069657,0 -0.1257351,-0.056079 -0.1257351,-0.125735 V 8.6159126 c 0,-0.069659 0.056079,-0.1257351 0.1257351,-0.1257351 z m 1.5088231,0 h 0.7544114 c 0.069658,0 0.1257353,0.056078 0.1257353,0.1257351 v 0.7544115 c 0,0.069658 -0.056079,0.125735 -0.1257353,0.125735 H 7.4142553 c -0.069657,0 -0.1257353,-0.056079 -0.1257353,-0.125735 V 8.6159126 c 0,-0.069659 0.056079,-0.1257351 0.1257353,-0.1257351 z m 1.5088229,0 h 0.7544112 c 0.069655,0 0.125736,0.056078 0.125736,0.1257351 v 0.7544115 c 0,0.069658 -0.056084,0.125735 -0.125736,0.125735 H 8.9230782 c -0.069658,0 -0.1257348,-0.056079 -0.1257348,-0.125735 V 8.6159126 c 0,-0.069659 0.056077,-0.1257351 0.1257348,-0.1257351 z m 1.5088228,0 h 0.754413 c 0.06967,0 0.125734,0.056078 0.125734,0.1257351 v 0.7544115 c 0,0.069658 -0.05609,0.125735 -0.125734,0.125735 h -0.754413 c -0.06965,0 -0.125735,-0.056079 -0.125735,-0.125735 V 8.6159126 c 0,-0.069659 0.05609,-0.1257351 0.125735,-0.1257351 z M 6.9113142,9.9990003 h 3.2691168 c 0.06967,0 0.125735,0.056079 0.125735,0.1257347 v 0.754411 c 0,0.06966 -0.05609,0.125736 -0.125735,0.125736 H 6.9113142 c -0.069658,0 -0.1257355,-0.05608 -0.1257355,-0.125736 v -0.754411 c 0,-0.06966 0.056079,-0.1257347 0.1257355,-0.1257347 z"
     id="path5-3" />
  <path
     style="color:#444444;fill:url(#linearGradient80);fill-opacity:1;stroke:none;stroke-width:0.231048;stroke-dasharray:none;stroke-opacity:0.3"
     class="ColorScheme-Text"
     d="m 5.7796971,5.4463156 c 0,0 -1.0058822,0 -1.0058822,1.0058822 v 4.0235282 c 0,1.005882 1.0058822,1.005882 1.0058822,1.005882 h 5.5323509 c 0,0 1.005882,0 1.005882,-1.005882 V 6.4521978 c 0,-1.0058822 -1.005882,-1.0058822 -1.005882,-1.0058822 z m 0.1257351,1.0058822 h 0.7544119 c 0.069657,0 0.1257346,0.056079 0.1257346,0.1257357 v 0.7544116 c 0,0.069657 -0.056079,0.1257348 -0.1257346,0.1257348 H 5.9054322 c -0.069657,0 -0.1257351,-0.056078 -0.1257351,-0.1257348 V 6.5779335 c 0,-0.069658 0.056079,-0.1257357 0.1257351,-0.1257357 z m 1.5088231,0 h 0.7544114 c 0.069658,0 0.1257353,0.056079 0.1257353,0.1257357 v 0.7544116 c 0,0.069657 -0.056079,0.1257348 -0.1257353,0.1257348 H 7.4142553 C 7.344598,7.4580799 7.28852,7.4020018 7.28852,7.3323451 V 6.5779335 c 0,-0.069658 0.056079,-0.1257357 0.1257353,-0.1257357 z m 1.5088229,0 h 0.7544112 c 0.069655,0 0.125736,0.056079 0.125736,0.1257357 v 0.7544116 c 0,0.069657 -0.056084,0.1257348 -0.125736,0.1257348 H 8.9230782 c -0.069658,0 -0.1257348,-0.056078 -0.1257348,-0.1257348 V 6.5779335 c 0,-0.069658 0.056077,-0.1257357 0.1257348,-0.1257357 z m 1.5088228,0 h 0.754413 c 0.06967,0 0.125734,0.056079 0.125734,0.1257357 v 0.7544116 c 0,0.069657 -0.05609,0.1257348 -0.125734,0.1257348 h -0.754413 c -0.06965,0 -0.125735,-0.056078 -0.125735,-0.1257348 V 6.5779335 c 0,-0.069658 0.05609,-0.1257357 0.125735,-0.1257357 z M 5.9054322,7.9610213 h 0.7544119 c 0.069657,0 0.1257346,0.056078 0.1257346,0.1257351 v 0.7544115 c 0,0.069658 -0.056079,0.125735 -0.1257346,0.125735 H 5.9054322 c -0.069657,0 -0.1257351,-0.056079 -0.1257351,-0.125735 V 8.0867564 c 0,-0.069659 0.056079,-0.1257351 0.1257351,-0.1257351 z m 1.5088231,0 h 0.7544114 c 0.069658,0 0.1257353,0.056078 0.1257353,0.1257351 v 0.7544115 c 0,0.069658 -0.056079,0.125735 -0.1257353,0.125735 H 7.4142553 c -0.069657,0 -0.1257353,-0.056079 -0.1257353,-0.125735 V 8.0867564 c 0,-0.069659 0.056079,-0.1257351 0.1257353,-0.1257351 z m 1.5088229,0 h 0.7544112 c 0.069655,0 0.125736,0.056078 0.125736,0.1257351 v 0.7544115 c 0,0.069658 -0.056084,0.125735 -0.125736,0.125735 H 8.9230782 c -0.069658,0 -0.1257348,-0.056079 -0.1257348,-0.125735 V 8.0867564 c 0,-0.069659 0.056077,-0.1257351 0.1257348,-0.1257351 z m 1.5088228,0 h 0.754413 c 0.06967,0 0.125734,0.056078 0.125734,0.1257351 v 0.7544115 c 0,0.069658 -0.05609,0.125735 -0.125734,0.125735 h -0.754413 c -0.06965,0 -0.125735,-0.056079 -0.125735,-0.125735 V 8.0867564 c 0,-0.069659 0.05609,-0.1257351 0.125735,-0.1257351 z M 6.9113142,9.4698441 h 3.2691168 c 0.06967,0 0.125735,0.056079 0.125735,0.1257343 V 10.34999 c 0,0.06966 -0.05609,0.125736 -0.125735,0.125736 H 6.9113142 c -0.069658,0 -0.1257355,-0.05608 -0.1257355,-0.125736 V 9.5955784 c 0,-0.069656 0.056079,-0.1257343 0.1257355,-0.1257343 z"
     id="path5" />
  <rect
     style="opacity:0.5;fill:none;fill-opacity:0.996424;stroke:url(#linearGradient9);stroke-width:0.566102;stroke-dasharray:none;stroke-opacity:1"
     id="rect1-2-6"
     width="11.574203"
     height="11.508601"
     x="2.729686"
     y="2.6615164"
     rx="2.0246315"
     ry="2.0627522" />
</svg>
