<?xml version="1.0" encoding="UTF-8" standalone="no"?>
<svg
   width="64"
   height="64"
   version="1.1"
   viewBox="0 0 16.933 16.933"
   id="svg7"
   sodipodi:docname="Template 4.svg"
   inkscape:version="1.3.2 (091e20ef0f, 2023-11-25)"
   xmlns:inkscape="http://www.inkscape.org/namespaces/inkscape"
   xmlns:sodipodi="http://sodipodi.sourceforge.net/DTD/sodipodi-0.dtd"
   xmlns:xlink="http://www.w3.org/1999/xlink"
   xmlns="http://www.w3.org/2000/svg"
   xmlns:svg="http://www.w3.org/2000/svg"
   xmlns:rdf="http://www.w3.org/1999/02/22-rdf-syntax-ns#"
   xmlns:cc="http://creativecommons.org/ns#"
   xmlns:dc="http://purl.org/dc/elements/1.1/">
  <sodipodi:namedview
     id="namedview7"
     pagecolor="#9c4444"
     bordercolor="#000000"
     borderopacity="0.25"
     inkscape:showpageshadow="2"
     inkscape:pageopacity="0.0"
     inkscape:pagecheckerboard="0"
     inkscape:deskcolor="#d1d1d1"
     inkscape:zoom="4.3531261"
     inkscape:cx="32.964816"
     inkscape:cy="24.350317"
     inkscape:window-width="1463"
     inkscape:window-height="604"
     inkscape:window-x="199"
     inkscape:window-y="276"
     inkscape:window-maximized="0"
     inkscape:current-layer="svg7"
     showgrid="false" />
  <defs
     id="defs2">
    <linearGradient
       id="linearGradient5"
       inkscape:collect="always">
      <stop
         style="stop-color:#392713;stop-opacity:1;"
         offset="0"
         id="stop2" />
      <stop
         style="stop-color:#eed59e;stop-opacity:1;"
         offset="0.5"
         id="stop3" />
      <stop
         style="stop-color:#beaa8a;stop-opacity:1;"
         offset="1"
         id="stop4" />
    </linearGradient>
    <linearGradient
       id="linearGradient8"
       inkscape:collect="always">
      <stop
         style="stop-color:#1a1a1a;stop-opacity:1;"
         offset="0"
         id="stop8" />
      <stop
         style="stop-color:#ffffff;stop-opacity:0;"
         offset="1"
         id="stop9" />
    </linearGradient>
    <linearGradient
       inkscape:collect="always"
       xlink:href="#linearGradient5"
       id="linearGradient41"
       x1="13.675659"
       y1="16.110115"
       x2="13.728528"
       y2="10.548769"
       gradientUnits="userSpaceOnUse"
       gradientTransform="matrix(2.046153,0,0,2.046153,-18.798306,-18.911347)" />
    <linearGradient
       inkscape:collect="always"
       xlink:href="#linearGradient42"
       id="linearGradient4"
       x1="11.885941"
       y1="16.50819"
       x2="12.026573"
       y2="10.244942"
       gradientUnits="userSpaceOnUse"
       gradientTransform="matrix(2.046153,0,0,2.046153,-18.798306,-18.911347)" />
    <linearGradient
       id="linearGradient42"
       inkscape:collect="always">
      <stop
         style="stop-color:#010101;stop-opacity:1;"
         offset="0"
         id="stop42" />
      <stop
         style="stop-color:#6e6c6d;stop-opacity:1;"
         offset="1"
         id="stop43" />
    </linearGradient>
    <linearGradient
       inkscape:collect="always"
       xlink:href="#linearGradient8"
       id="linearGradient9"
       x1="9.3404646"
       y1="4.1692023"
       x2="9.4279938"
       y2="16.46883"
       gradientUnits="userSpaceOnUse"
       gradientTransform="matrix(1.05,0,0,1.05,-0.50277005,-0.1977751)" />
    <filter
       style="color-interpolation-filters:sRGB;"
       inkscape:label="Blur"
       id="filter2"
       x="-0.14510849"
       y="-0.14612901"
       width="1.290217"
       height="1.292258">
      <feGaussianBlur
         stdDeviation="0.6 0.6"
         result="blur"
         id="feGaussianBlur2" />
    </filter>
    <linearGradient
       inkscape:collect="always"
       xlink:href="#linearGradient5"
       id="linearGradient6"
       x1="8.5407677"
       y1="12.405554"
       x2="8.943573"
       y2="4.4468923"
       gradientUnits="userSpaceOnUse" />
  </defs>
  <metadata
     id="metadata2">
    <rdf:RDF>
      <cc:Work
         rdf:about="">
        <dc:format>image/svg+xml</dc:format>
        <dc:type
           rdf:resource="http://purl.org/dc/dcmitype/StillImage" />
      </cc:Work>
    </rdf:RDF>
  </metadata>
  <rect
     style="fill:#000000;fill-opacity:0.996424;stroke:#000000;stroke-width:0.911802;stroke-dasharray:none;stroke-opacity:1;filter:url(#filter2)"
     id="rect1-2-3"
     width="13.065404"
     height="12.974159"
     x="1.9816793"
     y="1.9267306"
     rx="2.7149384"
     ry="2.8310909" />
  <rect
     style="fill:url(#linearGradient4);fill-opacity:0.996424;stroke:url(#linearGradient41);stroke-width:0.911802;stroke-dasharray:none;stroke-opacity:1"
     id="rect1-2"
     width="13.065404"
     height="12.974159"
     x="1.9816793"
     y="1.9267306"
     rx="2.7149384"
     ry="2.8310909" />
  <path
     id="path13-5"
     style="fill:#000000;fill-opacity:1;stroke-width:0.0365452;opacity:0.3"
     d="M 5.2686311,5.1464042 5.2682492,5.3562336 5.2678672,5.56644 5.2200242,5.599591 C 5.1936702,5.617813 5.1595712,5.652119 5.1443022,5.675687 L 5.1164382,5.718632 H 4.9062325 4.6964029 v 0.1891099 0.1887337 h 0.1887336 0.1887337 v 0.2007892 0.201165 H 4.9126366 C 4.6756582,6.4986844 4.6964029,6.4806017 4.6964029,6.6886705 v 0.175172 h 0.1887336 0.1887337 v 0.2011649 0.2007884 l -0.1612336,3.82e-4 C 4.675219,7.2664322 4.6964029,7.2469258 4.6964029,7.4620688 v 0.181576 h 0.1887336 0.1887337 v 0.194752 0.1947611 H 4.8851365 4.6964029 V 8.2222681 8.4110018 H 4.8851365 5.0738702 V 8.6117903 8.8129554 H 4.8851365 4.6964029 V 8.9956616 9.1783677 H 4.8851365 5.0738702 V 9.3795328 9.5803212 H 4.8851365 4.6964029 V 9.769055 9.9581646 h 0.1887336 0.1887337 v 0.1947604 0.194761 H 4.8851365 4.6964029 v 0.18911 0.188733 h 0.1887336 0.1887337 v 0.200788 0.201166 H 4.8926707 4.7114716 l -0.00753,0.03804 c -0.00418,0.02094 -0.00753,0.103143 -0.00753,0.182706 v 0.144658 h 0.1887309 0.1887337 v 0.201165 0.200788 H 4.885137 4.6964033 v 0.188735 0.189111 l 0.2098296,3.8e-4 0.2102063,3.82e-4 0.033151,0.04784 c 0.018222,0.02635 0.052528,0.06045 0.076096,0.07572 l 0.042945,0.02788 v 0.210207 0.209829 H 5.4577419 5.6464754 V 12.656173 12.467439 H 5.847264 6.0484289 v 0.188734 0.188733 H 6.231135 6.4138413 v -0.188733 -0.188734 h 0.2011651 0.2007885 v 0.188734 0.188733 h 0.1887336 0.1891102 v -0.188733 -0.188734 h 0.1947611 0.1947611 v 0.188734 0.188733 h 0.18911 0.1887336 v -0.188733 -0.188734 h 0.2007888 0.2011648 v 0.188734 0.188733 h 0.182706 0.1827062 v -0.188733 -0.188734 h 0.201165 0.2007885 v 0.188734 0.188733 H 9.3190576 9.5081678 V 12.656174 12.467441 H 9.702929 9.89769 v 0.188733 0.188735 h 0.18911 0.188733 v -0.188735 -0.188733 h 0.200789 0.201165 v 0.188733 0.188735 h 0.182707 0.182705 v -0.188735 -0.188733 h 0.201166 0.200788 v 0.188733 0.188735 h 0.188734 0.18911 v -0.20983 -0.210207 l 0.04295,-0.02788 c 0.02357,-0.01527 0.05788,-0.04936 0.07609,-0.07572 l 0.03315,-0.04784 0.210207,-3.82e-4 0.20983,-3.83e-4 v -0.18909 -0.188734 H 12.206193 12.017459 V 11.69406 11.492894 h 0.188734 0.188732 V 11.310196 11.12749 h -0.188732 -0.188734 v -0.201165 -0.200788 h 0.188734 0.188732 V 10.536799 10.34769 H 12.206193 12.017459 V 10.152928 9.958169 h 0.188734 0.188733 V 9.769059 9.5803253 H 12.206193 12.017459 V 9.3795367 9.1783717 h 0.188734 0.188733 V 8.9956656 8.8129595 H 12.206193 12.017459 V 8.6117943 8.4110059 h 0.188734 0.188733 V 8.2222722 8.0331619 H 12.206193 12.017459 V 7.8384008 7.6436398 h 0.188734 0.188733 V 7.4545295 7.2657958 H 12.206193 12.017459 V 7.0650074 6.8638425 h 0.188734 0.188733 V 6.6811362 6.4984299 H 12.206193 12.017459 V 6.2972648 6.0964763 h 0.188734 0.188733 V 5.9077427 5.7186324 H 12.185097 11.97489 L 11.94701,5.6756874 C 11.93175,5.6521194 11.89765,5.6178144 11.87129,5.5995914 L 11.82345,5.5664404 11.823068,5.3562341 11.822687,5.1464047 H 11.633593 11.44486 v 0.188733 0.1887338 H 11.244065 11.042899 V 5.3351377 5.1464042 H 10.860194 10.677488 V 5.3351377 5.5238714 H 10.476322 10.275534 V 5.3351377 5.1464042 H 10.086801 9.89769 V 5.3351377 5.5238714 H 9.7029289 9.5081681 V 5.3351377 5.1464042 H 9.3190578 9.1303242 V 5.3351377 5.5238714 H 8.9295357 8.7283705 V 5.3351377 5.1464042 H 8.5456643 8.362958 V 5.3351377 5.5238714 H 8.1617932 7.9610045 V 5.3351377 5.1464042 H 7.7722708 7.5831608 V 5.3351377 5.5238714 H 7.3883997 7.1936387 V 5.3351377 5.1464042 H 7.0045283 6.8157947 V 5.3351377 5.5238714 H 6.6150062 6.4138412 V 5.3351377 5.1464042 H 6.2311349 6.0484286 V 5.3351377 5.5238714 H 5.8472637 5.646475 V 5.3351377 5.1464042 H 5.4577416 Z m 3.2770332,1.1448333 c 0.1205815,0 0.2413167,0.027346 0.3518508,0.081747 0.1234686,0.060766 0.2706228,0.2051906 0.3330149,0.3266106 0.093775,0.1824942 0.087463,0.098878 0.094555,1.262368 l 0.0064,1.0434971 0.1028428,0.073836 c 0.4189453,0.2994452 0.658693,0.7618789 0.658499,1.2710308 -3.17e-4,0.770701 -0.5849623,1.432822 -1.3524015,1.532095 C 8.0144096,11.976336 7.312691,11.533854 7.0791165,10.835157 6.9792927,10.536553 6.9725277,10.226383 7.0595273,9.9091957 7.0947302,9.7808521 7.2153974,9.5406003 7.302131,9.425496 7.3930955,9.304777 7.5655163,9.1394416 7.6792213,9.0638509 l 0.085891,-0.057261 0.00376,-1.0438741 C 7.7730423,6.7974728 7.7666923,6.8827204 7.8607943,6.6995946 7.9231873,6.5781747 8.0703406,6.4337507 8.1938093,6.372984 8.3043439,6.318583 8.4250793,6.291237 8.5456605,6.291237 Z m 0,0.4019536 c -0.080096,0 -0.1042076,0.0056 -0.1683911,0.03767 -0.086832,0.043391 -0.1510876,0.1145416 -0.1857198,0.2056862 -0.022524,0.059304 -0.023357,0.1056547 -0.023357,1.1915456 v 1.1301417 l -0.0825,0.035034 C 7.822771,9.405278 7.5924696,9.6405494 7.482578,9.9091957 7.2106706,10.573916 7.6024869,11.316164 8.3083346,11.47331 8.434232,11.50135 8.7274916,11.49262 8.8492956,11.45711 9.3937232,11.298411 9.741685,10.794077 9.6897442,10.238819 9.6517327,9.8324717 9.4035125,9.4799239 9.0361457,9.3098446 L 8.9235083,9.2574807 V 8.1277158 C 8.9233211,7.0424137 8.9223201,6.9958357 8.8997755,6.936547 8.8651433,6.8454026 8.8008877,6.7742517 8.7140554,6.7308611 8.6498722,6.6987891 8.6257603,6.6931899 8.5456643,6.6931899 Z" />
  <path
     id="path13"
     style="fill:url(#linearGradient6);fill-opacity:1;stroke-width:0.0365452"
     d="m 5.2686311,4.617248 -3.819e-4,0.2098294 -3.82e-4,0.2102064 -0.047843,0.033151 c -0.026354,0.018222 -0.060453,0.052528 -0.075722,0.076096 l -0.027864,0.042945 H 4.9062325 4.6964029 v 0.1891099 0.1887337 h 0.1887336 0.1887337 v 0.2007892 0.201165 H 4.9126366 C 4.6756582,5.9695282 4.6964029,5.9514455 4.6964029,6.1595143 v 0.175172 h 0.1887336 0.1887337 v 0.2011649 0.2007884 l -0.1612336,3.82e-4 C 4.675219,6.737276 4.6964029,6.7177696 4.6964029,6.9329126 v 0.181576 h 0.1887336 0.1887337 v 0.194752 0.1947611 H 4.8851365 4.6964029 V 7.6931119 7.8818456 H 4.8851365 5.0738702 V 8.0826341 8.2837992 H 4.8851365 4.6964029 V 8.4665054 8.6492115 H 4.8851365 5.0738702 V 8.8503766 9.051165 H 4.8851365 4.6964029 v 0.1887338 0.1891096 h 0.1887336 0.1887337 v 0.1947599 0.194761 H 4.8851365 4.6964029 v 0.1891107 0.188733 h 0.1887336 0.1887337 v 0.200788 0.201166 H 4.8926707 4.7114716 l -0.00753,0.03804 c -0.00418,0.02094 -0.00753,0.103143 -0.00753,0.182706 v 0.144658 h 0.1887309 0.1887337 v 0.201165 0.200788 H 4.885137 4.6964033 v 0.188735 0.189111 l 0.2098296,3.8e-4 0.2102063,3.82e-4 0.033151,0.04784 c 0.018222,0.02635 0.052528,0.06045 0.076096,0.07572 l 0.042945,0.02788 v 0.210207 0.209829 H 5.4577419 5.6464754 V 12.127017 11.938283 H 5.847264 6.0484289 v 0.188734 0.188733 H 6.231135 6.4138413 v -0.188733 -0.188734 h 0.2011651 0.2007885 v 0.188734 0.188733 h 0.1887336 0.1891102 v -0.188733 -0.188734 h 0.1947611 0.1947611 v 0.188734 0.188733 h 0.18911 0.1887336 v -0.188733 -0.188734 h 0.2007888 0.2011648 v 0.188734 0.188733 h 0.182706 0.1827062 v -0.188733 -0.188734 h 0.201165 0.2007885 v 0.188734 0.188733 H 9.3190576 9.5081678 V 12.127018 11.938285 H 9.702929 9.89769 v 0.188733 0.188735 h 0.18911 0.188733 v -0.188735 -0.188733 h 0.200789 0.201165 v 0.188733 0.188735 h 0.182707 0.182705 v -0.188735 -0.188733 h 0.201166 0.200788 v 0.188733 0.188735 h 0.188734 0.18911 v -0.20983 -0.210207 l 0.04295,-0.02788 c 0.02357,-0.01527 0.05788,-0.04936 0.07609,-0.07572 l 0.03315,-0.04784 0.210207,-3.82e-4 0.20983,-3.83e-4 v -0.18909 -0.188734 h -0.188731 -0.188734 v -0.200783 -0.201166 h 0.188734 0.188732 V 10.78104 10.598334 h -0.188732 -0.188734 v -0.201165 -0.200788 h 0.188734 0.188732 V 10.007643 9.8185333 H 12.206193 12.017459 V 9.6237719 9.4290128 h 0.188734 0.188733 V 9.2399028 9.0511691 H 12.206193 12.017459 V 8.8503805 8.6492155 h 0.188734 0.188733 V 8.4665094 8.2838033 H 12.206193 12.017459 V 8.0826381 7.8818497 h 0.188734 0.188733 V 7.693116 7.5040057 H 12.206193 12.017459 V 7.3092446 7.1144836 h 0.188734 0.188733 V 6.9253733 6.7366396 H 12.206193 12.017459 V 6.5358512 6.3346863 h 0.188734 0.188733 V 6.15198 5.9692737 H 12.206193 12.017459 V 5.7681086 5.5673201 h 0.188734 0.188733 V 5.3785865 5.1894762 H 12.185097 11.97489 L 11.94701,5.1465312 C 11.93175,5.1229632 11.89765,5.0886582 11.87129,5.0704352 L 11.82345,5.0372842 11.823068,4.8270779 11.822687,4.6172485 H 11.633593 11.44486 v 0.188733 0.1887338 H 11.244065 11.042899 V 4.8059815 4.617248 H 10.860194 10.677488 V 4.8059815 4.9947152 H 10.476322 10.275534 V 4.8059815 4.617248 H 10.086801 9.89769 V 4.8059815 4.9947152 H 9.7029289 9.5081681 V 4.8059815 4.617248 H 9.3190578 9.1303242 V 4.8059815 4.9947152 H 8.9295357 8.7283705 V 4.8059815 4.617248 H 8.5456643 8.362958 V 4.8059815 4.9947152 H 8.1617932 7.9610045 V 4.8059815 4.617248 H 7.7722708 7.5831608 V 4.8059815 4.9947152 H 7.3883997 7.1936387 V 4.8059815 4.617248 H 7.0045283 6.8157947 V 4.8059815 4.9947152 H 6.6150062 6.4138412 V 4.8059815 4.617248 H 6.2311349 6.0484286 V 4.8059815 4.9947152 H 5.8472637 5.646475 V 4.8059815 4.617248 H 5.4577416 Z m 3.2770332,1.1448333 c 0.1205815,0 0.2413167,0.027346 0.3518508,0.081747 0.1234686,0.060766 0.2706228,0.2051906 0.3330149,0.3266106 0.093775,0.1824942 0.087463,0.098878 0.094555,1.262368 L 9.3314842,8.476304 9.434327,8.55014 C 9.8532723,8.8495852 10.09302,9.3120189 10.092826,9.8211707 10.092509,10.591872 9.5078637,11.253993 8.7404245,11.353266 8.0144096,11.44718 7.312691,11.004698 7.0791165,10.306001 6.9792927,10.007397 6.9725277,9.6972266 7.0595273,9.3800395 7.0947302,9.2516959 7.2153974,9.0114441 7.302131,8.8963398 7.3930955,8.7756208 7.5655163,8.6102854 7.6792213,8.5346947 l 0.085891,-0.057261 0.00376,-1.0438741 c 0.00417,-1.165243 -0.00218,-1.0799954 0.091922,-1.2631212 0.062393,-0.1214199 0.2095463,-0.2658439 0.333015,-0.3266106 0.1105346,-0.054401 0.23127,-0.081747 0.3518512,-0.081747 z m 0,0.4019536 c -0.080096,0 -0.1042076,0.0056 -0.1683911,0.03767 -0.086832,0.043391 -0.1510876,0.1145416 -0.1857198,0.2056862 -0.022524,0.059304 -0.023357,0.1056547 -0.023357,1.1915456 v 1.1301417 l -0.0825,0.035034 C 7.822771,8.8761218 7.5924696,9.1113932 7.482578,9.3800395 7.2106706,10.04476 7.6024869,10.787008 8.3083346,10.944154 c 0.1258974,0.02804 0.419157,0.01931 0.540961,-0.0162 C 9.3937232,10.769255 9.741685,10.264921 9.6897442,9.7096628 9.6517327,9.3033155 9.4035125,8.9507677 9.0361457,8.7806884 L 8.9235083,8.7283245 V 7.5985596 C 8.9233211,6.5132575 8.9223201,6.4666795 8.8997755,6.4073908 8.8651433,6.3162464 8.8008877,6.2450955 8.7140554,6.2017049 8.6498722,6.1696329 8.6257603,6.1640337 8.5456643,6.1640337 Z" />
  <rect
     style="opacity:0.5;fill:none;fill-opacity:0.996424;stroke:url(#linearGradient9);stroke-width:0.566102;stroke-dasharray:none;stroke-opacity:1"
     id="rect1-2-6"
     width="11.574203"
     height="11.508601"
     x="2.729686"
     y="2.6615164"
     rx="2.0246315"
     ry="2.0627522" />
</svg>
