<?xml version="1.0" encoding="UTF-8" standalone="no"?>
<svg
   width="64"
   height="64"
   version="1.1"
   viewBox="0 0 16.933 16.933"
   id="svg7"
   sodipodi:docname="Template 4.svg"
   inkscape:version="1.3.2 (091e20ef0f, 2023-11-25)"
   xmlns:inkscape="http://www.inkscape.org/namespaces/inkscape"
   xmlns:sodipodi="http://sodipodi.sourceforge.net/DTD/sodipodi-0.dtd"
   xmlns:xlink="http://www.w3.org/1999/xlink"
   xmlns="http://www.w3.org/2000/svg"
   xmlns:svg="http://www.w3.org/2000/svg"
   xmlns:rdf="http://www.w3.org/1999/02/22-rdf-syntax-ns#"
   xmlns:cc="http://creativecommons.org/ns#"
   xmlns:dc="http://purl.org/dc/elements/1.1/">
  <sodipodi:namedview
     id="namedview7"
     pagecolor="#9c4444"
     bordercolor="#000000"
     borderopacity="0.25"
     inkscape:showpageshadow="2"
     inkscape:pageopacity="0.0"
     inkscape:pagecheckerboard="0"
     inkscape:deskcolor="#d1d1d1"
     inkscape:zoom="4.3531261"
     inkscape:cx="32.964816"
     inkscape:cy="24.350317"
     inkscape:window-width="1463"
     inkscape:window-height="604"
     inkscape:window-x="42"
     inkscape:window-y="99"
     inkscape:window-maximized="0"
     inkscape:current-layer="svg7"
     showgrid="false" />
  <defs
     id="defs2">
    <linearGradient
       id="linearGradient5"
       inkscape:collect="always">
      <stop
         style="stop-color:#392713;stop-opacity:1;"
         offset="0"
         id="stop2" />
      <stop
         style="stop-color:#eed59e;stop-opacity:1;"
         offset="0.5"
         id="stop3" />
      <stop
         style="stop-color:#beaa8a;stop-opacity:1;"
         offset="1"
         id="stop4" />
    </linearGradient>
    <linearGradient
       id="linearGradient8"
       inkscape:collect="always">
      <stop
         style="stop-color:#1a1a1a;stop-opacity:1;"
         offset="0"
         id="stop8" />
      <stop
         style="stop-color:#ffffff;stop-opacity:0;"
         offset="1"
         id="stop9" />
    </linearGradient>
    <linearGradient
       inkscape:collect="always"
       xlink:href="#linearGradient5"
       id="linearGradient41"
       x1="13.675659"
       y1="16.110115"
       x2="13.728528"
       y2="10.548769"
       gradientUnits="userSpaceOnUse"
       gradientTransform="matrix(2.046153,0,0,2.046153,-18.798306,-18.911347)" />
    <linearGradient
       inkscape:collect="always"
       xlink:href="#linearGradient42"
       id="linearGradient4"
       x1="11.885941"
       y1="16.50819"
       x2="12.026573"
       y2="10.244942"
       gradientUnits="userSpaceOnUse"
       gradientTransform="matrix(2.046153,0,0,2.046153,-18.798306,-18.911347)" />
    <linearGradient
       id="linearGradient42"
       inkscape:collect="always">
      <stop
         style="stop-color:#010101;stop-opacity:1;"
         offset="0"
         id="stop42" />
      <stop
         style="stop-color:#6e6c6d;stop-opacity:1;"
         offset="1"
         id="stop43" />
    </linearGradient>
    <linearGradient
       inkscape:collect="always"
       xlink:href="#linearGradient8"
       id="linearGradient9"
       x1="9.3404646"
       y1="4.1692023"
       x2="9.4279938"
       y2="16.46883"
       gradientUnits="userSpaceOnUse"
       gradientTransform="matrix(1.05,0,0,1.05,-0.50277005,-0.1977751)" />
    <filter
       style="color-interpolation-filters:sRGB;"
       inkscape:label="Blur"
       id="filter2"
       x="-0.14510849"
       y="-0.14612901"
       width="1.290217"
       height="1.292258">
      <feGaussianBlur
         stdDeviation="0.6 0.6"
         result="blur"
         id="feGaussianBlur2" />
    </filter>
    <linearGradient
       id="b"
       x2="1"
       gradientTransform="matrix(-0.15598952,-8.4517946,8.4517946,-0.15598952,8.6516278,12.692258)"
       gradientUnits="userSpaceOnUse">
      <stop
         stop-color="#b5c6cb"
         offset="0"
         id="stop3-4" />
      <stop
         stop-color="#fff"
         offset="1"
         id="stop4-3" />
    </linearGradient>
    <clipPath
       clipPathUnits="userSpaceOnUse"
       id="clipPath2617">
      <path
         id="path2619"
         style="display:block;fill:#813d9c;stroke-width:1.6"
         d="m 32.117188,5.8242188 -6.511719,6.5117192 6.513672,6.511718 6.509765,-6.509765 z m 0.002,13.0234372 -6.511719,6.511719 6.513672,6.509766 6.509765,-6.507813 z m 6.511718,6.513672 6.513672,6.509766 6.507813,-6.507813 -6.511719,-6.513672 z m 6.513672,6.509766 -6.511719,6.511718 6.513672,6.511719 6.507813,-6.509765 z m -6.511719,6.511718 -6.511718,-6.513671 -6.511719,6.511718 6.513672,6.511719 z m -6.509765,6.509766 -6.509766,6.509766 6.511719,6.511718 6.509766,-6.507812 z m -6.513672,-6.511719 -6.509766,-6.513671 -6.511718,6.511718 6.513671,6.511719 z m -6.509766,-6.513671 6.507813,-6.507813 -6.509766,-6.513672 -6.511718,6.509766 z" />
    </clipPath>
    <inkscape:path-effect
       effect="powerclip"
       id="path-effect2621"
       is_visible="true"
       lpeversion="1"
       inverse="true"
       flatten="false"
       hide_clip="false"
       message="Use fill-rule evenodd on &lt;b&gt;fill and stroke&lt;/b&gt; dialog if no flatten result after convert clip to paths." />
    <clipPath
       clipPathUnits="userSpaceOnUse"
       id="clipPath2617-4">
      <path
         id="path2619-8"
         style="display:none;fill:#813d9c;stroke-width:1.6"
         d="m 32.117188,5.8242188 -6.511719,6.5117192 6.513672,6.511718 6.509765,-6.509765 z m 0.002,13.0234372 -6.511719,6.511719 6.513672,6.509766 6.509765,-6.507813 z m 6.511718,6.513672 6.513672,6.509766 6.507813,-6.507813 -6.511719,-6.513672 z m 6.513672,6.509766 -6.511719,6.511718 6.513672,6.511719 6.507813,-6.509765 z m -6.511719,6.511718 -6.511718,-6.513671 -6.511719,6.511718 6.513672,6.511719 z m -6.509765,6.509766 -6.509766,6.509766 6.511719,6.511718 6.509766,-6.507812 z m -6.513672,-6.511719 -6.509766,-6.513671 -6.511718,6.511718 6.513671,6.511719 z m -6.509766,-6.513671 6.507813,-6.507813 -6.509766,-6.513672 -6.511718,6.509766 z" />
      <path
         id="lpe_path-effect2621-7"
         style="fill:#813d9c;stroke-width:1.6"
         class="powerclip"
         d="M -3.000003,-3 H 67 V 67.000277 H -3.000003 Z m 35.117191,8.8242188 -6.511719,6.5117192 6.513672,6.511718 6.509765,-6.509765 z m 0.002,13.0234372 -6.511719,6.511719 6.513672,6.509766 6.509765,-6.507813 z m 6.511718,6.513672 6.513672,6.509766 6.507813,-6.507813 -6.511719,-6.513672 z m 6.513672,6.509766 -6.511719,6.511718 6.513672,6.511719 6.507813,-6.509765 z m -6.511719,6.511718 -6.511718,-6.513671 -6.511719,6.511718 6.513672,6.511719 z m -6.509765,6.509766 -6.509766,6.509766 6.511719,6.511718 6.509766,-6.507812 z m -6.513672,-6.511719 -6.509766,-6.513671 -6.511718,6.511718 6.513671,6.511719 z m -6.509766,-6.513671 6.507813,-6.507813 -6.509766,-6.513672 -6.511718,6.509766 z" />
    </clipPath>
    <inkscape:path-effect
       effect="powerclip"
       id="path-effect2621-1"
       is_visible="true"
       lpeversion="1"
       inverse="true"
       flatten="false"
       hide_clip="false"
       message="Use fill-rule evenodd on &lt;b&gt;fill and stroke&lt;/b&gt; dialog if no flatten result after convert clip to paths." />
    <clipPath
       clipPathUnits="userSpaceOnUse"
       id="clipath_lpe_path-effect2621-1">
      <path
         id="path55"
         style="display:block;fill:#813d9c;stroke-width:1.6"
         d="m 32.117188,5.8242188 -6.511719,6.5117192 6.513672,6.511718 6.509765,-6.509765 z m 0.002,13.0234372 -6.511719,6.511719 6.513672,6.509766 6.509765,-6.507813 z m 6.511718,6.513672 6.513672,6.509766 6.507813,-6.507813 -6.511719,-6.513672 z m 6.513672,6.509766 -6.511719,6.511718 6.513672,6.511719 6.507813,-6.509765 z m -6.511719,6.511718 -6.511718,-6.513671 -6.511719,6.511718 6.513672,6.511719 z m -6.509765,6.509766 -6.509766,6.509766 6.511719,6.511718 6.509766,-6.507812 z m -6.513672,-6.511719 -6.509766,-6.513671 -6.511718,6.511718 6.513671,6.511719 z m -6.509766,-6.513671 6.507813,-6.507813 -6.509766,-6.513672 -6.511718,6.509766 z" />
    </clipPath>
    <linearGradient
       inkscape:collect="always"
       xlink:href="#linearGradient5"
       id="linearGradient71"
       x1="9.0810137"
       y1="13.109455"
       x2="9.017046"
       y2="3.923316"
       gradientUnits="userSpaceOnUse" />
  </defs>
  <metadata
     id="metadata2">
    <rdf:RDF>
      <cc:Work
         rdf:about="">
        <dc:format>image/svg+xml</dc:format>
        <dc:type
           rdf:resource="http://purl.org/dc/dcmitype/StillImage" />
      </cc:Work>
    </rdf:RDF>
  </metadata>
  <rect
     style="fill:#000000;fill-opacity:0.996424;stroke:#000000;stroke-width:0.911802;stroke-dasharray:none;stroke-opacity:1;filter:url(#filter2)"
     id="rect1-2-3"
     width="13.065404"
     height="12.974159"
     x="1.9816793"
     y="1.9267306"
     rx="2.7149384"
     ry="2.8310909" />
  <rect
     style="fill:url(#linearGradient4);fill-opacity:0.996424;stroke:url(#linearGradient41);stroke-width:0.911802;stroke-dasharray:none;stroke-opacity:1"
     id="rect1-2"
     width="13.065404"
     height="12.974159"
     x="1.9816793"
     y="1.9267306"
     rx="2.7149384"
     ry="2.8310909" />
  <path
     d="m 6.9705081,4.360181 c -0.00572,0.2133558 -0.3771827,0.028574 -0.3933748,0.2724097 -0.4119481,-0.1835908 0.031432,0.279077 -0.00976,0.3219386 h -0.00214 l -0.031194,-0.0031 c -0.01977,-0.0069 -0.048582,-0.018807 -0.091444,-0.045238 C 6.3556814,4.975484 6.2942464,5.0671602 6.2430505,5.1688376 5.8994429,5.7029414 5.7320443,6.1491789 5.6189372,6.7120953 5.4748744,7.4309805 5.4398707,8.2710689 5.4543961,8.9799531 5.4698741,9.1797361 5.5196411,9.3688036 5.6832297,9.4950074 6.1444687,9.8738568 6.5278424,10.352479 6.915026,10.808479 7.6774872,11.84192 8.3454147,12.72368 8.7806986,13.650444 8.7328364,13.338982 8.6706871,12.843692 8.640922,12.461033 8.3766085,11.111844 7.8363135,10.398436 7.7744022,8.8916105 7.7598768,8.5187141 8.1615858,7.7653014 8.6113951,7.3700217 9.2900379,6.7735304 9.7805658,6.9235462 10.646371,7.0516549 c 0.0048,7.143e-4 0.01119,0.00239 0.01596,0.0031 0.02858,0.00476 0.06,0.010239 0.08834,0.015716 0.231453,0.020716 0.696263,0.1107259 0.779606,-0.049053 -0.319086,-0.2716957 -0.778182,-0.3069374 -1.166793,-0.4136153 -0.06143,-0.01143 -0.138348,-0.02405 -0.213832,-0.031194 L 9.769136,6.4920722 9.6738879,6.4670695 v 0.0031 L 8.3118397,6.2046609 c -0.021669,-0.019764 -0.045481,-0.039528 -0.06715,-0.054529 L 9.573401,6.3149112 v -0.00667 c 0.046671,0.010477 0.093581,0.019526 0.1407292,0.025003 v 0.0031 l 0.9391458,0.173114 c 0.161922,0.060483 0.334559,0.1064398 0.496719,0.1164409 0.267647,0.038813 0.607207,0.4383794 0.694835,0.4574291 C 11.801968,6.6632807 11.382638,6.4746894 11.034269,6.351343 10.627321,6.1534651 10.018687,6.1606087 9.9546318,5.6131701 9.9372492,5.575309 9.9208187,5.5372098 9.8998641,5.5005392 L 9.741276,5.2902789 9.747226,5.2874289 C 9.5310157,5.0321566 9.226698,4.8457084 8.9033306,4.7745104 8.5821063,4.6637844 8.221354,4.554011 7.8817944,4.5099587 7.7663062,4.8492802 7.6377212,4.2411209 7.3605491,4.421378 7.1176664,4.4504286 7.1512414,4.5142448 6.9705081,4.360181 Z m 1.67851,0.7650806 c 0.085723,-0.0031 0.1838289,0.016668 0.2824107,0.059054 0.2624086,0.112869 0.4331408,0.3514656 0.3828974,0.5333896 C 9.2640828,5.8996289 9.0092941,5.9532059 8.7466474,5.8400987 8.4842389,5.7269916 8.3135066,5.4917287 8.36375,5.3100429 8.3954199,5.1964596 8.5059078,5.1297859 8.6490181,5.1252616 Z"
     fill="#ff7111"
     fill-rule="nonzero"
     id="path3-3"
     style="fill:#000000;stroke-width:0.23812;opacity:0.3" />
  <path
     d="m 6.9705081,3.8310248 c -0.00572,0.2133558 -0.3771827,0.028574 -0.3933748,0.2724097 -0.4119481,-0.1835908 0.031432,0.279077 -0.00976,0.3219386 h -0.00214 l -0.031194,-0.0031 c -0.01977,-0.0069 -0.048582,-0.018807 -0.091444,-0.045238 C 6.3556814,4.4463278 6.2942464,4.538004 6.2430505,4.6396814 5.8994429,5.1737852 5.7320443,5.6200227 5.6189372,6.1829391 5.4748744,6.9018243 5.4398707,7.7419127 5.4543961,8.4507969 c 0.015478,0.199783 0.065245,0.3888505 0.2288336,0.5150543 0.461239,0.3788494 0.8446127,0.8574712 1.2317963,1.3134718 0.7624612,1.033441 1.4303887,1.915201 1.8656726,2.841965 C 8.7328364,12.809826 8.6706871,12.314536 8.640922,11.931877 8.3766085,10.582688 7.8363135,9.8692796 7.7744022,8.3624543 7.7598768,7.9895579 8.1615858,7.2361452 8.6113951,6.8408655 9.2900379,6.2443742 9.7805658,6.39439 10.646371,6.5224987 c 0.0048,7.143e-4 0.01119,0.00239 0.01596,0.0031 0.02858,0.00476 0.06,0.010239 0.08834,0.015716 0.231453,0.020716 0.696263,0.1107259 0.779606,-0.049053 -0.319086,-0.2716957 -0.778182,-0.3069374 -1.166793,-0.4136153 -0.06143,-0.01143 -0.138348,-0.02405 -0.213832,-0.031194 L 9.769136,5.962916 9.6738879,5.9379133 v 0.0031 L 8.3118397,5.6755047 c -0.021669,-0.019764 -0.045481,-0.039528 -0.06715,-0.054529 L 9.573401,5.785755 v -0.00667 c 0.046671,0.010477 0.093581,0.019526 0.1407292,0.025003 v 0.0031 l 0.9391458,0.173114 c 0.161922,0.060483 0.334559,0.1064398 0.496719,0.1164409 0.267647,0.038813 0.607207,0.4383794 0.694835,0.4574291 C 11.801968,6.1341245 11.382638,5.9455332 11.034269,5.8221868 10.627321,5.6243089 10.018687,5.6314525 9.9546318,5.0840139 9.9372492,5.0461528 9.9208187,5.0080536 9.8998641,4.971383 L 9.741276,4.7611227 9.747226,4.7582727 C 9.5310157,4.5030004 9.226698,4.3165522 8.9033306,4.2453542 8.5821063,4.1346282 8.221354,4.0248548 7.8817944,3.9808025 7.7663062,4.320124 7.6377212,3.7119647 7.3605491,3.8922218 7.1176664,3.9212724 7.1512414,3.9850886 6.9705081,3.8310248 Z m 1.67851,0.7650806 c 0.085723,-0.0031 0.1838289,0.016668 0.2824107,0.059054 C 9.1938374,4.7680284 9.3645696,5.006625 9.3143262,5.188549 9.2640828,5.3704727 9.0092941,5.4240497 8.7466474,5.3109425 8.4842389,5.1978354 8.3135066,4.9625725 8.36375,4.7808867 8.3954199,4.6673034 8.5059078,4.6006297 8.6490181,4.5961054 Z"
     fill="#ff7111"
     fill-rule="nonzero"
     id="path3"
     style="stroke-width:0.23812;fill:url(#linearGradient71)" />
  <rect
     style="opacity:0.5;fill:none;fill-opacity:0.996424;stroke:url(#linearGradient9);stroke-width:0.566102;stroke-dasharray:none;stroke-opacity:1"
     id="rect1-2-6"
     width="11.574203"
     height="11.508601"
     x="2.729686"
     y="2.6615164"
     rx="2.0246315"
     ry="2.0627522" />
</svg>
