<?xml version="1.0" encoding="UTF-8" standalone="no"?>
<svg
   width="64"
   height="64"
   version="1.1"
   viewBox="0 0 16.933 16.933"
   id="svg7"
   sodipodi:docname="Template 4.svg"
   inkscape:version="1.3.2 (091e20ef0f, 2023-11-25)"
   xmlns:inkscape="http://www.inkscape.org/namespaces/inkscape"
   xmlns:sodipodi="http://sodipodi.sourceforge.net/DTD/sodipodi-0.dtd"
   xmlns:xlink="http://www.w3.org/1999/xlink"
   xmlns="http://www.w3.org/2000/svg"
   xmlns:svg="http://www.w3.org/2000/svg"
   xmlns:rdf="http://www.w3.org/1999/02/22-rdf-syntax-ns#"
   xmlns:cc="http://creativecommons.org/ns#"
   xmlns:dc="http://purl.org/dc/elements/1.1/">
  <sodipodi:namedview
     id="namedview7"
     pagecolor="#9c4444"
     bordercolor="#000000"
     borderopacity="0.25"
     inkscape:showpageshadow="2"
     inkscape:pageopacity="0.0"
     inkscape:pagecheckerboard="0"
     inkscape:deskcolor="#d1d1d1"
     inkscape:zoom="4.3531261"
     inkscape:cx="32.964816"
     inkscape:cy="24.350317"
     inkscape:window-width="1463"
     inkscape:window-height="604"
     inkscape:window-x="42"
     inkscape:window-y="99"
     inkscape:window-maximized="0"
     inkscape:current-layer="svg7"
     showgrid="false" />
  <defs
     id="defs2">
    <linearGradient
       id="linearGradient5"
       inkscape:collect="always">
      <stop
         style="stop-color:#392713;stop-opacity:1;"
         offset="0"
         id="stop2" />
      <stop
         style="stop-color:#eed59e;stop-opacity:1;"
         offset="0.5"
         id="stop3" />
      <stop
         style="stop-color:#beaa8a;stop-opacity:1;"
         offset="1"
         id="stop4" />
    </linearGradient>
    <linearGradient
       id="linearGradient8"
       inkscape:collect="always">
      <stop
         style="stop-color:#1a1a1a;stop-opacity:1;"
         offset="0"
         id="stop8" />
      <stop
         style="stop-color:#ffffff;stop-opacity:0;"
         offset="1"
         id="stop9" />
    </linearGradient>
    <linearGradient
       inkscape:collect="always"
       xlink:href="#linearGradient5"
       id="linearGradient41"
       x1="13.675659"
       y1="16.110115"
       x2="13.728528"
       y2="10.548769"
       gradientUnits="userSpaceOnUse"
       gradientTransform="matrix(2.046153,0,0,2.046153,-18.798306,-18.911347)" />
    <linearGradient
       inkscape:collect="always"
       xlink:href="#linearGradient42"
       id="linearGradient4"
       x1="11.885941"
       y1="16.50819"
       x2="12.026573"
       y2="10.244942"
       gradientUnits="userSpaceOnUse"
       gradientTransform="matrix(2.046153,0,0,2.046153,-18.798306,-18.911347)" />
    <linearGradient
       id="linearGradient42"
       inkscape:collect="always">
      <stop
         style="stop-color:#010101;stop-opacity:1;"
         offset="0"
         id="stop42" />
      <stop
         style="stop-color:#6e6c6d;stop-opacity:1;"
         offset="1"
         id="stop43" />
    </linearGradient>
    <linearGradient
       inkscape:collect="always"
       xlink:href="#linearGradient8"
       id="linearGradient9"
       x1="9.3404646"
       y1="4.1692023"
       x2="9.4279938"
       y2="16.46883"
       gradientUnits="userSpaceOnUse"
       gradientTransform="matrix(1.05,0,0,1.05,-0.50277005,-0.1977751)" />
    <filter
       style="color-interpolation-filters:sRGB;"
       inkscape:label="Blur"
       id="filter2"
       x="-0.14510849"
       y="-0.14612901"
       width="1.290217"
       height="1.292258">
      <feGaussianBlur
         stdDeviation="0.6 0.6"
         result="blur"
         id="feGaussianBlur2" />
    </filter>
    <linearGradient
       inkscape:collect="always"
       xlink:href="#linearGradient5"
       id="linearGradient51"
       x1="9.3718805"
       y1="11.38411"
       x2="9.3643999"
       y2="5.6279788"
       gradientUnits="userSpaceOnUse" />
  </defs>
  <metadata
     id="metadata2">
    <rdf:RDF>
      <cc:Work
         rdf:about="">
        <dc:format>image/svg+xml</dc:format>
        <dc:type
           rdf:resource="http://purl.org/dc/dcmitype/StillImage" />
      </cc:Work>
    </rdf:RDF>
  </metadata>
  <rect
     style="fill:#000000;fill-opacity:0.996424;stroke:#000000;stroke-width:0.911802;stroke-dasharray:none;stroke-opacity:1;filter:url(#filter2)"
     id="rect1-2-3"
     width="13.065404"
     height="12.974159"
     x="1.9816793"
     y="1.9267306"
     rx="2.7149384"
     ry="2.8310909" />
  <rect
     style="fill:url(#linearGradient4);fill-opacity:0.996424;stroke:url(#linearGradient41);stroke-width:0.911802;stroke-dasharray:none;stroke-opacity:1"
     id="rect1-2"
     width="13.065404"
     height="12.974159"
     x="1.9816793"
     y="1.9267306"
     rx="2.7149384"
     ry="2.8310909" />
  <path
     d="m 12.475894,7.4110557 c 0.09347,1.1538531 0.09319,1.8824243 5.52e-4,3.0365583 -0.04434,0.549253 -0.45465,1.251279 -1.033836,1.35294 -1.8465611,0.144584 -4.0373569,0.126511 -5.9514095,0 -0.5981057,-0.07625 -0.9900656,-0.803687 -1.0344015,-1.35294 -0.092907,-1.1538521 -0.092907,-1.8104127 0,-2.964266 0.043771,-0.5489699 0.4461791,-1.2724579 1.0329895,-1.33882 1.8920256,-0.1609633 4.0932707,-0.1265115 5.9516905,0 0.665598,0.02485 0.988937,0.7175578 1.034403,1.2665277 z m -2.293023,1.2594677 c -0.01214,-0.015815 -0.02767,-0.024286 -0.04744,-0.028239 L 9.7222895,8.5787455 C 9.6996975,8.5056065 9.6686345,8.431055 9.6296645,8.3550916 c 0.027112,-0.039535 0.067775,-0.091213 0.121993,-0.1603986 0.053938,-0.069186 0.092343,-0.1194517 0.1149332,-0.1510796 0.011862,-0.016097 0.018072,-0.036147 0.018072,-0.052242 0,-0.024287 -0.00513,-0.040099 -0.015813,-0.050548 -0.054212,-0.077376 -0.1781883,-0.2067119 -0.3724738,-0.38716 -0.018072,-0.016097 -0.036993,-0.024003 -0.056479,-0.024003 -0.022591,0 -0.040665,0.0079 -0.054219,0.019768 L 9.064881,7.793131 C 9.003039,7.7609383 8.9355474,7.7332639 8.8615604,7.7086958 L 8.7985874,7.2893439 c -0.00142,-0.019768 -0.01045,-0.035862 -0.026262,-0.048571 -0.015532,-0.012142 -0.03417,-0.020047 -0.055349,-0.020047 h -0.501246 c -0.043771,0 -0.07088,0.024003 -0.081329,0.064103 -0.019768,0.075964 -0.041229,0.2168767 -0.065516,0.4238702 -0.07088,0.024003 -0.1392192,0.051677 -0.2052989,0.086694 L 7.5518271,7.5516883 c -0.019768,-0.015815 -0.039254,-0.024003 -0.058738,-0.024003 -0.03304,0 -0.1044852,0.054219 -0.2134885,0.1629401 C 7.170315,7.7993463 7.0963283,7.880958 7.057076,7.9357415 c -0.013272,0.02005 -0.02005,0.035863 -0.02005,0.052525 0,0.019768 0.00734,0.035863 0.022309,0.054785 0.1010963,0.1228404 0.1815784,0.2276079 0.2417274,0.3140197 -0.037558,0.069751 -0.066926,0.1400665 -0.088106,0.2098172 L 6.79304,8.6307084 c -0.016661,0.00255 -0.031064,0.01186 -0.042924,0.027957 -0.01186,0.015815 -0.018072,0.036147 -0.018072,0.052242 v 0.5060467 c 0,0.019768 0.00621,0.036146 0.018072,0.053654 0.011578,0.015815 0.027674,0.023721 0.047441,0.027674 l 0.4131393,0.061561 c 0.020896,0.074552 0.05196,0.1496677 0.092625,0.2256311 -0.02711,0.0401 -0.067774,0.091495 -0.1219928,0.1609634 -0.054219,0.069186 -0.092625,0.1197342 -0.1149335,0.1516444 -0.01186,0.015815 -0.018072,0.035863 -0.018072,0.05196 0,0.020332 0.00481,0.036147 0.015532,0.052525 0.058738,0.08217 0.1829899,0.209534 0.3727572,0.382922 0.016379,0.01609 0.035299,0.02401 0.056479,0.02401 0.022592,0 0.041228,-0.0079 0.056478,-0.02005 l 0.3185391,-0.243987 c 0.061844,0.03219 0.1293351,0.06015 0.2033218,0.08443 l 0.062974,0.419352 c 0.0014,0.01977 0.010449,0.03586 0.026265,0.04857 0.015531,0.01214 0.034169,0.02005 0.055066,0.02005 h 0.501528 c 0.043771,0 0.07088,-0.02401 0.081328,-0.06411 0.019768,-0.07625 0.041229,-0.216878 0.065516,-0.42387 0.07088,-0.02401 0.1392191,-0.05168 0.2052986,-0.08669 l 0.3117608,0.246245 c 0.021181,0.01186 0.040665,0.01977 0.058738,0.01977 0.03304,0 0.1042025,-0.05394 0.2123587,-0.161529 0.1084383,-0.108437 0.1829899,-0.189766 0.2236546,-0.246244 0.013275,-0.015812 0.020052,-0.031627 0.020052,-0.052242 0,-0.02005 -0.00738,-0.039816 -0.022311,-0.05676 C 9.7652195,9.758873 9.6844547,9.6538233 9.6319296,9.5781422 9.6618627,9.5219462 9.6915177,9.453043 9.7200369,9.3708666 l 0.4179391,-0.063821 c 0.01807,-0.00255 0.03304,-0.012142 0.0449,-0.027958 0.01186,-0.015815 0.01807,-0.035864 0.01807,-0.052243 V 8.7207907 c 0,-0.020051 -0.0059,-0.035863 -0.01807,-0.053936 z M 8.8753978,9.3849749 C 8.7624414,9.4990608 8.6263286,9.5561044 8.4664944,9.5561044 8.306943,9.5561044 8.1708301,9.499061 8.0578738,9.3849749 7.9449166,9.2708886 7.8881558,9.1333637 7.8881558,8.9724003 c 0,-0.1606809 0.05676,-0.2984882 0.169718,-0.4122921 C 8.1708301,8.445739 8.306943,8.3889787 8.4664944,8.3889787 c 0.1598342,0 0.295947,0.057043 0.4089034,0.1711295 0.1126744,0.1140863 0.1694352,0.2513288 0.1694352,0.4122921 0,0.1609634 -0.05676,0.2984883 -0.1694352,0.4125746 z"
     fill="#ffffff"
     fill-rule="nonzero"
     id="path2-8"
     style="fill:#000000;fill-opacity:1;stroke-width:0.282392;opacity:0.3" />
  <path
     d="m 12.475894,6.8818995 c 0.09347,1.1538531 0.09319,1.8824243 5.52e-4,3.0365582 -0.04434,0.5492533 -0.45465,1.2512793 -1.033836,1.3529403 -1.8465611,0.144584 -4.0373569,0.126511 -5.9514095,0 C 4.8930948,11.19515 4.5011349,10.467711 4.456799,9.9184577 c -0.092907,-1.153852 -0.092907,-1.8104126 0,-2.9642659 0.043771,-0.5489699 0.4461791,-1.2724579 1.0329895,-1.33882 1.8920256,-0.1609633 4.0932707,-0.1265115 5.9516905,0 0.665598,0.02485 0.988937,0.7175578 1.034403,1.2665277 z m -2.293023,1.2594677 c -0.01214,-0.015815 -0.02767,-0.024286 -0.04744,-0.028239 L 9.7222895,8.0495893 c -0.022592,-0.073139 -0.053655,-0.1476905 -0.092625,-0.2236539 0.027112,-0.039535 0.067775,-0.091213 0.121993,-0.1603986 0.053938,-0.069186 0.092343,-0.1194517 0.1149332,-0.1510796 0.011862,-0.016097 0.018072,-0.036147 0.018072,-0.052242 0,-0.024287 -0.00513,-0.040099 -0.015813,-0.050548 -0.054212,-0.077376 -0.1781883,-0.2067119 -0.3724738,-0.38716 -0.018072,-0.016097 -0.036993,-0.024003 -0.056479,-0.024003 -0.022591,0 -0.040665,0.0079 -0.054219,0.019768 L 9.064881,7.2639748 C 9.003039,7.2317821 8.9355474,7.2041077 8.8615604,7.1795396 L 8.7985874,6.7601877 c -0.00142,-0.019768 -0.01045,-0.035862 -0.026262,-0.048571 -0.015532,-0.012142 -0.03417,-0.020047 -0.055349,-0.020047 h -0.501246 c -0.043771,0 -0.07088,0.024003 -0.081329,0.064103 -0.019768,0.075964 -0.041229,0.2168767 -0.065516,0.4238702 -0.07088,0.024003 -0.1392192,0.051677 -0.2052989,0.086694 L 7.5518271,7.0225321 c -0.019768,-0.015815 -0.039254,-0.024003 -0.058738,-0.024003 -0.03304,0 -0.1044852,0.054219 -0.2134885,0.1629401 C 7.170315,7.2701901 7.0963283,7.3518018 7.057076,7.4065853 c -0.013272,0.02005 -0.02005,0.035863 -0.02005,0.052525 0,0.019768 0.00734,0.035863 0.022309,0.054785 0.1010963,0.1228404 0.1815784,0.2276079 0.2417274,0.3140197 -0.037558,0.069751 -0.066926,0.1400665 -0.088106,0.2098172 L 6.79304,8.1015522 c -0.016661,0.00255 -0.031064,0.01186 -0.042924,0.027957 -0.01186,0.015815 -0.018072,0.036147 -0.018072,0.052242 v 0.5060467 c 0,0.019768 0.00621,0.036146 0.018072,0.053654 0.011578,0.015815 0.027674,0.023721 0.047441,0.027674 l 0.4131393,0.061561 c 0.020896,0.074552 0.05196,0.1496677 0.092625,0.2256311 -0.02711,0.0401 -0.067774,0.091495 -0.1219928,0.1609634 -0.054219,0.069186 -0.092625,0.1197342 -0.1149335,0.1516444 -0.01186,0.015815 -0.018072,0.035863 -0.018072,0.05196 0,0.020332 0.00481,0.036147 0.015532,0.052525 0.058738,0.082174 0.1829899,0.2095336 0.3727572,0.3829221 0.016379,0.016092 0.035299,0.024012 0.056479,0.024012 0.022592,0 0.041228,-0.00792 0.056478,-0.020052 L 7.8681083,9.6163057 c 0.061844,0.032193 0.1293351,0.06015 0.2033218,0.084435 l 0.062974,0.4193523 c 0.0014,0.01977 0.010449,0.03586 0.026265,0.04857 0.015531,0.01214 0.034169,0.02005 0.055066,0.02005 h 0.501528 c 0.043771,0 0.07088,-0.02401 0.081328,-0.06411 0.019768,-0.07625 0.041229,-0.216878 0.065516,-0.4238706 0.07088,-0.024006 0.1392191,-0.051679 0.2052986,-0.086694 l 0.3117608,0.2462452 c 0.021181,0.011862 0.040665,0.019773 0.058738,0.019773 0.03304,0 0.1042025,-0.053938 0.2123587,-0.1615284 0.1084383,-0.1084378 0.1829899,-0.1897669 0.2236546,-0.2462442 0.013275,-0.015812 0.020052,-0.031627 0.020052,-0.052242 0,-0.02005 -0.00738,-0.039816 -0.022311,-0.05676 C 9.7652195,9.2297168 9.6844547,9.1246671 9.6319296,9.048986 9.6618627,8.99279 9.6915177,8.9238868 9.7200369,8.8417104 l 0.4179391,-0.063821 c 0.01807,-0.00255 0.03304,-0.012142 0.0449,-0.027958 0.01186,-0.015815 0.01807,-0.035864 0.01807,-0.052243 V 8.1916345 c 0,-0.020051 -0.0059,-0.035863 -0.01807,-0.053936 z M 8.8753978,8.8558187 C 8.7624414,8.9699046 8.6263286,9.0269482 8.4664944,9.0269482 8.306943,9.0269482 8.1708301,8.9699048 8.0578738,8.8558187 7.9449166,8.7417324 7.8881558,8.6042075 7.8881558,8.4432441 c 0,-0.1606809 0.05676,-0.2984882 0.169718,-0.4122921 0.1129563,-0.1143692 0.2490692,-0.1711295 0.4086206,-0.1711295 0.1598342,0 0.295947,0.057043 0.4089034,0.1711295 0.1126744,0.1140863 0.1694352,0.2513288 0.1694352,0.4122921 0,0.1609634 -0.05676,0.2984883 -0.1694352,0.4125746 z"
     fill="#ffffff"
     fill-rule="nonzero"
     id="path2"
     style="fill:url(#linearGradient51);fill-opacity:1;stroke-width:0.282392" />
  <rect
     style="opacity:0.5;fill:none;fill-opacity:0.996424;stroke:url(#linearGradient9);stroke-width:0.566102;stroke-dasharray:none;stroke-opacity:1"
     id="rect1-2-6"
     width="11.574203"
     height="11.508601"
     x="2.729686"
     y="2.6615164"
     rx="2.0246315"
     ry="2.0627522" />
</svg>
