<?xml version="1.0" encoding="UTF-8" standalone="no"?>
<svg
   width="64"
   height="64"
   version="1.1"
   viewBox="0 0 16.933 16.933"
   id="svg7"
   sodipodi:docname="Template 4.svg"
   inkscape:version="1.3.2 (091e20ef0f, 2023-11-25)"
   xmlns:inkscape="http://www.inkscape.org/namespaces/inkscape"
   xmlns:sodipodi="http://sodipodi.sourceforge.net/DTD/sodipodi-0.dtd"
   xmlns:xlink="http://www.w3.org/1999/xlink"
   xmlns="http://www.w3.org/2000/svg"
   xmlns:svg="http://www.w3.org/2000/svg"
   xmlns:rdf="http://www.w3.org/1999/02/22-rdf-syntax-ns#"
   xmlns:cc="http://creativecommons.org/ns#"
   xmlns:dc="http://purl.org/dc/elements/1.1/">
  <sodipodi:namedview
     id="namedview7"
     pagecolor="#9c4444"
     bordercolor="#000000"
     borderopacity="0.25"
     inkscape:showpageshadow="2"
     inkscape:pageopacity="0.0"
     inkscape:pagecheckerboard="0"
     inkscape:deskcolor="#d1d1d1"
     inkscape:zoom="4.3531261"
     inkscape:cx="32.964816"
     inkscape:cy="24.350317"
     inkscape:window-width="1463"
     inkscape:window-height="604"
     inkscape:window-x="199"
     inkscape:window-y="276"
     inkscape:window-maximized="0"
     inkscape:current-layer="svg7"
     showgrid="false" />
  <defs
     id="defs2">
    <linearGradient
       id="linearGradient5"
       inkscape:collect="always">
      <stop
         style="stop-color:#392713;stop-opacity:1;"
         offset="0"
         id="stop2" />
      <stop
         style="stop-color:#eed59e;stop-opacity:1;"
         offset="0.5"
         id="stop3" />
      <stop
         style="stop-color:#beaa8a;stop-opacity:1;"
         offset="1"
         id="stop4" />
    </linearGradient>
    <linearGradient
       id="linearGradient8"
       inkscape:collect="always">
      <stop
         style="stop-color:#1a1a1a;stop-opacity:1;"
         offset="0"
         id="stop8" />
      <stop
         style="stop-color:#ffffff;stop-opacity:0;"
         offset="1"
         id="stop9" />
    </linearGradient>
    <linearGradient
       inkscape:collect="always"
       xlink:href="#linearGradient5"
       id="linearGradient41"
       x1="13.675659"
       y1="16.110115"
       x2="13.728528"
       y2="10.548769"
       gradientUnits="userSpaceOnUse"
       gradientTransform="matrix(2.046153,0,0,2.046153,-18.798306,-18.911347)" />
    <linearGradient
       inkscape:collect="always"
       xlink:href="#linearGradient42"
       id="linearGradient4"
       x1="11.885941"
       y1="16.50819"
       x2="12.026573"
       y2="10.244942"
       gradientUnits="userSpaceOnUse"
       gradientTransform="matrix(2.046153,0,0,2.046153,-18.798306,-18.911347)" />
    <linearGradient
       id="linearGradient42"
       inkscape:collect="always">
      <stop
         style="stop-color:#010101;stop-opacity:1;"
         offset="0"
         id="stop42" />
      <stop
         style="stop-color:#6e6c6d;stop-opacity:1;"
         offset="1"
         id="stop43" />
    </linearGradient>
    <linearGradient
       inkscape:collect="always"
       xlink:href="#linearGradient8"
       id="linearGradient9"
       x1="9.3404646"
       y1="4.1692023"
       x2="9.4279938"
       y2="16.46883"
       gradientUnits="userSpaceOnUse"
       gradientTransform="matrix(1.05,0,0,1.05,-0.50277005,-0.1977751)" />
    <filter
       style="color-interpolation-filters:sRGB;"
       inkscape:label="Blur"
       id="filter2"
       x="-0.14510849"
       y="-0.14612901"
       width="1.290217"
       height="1.292258">
      <feGaussianBlur
         stdDeviation="0.6 0.6"
         result="blur"
         id="feGaussianBlur2" />
    </filter>
    <linearGradient
       inkscape:collect="always"
       xlink:href="#linearGradient5"
       id="linearGradient32"
       x1="33.600353"
       y1="50.204117"
       x2="33.649647"
       y2="14.066485"
       gradientUnits="userSpaceOnUse"
       gradientTransform="matrix(0.23573911,0,0,0.23573911,0.92563105,0.83065494)" />
  </defs>
  <metadata
     id="metadata2">
    <rdf:RDF>
      <cc:Work
         rdf:about="">
        <dc:format>image/svg+xml</dc:format>
        <dc:type
           rdf:resource="http://purl.org/dc/dcmitype/StillImage" />
      </cc:Work>
    </rdf:RDF>
  </metadata>
  <rect
     style="fill:#000000;fill-opacity:0.996424;stroke:#000000;stroke-width:0.911802;stroke-dasharray:none;stroke-opacity:1;filter:url(#filter2)"
     id="rect1-2-3"
     width="13.065404"
     height="12.974159"
     x="1.9816793"
     y="1.9267306"
     rx="2.7149384"
     ry="2.8310909" />
  <rect
     style="fill:url(#linearGradient4);fill-opacity:0.996424;stroke:url(#linearGradient41);stroke-width:0.911802;stroke-dasharray:none;stroke-opacity:1"
     id="rect1-2"
     width="13.065404"
     height="12.974159"
     x="1.9816793"
     y="1.9267306"
     rx="2.7149384"
     ry="2.8310909" />
  <path
     id="path84-5"
     style="fill:#000000;fill-opacity:1;stroke-width:0.0421221;stroke-opacity:0.3;opacity:0.3"
     d="M 8.6559173,4.7130579 C 7.9628228,4.6976783 7.3629661,4.8333898 6.7348731,5.1430513 5.2057086,5.8969574 4.2769652,7.4923435 4.370667,9.2039339 c 0.028952,0.5288253 0.096393,0.8443921 0.2846354,1.3325251 l 0.1306705,0.339334 0.11193,-0.07293 C 5.3032434,10.539636 5.4522393,10.434839 5.4519813,10.412376 5.4518208,10.398282 5.40577,10.251479 5.3496748,10.086209 4.7064003,8.1909547 5.7926908,6.1495201 7.7265429,5.6201499 8.1483519,5.5046842 9.0347321,5.5139864 9.4662717,5.6383822 10.005788,5.793905 10.628596,6.1508246 10.94618,6.4862141 c 0.06804,0.071859 0.140156,0.1306695 0.160045,0.1306695 0.01988,0 0.179282,-0.096997 0.354527,-0.2152501 L 11.779324,6.1868873 11.574709,5.9761952 C 10.895984,5.2778548 9.9044364,4.8048413 8.9592939,4.7287586 8.8561293,4.720458 8.7549307,4.715255 8.6559173,4.7130586 Z M 6.6908102,6.4482262 c -0.00941,0 -0.017221,0.2154427 -0.017221,0.4786154 V 7.4054565 L 7.1790473,7.7508691 C 7.4570508,7.9407976 7.684506,8.1036294 7.684506,8.112996 c 0,0.00937 -0.2274548,0.1732603 -0.5054587,0.3641522 L 6.6735892,8.8240807 v 0.4760826 c 0,0.2617355 0.00833,0.4760825 0.018229,0.4760825 0.066597,0 2.4672314,-1.6594106 2.4391643,-1.6860407 C 9.0805668,8.042371 6.7114775,6.4482262 6.6908052,6.4482262 Z m 5.5939718,0.5054579 c -0.01387,0 -0.170799,0.095751 -0.348958,0.2127181 l -0.324141,0.2127174 0.118514,0.2821043 c 0.190136,0.4537582 0.264349,0.9116876 0.239558,1.4783882 -0.02427,0.5550982 -0.09602,0.8585017 -0.307426,1.3066939 -0.447757,0.949296 -1.253567,1.616485 -2.2720281,1.881539 C 8.9461668,12.443432 8.1469004,12.435366 7.7093236,12.310624 7.1092843,12.13957 6.5853464,11.831578 6.1585096,11.39847 L 5.9594661,11.196389 5.6216499,11.418223 5.283327,11.640057 5.4362814,11.813775 c 0.5762972,0.654591 1.4321964,1.15326 2.2902615,1.334553 0.459473,0.09708 1.2013701,0.103718 1.6338755,0.0147 C 11.516088,12.719283 12.951097,10.801134 12.775045,8.597698 12.758395,8.389257 12.704435,8.073005 12.655519,7.8947117 12.560269,7.547525 12.326391,6.9536886 12.284782,6.9536886 Z m -1.853178,1.2286982 c -0.01799,0.00773 -0.5772199,0.3811868 -1.2428782,0.8301055 L 7.9787661,9.8289186 9.0453939,10.550132 c 0.5868253,0.396677 1.1417171,0.772348 1.2327521,0.834665 0.09103,0.06232 0.169961,0.114074 0.175743,0.115474 0.0058,0.0014 0.01014,-0.220077 0.0096,-0.492289 l -4.9e-4,-0.494821 -0.5049532,-0.332245 C 9.6804838,9.9981734 9.4536005,9.8428181 9.4536005,9.8355029 c 0,-0.00731 0.2274517,-0.1676273 0.5054587,-0.3560489 L 10.464517,9.1370795 V 8.6523877 c 0,-0.2663344 -0.01493,-0.4777273 -0.03292,-0.4700054 z" />
  <path
     id="path84"
     style="fill:url(#linearGradient32);fill-opacity:1;stroke-width:0.0421221;stroke-opacity:0.3"
     d="M 8.6559173,4.1839017 C 7.9628228,4.1685221 7.3629661,4.3042336 6.7348731,4.6138951 5.2057086,5.3678012 4.2769652,6.9631873 4.370667,8.6747777 4.3996189,9.203603 4.4670598,9.51917 4.6553024,10.007303 l 0.1306705,0.339334 0.11193,-0.07293 C 5.3032434,10.01048 5.4522393,9.9056827 5.4519813,9.8832196 5.4518208,9.8691256 5.40577,9.7223231 5.3496748,9.5570528 4.7064003,7.6617985 5.7926908,5.6203639 7.7265429,5.0909937 8.1483519,4.975528 9.0347321,4.9848302 9.4662717,5.109226 10.005788,5.2647488 10.628596,5.6216684 10.94618,5.9570579 c 0.06804,0.071859 0.140156,0.1306695 0.160045,0.1306695 0.01988,0 0.179282,-0.096997 0.354527,-0.2152501 L 11.779324,5.6577311 11.574709,5.447039 C 10.895984,4.7486986 9.9044364,4.2756851 8.9592939,4.1996024 8.8561293,4.1913018 8.7549307,4.1860988 8.6559173,4.1839024 Z M 6.6908102,5.91907 c -0.00941,0 -0.017221,0.2154427 -0.017221,0.4786154 v 0.4786149 l 0.5054581,0.3454126 c 0.2780035,0.1899285 0.5054587,0.3527603 0.5054587,0.3621269 0,0.00937 -0.2274548,0.1732603 -0.5054587,0.3641522 L 6.6735892,8.2949245 v 0.4760826 c 0,0.2617355 0.00833,0.4760825 0.018229,0.4760825 0.066597,0 2.4672314,-1.6594106 2.4391643,-1.6860408 C 9.0805668,7.5132148 6.7114775,5.91907 6.6908052,5.91907 Z m 5.5939718,0.5054579 c -0.01387,0 -0.170799,0.095751 -0.348958,0.2127181 l -0.324141,0.2127174 0.118514,0.2821043 c 0.190136,0.4537582 0.264349,0.9116876 0.239558,1.4783882 -0.02427,0.5550982 -0.09602,0.8585017 -0.307426,1.3066937 C 11.214572,10.866446 10.408762,11.533635 9.3903009,11.798689 8.9461668,11.914276 8.1469004,11.90621 7.7093236,11.781468 7.1092843,11.610414 6.5853464,11.302422 6.1585096,10.869314 L 5.9594661,10.667233 5.6216499,10.889067 5.283327,11.110901 5.4362814,11.284619 c 0.5762972,0.654591 1.4321964,1.15326 2.2902615,1.334553 0.459473,0.09708 1.2013701,0.103718 1.6338755,0.0147 2.1556696,-0.443745 3.5906786,-2.361894 3.4146266,-4.5653302 -0.01665,-0.208441 -0.07061,-0.524693 -0.119526,-0.7029863 -0.09525,-0.3471867 -0.329128,-0.9410231 -0.370737,-0.9410231 z m -1.853178,1.2286982 c -0.01799,0.00773 -0.5772199,0.3811868 -1.2428782,0.8301055 L 7.9787661,9.2997624 9.0453939,10.020976 c 0.5868253,0.396677 1.1417171,0.772348 1.2327521,0.834665 0.09103,0.06232 0.169961,0.114074 0.175743,0.115474 0.0058,0.0014 0.01014,-0.220077 0.0096,-0.492289 L 10.462999,9.9840043 9.9580458,9.6517597 C 9.6804838,9.4690172 9.4536005,9.3136619 9.4536005,9.3063467 c 0,-0.00731 0.2274517,-0.1676273 0.5054587,-0.3560489 L 10.464517,8.6079233 V 8.1232315 c 0,-0.2663344 -0.01493,-0.4777273 -0.03292,-0.4700054 z" />
  <rect
     style="opacity:0.5;fill:none;fill-opacity:0.996424;stroke:url(#linearGradient9);stroke-width:0.566102;stroke-dasharray:none;stroke-opacity:1"
     id="rect1-2-6"
     width="11.574203"
     height="11.508601"
     x="2.729686"
     y="2.6615164"
     rx="2.0246315"
     ry="2.0627522" />
</svg>
