<?xml version="1.0" encoding="UTF-8" standalone="no"?>
<svg
   width="64"
   height="64"
   version="1.1"
   viewBox="0 0 16.933 16.933"
   id="svg7"
   sodipodi:docname="Template 4.svg"
   inkscape:version="1.3.2 (091e20ef0f, 2023-11-25)"
   xmlns:inkscape="http://www.inkscape.org/namespaces/inkscape"
   xmlns:sodipodi="http://sodipodi.sourceforge.net/DTD/sodipodi-0.dtd"
   xmlns:xlink="http://www.w3.org/1999/xlink"
   xmlns="http://www.w3.org/2000/svg"
   xmlns:svg="http://www.w3.org/2000/svg"
   xmlns:rdf="http://www.w3.org/1999/02/22-rdf-syntax-ns#"
   xmlns:cc="http://creativecommons.org/ns#"
   xmlns:dc="http://purl.org/dc/elements/1.1/">
  <sodipodi:namedview
     id="namedview7"
     pagecolor="#9c4444"
     bordercolor="#000000"
     borderopacity="0.25"
     inkscape:showpageshadow="2"
     inkscape:pageopacity="0.0"
     inkscape:pagecheckerboard="0"
     inkscape:deskcolor="#d1d1d1"
     inkscape:zoom="4.3531261"
     inkscape:cx="32.964816"
     inkscape:cy="24.350317"
     inkscape:window-width="1463"
     inkscape:window-height="604"
     inkscape:window-x="199"
     inkscape:window-y="276"
     inkscape:window-maximized="0"
     inkscape:current-layer="svg7"
     showgrid="false" />
  <defs
     id="defs2">
    <linearGradient
       id="linearGradient5"
       inkscape:collect="always">
      <stop
         style="stop-color:#392713;stop-opacity:1;"
         offset="0"
         id="stop2" />
      <stop
         style="stop-color:#eed59e;stop-opacity:1;"
         offset="0.5"
         id="stop3" />
      <stop
         style="stop-color:#beaa8a;stop-opacity:1;"
         offset="1"
         id="stop4" />
    </linearGradient>
    <linearGradient
       id="linearGradient8"
       inkscape:collect="always">
      <stop
         style="stop-color:#1a1a1a;stop-opacity:1;"
         offset="0"
         id="stop8" />
      <stop
         style="stop-color:#ffffff;stop-opacity:0;"
         offset="1"
         id="stop9" />
    </linearGradient>
    <linearGradient
       inkscape:collect="always"
       xlink:href="#linearGradient5"
       id="linearGradient41"
       x1="13.675659"
       y1="16.110115"
       x2="13.728528"
       y2="10.548769"
       gradientUnits="userSpaceOnUse"
       gradientTransform="matrix(2.046153,0,0,2.046153,-18.798306,-18.911347)" />
    <linearGradient
       inkscape:collect="always"
       xlink:href="#linearGradient42"
       id="linearGradient4"
       x1="11.885941"
       y1="16.50819"
       x2="12.026573"
       y2="10.244942"
       gradientUnits="userSpaceOnUse"
       gradientTransform="matrix(2.046153,0,0,2.046153,-18.798306,-18.911347)" />
    <linearGradient
       id="linearGradient42"
       inkscape:collect="always">
      <stop
         style="stop-color:#010101;stop-opacity:1;"
         offset="0"
         id="stop42" />
      <stop
         style="stop-color:#6e6c6d;stop-opacity:1;"
         offset="1"
         id="stop43" />
    </linearGradient>
    <linearGradient
       inkscape:collect="always"
       xlink:href="#linearGradient8"
       id="linearGradient9"
       x1="9.3404646"
       y1="4.1692023"
       x2="9.4279938"
       y2="16.46883"
       gradientUnits="userSpaceOnUse"
       gradientTransform="matrix(1.05,0,0,1.05,-0.50277005,-0.1977751)" />
    <filter
       style="color-interpolation-filters:sRGB;"
       inkscape:label="Blur"
       id="filter2"
       x="-0.14510849"
       y="-0.14612901"
       width="1.290217"
       height="1.292258">
      <feGaussianBlur
         stdDeviation="0.6 0.6"
         result="blur"
         id="feGaussianBlur2" />
    </filter>
    <linearGradient
       inkscape:collect="always"
       xlink:href="#linearGradient5"
       id="linearGradient6"
       x1="8.7106314"
       y1="12.700382"
       x2="8.5519857"
       y2="4.131043"
       gradientUnits="userSpaceOnUse" />
  </defs>
  <metadata
     id="metadata2">
    <rdf:RDF>
      <cc:Work
         rdf:about="">
        <dc:format>image/svg+xml</dc:format>
        <dc:type
           rdf:resource="http://purl.org/dc/dcmitype/StillImage" />
      </cc:Work>
    </rdf:RDF>
  </metadata>
  <rect
     style="fill:#000000;fill-opacity:0.996424;stroke:#000000;stroke-width:0.911802;stroke-dasharray:none;stroke-opacity:1;filter:url(#filter2)"
     id="rect1-2-3"
     width="13.065404"
     height="12.974159"
     x="1.9816793"
     y="1.9267306"
     rx="2.7149384"
     ry="2.8310909" />
  <rect
     style="fill:url(#linearGradient4);fill-opacity:0.996424;stroke:url(#linearGradient41);stroke-width:0.911802;stroke-dasharray:none;stroke-opacity:1"
     id="rect1-2"
     width="13.065404"
     height="12.974159"
     x="1.9816793"
     y="1.9267306"
     rx="2.7149384"
     ry="2.8310909" />
  <path
     id="path5-5"
     d="m 5.6234129,13.141234 c -0.00186,-0.0017 -0.00406,-0.0034 -0.00594,-0.0051 -0.2537185,-0.233565 -0.3485507,-0.575085 -0.2477819,-0.906607 7.8e-4,-0.0022 0.00141,-0.0045 0.00219,-0.0068 L 6.0321126,10.171287 4.3306037,8.9276915 C 3.8797217,8.6238227 3.8044184,7.8884445 4.159531,7.4808387 l 4.3069688,1.5148132 c 0,0 -2.8490236,4.1404261 -2.8430869,4.1455821 z M 8.4664998,4.6211912 c -0.4083872,0.00578 -0.6997574,0.251844 -0.8364593,0.6591376 l 0.005,-0.018279 -0.6416396,1.8588332 h -2.164269 c -0.0047,-1.563e-4 -0.00922,-1.563e-4 -0.013904,0 -0.2584063,0.00844 -0.4915026,0.1601366 -0.655701,0.3599557 l 4.306969,1.5148132 z M 5.6174762,13.136078 c 0.00187,0.0017 0.00406,0.0034 0.00594,0.0051 0.3049623,0.271061 0.7335032,0.305588 1.0779921,0.08108 0.00656,-0.0042 0.012967,-0.0085 0.019373,-0.01328 l 1.7457185,-1.245001 1.7457222,1.245003 c 0.0064,0.0047 0.01296,0.0091 0.01952,0.01328 0.344334,0.224503 0.772875,0.189977 1.077836,-0.08108 0.0019,-0.0017 0.004,-0.0034 0.0059,-0.0051 L 8.4664998,8.9956519 Z m 5.6921108,0.0051 c 0.0019,-0.0017 0.004,-0.0034 0.0059,-0.0051 0.253718,-0.233565 0.348551,-0.575084 0.247781,-0.906607 -8.02e-4,-0.0022 -0.0014,-0.0045 -0.0022,-0.0068 l -0.660181,-2.051384 1.701509,-1.2435973 c 0.450882,-0.3038688 0.526185,-1.0392469 0.171072,-1.4468528 l -4.3069682,1.514815 c 0,0 2.8490232,4.1404261 2.8430872,4.1455821 z M 8.4664998,4.6211912 c 0.4083871,0.00579 0.6997575,0.251844 0.8364594,0.6591376 l -0.005,-0.018279 0.6416396,1.8588332 h 2.1642642 c 0.0047,-1.563e-4 0.0092,-1.563e-4 0.0139,0 0.258405,0.00843 0.491502,0.1601366 0.6557,0.3599557 L 8.4664998,8.9956519 Z"
     style="fill:#000000;stroke-width:0.15623;opacity:0.3" />
  <path
     id="path5"
     d="m 5.6234129,12.612078 c -0.00186,-0.0017 -0.00406,-0.0034 -0.00594,-0.0051 -0.2537185,-0.233565 -0.3485507,-0.575085 -0.2477819,-0.906607 7.8e-4,-0.0022 0.00141,-0.0045 0.00219,-0.0068 L 6.0321126,9.6421311 4.3306037,8.3985353 C 3.8797217,8.0946665 3.8044184,7.3592883 4.159531,6.9516825 l 4.3069688,1.5148132 c 0,0 -2.8490236,4.1404263 -2.8430869,4.1455823 z M 8.4664998,4.092035 C 8.0581126,4.097816 7.7667424,4.343879 7.6300405,4.7511726 l 0.005,-0.018279 -0.6416396,1.8588332 h -2.164269 c -0.0047,-1.563e-4 -0.00922,-1.563e-4 -0.013904,0 -0.2584063,0.00844 -0.4915026,0.1601366 -0.655701,0.3599557 l 4.306969,1.5148132 z m -2.8490236,8.514887 c 0.00187,0.0017 0.00406,0.0034 0.00594,0.0051 0.3049623,0.271061 0.7335032,0.305588 1.0779921,0.08108 0.00656,-0.0042 0.012967,-0.0085 0.019373,-0.01328 l 1.7457185,-1.245001 1.7457222,1.245003 c 0.0064,0.0047 0.01296,0.0091 0.01952,0.01328 0.344334,0.224503 0.772875,0.189977 1.077836,-0.08108 0.0019,-0.0017 0.004,-0.0034 0.0059,-0.0051 L 8.4664998,8.4664957 Z m 5.6921108,0.0051 c 0.0019,-0.0017 0.004,-0.0034 0.0059,-0.0051 0.253718,-0.233565 0.348551,-0.575084 0.247781,-0.906607 -8.02e-4,-0.0022 -0.0014,-0.0045 -0.0022,-0.0068 L 10.900887,9.6421304 12.602396,8.3985335 c 0.450882,-0.3038688 0.526185,-1.0392469 0.171072,-1.4468528 l -4.3069682,1.514815 c 0,0 2.8490232,4.1404263 2.8430872,4.1455823 z M 8.4664998,4.092035 c 0.4083871,0.00579 0.6997575,0.251844 0.8364594,0.6591376 l -0.005,-0.018279 0.6416396,1.8588332 h 2.1642642 c 0.0047,-1.563e-4 0.0092,-1.563e-4 0.0139,0 0.258405,0.00843 0.491502,0.1601366 0.6557,0.3599557 L 8.4664998,8.4664957 Z"
     style="stroke-width:0.15623;fill:url(#linearGradient6)" />
  <rect
     style="opacity:0.5;fill:none;fill-opacity:0.996424;stroke:url(#linearGradient9);stroke-width:0.566102;stroke-dasharray:none;stroke-opacity:1"
     id="rect1-2-6"
     width="11.574203"
     height="11.508601"
     x="2.729686"
     y="2.6615164"
     rx="2.0246315"
     ry="2.0627522" />
</svg>
