<?xml version="1.0" encoding="UTF-8" standalone="no"?>
<svg
   width="64"
   height="64"
   version="1.1"
   viewBox="0 0 16.933 16.933"
   id="svg7"
   sodipodi:docname="Template 4.svg"
   inkscape:version="1.3.2 (091e20ef0f, 2023-11-25)"
   xmlns:inkscape="http://www.inkscape.org/namespaces/inkscape"
   xmlns:sodipodi="http://sodipodi.sourceforge.net/DTD/sodipodi-0.dtd"
   xmlns:xlink="http://www.w3.org/1999/xlink"
   xmlns="http://www.w3.org/2000/svg"
   xmlns:svg="http://www.w3.org/2000/svg"
   xmlns:rdf="http://www.w3.org/1999/02/22-rdf-syntax-ns#"
   xmlns:cc="http://creativecommons.org/ns#"
   xmlns:dc="http://purl.org/dc/elements/1.1/">
  <sodipodi:namedview
     id="namedview7"
     pagecolor="#9c4444"
     bordercolor="#000000"
     borderopacity="0.25"
     inkscape:showpageshadow="2"
     inkscape:pageopacity="0.0"
     inkscape:pagecheckerboard="0"
     inkscape:deskcolor="#d1d1d1"
     inkscape:zoom="4.3531261"
     inkscape:cx="32.964816"
     inkscape:cy="24.350317"
     inkscape:window-width="1463"
     inkscape:window-height="604"
     inkscape:window-x="199"
     inkscape:window-y="276"
     inkscape:window-maximized="0"
     inkscape:current-layer="svg7"
     showgrid="false" />
  <defs
     id="defs2">
    <linearGradient
       id="linearGradient5"
       inkscape:collect="always">
      <stop
         style="stop-color:#392713;stop-opacity:1;"
         offset="0"
         id="stop2" />
      <stop
         style="stop-color:#eed59e;stop-opacity:1;"
         offset="0.5"
         id="stop3" />
      <stop
         style="stop-color:#beaa8a;stop-opacity:1;"
         offset="1"
         id="stop4" />
    </linearGradient>
    <linearGradient
       id="linearGradient8"
       inkscape:collect="always">
      <stop
         style="stop-color:#1a1a1a;stop-opacity:1;"
         offset="0"
         id="stop8" />
      <stop
         style="stop-color:#ffffff;stop-opacity:0;"
         offset="1"
         id="stop9" />
    </linearGradient>
    <linearGradient
       inkscape:collect="always"
       xlink:href="#linearGradient5"
       id="linearGradient41"
       x1="13.675659"
       y1="16.110115"
       x2="13.728528"
       y2="10.548769"
       gradientUnits="userSpaceOnUse"
       gradientTransform="matrix(2.046153,0,0,2.046153,-18.798306,-18.911347)" />
    <linearGradient
       inkscape:collect="always"
       xlink:href="#linearGradient42"
       id="linearGradient4"
       x1="11.885941"
       y1="16.50819"
       x2="12.026573"
       y2="10.244942"
       gradientUnits="userSpaceOnUse"
       gradientTransform="matrix(2.046153,0,0,2.046153,-18.798306,-18.911347)" />
    <linearGradient
       id="linearGradient42"
       inkscape:collect="always">
      <stop
         style="stop-color:#010101;stop-opacity:1;"
         offset="0"
         id="stop42" />
      <stop
         style="stop-color:#6e6c6d;stop-opacity:1;"
         offset="1"
         id="stop43" />
    </linearGradient>
    <linearGradient
       inkscape:collect="always"
       xlink:href="#linearGradient8"
       id="linearGradient9"
       x1="9.3404646"
       y1="4.1692023"
       x2="9.4279938"
       y2="16.46883"
       gradientUnits="userSpaceOnUse"
       gradientTransform="matrix(1.05,0,0,1.05,-0.50277005,-0.1977751)" />
    <filter
       style="color-interpolation-filters:sRGB;"
       inkscape:label="Blur"
       id="filter2"
       x="-0.14510849"
       y="-0.14612901"
       width="1.290217"
       height="1.292258">
      <feGaussianBlur
         stdDeviation="0.6 0.6"
         result="blur"
         id="feGaussianBlur2" />
    </filter>
    <linearGradient
       inkscape:collect="always"
       xlink:href="#linearGradient5"
       id="linearGradient17"
       x1="8.936904"
       y1="12.778054"
       x2="9.1805153"
       y2="3.8951783"
       gradientUnits="userSpaceOnUse" />
  </defs>
  <metadata
     id="metadata2">
    <rdf:RDF>
      <cc:Work
         rdf:about="">
        <dc:format>image/svg+xml</dc:format>
        <dc:type
           rdf:resource="http://purl.org/dc/dcmitype/StillImage" />
      </cc:Work>
    </rdf:RDF>
  </metadata>
  <rect
     style="fill:#000000;fill-opacity:0.996424;stroke:#000000;stroke-width:0.911802;stroke-dasharray:none;stroke-opacity:1;filter:url(#filter2)"
     id="rect1-2-3"
     width="13.065404"
     height="12.974159"
     x="1.9816793"
     y="1.9267306"
     rx="2.7149384"
     ry="2.8310909" />
  <rect
     style="fill:url(#linearGradient4);fill-opacity:0.996424;stroke:url(#linearGradient41);stroke-width:0.911802;stroke-dasharray:none;stroke-opacity:1"
     id="rect1-2"
     width="13.065404"
     height="12.974159"
     x="1.9816793"
     y="1.9267306"
     rx="2.7149384"
     ry="2.8310909" />
  <path
     style="fill:#000000;fill-opacity:1;stroke-width:0.0260549;opacity:0.3"
     d="M 6.7947877,13.440352 C 6.4070862,13.30157 6.2163651,13.056867 6.2115076,12.69198 c -0.00234,-0.175987 0.013692,-0.241736 0.086567,-0.354956 0.049194,-0.07643 0.1367148,-0.166292 0.1944903,-0.199701 l 0.1050469,-0.06074 -0.043306,0.14759 c -0.081549,0.277927 0.035995,0.473921 0.3005918,0.501205 0.1874614,0.01933 0.371304,-0.07416 0.4449654,-0.226277 C 7.4194071,12.252228 7.3171657,11.920706 7.0022491,11.534074 6.8412143,11.336367 6.7550735,11.175361 6.7167616,11.000469 6.6898822,10.877769 6.692485,10.483832 6.7210816,10.346644 6.7638476,10.141475 6.9494247,9.7958917 7.1086507,9.6249091 7.2684716,9.4532886 7.3075165,9.3212283 7.2095516,9.2836357 7.1286525,9.2525922 7.1205606,9.2565014 7.1273605,9.323344 7.1385928,9.4337794 7.1269362,9.4587542 6.9595868,9.6829311 6.784873,9.9169672 6.7284237,10.024031 6.658251,10.254453 6.597193,10.454945 6.593462,10.85015 6.650841,11.03952 c 0.065335,0.215637 0.1382972,0.376899 0.1705266,0.376899 0.014445,0 0.026259,0.01634 0.026259,0.03631 0,0.02288 -0.048204,0.02783 -0.1302746,0.0134 C 6.3667845,11.404457 6.0749073,11.176003 5.923139,10.844498 5.8469785,10.67814 5.8348987,10.610048 5.8469442,10.414976 5.8668559,10.092482 6.0003071,9.8372301 6.3016736,9.5452111 6.6283108,9.2287054 6.7153817,9.0751393 6.701878,8.8393778 6.6924727,8.6751725 6.6821467,8.6533061 6.6091234,8.6429741 c -0.1270991,-0.017981 -0.1737648,0.054001 -0.062446,0.096325 0.052379,0.019916 0.092423,0.061915 0.092313,0.096826 -2.971e-4,0.100524 -0.070205,0.3222034 -0.1015817,0.3222034 -0.064226,0 -0.2260206,-0.4027776 -0.2333778,-0.5809766 C 6.2977491,8.4251763 6.3198524,8.3494701 6.4409693,8.1083632 6.5698374,7.8518238 6.5854045,7.7942397 6.5854476,7.5739352 6.5855071,7.3628762 6.5716676,7.3061303 6.4902581,7.1831116 6.4378773,7.1039588 6.3825566,7.0391975 6.3673236,7.0391975 c -0.015232,0 -0.06191,0.031875 -0.1037265,0.070834 -0.076641,0.071402 -0.1057404,0.2418256 -0.04129,0.2418256 0.019108,0 0.03474,-0.01381 0.03474,-0.030687 0,-0.016878 0.035174,-0.041239 0.078165,-0.054134 0.074,-0.022197 0.074586,-0.02487 0.01099,-0.050169 -0.048983,-0.019485 -0.055413,-0.033992 -0.023745,-0.053564 0.051162,-0.031621 0.048867,-0.033676 0.1212392,0.1086649 0.094018,0.184915 0.073998,0.4772056 -0.05068,0.7399472 L 6.2858632,8.2377228 6.2201852,8.1161337 C 6.0717594,7.8413536 6.0072232,7.5550578 5.9930856,7.1086773 5.9810622,6.7289994 5.9901365,6.6340923 6.0653125,6.3534441 6.1918426,5.8810758 6.3558139,5.581214 6.6689555,5.2495322 6.922012,4.9814929 7.1212611,4.831277 7.4227069,4.6812736 8.9655416,3.9135356 10.7945,4.8061818 11.15062,6.5007298 c 0.01204,0.05732 0.02195,0.3074477 0.02201,0.5558376 1.12e-4,0.4028979 -0.01057,0.4842109 -0.09893,0.7537384 -0.146132,0.4458041 -0.161101,0.457008 -0.284688,0.2130972 -0.08462,-0.1670056 -0.102634,-0.2452416 -0.102634,-0.4457382 0,-0.2519665 0.0851,-0.4608954 0.167103,-0.4102192 0.02654,0.016405 0.0254,0.027601 -0.0038,0.037337 -0.0607,0.020234 -0.05106,0.066197 0.01908,0.090935 0.03344,0.011795 0.08033,0.030553 0.104221,0.041686 0.07533,0.035116 0.04742,-0.079688 -0.04651,-0.1913208 -0.04946,-0.058787 -0.102907,-0.1068852 -0.118757,-0.1068852 -0.04972,0 -0.168162,0.2212305 -0.204113,0.3812328 -0.04644,0.2066832 -2.33e-4,0.4281476 0.156234,0.7490539 0.113303,0.2323582 0.125044,0.2814937 0.107616,0.4503551 -0.01832,0.1775155 -0.176012,0.5384888 -0.235237,0.5384888 -0.01417,0 -0.04459,-0.078496 -0.0676,-0.1744363 -0.0447,-0.1863479 -0.0134,-0.2771817 0.09553,-0.2771817 0.04143,0 0.0436,-0.010262 0.01057,-0.050045 -0.04277,-0.051537 -0.138388,-0.035836 -0.183565,0.03014 -0.03843,0.056118 -0.03168,0.2203848 0.01562,0.3806421 0.03088,0.1046036 0.120083,0.2201293 0.33229,0.4303376 0.200921,0.1990269 0.318265,0.3485168 0.381777,0.4863572 0.105094,0.2280959 0.138885,0.5441759 0.08111,0.7587299 -0.0823,0.305672 -0.384698,0.596155 -0.722956,0.69449 -0.235037,0.06833 -0.277485,0.05379 -0.185275,-0.06343 0.107585,-0.136773 0.174372,-0.394065 0.173838,-0.669681 C 10.562762,10.279242 10.445025,9.9469652 10.18379,9.6322184 10.09138,9.5208787 10.043691,9.429233 10.043691,9.3629845 c 0,-0.1074842 -0.03026,-0.1257603 -0.097272,-0.058749 -0.070677,0.070687 -0.047673,0.132511 0.117827,0.3165904 0.369385,0.4108451 0.516788,0.9732161 0.37778,1.4413061 -0.0322,0.10845 -0.137401,0.291056 -0.265935,0.461634 -0.116959,0.155216 -0.2469601,0.366624 -0.2888929,0.469795 -0.1416719,0.348577 -0.015417,0.672593 0.2840519,0.728948 0.337459,0.0635 0.577376,-0.214538 0.449404,-0.520816 l -0.05229,-0.125156 0.09937,0.05138 c 0.288783,0.149336 0.388672,0.558485 0.222064,0.909585 -0.133055,0.280391 -0.57969,0.488147 -0.9625226,0.447722 C 9.5053175,13.440675 9.1807501,13.22311 9.0014164,12.864632 8.9007407,12.663388 8.8942825,12.627525 8.9001472,12.30228 c 0.00345,-0.191069 0.035807,-0.488093 0.071913,-0.660056 0.1133533,-0.539857 0.1206698,-0.587347 0.1114729,-0.723564 -0.00493,-0.07314 -0.027197,-0.188192 -0.049466,-0.255664 -0.043549,-0.131956 -0.2438894,-0.345083 -0.3716519,-0.395375 -0.1979321,-0.07791 -0.5168055,0.244278 -0.5594013,0.565222 -0.025795,0.194363 -0.022347,0.222748 0.094776,0.780098 0.090212,0.429287 0.09863,0.935145 0.01943,1.167581 -0.1760355,0.516635 -0.8931693,0.849289 -1.4224507,0.659827 z M 7.8550793,9.6961068 c 0,-0.00993 -0.039962,-0.081364 -0.088805,-0.1587359 C 7.5773921,9.2381624 7.6187843,9.08354 8.0514156,8.4722176 c 0.048936,-0.069148 0.049193,-0.078164 0.00222,-0.078164 -0.061949,0 -0.2596457,0.2645774 -0.3901848,0.5221835 -0.063865,0.1260334 -0.088229,0.2228323 -0.081504,0.3238355 0.011162,0.1676724 0.1571988,0.4740948 0.2259463,0.4740948 0.025948,0 0.047178,-0.00813 0.047178,-0.018059 z M 9.5035254,9.537425 C 9.6288102,9.3072353 9.6306306,9.1441584 9.5104993,8.9126123 9.3424104,8.5886286 9.105713,8.3027952 9.105713,8.4237971 c 0,0.016358 0.052423,0.098432 0.1164947,0.1823844 0.3032161,0.3972927 0.3503804,0.6090324 0.2007733,0.9013426 -0.1328777,0.2596211 -0.059344,0.2869198 0.080543,0.029901 z M 7.6982611,8.5075541 c 0.098085,-0.071991 0.2166717,-0.2736667 0.1815625,-0.3087757 -0.013375,-0.013375 -0.051772,-7.425e-4 -0.085326,0.028088 -0.033554,0.028823 -0.092273,0.064277 -0.1304874,0.078785 -0.068669,0.026072 -0.068683,0.026676 -0.0013,0.051751 0.064808,0.024117 0.063949,0.028048 -0.01737,0.079503 -0.047052,0.029773 -0.1207238,0.06463 -0.1637142,0.07746 -0.04299,0.012829 -0.078165,0.039863 -0.078165,0.06007 0,0.051868 0.1925156,0.00819 0.2948001,-0.066881 z m 2.0355372,0.04196 C 9.7325023,8.5308854 9.6863501,8.5039804 9.6313428,8.489726 9.5313613,8.4638182 9.3899629,8.3432264 9.486314,8.3660377 c 0.02473,0.00586 0.052127,-0.00889 0.060885,-0.032779 0.00891,-0.02429 -0.010935,-0.043424 -0.045032,-0.043424 -0.033525,0 -0.089639,-0.025959 -0.1246978,-0.057686 -0.094823,-0.085814 -0.1212925,-0.025601 -0.048317,0.1099078 0.085158,0.1581282 0.413218,0.326322 0.4046451,0.2074578 z M 7.9853541,8.148614 C 8.0665571,8.150224 8.132998,8.144964 8.132998,8.13693 8.132998,8.1289 8.066557,8.089632 7.9853541,8.049667 7.9038416,8.0095498 7.7928326,7.9133015 7.7375197,7.8347875 7.6071293,7.649703 7.4568403,7.5605873 7.2748212,7.5604261 7.1293088,7.5602728 6.9518435,7.6183286 6.9518435,7.6660421 c 0,0.055633 0.1759775,0.057752 0.2082587,0.00251 0.024881,-0.042579 0.033062,-0.025215 0.033863,0.071868 0.00247,0.2983758 0.1691683,0.4490277 0.4665424,0.4216142 0.09746,-0.00898 0.243641,-0.015023 0.3248458,-0.013419 z M 9.8288559,8.106052 c 0.076853,-0.062148 0.1453534,-0.22357 0.1453534,-0.3425389 0,-0.078947 0.01098,-0.1019088 0.036531,-0.076364 0.04188,0.041873 0.206651,0.019913 0.206651,-0.027543 0,-0.082976 -0.3340442,-0.1293691 -0.4927789,-0.068437 -0.086589,0.033239 -0.2566443,0.1890908 -0.3408788,0.3124095 -0.028608,0.041882 -0.1106806,0.1020321 -0.1823844,0.1336678 -0.16026,0.070707 -0.1703494,0.1287512 -0.017465,0.100487 0.062098,-0.011482 0.1598028,-0.0064 0.2171238,0.011281 0.1183972,0.036532 0.3594819,0.012323 0.427854,-0.042966 z M 8.8150956,7.9251995 c 0.06433,-0.04215 0.078991,-0.069328 0.051974,-0.096345 -0.027017,-0.027017 -0.057589,-0.019572 -0.1083813,0.026393 -0.088097,0.079726 -0.2567026,0.082753 -0.3413731,0.00613 -0.078854,-0.071362 -0.1106172,-0.073343 -0.1106172,-0.00689 0,0.1378238 0.3348898,0.1844099 0.5083981,0.070724 z M 6.802124,7.2642704 C 6.761683,7.0150645 6.852975,6.9026124 7.1076628,6.8879093 c 0.1315853,-0.0076 0.082925,-0.072974 -0.063513,-0.085333 -0.1039606,-0.00878 -0.14769,0.00874 -0.2318086,0.092862 -0.086924,0.086924 -0.1036766,0.1312413 -0.1036766,0.2742581 0,0.170665 0.017014,0.2169017 0.079815,0.2169017 0.018917,0 0.024855,-0.05324 0.013644,-0.1223277 z m 1.365614,0.08848 c 0,-0.018616 -0.044203,-0.056705 -0.098226,-0.084642 C 7.895381,7.1780612 7.6703788,6.8631464 7.6205162,6.6396905 7.5787986,6.4527344 7.61413,6.1531333 7.7030047,5.9401887 7.7528473,5.8207673 7.7863212,5.6635377 7.8018489,5.4759063 7.8174898,5.2869173 7.6873512,5.024288 7.5780626,5.024288 c -0.072018,0 -0.2093413,0.169879 -0.2093413,0.2589698 0,0.1062241 0.037089,0.1135328 0.096158,0.01895 0.023865,-0.038213 0.070616,-0.069977 0.1038914,-0.070585 0.056401,-0.00104 0.056241,-0.00434 -0.00238,-0.048775 -0.035604,-0.026995 -0.04811,-0.056794 -0.028837,-0.068706 0.018722,-0.01157 0.066554,0.020304 0.1062983,0.07083 0.1022463,0.1299844 0.09284,0.33374 -0.036345,0.7872917 -0.1290794,0.4531952 -0.1233152,0.6552643 0.026551,0.9306181 0.1434232,0.2635162 0.5336775,0.5924846 0.5336775,0.4498692 z M 9.2187526,7.2859262 C 9.5740354,7.0169234 9.7426451,6.5557737 9.6265103,6.1707032 9.432574,5.5276653 9.4121779,5.3288761 9.5253735,5.1849714 c 0.039743,-0.050526 0.087578,-0.0824 0.1062988,-0.07083 0.019274,0.011912 0.00678,0.041711 -0.028837,0.068706 -0.046409,0.035186 -0.049944,0.047958 -0.0135,0.048775 0.027156,6.152e-4 0.076979,0.026086 0.1107154,0.056617 0.059049,0.053439 0.1351986,0.042085 0.1351986,-0.020157 0,-0.061398 -0.1821257,-0.243794 -0.2434332,-0.243794 -0.1066524,0 -0.2187159,0.2245894 -0.2168275,0.4345484 0.00159,0.1757896 0.020919,0.2577632 0.1429901,0.6060972 0.083732,0.2389334 0.070597,0.5757054 -0.030298,0.7768318 -0.081473,0.1624122 -0.3440913,0.4406138 -0.4159328,0.4406138 -0.019534,0 -0.035516,0.023449 -0.035516,0.05211 0,0.073249 0.033359,0.064373 0.1825187,-0.048562 z m 1.2371934,0.025307 c 0.04621,-0.1248948 -0.01398,-0.3485825 -0.117798,-0.4378888 -0.06903,-0.059376 -0.127923,-0.078214 -0.220386,-0.070491 -0.0694,0.0058 -0.121248,0.026171 -0.115219,0.045278 0.0061,0.019108 0.03527,0.029714 0.06498,0.023573 0.08802,-0.0182 0.241513,0.061717 0.28902,0.1504815 0.02625,0.049051 0.03654,0.1398719 0.02532,0.2235184 -0.0201,0.1498363 0.02737,0.1918211 0.07409,0.065531 z M 8.4109167,6.816864 c 0,-0.00764 -0.056772,-0.070668 -0.1261609,-0.1400566 C 8.1672247,6.5592763 8.1600502,6.5400275 8.1798717,6.3954143 8.2007697,6.242945 8.1548607,6.1775271 8.1096483,6.2953494 c -0.057127,0.1488707 -0.018403,0.3166753 0.1055148,0.4572461 0.0577,0.065453 0.1957536,0.1107779 0.1957536,0.064268 z M 8.9611376,6.7433054 C 9.0798169,6.643444 9.1350513,6.4293924 9.0723654,6.3122631 9.0074588,6.1909832 8.9761124,6.2314275 8.9936394,6.4138369 9.0095523,6.5794303 9.0041622,6.5931373 8.8775318,6.7091256 8.721822,6.85175 8.7961475,6.8821362 8.9611376,6.7433054 Z M 5.1327161,10.426092 c -0.038188,-0.09952 -0.024058,-0.362146 0.025746,-0.4785464 0.057844,-0.1351895 0.212169,-0.285105 0.3452536,-0.3353877 0.1324749,-0.050053 0.4051874,-0.044537 0.5038171,0.010186 0.075279,0.041768 0.076614,0.047902 0.020527,0.094303 -0.071897,0.059481 -0.2218143,0.3707511 -0.2222922,0.4615381 -2.546e-4,0.04829 -0.01563,0.05788 -0.061134,0.03814 -0.2178239,-0.09452 -0.4474375,-0.02669 -0.5372256,0.158703 -0.041906,0.08653 -0.0571,0.09692 -0.074692,0.05107 z m 6.8502029,-0.0241 c -0.02378,-0.164924 -0.347816,-0.290881 -0.516326,-0.200697 -0.05636,0.03016 -0.06997,0.02105 -0.09045,-0.06055 -0.01326,-0.05283 -0.07533,-0.1821488 -0.137931,-0.2873693 -0.103166,-0.1733978 -0.1085,-0.1953752 -0.05696,-0.2347344 0.06952,-0.053083 0.350941,-0.056846 0.48426,-0.00647 0.119804,0.045266 0.278274,0.1914524 0.344076,0.3174083 0.05461,0.1045374 0.06708,0.4988694 0.01675,0.5299724 -0.01775,0.01097 -0.03729,-0.01493 -0.04343,-0.05756 z"
     id="path1-9-3" />
  <path
     style="opacity:1;fill:url(#linearGradient17);fill-opacity:1;stroke-width:0.0260549"
     d="M 6.7947877,12.911196 C 6.4070862,12.772414 6.2163651,12.527711 6.2115076,12.162824 c -0.00234,-0.175987 0.013692,-0.241736 0.086567,-0.354956 0.049194,-0.07643 0.1367148,-0.166292 0.1944903,-0.199701 l 0.1050469,-0.06074 -0.043306,0.14759 c -0.081549,0.277927 0.035995,0.473921 0.3005918,0.501205 0.1874614,0.01933 0.371304,-0.07416 0.4449654,-0.226277 C 7.4194071,11.723072 7.3171657,11.39155 7.0022491,11.004918 6.8412143,10.807211 6.7550735,10.646205 6.7167616,10.471313 6.6898822,10.348613 6.692485,9.9546758 6.7210816,9.8174882 6.7638476,9.6123189 6.9494247,9.2667355 7.1086507,9.0957529 7.2684716,8.9241324 7.3075165,8.7920721 7.2095516,8.7544795 7.1286525,8.723436 7.1205606,8.7273452 7.1273605,8.7941878 7.1385928,8.9046232 7.1269362,8.929598 6.9595868,9.1537749 6.784873,9.387811 6.7284237,9.4948743 6.658251,9.7252972 6.597193,9.9257885 6.593462,10.320994 6.650841,10.510364 c 0.065335,0.215637 0.1382972,0.376899 0.1705266,0.376899 0.014445,0 0.026259,0.01634 0.026259,0.03631 0,0.02288 -0.048204,0.02783 -0.1302746,0.0134 C 6.3667845,10.875301 6.0749073,10.646847 5.923139,10.315342 5.8469785,10.148984 5.8348987,10.080892 5.8469442,9.8858195 5.8668559,9.5633261 6.0003071,9.3080739 6.3016736,9.0160549 6.6283108,8.6995492 6.7153817,8.5459831 6.701878,8.3102216 6.6924727,8.1460163 6.6821467,8.1241499 6.6091234,8.1138179 c -0.1270991,-0.017981 -0.1737648,0.054001 -0.062446,0.096325 0.052379,0.019916 0.092423,0.061915 0.092313,0.096826 -2.971e-4,0.100524 -0.070205,0.3222034 -0.1015817,0.3222034 -0.064226,0 -0.2260206,-0.4027776 -0.2333778,-0.5809766 C 6.2977491,7.8960201 6.3198524,7.8203139 6.4409693,7.579207 6.5698374,7.3226676 6.5854045,7.2650835 6.5854476,7.044779 6.5855071,6.83372 6.5716676,6.7769741 6.4902581,6.6539554 6.4378773,6.5748026 6.3825566,6.5100413 6.3673236,6.5100413 c -0.015232,0 -0.06191,0.031875 -0.1037265,0.070834 -0.076641,0.071402 -0.1057404,0.2418256 -0.04129,0.2418256 0.019108,0 0.03474,-0.01381 0.03474,-0.030687 0,-0.016878 0.035174,-0.041239 0.078165,-0.054134 0.074,-0.022197 0.074586,-0.02487 0.01099,-0.050169 -0.048983,-0.019485 -0.055413,-0.033992 -0.023745,-0.053564 0.051162,-0.031621 0.048867,-0.033676 0.1212392,0.1086649 0.094018,0.184915 0.073998,0.4772056 -0.05068,0.7399472 L 6.2858632,7.7085666 6.2201852,7.5869775 C 6.0717594,7.3121974 6.0072232,7.0259016 5.9930856,6.5795211 5.9810622,6.1998432 5.9901365,6.1049361 6.0653125,5.8242879 6.1918426,5.3519196 6.3558139,5.0520578 6.6689555,4.720376 6.922012,4.4523367 7.1212611,4.3021208 7.4227069,4.1521174 8.9655416,3.3843794 10.7945,4.2770256 11.15062,5.9715736 c 0.01204,0.05732 0.02195,0.3074477 0.02201,0.5558376 1.12e-4,0.4028979 -0.01057,0.4842109 -0.09893,0.7537384 -0.146132,0.445804 -0.161101,0.457008 -0.284688,0.2130971 -0.08462,-0.1670055 -0.102634,-0.2452415 -0.102634,-0.4457381 0,-0.2519665 0.0851,-0.4608954 0.167103,-0.4102192 0.02654,0.016405 0.0254,0.027601 -0.0038,0.037337 -0.0607,0.020234 -0.05106,0.066197 0.01908,0.090935 0.03344,0.011795 0.08033,0.030553 0.104221,0.041686 0.07533,0.035116 0.04742,-0.079688 -0.04651,-0.1913208 -0.04946,-0.058787 -0.102907,-0.1068852 -0.118757,-0.1068852 -0.04972,0 -0.168162,0.2212305 -0.204113,0.3812328 -0.04644,0.2066832 -2.33e-4,0.4281476 0.156234,0.7490539 0.113303,0.2323581 0.125044,0.2814936 0.107616,0.4503551 -0.01832,0.1775154 -0.176012,0.5384888 -0.235237,0.5384888 -0.01417,0 -0.04459,-0.078496 -0.0676,-0.1744363 -0.0447,-0.1863479 -0.0134,-0.2771817 0.09553,-0.2771817 0.04143,0 0.0436,-0.010262 0.01057,-0.050045 -0.04277,-0.051537 -0.138388,-0.035836 -0.183565,0.03014 -0.03843,0.056118 -0.03168,0.2203848 0.01562,0.3806421 0.03088,0.1046036 0.120083,0.2201293 0.33229,0.4303376 0.200921,0.1990269 0.318265,0.3485168 0.381777,0.4863572 0.105094,0.2280957 0.138885,0.5441755 0.08111,0.7587301 -0.0823,0.305672 -0.384698,0.596155 -0.722956,0.69449 -0.235037,0.06833 -0.277485,0.05379 -0.185275,-0.06343 0.107585,-0.136773 0.174372,-0.394065 0.173838,-0.669681 C 10.562762,9.7500857 10.445025,9.417809 10.18379,9.1030622 10.09138,8.9917225 10.043691,8.9000768 10.043691,8.8338283 c 0,-0.1074842 -0.03026,-0.1257603 -0.097272,-0.058749 -0.070677,0.070687 -0.047673,0.132511 0.117827,0.3165904 0.369385,0.4108452 0.516788,0.9732163 0.37778,1.4413063 -0.0322,0.10845 -0.137401,0.291056 -0.265935,0.461634 -0.116959,0.155216 -0.2469601,0.366624 -0.2888929,0.469795 -0.1416719,0.348577 -0.015417,0.672593 0.2840519,0.728948 0.337459,0.0635 0.577376,-0.214538 0.449404,-0.520816 l -0.05229,-0.125156 0.09937,0.05138 c 0.288783,0.149336 0.388672,0.558485 0.222064,0.909585 -0.133055,0.280391 -0.57969,0.488147 -0.9625226,0.447722 C 9.5053175,12.911519 9.1807501,12.693954 9.0014164,12.335476 8.9007407,12.134232 8.8942825,12.098369 8.9001472,11.773124 8.9035942,11.582055 8.9359537,11.285031 8.9720599,11.113068 9.0854132,10.573211 9.0927297,10.525721 9.0835328,10.389504 9.0786008,10.316361 9.0563357,10.201312 9.034067,10.13384 8.9905178,10.001884 8.7901776,9.7887567 8.6624151,9.7384651 8.464483,9.6605512 8.1456096,9.9827423 8.1030138,10.303687 c -0.025795,0.194363 -0.022347,0.222748 0.094776,0.780098 0.090212,0.429287 0.09863,0.935145 0.01943,1.167581 -0.1760355,0.516635 -0.8931693,0.849289 -1.4224507,0.659827 z M 7.8550793,9.1669506 c 0,-0.00993 -0.039962,-0.081364 -0.088805,-0.1587359 -0.1888822,-0.2992085 -0.14749,-0.4538309 0.2851413,-1.0651533 0.048936,-0.069148 0.049193,-0.078164 0.00222,-0.078164 -0.061949,0 -0.2596457,0.2645774 -0.3901848,0.5221835 -0.063865,0.1260334 -0.088229,0.2228323 -0.081504,0.3238355 0.011162,0.1676724 0.1571988,0.4740948 0.2259463,0.4740948 0.025948,0 0.047178,-0.00813 0.047178,-0.018059 z M 9.5035254,9.0082688 C 9.6288102,8.7780791 9.6306306,8.6150022 9.5104993,8.3834561 9.3424104,8.0594724 9.105713,7.773639 9.105713,7.8946409 c 0,0.016358 0.052423,0.098432 0.1164947,0.1823844 C 9.5254238,8.474318 9.5725881,8.6860577 9.422981,8.9783679 9.2901033,9.237989 9.3636368,9.2652877 9.5035238,9.0082686 Z M 7.6982611,7.9783979 c 0.098085,-0.071991 0.2166717,-0.2736667 0.1815625,-0.3087757 -0.013375,-0.013375 -0.051772,-7.425e-4 -0.085326,0.028088 -0.033554,0.028823 -0.092273,0.064277 -0.1304874,0.078785 -0.068669,0.026072 -0.068683,0.026676 -0.0013,0.051751 0.064808,0.024117 0.063949,0.028048 -0.01737,0.079503 -0.047052,0.029773 -0.1207238,0.06463 -0.1637142,0.07746 -0.04299,0.012829 -0.078165,0.039863 -0.078165,0.06007 0,0.051868 0.1925156,0.00819 0.2948001,-0.066881 z m 2.0355372,0.04196 C 9.7325023,8.0017292 9.6863501,7.9748242 9.6313428,7.9605698 9.5313613,7.934662 9.3899629,7.8140702 9.486314,7.8368815 c 0.02473,0.00586 0.052127,-0.00889 0.060885,-0.032779 0.00891,-0.02429 -0.010935,-0.043424 -0.045032,-0.043424 -0.033525,0 -0.089639,-0.025959 -0.1246978,-0.057686 -0.094823,-0.085814 -0.1212925,-0.025601 -0.048317,0.1099078 0.085158,0.1581282 0.413218,0.326322 0.4046451,0.2074578 z M 7.9853541,7.6194578 c 0.081203,0.00161 0.1476439,-0.00365 0.1476439,-0.011684 0,-0.00803 -0.066441,-0.047298 -0.1476439,-0.087263 C 7.9038416,7.4803936 7.7928326,7.3841453 7.7375197,7.3056313 7.6071293,7.1205468 7.4568403,7.0314311 7.2748212,7.0312699 7.1293088,7.0311166 6.9518435,7.0891724 6.9518435,7.1368859 c 0,0.055633 0.1759775,0.057752 0.2082587,0.00251 0.024881,-0.042579 0.033062,-0.025215 0.033863,0.071868 0.00247,0.2983757 0.1691683,0.4490277 0.4665424,0.4216142 0.09746,-0.00898 0.243641,-0.015023 0.3248458,-0.013419 z m 1.8435018,-0.042562 c 0.076853,-0.062148 0.1453534,-0.22357 0.1453534,-0.3425389 0,-0.078947 0.01098,-0.1019088 0.036531,-0.076364 0.04188,0.041873 0.206651,0.019913 0.206651,-0.027543 0,-0.082976 -0.3340463,-0.1293691 -0.492781,-0.068437 -0.086589,0.033239 -0.2566443,0.1890908 -0.3408788,0.3124095 -0.028608,0.041882 -0.1106806,0.1020321 -0.1823844,0.1336678 -0.16026,0.070707 -0.1703494,0.1287512 -0.017465,0.100487 0.062098,-0.011482 0.1598028,-0.0064 0.2171238,0.011281 0.1183972,0.036532 0.3594819,0.012323 0.427854,-0.042966 z M 8.8150956,7.3960433 c 0.06433,-0.04215 0.078991,-0.069328 0.051974,-0.096345 -0.027017,-0.027017 -0.057589,-0.019572 -0.1083813,0.026393 -0.088097,0.079726 -0.2567026,0.082753 -0.3413731,0.00613 -0.078854,-0.071362 -0.1106172,-0.073343 -0.1106172,-0.00689 0,0.1378238 0.3348898,0.1844099 0.5083981,0.070724 z M 6.802124,6.7351142 C 6.761683,6.4859083 6.852975,6.3734562 7.1076628,6.3587531 c 0.1315853,-0.0076 0.082925,-0.072974 -0.063513,-0.085333 -0.1039606,-0.00878 -0.14769,0.00874 -0.2318086,0.092862 -0.086924,0.086924 -0.1036766,0.1312413 -0.1036766,0.2742581 0,0.170665 0.017014,0.2169017 0.079815,0.2169017 0.018917,0 0.024855,-0.05324 0.013644,-0.1223277 z m 1.365614,0.08848 c 0,-0.018616 -0.044203,-0.056705 -0.098226,-0.084642 C 7.895381,6.648905 7.6703788,6.3339902 7.6205162,6.1105343 7.5787986,5.9235782 7.61413,5.6239771 7.7030047,5.4110325 7.7528473,5.2916111 7.7863212,5.1343815 7.8018489,4.9467501 7.8174898,4.7577611 7.6873512,4.4951318 7.5780626,4.4951318 c -0.072018,0 -0.2093413,0.169879 -0.2093413,0.2589698 0,0.1062241 0.037089,0.1135328 0.096158,0.01895 0.023865,-0.038213 0.070616,-0.069977 0.1038914,-0.070585 0.056401,-0.00104 0.056241,-0.00434 -0.00238,-0.048775 -0.035604,-0.026995 -0.04811,-0.056794 -0.028837,-0.068706 0.018722,-0.01157 0.066554,0.020304 0.1062983,0.07083 C 7.7460983,4.7858 7.736692,4.9895556 7.607507,5.4431073 7.4784276,5.8963025 7.4841918,6.0983716 7.6340582,6.3737254 7.7774814,6.6372416 8.1677357,6.96621 8.1677357,6.8235946 Z M 9.2187526,6.75677 C 9.5740354,6.4877672 9.7426451,6.0266175 9.6265103,5.641547 9.432574,4.9985091 9.4121779,4.7997199 9.5253735,4.6558152 c 0.039743,-0.050526 0.087578,-0.0824 0.1062988,-0.07083 0.019274,0.011912 0.00678,0.041711 -0.028837,0.068706 -0.046409,0.035186 -0.049944,0.047958 -0.0135,0.048775 0.027156,6.152e-4 0.076979,0.026086 0.1107154,0.056617 0.059049,0.053439 0.1351986,0.042085 0.1351986,-0.020157 0,-0.061398 -0.1821257,-0.243794 -0.2434332,-0.243794 -0.1066524,0 -0.2187159,0.2245894 -0.2168275,0.4345484 0.00159,0.1757896 0.020919,0.2577632 0.1429901,0.6060972 0.083732,0.2389334 0.070597,0.5757054 -0.030298,0.7768318 -0.081473,0.1624122 -0.3440913,0.4406138 -0.4159328,0.4406138 -0.019534,0 -0.035516,0.023449 -0.035516,0.05211 0,0.073249 0.033359,0.064373 0.1825187,-0.048562 z m 1.2371934,0.025307 c 0.04621,-0.1248948 -0.01398,-0.3485825 -0.117798,-0.4378888 -0.06903,-0.059376 -0.127923,-0.078214 -0.220386,-0.070491 -0.0694,0.0058 -0.121248,0.026171 -0.115219,0.045278 0.0061,0.019108 0.03527,0.029714 0.06498,0.023573 0.08802,-0.0182 0.241513,0.061717 0.28902,0.1504815 0.02625,0.049051 0.03654,0.1398719 0.02532,0.2235184 -0.0201,0.1498363 0.02737,0.1918211 0.07409,0.065531 z M 8.4109167,6.2877078 c 0,-0.00764 -0.056772,-0.070668 -0.1261609,-0.1400566 C 8.1672247,6.0301201 8.1600502,6.0108713 8.1798717,5.8662581 8.2007697,5.7137888 8.1548607,5.6483709 8.1096483,5.7661932 c -0.057127,0.1488707 -0.018403,0.3166753 0.1055148,0.4572461 0.0577,0.065453 0.1957536,0.1107779 0.1957536,0.064268 z M 8.9611376,6.2141492 C 9.0798169,6.1142878 9.1350513,5.9002362 9.0723654,5.7831069 9.0074588,5.661827 8.9761124,5.7022713 8.9936394,5.8846807 9.0095523,6.0502741 9.0041622,6.0639811 8.8775318,6.1799694 8.721822,6.3225938 8.7961475,6.35298 8.9611376,6.2141492 Z M 5.1327161,9.8969354 C 5.0945282,9.79742 5.1086582,9.53479 5.1584624,9.4183894 5.2163063,9.2831999 5.3706314,9.1332844 5.503716,9.0830017 c 0.1324749,-0.050053 0.4051874,-0.044537 0.5038171,0.010186 0.075279,0.041768 0.076614,0.047902 0.020527,0.094303 C 5.9561631,9.2469717 5.8062458,9.5582418 5.8057679,9.649029 5.8055133,9.697321 5.7901379,9.706904 5.7446339,9.687164 5.52681,9.592643 5.2971964,9.660475 5.2074083,9.8458665 c -0.041906,0.086526 -0.0571,0.096916 -0.074692,0.051066 z m 6.8502029,-0.024102 c -0.02378,-0.164924 -0.347816,-0.290881 -0.516326,-0.2006964 -0.05636,0.030164 -0.06997,0.021052 -0.09045,-0.060548 -0.01326,-0.052828 -0.07533,-0.182149 -0.137931,-0.2873695 -0.103166,-0.1733978 -0.1085,-0.1953752 -0.05696,-0.2347344 0.06952,-0.053083 0.350941,-0.056846 0.48426,-0.00647 0.119804,0.045266 0.278274,0.1914524 0.344076,0.3174083 0.05461,0.1045373 0.06708,0.4988696 0.01675,0.5299727 -0.01775,0.010971 -0.03729,-0.014931 -0.04343,-0.057555 z"
     id="path1-9" />
  <rect
     style="opacity:0.5;fill:none;fill-opacity:0.996424;stroke:url(#linearGradient9);stroke-width:0.566102;stroke-dasharray:none;stroke-opacity:1"
     id="rect1-2-6"
     width="11.574203"
     height="11.508601"
     x="2.729686"
     y="2.6615164"
     rx="2.0246315"
     ry="2.0627522" />
</svg>
