<?xml version="1.0" encoding="UTF-8" standalone="no"?>
<svg
   width="64"
   height="64"
   version="1.1"
   viewBox="0 0 16.933 16.933"
   id="svg7"
   sodipodi:docname="Template 4.svg"
   inkscape:version="1.3.2 (091e20ef0f, 2023-11-25)"
   xmlns:inkscape="http://www.inkscape.org/namespaces/inkscape"
   xmlns:sodipodi="http://sodipodi.sourceforge.net/DTD/sodipodi-0.dtd"
   xmlns:xlink="http://www.w3.org/1999/xlink"
   xmlns="http://www.w3.org/2000/svg"
   xmlns:svg="http://www.w3.org/2000/svg"
   xmlns:rdf="http://www.w3.org/1999/02/22-rdf-syntax-ns#"
   xmlns:cc="http://creativecommons.org/ns#"
   xmlns:dc="http://purl.org/dc/elements/1.1/">
  <sodipodi:namedview
     id="namedview7"
     pagecolor="#9c4444"
     bordercolor="#000000"
     borderopacity="0.25"
     inkscape:showpageshadow="2"
     inkscape:pageopacity="0.0"
     inkscape:pagecheckerboard="0"
     inkscape:deskcolor="#d1d1d1"
     inkscape:zoom="4.3531261"
     inkscape:cx="32.964816"
     inkscape:cy="24.350317"
     inkscape:window-width="1463"
     inkscape:window-height="604"
     inkscape:window-x="199"
     inkscape:window-y="276"
     inkscape:window-maximized="0"
     inkscape:current-layer="svg7"
     showgrid="false" />
  <defs
     id="defs2">
    <linearGradient
       id="linearGradient5"
       inkscape:collect="always">
      <stop
         style="stop-color:#392713;stop-opacity:1;"
         offset="0"
         id="stop2" />
      <stop
         style="stop-color:#eed59e;stop-opacity:1;"
         offset="0.5"
         id="stop3" />
      <stop
         style="stop-color:#beaa8a;stop-opacity:1;"
         offset="1"
         id="stop4" />
    </linearGradient>
    <linearGradient
       id="linearGradient8"
       inkscape:collect="always">
      <stop
         style="stop-color:#1a1a1a;stop-opacity:1;"
         offset="0"
         id="stop8" />
      <stop
         style="stop-color:#ffffff;stop-opacity:0;"
         offset="1"
         id="stop9" />
    </linearGradient>
    <linearGradient
       inkscape:collect="always"
       xlink:href="#linearGradient5"
       id="linearGradient41"
       x1="13.675659"
       y1="16.110115"
       x2="13.728528"
       y2="10.548769"
       gradientUnits="userSpaceOnUse"
       gradientTransform="matrix(2.046153,0,0,2.046153,-18.798306,-18.911347)" />
    <linearGradient
       inkscape:collect="always"
       xlink:href="#linearGradient42"
       id="linearGradient4"
       x1="11.885941"
       y1="16.50819"
       x2="12.026573"
       y2="10.244942"
       gradientUnits="userSpaceOnUse"
       gradientTransform="matrix(2.046153,0,0,2.046153,-18.798306,-18.911347)" />
    <linearGradient
       id="linearGradient42"
       inkscape:collect="always">
      <stop
         style="stop-color:#010101;stop-opacity:1;"
         offset="0"
         id="stop42" />
      <stop
         style="stop-color:#6e6c6d;stop-opacity:1;"
         offset="1"
         id="stop43" />
    </linearGradient>
    <linearGradient
       inkscape:collect="always"
       xlink:href="#linearGradient8"
       id="linearGradient9"
       x1="9.3404646"
       y1="4.1692023"
       x2="9.4279938"
       y2="16.46883"
       gradientUnits="userSpaceOnUse"
       gradientTransform="matrix(1.05,0,0,1.05,-0.50277005,-0.1977751)" />
    <filter
       style="color-interpolation-filters:sRGB;"
       inkscape:label="Blur"
       id="filter2"
       x="-0.14510849"
       y="-0.14612901"
       width="1.290217"
       height="1.292258">
      <feGaussianBlur
         stdDeviation="0.6 0.6"
         result="blur"
         id="feGaussianBlur2" />
    </filter>
    <linearGradient
       inkscape:collect="always"
       xlink:href="#linearGradient5"
       id="linearGradient33"
       x1="32.527988"
       y1="51.024124"
       x2="32.202969"
       y2="14.419111"
       gradientUnits="userSpaceOnUse"
       gradientTransform="matrix(0.23573911,0,0,0.23573911,0.93759432,0.72005832)" />
  </defs>
  <metadata
     id="metadata2">
    <rdf:RDF>
      <cc:Work
         rdf:about="">
        <dc:format>image/svg+xml</dc:format>
        <dc:type
           rdf:resource="http://purl.org/dc/dcmitype/StillImage" />
      </cc:Work>
    </rdf:RDF>
  </metadata>
  <rect
     style="fill:#000000;fill-opacity:0.996424;stroke:#000000;stroke-width:0.911802;stroke-dasharray:none;stroke-opacity:1;filter:url(#filter2)"
     id="rect1-2-3"
     width="13.065404"
     height="12.974159"
     x="1.9816793"
     y="1.9267306"
     rx="2.7149384"
     ry="2.8310909" />
  <rect
     style="fill:url(#linearGradient4);fill-opacity:0.996424;stroke:url(#linearGradient41);stroke-width:0.911802;stroke-dasharray:none;stroke-opacity:1"
     id="rect1-2"
     width="13.065404"
     height="12.974159"
     x="1.9816793"
     y="1.9267306"
     rx="2.7149384"
     ry="2.8310909" />
  <path
     style="fill:#000000;fill-opacity:1;stroke:none;stroke-width:0.233382;stroke-dasharray:none;stroke-opacity:0.3;opacity:0.3"
     d="m 7.9225472,13.196474 c -0.3993141,-0.103205 -0.7794443,-0.29306 -0.836214,-0.417656 -0.039759,-0.08727 0.015139,-1.106914 0.069871,-1.297708 0.021257,-0.07412 0.010696,-0.08343 -0.094686,-0.08343 -0.065241,0 -0.2298688,0.04875 -0.3658431,0.108344 -0.3827876,0.167765 -0.4270606,0.172384 -0.612195,0.06389 C 5.7310757,11.363387 5.5514913,11.187893 5.4165632,10.918188 5.3447828,10.774707 5.2653151,10.564648 5.2399696,10.451395 5.1967197,10.258133 5.1988944,10.239296 5.2753286,10.144891 5.4268919,9.9576998 5.5011865,9.7566581 5.5043326,9.5252026 5.5093562,9.1564599 5.5577513,8.9647376 5.7068216,8.7232292 5.8986403,8.4124583 5.916476,8.2207395 5.7815411,7.9200642 5.6568608,7.6422411 5.5268382,7.5082477 5.4369466,7.56495 5.3088104,7.6457767 5.2712954,7.8968361 5.2693043,8.6868454 5.2673241,9.4591973 5.250523,9.5053444 5.1556929,8.9981255 4.9448567,7.8703456 5.1532553,6.702198 5.701813,5.9375311 6.1601025,5.2986464 7.0546593,4.8040656 8.0346886,4.6477373 c 0.7934741,-0.1265714 1.8757951,0.120657 2.5958974,0.5929678 0.651085,0.4270416 1.035916,1.0048763 1.260659,1.8929119 0.112977,0.446409 0.117155,1.5003939 0.0079,1.9651781 l -0.07419,0.3151706 -0.02121,-0.7971953 c -0.02209,-0.8312711 -0.06733,-1.0752861 -0.19934,-1.0752861 -0.123377,0 -0.305239,0.2739456 -0.38943,0.586613 -0.0508,0.1886121 -0.01037,0.3493633 0.146004,0.5813697 0.137877,0.2045044 0.185915,0.3635396 0.185915,0.6155096 0,0.3203697 0.06557,0.5686398 0.191984,0.7269114 0.100484,0.12579 0.11035,0.160418 0.09299,0.326126 -0.04671,0.44599 -0.283674,0.815964 -0.706539,1.103127 -0.272511,0.185061 -0.372712,0.19205 -0.692927,0.04836 -0.129292,-0.05802 -0.309439,-0.113877 -0.400323,-0.124122 -0.160688,-0.01811 -0.1644464,-0.01616 -0.1363439,0.07028 0.015903,0.04891 0.036909,0.361282 0.046701,0.694191 0.017298,0.588534 0.015489,0.60775 -0.065493,0.693966 -0.1831284,0.194931 -0.948901,0.426888 -1.3967548,0.423083 -0.1181231,-0.0013 -0.3690115,-0.04168 -0.5575299,-0.09042 z m 0.4889762,-1.399175 c 0.031738,-0.04532 0.057719,-0.112067 0.057719,-0.148316 0,-0.108448 0.056054,-0.07477 0.1061469,0.06374 0.071993,0.199092 0.2950023,0.210183 0.4395877,0.02186 0.084769,-0.110401 0.053328,-0.431586 -0.083769,-0.85567 -0.1901028,-0.588029 -0.3674481,-0.757001 -0.569167,-0.542281 -0.1263445,0.134489 -0.3801166,0.88776 -0.3867916,1.148115 -0.00503,0.194782 0.00496,0.225911 0.097969,0.305901 0.1296734,0.111536 0.2629967,0.114153 0.3383038,0.0067 z M 6.8549893,10.764447 C 7.1325584,10.713137 7.4128627,10.588361 7.6947184,10.390653 8.0883921,10.114508 8.1192376,9.8889437 7.8048731,9.5851433 7.4716913,9.2631573 6.7219466,8.8800867 6.4194471,8.8772795 6.2413598,8.8756294 6.0692561,8.9738242 5.9596104,9.1396501 5.8237051,9.345191 5.8232726,9.6029967 5.9582195,9.9793504 c 0.052995,0.1478146 0.1074204,0.3425536 0.1209466,0.4327556 0.01463,0.09751 0.058259,0.195626 0.1076271,0.242008 0.069622,0.0654 0.1445353,0.09083 0.4309852,0.146245 0.011547,0.0023 0.1183024,-0.01391 0.237229,-0.03592 z m 3.9495947,-0.06461 c 0.09612,-0.04634 0.137201,-0.09544 0.160628,-0.19204 0.0173,-0.07138 0.08016,-0.290552 0.139672,-0.487054 0.118566,-0.391528 0.136482,-0.6490078 0.05587,-0.8032759 -0.08433,-0.1614457 -0.259878,-0.305237 -0.40048,-0.328054 -0.394382,-0.064 -1.4441087,0.5001447 -1.6453262,0.8842281 -0.098911,0.1888024 -0.068542,0.3235788 0.1118663,0.4964398 0.1855156,0.177756 0.696795,0.444936 0.9480459,0.495424 0.2085,0.0419 0.461269,0.01553 0.629714,-0.06566 z"
     id="path1-3-8-5" />
  <path
     style="fill:url(#linearGradient33);fill-opacity:1;stroke:none;stroke-width:0.233382;stroke-dasharray:none;stroke-opacity:0.3"
     d="m 7.9225472,12.667318 c -0.3993141,-0.103205 -0.7794443,-0.29306 -0.836214,-0.417656 -0.039759,-0.08727 0.015139,-1.106914 0.069871,-1.297708 0.021257,-0.07412 0.010696,-0.08343 -0.094686,-0.08343 -0.065241,0 -0.2298688,0.04875 -0.3658431,0.108344 -0.3827876,0.167765 -0.4270606,0.172384 -0.612195,0.06389 C 5.7310757,10.834231 5.5514913,10.658737 5.4165632,10.389032 5.3447828,10.245551 5.2653151,10.035492 5.2399696,9.922239 5.1967197,9.7289766 5.1988944,9.7101401 5.2753286,9.6157352 5.4268919,9.4285436 5.5011865,9.2275019 5.5043326,8.9960464 5.5093562,8.6273037 5.5577513,8.4355814 5.7068216,8.194073 5.8986403,7.8833021 5.916476,7.6915833 5.7815411,7.390908 5.6568608,7.1130849 5.5268382,6.9790915 5.4369466,7.0357938 5.3088104,7.1166205 5.2712954,7.3676799 5.2693043,8.1576892 5.2673241,8.9300411 5.250523,8.9761882 5.1556929,8.4689693 4.9448567,7.3411894 5.1532553,6.1730418 5.701813,5.4083749 6.1601025,4.7694902 7.0546593,4.2749094 8.0346886,4.1185811 c 0.7934741,-0.1265714 1.8757951,0.120657 2.5958974,0.5929678 0.651085,0.4270416 1.035916,1.0048763 1.260659,1.8929119 0.112977,0.446409 0.117155,1.5003939 0.0079,1.9651781 l -0.07419,0.3151706 -0.02121,-0.7971953 c -0.02209,-0.8312711 -0.06733,-1.0752861 -0.19934,-1.0752861 -0.123377,0 -0.305239,0.2739456 -0.38943,0.586613 -0.0508,0.1886121 -0.01037,0.3493633 0.146004,0.5813697 0.137877,0.2045044 0.185915,0.3635396 0.185915,0.6155096 0,0.3203697 0.06557,0.5686398 0.191984,0.7269111 0.100484,0.1257899 0.11035,0.1604178 0.09299,0.326126 -0.04671,0.4459905 -0.283674,0.8159645 -0.706539,1.1031275 -0.272511,0.185061 -0.372712,0.19205 -0.692927,0.04836 -0.129292,-0.05802 -0.309439,-0.113877 -0.400323,-0.124122 -0.160688,-0.01811 -0.1644464,-0.01616 -0.1363439,0.07028 0.015903,0.04891 0.036909,0.361282 0.046701,0.694191 0.017298,0.588534 0.015489,0.60775 -0.065493,0.693966 -0.1831284,0.194931 -0.948901,0.426888 -1.3967548,0.423083 -0.1181231,-0.0013 -0.3690115,-0.04168 -0.5575299,-0.09042 z m 0.4889762,-1.399175 c 0.031738,-0.04532 0.057719,-0.112067 0.057719,-0.148316 0,-0.108448 0.056054,-0.07477 0.1061469,0.06374 0.071993,0.199092 0.2950023,0.210183 0.4395877,0.02186 C 9.099746,11.095026 9.068305,10.773841 8.931208,10.349757 8.7411052,9.7617273 8.5637599,9.5927558 8.362041,9.8074761 8.2356965,9.9419643 7.9819244,10.695236 7.9752494,10.955591 c -0.00503,0.194782 0.00496,0.225911 0.097969,0.305901 0.1296734,0.111536 0.2629967,0.114153 0.3383038,0.0067 z M 6.8549893,10.235291 C 7.1325584,10.183981 7.4128627,10.059205 7.6947184,9.8614971 8.0883921,9.5853515 8.1192376,9.3597875 7.8048731,9.0559871 7.4716913,8.7340011 6.7219466,8.3509305 6.4194471,8.3481233 6.2413598,8.3464732 6.0692561,8.444668 5.9596104,8.6104939 5.8237051,8.8160348 5.8232726,9.0738405 5.9582195,9.4501942 c 0.052995,0.1478143 0.1074204,0.3425537 0.1209466,0.4327553 0.01463,0.097511 0.058259,0.1956265 0.1076271,0.2420085 0.069622,0.0654 0.1445353,0.09083 0.4309852,0.146245 0.011547,0.0023 0.1183024,-0.01391 0.237229,-0.03592 z m 3.9495947,-0.06461 c 0.09612,-0.04634 0.137201,-0.09544 0.160628,-0.1920407 0.0173,-0.071379 0.08016,-0.2905511 0.139672,-0.4870536 0.118566,-0.391528 0.136482,-0.6490077 0.05587,-0.8032758 -0.08433,-0.1614457 -0.259878,-0.305237 -0.40048,-0.328054 -0.394382,-0.064 -1.4441087,0.5001446 -1.6453262,0.8842281 -0.098911,0.1888023 -0.068542,0.3235791 0.1118663,0.4964401 0.1855156,0.1777554 0.696795,0.4449359 0.9480459,0.4954239 0.2085,0.0419 0.461269,0.01553 0.629714,-0.06566 z"
     id="path1-3-8" />
  <rect
     style="opacity:0.5;fill:none;fill-opacity:0.996424;stroke:url(#linearGradient9);stroke-width:0.566102;stroke-dasharray:none;stroke-opacity:1"
     id="rect1-2-6"
     width="11.574203"
     height="11.508601"
     x="2.729686"
     y="2.6615164"
     rx="2.0246315"
     ry="2.0627522" />
</svg>
