<?xml version="1.0" encoding="UTF-8" standalone="no"?>
<svg
   width="64"
   height="64"
   version="1.1"
   viewBox="0 0 16.933 16.933"
   id="svg7"
   sodipodi:docname="Template 4.svg"
   inkscape:version="1.3.2 (091e20ef0f, 2023-11-25)"
   xmlns:inkscape="http://www.inkscape.org/namespaces/inkscape"
   xmlns:sodipodi="http://sodipodi.sourceforge.net/DTD/sodipodi-0.dtd"
   xmlns:xlink="http://www.w3.org/1999/xlink"
   xmlns="http://www.w3.org/2000/svg"
   xmlns:svg="http://www.w3.org/2000/svg"
   xmlns:rdf="http://www.w3.org/1999/02/22-rdf-syntax-ns#"
   xmlns:cc="http://creativecommons.org/ns#"
   xmlns:dc="http://purl.org/dc/elements/1.1/">
  <sodipodi:namedview
     id="namedview7"
     pagecolor="#9c4444"
     bordercolor="#000000"
     borderopacity="0.25"
     inkscape:showpageshadow="2"
     inkscape:pageopacity="0.0"
     inkscape:pagecheckerboard="0"
     inkscape:deskcolor="#d1d1d1"
     inkscape:zoom="4.3531261"
     inkscape:cx="33.079676"
     inkscape:cy="24.465177"
     inkscape:window-width="1463"
     inkscape:window-height="604"
     inkscape:window-x="199"
     inkscape:window-y="276"
     inkscape:window-maximized="0"
     inkscape:current-layer="svg7"
     showgrid="false" />
  <defs
     id="defs2">
    <linearGradient
       id="linearGradient5"
       inkscape:collect="always">
      <stop
         style="stop-color:#392713;stop-opacity:1;"
         offset="0"
         id="stop2" />
      <stop
         style="stop-color:#eed59e;stop-opacity:1;"
         offset="0.5"
         id="stop3" />
      <stop
         style="stop-color:#beaa8a;stop-opacity:1;"
         offset="1"
         id="stop4" />
    </linearGradient>
    <linearGradient
       id="linearGradient8"
       inkscape:collect="always">
      <stop
         style="stop-color:#1a1a1a;stop-opacity:1;"
         offset="0"
         id="stop8" />
      <stop
         style="stop-color:#ffffff;stop-opacity:0;"
         offset="1"
         id="stop9" />
    </linearGradient>
    <linearGradient
       inkscape:collect="always"
       xlink:href="#linearGradient5"
       id="linearGradient41"
       x1="13.675659"
       y1="16.110115"
       x2="13.728528"
       y2="10.548769"
       gradientUnits="userSpaceOnUse"
       gradientTransform="matrix(2.046153,0,0,2.046153,-18.798306,-18.911347)" />
    <linearGradient
       inkscape:collect="always"
       xlink:href="#linearGradient42"
       id="linearGradient4"
       x1="11.885941"
       y1="16.50819"
       x2="12.026573"
       y2="10.244942"
       gradientUnits="userSpaceOnUse"
       gradientTransform="matrix(2.046153,0,0,2.046153,-18.798306,-18.911347)" />
    <linearGradient
       id="linearGradient42"
       inkscape:collect="always">
      <stop
         style="stop-color:#010101;stop-opacity:1;"
         offset="0"
         id="stop42" />
      <stop
         style="stop-color:#6e6c6d;stop-opacity:1;"
         offset="1"
         id="stop43" />
    </linearGradient>
    <linearGradient
       inkscape:collect="always"
       xlink:href="#linearGradient8"
       id="linearGradient9"
       x1="9.3404646"
       y1="4.1692023"
       x2="9.4279938"
       y2="16.46883"
       gradientUnits="userSpaceOnUse"
       gradientTransform="matrix(1.05,0,0,1.05,-0.50277005,-0.1977751)" />
    <filter
       style="color-interpolation-filters:sRGB;"
       inkscape:label="Blur"
       id="filter2"
       x="-0.14510849"
       y="-0.14612901"
       width="1.290217"
       height="1.292258">
      <feGaussianBlur
         stdDeviation="0.6 0.6"
         result="blur"
         id="feGaussianBlur2" />
    </filter>
    <linearGradient
       inkscape:collect="always"
       xlink:href="#linearGradient5"
       id="linearGradient6"
       x1="8.602973"
       y1="13.033638"
       x2="8.8592863"
       y2="3.916806"
       gradientUnits="userSpaceOnUse" />
  </defs>
  <metadata
     id="metadata2">
    <rdf:RDF>
      <cc:Work
         rdf:about="">
        <dc:format>image/svg+xml</dc:format>
        <dc:type
           rdf:resource="http://purl.org/dc/dcmitype/StillImage" />
      </cc:Work>
    </rdf:RDF>
  </metadata>
  <rect
     style="fill:#000000;fill-opacity:0.996424;stroke:#000000;stroke-width:0.911802;stroke-dasharray:none;stroke-opacity:1;filter:url(#filter2)"
     id="rect1-2-3"
     width="13.065404"
     height="12.974159"
     x="1.9816793"
     y="1.9267306"
     rx="2.7149384"
     ry="2.8310909" />
  <rect
     style="fill:url(#linearGradient4);fill-opacity:0.996424;stroke:url(#linearGradient41);stroke-width:0.911802;stroke-dasharray:none;stroke-opacity:1"
     id="rect1-2"
     width="13.065404"
     height="12.974159"
     x="1.9816793"
     y="1.9267306"
     rx="2.7149384"
     ry="2.8310909" />
  <path
     id="path7-62-5"
     style="fill:#000000;fill-opacity:1;stroke:none;stroke-width:0.279568;stroke-dasharray:none;stroke-opacity:0.3;opacity:0.3"
     d="M 8.4862066,4.4722175 C 7.541438,4.4651524 6.5951149,4.8321846 5.8526985,5.5746541 4.7698462,6.6575849 4.3779704,8.292499 4.8485472,9.7643515 5.1054585,10.567909 5.6882285,11.389414 6.2955301,11.80323 c 0.1015028,0.06917 0.1845584,0.138918 0.1845584,0.155075 0,0.06931 0.2394937,0.497791 0.3734856,0.668341 0.3137877,0.399402 0.8357538,0.701922 1.3448745,0.780279 0.157826,0.02429 0.5973541,-0.0087 0.7851927,-0.05897 0.576657,-0.154188 1.0651897,-0.573321 1.3525187,-1.160863 0.113613,-0.232319 0.154097,-0.281578 0.367479,-0.445015 0.617169,-0.472713 1.091739,-1.149419 1.34706,-1.9214841 C 12.538214,8.3463961 12.169789,6.7004644 11.109341,5.61397 10.37389,4.8604541 9.4309762,4.4792779 8.4862066,4.4722175 Z M 10.91277,8.4882764 c 0.151755,-0.00642 0.298181,5.657e-4 0.40024,0.022388 0.0923,0.019706 0.09745,0.029522 0.12395,0.2446222 0.03541,0.2874284 -0.01433,0.7091554 -0.119581,1.0117958 -0.248877,0.7156456 -0.865659,1.2636466 -1.5725701,1.3972946 -0.368654,0.0697 -0.7728383,0.04818 -0.8195922,-0.04313 -0.050199,-0.09805 -0.068243,-0.447999 -0.036039,-0.702744 0.1173983,-0.928647 0.7332271,-1.6531907 1.5922273,-1.8728862 0.12229,-0.031276 0.279609,-0.050915 0.431365,-0.057334 z m -4.8454813,0.00166 c 0.5078662,0.018093 0.9181347,0.2078016 1.3159355,0.6017276 0.2241251,0.221942 0.3014564,0.3253069 0.4089772,0.5465774 0.2111572,0.4345436 0.2877065,0.8275916 0.2468061,1.2640616 -0.016935,0.180666 -0.035515,0.245295 -0.0759,0.261003 -0.029528,0.01148 -0.176407,0.02653 -0.3265266,0.0333 -0.9917525,0.04476 -1.8797171,-0.661212 -2.1049494,-1.6735855 -0.051609,-0.2319687 -0.058804,-0.9433648 -0.00983,-0.9921387 0.011624,-0.011572 0.1566223,-0.028954 0.3216125,-0.038222 0.076785,-0.00432 0.1513207,-0.00531 0.2238728,-0.00274 z" />
  <path
     id="path7-62"
     style="opacity:1;fill:url(#linearGradient6);fill-opacity:1;stroke:none;stroke-width:0.279568;stroke-dasharray:none;stroke-opacity:0.3"
     d="M 8.4862066,3.9430613 C 7.541438,3.9359962 6.5951149,4.3030284 5.8526985,5.0454979 4.7698462,6.1284287 4.3779704,7.7633428 4.8485472,9.2351953 c 0.2569113,0.8035577 0.8396813,1.6250627 1.4469829,2.0388787 0.1015028,0.06917 0.1845584,0.138918 0.1845584,0.155075 0,0.06931 0.2394937,0.497791 0.3734856,0.668341 0.3137877,0.399402 0.8357538,0.701922 1.3448745,0.780279 0.157826,0.02429 0.5973541,-0.0087 0.7851927,-0.05897 0.576657,-0.154188 1.0651897,-0.573321 1.3525187,-1.160863 0.113613,-0.232319 0.154097,-0.281578 0.367479,-0.445015 0.617169,-0.472713 1.091739,-1.149419 1.34706,-1.9214843 C 12.538214,7.8172399 12.169789,6.1713082 11.109341,5.0848138 10.37389,4.3312979 9.4309762,3.9501217 8.4862066,3.9430613 Z M 10.91277,7.9591202 c 0.151755,-0.00642 0.298181,5.657e-4 0.40024,0.022388 0.0923,0.019706 0.09745,0.029522 0.12395,0.2446222 0.03541,0.2874284 -0.01433,0.7091553 -0.119581,1.0117958 -0.248877,0.7156459 -0.865659,1.2636468 -1.5725701,1.3972948 -0.368654,0.0697 -0.7728383,0.04818 -0.8195922,-0.04313 -0.050199,-0.09805 -0.068243,-0.447999 -0.036039,-0.702744 0.1173983,-0.9286472 0.7332271,-1.6531909 1.5922273,-1.8728864 0.12229,-0.031276 0.279609,-0.050915 0.431365,-0.057334 z m -4.8454813,0.00166 c 0.5078662,0.018093 0.9181347,0.2078016 1.3159355,0.6017276 0.2241251,0.221942 0.3014564,0.3253069 0.4089772,0.5465773 0.2111572,0.4345436 0.2877065,0.8275921 0.2468061,1.2640619 -0.016935,0.180666 -0.035515,0.245295 -0.0759,0.261003 -0.029528,0.01148 -0.176407,0.02653 -0.3265266,0.0333 C 6.6448284,10.71221 5.7568638,10.006238 5.5316315,8.9938643 5.4800225,8.7618956 5.4728275,8.0504995 5.5218015,8.0017256 c 0.011624,-0.011572 0.1566223,-0.028954 0.3216125,-0.038222 0.076785,-0.00432 0.1513207,-0.00531 0.2238728,-0.00274 z" />
  <rect
     style="opacity:0.5;fill:none;fill-opacity:0.996424;stroke:url(#linearGradient9);stroke-width:0.566102;stroke-dasharray:none;stroke-opacity:1"
     id="rect1-2-6"
     width="11.574203"
     height="11.508601"
     x="2.729686"
     y="2.6615164"
     rx="2.0246315"
     ry="2.0627522" />
</svg>
