<?xml version="1.0" encoding="UTF-8" standalone="no"?>
<svg
   width="64"
   height="64"
   version="1.1"
   viewBox="0 0 16.933 16.933"
   id="svg7"
   sodipodi:docname="Template 4.svg"
   inkscape:version="1.3.2 (091e20ef0f, 2023-11-25)"
   xmlns:inkscape="http://www.inkscape.org/namespaces/inkscape"
   xmlns:sodipodi="http://sodipodi.sourceforge.net/DTD/sodipodi-0.dtd"
   xmlns:xlink="http://www.w3.org/1999/xlink"
   xmlns="http://www.w3.org/2000/svg"
   xmlns:svg="http://www.w3.org/2000/svg"
   xmlns:rdf="http://www.w3.org/1999/02/22-rdf-syntax-ns#"
   xmlns:cc="http://creativecommons.org/ns#"
   xmlns:dc="http://purl.org/dc/elements/1.1/">
  <sodipodi:namedview
     id="namedview7"
     pagecolor="#9c4444"
     bordercolor="#000000"
     borderopacity="0.25"
     inkscape:showpageshadow="2"
     inkscape:pageopacity="0.0"
     inkscape:pagecheckerboard="0"
     inkscape:deskcolor="#d1d1d1"
     inkscape:zoom="4.3531261"
     inkscape:cx="33.079676"
     inkscape:cy="24.465177"
     inkscape:window-width="1463"
     inkscape:window-height="604"
     inkscape:window-x="199"
     inkscape:window-y="276"
     inkscape:window-maximized="0"
     inkscape:current-layer="svg7"
     showgrid="false" />
  <defs
     id="defs2">
    <linearGradient
       id="linearGradient5"
       inkscape:collect="always">
      <stop
         style="stop-color:#392713;stop-opacity:1;"
         offset="0"
         id="stop2" />
      <stop
         style="stop-color:#eed59e;stop-opacity:1;"
         offset="0.5"
         id="stop3" />
      <stop
         style="stop-color:#beaa8a;stop-opacity:1;"
         offset="1"
         id="stop4" />
    </linearGradient>
    <linearGradient
       id="linearGradient8"
       inkscape:collect="always">
      <stop
         style="stop-color:#1a1a1a;stop-opacity:1;"
         offset="0"
         id="stop8" />
      <stop
         style="stop-color:#ffffff;stop-opacity:0;"
         offset="1"
         id="stop9" />
    </linearGradient>
    <linearGradient
       inkscape:collect="always"
       xlink:href="#linearGradient5"
       id="linearGradient41"
       x1="13.675659"
       y1="16.110115"
       x2="13.728528"
       y2="10.548769"
       gradientUnits="userSpaceOnUse"
       gradientTransform="matrix(2.046153,0,0,2.046153,-18.798306,-18.911347)" />
    <linearGradient
       inkscape:collect="always"
       xlink:href="#linearGradient42"
       id="linearGradient4"
       x1="11.885941"
       y1="16.50819"
       x2="12.026573"
       y2="10.244942"
       gradientUnits="userSpaceOnUse"
       gradientTransform="matrix(2.046153,0,0,2.046153,-18.798306,-18.911347)" />
    <linearGradient
       id="linearGradient42"
       inkscape:collect="always">
      <stop
         style="stop-color:#010101;stop-opacity:1;"
         offset="0"
         id="stop42" />
      <stop
         style="stop-color:#6e6c6d;stop-opacity:1;"
         offset="1"
         id="stop43" />
    </linearGradient>
    <linearGradient
       inkscape:collect="always"
       xlink:href="#linearGradient8"
       id="linearGradient9"
       x1="9.3404646"
       y1="4.1692023"
       x2="9.4279938"
       y2="16.46883"
       gradientUnits="userSpaceOnUse"
       gradientTransform="matrix(1.05,0,0,1.05,-0.50277005,-0.1977751)" />
    <filter
       style="color-interpolation-filters:sRGB;"
       inkscape:label="Blur"
       id="filter2"
       x="-0.14510849"
       y="-0.14612901"
       width="1.290217"
       height="1.292258">
      <feGaussianBlur
         stdDeviation="0.6 0.6"
         result="blur"
         id="feGaussianBlur2" />
    </filter>
    <linearGradient
       inkscape:collect="always"
       xlink:href="#linearGradient5"
       id="linearGradient10"
       x1="8.4769115"
       y1="11.672848"
       x2="8.5781059"
       y2="5.2302861"
       gradientUnits="userSpaceOnUse" />
  </defs>
  <metadata
     id="metadata2">
    <rdf:RDF>
      <cc:Work
         rdf:about="">
        <dc:format>image/svg+xml</dc:format>
        <dc:type
           rdf:resource="http://purl.org/dc/dcmitype/StillImage" />
      </cc:Work>
    </rdf:RDF>
  </metadata>
  <rect
     style="fill:#000000;fill-opacity:0.996424;stroke:#000000;stroke-width:0.911802;stroke-dasharray:none;stroke-opacity:1;filter:url(#filter2)"
     id="rect1-2-3"
     width="13.065404"
     height="12.974159"
     x="1.9816793"
     y="1.9267306"
     rx="2.7149384"
     ry="2.8310909" />
  <rect
     style="fill:url(#linearGradient4);fill-opacity:0.996424;stroke:url(#linearGradient41);stroke-width:0.911802;stroke-dasharray:none;stroke-opacity:1"
     id="rect1-2"
     width="13.065404"
     height="12.974159"
     x="1.9816793"
     y="1.9267306"
     rx="2.7149384"
     ry="2.8310909" />
  <path
     id="path7-2"
     style="fill:#000000;fill-opacity:1;stroke:none;stroke-width:0.228738;stroke-dasharray:none;stroke-dashoffset:2.2;stroke-opacity:0.3;opacity:0.3"
     d="M 8.5082054,5.7126658 C 8.0938628,5.710228 7.6763781,5.822105 7.3193959,6.0446027 7.0939491,6.1851176 6.6718489,6.5933798 6.496924,6.8402691 6.2705508,7.1597731 6.0710409,7.6097254 5.9666286,8.0357797 5.798895,8.7202196 5.8460833,9.7113329 6.0742958,10.288754 c 0.021415,0.05419 0.055004,0.09873 0.074161,0.09873 0.057814,0 0.6338056,-0.208901 0.9837495,-0.356508 C 8.0668869,9.6367263 9.0734692,9.0868713 9.9302196,8.5021896 10.219047,8.305082 10.907722,7.7941616 10.927372,7.7623675 10.933133,7.7531063 10.892906,7.636745 10.838017,7.5036972 10.544758,6.7927806 10.037761,6.2209101 9.4396845,5.9271069 9.1511643,5.7853705 8.8304711,5.7145506 8.5082054,5.7126658 Z m 3.6539916,0.6558326 c -0.123383,6.152e-4 -0.268813,0.014143 -0.403866,0.039761 -0.250163,0.047457 -0.858189,0.2517631 -0.944882,0.3176414 -0.0055,0.00423 0.0328,0.079792 0.08534,0.1679792 0.05253,0.088186 0.09561,0.1772724 0.09561,0.1979114 0,0.043183 0.04881,0.046182 0.197018,0.012061 0.367894,-0.084688 0.906462,-0.137995 0.906462,-0.089798 0,0.044384 -0.293051,0.3739333 -0.581671,0.6540457 C 10.00994,9.1299492 7.1392812,10.672465 5.3997037,10.954862 5.1451369,10.99619 4.9090623,11.002517 4.8881721,10.968722 4.8699498,10.939229 5.2334117,10.507546 5.48414,10.260614 L 5.6793663,10.068061 5.6445201,9.9188456 c -0.019292,-0.081979 -0.035516,-0.1814069 -0.03574,-0.2211445 -2.333e-4,-0.039738 -0.00745,-0.072374 -0.01608,-0.072374 -0.030377,0 -0.5630827,0.4506809 -0.7541188,0.6379629 -0.3929861,0.38526 -0.5529833,0.645558 -0.5553141,0.903333 -0.00123,0.137692 0.00852,0.172515 0.064333,0.232312 0.083878,0.08986 0.1894868,0.145461 0.3547219,0.186296 0.1765226,0.04361 0.3429221,0.04337 0.6567263,-0.0014 C 6.6318449,11.402442 8.5355506,10.556809 10.24563,9.4135225 11.811777,8.3664708 12.857742,7.2057594 12.694281,6.6959348 12.664428,6.6028545 12.534273,6.457057 12.434273,6.4046673 12.387131,6.3799659 12.285581,6.3678582 12.1622,6.3684801 Z m -1.060146,2.8891505 c -0.0086,1.047e-4 -0.178152,0.1155415 -0.376612,0.2564357 C 9.6362559,10.28734 8.234774,11.053505 7.1607986,11.46282 7.0246434,11.51471 6.9088764,11.570796 6.903469,11.587018 c -0.012919,0.03876 0.3771358,0.3317 0.5740772,0.431116 0.084995,0.0429 0.2579221,0.113566 0.3842076,0.157256 0.2267181,0.07844 0.2349416,0.0795 0.6629811,0.06835 0.3577453,-0.0093 0.4635266,-0.02137 0.6044565,-0.06925 1.0213406,-0.346906 1.7755536,-1.374527 1.9532036,-2.6608588 0.01946,-0.1408877 0.02826,-0.2560942 0.01966,-0.2559889 z" />
  <path
     id="path7"
     style="opacity:1;fill:url(#linearGradient10);fill-opacity:1;stroke:none;stroke-width:0.228738;stroke-dasharray:none;stroke-dashoffset:2.2;stroke-opacity:0.3"
     d="M 8.5082054,5.1835096 C 8.0938628,5.1810718 7.6763781,5.2929488 7.3193959,5.5154465 7.0939491,5.6559614 6.6718489,6.0642236 6.496924,6.3111129 6.2705508,6.6306169 6.0710409,7.0805692 5.9666286,7.5066235 5.798895,8.1910634 5.8460833,9.1821767 6.0742958,9.7595976 c 0.021415,0.054189 0.055004,0.098731 0.074161,0.098731 0.057814,0 0.6338056,-0.2089004 0.9837495,-0.3565078 C 8.0668869,9.1075701 9.0734692,8.5577151 9.9302196,7.9730334 10.219047,7.7759258 10.907722,7.2650054 10.927372,7.2332113 10.933133,7.2239501 10.892906,7.1075888 10.838017,6.974541 10.544758,6.2636244 10.037761,5.6917539 9.4396845,5.3979507 9.1511643,5.2562143 8.8304711,5.1853944 8.5082054,5.1835096 Z m 3.6539916,0.6558326 c -0.123383,6.152e-4 -0.268813,0.014143 -0.403866,0.039761 -0.250163,0.047457 -0.858189,0.2517631 -0.944882,0.3176414 -0.0055,0.00423 0.0328,0.079792 0.08534,0.1679792 0.05253,0.088186 0.09561,0.1772724 0.09561,0.1979114 0,0.043183 0.04881,0.046182 0.197018,0.012061 0.367894,-0.084688 0.906462,-0.137995 0.906462,-0.089798 0,0.044384 -0.293051,0.3739333 -0.581671,0.6540457 C 10.00994,8.600793 7.1392812,10.143309 5.3997037,10.425706 5.1451369,10.467034 4.9090623,10.473361 4.8881721,10.439566 4.8699498,10.410073 5.2334117,9.9783899 5.48414,9.7314582 L 5.6793663,9.5389047 5.6445201,9.3896894 c -0.019292,-0.081979 -0.035516,-0.1814069 -0.03574,-0.2211445 -2.333e-4,-0.039738 -0.00745,-0.072374 -0.01608,-0.072374 -0.030377,0 -0.5630827,0.450681 -0.7541188,0.6379625 -0.3929861,0.3852606 -0.5529833,0.6455586 -0.5553141,0.9033336 -0.00123,0.137692 0.00852,0.172515 0.064333,0.232312 0.083878,0.08986 0.1894868,0.145461 0.3547219,0.186296 0.1765226,0.04361 0.3429221,0.04337 0.6567263,-0.0014 C 6.6318449,10.873286 8.5355506,10.027653 10.24563,8.8843663 11.811777,7.8373146 12.857742,6.6766032 12.694281,6.1667786 12.664428,6.0736983 12.534273,5.9279008 12.434273,5.8755111 12.387131,5.8508097 12.285581,5.838702 12.1622,5.8393239 Z m -1.060146,2.8891505 c -0.0086,1.047e-4 -0.178152,0.1155415 -0.376612,0.2564357 -1.0891831,0.7732553 -2.490665,1.5394206 -3.5646404,1.9487356 -0.1361552,0.05189 -0.2519222,0.107976 -0.2573296,0.124198 -0.012919,0.03876 0.3771358,0.3317 0.5740772,0.431116 0.084995,0.0429 0.2579221,0.113566 0.3842076,0.157256 0.2267181,0.07844 0.2349416,0.0795 0.6629811,0.06835 0.3577453,-0.0093 0.4635266,-0.02137 0.6044565,-0.06925 1.0213406,-0.346906 1.7755536,-1.374527 1.9532036,-2.660859 0.01946,-0.1408877 0.02826,-0.2560942 0.01966,-0.2559889 z" />
  <rect
     style="opacity:0.5;fill:none;fill-opacity:0.996424;stroke:url(#linearGradient9);stroke-width:0.566102;stroke-dasharray:none;stroke-opacity:1"
     id="rect1-2-6"
     width="11.574203"
     height="11.508601"
     x="2.729686"
     y="2.6615164"
     rx="2.0246315"
     ry="2.0627522" />
</svg>
