<?xml version="1.0" encoding="UTF-8" standalone="no"?>
<svg
   width="64"
   height="64"
   version="1.1"
   viewBox="0 0 16.933 16.933"
   id="svg7"
   sodipodi:docname="Template 4.svg"
   inkscape:version="1.3.2 (091e20ef0f, 2023-11-25)"
   xmlns:inkscape="http://www.inkscape.org/namespaces/inkscape"
   xmlns:sodipodi="http://sodipodi.sourceforge.net/DTD/sodipodi-0.dtd"
   xmlns:xlink="http://www.w3.org/1999/xlink"
   xmlns="http://www.w3.org/2000/svg"
   xmlns:svg="http://www.w3.org/2000/svg"
   xmlns:rdf="http://www.w3.org/1999/02/22-rdf-syntax-ns#"
   xmlns:cc="http://creativecommons.org/ns#"
   xmlns:dc="http://purl.org/dc/elements/1.1/">
  <sodipodi:namedview
     id="namedview7"
     pagecolor="#9c4444"
     bordercolor="#000000"
     borderopacity="0.25"
     inkscape:showpageshadow="2"
     inkscape:pageopacity="0.0"
     inkscape:pagecheckerboard="0"
     inkscape:deskcolor="#d1d1d1"
     inkscape:zoom="4.3531261"
     inkscape:cx="32.964816"
     inkscape:cy="24.350317"
     inkscape:window-width="1463"
     inkscape:window-height="604"
     inkscape:window-x="199"
     inkscape:window-y="276"
     inkscape:window-maximized="0"
     inkscape:current-layer="svg7"
     showgrid="false" />
  <defs
     id="defs2">
    <linearGradient
       id="linearGradient5"
       inkscape:collect="always">
      <stop
         style="stop-color:#392713;stop-opacity:1;"
         offset="0"
         id="stop2" />
      <stop
         style="stop-color:#eed59e;stop-opacity:1;"
         offset="0.5"
         id="stop3" />
      <stop
         style="stop-color:#beaa8a;stop-opacity:1;"
         offset="1"
         id="stop4" />
    </linearGradient>
    <linearGradient
       id="linearGradient8"
       inkscape:collect="always">
      <stop
         style="stop-color:#1a1a1a;stop-opacity:1;"
         offset="0"
         id="stop8" />
      <stop
         style="stop-color:#ffffff;stop-opacity:0;"
         offset="1"
         id="stop9" />
    </linearGradient>
    <linearGradient
       inkscape:collect="always"
       xlink:href="#linearGradient5"
       id="linearGradient41"
       x1="13.675659"
       y1="16.110115"
       x2="13.728528"
       y2="10.548769"
       gradientUnits="userSpaceOnUse"
       gradientTransform="matrix(2.046153,0,0,2.046153,-18.798306,-18.911347)" />
    <linearGradient
       inkscape:collect="always"
       xlink:href="#linearGradient42"
       id="linearGradient4"
       x1="11.885941"
       y1="16.50819"
       x2="12.026573"
       y2="10.244942"
       gradientUnits="userSpaceOnUse"
       gradientTransform="matrix(2.046153,0,0,2.046153,-18.798306,-18.911347)" />
    <linearGradient
       id="linearGradient42"
       inkscape:collect="always">
      <stop
         style="stop-color:#010101;stop-opacity:1;"
         offset="0"
         id="stop42" />
      <stop
         style="stop-color:#6e6c6d;stop-opacity:1;"
         offset="1"
         id="stop43" />
    </linearGradient>
    <linearGradient
       inkscape:collect="always"
       xlink:href="#linearGradient8"
       id="linearGradient9"
       x1="9.3404646"
       y1="4.1692023"
       x2="9.4279938"
       y2="16.46883"
       gradientUnits="userSpaceOnUse"
       gradientTransform="matrix(1.05,0,0,1.05,-0.50277005,-0.1977751)" />
    <filter
       style="color-interpolation-filters:sRGB;"
       inkscape:label="Blur"
       id="filter2"
       x="-0.14510849"
       y="-0.14612901"
       width="1.290217"
       height="1.292258">
      <feGaussianBlur
         stdDeviation="0.6 0.6"
         result="blur"
         id="feGaussianBlur2" />
    </filter>
    <linearGradient
       inkscape:collect="always"
       xlink:href="#linearGradient5"
       id="linearGradient19"
       x1="9.0456343"
       y1="11.811415"
       x2="8.9086103"
       y2="5.7644835"
       gradientUnits="userSpaceOnUse" />
  </defs>
  <metadata
     id="metadata2">
    <rdf:RDF>
      <cc:Work
         rdf:about="">
        <dc:format>image/svg+xml</dc:format>
        <dc:type
           rdf:resource="http://purl.org/dc/dcmitype/StillImage" />
      </cc:Work>
    </rdf:RDF>
  </metadata>
  <rect
     style="fill:#000000;fill-opacity:0.996424;stroke:#000000;stroke-width:0.911802;stroke-dasharray:none;stroke-opacity:1;filter:url(#filter2)"
     id="rect1-2-3"
     width="13.065404"
     height="12.974159"
     x="1.9816793"
     y="1.9267306"
     rx="2.7149384"
     ry="2.8310909" />
  <rect
     style="fill:url(#linearGradient4);fill-opacity:0.996424;stroke:url(#linearGradient41);stroke-width:0.911802;stroke-dasharray:none;stroke-opacity:1"
     id="rect1-2"
     width="13.065404"
     height="12.974159"
     x="1.9816793"
     y="1.9267306"
     rx="2.7149384"
     ry="2.8310909" />
  <path
     style="fill:#000000;fill-opacity:1;stroke-width:0.0321665;opacity:0.3"
     d="m 5.778102,12.367659 c -0.5645525,-0.05035 -0.9037102,-0.34071 -1.0438704,-0.893638 -0.022624,-0.08925 -0.026101,-0.125163 -0.026101,-0.269618 0,-0.557305 0.1846188,-0.876441 0.5933943,-1.025758 0.091418,-0.03339 0.1142539,-0.03751 0.2319167,-0.04181 0.1654379,-0.0061 0.2509288,0.01164 0.3875702,0.08022 0.1770058,0.08883 0.3032308,0.214164 0.3884857,0.385742 0.1084659,0.218291 0.098932,0.428094 -0.028082,0.617996 -0.138585,0.207203 -0.3663076,0.323566 -0.5446499,0.278314 -0.139135,-0.03531 -0.248964,-0.149015 -0.3039969,-0.314739 -0.025482,-0.07673 -0.026072,-0.223202 -0.00119,-0.294483 0.050505,-0.144675 0.1956686,-0.229327 0.3722525,-0.217079 0.074404,0.0052 0.1606081,0.02285 0.2161622,0.04436 0.018055,0.0069 0.017567,0.0042 -0.00492,-0.02758 -0.078888,-0.111626 -0.2163949,-0.197633 -0.3487343,-0.218117 -0.2153091,-0.03333 -0.4317167,0.08906 -0.53486,0.302472 -0.052164,0.107932 -0.072223,0.190177 -0.080275,0.329125 -0.016337,0.281916 0.047792,0.452558 0.2433096,0.647421 0.1133088,0.11293 0.2058926,0.170354 0.3589676,0.222646 0.1970836,0.06733 0.4471719,0.08724 0.6449564,0.05135 0.6122094,-0.111109 1.1302759,-0.388777 1.6250861,-0.870998 0.125804,-0.122604 0.8045198,-0.881846 1.756055,-1.9644056 0.046364,-0.052749 0.068891,-0.085055 0.056615,-0.081208 C 9.4099975,9.2101238 9.2673428,9.2445497 9.0261572,9.2792112 8.7875116,9.3135115 8.5843419,9.3244754 8.3056339,9.3180979 8.164101,9.3148602 7.9811378,9.3048801 7.899049,9.2959212 7.0606519,9.2044264 6.239786,8.9271767 5.4760505,8.4775461 5.2287035,8.3319262 5.1152806,8.2948528 4.9471017,8.3046528 4.7921586,8.3136805 4.645302,8.3863399 4.4850803,8.5332402 l -0.073799,0.067662 -0.00559,-0.064411 c -0.00308,-0.035426 -0.00826,-0.1741773 -0.011516,-0.3083359 l -0.00593,-0.2439255 0.033848,-0.00503 c 0.018616,-0.00276 0.094065,-0.010253 0.1676616,-0.016634 C 4.7831306,7.9457991 5.0635006,7.8964539 5.2999919,7.8375682 5.6062697,7.7613051 5.9697656,7.6353288 6.5017222,7.4210856 6.7635653,7.3156293 7.0658081,7.1971234 7.173373,7.1577393 7.537681,7.0243494 7.8801126,6.9371188 8.2027019,6.8955285 c 0.1991031,-0.025671 0.6429724,-0.025369 0.8337562,5.516e-4 0.3948306,0.053672 0.7301988,0.1515364 1.2815139,0.3739628 0.133041,0.053675 0.339164,0.136811 0.458051,0.1847467 0.406969,0.1640904 0.771888,0.2745867 1.062488,0.3217179 0.145063,0.023527 0.455662,0.046541 0.530752,0.039326 l 0.05116,-0.00491 -0.0071,0.1195615 c -0.01069,0.1790871 0.0045,0.1617699 -0.148044,0.1691767 -0.2704,0.013135 -0.561569,0.09758 -0.976141,0.283107 -0.138032,0.061771 -0.214087,0.1091329 -0.289358,0.1801916 -0.248349,0.2344557 -0.318627,0.5995513 -0.172716,0.8972666 0.149497,0.3050315 0.484243,0.4223478 0.901123,0.3158124 0.06511,-0.016638 0.147644,-0.042198 0.18342,-0.056802 0.03577,-0.014601 0.06357,-0.02327 0.06176,-0.019263 -0.0019,0.00401 -0.06572,0.090665 -0.14203,0.1925688 -0.253067,0.3379459 -0.518286,0.7506749 -0.750745,1.1682879 -0.120362,0.216231 -0.366488,0.708321 -0.459251,0.918203 -0.03929,0.08891 -0.07432,0.15607 -0.07785,0.149254 -0.006,-0.01162 -0.01693,-0.219116 -0.04048,-0.768953 -0.02204,-0.514421 -0.03041,-1.320779 -0.01966,-1.8925703 0.0059,-0.3134361 0.0092,-0.5714282 0.0073,-0.5733157 -0.0049,-0.00491 -0.231676,0.1684408 -0.341902,0.2613541 -0.132242,0.1114356 -0.4071034,0.3823886 -0.5656831,0.5576 C 9.3484591,9.9716131 9.1630785,10.198773 8.8102514,10.659384 8.6866599,10.820733 8.553374,10.992115 8.5140611,11.040236 8.0504526,11.607719 7.5349851,11.995697 6.9726727,12.200408 6.6075871,12.333318 6.13498,12.399485 5.7781204,12.36765 Z M 8.8881259,8.945692 C 9.6618141,8.870974 10.446625,8.5867248 11.342399,8.0567818 l 0.119976,-0.070979 -0.183629,-0.058951 C 11.081186,7.8634293 10.884417,7.790428 10.446639,7.6181406 10.171306,7.5097835 9.7518419,7.3610159 9.7518419,7.3717234 c 0,0.00305 0.013282,0.02492 0.02951,0.048586 C 9.890691,7.5797272 9.9406752,7.7759396 9.9166488,7.9514175 9.8678472,8.3078422 9.5967236,8.5823209 9.1864699,8.6906274 9.1021865,8.7128781 9.0640903,8.7168139 8.9232323,8.7178175 8.7491638,8.7190485 8.6951474,8.7114362 8.5526738,8.6655442 8.3906054,8.6133373 8.2771719,8.5461257 8.1578006,8.431575 8.0422438,8.3206841 7.9743982,8.2122909 7.9285016,8.0652351 c -0.034465,-0.1104263 -0.034465,-0.3007854 0,-0.411212 C 7.9702236,7.5203421 8.0267676,7.4242454 8.1240258,7.321729 8.1549478,7.289135 8.1783528,7.260707 8.1760348,7.258557 8.1683548,7.251427 7.8883474,7.313217 7.740704,7.354617 7.5114419,7.4189037 7.228155,7.5188583 6.7616419,7.7000676 6.131336,7.9448996 5.8578784,8.0406937 5.526568,8.132721 5.452387,8.153327 5.438293,8.143385 5.7018383,8.2563526 c 0.9301766,0.3987178 1.6931986,0.6236346 2.3206753,0.684068 0.059475,0.00572 0.1243477,0.011962 0.1441624,0.013855 0.1118513,0.010683 0.5795808,0.00512 0.7214498,-0.00859 z M 11.859927,7.2826361 C 11.627274,7.250532 11.377828,7.1821642 10.894397,7.0180057 10.251698,6.7997647 10.106966,6.752553 9.9425265,6.7075049 9.1625492,6.4938316 8.3320971,6.4883323 7.4667321,6.6911109 7.2553847,6.7406351 7.0818718,6.7930435 6.7513486,6.9071879 6.153833,7.1135361 5.7471026,7.2119117 5.3647297,7.2425676 5.095665,7.2641394 4.8396865,7.2265747 4.6631308,7.1396125 4.5777381,7.0975519 4.4756358,7.0284858 4.4850022,7.0191195 c 0.00286,-0.00286 0.060021,4.455e-4 0.1270288,0.00737 0.1455901,0.015014 0.4546114,0.00734 0.605618,-0.015029 C 5.5202647,6.9666234 5.7562909,6.8929306 6.092578,6.7382917 7.3304582,6.1690619 8.654109,5.9821428 9.6746424,6.2324502 c 0.2382885,0.058446 0.3070674,0.083605 0.7223486,0.2642231 1.020702,0.4439338 1.520582,0.5931745 2.102298,0.6276472 l 0.117512,0.00696 -0.02488,0.019623 c -0.04149,0.032733 -0.185437,0.098315 -0.25647,0.1168489 -0.07909,0.020637 -0.368255,0.029688 -0.475532,0.014885 z"
     id="path1-8" />
  <path
     style="opacity:1;fill:url(#linearGradient19);fill-opacity:1;stroke-width:0.0321665"
     d="m 5.778102,11.838503 c -0.5645525,-0.05035 -0.9037102,-0.34071 -1.0438704,-0.893638 -0.022624,-0.08925 -0.026101,-0.125163 -0.026101,-0.269618 0,-0.557305 0.1846188,-0.8764413 0.5933943,-1.0257583 0.091418,-0.033392 0.1142539,-0.03751 0.2319167,-0.041814 0.1654379,-0.00605 0.2509288,0.011641 0.3875702,0.080216 0.1770058,0.088831 0.3032308,0.214164 0.3884857,0.3857423 0.1084659,0.218291 0.098932,0.428094 -0.028082,0.617996 -0.138585,0.207203 -0.3663076,0.323566 -0.5446499,0.278314 -0.139135,-0.03531 -0.248964,-0.149015 -0.3039969,-0.314739 -0.025482,-0.07673 -0.026072,-0.223202 -0.00119,-0.294483 0.050505,-0.144675 0.1956686,-0.229327 0.3722525,-0.217079 0.074404,0.0052 0.1606081,0.02285 0.2161622,0.04436 0.018055,0.0069 0.017567,0.0042 -0.00492,-0.02758 C 5.9361859,10.048796 5.7986785,9.9627886 5.6663391,9.9423046 5.45103,9.9089776 5.2346224,10.03136 5.1314791,10.244777 c -0.052164,0.107932 -0.072223,0.190177 -0.080275,0.329125 -0.016337,0.281916 0.047792,0.452558 0.2433096,0.647421 0.1133088,0.11293 0.2058926,0.170354 0.3589676,0.222646 0.1970836,0.06733 0.4471719,0.08724 0.6449564,0.05135 0.6122094,-0.111109 1.1302759,-0.388777 1.6250861,-0.870998 0.125804,-0.122604 0.8045198,-0.8818459 1.756055,-1.9644058 0.046364,-0.052749 0.068891,-0.085055 0.056615,-0.081208 C 9.4099975,8.6809676 9.2673428,8.7153935 9.0261572,8.750055 8.7875116,8.7843553 8.5843419,8.7953192 8.3056339,8.7889417 8.164101,8.785704 7.9811378,8.7757239 7.899049,8.766765 7.0606519,8.6752702 6.239786,8.3980205 5.4760505,7.9483899 5.2287035,7.80277 5.1152806,7.7656966 4.9471017,7.7754966 4.7921586,7.7845243 4.645302,7.8571837 4.4850803,8.004084 L 4.4112813,8.071746 4.4056913,8.007335 C 4.4026142,7.971909 4.3974302,7.8331577 4.3941749,7.6989991 l -0.00593,-0.2439255 0.033848,-0.00503 C 4.4407091,7.4472811 4.5161575,7.439791 4.5897545,7.4334099 4.7831306,7.4166429 5.0635006,7.3672977 5.2999919,7.308412 5.6062697,7.2321489 5.9697656,7.1061726 6.5017222,6.8919294 6.7635653,6.7864731 7.0658081,6.6679672 7.173373,6.6285831 7.537681,6.4951932 7.8801126,6.4079626 8.2027019,6.3663723 c 0.1991031,-0.025671 0.6429724,-0.025369 0.8337562,5.516e-4 0.3948306,0.053672 0.7301988,0.1515364 1.2815139,0.3739628 0.133041,0.053675 0.339164,0.136811 0.458051,0.1847467 0.406969,0.1640904 0.771888,0.2745867 1.062488,0.3217179 0.145063,0.023527 0.455662,0.046541 0.530752,0.039326 l 0.05116,-0.00491 -0.0071,0.1195615 c -0.01069,0.1790871 0.0045,0.1617699 -0.148044,0.1691767 -0.2704,0.013135 -0.561569,0.09758 -0.976141,0.283107 -0.138032,0.061771 -0.214087,0.1091329 -0.289358,0.1801916 -0.248349,0.2344557 -0.318627,0.5995513 -0.172716,0.8972665 0.149497,0.3050315 0.484243,0.4223478 0.901123,0.3158124 0.06511,-0.016638 0.147644,-0.042198 0.18342,-0.056802 0.03577,-0.014601 0.06357,-0.02327 0.06176,-0.019263 -0.0019,0.00401 -0.06572,0.090665 -0.14203,0.1925688 -0.253067,0.3379459 -0.518286,0.7506752 -0.750745,1.1682882 -0.120362,0.216231 -0.366488,0.708321 -0.459251,0.918203 -0.03929,0.08891 -0.07432,0.15607 -0.07785,0.149254 -0.006,-0.01162 -0.01693,-0.219116 -0.04048,-0.768953 -0.02204,-0.514421 -0.03041,-1.3207796 -0.01966,-1.8925706 0.0059,-0.3134361 0.0092,-0.5714282 0.0073,-0.5733157 -0.0049,-0.00491 -0.231676,0.1684408 -0.341902,0.2613541 C 10.016507,8.7370825 9.7416456,9.0080355 9.5830659,9.1832469 9.3484591,9.4424569 9.1630785,9.6696166 8.8102514,10.130228 8.6866599,10.291577 8.553374,10.462959 8.5140611,10.51108 8.0504526,11.078563 7.5349851,11.466541 6.9726727,11.671252 6.6075871,11.804162 6.13498,11.870329 5.7781204,11.838494 Z M 8.8881259,8.4165358 C 9.6618141,8.3418178 10.446625,8.0575686 11.342399,7.5276256 l 0.119976,-0.070979 -0.183629,-0.058951 C 11.081186,7.3342731 10.884417,7.2612718 10.446639,7.0889844 10.171306,6.9806273 9.7518419,6.8318597 9.7518419,6.8425672 c 0,0.00305 0.013282,0.02492 0.02951,0.048586 C 9.890691,7.050571 9.9406752,7.2467834 9.9166488,7.4222613 9.8678472,7.778686 9.5967236,8.0531647 9.1864699,8.1614712 9.1021865,8.1837219 9.0640903,8.1876577 8.9232323,8.1886613 8.7491638,8.1898923 8.6951474,8.18228 8.5526738,8.136388 8.3906054,8.0841811 8.2771719,8.0169695 8.1578006,7.9024188 8.0422438,7.7915279 7.9743982,7.6831347 7.9285016,7.5360789 c -0.034465,-0.1104263 -0.034465,-0.3007854 0,-0.411212 0.041722,-0.133681 0.098266,-0.2297777 0.1955242,-0.3322941 0.030922,-0.032594 0.054327,-0.061022 0.052009,-0.063172 -0.00768,-0.00713 -0.2876874,0.05466 -0.4353308,0.09606 C 7.5114419,6.8897475 7.228155,6.9897021 6.7616419,7.1709114 6.131336,7.4157434 5.8578784,7.5115375 5.526568,7.6035648 c -0.074181,0.020606 -0.088275,0.010664 0.1752703,0.1236316 0.9301766,0.3987178 1.6931986,0.6236346 2.3206753,0.684068 0.059475,0.00572 0.1243477,0.011962 0.1441624,0.013855 0.1118513,0.010683 0.5795808,0.00512 0.7214498,-0.00859 z M 11.859927,6.7534799 C 11.627274,6.7213758 11.377828,6.653008 10.894397,6.4888495 10.251698,6.2706085 10.106966,6.2233968 9.9425265,6.1783487 9.1625492,5.9646754 8.3320971,5.9591761 7.4667321,6.1619547 7.2553847,6.2114789 7.0818718,6.2638873 6.7513486,6.3780317 6.153833,6.5843799 5.7471026,6.6827555 5.3647297,6.7134114 5.095665,6.7349832 4.8396865,6.6974185 4.6631308,6.6104563 4.5777381,6.5683957 4.4756358,6.4993296 4.4850022,6.4899633 c 0.00286,-0.00286 0.060021,4.455e-4 0.1270288,0.00737 0.1455901,0.015014 0.4546114,0.00734 0.605618,-0.015029 C 5.5202647,6.4374672 5.7562909,6.3637744 6.092578,6.2091355 7.3304582,5.6399057 8.654109,5.4529866 9.6746424,5.703294 9.9129309,5.76174 9.9817098,5.786899 10.396991,5.9675171 c 1.020702,0.4439338 1.520582,0.5931745 2.102298,0.6276472 l 0.117512,0.00696 -0.02488,0.019623 c -0.04149,0.032733 -0.185437,0.098315 -0.25647,0.1168489 -0.07909,0.020637 -0.368255,0.029688 -0.475532,0.014885 z"
     id="path1" />
  <rect
     style="opacity:0.5;fill:none;fill-opacity:0.996424;stroke:url(#linearGradient9);stroke-width:0.566102;stroke-dasharray:none;stroke-opacity:1"
     id="rect1-2-6"
     width="11.574203"
     height="11.508601"
     x="2.729686"
     y="2.6615164"
     rx="2.0246315"
     ry="2.0627522" />
</svg>
