<?xml version="1.0" encoding="UTF-8" standalone="no"?>
<svg
   width="64"
   height="64"
   version="1.1"
   viewBox="0 0 16.933 16.933"
   id="svg7"
   sodipodi:docname="Template 4.svg"
   inkscape:version="1.3.2 (091e20ef0f, 2023-11-25)"
   xmlns:inkscape="http://www.inkscape.org/namespaces/inkscape"
   xmlns:sodipodi="http://sodipodi.sourceforge.net/DTD/sodipodi-0.dtd"
   xmlns:xlink="http://www.w3.org/1999/xlink"
   xmlns="http://www.w3.org/2000/svg"
   xmlns:svg="http://www.w3.org/2000/svg"
   xmlns:rdf="http://www.w3.org/1999/02/22-rdf-syntax-ns#"
   xmlns:cc="http://creativecommons.org/ns#"
   xmlns:dc="http://purl.org/dc/elements/1.1/">
  <sodipodi:namedview
     id="namedview7"
     pagecolor="#9c4444"
     bordercolor="#000000"
     borderopacity="0.25"
     inkscape:showpageshadow="2"
     inkscape:pageopacity="0.0"
     inkscape:pagecheckerboard="0"
     inkscape:deskcolor="#d1d1d1"
     inkscape:zoom="4.3531261"
     inkscape:cx="32.964816"
     inkscape:cy="24.350317"
     inkscape:window-width="1463"
     inkscape:window-height="604"
     inkscape:window-x="199"
     inkscape:window-y="276"
     inkscape:window-maximized="0"
     inkscape:current-layer="svg7"
     showgrid="false" />
  <defs
     id="defs2">
    <linearGradient
       id="linearGradient5"
       inkscape:collect="always">
      <stop
         style="stop-color:#392713;stop-opacity:1;"
         offset="0"
         id="stop2" />
      <stop
         style="stop-color:#eed59e;stop-opacity:1;"
         offset="0.5"
         id="stop3" />
      <stop
         style="stop-color:#beaa8a;stop-opacity:1;"
         offset="1"
         id="stop4" />
    </linearGradient>
    <linearGradient
       id="linearGradient8"
       inkscape:collect="always">
      <stop
         style="stop-color:#1a1a1a;stop-opacity:1;"
         offset="0"
         id="stop8" />
      <stop
         style="stop-color:#ffffff;stop-opacity:0;"
         offset="1"
         id="stop9" />
    </linearGradient>
    <linearGradient
       inkscape:collect="always"
       xlink:href="#linearGradient5"
       id="linearGradient41"
       x1="13.675659"
       y1="16.110115"
       x2="13.728528"
       y2="10.548769"
       gradientUnits="userSpaceOnUse"
       gradientTransform="matrix(2.046153,0,0,2.046153,-18.798306,-18.911347)" />
    <linearGradient
       inkscape:collect="always"
       xlink:href="#linearGradient42"
       id="linearGradient4"
       x1="11.885941"
       y1="16.50819"
       x2="12.026573"
       y2="10.244942"
       gradientUnits="userSpaceOnUse"
       gradientTransform="matrix(2.046153,0,0,2.046153,-18.798306,-18.911347)" />
    <linearGradient
       id="linearGradient42"
       inkscape:collect="always">
      <stop
         style="stop-color:#010101;stop-opacity:1;"
         offset="0"
         id="stop42" />
      <stop
         style="stop-color:#6e6c6d;stop-opacity:1;"
         offset="1"
         id="stop43" />
    </linearGradient>
    <linearGradient
       inkscape:collect="always"
       xlink:href="#linearGradient8"
       id="linearGradient9"
       x1="9.3404646"
       y1="4.1692023"
       x2="9.4279938"
       y2="16.46883"
       gradientUnits="userSpaceOnUse"
       gradientTransform="matrix(1.05,0,0,1.05,-0.50277005,-0.1977751)" />
    <filter
       style="color-interpolation-filters:sRGB;"
       inkscape:label="Blur"
       id="filter2"
       x="-0.14510849"
       y="-0.14612901"
       width="1.290217"
       height="1.292258">
      <feGaussianBlur
         stdDeviation="0.6 0.6"
         result="blur"
         id="feGaussianBlur2" />
    </filter>
    <linearGradient
       inkscape:collect="always"
       xlink:href="#linearGradient5"
       id="linearGradient25"
       x1="28.825705"
       y1="50.845589"
       x2="28.761095"
       y2="13.64562"
       gradientUnits="userSpaceOnUse"
       gradientTransform="matrix(0.23573911,0,0,0.23573911,0.98207294,0.72427832)" />
  </defs>
  <metadata
     id="metadata2">
    <rdf:RDF>
      <cc:Work
         rdf:about="">
        <dc:format>image/svg+xml</dc:format>
        <dc:type
           rdf:resource="http://purl.org/dc/dcmitype/StillImage" />
      </cc:Work>
    </rdf:RDF>
  </metadata>
  <rect
     style="fill:#000000;fill-opacity:0.996424;stroke:#000000;stroke-width:0.911802;stroke-dasharray:none;stroke-opacity:1;filter:url(#filter2)"
     id="rect1-2-3"
     width="13.065404"
     height="12.974159"
     x="1.9816793"
     y="1.9267306"
     rx="2.7149384"
     ry="2.8310909" />
  <rect
     style="fill:url(#linearGradient4);fill-opacity:0.996424;stroke:url(#linearGradient41);stroke-width:0.911802;stroke-dasharray:none;stroke-opacity:1"
     id="rect1-2"
     width="13.065404"
     height="12.974159"
     x="1.9816793"
     y="1.9267306"
     rx="2.7149384"
     ry="2.8310909" />
  <path
     style="fill:#000000;fill-opacity:1;stroke:none;stroke-width:0.25672;stroke-dasharray:none;stroke-dashoffset:2.2;stroke-opacity:0.3;opacity:0.3"
     d="m 6.3639898,13.255615 c 0,-0.01203 0.047391,-0.11777 0.1053169,-0.234999 0.060818,-0.123087 0.1166323,-0.29139 0.132098,-0.398333 0.033332,-0.230493 0.035912,-2.176347 0.00295,-2.228295 -0.02871,-0.04526 -0.338792,0.05755 -0.6605533,0.218996 C 5.7153628,10.727608 5.7137289,10.725702 5.7898302,10.433532 5.8884137,10.055059 6.1474457,9.6807926 6.4556804,9.4714743 L 6.6293717,9.3535233 V 7.911154 c 0,-0.9488671 -0.010641,-1.4657287 -0.031109,-1.5106422 -0.078438,-0.1721553 -0.397527,-0.3026984 -0.6692041,-0.2737804 -0.1502169,0.01599 -0.184293,0.011723 -0.184293,-0.023062 0,-0.049083 0.4425872,-0.5399502 1.0821233,-1.200169 L 7.2693342,4.4467466 7.4394094,4.5596704 C 7.6988858,4.7319528 7.8648589,4.8990253 7.9561099,5.0797921 8.068628,5.3026894 8.0972806,5.4225915 8.131667,5.814446 8.1609377,6.1479958 8.1766877,6.2115245 8.2158935,6.1541685 8.2271731,6.1376623 8.322654,6.0588919 8.4280696,5.9791202 8.6096184,5.8417347 8.9319527,5.5880638 9.8434377,4.8652521 10.062377,4.6916317 10.255536,4.5495305 10.272681,4.5494716 c 0.01714,-5.85e-5 0.09237,0.082824 0.167172,0.1841862 0.192597,0.2609892 0.476835,0.5390187 0.623772,0.61015 0.14958,0.07241 0.397799,0.080203 0.574037,0.018025 0.06647,-0.023461 0.126736,-0.033195 0.133879,-0.021636 0.02403,0.038876 -0.03828,0.2972962 -0.101597,0.4214169 -0.08015,0.1571364 -0.291424,0.3834103 -0.42526,0.4554868 l -0.103825,0.055913 5.42e-4,1.8878242 5.42e-4,1.8878243 0.08792,0.159516 c 0.04836,0.08773 0.08792,0.165308 0.08792,0.172387 0,0.007 -0.136243,0.0036 -0.302766,-0.0077 -0.655681,-0.0447 -1.3334734,0.16798 -2.0793101,0.652433 -0.1343543,0.08726 -0.2523017,0.158671 -0.2621047,0.158671 -0.0098,0 -0.125451,-0.102835 -0.2569951,-0.228523 l -0.2391685,-0.228528 -0.00798,0.633739 c -0.00874,0.694439 0.00935,0.838229 0.1403755,1.115271 l 0.086251,0.182377 H 8.1244934 c -0.3986021,0 -0.9288081,0.17171 -1.4696641,0.47596 -0.2609934,0.1468 -0.2908207,0.159253 -0.2908207,0.121391 z M 9.5821393,9.8169835 c 0.011226,-0.6600789 0.009,-2.2068595 -0.00409,-2.8331374 L 9.5633156,6.2779784 9.4604204,6.2513733 C 9.4038283,6.2367411 9.2975897,6.1807716 9.2243352,6.1269978 9.0977452,6.0340721 9.088108,6.0316473 9.029874,6.078069 8.9961753,6.1049322 8.9244974,6.1600842 8.8705896,6.2006282 8.8166823,6.2411723 8.7580901,6.2876141 8.7403866,6.3038322 8.7226827,6.3200484 8.5852328,6.431891 8.4349422,6.5523681 l -0.273255,0.2190495 0.016579,1.1078586 c 0.00913,0.6093221 0.02299,1.1613291 0.03082,1.2266813 0.014082,0.1175148 0.016664,0.1197485 0.2344161,0.2028855 0.2917816,0.1114018 0.6020808,0.3202843 0.851158,0.5729702 0.1188177,0.1205388 0.2197947,0.1996878 0.2432667,0.1906808 0.028806,-0.01106 0.041281,-0.08315 0.044212,-0.2555105 z"
     id="path1-7-3-4" />
  <path
     style="fill:url(#linearGradient25);fill-opacity:1;stroke:none;stroke-width:0.25672;stroke-dasharray:none;stroke-dashoffset:2.2;stroke-opacity:0.3"
     d="m 6.3639898,12.726459 c 0,-0.01203 0.047391,-0.11777 0.1053169,-0.234999 0.060818,-0.123087 0.1166323,-0.29139 0.132098,-0.398333 0.033332,-0.230493 0.035912,-2.1763475 0.00295,-2.2282955 -0.02871,-0.045255 -0.338792,0.057555 -0.6605533,0.2189965 C 5.7153628,10.198452 5.7137289,10.196546 5.7898302,9.9043757 5.8884137,9.5259026 6.1474457,9.1516364 6.4556804,8.9423181 L 6.6293717,8.8243671 V 7.3819978 c 0,-0.9488671 -0.010641,-1.4657287 -0.031109,-1.5106422 -0.078438,-0.1721553 -0.397527,-0.3026984 -0.6692041,-0.2737804 -0.1502169,0.01599 -0.184293,0.011723 -0.184293,-0.023062 0,-0.049083 0.4425872,-0.5399502 1.0821233,-1.200169 L 7.2693342,3.9175904 7.4394094,4.0305142 C 7.6988858,4.2027966 7.8648589,4.3698691 7.9561099,4.5506359 8.068628,4.7735332 8.0972806,4.8934353 8.131667,5.2852898 8.1609377,5.6188396 8.1766877,5.6823683 8.2158935,5.6250123 8.2271731,5.6085061 8.322654,5.5297357 8.4280696,5.449964 8.6096184,5.3125785 8.9319527,5.0589076 9.8434377,4.3360959 10.062377,4.1624755 10.255536,4.0203743 10.272681,4.0203154 c 0.01714,-5.85e-5 0.09237,0.082824 0.167172,0.1841862 0.192597,0.2609892 0.476835,0.5390187 0.623772,0.61015 0.14958,0.07241 0.397799,0.080203 0.574037,0.018025 0.06647,-0.023461 0.126736,-0.033195 0.133879,-0.021636 0.02403,0.038876 -0.03828,0.2972962 -0.101597,0.4214169 -0.08015,0.1571364 -0.291424,0.3834103 -0.42526,0.4554868 l -0.103825,0.055913 5.42e-4,1.8878242 5.42e-4,1.887824 0.08792,0.1595165 c 0.04836,0.087732 0.08792,0.1653078 0.08792,0.1723872 0,0.00702 -0.136243,0.0036 -0.302766,-0.00774 -0.655681,-0.044696 -1.3334734,0.1679798 -2.0793101,0.6524328 -0.1343543,0.08726 -0.2523017,0.158671 -0.2621047,0.158671 -0.0098,0 -0.125451,-0.102835 -0.2569951,-0.228523 l -0.2391685,-0.228528 -0.00798,0.633739 c -0.00874,0.694439 0.00935,0.838229 0.1403755,1.115271 l 0.086251,0.182377 H 8.1244934 c -0.3986021,0 -0.9288081,0.17171 -1.4696641,0.47596 -0.2609934,0.1468 -0.2908207,0.159253 -0.2908207,0.121391 z M 9.5821393,9.2878273 c 0.011226,-0.6600789 0.009,-2.2068595 -0.00409,-2.8331374 L 9.5633156,5.7488222 9.4604204,5.7222171 C 9.4038283,5.7075849 9.2975897,5.6516154 9.2243352,5.5978416 9.0977452,5.5049159 9.088108,5.5024911 9.029874,5.5489128 8.9961753,5.575776 8.9244974,5.630928 8.8705896,5.671472 8.8166823,5.7120161 8.7580901,5.7584579 8.7403866,5.774676 8.7226827,5.7908922 8.5852328,5.9027348 8.4349422,6.0232119 L 8.1616872,6.2422614 8.1782661,7.35012 c 0.00913,0.6093221 0.02299,1.1613291 0.03082,1.2266813 0.014082,0.1175148 0.016664,0.1197485 0.2344161,0.2028855 0.2917816,0.1114018 0.6020808,0.3202843 0.851158,0.5729702 0.1188177,0.1205386 0.2197947,0.1996881 0.2432667,0.1906809 0.028806,-0.011056 0.041281,-0.08315 0.044212,-0.2555106 z"
     id="path1-7-3" />
  <rect
     style="opacity:0.5;fill:none;fill-opacity:0.996424;stroke:url(#linearGradient9);stroke-width:0.566102;stroke-dasharray:none;stroke-opacity:1"
     id="rect1-2-6"
     width="11.574203"
     height="11.508601"
     x="2.729686"
     y="2.6615164"
     rx="2.0246315"
     ry="2.0627522" />
</svg>
