<?xml version="1.0" encoding="UTF-8" standalone="no"?>
<svg
   width="64"
   height="64"
   version="1.1"
   viewBox="0 0 16.933 16.933"
   id="svg7"
   sodipodi:docname="Template 4.svg"
   inkscape:version="1.3.2 (091e20ef0f, 2023-11-25)"
   xmlns:inkscape="http://www.inkscape.org/namespaces/inkscape"
   xmlns:sodipodi="http://sodipodi.sourceforge.net/DTD/sodipodi-0.dtd"
   xmlns:xlink="http://www.w3.org/1999/xlink"
   xmlns="http://www.w3.org/2000/svg"
   xmlns:svg="http://www.w3.org/2000/svg"
   xmlns:rdf="http://www.w3.org/1999/02/22-rdf-syntax-ns#"
   xmlns:cc="http://creativecommons.org/ns#"
   xmlns:dc="http://purl.org/dc/elements/1.1/">
  <sodipodi:namedview
     id="namedview7"
     pagecolor="#9c4444"
     bordercolor="#000000"
     borderopacity="0.25"
     inkscape:showpageshadow="2"
     inkscape:pageopacity="0.0"
     inkscape:pagecheckerboard="0"
     inkscape:deskcolor="#d1d1d1"
     inkscape:zoom="4.3531261"
     inkscape:cx="32.964816"
     inkscape:cy="24.350317"
     inkscape:window-width="1463"
     inkscape:window-height="604"
     inkscape:window-x="199"
     inkscape:window-y="276"
     inkscape:window-maximized="0"
     inkscape:current-layer="svg7"
     showgrid="false" />
  <defs
     id="defs2">
    <linearGradient
       id="linearGradient5"
       inkscape:collect="always">
      <stop
         style="stop-color:#392713;stop-opacity:1;"
         offset="0"
         id="stop2" />
      <stop
         style="stop-color:#eed59e;stop-opacity:1;"
         offset="0.5"
         id="stop3" />
      <stop
         style="stop-color:#beaa8a;stop-opacity:1;"
         offset="1"
         id="stop4" />
    </linearGradient>
    <linearGradient
       id="linearGradient8"
       inkscape:collect="always">
      <stop
         style="stop-color:#1a1a1a;stop-opacity:1;"
         offset="0"
         id="stop8" />
      <stop
         style="stop-color:#ffffff;stop-opacity:0;"
         offset="1"
         id="stop9" />
    </linearGradient>
    <linearGradient
       inkscape:collect="always"
       xlink:href="#linearGradient5"
       id="linearGradient41"
       x1="13.675659"
       y1="16.110115"
       x2="13.728528"
       y2="10.548769"
       gradientUnits="userSpaceOnUse"
       gradientTransform="matrix(2.046153,0,0,2.046153,-18.798306,-18.911347)" />
    <linearGradient
       inkscape:collect="always"
       xlink:href="#linearGradient42"
       id="linearGradient4"
       x1="11.885941"
       y1="16.50819"
       x2="12.026573"
       y2="10.244942"
       gradientUnits="userSpaceOnUse"
       gradientTransform="matrix(2.046153,0,0,2.046153,-18.798306,-18.911347)" />
    <linearGradient
       id="linearGradient42"
       inkscape:collect="always">
      <stop
         style="stop-color:#010101;stop-opacity:1;"
         offset="0"
         id="stop42" />
      <stop
         style="stop-color:#6e6c6d;stop-opacity:1;"
         offset="1"
         id="stop43" />
    </linearGradient>
    <linearGradient
       inkscape:collect="always"
       xlink:href="#linearGradient8"
       id="linearGradient9"
       x1="9.3404646"
       y1="4.1692023"
       x2="9.4279938"
       y2="16.46883"
       gradientUnits="userSpaceOnUse"
       gradientTransform="matrix(1.05,0,0,1.05,-0.50277005,-0.1977751)" />
    <filter
       style="color-interpolation-filters:sRGB;"
       inkscape:label="Blur"
       id="filter2"
       x="-0.14510849"
       y="-0.14612901"
       width="1.290217"
       height="1.292258">
      <feGaussianBlur
         stdDeviation="0.6 0.6"
         result="blur"
         id="feGaussianBlur2" />
    </filter>
    <linearGradient
       inkscape:collect="always"
       xlink:href="#linearGradient5"
       id="linearGradient15"
       x1="32.598949"
       y1="49.860882"
       x2="32.465279"
       y2="14.599562"
       gradientUnits="userSpaceOnUse"
       gradientTransform="matrix(0.23573911,0,0,0.23573911,0.93553281,0.80541127)" />
  </defs>
  <metadata
     id="metadata2">
    <rdf:RDF>
      <cc:Work
         rdf:about="">
        <dc:format>image/svg+xml</dc:format>
        <dc:type
           rdf:resource="http://purl.org/dc/dcmitype/StillImage" />
      </cc:Work>
    </rdf:RDF>
  </metadata>
  <rect
     style="fill:#000000;fill-opacity:0.996424;stroke:#000000;stroke-width:0.911802;stroke-dasharray:none;stroke-opacity:1;filter:url(#filter2)"
     id="rect1-2-3"
     width="13.065404"
     height="12.974159"
     x="1.9816793"
     y="1.9267306"
     rx="2.7149384"
     ry="2.8310909" />
  <rect
     style="fill:url(#linearGradient4);fill-opacity:0.996424;stroke:url(#linearGradient41);stroke-width:0.911802;stroke-dasharray:none;stroke-opacity:1"
     id="rect1-2"
     width="13.065404"
     height="12.974159"
     x="1.9816793"
     y="1.9267306"
     rx="2.7149384"
     ry="2.8310909" />
  <path
     style="fill:#000000;fill-opacity:1;stroke:none;stroke-width:0.231048;stroke-dasharray:none;stroke-dashoffset:2.2;stroke-opacity:0.3;opacity:0.3"
     d="M 8.0117831,13.099256 C 7.4810772,13.037544 6.9044792,12.841342 6.4307516,12.561265 5.4231064,11.965529 4.685684,10.932187 4.402017,9.7184224 4.3423781,9.4632394 4.3338254,9.3680581 4.334052,8.9620848 4.334264,8.5835908 4.3452519,8.4461129 4.3934432,8.2190164 4.5312056,7.5698251 4.7936265,6.9776201 5.163705,6.4807668 5.838584,5.5747007 6.7618085,5.0047927 7.8575196,4.8178711 8.274288,4.7467729 8.9392052,4.7591497 9.341627,4.8454975 c 0.848368,0.1820341 1.528655,0.5555834 2.154118,1.1828385 0.499334,0.5007645 0.789373,0.9587666 0.992527,1.5672974 0.13415,0.4018394 0.187603,0.7011492 0.206112,1.1541455 0.04142,1.0134389 -0.304562,2.0324861 -0.966238,2.8460461 -0.778089,0.956691 -2.0246444,1.544336 -3.2440783,1.529308 -0.1536406,-0.002 -0.3661688,-0.01354 -0.4722846,-0.02588 z m 0.1569748,-0.439045 c 0.087052,-0.07785 0.08008,-0.277 -0.033768,-0.964696 -0.1627066,-0.982823 -0.4014157,-1.43386 -0.7582681,-1.432746 -0.3840643,0.0012 -1.1233346,0.394484 -1.513385,0.805106 -0.1951861,0.205479 -0.2385182,0.287218 -0.206218,0.388988 0.033232,0.104709 0.3640432,0.424934 0.6065494,0.587145 0.4378891,0.2929 1.1177197,0.594818 1.4809853,0.657717 0.1728264,0.02993 0.3652872,0.01107 0.424105,-0.04152 z m 1.2832563,-0.0029 c 0.6952718,-0.183729 1.5522768,-0.695944 1.8489628,-1.105073 0.127002,-0.175135 0.101363,-0.239657 -0.228392,-0.574797 -0.487049,-0.495 -1.225852,-0.817665 -1.5724011,-0.68673 -0.3010181,0.113732 -0.4865615,0.585851 -0.6321731,1.608573 -0.063228,0.4441 -0.064401,0.680198 -0.00371,0.747311 0.081647,0.09029 0.2734289,0.09379 0.5877153,0.01071 z M 5.5345997,10.524928 C 6.0335712,9.919372 6.22922,9.5638984 6.2486942,9.2274919 6.2635104,8.9715391 6.230679,8.8680447 6.0823166,8.7030297 5.8972072,8.4971435 5.5617955,8.3560912 5.2059092,8.3344703 4.9313258,8.3177894 4.8357037,8.3623185 4.741491,8.5507434 4.683542,8.6666428 4.67561,8.7153378 4.678825,8.9355464 4.682415,9.1815305 4.72535,9.4635985 4.8094712,9.793857 c 0.045658,0.1792458 0.2935919,0.99666 0.3349855,1.104409 l 0.02591,0.06745 0.057578,-0.06926 c 0.031669,-0.0381 0.1696619,-0.20528 0.3066539,-0.371535 z m 6.3259653,0.248387 c 0.306846,-0.342472 0.621197,-1.914667 0.459974,-2.300527 -0.07172,-0.1716507 -0.268248,-0.2111013 -0.670157,-0.1345262 -0.804791,0.1533346 -1.024034,0.739484 -0.590688,1.5791967 0.141544,0.2742715 0.320686,0.5259565 0.537727,0.7554725 0.147615,0.1561 0.196509,0.174752 0.263144,0.100384 z m -2.8066228,-0.697 C 9.6567772,9.8853933 10.121491,9.5111704 10.355213,9.02843 10.615843,8.490119 10.615845,7.9020424 10.35522,7.3301391 10.171409,6.9267923 9.9139618,6.619553 9.582898,6.4084441 9.2005569,6.1646374 8.8712291,6.0817338 8.365694,6.1020307 7.8621906,6.1222477 7.6058969,6.2366143 7.1648987,6.6378718 6.7262076,7.0370304 6.4664715,7.5905982 6.4664715,8.1264098 c 0,0.8751103 0.7433273,1.7753581 1.6453658,1.9927112 0.2201363,0.05304 0.7096926,0.0308 0.9421049,-0.04281 z M 5.3606676,7.5436163 C 5.7313388,7.4666258 6.0700773,7.3159202 6.1967602,7.171636 6.3710659,6.9731123 6.4024711,6.5712566 6.2675265,6.2661221 6.1971959,6.1070923 6.1700024,6.0846912 6.0759401,6.1082992 5.9912834,6.1295464 5.6008459,6.5203455 5.4120634,6.7727907 5.30604,6.9145685 5.0148911,7.4254535 4.9312957,7.6164041 c -0.00508,0.011598 0.018807,0.014641 0.053076,0.00677 0.03427,-0.00788 0.2036026,-0.043676 0.3762952,-0.079546 z m 6.6767264,-0.00212 c 0.06342,-0.061758 -0.0044,-0.2160178 -0.267524,-0.608717 -0.284454,-0.4245039 -0.60512,-0.8023562 -0.701433,-0.8265296 -0.146722,-0.036824 -0.362938,0.298577 -0.396897,0.6156831 -0.02272,0.2121845 -0.0061,0.2773801 0.101131,0.3997722 0.283124,0.3227644 1.089503,0.5904181 1.264723,0.4197878 z M 7.6460529,5.8667543 C 7.8037072,5.8130359 8.1030763,5.5389391 8.194118,5.3649558 L 8.257797,5.2432625 8.191793,5.1892125 C 8.111787,5.1236985 7.9720172,5.1336585 7.555263,5.2345705 7.0546382,5.3557904 6.7691245,5.5092398 6.789378,5.6461951 6.817997,5.8397225 7.3348512,5.9727916 7.6460529,5.8667543 Z m 2.2204483,0.00568 C 10.311044,5.737502 10.348595,5.5649665 9.9703612,5.3952256 9.77058,5.3055686 9.261123,5.1715899 9.0399915,5.1505537 8.8994794,5.1371896 8.8601504,5.1421142 8.8314976,5.1766304 c -0.029984,0.036129 -0.025169,0.059864 0.031918,0.1572731 0.081974,0.1398779 0.442874,0.4877266 0.5579894,0.5378105 0.10851,0.04721 0.2909345,0.047501 0.4450975,7.308e-4 z"
     id="path3-3-6" />
  <path
     style="fill:url(#linearGradient15);fill-opacity:1;stroke:none;stroke-width:0.231048;stroke-dasharray:none;stroke-dashoffset:2.2;stroke-opacity:0.3"
     d="M 8.0117831,12.5701 C 7.4810772,12.508388 6.9044792,12.312186 6.4307516,12.032109 5.4231064,11.436373 4.685684,10.403031 4.402017,9.1892662 4.3423781,8.9340832 4.3338254,8.8389019 4.334052,8.4329286 4.334264,8.0544346 4.3452519,7.9169567 4.3934432,7.6898602 4.5312056,7.0406689 4.7936265,6.4484639 5.163705,5.9516106 5.838584,5.0455445 6.7618085,4.4756365 7.8575196,4.2887149 8.274288,4.2176167 8.9392052,4.2299935 9.341627,4.3163413 c 0.848368,0.1820341 1.528655,0.5555834 2.154118,1.1828385 0.499334,0.5007645 0.789373,0.9587666 0.992527,1.5672974 0.13415,0.4018394 0.187603,0.7011492 0.206112,1.1541455 0.04142,1.0134389 -0.304562,2.0324863 -0.966238,2.8460463 -0.778089,0.956691 -2.0246444,1.544336 -3.2440783,1.529308 -0.1536406,-0.002 -0.3661688,-0.01354 -0.4722846,-0.02588 z m 0.1569748,-0.439045 c 0.087052,-0.07785 0.08008,-0.277 -0.033768,-0.964696 C 7.9722833,10.183536 7.7335742,9.7324985 7.3767218,9.7336131 c -0.3840643,0.00122 -1.1233346,0.3944839 -1.513385,0.8051059 -0.1951861,0.205479 -0.2385182,0.287218 -0.206218,0.388988 0.033232,0.104709 0.3640432,0.424934 0.6065494,0.587145 0.4378891,0.2929 1.1177197,0.594818 1.4809853,0.657717 0.1728264,0.02993 0.3652872,0.01107 0.424105,-0.04152 z m 1.2832563,-0.0029 C 10.147286,11.944426 11.004291,11.432211 11.300977,11.023082 11.427979,10.847947 11.40234,10.783425 11.072585,10.448285 10.585536,9.953285 9.846733,9.6306201 9.5001839,9.7615544 9.1991658,9.8752865 9.0136224,10.347406 8.8680108,11.370128 c -0.063228,0.4441 -0.064401,0.680198 -0.00371,0.747311 0.081647,0.09029 0.2734289,0.09379 0.5877153,0.01071 z M 5.5345997,9.9957722 C 6.0335712,9.3902158 6.22922,9.0347422 6.2486942,8.6983357 6.2635104,8.4423829 6.230679,8.3388885 6.0823166,8.1738735 5.8972072,7.9679873 5.5617955,7.826935 5.2059092,7.8053141 4.9313258,7.7886332 4.8357037,7.8331623 4.741491,8.0215872 4.683542,8.1374866 4.67561,8.1861816 4.678825,8.4063902 4.682415,8.6523743 4.72535,8.9344423 4.8094712,9.2647008 4.8551292,9.4439466 5.1030631,10.261361 5.1444567,10.36911 l 0.02591,0.06745 0.057578,-0.06926 c 0.031669,-0.0381 0.1696619,-0.20528 0.3066539,-0.3715351 z m 6.3259653,0.2483868 c 0.306846,-0.3424719 0.621197,-1.9146672 0.459974,-2.3005272 -0.07172,-0.1716507 -0.268248,-0.2111013 -0.670157,-0.1345262 -0.804791,0.1533346 -1.024034,0.739484 -0.590688,1.5791967 0.141544,0.2742716 0.320686,0.525956 0.537727,0.7554727 0.147615,0.1561 0.196509,0.174752 0.263144,0.100384 z M 9.0539422,9.5471584 c 0.602835,-0.1909213 1.0675488,-0.5651442 1.3012708,-1.0478846 0.26063,-0.538311 0.260632,-1.1263876 7e-6,-1.6982909 C 10.171409,6.3976361 9.9139618,6.0903968 9.582898,5.8792879 9.2005569,5.6354812 8.8712291,5.5525776 8.365694,5.5728745 7.8621906,5.5930915 7.6058969,5.7074581 7.1648987,6.1087156 6.7262076,6.5078742 6.4664715,7.061442 6.4664715,7.5972536 c 0,0.8751103 0.7433273,1.7753581 1.6453658,1.9927115 0.2201363,0.053044 0.7096926,0.030799 0.9421049,-0.042807 z M 5.3606676,7.0144601 C 5.7313388,6.9374696 6.0700773,6.786764 6.1967602,6.6424798 6.3710659,6.4439561 6.4024711,6.0421004 6.2675265,5.7369659 6.1971959,5.5779361 6.1700024,5.555535 6.0759401,5.579143 5.9912834,5.6003902 5.6008459,5.9911893 5.4120634,6.2436345 5.30604,6.3854123 5.0148911,6.8962973 4.9312957,7.0872479 c -0.00508,0.011598 0.018807,0.014641 0.053076,0.00677 0.03427,-0.00788 0.2036026,-0.043676 0.3762952,-0.079546 z m 6.6767264,-0.00212 c 0.06342,-0.061758 -0.0044,-0.2160178 -0.267524,-0.608717 -0.284454,-0.4245039 -0.60512,-0.8023562 -0.701433,-0.8265296 -0.146722,-0.036824 -0.362938,0.298577 -0.396897,0.6156831 -0.02272,0.2121845 -0.0061,0.2773801 0.101131,0.3997722 0.283124,0.3227644 1.089503,0.5904181 1.264723,0.4197878 z M 7.6460529,5.3375981 C 7.8037072,5.2838797 8.1030763,5.0097829 8.194118,4.8357996 L 8.257797,4.7141063 8.191793,4.6600563 C 8.111787,4.5945423 7.9720172,4.6045023 7.555263,4.7054143 7.0546382,4.8266342 6.7691245,4.9800836 6.789378,5.1170389 6.817997,5.3105663 7.3348512,5.4436354 7.6460529,5.3375981 Z m 2.2204483,0.00568 C 10.311044,5.2083458 10.348595,5.0358103 9.9703612,4.8660694 9.77058,4.7764124 9.261123,4.6424337 9.0399915,4.6213975 8.8994794,4.6080334 8.8601504,4.612958 8.8314976,4.6474742 c -0.029984,0.036129 -0.025169,0.059864 0.031918,0.1572731 0.081974,0.1398779 0.442874,0.4877266 0.5579894,0.5378105 0.10851,0.04721 0.2909345,0.047501 0.4450975,7.308e-4 z"
     id="path3-3" />
  <rect
     style="opacity:0.5;fill:none;fill-opacity:0.996424;stroke:url(#linearGradient9);stroke-width:0.566102;stroke-dasharray:none;stroke-opacity:1"
     id="rect1-2-6"
     width="11.574203"
     height="11.508601"
     x="2.729686"
     y="2.6615164"
     rx="2.0246315"
     ry="2.0627522" />
</svg>
