<?xml version="1.0" encoding="UTF-8" standalone="no"?>
<svg
   width="64"
   height="64"
   version="1.1"
   viewBox="0 0 16.933 16.933"
   id="svg7"
   sodipodi:docname="Template 4.svg"
   inkscape:version="1.3.2 (091e20ef0f, 2023-11-25)"
   xmlns:inkscape="http://www.inkscape.org/namespaces/inkscape"
   xmlns:sodipodi="http://sodipodi.sourceforge.net/DTD/sodipodi-0.dtd"
   xmlns:xlink="http://www.w3.org/1999/xlink"
   xmlns="http://www.w3.org/2000/svg"
   xmlns:svg="http://www.w3.org/2000/svg"
   xmlns:rdf="http://www.w3.org/1999/02/22-rdf-syntax-ns#"
   xmlns:cc="http://creativecommons.org/ns#"
   xmlns:dc="http://purl.org/dc/elements/1.1/">
  <sodipodi:namedview
     id="namedview7"
     pagecolor="#9c4444"
     bordercolor="#000000"
     borderopacity="0.25"
     inkscape:showpageshadow="2"
     inkscape:pageopacity="0.0"
     inkscape:pagecheckerboard="0"
     inkscape:deskcolor="#d1d1d1"
     inkscape:zoom="4.3531261"
     inkscape:cx="32.964816"
     inkscape:cy="24.350317"
     inkscape:window-width="1463"
     inkscape:window-height="604"
     inkscape:window-x="199"
     inkscape:window-y="276"
     inkscape:window-maximized="0"
     inkscape:current-layer="svg7"
     showgrid="false" />
  <defs
     id="defs2">
    <linearGradient
       id="linearGradient5"
       inkscape:collect="always">
      <stop
         style="stop-color:#392713;stop-opacity:1;"
         offset="0"
         id="stop2" />
      <stop
         style="stop-color:#eed59e;stop-opacity:1;"
         offset="0.5"
         id="stop3" />
      <stop
         style="stop-color:#beaa8a;stop-opacity:1;"
         offset="1"
         id="stop4" />
    </linearGradient>
    <linearGradient
       id="linearGradient8"
       inkscape:collect="always">
      <stop
         style="stop-color:#1a1a1a;stop-opacity:1;"
         offset="0"
         id="stop8" />
      <stop
         style="stop-color:#ffffff;stop-opacity:0;"
         offset="1"
         id="stop9" />
    </linearGradient>
    <linearGradient
       inkscape:collect="always"
       xlink:href="#linearGradient5"
       id="linearGradient41"
       x1="13.675659"
       y1="16.110115"
       x2="13.728528"
       y2="10.548769"
       gradientUnits="userSpaceOnUse"
       gradientTransform="matrix(2.046153,0,0,2.046153,-18.798306,-18.911347)" />
    <linearGradient
       inkscape:collect="always"
       xlink:href="#linearGradient42"
       id="linearGradient4"
       x1="11.885941"
       y1="16.50819"
       x2="12.026573"
       y2="10.244942"
       gradientUnits="userSpaceOnUse"
       gradientTransform="matrix(2.046153,0,0,2.046153,-18.798306,-18.911347)" />
    <linearGradient
       id="linearGradient42"
       inkscape:collect="always">
      <stop
         style="stop-color:#010101;stop-opacity:1;"
         offset="0"
         id="stop42" />
      <stop
         style="stop-color:#6e6c6d;stop-opacity:1;"
         offset="1"
         id="stop43" />
    </linearGradient>
    <linearGradient
       inkscape:collect="always"
       xlink:href="#linearGradient8"
       id="linearGradient9"
       x1="9.3404646"
       y1="4.1692023"
       x2="9.4279938"
       y2="16.46883"
       gradientUnits="userSpaceOnUse"
       gradientTransform="matrix(1.05,0,0,1.05,-0.50277005,-0.1977751)" />
    <filter
       style="color-interpolation-filters:sRGB;"
       inkscape:label="Blur"
       id="filter2"
       x="-0.14510849"
       y="-0.14612901"
       width="1.290217"
       height="1.292258">
      <feGaussianBlur
         stdDeviation="0.6 0.6"
         result="blur"
         id="feGaussianBlur2" />
    </filter>
    <linearGradient
       inkscape:collect="always"
       xlink:href="#linearGradient5"
       id="linearGradient21"
       x1="31.590464"
       y1="52.060787"
       x2="33.349007"
       y2="12.700969"
       gradientUnits="userSpaceOnUse"
       gradientTransform="matrix(0.23573911,0,0,0.23573911,0.94238616,0.81117403)" />
  </defs>
  <metadata
     id="metadata2">
    <rdf:RDF>
      <cc:Work
         rdf:about="">
        <dc:format>image/svg+xml</dc:format>
        <dc:type
           rdf:resource="http://purl.org/dc/dcmitype/StillImage" />
      </cc:Work>
    </rdf:RDF>
  </metadata>
  <rect
     style="fill:#000000;fill-opacity:0.996424;stroke:#000000;stroke-width:0.911802;stroke-dasharray:none;stroke-opacity:1;filter:url(#filter2)"
     id="rect1-2-3"
     width="13.065404"
     height="12.974159"
     x="1.9816793"
     y="1.9267306"
     rx="2.7149384"
     ry="2.8310909" />
  <rect
     style="fill:url(#linearGradient4);fill-opacity:0.996424;stroke:url(#linearGradient41);stroke-width:0.911802;stroke-dasharray:none;stroke-opacity:1"
     id="rect1-2"
     width="13.065404"
     height="12.974159"
     x="1.9816793"
     y="1.9267306"
     rx="2.7149384"
     ry="2.8310909" />
  <path
     style="fill:#000000;fill-opacity:1;stroke:none;stroke-width:0.210044;stroke-dasharray:none;stroke-opacity:0.3;opacity:0.3"
     d="M 8.6149663,13.343113 C 8.4846869,13.174268 8.329725,12.992712 8.2706056,12.939658 8.1658187,12.845618 8.1559252,12.849039 7.877021,13.075599 c -0.157352,0.127822 -0.3142639,0.24958 -0.348693,0.270573 -0.096234,0.05868 0.020148,-0.313911 0.1743595,-0.558198 0.070673,-0.111952 0.1284946,-0.212391 0.1284946,-0.223196 0,-0.01999 -0.3316002,-0.165735 -0.484521,-0.212944 C 7.2539796,12.323221 7.0328792,11.649145 7.012697,11.333667 7.0042811,11.202126 6.937985,11.067113 6.801815,10.904211 6.6925803,10.773531 6.6032064,10.625079 6.6032064,10.574316 c 0,-0.223847 0.4086785,-0.8225299 1.0324923,-1.5125225 C 8.0744273,8.5765219 8.2477465,8.3074986 8.330842,7.9828043 8.4007165,7.70977 8.4089069,7.7009006 8.5972023,7.6943617 8.8073555,7.6870609 8.9899914,7.5568383 9.0649347,7.3608531 9.1354844,7.1763564 9.0059028,6.9243892 8.6359598,6.5267284 8.3768308,6.248184 8.311587,6.1430413 8.3111591,6.0033022 8.3106405,5.8312697 8.8423474,4.3101087 8.9037684,4.3079311 8.921081,4.3073418 8.889459,4.5410646 8.8335004,4.8273698 8.640334,5.8156669 8.7092442,6.1654406 9.261149,6.9980185 9.4520924,7.2860665 9.5105537,7.4267917 9.5283309,7.6411681 9.548114,7.8797528 9.5322064,7.9380256 9.4065268,8.0873916 9.3270174,8.1818827 9.0541606,8.4017716 8.8001773,8.5760341 8.0932353,9.0610799 7.4461243,9.7075018 7.2477714,10.126787 7.0892779,10.461816 7.03274,10.836006 7.1313999,10.896983 7.157625,10.913189 7.3142812,10.759116 7.4795251,10.554597 7.6447689,10.350078 8.0017159,10.005921 8.27274,9.7898037 9.8842787,8.5047465 10.156445,7.8804789 9.5126804,6.9457597 9.2914406,6.624529 9.3055029,6.4749537 9.5315324,6.7452546 9.8802503,7.162278 10.393915,8.2964101 10.393915,8.6493281 c 0,0.1590714 -0.4115759,0.9741907 -0.6331571,1.2539619 -0.096407,0.121726 -0.3838033,0.356876 -0.638656,0.522555 -0.8289789,0.538919 -1.0208955,0.676256 -1.2118669,0.867227 -0.1034303,0.103431 -0.1803024,0.211314 -0.1708268,0.239741 0.00948,0.02843 0.1615952,0.155032 0.3380436,0.281344 l 0.320815,0.22966 0.3971851,-0.295064 C 9.0139034,11.58647 9.3169358,11.38257 9.468857,11.295646 c 0.3654838,-0.209126 0.4882443,-0.342767 0.7115,-0.774572 0.213199,-0.412357 0.320341,-0.49026 0.320341,-0.232923 0,0.261847 -0.200338,0.56071 -0.5432556,0.81043 -0.1710439,0.124556 -0.3109888,0.241396 -0.3109888,0.259643 0,0.01826 0.051864,0.05633 0.1152553,0.0846 0.1041432,0.04648 0.068631,0.08085 -0.3683241,0.356558 -0.6628519,0.418244 -0.6559363,0.405005 -0.3640326,0.696909 0.2787029,0.278703 0.4564421,0.548468 0.4567307,0.693209 1.607e-4,0.07312 -0.1223575,-0.01128 -0.4559386,-0.314119 l -0.4561394,-0.414115 -0.1288646,0.121063 -0.1288649,0.121063 0.1775189,0.219753 c 0.097636,0.120862 0.2047,0.272192 0.2379217,0.336286 0.087308,0.168441 0.1682987,0.390672 0.1423775,0.390672 -0.01224,0 -0.1288453,-0.138145 -0.2591248,-0.306993 z"
     id="path1-9-8" />
  <path
     style="fill:url(#linearGradient21);fill-opacity:1;stroke:none;stroke-width:0.210044;stroke-dasharray:none;stroke-opacity:0.3"
     d="M 8.6149663,12.813957 C 8.4846869,12.645112 8.329725,12.463556 8.2706056,12.410502 8.1658187,12.316462 8.1559252,12.319883 7.877021,12.546443 c -0.157352,0.127822 -0.3142639,0.24958 -0.348693,0.270573 -0.096234,0.05868 0.020148,-0.313911 0.1743595,-0.558198 0.070673,-0.111952 0.1284946,-0.212391 0.1284946,-0.223196 0,-0.01999 -0.3316002,-0.165735 -0.484521,-0.212944 C 7.2539796,11.794065 7.0328792,11.119989 7.012697,10.804511 7.0042811,10.67297 6.937985,10.537957 6.801815,10.375055 6.6925803,10.244375 6.6032064,10.095923 6.6032064,10.04516 c 0,-0.2238475 0.4086785,-0.8225301 1.0324923,-1.5125227 C 8.0744273,8.0473657 8.2477465,7.7783424 8.330842,7.4536481 8.4007165,7.1806138 8.4089069,7.1717444 8.5972023,7.1652055 8.8073555,7.1579047 8.9899914,7.0276821 9.0649347,6.8316969 9.1354844,6.6472002 9.0059028,6.395233 8.6359598,5.9975722 8.3768308,5.7190278 8.311587,5.6138851 8.3111591,5.474146 8.3106405,5.3021135 8.8423474,3.7809525 8.9037684,3.7787749 8.921081,3.7781856 8.889459,4.0119084 8.8335004,4.2982136 8.640334,5.2865107 8.7092442,5.6362844 9.261149,6.4688623 9.4520924,6.7569103 9.5105537,6.8976355 9.5283309,7.1120119 9.548114,7.3505966 9.5322064,7.4088694 9.4065268,7.5582354 9.3270174,7.6527265 9.0541606,7.8726154 8.8001773,8.0468779 8.0932353,8.5319237 7.4461243,9.1783456 7.2477714,9.5976305 7.0892779,9.9326596 7.03274,10.30685 7.1313999,10.367827 7.157625,10.384033 7.3142812,10.22996 7.4795251,10.025441 7.6447689,9.820922 8.0017159,9.4767651 8.27274,9.2606475 9.8842787,7.9755903 10.156445,7.3513227 9.5126804,6.4166035 9.2914406,6.0953728 9.3055029,5.9457975 9.5315324,6.2160984 c 0.3487179,0.4170234 0.8623826,1.5511555 0.8623826,1.9040735 0,0.1590714 -0.4115759,0.9741907 -0.6331571,1.2539619 C 9.6643507,9.4958598 9.3769546,9.7310096 9.1221019,9.8966884 8.293123,10.435608 8.1012064,10.572945 7.910235,10.763916 7.8068047,10.867347 7.7299326,10.97523 7.7394082,11.003657 c 0.00948,0.02843 0.1615952,0.155032 0.3380436,0.281344 l 0.320815,0.22966 0.3971851,-0.295064 c 0.2184515,-0.162283 0.5214839,-0.366183 0.6734051,-0.453107 0.3654838,-0.209126 0.4882443,-0.342767 0.7115,-0.7745726 0.213199,-0.4123564 0.320341,-0.4902592 0.320341,-0.2329223 0,0.2618469 -0.200338,0.5607099 -0.5432556,0.8104299 -0.1710439,0.124556 -0.3109888,0.241396 -0.3109888,0.259643 0,0.01826 0.051864,0.05633 0.1152553,0.0846 0.1041432,0.04648 0.068631,0.08085 -0.3683241,0.356558 -0.6628519,0.418244 -0.6559363,0.405005 -0.3640326,0.696909 0.2787029,0.278703 0.4564421,0.548468 0.4567307,0.693209 1.607e-4,0.07312 -0.1223575,-0.01128 -0.4559386,-0.314119 L 8.5740049,11.93211 8.4451403,12.053173 8.3162754,12.174236 8.4937943,12.393989 c 0.097636,0.120862 0.2047,0.272192 0.2379217,0.336286 0.087308,0.168441 0.1682987,0.390672 0.1423775,0.390672 -0.01224,0 -0.1288453,-0.138145 -0.2591248,-0.306993 z"
     id="path1-9" />
  <rect
     style="opacity:0.5;fill:none;fill-opacity:0.996424;stroke:url(#linearGradient9);stroke-width:0.566102;stroke-dasharray:none;stroke-opacity:1"
     id="rect1-2-6"
     width="11.574203"
     height="11.508601"
     x="2.729686"
     y="2.6615164"
     rx="2.0246315"
     ry="2.0627522" />
</svg>
