<?xml version="1.0" encoding="UTF-8" standalone="no"?>
<svg
   width="64"
   height="64"
   version="1.1"
   viewBox="0 0 16.933 16.933"
   id="svg7"
   sodipodi:docname="sticky.svg"
   inkscape:version="1.3.2 (091e20ef0f, 2023-11-25)"
   xmlns:inkscape="http://www.inkscape.org/namespaces/inkscape"
   xmlns:sodipodi="http://sodipodi.sourceforge.net/DTD/sodipodi-0.dtd"
   xmlns:xlink="http://www.w3.org/1999/xlink"
   xmlns="http://www.w3.org/2000/svg"
   xmlns:svg="http://www.w3.org/2000/svg"
   xmlns:rdf="http://www.w3.org/1999/02/22-rdf-syntax-ns#"
   xmlns:cc="http://creativecommons.org/ns#"
   xmlns:dc="http://purl.org/dc/elements/1.1/">
  <sodipodi:namedview
     id="namedview7"
     pagecolor="#9c4444"
     bordercolor="#000000"
     borderopacity="0.25"
     inkscape:showpageshadow="2"
     inkscape:pageopacity="0.0"
     inkscape:pagecheckerboard="0"
     inkscape:deskcolor="#d1d1d1"
     inkscape:zoom="4.3531261"
     inkscape:cx="32.964816"
     inkscape:cy="24.350317"
     inkscape:window-width="1463"
     inkscape:window-height="604"
     inkscape:window-x="54"
     inkscape:window-y="257"
     inkscape:window-maximized="0"
     inkscape:current-layer="svg7"
     showgrid="false" />
  <defs
     id="defs2">
    <linearGradient
       id="linearGradient5"
       inkscape:collect="always">
      <stop
         style="stop-color:#392713;stop-opacity:1;"
         offset="0"
         id="stop2" />
      <stop
         style="stop-color:#eed59e;stop-opacity:1;"
         offset="0.5"
         id="stop3" />
      <stop
         style="stop-color:#beaa8a;stop-opacity:1;"
         offset="1"
         id="stop4" />
    </linearGradient>
    <linearGradient
       id="linearGradient8"
       inkscape:collect="always">
      <stop
         style="stop-color:#1a1a1a;stop-opacity:1;"
         offset="0"
         id="stop8" />
      <stop
         style="stop-color:#ffffff;stop-opacity:0;"
         offset="1"
         id="stop9" />
    </linearGradient>
    <linearGradient
       inkscape:collect="always"
       xlink:href="#linearGradient5"
       id="linearGradient41"
       x1="13.675659"
       y1="16.110115"
       x2="13.728528"
       y2="10.548769"
       gradientUnits="userSpaceOnUse"
       gradientTransform="matrix(2.046153,0,0,2.046153,-18.798306,-18.911347)" />
    <linearGradient
       inkscape:collect="always"
       xlink:href="#linearGradient42"
       id="linearGradient4"
       x1="11.885941"
       y1="16.50819"
       x2="12.026573"
       y2="10.244942"
       gradientUnits="userSpaceOnUse"
       gradientTransform="matrix(2.046153,0,0,2.046153,-18.798306,-18.911347)" />
    <linearGradient
       id="linearGradient42"
       inkscape:collect="always">
      <stop
         style="stop-color:#010101;stop-opacity:1;"
         offset="0"
         id="stop42" />
      <stop
         style="stop-color:#6e6c6d;stop-opacity:1;"
         offset="1"
         id="stop43" />
    </linearGradient>
    <linearGradient
       inkscape:collect="always"
       xlink:href="#linearGradient8"
       id="linearGradient9"
       x1="9.3404646"
       y1="4.1692023"
       x2="9.4279938"
       y2="16.46883"
       gradientUnits="userSpaceOnUse"
       gradientTransform="matrix(1.05,0,0,1.05,-0.50277005,-0.1977751)" />
    <filter
       style="color-interpolation-filters:sRGB;"
       inkscape:label="Blur"
       id="filter2"
       x="-0.14510849"
       y="-0.14612901"
       width="1.290217"
       height="1.292258">
      <feGaussianBlur
         stdDeviation="0.6 0.6"
         result="blur"
         id="feGaussianBlur2" />
    </filter>
    <linearGradient
       inkscape:collect="always"
       xlink:href="#linearGradient5"
       id="linearGradient10"
       x1="8.7731524"
       y1="12.888865"
       x2="8.7036247"
       y2="3.531251"
       gradientUnits="userSpaceOnUse" />
  </defs>
  <metadata
     id="metadata2">
    <rdf:RDF>
      <cc:Work
         rdf:about="">
        <dc:format>image/svg+xml</dc:format>
        <dc:type
           rdf:resource="http://purl.org/dc/dcmitype/StillImage" />
      </cc:Work>
    </rdf:RDF>
  </metadata>
  <rect
     style="fill:#000000;fill-opacity:0.996424;stroke:#000000;stroke-width:0.911802;stroke-dasharray:none;stroke-opacity:1;filter:url(#filter2)"
     id="rect1-2-3"
     width="13.065404"
     height="12.974159"
     x="1.9816793"
     y="1.9267306"
     rx="2.7149384"
     ry="2.8310909" />
  <rect
     style="fill:url(#linearGradient4);fill-opacity:0.996424;stroke:url(#linearGradient41);stroke-width:0.911802;stroke-dasharray:none;stroke-opacity:1"
     id="rect1-2"
     width="13.065404"
     height="12.974159"
     x="1.9816793"
     y="1.9267306"
     rx="2.7149384"
     ry="2.8310909" />
  <path
     style="fill:#000000;stroke-width:0.0747239;opacity:0.3"
     d="m 6.4282787,13.51798 c -0.00665,-0.0274 -0.00239,-0.486957 0.00944,-1.021238 0.012696,-0.572993 -0.017937,-0.971421 -0.074686,-0.971421 -0.052916,0 -0.1728163,0.273034 -0.2664494,0.60674 -0.093633,0.333705 -0.1860543,0.590926 -0.2053795,0.5716 C 5.8567688,12.669231 6.1861207,11.013708 6.4824016,9.7319297 6.5647336,9.3757421 6.6336715,8.9178449 6.6355965,8.714381 6.6375165,8.5109162 6.7305765,8.1123598 6.8423838,7.8287005 7.0441884,7.3167194 7.038738,6.518066 6.8325638,6.3906467 6.7872269,6.3626297 6.6550369,6.5537257 6.5388096,6.8153122 6.3599018,7.2179708 6.3313557,7.4513871 6.3527079,8.3370685 6.3733389,9.1926524 6.351808,9.3832139 6.2345199,9.3832139 6.1223398,9.3832139 6.0727128,9.1218214 6.0066258,8.1828694 5.9359718,7.179024 5.9478618,6.9209653 6.0792628,6.6064804 6.1656798,6.3996562 6.2773751,6.2557713 6.3274762,6.2867351 6.3775752,6.3177021 6.4493728,6.2202981 6.4870232,6.0702888 6.6026519,5.6095885 6.7189188,5.531989 7.0426964,5.6994206 7.1988577,5.7801736 7.4585595,5.846246 7.6198125,5.846246 c 0.1686993,0 0.3175364,0.063455 0.350535,0.1494492 0.071237,0.1856403 0.4621344,0.1987021 0.4621344,0.015439 0,-0.2033299 0.3708233,-0.4957415 0.5442705,-0.4291838 0.1237565,0.04749 0.1531613,0.2513274 0.1531613,1.0617691 v 1.0029977 l 0.4732532,0.2030397 c 0.5866011,0.2516714 1.0212321,0.3437955 1.0212321,0.2164623 0,-0.053069 -0.08967,-0.3571188 -0.199266,-0.6756662 -0.109595,-0.3185468 -0.193672,-0.7402872 -0.186836,-0.9372015 0.0109,-0.3137999 0.02171,-0.2964888 0.08762,0.1401389 0.04136,0.2739903 0.19583,0.7671728 0.34327,1.0959621 0.235588,0.5253507 0.254808,0.642613 0.158602,0.9676042 -0.119651,0.4041872 -0.07189,0.695771 0.223428,1.3641863 0.141167,0.319509 0.177616,0.55726 0.134103,0.874726 -0.03928,0.286584 -0.0058,0.580046 0.09765,0.856463 0.08657,0.231274 0.17512,0.555004 0.196765,0.719398 0.03635,0.276117 0.03299,0.279864 -0.04418,0.04918 -0.04594,-0.137349 -0.15758,-0.392923 -0.248084,-0.567941 -0.106492,-0.205933 -0.164555,-0.561577 -0.164555,-1.007927 0,-0.481155 -0.06243,-0.830853 -0.20647,-1.1564727 C 10.686914,9.4958066 10.621136,9.1675167 10.639909,8.9075189 10.673362,8.4440459 10.662661,8.436981 9.3999366,8.0894356 8.7495528,7.9104304 8.6317456,7.7411399 8.6317456,6.9855402 c 0,-0.5998348 -0.1531448,-0.5558724 -0.3610386,0.1036421 -0.1708294,0.5419344 -0.1699219,0.5554649 0.1386224,2.0673832 0.1708191,0.8370338 0.3614329,1.9926435 0.4235858,2.5680235 0.1429741,1.323562 0.2269321,1.501444 0.7847197,1.662599 0.2408473,0.06959 0.4540541,0.142673 0.4737951,0.162411 0.01974,0.01973 -0.2894045,0.02599 -0.6869863,0.0139 L 8.6815629,13.541519 8.6238099,13.006683 C 8.5920579,12.712509 8.509591,12.337328 8.4405691,12.172933 8.3715481,12.00854 8.2374031,11.515357 8.142474,11.076972 7.9740514,10.299202 7.9623009,10.279159 7.6570513,10.248975 c -0.2792871,-0.02761 -0.3298238,0.0098 -0.4714205,0.348647 -0.08723,0.208769 -0.2286615,0.794277 -0.3142935,1.30113 -0.1899698,1.124424 -0.1081791,1.327194 0.6081016,1.507556 0.2501838,0.063 0.4548783,0.127869 0.4548783,0.144161 0,0.05177 -1.4934169,0.01954 -1.5060414,-0.03249 z M 8.0975567,5.8960621 C 8.0660157,5.8138651 7.9155041,5.7450241 7.7630894,5.7430827 7.6106755,5.7411127 7.3738852,5.6754767 7.2368903,5.597164 6.9265269,5.4197439 6.5742924,5.4078524 6.499119,5.572261 6.467801,5.640758 6.469465,5.53988 6.502789,5.3480869 6.600069,4.7886989 6.8149134,4.4673878 7.2349469,4.2531022 7.8083201,3.9605878 8.2710908,3.9986149 9.0955614,4.4059939 c 0.3930789,0.1942243 0.7695768,0.419273 0.8366632,0.5001084 0.06709,0.080835 -0.1353821,0.011596 -0.4499293,-0.1538687 -0.660187,-0.347279 -1.34874,-0.4142731 -1.34874,-0.1312286 0,0.093288 0.1397548,0.3138036 0.3105648,0.4900352 0.3091758,0.3189886 0.3096206,0.3210096 0.099633,0.4521491 -0.1160128,0.072451 -0.2109319,0.2106137 -0.2109319,0.3070288 0,0.2141277 -0.1564506,0.2313151 -0.235295,0.025854 z"
     id="path1-6" />
  <path
     style="fill:url(#linearGradient10);stroke-width:0.0747239"
     d="m 6.4282787,12.988824 c -0.00665,-0.0274 -0.00239,-0.486957 0.00944,-1.021238 0.012696,-0.572993 -0.017937,-0.971421 -0.074686,-0.971421 -0.052916,0 -0.1728163,0.273034 -0.2664494,0.60674 -0.093633,0.333705 -0.1860543,0.590926 -0.2053795,0.5716 C 5.8567688,12.140075 6.1861207,10.484552 6.4824016,9.2027735 6.5647336,8.8465859 6.6336715,8.3886887 6.6355965,8.1852248 6.6375165,7.98176 6.7305765,7.5832036 6.8423838,7.2995443 7.0441884,6.7875632 7.038738,5.9889098 6.8325638,5.8614905 6.7872269,5.8334735 6.6550369,6.0245695 6.5388096,6.286156 6.3599018,6.6888146 6.3313557,6.9222309 6.3527079,7.8079123 6.3733389,8.6634962 6.351808,8.8540577 6.2345199,8.8540577 6.1223398,8.8540577 6.0727128,8.5926652 6.0066258,7.6537132 5.9359718,6.6498678 5.9478618,6.3918091 6.0792628,6.0773242 6.1656798,5.8705 6.2773751,5.7266151 6.3274762,5.7575789 6.3775752,5.7885459 6.4493728,5.6911419 6.4870232,5.5411326 6.6026519,5.0804323 6.7189188,5.0028328 7.0426964,5.1702644 c 0.1561613,0.080753 0.4158631,0.1468254 0.5771161,0.1468254 0.1686993,0 0.3175364,0.063455 0.350535,0.1494492 0.071237,0.1856403 0.4621344,0.1987021 0.4621344,0.015439 0,-0.2033299 0.3708233,-0.4957415 0.5442705,-0.4291838 0.1237565,0.04749 0.1531613,0.2513274 0.1531613,1.0617691 V 7.117561 l 0.4732532,0.2030397 c 0.5866011,0.2516714 1.0212321,0.3437955 1.0212321,0.2164623 0,-0.053069 -0.08967,-0.3571188 -0.199266,-0.6756662 C 10.315538,6.54285 10.231461,6.1211096 10.238297,5.9241953 c 0.0109,-0.3137999 0.02171,-0.2964888 0.08762,0.1401389 0.04136,0.2739903 0.19583,0.7671728 0.34327,1.0959621 0.235588,0.5253506 0.254808,0.642613 0.158602,0.9676041 -0.119651,0.4041872 -0.07189,0.695771 0.223428,1.3641866 0.141167,0.319509 0.177616,0.55726 0.134103,0.874726 -0.03928,0.286584 -0.0058,0.580046 0.09765,0.856463 0.08657,0.231274 0.17512,0.555004 0.196765,0.719398 0.03635,0.276117 0.03299,0.279864 -0.04418,0.04918 -0.04594,-0.137349 -0.15758,-0.392923 -0.248084,-0.567941 -0.106492,-0.205933 -0.164555,-0.561577 -0.164555,-1.007927 0,-0.4811549 -0.06243,-0.830853 -0.20647,-1.156473 C 10.686914,8.9666504 10.621136,8.6383605 10.639909,8.3783627 10.673362,7.9148897 10.662661,7.9078248 9.3999366,7.5602794 8.7495528,7.3812742 8.6317456,7.2119837 8.6317456,6.456384 c 0,-0.5998348 -0.1531448,-0.5558724 -0.3610386,0.1036421 -0.1708294,0.5419344 -0.1699219,0.5554649 0.1386224,2.0673832 0.1708191,0.8370338 0.3614329,1.9926437 0.4235858,2.5680237 0.1429741,1.323562 0.2269321,1.501444 0.7847197,1.662599 0.2408473,0.06959 0.4540541,0.142673 0.4737951,0.162411 0.01974,0.01973 -0.2894045,0.02599 -0.6869863,0.0139 L 8.6815629,13.012363 8.6238099,12.477527 C 8.5920579,12.183353 8.509591,11.808172 8.4405691,11.643777 8.3715481,11.479384 8.2374031,10.986201 8.142474,10.547816 7.9740514,9.7700462 7.9623009,9.7500032 7.6570513,9.719819 7.3777642,9.692207 7.3272275,9.729579 7.1856308,10.068466 c -0.08723,0.208769 -0.2286615,0.794277 -0.3142935,1.30113 -0.1899698,1.124424 -0.1081791,1.327194 0.6081016,1.507556 0.2501838,0.063 0.4548783,0.127869 0.4548783,0.144161 0,0.05177 -1.4934169,0.01954 -1.5060414,-0.03249 z M 8.0975567,5.3669059 C 8.0660157,5.2847089 7.9155041,5.2158679 7.7630894,5.2139265 7.6106755,5.2119565 7.3738852,5.1463205 7.2368903,5.0680078 6.9265269,4.8905877 6.5742924,4.8786962 6.499119,5.0431048 6.467801,5.1116018 6.469465,5.0107238 6.502789,4.8189307 6.600069,4.2595427 6.8149134,3.9382316 7.2349469,3.723946 7.8083201,3.4314316 8.2710908,3.4694587 9.0955614,3.8768377 c 0.3930789,0.1942243 0.7695768,0.419273 0.8366632,0.5001084 0.06709,0.080835 -0.1353821,0.011596 -0.4499293,-0.1538687 -0.660187,-0.347279 -1.34874,-0.4142731 -1.34874,-0.1312286 0,0.093288 0.1397548,0.3138036 0.3105648,0.4900352 0.3091758,0.3189886 0.3096206,0.3210096 0.099633,0.4521491 -0.1160128,0.072451 -0.2109319,0.2106137 -0.2109319,0.3070288 0,0.2141277 -0.1564506,0.2313151 -0.235295,0.025854 z"
     id="path1" />
  <rect
     style="opacity:0.5;fill:none;fill-opacity:0.996424;stroke:url(#linearGradient9);stroke-width:0.566102;stroke-dasharray:none;stroke-opacity:1"
     id="rect1-2-6"
     width="11.574203"
     height="11.508601"
     x="2.729686"
     y="2.6615164"
     rx="2.0246315"
     ry="2.0627522" />
</svg>
