<?xml version="1.0" encoding="UTF-8" standalone="no"?>
<svg
   width="64"
   height="64"
   version="1.1"
   viewBox="0 0 16.933 16.933"
   id="svg7"
   sodipodi:docname="Template 4.svg"
   inkscape:version="1.3.2 (091e20ef0f, 2023-11-25)"
   xmlns:inkscape="http://www.inkscape.org/namespaces/inkscape"
   xmlns:sodipodi="http://sodipodi.sourceforge.net/DTD/sodipodi-0.dtd"
   xmlns:xlink="http://www.w3.org/1999/xlink"
   xmlns="http://www.w3.org/2000/svg"
   xmlns:svg="http://www.w3.org/2000/svg"
   xmlns:rdf="http://www.w3.org/1999/02/22-rdf-syntax-ns#"
   xmlns:cc="http://creativecommons.org/ns#"
   xmlns:dc="http://purl.org/dc/elements/1.1/">
  <sodipodi:namedview
     id="namedview7"
     pagecolor="#9c4444"
     bordercolor="#000000"
     borderopacity="0.25"
     inkscape:showpageshadow="2"
     inkscape:pageopacity="0.0"
     inkscape:pagecheckerboard="0"
     inkscape:deskcolor="#d1d1d1"
     inkscape:zoom="4.3531261"
     inkscape:cx="32.964816"
     inkscape:cy="24.350317"
     inkscape:window-width="1463"
     inkscape:window-height="604"
     inkscape:window-x="42"
     inkscape:window-y="99"
     inkscape:window-maximized="0"
     inkscape:current-layer="svg7"
     showgrid="false" />
  <defs
     id="defs2">
    <linearGradient
       id="linearGradient5"
       inkscape:collect="always">
      <stop
         style="stop-color:#392713;stop-opacity:1;"
         offset="0"
         id="stop2" />
      <stop
         style="stop-color:#eed59e;stop-opacity:1;"
         offset="0.5"
         id="stop3" />
      <stop
         style="stop-color:#beaa8a;stop-opacity:1;"
         offset="1"
         id="stop4" />
    </linearGradient>
    <linearGradient
       id="linearGradient8"
       inkscape:collect="always">
      <stop
         style="stop-color:#1a1a1a;stop-opacity:1;"
         offset="0"
         id="stop8" />
      <stop
         style="stop-color:#ffffff;stop-opacity:0;"
         offset="1"
         id="stop9" />
    </linearGradient>
    <linearGradient
       inkscape:collect="always"
       xlink:href="#linearGradient5"
       id="linearGradient41"
       x1="13.675659"
       y1="16.110115"
       x2="13.728528"
       y2="10.548769"
       gradientUnits="userSpaceOnUse"
       gradientTransform="matrix(2.046153,0,0,2.046153,-18.798306,-18.911347)" />
    <linearGradient
       inkscape:collect="always"
       xlink:href="#linearGradient42"
       id="linearGradient4"
       x1="11.885941"
       y1="16.50819"
       x2="12.026573"
       y2="10.244942"
       gradientUnits="userSpaceOnUse"
       gradientTransform="matrix(2.046153,0,0,2.046153,-18.798306,-18.911347)" />
    <linearGradient
       id="linearGradient42"
       inkscape:collect="always">
      <stop
         style="stop-color:#010101;stop-opacity:1;"
         offset="0"
         id="stop42" />
      <stop
         style="stop-color:#6e6c6d;stop-opacity:1;"
         offset="1"
         id="stop43" />
    </linearGradient>
    <linearGradient
       inkscape:collect="always"
       xlink:href="#linearGradient8"
       id="linearGradient9"
       x1="9.3404646"
       y1="4.1692023"
       x2="9.4279938"
       y2="16.46883"
       gradientUnits="userSpaceOnUse"
       gradientTransform="matrix(1.05,0,0,1.05,-0.50277005,-0.1977751)" />
    <filter
       style="color-interpolation-filters:sRGB;"
       inkscape:label="Blur"
       id="filter2"
       x="-0.14510849"
       y="-0.14612901"
       width="1.290217"
       height="1.292258">
      <feGaussianBlur
         stdDeviation="0.6 0.6"
         result="blur"
         id="feGaussianBlur2" />
    </filter>
    <linearGradient
       inkscape:collect="always"
       xlink:href="#linearGradient5"
       id="linearGradient85"
       x1="8.7248821"
       y1="12.600394"
       x2="8.6977615"
       y2="4.1529016"
       gradientUnits="userSpaceOnUse" />
  </defs>
  <metadata
     id="metadata2">
    <rdf:RDF>
      <cc:Work
         rdf:about="">
        <dc:format>image/svg+xml</dc:format>
        <dc:type
           rdf:resource="http://purl.org/dc/dcmitype/StillImage" />
      </cc:Work>
    </rdf:RDF>
  </metadata>
  <rect
     style="fill:#000000;fill-opacity:0.996424;stroke:#000000;stroke-width:0.911802;stroke-dasharray:none;stroke-opacity:1;filter:url(#filter2)"
     id="rect1-2-3"
     width="13.065404"
     height="12.974159"
     x="1.9816793"
     y="1.9267306"
     rx="2.7149384"
     ry="2.8310909" />
  <rect
     style="fill:url(#linearGradient4);fill-opacity:0.996424;stroke:url(#linearGradient41);stroke-width:0.911802;stroke-dasharray:none;stroke-opacity:1"
     id="rect1-2"
     width="13.065404"
     height="12.974159"
     x="1.9816793"
     y="1.9267306"
     rx="2.7149384"
     ry="2.8310909" />
  <path
     id="path4-5"
     style="fill:#000000;fill-opacity:1;stroke-width:0.0135353;stroke-opacity:0.66;opacity:0.3"
     d="M 5.0127272,4.72096 C 4.9541002,4.7215729 4.8981373,4.72698 4.8524145,4.737702 4.5238172,4.81477 4.2605181,5.091678 4.2015369,5.4220654 c -0.06463,0.3620295 0.1174676,0.7225639 0.4541493,0.8986717 0.1019984,0.053352 0.1771619,0.076225 0.2913254,0.088319 0.1503479,0.015926 0.3125408,-0.010071 0.4478708,-0.071995 l 0.068646,-0.031392 -4.243e-4,-0.086644 C 5.4624201,6.1012613 5.4977203,6.0061487 5.5727693,5.9226764 5.64002,5.8478775 5.7009165,5.8111822 5.7983789,5.7866408 5.8764027,5.7669943 5.8813506,5.7518018 5.8800005,5.5505667 5.878869,5.382848 5.8469997,5.2671063 5.7636439,5.1286474 5.6658233,4.9661623 5.4746899,4.815328 5.2923327,4.7569564 5.2155017,4.7323631 5.1104392,4.7199453 5.0127272,4.72096 Z m 0.016742,0.4168965 c 0.1412235,-1.57e-5 0.2137391,0.02985 0.3109981,0.1276641 0.061619,0.06197 0.087251,0.1001782 0.1046427,0.1548714 C 5.513739,5.636222 5.426683,5.855314 5.2345689,5.9494656 5.0046307,6.0621545 4.745593,5.9708635 4.6401983,5.7401802 4.5977191,5.6472016 4.5967835,5.4831837 4.6381003,5.3931849 4.7102504,5.2360461 4.8608464,5.1378754 5.0294642,5.1378565 Z M 7.6204231,5.5752632 C 7.2422016,5.5734008 6.8633605,5.6558699 6.5112102,5.8226386 5.7147998,6.1997967 5.1708693,6.9598038 5.0612807,7.8493587 5.0405213,8.0178693 5.0520989,8.4175043 5.0822093,8.5806019 5.1790219,9.1050222 5.4259754,9.5761804 5.79964,9.9497472 6.3517521,10.501715 7.1344055,10.775938 7.900447,10.685595 l 0.1289201,-0.01507 1.1389311,1.136419 c 0.9597238,0.957803 1.1570808,1.148591 1.2552948,1.213019 0.182991,0.120039 0.373591,0.196997 0.578046,0.233144 0.148778,0.0263 0.450399,0.01589 0.596463,-0.02051 0.498013,-0.124101 0.889344,-0.476064 1.061078,-0.95476 0.159833,-0.445525 0.08739,-0.964532 -0.189194,-1.359519 -0.03766,-0.05377 -0.50958,-0.537606 -1.198369,-1.2276688 -0.892295,-0.8939444 -1.134984,-1.1440871 -1.128885,-1.1640457 0.0043,-0.013981 0.01444,-0.1053957 0.0226,-0.2034255 C 10.201862,7.8849043 10.106042,7.403558 9.9007943,6.9942185 9.6438181,6.4816959 9.2438074,6.0869608 8.7246134,5.833521 8.375901,5.6632998 7.9986454,5.5771258 7.6204235,5.5752627 Z m -1.733302,0.2138897 c -0.1486004,0.00172 -0.2913644,0.084379 -0.3662495,0.2364924 -0.037355,0.075877 -0.044389,0.1049226 -0.043531,0.1799856 0.00116,0.099814 0.028551,0.1871073 0.079947,0.2544911 0.018844,0.024706 0.036979,0.044788 0.040182,0.044788 0.0032,0 0.083256,-0.078266 0.1783112,-0.1737071 C 5.9230186,6.1833649 6.0216473,6.1007391 6.201049,5.9733243 L 6.23286,5.9503013 6.18012,5.9030023 C 6.0929307,5.8246591 5.9887949,5.7879796 5.8871211,5.7891519 Z m 3.9387519,3.652868 c 0.00446,0 0.447483,0.4399262 0.984478,0.9777821 0.755382,0.756592 0.983958,0.993229 1.010013,1.04559 0.199197,0.400311 -0.0013,0.847387 -0.424851,0.947224 -0.182187,0.04295 -0.375727,0.0031 -0.523213,-0.107572 -0.04279,-0.0321 -0.503292,-0.484064 -1.0229875,-1.00457 l -0.9447134,-0.946388 0.098783,-0.06572 c 0.3000286,-0.19872 0.5606908,-0.4572575 0.7429636,-0.7371032 0.039123,-0.060073 0.075063,-0.1092469 0.079526,-0.1092469 z" />
  <path
     id="path4"
     style="fill:url(#linearGradient85);fill-opacity:1;stroke-width:0.0135353;stroke-opacity:0.66"
     d="m 5.0127272,4.1918038 c -0.058627,6.129e-4 -0.1145899,0.00602 -0.1603127,0.016742 -0.3285973,0.077068 -0.5918964,0.353976 -0.6508776,0.6843634 -0.06463,0.3620295 0.1174676,0.7225639 0.4541493,0.8986717 0.1019984,0.053352 0.1771619,0.076225 0.2913254,0.088319 0.1503479,0.015926 0.3125408,-0.010071 0.4478708,-0.071995 L 5.4635281,5.7765129 5.4631038,5.689869 C 5.4624201,5.5721051 5.4977203,5.4769925 5.5727693,5.3935202 5.64002,5.3187213 5.7009165,5.282026 5.7983789,5.2574846 5.8764027,5.2378381 5.8813506,5.2226456 5.8800005,5.0214105 5.878869,4.8536918 5.8469997,4.7379501 5.7636439,4.5994912 5.6658233,4.4370061 5.4746899,4.2861718 5.2923327,4.2278002 5.2155017,4.2032069 5.1104392,4.1907891 5.0127272,4.1918038 Z m 0.016742,0.4168965 c 0.1412235,-1.57e-5 0.2137391,0.02985 0.3109981,0.1276641 0.061619,0.06197 0.087251,0.1001782 0.1046427,0.1548714 0.068629,0.21583 -0.018427,0.434922 -0.2105411,0.5290736 C 5.0046307,5.5329983 4.745593,5.4417073 4.6401983,5.211024 4.5977191,5.1180454 4.5967835,4.9540275 4.6381003,4.8640287 4.7102504,4.7068899 4.8608464,4.6087192 5.0294642,4.6087003 Z M 7.6204231,5.046107 C 7.2422016,5.0442446 6.8633605,5.1267137 6.5112102,5.2934824 5.7147998,5.6706405 5.1708693,6.4306476 5.0612807,7.3202025 5.0405213,7.4887131 5.0520989,7.8883481 5.0822093,8.0514457 5.1790219,8.575866 5.4259754,9.0470242 5.79964,9.420591 c 0.5521121,0.551968 1.3347655,0.826191 2.100807,0.735848 l 0.1289201,-0.01507 1.1389311,1.136419 c 0.9597238,0.957803 1.1570808,1.148591 1.2552948,1.213019 0.182991,0.120039 0.373591,0.196997 0.578046,0.233144 0.148778,0.0263 0.450399,0.01589 0.596463,-0.02051 0.498013,-0.124101 0.889344,-0.476064 1.061078,-0.95476 0.159833,-0.445525 0.08739,-0.964532 -0.189194,-1.359519 -0.03766,-0.05377 -0.50958,-0.5376065 -1.198369,-1.227669 -0.892295,-0.8939444 -1.134984,-1.1440871 -1.128885,-1.1640457 0.0043,-0.013981 0.01444,-0.1053957 0.0226,-0.2034255 0.03653,-0.4382737 -0.05929,-0.91962 -0.2645377,-1.3289595 C 9.6438181,5.9525397 9.2438074,5.5578046 8.7246134,5.3043648 8.375901,5.1341436 7.9986454,5.0479696 7.6204235,5.0461065 Z m -1.733302,0.2138897 c -0.1486004,0.00172 -0.2913644,0.084379 -0.3662495,0.2364924 -0.037355,0.075877 -0.044389,0.1049226 -0.043531,0.1799856 0.00116,0.099814 0.028551,0.1871073 0.079947,0.2544911 0.018844,0.024706 0.036979,0.044788 0.040182,0.044788 0.0032,0 0.083256,-0.078266 0.1783112,-0.1737071 C 5.9230186,5.6542087 6.0216473,5.5715829 6.201049,5.4441681 L 6.23286,5.4211451 6.18012,5.3738461 C 6.0929307,5.2955029 5.9887949,5.2588234 5.8871211,5.2599957 Z m 3.9387519,3.652868 c 0.00446,0 0.447483,0.4399262 0.984478,0.9777817 0.755382,0.7565926 0.983958,0.9932296 1.010013,1.0455906 0.199197,0.400311 -0.0013,0.847387 -0.424851,0.947224 -0.182187,0.04295 -0.375727,0.0031 -0.523213,-0.107572 -0.04279,-0.0321 -0.503292,-0.484064 -1.0229875,-1.00457 L 8.9045991,9.8249303 9.0033819,9.759215 C 9.3034105,9.5604951 9.5640727,9.3019573 9.7463455,9.0221116 9.7854685,8.9620384 9.8214082,8.9128647 9.8258713,8.9128647 Z" />
  <g
     id="g74" />
  <rect
     style="opacity:0.5;fill:none;fill-opacity:0.996424;stroke:url(#linearGradient9);stroke-width:0.566102;stroke-dasharray:none;stroke-opacity:1"
     id="rect1-2-6"
     width="11.574203"
     height="11.508601"
     x="2.729686"
     y="2.6615164"
     rx="2.0246315"
     ry="2.0627522" />
</svg>
