<?xml version="1.0" encoding="UTF-8" standalone="no"?>
<svg
   width="64"
   height="64"
   version="1.1"
   viewBox="0 0 16.933 16.933"
   id="svg7"
   sodipodi:docname="Template 4.svg"
   inkscape:version="1.3.2 (091e20ef0f, 2023-11-25)"
   xmlns:inkscape="http://www.inkscape.org/namespaces/inkscape"
   xmlns:sodipodi="http://sodipodi.sourceforge.net/DTD/sodipodi-0.dtd"
   xmlns:xlink="http://www.w3.org/1999/xlink"
   xmlns="http://www.w3.org/2000/svg"
   xmlns:svg="http://www.w3.org/2000/svg"
   xmlns:rdf="http://www.w3.org/1999/02/22-rdf-syntax-ns#"
   xmlns:cc="http://creativecommons.org/ns#"
   xmlns:dc="http://purl.org/dc/elements/1.1/">
  <sodipodi:namedview
     id="namedview7"
     pagecolor="#9c4444"
     bordercolor="#000000"
     borderopacity="0.25"
     inkscape:showpageshadow="2"
     inkscape:pageopacity="0.0"
     inkscape:pagecheckerboard="0"
     inkscape:deskcolor="#d1d1d1"
     inkscape:zoom="4.3531261"
     inkscape:cx="32.964816"
     inkscape:cy="24.350317"
     inkscape:window-width="1463"
     inkscape:window-height="604"
     inkscape:window-x="199"
     inkscape:window-y="276"
     inkscape:window-maximized="0"
     inkscape:current-layer="svg7"
     showgrid="false" />
  <defs
     id="defs2">
    <linearGradient
       id="linearGradient5"
       inkscape:collect="always">
      <stop
         style="stop-color:#392713;stop-opacity:1;"
         offset="0"
         id="stop2" />
      <stop
         style="stop-color:#eed59e;stop-opacity:1;"
         offset="0.5"
         id="stop3" />
      <stop
         style="stop-color:#beaa8a;stop-opacity:1;"
         offset="1"
         id="stop4" />
    </linearGradient>
    <linearGradient
       id="linearGradient8"
       inkscape:collect="always">
      <stop
         style="stop-color:#1a1a1a;stop-opacity:1;"
         offset="0"
         id="stop8" />
      <stop
         style="stop-color:#ffffff;stop-opacity:0;"
         offset="1"
         id="stop9" />
    </linearGradient>
    <linearGradient
       inkscape:collect="always"
       xlink:href="#linearGradient5"
       id="linearGradient41"
       x1="13.675659"
       y1="16.110115"
       x2="13.728528"
       y2="10.548769"
       gradientUnits="userSpaceOnUse"
       gradientTransform="matrix(2.046153,0,0,2.046153,-18.798306,-18.911347)" />
    <linearGradient
       inkscape:collect="always"
       xlink:href="#linearGradient42"
       id="linearGradient4"
       x1="11.885941"
       y1="16.50819"
       x2="12.026573"
       y2="10.244942"
       gradientUnits="userSpaceOnUse"
       gradientTransform="matrix(2.046153,0,0,2.046153,-18.798306,-18.911347)" />
    <linearGradient
       id="linearGradient42"
       inkscape:collect="always">
      <stop
         style="stop-color:#010101;stop-opacity:1;"
         offset="0"
         id="stop42" />
      <stop
         style="stop-color:#6e6c6d;stop-opacity:1;"
         offset="1"
         id="stop43" />
    </linearGradient>
    <linearGradient
       inkscape:collect="always"
       xlink:href="#linearGradient8"
       id="linearGradient9"
       x1="9.3404646"
       y1="4.1692023"
       x2="9.4279938"
       y2="16.46883"
       gradientUnits="userSpaceOnUse"
       gradientTransform="matrix(1.05,0,0,1.05,-0.50277005,-0.1977751)" />
    <filter
       style="color-interpolation-filters:sRGB;"
       inkscape:label="Blur"
       id="filter2"
       x="-0.14510849"
       y="-0.14612901"
       width="1.290217"
       height="1.292258">
      <feGaussianBlur
         stdDeviation="0.6 0.6"
         result="blur"
         id="feGaussianBlur2" />
    </filter>
    <linearGradient
       inkscape:collect="always"
       xlink:href="#linearGradient5"
       id="linearGradient6"
       x1="9.2455587"
       y1="12.729165"
       x2="9.1499891"
       y2="3.8813901"
       gradientUnits="userSpaceOnUse" />
  </defs>
  <metadata
     id="metadata2">
    <rdf:RDF>
      <cc:Work
         rdf:about="">
        <dc:format>image/svg+xml</dc:format>
        <dc:type
           rdf:resource="http://purl.org/dc/dcmitype/StillImage" />
      </cc:Work>
    </rdf:RDF>
  </metadata>
  <rect
     style="fill:#000000;fill-opacity:0.996424;stroke:#000000;stroke-width:0.911802;stroke-dasharray:none;stroke-opacity:1;filter:url(#filter2)"
     id="rect1-2-3"
     width="13.065404"
     height="12.974159"
     x="1.9816793"
     y="1.9267306"
     rx="2.7149384"
     ry="2.8310909" />
  <rect
     style="fill:url(#linearGradient4);fill-opacity:0.996424;stroke:url(#linearGradient41);stroke-width:0.911802;stroke-dasharray:none;stroke-opacity:1"
     id="rect1-2"
     width="13.065404"
     height="12.974159"
     x="1.9816793"
     y="1.9267306"
     rx="2.7149384"
     ry="2.8310909" />
  <path
     id="path11-5"
     style="fill:#000000;fill-opacity:1;stroke:none;stroke-width:0.0535057;stroke-opacity:1;opacity:0.3"
     d="m 8.7288258,4.254729 c -0.00142,0.00288 0.00102,0.012154 0.00882,0.030336 0.095364,0.2217025 0.1037933,0.4030848 0.027025,0.5691962 -0.031942,0.069116 -0.043777,0.1355574 -0.052949,0.2945257 -0.013799,0.2390956 -0.034193,0.2831987 -0.1599479,0.3469235 -0.173637,0.087988 -0.5415486,0.1704278 -0.762237,0.1704278 -0.1423214,0 -0.2687392,-0.041835 -0.5129388,-0.1693251 C 7.1216284,5.4159062 7.0726455,5.3986383 6.9991744,5.3986383 h -0.089351 l 0.087696,0.084387 c 0.1060333,0.1028282 0.1438081,0.2039665 0.105897,0.2812886 -0.013422,0.027378 -0.036027,0.05551 -0.050742,0.062325 C 6.9102783,5.8925812 6.8142343,5.9551589 6.5656583,6.1426742 6.4068334,6.262485 6.2525757,6.3815667 6.2231478,6.4074168 l -0.0535,0.046882 0.1103095,-0.010479 C 6.4300033,6.429821 6.5415589,6.3840649 6.7404988,6.2551903 6.9647944,6.1098911 7.107861,6.0574857 7.3113492,6.0456029 c 0.1443373,-0.00843 0.1650811,-0.00555 0.2073817,0.028129 0.1024285,0.081564 0.075346,0.1811959 -0.1362321,0.5041134 -0.063862,0.097469 -0.1158248,0.1811951 -0.1158248,0.1858712 0,0.017733 0.3004778,-0.142239 0.4390312,-0.2338555 0.079549,-0.0526 0.1892152,-0.1404499 0.2443352,-0.1946964 0.081004,-0.079719 0.1116839,-0.098076 0.1588455,-0.097624 0.094617,9.27e-4 0.156639,0.070641 0.156639,0.176495 0,0.1739524 0.2462859,0.6575828 0.4340675,0.8526912 0.040223,0.041792 0.078087,0.074243 0.084387,0.071701 0.02444,-0.00992 0.1574153,-0.1756691 0.2371649,-0.2956297 C 9.161129,6.8322314 9.2473979,6.6282446 9.26217,6.4736021 9.272666,6.3637319 9.28274,6.3324902 9.316222,6.3053806 c 0.070256,-0.05689 0.125289,-0.040584 0.3728456,0.109206 0.3264604,0.1975322 0.4488534,0.2823047 0.7942274,0.5509951 0.16536,0.1286447 0.308196,0.2294546 0.317139,0.2239284 0.02615,-0.016165 0.09791,-0.1685757 0.129062,-0.2735673 0.03318,-0.1118508 0.038,-0.3792309 0.0088,-0.5008047 -0.04674,-0.1947894 -8.02e-4,-0.2673604 0.170429,-0.2686029 l 0.108102,-5.516e-4 -0.07115,-0.037505 C 11.01572,6.0398881 10.511236,5.8444727 10.28253,5.774251 9.9977109,5.6867996 9.6898579,5.6350298 9.3289058,5.6143022 9.0140549,5.5962216 8.9929617,5.5888817 8.9042151,5.4593177 8.7927572,5.2966006 8.7555518,5.0433155 8.8110034,4.8244876 8.8569471,4.6431866 8.8536535,4.4678468 8.801628,4.3595335 8.7719719,4.2977924 8.7330748,4.2460429 8.7288228,4.2547398 Z M 7.134856,6.3842507 C 7.125296,6.3746907 6.9768636,6.4577807 6.7818661,6.5822557 6.6360486,6.6753388 6.5211056,6.7143786 6.3141548,6.7411013 L 6.1553092,6.7620587 6.085264,6.8508572 C 5.9551777,7.0154294 5.8170001,7.3369238 5.74165,7.6506001 5.5774969,8.3339603 5.7047473,9.1240233 6.1393153,10.116013 c 0.2285139,0.52163 1.0001853,2.016881 1.1676242,2.262444 0.1309194,0.192002 0.4398964,0.51104 0.5962219,0.615526 0.1628592,0.108852 0.3460847,0.195624 0.4919795,0.233856 0.1605196,0.04207 0.4290961,0.04618 0.5725054,0.0088 0.2469747,-0.06433 0.545175,-0.256307 0.8157386,-0.525073 0.2474161,-0.245775 0.3545131,-0.394127 0.6943961,-0.963551 0.155322,-0.260221 0.358092,-0.589115 0.451164,-0.731351 0.528145,-0.807106 0.567589,-0.876379 0.688883,-1.2034539 0.160722,-0.4333936 0.230184,-0.7453119 0.244334,-1.0975774 0.01745,-0.4344522 -0.0395,-0.7322408 -0.206278,-1.0788253 -0.100971,-0.209827 -0.246085,-0.4581282 -0.358505,-0.6127659 l -0.05682,-0.078319 -0.04136,0.1180307 c -0.07,0.2003172 -0.201167,0.400396 -0.295078,0.44896 -0.113274,0.058576 -0.156172,0.041023 -0.430758,-0.173737 C 10.078791,7.0303702 9.8204258,6.8411821 9.6774861,6.7565433 9.6056176,6.7139874 9.544239,6.6820586 9.5412543,6.6853939 c -0.00298,0.00334 -0.035635,0.077354 -0.072805,0.164361 C 9.372856,7.0735194 9.153505,7.3968556 8.9985323,7.543049 8.8584693,7.675177 8.8092313,7.6898557 8.6835992,7.6373633 8.4926125,7.5575643 8.2260535,7.1840356 8.0377382,6.7328269 L 8.0178835,6.6853941 7.8695174,6.7835694 C 7.7105718,6.8887765 7.3852142,7.0537878 7.2396514,7.1029144 7.1906047,7.1194675 7.0998537,7.1336328 7.0377853,7.1349043 6.9316083,7.1370747 6.9219151,7.1340133 6.872873,7.0791982 6.7873682,6.9836528 6.8046494,6.9253751 7.0162747,6.5932858 7.0864601,6.4831487 7.1397882,6.3891796 7.1348577,6.3842494 Z m 0.027579,1.4803511 c 0.00978,9.99e-5 0.019517,0.00142 0.029234,0.00385 0.070552,0.01771 0.1733267,0.1360515 0.2195154,0.2531601 0.06115,0.1550397 0.059966,0.3920153 -0.00277,0.5140417 -0.025105,0.048839 -0.072597,0.1069896 -0.1053454,0.1290617 -0.041409,0.027914 -0.085993,0.040263 -0.1461514,0.040263 -0.074086,0 -0.096376,-0.00898 -0.1566392,-0.063427 C 6.9080423,8.6582297 6.8651928,8.5450416 6.8657011,8.3858123 6.866571,8.1166048 7.015746,7.8631033 7.1624335,7.8646009 Z m 3.046192,0.00167 c 0.07432,-0.00534 0.139333,0.029857 0.214,0.1108607 0.10393,0.1127509 0.147903,0.2199379 0.157742,0.386083 0.0073,0.1234765 0.0032,0.1484927 -0.04081,0.2382679 -0.03616,0.073924 -0.07056,0.113523 -0.130717,0.1516752 -0.16359,0.1037473 -0.39824,0.050769 -0.4991538,-0.1125113 C 9.760749,8.3996582 9.8832912,7.9793649 10.130307,7.8850288 c 0.0275,-0.010502 0.05355,-0.016974 0.07832,-0.018756 z M 8.1761775,8.8700926 C 8.3671845,8.8540783 8.5714467,9.1143008 8.572188,9.3935107 8.5726548,9.5714833 8.5043656,9.7012253 8.3758372,9.7663559 8.0712826,9.9206869 7.7649541,9.6496568 7.8380792,9.2909227 7.8799933,9.0853025 8.0026049,8.9155768 8.1381205,8.8767116 c 0.012557,-0.0036 0.025323,-0.00555 0.038057,-0.00662 z m 2.3352475,0.6364851 c 0.0252,0.00172 0.05153,0.00844 0.07997,0.0193 0.09557,0.036497 0.1773,0.1244955 0.240475,0.2592272 0.03784,0.080686 0.04632,0.125182 0.04633,0.2415761 1.6e-5,0.166495 -0.04265,0.262565 -0.157191,0.354645 -0.05783,0.04649 -0.08527,0.05568 -0.186974,0.06067 -0.17456,0.0085 -0.275848,-0.05422 -0.353543,-0.218964 -0.08296,-0.175925 -0.03501,-0.4334268 0.110865,-0.5956674 0.07943,-0.088349 0.144455,-0.1259301 0.220066,-0.1207887 z M 9.4177084,10.412767 c 0.037568,0.0015 0.065432,0.01553 0.1213408,0.0535 0.1488572,0.101087 0.2592328,0.359391 0.2310975,0.54162 -0.016475,0.10671 -0.091805,0.232658 -0.1715303,0.287907 -0.088918,0.06162 -0.2594284,0.0778 -0.3436137,0.03254 -0.1479401,-0.07955 -0.2271791,-0.216115 -0.2261344,-0.389945 0.00158,-0.262495 0.1606736,-0.50261 0.3469229,-0.523417 0.016046,-0.0018 0.029396,-0.0027 0.041917,-0.0022 z m -1.7748767,0.405388 c 0.042548,-0.0023 0.085914,0.01787 0.1340258,0.06012 0.086458,0.07592 0.1307882,0.176579 0.1312679,0.298938 5.305e-4,0.131521 -0.042925,0.211848 -0.1428501,0.263087 -0.1019845,0.05228 -0.1618615,0.04807 -0.2537117,-0.01711 -0.1511554,-0.107259 -0.1501444,-0.370986 0.00222,-0.531139 0.044841,-0.04713 0.086512,-0.07167 0.1290614,-0.07391 z" />
  <path
     id="path11"
     style="fill:url(#linearGradient6);fill-opacity:1;stroke:none;stroke-width:0.0535057;stroke-opacity:1"
     d="m 8.7288258,3.7255728 c -0.00142,0.00288 0.00102,0.012154 0.00882,0.030336 0.095364,0.2217025 0.1037933,0.4030848 0.027025,0.5691962 C 8.7327288,4.394221 8.7208938,4.4606624 8.7117218,4.6196307 8.6979228,4.8587263 8.6775288,4.9028294 8.5517739,4.9665542 8.3781369,5.0545422 8.0102253,5.136982 7.7895369,5.136982 7.6472155,5.136982 7.5207977,5.095147 7.2765981,4.9676569 7.1216284,4.88675 7.0726455,4.8694821 6.9991744,4.8694821 h -0.089351 l 0.087696,0.084387 c 0.1060333,0.1028282 0.1438081,0.2039665 0.105897,0.2812886 -0.013422,0.027378 -0.036027,0.05551 -0.050742,0.062325 C 6.9102783,5.363425 6.8142343,5.4260027 6.5656583,5.613518 6.4068334,5.7333288 6.2525757,5.8524105 6.2231478,5.8782606 l -0.0535,0.046882 0.1103095,-0.010479 C 6.4300033,5.9006648 6.5415589,5.8549087 6.7404988,5.7260341 6.9647944,5.5807349 7.107861,5.5283295 7.3113492,5.5164467 c 0.1443373,-0.00843 0.1650811,-0.00555 0.2073817,0.028129 0.1024285,0.081564 0.075346,0.1811959 -0.1362321,0.5041134 -0.063862,0.097469 -0.1158248,0.1811951 -0.1158248,0.1858712 0,0.017733 0.3004778,-0.142239 0.4390312,-0.2338555 0.079549,-0.0526 0.1892152,-0.1404499 0.2443352,-0.1946964 0.081004,-0.079719 0.1116839,-0.098076 0.1588455,-0.097624 0.094617,9.27e-4 0.156639,0.070641 0.156639,0.176495 0,0.1739525 0.2462859,0.6575829 0.4340675,0.8526913 0.040223,0.041792 0.078087,0.074243 0.084387,0.071701 C 8.8084194,6.7993517 8.9413947,6.6336026 9.0211443,6.513642 9.161129,6.3030752 9.2473979,6.0990884 9.26217,5.9444459 9.272666,5.8345757 9.28274,5.803334 9.316222,5.7762244 c 0.070256,-0.05689 0.125289,-0.040584 0.3728456,0.109206 0.3264604,0.1975322 0.4488534,0.2823047 0.7942274,0.5509951 0.16536,0.1286447 0.308196,0.2294546 0.317139,0.2239284 0.02615,-0.016165 0.09791,-0.1685757 0.129062,-0.2735673 0.03318,-0.1118508 0.038,-0.3792309 0.0088,-0.5008047 -0.04674,-0.1947894 -8.02e-4,-0.2673604 0.170429,-0.2686029 l 0.108102,-5.516e-4 -0.07115,-0.037505 C 11.01572,5.5107319 10.511236,5.3153165 10.28253,5.2450948 9.9977109,5.1576434 9.6898579,5.1058736 9.3289058,5.085146 9.0140549,5.0670654 8.9929617,5.0597255 8.9042151,4.9301615 8.7927572,4.7674444 8.7555518,4.5141593 8.8110034,4.2953314 8.8569471,4.1140304 8.8536535,3.9386906 8.801628,3.8303773 8.7719719,3.7686362 8.7330748,3.7168867 8.7288228,3.7255836 Z M 7.134856,5.8550945 C 7.125296,5.8455345 6.9768636,5.9286245 6.7818661,6.0530995 6.6360486,6.1461826 6.5211056,6.1852224 6.3141548,6.2119451 L 6.1553092,6.2329025 6.085264,6.321701 C 5.9551777,6.4862732 5.8170001,6.8077676 5.74165,7.1214439 5.5774969,7.8048041 5.7047473,8.5948671 6.1393153,9.5868563 c 0.2285139,0.5216307 1.0001853,2.0168817 1.1676242,2.2624447 0.1309194,0.192002 0.4398964,0.51104 0.5962219,0.615526 0.1628592,0.108852 0.3460847,0.195624 0.4919795,0.233856 0.1605196,0.04207 0.4290961,0.04618 0.5725054,0.0088 0.2469747,-0.06433 0.545175,-0.256307 0.8157386,-0.525073 0.2474161,-0.245775 0.3545131,-0.394127 0.6943961,-0.963551 0.155322,-0.260221 0.358092,-0.589115 0.451164,-0.731351 C 11.45709,9.6804022 11.496534,9.6111289 11.617828,9.2840539 11.77855,8.8506603 11.848012,8.538742 11.862162,8.1864765 11.879613,7.7520243 11.822661,7.4542357 11.655884,7.1076512 11.554913,6.8978242 11.409799,6.649523 11.297379,6.4948853 l -0.05682,-0.078319 -0.04136,0.1180307 c -0.07,0.2003172 -0.201167,0.400396 -0.295078,0.44896 C 10.790847,7.0421329 10.747949,7.0245802 10.473363,6.80982 10.078791,6.501214 9.8204258,6.3120259 9.6774861,6.2273871 9.6056176,6.1848312 9.544239,6.1529024 9.5412543,6.1562377 c -0.00298,0.00334 -0.035635,0.077354 -0.072805,0.164361 C 9.372856,6.5443632 9.153505,6.8676994 8.9985323,7.0138928 8.8584693,7.1460208 8.8092313,7.1606995 8.6835992,7.1082071 8.4926125,7.0284081 8.2260535,6.6548794 8.0377382,6.2036707 L 8.0178835,6.1562379 7.8695174,6.2544132 C 7.7105718,6.3596203 7.3852142,6.5246316 7.2396514,6.5737582 7.1906047,6.5903113 7.0998537,6.6044766 7.0377853,6.6057481 6.9316083,6.6079185 6.9219151,6.6048571 6.872873,6.550042 6.7873682,6.4544966 6.8046494,6.3962189 7.0162747,6.0641296 7.0864601,5.9539925 7.1397882,5.8600234 7.1348577,5.8550932 Z m 0.027579,1.4803511 c 0.00978,9.99e-5 0.019517,0.00142 0.029234,0.00385 0.070552,0.01771 0.1733267,0.1360515 0.2195154,0.2531601 0.06115,0.1550397 0.059966,0.3920153 -0.00277,0.5140417 -0.025105,0.048839 -0.072597,0.1069896 -0.1053454,0.1290617 -0.041409,0.027914 -0.085993,0.040263 -0.1461514,0.040263 -0.074086,0 -0.096376,-0.00898 -0.1566392,-0.063427 C 6.9080423,8.1290735 6.8651928,8.0158854 6.8657011,7.8566561 6.866571,7.5874486 7.015746,7.3339471 7.1624335,7.3354447 Z m 3.046192,0.00167 c 0.07432,-0.00534 0.139333,0.029857 0.214,0.1108607 0.10393,0.1127509 0.147903,0.2199379 0.157742,0.386083 0.0073,0.1234765 0.0032,0.1484927 -0.04081,0.2382679 -0.03616,0.073924 -0.07056,0.113523 -0.130717,0.1516752 -0.16359,0.1037473 -0.39824,0.050769 -0.4991538,-0.1125113 C 9.760749,7.870502 9.8832912,7.4502087 10.130307,7.3558726 c 0.0275,-0.010502 0.05355,-0.016974 0.07832,-0.018756 z M 8.1761775,8.3409364 C 8.3671845,8.3249221 8.5714467,8.5851446 8.572188,8.8643545 8.5726548,9.0423271 8.5043656,9.1720691 8.3758372,9.2371997 8.0712826,9.3915307 7.7649541,9.1205006 7.8380792,8.7617665 7.8799933,8.5561463 8.0026049,8.3864206 8.1381205,8.3475554 c 0.012557,-0.0036 0.025323,-0.00555 0.038057,-0.00662 z m 2.3352475,0.6364851 c 0.0252,0.00172 0.05153,0.00844 0.07997,0.0193 0.09557,0.036497 0.1773,0.1244955 0.240475,0.2592272 0.03784,0.080686 0.04632,0.125182 0.04633,0.2415761 1.6e-5,0.1664954 -0.04265,0.2625654 -0.157191,0.3546448 -0.05783,0.046485 -0.08527,0.055683 -0.186974,0.060669 -0.17456,0.00855 -0.275848,-0.054216 -0.353543,-0.2189642 -0.08296,-0.1759251 -0.03501,-0.4334264 0.110865,-0.595667 0.07943,-0.088349 0.144455,-0.1259301 0.220066,-0.1207887 z M 9.4177084,9.8836107 c 0.037568,0.00153 0.065432,0.015534 0.1213408,0.053505 0.1488572,0.1010873 0.2592328,0.3593913 0.2310975,0.5416203 -0.016475,0.10671 -0.091805,0.232658 -0.1715303,0.287907 -0.088918,0.06162 -0.2594284,0.0778 -0.3436137,0.03254 -0.1479401,-0.07955 -0.2271791,-0.216115 -0.2261344,-0.389945 0.00158,-0.262495 0.1606736,-0.5026102 0.3469229,-0.5234173 0.016046,-0.0018 0.029396,-0.0027 0.041917,-0.00216 z M 7.6428317,10.288999 c 0.042548,-0.0023 0.085914,0.01787 0.1340258,0.06012 0.086458,0.07592 0.1307882,0.176579 0.1312679,0.298938 5.305e-4,0.131521 -0.042925,0.211848 -0.1428501,0.263087 -0.1019845,0.05228 -0.1618615,0.04807 -0.2537117,-0.01711 -0.1511554,-0.107259 -0.1501444,-0.370986 0.00222,-0.531139 0.044841,-0.04713 0.086512,-0.07167 0.1290614,-0.07391 z" />
  <rect
     style="opacity:0.5;fill:none;fill-opacity:0.996424;stroke:url(#linearGradient9);stroke-width:0.566102;stroke-dasharray:none;stroke-opacity:1"
     id="rect1-2-6"
     width="11.574203"
     height="11.508601"
     x="2.729686"
     y="2.6615164"
     rx="2.0246315"
     ry="2.0627522" />
</svg>
