<?xml version="1.0" encoding="UTF-8" standalone="no"?>
<svg
   width="64"
   height="64"
   version="1.1"
   viewBox="0 0 16.933 16.933"
   id="svg7"
   sodipodi:docname="Template 4.svg"
   inkscape:version="1.3.2 (091e20ef0f, 2023-11-25)"
   xmlns:inkscape="http://www.inkscape.org/namespaces/inkscape"
   xmlns:sodipodi="http://sodipodi.sourceforge.net/DTD/sodipodi-0.dtd"
   xmlns:xlink="http://www.w3.org/1999/xlink"
   xmlns="http://www.w3.org/2000/svg"
   xmlns:svg="http://www.w3.org/2000/svg"
   xmlns:rdf="http://www.w3.org/1999/02/22-rdf-syntax-ns#"
   xmlns:cc="http://creativecommons.org/ns#"
   xmlns:dc="http://purl.org/dc/elements/1.1/">
  <sodipodi:namedview
     id="namedview7"
     pagecolor="#9c4444"
     bordercolor="#000000"
     borderopacity="0.25"
     inkscape:showpageshadow="2"
     inkscape:pageopacity="0.0"
     inkscape:pagecheckerboard="0"
     inkscape:deskcolor="#d1d1d1"
     inkscape:zoom="4.3531261"
     inkscape:cx="32.964816"
     inkscape:cy="24.350317"
     inkscape:window-width="1463"
     inkscape:window-height="604"
     inkscape:window-x="42"
     inkscape:window-y="99"
     inkscape:window-maximized="0"
     inkscape:current-layer="svg7"
     showgrid="false" />
  <defs
     id="defs2">
    <linearGradient
       id="linearGradient5"
       inkscape:collect="always">
      <stop
         style="stop-color:#392713;stop-opacity:1;"
         offset="0"
         id="stop2" />
      <stop
         style="stop-color:#eed59e;stop-opacity:1;"
         offset="0.5"
         id="stop3" />
      <stop
         style="stop-color:#beaa8a;stop-opacity:1;"
         offset="1"
         id="stop4" />
    </linearGradient>
    <linearGradient
       id="linearGradient8"
       inkscape:collect="always">
      <stop
         style="stop-color:#1a1a1a;stop-opacity:1;"
         offset="0"
         id="stop8" />
      <stop
         style="stop-color:#ffffff;stop-opacity:0;"
         offset="1"
         id="stop9" />
    </linearGradient>
    <linearGradient
       inkscape:collect="always"
       xlink:href="#linearGradient5"
       id="linearGradient41"
       x1="13.675659"
       y1="16.110115"
       x2="13.728528"
       y2="10.548769"
       gradientUnits="userSpaceOnUse"
       gradientTransform="matrix(2.046153,0,0,2.046153,-18.798306,-18.911347)" />
    <linearGradient
       inkscape:collect="always"
       xlink:href="#linearGradient42"
       id="linearGradient4"
       x1="11.885941"
       y1="16.50819"
       x2="12.026573"
       y2="10.244942"
       gradientUnits="userSpaceOnUse"
       gradientTransform="matrix(2.046153,0,0,2.046153,-18.798306,-18.911347)" />
    <linearGradient
       id="linearGradient42"
       inkscape:collect="always">
      <stop
         style="stop-color:#010101;stop-opacity:1;"
         offset="0"
         id="stop42" />
      <stop
         style="stop-color:#6e6c6d;stop-opacity:1;"
         offset="1"
         id="stop43" />
    </linearGradient>
    <linearGradient
       inkscape:collect="always"
       xlink:href="#linearGradient8"
       id="linearGradient9"
       x1="9.3404646"
       y1="4.1692023"
       x2="9.4279938"
       y2="16.46883"
       gradientUnits="userSpaceOnUse"
       gradientTransform="matrix(1.05,0,0,1.05,-0.50277005,-0.1977751)" />
    <filter
       style="color-interpolation-filters:sRGB;"
       inkscape:label="Blur"
       id="filter2"
       x="-0.14510849"
       y="-0.14612901"
       width="1.290217"
       height="1.292258">
      <feGaussianBlur
         stdDeviation="0.6 0.6"
         result="blur"
         id="feGaussianBlur2" />
    </filter>
    <linearGradient
       inkscape:collect="always"
       xlink:href="#linearGradient5"
       id="linearGradient40"
       x1="9.4268141"
       y1="11.702874"
       x2="9.3021927"
       y2="4.9995914"
       gradientUnits="userSpaceOnUse" />
  </defs>
  <metadata
     id="metadata2">
    <rdf:RDF>
      <cc:Work
         rdf:about="">
        <dc:format>image/svg+xml</dc:format>
        <dc:type
           rdf:resource="http://purl.org/dc/dcmitype/StillImage" />
      </cc:Work>
    </rdf:RDF>
  </metadata>
  <rect
     style="fill:#000000;fill-opacity:0.996424;stroke:#000000;stroke-width:0.911802;stroke-dasharray:none;stroke-opacity:1;filter:url(#filter2)"
     id="rect1-2-3"
     width="13.065404"
     height="12.974159"
     x="1.9816793"
     y="1.9267306"
     rx="2.7149384"
     ry="2.8310909" />
  <rect
     style="fill:url(#linearGradient4);fill-opacity:0.996424;stroke:url(#linearGradient41);stroke-width:0.911802;stroke-dasharray:none;stroke-opacity:1"
     id="rect1-2"
     width="13.065404"
     height="12.974159"
     x="1.9816793"
     y="1.9267306"
     rx="2.7149384"
     ry="2.8310909" />
  <path
     d="M 11.649922,12.11911 C 11.784425,11.858179 12.557275,7.398451 12.66786,6.2456992 12.787454,5.1028875 12.164016,5.3153588 11.59059,5.5085715 10.183744,5.983837 5.7348856,7.9094391 4.5172115,8.5449904 4.2177634,8.6692428 4.0879194,8.8801612 4.306293,9.0628123 c 0.1876214,0.154694 0.8750479,0.3674765 1.4289031,0.4752656 0.4727802,0.1428903 0.8399466,0.0059 1.1785345,-0.1854468 0.8138533,-0.48241 3.2395704,-2.017549 3.3703464,-2.1032831 0.130465,-0.085424 0.273356,0.07362 0.200668,0.1503453 -0.07331,0.076727 -1.7910985,1.6174563 -2.3555155,2.3142016 -0.2988267,0.3826961 -0.2895077,0.5874021 0.017395,0.8290731 0.6886695,0.539876 2.5285375,1.770908 2.8022035,1.845459 0.34946,0.09474 0.553855,0.01615 0.701094,-0.269317 z"
     fill="#e1f5fe"
     fill-rule="nonzero"
     id="path2-3"
     style="fill:#000000;fill-opacity:1;stroke-width:0.310631;opacity:0.3" />
  <path
     d="M 11.649922,11.589954 C 11.784425,11.329023 12.557275,6.8692948 12.66786,5.716543 12.787454,4.5737313 12.164016,4.7862026 11.59059,4.9794153 10.183744,5.4546808 5.7348856,7.3802829 4.5172115,8.0158342 4.2177634,8.1400866 4.0879194,8.351005 4.306293,8.5336561 c 0.1876214,0.154694 0.8750479,0.3674765 1.4289031,0.4752656 0.4727802,0.1428903 0.8399466,0.0059 1.1785345,-0.1854468 0.8138533,-0.48241 3.2395704,-2.017549 3.3703464,-2.1032831 0.130465,-0.085424 0.273356,0.07362 0.200668,0.1503453 -0.07331,0.076727 -1.7910985,1.6174563 -2.3555155,2.3142016 -0.2988267,0.3826958 -0.2895077,0.5874023 0.017395,0.8290733 0.6886695,0.539876 2.5285375,1.770908 2.8022035,1.845459 0.34946,0.09474 0.553855,0.01615 0.701094,-0.269317 z"
     fill="#e1f5fe"
     fill-rule="nonzero"
     id="path2"
     style="fill:url(#linearGradient40);fill-opacity:1;stroke-width:0.310631" />
  <rect
     style="opacity:0.5;fill:none;fill-opacity:0.996424;stroke:url(#linearGradient9);stroke-width:0.566102;stroke-dasharray:none;stroke-opacity:1"
     id="rect1-2-6"
     width="11.574203"
     height="11.508601"
     x="2.729686"
     y="2.6615164"
     rx="2.0246315"
     ry="2.0627522" />
</svg>
