<?xml version="1.0" encoding="UTF-8" standalone="no"?>
<svg
   width="64"
   height="64"
   version="1.1"
   viewBox="0 0 16.933 16.933"
   id="svg7"
   sodipodi:docname="thingy.svg"
   inkscape:version="1.3.2 (091e20ef0f, 2023-11-25)"
   xmlns:inkscape="http://www.inkscape.org/namespaces/inkscape"
   xmlns:sodipodi="http://sodipodi.sourceforge.net/DTD/sodipodi-0.dtd"
   xmlns:xlink="http://www.w3.org/1999/xlink"
   xmlns="http://www.w3.org/2000/svg"
   xmlns:svg="http://www.w3.org/2000/svg"
   xmlns:rdf="http://www.w3.org/1999/02/22-rdf-syntax-ns#"
   xmlns:cc="http://creativecommons.org/ns#"
   xmlns:dc="http://purl.org/dc/elements/1.1/">
  <sodipodi:namedview
     id="namedview7"
     pagecolor="#9c4444"
     bordercolor="#000000"
     borderopacity="0.25"
     inkscape:showpageshadow="2"
     inkscape:pageopacity="0.0"
     inkscape:pagecheckerboard="0"
     inkscape:deskcolor="#d1d1d1"
     inkscape:zoom="4.3531261"
     inkscape:cx="32.849956"
     inkscape:cy="24.350317"
     inkscape:window-width="1356"
     inkscape:window-height="786"
     inkscape:window-x="35"
     inkscape:window-y="32"
     inkscape:window-maximized="0"
     inkscape:current-layer="svg7"
     showgrid="false" />
  <defs
     id="defs2">
    <linearGradient
       id="linearGradient5"
       inkscape:collect="always">
      <stop
         style="stop-color:#392713;stop-opacity:1;"
         offset="0"
         id="stop2" />
      <stop
         style="stop-color:#eed59e;stop-opacity:1;"
         offset="0.5"
         id="stop3" />
      <stop
         style="stop-color:#beaa8a;stop-opacity:1;"
         offset="1"
         id="stop4" />
    </linearGradient>
    <linearGradient
       id="linearGradient8"
       inkscape:collect="always">
      <stop
         style="stop-color:#1a1a1a;stop-opacity:1;"
         offset="0"
         id="stop8" />
      <stop
         style="stop-color:#ffffff;stop-opacity:0;"
         offset="1"
         id="stop9" />
    </linearGradient>
    <linearGradient
       inkscape:collect="always"
       xlink:href="#linearGradient5"
       id="linearGradient41"
       x1="13.675659"
       y1="16.110115"
       x2="13.728528"
       y2="10.548769"
       gradientUnits="userSpaceOnUse"
       gradientTransform="matrix(2.046153,0,0,2.046153,-18.798306,-18.911347)" />
    <linearGradient
       inkscape:collect="always"
       xlink:href="#linearGradient42"
       id="linearGradient4"
       x1="11.885941"
       y1="16.50819"
       x2="12.026573"
       y2="10.244942"
       gradientUnits="userSpaceOnUse"
       gradientTransform="matrix(2.046153,0,0,2.046153,-18.798306,-18.911347)" />
    <linearGradient
       id="linearGradient42"
       inkscape:collect="always">
      <stop
         style="stop-color:#010101;stop-opacity:1;"
         offset="0"
         id="stop42" />
      <stop
         style="stop-color:#6e6c6d;stop-opacity:1;"
         offset="1"
         id="stop43" />
    </linearGradient>
    <linearGradient
       inkscape:collect="always"
       xlink:href="#linearGradient8"
       id="linearGradient9"
       x1="9.3404646"
       y1="4.1692023"
       x2="9.4279938"
       y2="16.46883"
       gradientUnits="userSpaceOnUse"
       gradientTransform="matrix(1.05,0,0,1.05,-0.50277005,-0.1977751)" />
    <filter
       style="color-interpolation-filters:sRGB;"
       inkscape:label="Blur"
       id="filter2"
       x="-0.14510849"
       y="-0.14612901"
       width="1.290217"
       height="1.292258">
      <feGaussianBlur
         stdDeviation="0.6 0.6"
         result="blur"
         id="feGaussianBlur2" />
    </filter>
    <linearGradient
       inkscape:collect="always"
       xlink:href="#linearGradient5"
       id="linearGradient6"
       x1="9.6598253"
       y1="11.897031"
       x2="9.7496738"
       y2="4.8806295"
       gradientUnits="userSpaceOnUse" />
  </defs>
  <metadata
     id="metadata2">
    <rdf:RDF>
      <cc:Work
         rdf:about="">
        <dc:format>image/svg+xml</dc:format>
        <dc:type
           rdf:resource="http://purl.org/dc/dcmitype/StillImage" />
      </cc:Work>
    </rdf:RDF>
  </metadata>
  <rect
     style="fill:#000000;fill-opacity:0.996424;stroke:#000000;stroke-width:0.911802;stroke-dasharray:none;stroke-opacity:1;filter:url(#filter2)"
     id="rect1-2-3"
     width="13.065404"
     height="12.974159"
     x="1.9816793"
     y="1.9267306"
     rx="2.7149384"
     ry="2.8310909" />
  <rect
     style="fill:url(#linearGradient4);fill-opacity:0.996424;stroke:url(#linearGradient41);stroke-width:0.911802;stroke-dasharray:none;stroke-opacity:1"
     id="rect1-2"
     width="13.065404"
     height="12.974159"
     x="1.9816793"
     y="1.9267306"
     rx="2.7149384"
     ry="2.8310909" />
  <path
     d="m 4.9254387,5.5272823 c -0.360477,0 -0.6511638,0.2913269 -0.6511638,0.6495631 v 2.764725 c 0,0.1731953 0.069791,0.3371069 0.1911234,0.4606809 l 2.8710113,2.8706907 c 0.2541908,0.25451 0.6649298,0.25451 0.9191205,0 L 11.019935,9.5085373 c 0.254512,-0.2545108 0.254512,-0.6668505 0,-0.9194405 L 8.1492438,5.7184056 C 8.027911,5.5970728 7.8620786,5.5272823 7.6885631,5.5272823 Z m 3.8387931,0 2.6590782,2.6609997 c 0.22922,0.2292199 0.356316,0.5359135 0.356316,0.8614955 0,0.325582 -0.125175,0.6297145 -0.356316,0.8611753 L 9.0645228,12.2675 l 0.00608,0.0055 c 0.2541909,0.25451 0.6649298,0.25451 0.9191205,0 L 12.75413,9.5085373 c 0.254512,-0.2545108 0.254512,-0.6668505 0.0023,-0.9194405 L 9.8853605,5.7184056 C 9.7621067,5.5970728 9.5981953,5.5272823 9.4246796,5.5272823 Z M 5.6617597,6.2210247 c 0.3838473,0 0.6937423,0.3105353 0.6937423,0.6950229 0,0.3841675 -0.312136,0.6921416 -0.6937423,0.6921416 -0.3819265,0 -0.6937424,-0.3105354 -0.6937424,-0.6950229 0,-0.3841674 0.309895,-0.6921416 0.6937424,-0.6921416 z"
     fill="#ffffff"
     fill-rule="nonzero"
     id="path3-5"
     style="fill:#000000;stroke-width:0.32014;opacity:0.3" />
  <path
     d="m 4.9254387,4.9981261 c -0.360477,0 -0.6511638,0.2913269 -0.6511638,0.6495631 v 2.764725 c 0,0.1731953 0.069791,0.3371069 0.1911234,0.4606809 l 2.8710113,2.8706909 c 0.2541908,0.25451 0.6649298,0.25451 0.9191205,0 L 11.019935,8.9793811 c 0.254512,-0.2545108 0.254512,-0.6668505 0,-0.9194405 L 8.1492438,5.1892494 C 8.027911,5.0679166 7.8620786,4.9981261 7.6885631,4.9981261 Z m 3.8387931,0 2.6590782,2.6609997 c 0.22922,0.2292199 0.356316,0.5359135 0.356316,0.8614955 0,0.325582 -0.125175,0.6297145 -0.356316,0.8611753 l -2.3587872,2.3565474 0.00608,0.0055 c 0.2541909,0.25451 0.6649298,0.25451 0.9191205,0 L 12.75413,8.9793811 c 0.254512,-0.2545108 0.254512,-0.6668505 0.0023,-0.9194405 L 9.8853605,5.1892494 C 9.7621067,5.0679166 9.5981953,4.9981261 9.4246796,4.9981261 Z M 5.6617597,5.6918685 c 0.3838473,0 0.6937423,0.3105353 0.6937423,0.6950229 0,0.3841675 -0.312136,0.6921416 -0.6937423,0.6921416 -0.3819265,0 -0.6937424,-0.3105354 -0.6937424,-0.6950229 0,-0.3841674 0.309895,-0.6921416 0.6937424,-0.6921416 z"
     fill="#ffffff"
     fill-rule="nonzero"
     id="path3"
     style="stroke-width:0.32014;fill:url(#linearGradient6)" />
  <rect
     style="opacity:0.5;fill:none;fill-opacity:0.996424;stroke:url(#linearGradient9);stroke-width:0.566102;stroke-dasharray:none;stroke-opacity:1"
     id="rect1-2-6"
     width="11.574203"
     height="11.508601"
     x="2.729686"
     y="2.6615164"
     rx="2.0246315"
     ry="2.0627522" />
</svg>
