<?xml version="1.0" encoding="UTF-8" standalone="no"?>
<svg
   width="64"
   height="64"
   version="1.1"
   viewBox="0 0 16.933 16.933"
   id="svg7"
   sodipodi:docname="Template 4.svg"
   inkscape:version="1.3.2 (091e20ef0f, 2023-11-25)"
   xmlns:inkscape="http://www.inkscape.org/namespaces/inkscape"
   xmlns:sodipodi="http://sodipodi.sourceforge.net/DTD/sodipodi-0.dtd"
   xmlns:xlink="http://www.w3.org/1999/xlink"
   xmlns="http://www.w3.org/2000/svg"
   xmlns:svg="http://www.w3.org/2000/svg"
   xmlns:rdf="http://www.w3.org/1999/02/22-rdf-syntax-ns#"
   xmlns:cc="http://creativecommons.org/ns#"
   xmlns:dc="http://purl.org/dc/elements/1.1/">
  <sodipodi:namedview
     id="namedview7"
     pagecolor="#9c4444"
     bordercolor="#000000"
     borderopacity="0.25"
     inkscape:showpageshadow="2"
     inkscape:pageopacity="0.0"
     inkscape:pagecheckerboard="0"
     inkscape:deskcolor="#d1d1d1"
     inkscape:zoom="4.3531261"
     inkscape:cx="32.964816"
     inkscape:cy="24.350317"
     inkscape:window-width="1463"
     inkscape:window-height="604"
     inkscape:window-x="42"
     inkscape:window-y="99"
     inkscape:window-maximized="0"
     inkscape:current-layer="svg7"
     showgrid="false" />
  <defs
     id="defs2">
    <linearGradient
       id="linearGradient5"
       inkscape:collect="always">
      <stop
         style="stop-color:#392713;stop-opacity:1;"
         offset="0"
         id="stop2" />
      <stop
         style="stop-color:#eed59e;stop-opacity:1;"
         offset="0.5"
         id="stop3" />
      <stop
         style="stop-color:#beaa8a;stop-opacity:1;"
         offset="1"
         id="stop4" />
    </linearGradient>
    <linearGradient
       id="linearGradient8"
       inkscape:collect="always">
      <stop
         style="stop-color:#1a1a1a;stop-opacity:1;"
         offset="0"
         id="stop8" />
      <stop
         style="stop-color:#ffffff;stop-opacity:0;"
         offset="1"
         id="stop9" />
    </linearGradient>
    <linearGradient
       inkscape:collect="always"
       xlink:href="#linearGradient5"
       id="linearGradient41"
       x1="13.675659"
       y1="16.110115"
       x2="13.728528"
       y2="10.548769"
       gradientUnits="userSpaceOnUse"
       gradientTransform="matrix(2.046153,0,0,2.046153,-18.798306,-18.911347)" />
    <linearGradient
       inkscape:collect="always"
       xlink:href="#linearGradient42"
       id="linearGradient4"
       x1="11.885941"
       y1="16.50819"
       x2="12.026573"
       y2="10.244942"
       gradientUnits="userSpaceOnUse"
       gradientTransform="matrix(2.046153,0,0,2.046153,-18.798306,-18.911347)" />
    <linearGradient
       id="linearGradient42"
       inkscape:collect="always">
      <stop
         style="stop-color:#010101;stop-opacity:1;"
         offset="0"
         id="stop42" />
      <stop
         style="stop-color:#6e6c6d;stop-opacity:1;"
         offset="1"
         id="stop43" />
    </linearGradient>
    <linearGradient
       inkscape:collect="always"
       xlink:href="#linearGradient8"
       id="linearGradient9"
       x1="9.3404646"
       y1="4.1692023"
       x2="9.4279938"
       y2="16.46883"
       gradientUnits="userSpaceOnUse"
       gradientTransform="matrix(1.05,0,0,1.05,-0.50277005,-0.1977751)" />
    <filter
       style="color-interpolation-filters:sRGB;"
       inkscape:label="Blur"
       id="filter2"
       x="-0.14510849"
       y="-0.14612901"
       width="1.290217"
       height="1.292258">
      <feGaussianBlur
         stdDeviation="0.6 0.6"
         result="blur"
         id="feGaussianBlur2" />
    </filter>
    <linearGradient
       inkscape:collect="always"
       xlink:href="#linearGradient5"
       id="linearGradient45"
       x1="8.5792103"
       y1="12.824987"
       x2="8.8076506"
       y2="4.0134063"
       gradientUnits="userSpaceOnUse" />
  </defs>
  <metadata
     id="metadata2">
    <rdf:RDF>
      <cc:Work
         rdf:about="">
        <dc:format>image/svg+xml</dc:format>
        <dc:type
           rdf:resource="http://purl.org/dc/dcmitype/StillImage" />
      </cc:Work>
    </rdf:RDF>
  </metadata>
  <rect
     style="fill:#000000;fill-opacity:0.996424;stroke:#000000;stroke-width:0.911802;stroke-dasharray:none;stroke-opacity:1;filter:url(#filter2)"
     id="rect1-2-3"
     width="13.065404"
     height="12.974159"
     x="1.9816793"
     y="1.9267306"
     rx="2.7149384"
     ry="2.8310909" />
  <rect
     style="fill:url(#linearGradient4);fill-opacity:0.996424;stroke:url(#linearGradient41);stroke-width:0.911802;stroke-dasharray:none;stroke-opacity:1"
     id="rect1-2"
     width="13.065404"
     height="12.974159"
     x="1.9816793"
     y="1.9267306"
     rx="2.7149384"
     ry="2.8310909" />
  <path
     d="m 9.7031673,13.428543 0.014682,-1.855531 -2.2910676,-0.0067 -0.015044,1.856256 z m -0.5486329,-0.431176 -0.4663485,-8.91e-4 0.00404,-0.382101 0.4656189,0.0016 z m -0.7095946,-0.0019 -0.4674379,-8.91e-4 0.00368,-0.381741 0.4663487,8.91e-4 z m 1.8794532,-1.939914 0.05012,-6.0240173 C 10.377351,4.7044884 10.113574,4.4378562 9.7857361,4.43646 L 7.4107931,4.43152 C 7.0824084,4.4306685 6.8144922,4.6968029 6.8123757,5.0235471 l -0.0503,6.0235149 z M 8.549931,10.243216 8.2336012,9.687305 8.4630538,9.6878143 8.4809267,7.5416693 7.891981,8.0939945 C 7.853791,8.1408075 7.826958,8.2020197 7.824984,8.2653631 7.822114,8.5968233 7.820764,8.7133588 7.820764,8.7133588 l 0.1862476,6.365e-4 -0.00426,0.5556436 -0.5560224,-0.00135 0.00444,-0.5561869 0.1864262,0.00119 0.00365,-0.4427348 c 0.00106,-0.1245247 0.07053,-0.2546725 0.1512105,-0.3373805 0.00183,-0.0018 0.6245204,-0.5849899 0.6245204,-0.5849899 0.038191,-0.046813 0.065025,-0.1083883 0.06718,-0.1715496 l 0.0052,-0.6981402 c 1.842e-4,-8.91e-4 1.88e-4,-0.00161 1.923e-4,-0.00237 l 0.00296,-0.31603 C 8.2801747,6.117023 8.1216159,5.9293765 8.123548,5.7046515 8.1258351,5.4481603 8.3355248,5.2407069 8.591843,5.2413562 8.8479805,5.2418441 9.0541706,5.4502379 9.0520692,5.7065485 9.0503295,5.9314561 8.8886589,6.1184731 8.6760421,6.1605366 l -0.00247,0.3212966 c 9.27e-4,0.063359 0.026375,0.1252163 0.063519,0.1722505 0,0 0.6135154,0.5861877 0.6155016,0.5881948 l -3.394e-4,3.394e-4 c 0.079239,0.083028 0.1464366,0.2133595 0.1454072,0.3375207 l -0.00374,0.459072 C 9.6017428,8.0773659 9.6787057,8.1799812 9.6778746,8.3010577 9.6766863,8.4546263 9.5514926,8.5784849 9.39792,8.5780235 9.2445277,8.5777477 9.1208496,8.4527332 9.1222177,8.2993464 9.1232377,8.1780891 9.2023787,8.076675 9.3109551,8.0389548 c 1.19e-4,-0.056093 0.00131,-0.2082092 0.00359,-0.4643373 -9.36e-4,-0.063359 -0.027101,-0.12522 -0.064426,-0.1724371 L 8.6703723,6.8479409 8.6465975,9.6882288 8.8753259,9.6883671 Z"
     fill="#ffffff"
     fill-rule="nonzero"
     id="path2-2"
     style="fill:#000000;fill-opacity:1;stroke-width:0.256721;opacity:0.3" />
  <path
     d="m 9.7031673,12.899387 0.014682,-1.855531 -2.2910676,-0.0067 -0.015044,1.856256 z m -0.5486329,-0.431176 -0.4663485,-8.91e-4 0.00404,-0.382101 0.4656189,0.0016 z m -0.7095946,-0.0019 -0.4674379,-8.91e-4 0.00368,-0.381741 0.4663487,8.91e-4 z m 1.8794532,-1.939914 0.05012,-6.0240176 C 10.377351,4.1753322 10.113574,3.9087 9.7857361,3.9073038 l -2.374943,-0.00494 C 7.0824084,3.9015123 6.8144922,4.1676467 6.8123757,4.4943909 l -0.0503,6.0235151 z M 8.549931,9.7140598 8.2336012,9.1581488 8.4630538,9.1586581 8.4809267,7.0125131 7.891981,7.5648383 C 7.853791,7.6116513 7.826958,7.6728635 7.824984,7.7362069 7.822114,8.0676671 7.820764,8.1842026 7.820764,8.1842026 l 0.1862476,6.365e-4 -0.00426,0.5556435 -0.5560224,-0.00135 0.00444,-0.5561869 0.1864262,0.00119 0.00365,-0.4427348 c 0.00106,-0.1245247 0.07053,-0.2546725 0.1512105,-0.3373805 0.00183,-0.0018 0.6245204,-0.5849899 0.6245204,-0.5849899 0.038191,-0.046813 0.065025,-0.1083883 0.06718,-0.1715496 l 0.0052,-0.6981402 c 1.842e-4,-8.91e-4 1.88e-4,-0.00161 1.923e-4,-0.00237 l 0.00296,-0.31603 C 8.2801747,5.5878668 8.1216159,5.4002203 8.123548,5.1754953 8.1258351,4.9190041 8.3355248,4.7115507 8.591843,4.7122 8.8479805,4.7126879 9.0541706,4.9210817 9.0520692,5.1773923 9.0503295,5.4022999 8.8886589,5.5893169 8.6760421,5.6313804 l -0.00247,0.3212966 c 9.27e-4,0.063359 0.026375,0.1252163 0.063519,0.1722505 0,0 0.6135154,0.5861877 0.6155016,0.5881948 l -3.394e-4,3.394e-4 c 0.079239,0.083028 0.1464366,0.2133595 0.1454072,0.3375207 l -0.00374,0.459072 C 9.6017428,7.5482097 9.6787057,7.650825 9.6778746,7.7719015 9.6766863,7.9254701 9.5514926,8.0493287 9.39792,8.0488673 9.2445277,8.0485915 9.1208496,7.923577 9.1222177,7.7701902 c 0.00102,-0.1212573 0.080161,-0.2226714 0.1887374,-0.2603916 1.19e-4,-0.056093 0.00131,-0.2082092 0.00359,-0.4643373 -9.36e-4,-0.063359 -0.027101,-0.12522 -0.064426,-0.1724371 L 8.6703723,6.3187847 8.6465975,9.1590726 8.8753259,9.1592109 Z"
     fill="#ffffff"
     fill-rule="nonzero"
     id="path2"
     style="fill:url(#linearGradient45);fill-opacity:1;stroke-width:0.256721" />
  <rect
     style="opacity:0.5;fill:none;fill-opacity:0.996424;stroke:url(#linearGradient9);stroke-width:0.566102;stroke-dasharray:none;stroke-opacity:1"
     id="rect1-2-6"
     width="11.574203"
     height="11.508601"
     x="2.729686"
     y="2.6615164"
     rx="2.0246315"
     ry="2.0627522" />
</svg>
