<?xml version="1.0" encoding="UTF-8" standalone="no"?>
<svg
   width="64"
   height="64"
   version="1.1"
   viewBox="0 0 16.933 16.933"
   id="svg7"
   sodipodi:docname="Template 4.svg"
   inkscape:version="1.3.2 (091e20ef0f, 2023-11-25)"
   xmlns:inkscape="http://www.inkscape.org/namespaces/inkscape"
   xmlns:sodipodi="http://sodipodi.sourceforge.net/DTD/sodipodi-0.dtd"
   xmlns:xlink="http://www.w3.org/1999/xlink"
   xmlns="http://www.w3.org/2000/svg"
   xmlns:svg="http://www.w3.org/2000/svg"
   xmlns:rdf="http://www.w3.org/1999/02/22-rdf-syntax-ns#"
   xmlns:cc="http://creativecommons.org/ns#"
   xmlns:dc="http://purl.org/dc/elements/1.1/">
  <sodipodi:namedview
     id="namedview7"
     pagecolor="#9c4444"
     bordercolor="#000000"
     borderopacity="0.25"
     inkscape:showpageshadow="2"
     inkscape:pageopacity="0.0"
     inkscape:pagecheckerboard="0"
     inkscape:deskcolor="#d1d1d1"
     inkscape:zoom="4.3531261"
     inkscape:cx="32.849956"
     inkscape:cy="24.350317"
     inkscape:window-width="1356"
     inkscape:window-height="786"
     inkscape:window-x="35"
     inkscape:window-y="32"
     inkscape:window-maximized="0"
     inkscape:current-layer="svg7"
     showgrid="false" />
  <defs
     id="defs2">
    <linearGradient
       id="linearGradient5"
       inkscape:collect="always">
      <stop
         style="stop-color:#392713;stop-opacity:1;"
         offset="0"
         id="stop2" />
      <stop
         style="stop-color:#eed59e;stop-opacity:1;"
         offset="0.5"
         id="stop3" />
      <stop
         style="stop-color:#beaa8a;stop-opacity:1;"
         offset="1"
         id="stop4" />
    </linearGradient>
    <linearGradient
       id="linearGradient8"
       inkscape:collect="always">
      <stop
         style="stop-color:#1a1a1a;stop-opacity:1;"
         offset="0"
         id="stop8" />
      <stop
         style="stop-color:#ffffff;stop-opacity:0;"
         offset="1"
         id="stop9" />
    </linearGradient>
    <linearGradient
       inkscape:collect="always"
       xlink:href="#linearGradient5"
       id="linearGradient41"
       x1="13.675659"
       y1="16.110115"
       x2="13.728528"
       y2="10.548769"
       gradientUnits="userSpaceOnUse"
       gradientTransform="matrix(2.046153,0,0,2.046153,-18.798306,-18.911347)" />
    <linearGradient
       inkscape:collect="always"
       xlink:href="#linearGradient42"
       id="linearGradient4"
       x1="11.885941"
       y1="16.50819"
       x2="12.026573"
       y2="10.244942"
       gradientUnits="userSpaceOnUse"
       gradientTransform="matrix(2.046153,0,0,2.046153,-18.798306,-18.911347)" />
    <linearGradient
       id="linearGradient42"
       inkscape:collect="always">
      <stop
         style="stop-color:#010101;stop-opacity:1;"
         offset="0"
         id="stop42" />
      <stop
         style="stop-color:#6e6c6d;stop-opacity:1;"
         offset="1"
         id="stop43" />
    </linearGradient>
    <linearGradient
       inkscape:collect="always"
       xlink:href="#linearGradient8"
       id="linearGradient9"
       x1="9.3404646"
       y1="4.1692023"
       x2="9.4279938"
       y2="16.46883"
       gradientUnits="userSpaceOnUse"
       gradientTransform="matrix(1.05,0,0,1.05,-0.50277005,-0.1977751)" />
    <filter
       style="color-interpolation-filters:sRGB;"
       inkscape:label="Blur"
       id="filter2"
       x="-0.14510849"
       y="-0.14612901"
       width="1.290217"
       height="1.292258">
      <feGaussianBlur
         stdDeviation="0.6 0.6"
         result="blur"
         id="feGaussianBlur2" />
    </filter>
    <linearGradient
       inkscape:collect="always"
       xlink:href="#linearGradient5"
       id="linearGradient48"
       x1="32.744972"
       y1="50.479218"
       x2="33.055264"
       y2="14.216635"
       gradientUnits="userSpaceOnUse"
       gradientTransform="matrix(0.2121652,0,0,0.2121652,1.7553012,1.5827732)" />
  </defs>
  <metadata
     id="metadata2">
    <rdf:RDF>
      <cc:Work
         rdf:about="">
        <dc:format>image/svg+xml</dc:format>
        <dc:type
           rdf:resource="http://purl.org/dc/dcmitype/StillImage" />
      </cc:Work>
    </rdf:RDF>
  </metadata>
  <rect
     style="fill:#000000;fill-opacity:0.996424;stroke:#000000;stroke-width:0.911802;stroke-dasharray:none;stroke-opacity:1;filter:url(#filter2)"
     id="rect1-2-3"
     width="13.065404"
     height="12.974159"
     x="1.9816793"
     y="1.9267306"
     rx="2.7149384"
     ry="2.8310909" />
  <rect
     style="fill:url(#linearGradient4);fill-opacity:0.996424;stroke:url(#linearGradient41);stroke-width:0.911802;stroke-dasharray:none;stroke-opacity:1"
     id="rect1-2"
     width="13.065404"
     height="12.974159"
     x="1.9816793"
     y="1.9267306"
     rx="2.7149384"
     ry="2.8310909" />
  <path
     d="m 4.8216365,6.5100285 3.0985276,6.0063625 c 0,0 0.1679701,0.321947 0.5901519,0.321947 0.4210524,0 0.589023,-0.321947 0.589023,-0.321947 0,0 2.153402,-3.6188342 3.032468,-5.5492653 0.08847,-0.194152 0.183647,-0.3907593 0.223967,-0.6021244 a 0.93502674,1.0260221 0 0 0 0.0077,-0.44236 0.86449947,0.94863114 0 0 0 -0.2318,-0.4767766 0.92165094,1.0113449 0 0 0 -0.519597,-0.2482182 1.0784291,1.1833802 0 0 0 -0.599106,0.1327059 0.78387205,0.86015723 0 0 0 -0.31019,0.3293235 0.95186016,1.0444937 0 0 0 -0.09742,0.4571169 1.1354805,1.2459838 0 0 0 0.06383,0.4276223 c 0.02911,0.087267 0.06718,0.1720257 0.09742,0.2580531 0.02352,0.073787 0.05824,0.143759 0.06494,0.2211804 a 0.71668406,0.78643062 0 0 1 -0.03137,0.369861 C 10.598772,7.9563143 10.250502,8.4957148 9.7902408,8.8263066 9.5998669,8.9626968 9.355747,8.9971038 9.1295423,9.0081669 8.869744,9.0204471 8.569627,8.9981803 8.3602199,8.8717664 8.1496933,8.7464292 8.0511493,8.5277055 7.919012,8.3360099 7.3143108,7.4549551 6.3254806,5.5257321 6.3254806,5.5257321 c 0,0 -0.4300156,-0.8343572 -1.203815,-0.329314 C 4.3489855,5.7026797 4.8204294,6.5111965 4.8204294,6.5111965 Z"
     fill="url(#linearGradient984)"
     fill-rule="evenodd"
     id="path20-7-7"
     style="fill:#000000;fill-opacity:1;stroke:none;stroke-width:0.254153;stroke-dasharray:none;stroke-opacity:0.3;opacity:0.3" />
  <path
     d="m 4.8216365,5.9808723 3.0985276,6.0063627 c 0,0 0.1679701,0.321947 0.5901519,0.321947 0.4210524,0 0.589023,-0.321947 0.589023,-0.321947 0,0 2.153402,-3.6188344 3.032468,-5.5492655 0.08847,-0.194152 0.183647,-0.3907593 0.223967,-0.6021244 a 0.93502674,1.0260221 0 0 0 0.0077,-0.44236 0.86449947,0.94863114 0 0 0 -0.2318,-0.4767766 0.92165094,1.0113449 0 0 0 -0.519597,-0.2482182 1.0784291,1.1833802 0 0 0 -0.599106,0.1327059 0.78387205,0.86015723 0 0 0 -0.31019,0.3293235 0.95186016,1.0444937 0 0 0 -0.09742,0.4571169 1.1354805,1.2459838 0 0 0 0.06383,0.4276223 c 0.02911,0.087267 0.06718,0.1720257 0.09742,0.2580531 0.02352,0.073787 0.05824,0.143759 0.06494,0.2211804 a 0.71668406,0.78643062 0 0 1 -0.03137,0.369861 C 10.598772,7.4271581 10.250502,7.9665586 9.7902408,8.2971504 9.5998669,8.4335406 9.355747,8.4679476 9.1295423,8.4790107 8.869744,8.4912909 8.569627,8.4690241 8.3602199,8.3426102 8.1496933,8.217273 8.0511493,7.9985493 7.919012,7.8068537 7.3143108,6.9257989 6.3254806,4.9965759 6.3254806,4.9965759 c 0,0 -0.4300156,-0.8343572 -1.203815,-0.329314 C 4.3489855,5.1735235 4.8204294,5.9820403 4.8204294,5.9820403 Z"
     fill="url(#linearGradient984)"
     fill-rule="evenodd"
     id="path20-7"
     style="fill:url(#linearGradient48);fill-opacity:1;stroke:none;stroke-width:0.254153;stroke-dasharray:none;stroke-opacity:0.3" />
  <rect
     style="opacity:0.5;fill:none;fill-opacity:0.996424;stroke:url(#linearGradient9);stroke-width:0.566102;stroke-dasharray:none;stroke-opacity:1"
     id="rect1-2-6"
     width="11.574203"
     height="11.508601"
     x="2.729686"
     y="2.6615164"
     rx="2.0246315"
     ry="2.0627522" />
</svg>
