<?xml version="1.0" encoding="UTF-8" standalone="no"?>
<svg
   width="64"
   height="64"
   version="1.1"
   viewBox="0 0 16.933 16.933"
   id="svg7"
   sodipodi:docname="io.elementary.photos-viewer.svg"
   inkscape:version="1.4 (e7c3feb100, 2024-10-09)"
   xmlns:inkscape="http://www.inkscape.org/namespaces/inkscape"
   xmlns:sodipodi="http://sodipodi.sourceforge.net/DTD/sodipodi-0.dtd"
   xmlns:xlink="http://www.w3.org/1999/xlink"
   xmlns="http://www.w3.org/2000/svg"
   xmlns:svg="http://www.w3.org/2000/svg"
   xmlns:rdf="http://www.w3.org/1999/02/22-rdf-syntax-ns#"
   xmlns:cc="http://creativecommons.org/ns#"
   xmlns:dc="http://purl.org/dc/elements/1.1/">
  <sodipodi:namedview
     id="namedview7"
     pagecolor="#9c4444"
     bordercolor="#000000"
     borderopacity="0.25"
     inkscape:showpageshadow="2"
     inkscape:pageopacity="0.0"
     inkscape:pagecheckerboard="0"
     inkscape:deskcolor="#d1d1d1"
     inkscape:zoom="4.3531261"
     inkscape:cx="32.849956"
     inkscape:cy="24.235457"
     inkscape:window-width="1189"
     inkscape:window-height="991"
     inkscape:window-x="26"
     inkscape:window-y="23"
     inkscape:window-maximized="0"
     inkscape:current-layer="svg7"
     showgrid="false" />
  <defs
     id="defs2">
    <linearGradient
       id="linearGradient5"
       inkscape:collect="always">
      <stop
         style="stop-color:#392713;stop-opacity:1;"
         offset="0"
         id="stop2" />
      <stop
         style="stop-color:#eed59e;stop-opacity:1;"
         offset="0.5"
         id="stop3" />
      <stop
         style="stop-color:#beaa8a;stop-opacity:1;"
         offset="1"
         id="stop4" />
    </linearGradient>
    <linearGradient
       id="linearGradient8"
       inkscape:collect="always">
      <stop
         style="stop-color:#1a1a1a;stop-opacity:1;"
         offset="0"
         id="stop8" />
      <stop
         style="stop-color:#ffffff;stop-opacity:0;"
         offset="1"
         id="stop9" />
    </linearGradient>
    <linearGradient
       inkscape:collect="always"
       xlink:href="#linearGradient5"
       id="linearGradient41"
       x1="13.675659"
       y1="16.110115"
       x2="13.728528"
       y2="10.548769"
       gradientUnits="userSpaceOnUse"
       gradientTransform="matrix(2.046153,0,0,2.046153,-18.798306,-18.911347)" />
    <linearGradient
       inkscape:collect="always"
       xlink:href="#linearGradient42"
       id="linearGradient4"
       x1="11.885941"
       y1="16.50819"
       x2="12.026573"
       y2="10.244942"
       gradientUnits="userSpaceOnUse"
       gradientTransform="matrix(2.046153,0,0,2.046153,-18.798306,-18.911347)" />
    <linearGradient
       id="linearGradient42"
       inkscape:collect="always">
      <stop
         style="stop-color:#010101;stop-opacity:1;"
         offset="0"
         id="stop42" />
      <stop
         style="stop-color:#6e6c6d;stop-opacity:1;"
         offset="1"
         id="stop43" />
    </linearGradient>
    <linearGradient
       inkscape:collect="always"
       xlink:href="#linearGradient8"
       id="linearGradient9"
       x1="9.3404646"
       y1="4.1692023"
       x2="9.4279938"
       y2="16.46883"
       gradientUnits="userSpaceOnUse"
       gradientTransform="matrix(1.05,0,0,1.05,-0.50277005,-0.1977751)" />
    <filter
       style="color-interpolation-filters:sRGB;"
       inkscape:label="Blur"
       id="filter2"
       x="-0.14510849"
       y="-0.14612901"
       width="1.290217"
       height="1.292258">
      <feGaussianBlur
         stdDeviation="0.6 0.6"
         result="blur"
         id="feGaussianBlur2" />
    </filter>
    <linearGradient
       inkscape:collect="always"
       xlink:href="#linearGradient5"
       id="linearGradient25354"
       x1="8.7791262"
       y1="13.176773"
       x2="8.5562077"
       y2="4.0347753"
       gradientUnits="userSpaceOnUse"
       gradientTransform="matrix(0.88209,0,0,0.88209,0.99771958,0.75160678)" />
  </defs>
  <metadata
     id="metadata2">
    <rdf:RDF>
      <cc:Work
         rdf:about="">
        <dc:format>image/svg+xml</dc:format>
        <dc:type
           rdf:resource="http://purl.org/dc/dcmitype/StillImage" />
      </cc:Work>
    </rdf:RDF>
  </metadata>
  <rect
     style="fill:#000000;fill-opacity:0.996424;stroke:#000000;stroke-width:0.911802;stroke-dasharray:none;stroke-opacity:1;filter:url(#filter2)"
     id="rect1-2-3"
     width="13.065404"
     height="12.974159"
     x="1.9816793"
     y="1.9267306"
     rx="2.7149384"
     ry="2.8310909" />
  <rect
     style="fill:url(#linearGradient4);fill-opacity:0.996424;stroke:url(#linearGradient41);stroke-width:0.911802;stroke-dasharray:none;stroke-opacity:1"
     id="rect1-2"
     width="13.065404"
     height="12.974159"
     x="1.9816793"
     y="1.9267306"
     rx="2.7149384"
     ry="2.8310909" />
  <path
     style="fill:#000000;stroke:none;stroke-width:0.192877;stroke-dasharray:none;stroke-dashoffset:2.2;stroke-opacity:0.3;fill-opacity:1;opacity:0.3"
     d="M 10.106002,12.825829 C 10.043264,12.785946 9.2875684,12.080595 8.42668,11.258386 7.5657914,10.436174 6.843999,9.7650445 6.8226979,9.7669856 6.8013934,9.7689198 6.4689007,10.00731 6.0838176,10.296728 5.6987348,10.586145 5.3447828,10.836495 5.2972574,10.853062 5.1674581,10.898311 5.0695705,10.846402 4.7732356,10.575197 4.4856883,10.31203 4.4224513,10.199049 4.4763917,10.044846 4.4972022,9.9853527 4.7390903,9.7457202 5.1535006,9.3740473 5.5081035,9.0560139 5.7982329,8.7854421 5.7982329,8.7727759 c 0,-0.012666 -0.2963705,-0.3087156 -0.658601,-0.6578883 C 4.4382554,7.438795 4.3974003,7.3816778 4.4887821,7.204965 4.5150974,7.1540781 4.6571117,7.0030589 4.8043715,6.8693667 5.2264799,6.4861476 5.1553156,6.4672872 6.0924274,7.2107277 L 6.8701336,7.8277058 8.4438964,6.4098671 c 0.8655692,-0.779811 1.6234766,-1.4471703 1.6842366,-1.4830207 0.181465,-0.1070664 0.297755,-0.071128 1.217858,0.3763827 0.960906,0.4673554 0.979713,0.4782297 1.06278,0.6144655 0.05959,0.097736 0.06133,0.1812424 0.06144,2.958236 1.27e-4,3.0786484 0.0074,2.9406214 -0.162121,3.0947524 -0.04058,0.03691 -0.463269,0.254859 -0.939286,0.484318 -0.962836,0.464126 -1.067638,0.4949 -1.262803,0.370828 z m 0.374186,-4.8831256 -0.0083,-0.9283011 -1.1329972,0.8486154 c -0.6231516,0.4667387 -1.1599782,0.8665909 -1.192952,0.8885598 -0.054406,0.036249 0.050404,0.1277745 1.1329981,0.9894 l 1.1929481,0.9494555 0.0084,-0.9097143 c 0.0046,-0.5003425 0.0046,-1.3274495 0,-1.8380153 z"
     id="path72-3" />
  <path
     style="fill:url(#linearGradient25354);stroke:none;stroke-width:0.192877;stroke-dasharray:none;stroke-dashoffset:2.2;stroke-opacity:0.3"
     d="M 10.106002,12.296673 C 10.043264,12.25679 9.2875684,11.551439 8.42668,10.72923 7.5657914,9.9070176 6.843999,9.2358883 6.8226979,9.2378294 6.8013934,9.2397636 6.4689007,9.478154 6.0838176,9.767572 5.6987348,10.056989 5.3447828,10.307339 5.2972574,10.323906 5.1674581,10.369155 5.0695705,10.317246 4.7732356,10.046041 4.4856883,9.7828737 4.4224513,9.6698926 4.4763917,9.5156902 4.4972022,9.4561965 4.7390903,9.216564 5.1535006,8.8448911 5.5081035,8.5268577 5.7982329,8.2562859 5.7982329,8.2436197 c 0,-0.012666 -0.2963705,-0.3087156 -0.658601,-0.6578883 C 4.4382554,6.9096388 4.3974003,6.8525216 4.4887821,6.6758088 4.5150974,6.6249219 4.6571117,6.4739027 4.8043715,6.3402105 5.2264799,5.9569914 5.1553156,5.938131 6.0924274,6.6815715 L 6.8701336,7.2985496 8.4438964,5.8807109 c 0.8655692,-0.779811 1.6234766,-1.4471703 1.6842366,-1.4830207 0.181465,-0.1070664 0.297755,-0.071128 1.217858,0.3763827 0.960906,0.4673554 0.979713,0.4782297 1.06278,0.6144655 0.05959,0.097736 0.06133,0.1812424 0.06144,2.958236 1.27e-4,3.0786486 0.0074,2.9406216 -0.162121,3.0947526 -0.04058,0.03691 -0.463269,0.254859 -0.939286,0.484318 -0.962836,0.464126 -1.067638,0.4949 -1.262803,0.370828 z m 0.374186,-4.8831258 -0.0083,-0.9283011 -1.1329972,0.8486154 c -0.6231516,0.4667387 -1.1599782,0.8665909 -1.192952,0.8885598 -0.054406,0.036249 0.050404,0.1277745 1.1329981,0.9894 l 1.1929481,0.9494557 0.0084,-0.9097145 c 0.0046,-0.5003425 0.0046,-1.3274495 0,-1.8380153 z"
     id="path72" />
  <rect
     style="opacity:0.5;fill:none;fill-opacity:0.996424;stroke:url(#linearGradient9);stroke-width:0.566102;stroke-dasharray:none;stroke-opacity:1"
     id="rect1-2-6"
     width="11.574203"
     height="11.508601"
     x="2.729686"
     y="2.6615164"
     rx="2.0246315"
     ry="2.0627522" />
</svg>
