<?xml version="1.0" encoding="UTF-8" standalone="no"?>
<svg
   width="64"
   height="64"
   version="1.1"
   viewBox="0 0 16.933 16.933"
   id="svg7"
   sodipodi:docname="warpinator.svg"
   inkscape:version="1.3.2 (091e20ef0f, 2023-11-25)"
   xmlns:inkscape="http://www.inkscape.org/namespaces/inkscape"
   xmlns:sodipodi="http://sodipodi.sourceforge.net/DTD/sodipodi-0.dtd"
   xmlns:xlink="http://www.w3.org/1999/xlink"
   xmlns="http://www.w3.org/2000/svg"
   xmlns:svg="http://www.w3.org/2000/svg"
   xmlns:rdf="http://www.w3.org/1999/02/22-rdf-syntax-ns#"
   xmlns:cc="http://creativecommons.org/ns#"
   xmlns:dc="http://purl.org/dc/elements/1.1/">
  <sodipodi:namedview
     id="namedview7"
     pagecolor="#9c4444"
     bordercolor="#000000"
     borderopacity="0.25"
     inkscape:showpageshadow="2"
     inkscape:pageopacity="0.0"
     inkscape:pagecheckerboard="0"
     inkscape:deskcolor="#d1d1d1"
     inkscape:zoom="4.3531261"
     inkscape:cx="32.964816"
     inkscape:cy="24.350317"
     inkscape:window-width="1463"
     inkscape:window-height="604"
     inkscape:window-x="159"
     inkscape:window-y="240"
     inkscape:window-maximized="0"
     inkscape:current-layer="svg7"
     showgrid="false" />
  <defs
     id="defs2">
    <linearGradient
       id="linearGradient5"
       inkscape:collect="always">
      <stop
         style="stop-color:#392713;stop-opacity:1;"
         offset="0"
         id="stop2" />
      <stop
         style="stop-color:#eed59e;stop-opacity:1;"
         offset="0.5"
         id="stop3" />
      <stop
         style="stop-color:#beaa8a;stop-opacity:1;"
         offset="1"
         id="stop4" />
    </linearGradient>
    <linearGradient
       id="linearGradient8"
       inkscape:collect="always">
      <stop
         style="stop-color:#1a1a1a;stop-opacity:1;"
         offset="0"
         id="stop8" />
      <stop
         style="stop-color:#ffffff;stop-opacity:0;"
         offset="1"
         id="stop9" />
    </linearGradient>
    <linearGradient
       inkscape:collect="always"
       xlink:href="#linearGradient5"
       id="linearGradient41"
       x1="13.675659"
       y1="16.110115"
       x2="13.728528"
       y2="10.548769"
       gradientUnits="userSpaceOnUse"
       gradientTransform="matrix(2.046153,0,0,2.046153,-18.798306,-18.911347)" />
    <linearGradient
       inkscape:collect="always"
       xlink:href="#linearGradient42"
       id="linearGradient4"
       x1="11.885941"
       y1="16.50819"
       x2="12.026573"
       y2="10.244942"
       gradientUnits="userSpaceOnUse"
       gradientTransform="matrix(2.046153,0,0,2.046153,-18.798306,-18.911347)" />
    <linearGradient
       id="linearGradient42"
       inkscape:collect="always">
      <stop
         style="stop-color:#010101;stop-opacity:1;"
         offset="0"
         id="stop42" />
      <stop
         style="stop-color:#6e6c6d;stop-opacity:1;"
         offset="1"
         id="stop43" />
    </linearGradient>
    <linearGradient
       inkscape:collect="always"
       xlink:href="#linearGradient8"
       id="linearGradient9"
       x1="9.3404646"
       y1="4.1692023"
       x2="9.4279938"
       y2="16.46883"
       gradientUnits="userSpaceOnUse"
       gradientTransform="matrix(1.05,0,0,1.05,-0.50277005,-0.1977751)" />
    <filter
       style="color-interpolation-filters:sRGB;"
       inkscape:label="Blur"
       id="filter2"
       x="-0.14510849"
       y="-0.14612901"
       width="1.290217"
       height="1.292258">
      <feGaussianBlur
         stdDeviation="0.6 0.6"
         result="blur"
         id="feGaussianBlur2" />
    </filter>
    <linearGradient
       inkscape:collect="always"
       xlink:href="#linearGradient5"
       id="linearGradient6"
       x1="9.1017685"
       y1="12.362142"
       x2="8.9294138"
       y2="4.3025966"
       gradientUnits="userSpaceOnUse" />
  </defs>
  <metadata
     id="metadata2">
    <rdf:RDF>
      <cc:Work
         rdf:about="">
        <dc:format>image/svg+xml</dc:format>
        <dc:type
           rdf:resource="http://purl.org/dc/dcmitype/StillImage" />
      </cc:Work>
    </rdf:RDF>
  </metadata>
  <rect
     style="fill:#000000;fill-opacity:0.996424;stroke:#000000;stroke-width:0.911802;stroke-dasharray:none;stroke-opacity:1;filter:url(#filter2)"
     id="rect1-2-3"
     width="13.065404"
     height="12.974159"
     x="1.9816793"
     y="1.9267306"
     rx="2.7149384"
     ry="2.8310909" />
  <rect
     style="fill:url(#linearGradient4);fill-opacity:0.996424;stroke:url(#linearGradient41);stroke-width:0.911802;stroke-dasharray:none;stroke-opacity:1"
     id="rect1-2"
     width="13.065404"
     height="12.974159"
     x="1.9816793"
     y="1.9267306"
     rx="2.7149384"
     ry="2.8310909" />
  <path
     d="m 11.965019,4.7354193 c -0.526951,0 -0.960418,0.4334687 -0.960418,0.9604185 0,0.1162108 0.02113,0.2314609 0.06243,0.3403084 L 9.6788999,7.7322453 C 9.4896975,7.6563722 9.2876895,7.616995 9.0837605,7.616675 8.2424339,7.6179556 7.538127,8.2822451 7.4881852,9.1222913 L 5.1050665,9.4625995 C 4.9840538,9.3079722 4.7980527,9.2173726 4.6018072,9.2173726 c -0.3511931,0 -0.6402791,0.2890859 -0.6402791,0.6402791 0,0.3511933 0.289086,0.6402793 0.6402791,0.6402793 0.2605935,-3.21e-4 0.4962163,-0.15975 0.5935388,-0.401455 L 7.5781443,9.7564875 c 0.226979,0.6345165 0.8317228,1.0609425 1.5056162,1.0615835 0.8781428,0 1.6007005,-0.722555 1.6007005,-1.600698 -3.21e-4,-0.3118159 -0.09156,-0.6165891 -0.262517,-0.8771827 l 1.388767,-1.6976998 c 0.05091,0.00863 0.102443,0.013445 0.154308,0.013767 0.526949,0 0.960417,-0.4334689 0.960417,-0.9604187 0,-0.5269495 -0.433468,-0.9604184 -0.960417,-0.9604195 z m -5.122235,0.640279 c -0.3511932,0 -0.6402792,0.289086 -0.6402792,0.6402791 0,0.351193 0.289086,0.6402789 0.6402792,0.6402789 0.351193,0 0.640279,-0.2890859 0.640279,-0.6402789 0,-0.3511931 -0.289086,-0.6402791 -0.640279,-0.6402791 z m 5.122235,0 c 0.175755,0 0.320139,0.1443829 0.320139,0.3201395 0,0.1757565 -0.144384,0.3201396 -0.320139,0.3201396 -0.175757,0 -0.32014,-0.1443831 -0.32014,-0.3201396 0,-0.1757566 0.144383,-0.3201395 0.32014,-0.3201395 z M 7.5137963,6.5557326 7.1273879,6.8412969 7.3860607,7.2107381 7.772469,6.9251736 Z M 7.900845,7.1089337 7.5144366,7.3948182 7.8550651,7.8817504 8.2421137,7.5961861 Z M 9.0837605,8.256954 c 0.5269497,0 0.9604185,0.4334691 0.9604185,0.9604186 0,0.5269496 -0.4334687,0.9604184 -0.9604185,0.9604184 -0.5269496,0 -0.9604185,-0.4334688 -0.9604185,-0.960418 0,-0.5269499 0.4334689,-0.9604189 0.9604185,-0.960419 z M 4.6018072,9.5375123 c 0.1757566,0 0.3201396,0.1443828 0.3201396,0.3201395 0,0.1757562 -0.144383,0.3201392 -0.3201396,0.3201392 -0.1757566,0 -0.3201395,-0.144383 -0.3201395,-0.3201392 0,-0.1757567 0.1443829,-0.3201395 0.3201395,-0.3201395 z m 5.9139388,0.7715357 -0.34031,0.340308 0.438912,0.438913 0.34031,-0.34031 z m -2.3318977,0.510303 -0.3162978,0.791066 0.4539579,0.159429 0.3162978,-0.791065 z m 2.9289587,0.08676 -0.340307,0.340309 0.50774,0.50774 0.340308,-0.340307 z m 1.012281,0.552241 c -0.438912,0 -0.800349,0.361438 -0.800349,0.800349 0,0.438912 0.361437,0.800348 0.800349,0.800348 0.438911,0 0.800348,-0.361436 0.800348,-0.800348 0,-0.438911 -0.361437,-0.800349 -0.800348,-0.800349 z m -4.3218856,0.320139 c -0.351193,0 -0.6402789,0.289087 -0.6402789,0.64028 0,0.351192 0.2890859,0.640279 0.6402789,0.640279 0.3511931,0 0.6402791,-0.289087 0.6402791,-0.640279 0,-0.351193 -0.2890859,-0.64028 -0.6402791,-0.64028 z"
     fill="#ffffff"
     fill-rule="nonzero"
     id="path3-5"
     style="fill:#000000;stroke-width:0.32014;opacity:0.3" />
  <path
     d="m 11.965019,4.2062631 c -0.526951,0 -0.960418,0.4334687 -0.960418,0.9604185 0,0.1162108 0.02113,0.2314609 0.06243,0.3403084 L 9.6788999,7.2030891 C 9.4896975,7.127216 9.2876895,7.0878388 9.0837605,7.0875188 8.2424339,7.0887994 7.538127,7.7530889 7.4881852,8.5931351 L 5.1050665,8.9334433 C 4.9840538,8.778816 4.7980527,8.6882164 4.6018072,8.6882164 c -0.3511931,0 -0.6402791,0.2890859 -0.6402791,0.6402791 0,0.351193 0.289086,0.6402793 0.6402791,0.6402793 C 4.8624007,9.9684541 5.0980235,9.8090249 5.195346,9.5673196 L 7.5781443,9.2273313 c 0.226979,0.6345167 0.8317228,1.0609427 1.5056162,1.0615837 0.8781428,0 1.6007005,-0.7225556 1.6007005,-1.6006982 -3.21e-4,-0.3118159 -0.09156,-0.6165891 -0.262517,-0.8771827 l 1.388767,-1.6976998 c 0.05091,0.00863 0.102443,0.013445 0.154308,0.013767 0.526949,0 0.960417,-0.4334689 0.960417,-0.9604187 0,-0.5269495 -0.433468,-0.9604184 -0.960417,-0.9604195 z m -5.122235,0.640279 c -0.3511932,0 -0.6402792,0.289086 -0.6402792,0.6402791 0,0.351193 0.289086,0.6402789 0.6402792,0.6402789 0.351193,0 0.640279,-0.2890859 0.640279,-0.6402789 0,-0.3511931 -0.289086,-0.6402791 -0.640279,-0.6402791 z m 5.122235,0 c 0.175755,0 0.320139,0.1443829 0.320139,0.3201395 0,0.1757565 -0.144384,0.3201396 -0.320139,0.3201396 -0.175757,0 -0.32014,-0.1443831 -0.32014,-0.3201396 0,-0.1757566 0.144383,-0.3201395 0.32014,-0.3201395 z M 7.5137963,6.0265764 7.1273879,6.3121407 7.3860607,6.6815819 7.772469,6.3960174 Z M 7.900845,6.5797775 7.5144366,6.865662 7.8550651,7.3525942 8.2421137,7.0670299 Z m 1.1829155,1.1480203 c 0.5269497,0 0.9604185,0.4334691 0.9604185,0.9604186 0,0.5269496 -0.4334687,0.9604187 -0.9604185,0.9604187 -0.5269496,0 -0.9604185,-0.4334691 -0.9604185,-0.9604183 0,-0.5269499 0.4334689,-0.9604189 0.9604185,-0.960419 z M 4.6018072,9.0083561 c 0.1757566,0 0.3201396,0.1443828 0.3201396,0.3201395 0,0.1757566 -0.144383,0.3201395 -0.3201396,0.3201395 -0.1757566,0 -0.3201395,-0.1443829 -0.3201395,-0.3201395 0,-0.1757567 0.1443829,-0.3201395 0.3201395,-0.3201395 z m 5.9139388,0.7715361 -0.34031,0.3403078 0.438912,0.438913 0.34031,-0.34031 z M 8.1838483,10.290195 7.8675505,11.081261 8.3215084,11.24069 8.6378062,10.449625 Z m 2.9289587,0.08676 -0.340307,0.340309 0.50774,0.50774 0.340308,-0.340307 z m 1.012281,0.552241 c -0.438912,0 -0.800349,0.361438 -0.800349,0.800349 0,0.438912 0.361437,0.800348 0.800349,0.800348 0.438911,0 0.800348,-0.361436 0.800348,-0.800348 0,-0.438911 -0.361437,-0.800349 -0.800348,-0.800349 z m -4.3218856,0.320139 c -0.351193,0 -0.6402789,0.289087 -0.6402789,0.64028 0,0.351192 0.2890859,0.640279 0.6402789,0.640279 0.3511931,0 0.6402791,-0.289087 0.6402791,-0.640279 0,-0.351193 -0.2890859,-0.64028 -0.6402791,-0.64028 z"
     fill="#ffffff"
     fill-rule="nonzero"
     id="path3"
     style="stroke-width:0.32014;fill:url(#linearGradient6)" />
  <rect
     style="opacity:0.5;fill:none;fill-opacity:0.996424;stroke:url(#linearGradient9);stroke-width:0.566102;stroke-dasharray:none;stroke-opacity:1"
     id="rect1-2-6"
     width="11.574203"
     height="11.508601"
     x="2.729686"
     y="2.6615164"
     rx="2.0246315"
     ry="2.0627522" />
</svg>
