<?xml version="1.0" encoding="UTF-8" standalone="no"?>
<svg
   width="64"
   height="64"
   version="1.1"
   viewBox="0 0 16.933 16.933"
   id="svg7"
   sodipodi:docname="Template 4.svg"
   inkscape:version="1.3.2 (091e20ef0f, 2023-11-25)"
   xmlns:inkscape="http://www.inkscape.org/namespaces/inkscape"
   xmlns:sodipodi="http://sodipodi.sourceforge.net/DTD/sodipodi-0.dtd"
   xmlns:xlink="http://www.w3.org/1999/xlink"
   xmlns="http://www.w3.org/2000/svg"
   xmlns:svg="http://www.w3.org/2000/svg"
   xmlns:rdf="http://www.w3.org/1999/02/22-rdf-syntax-ns#"
   xmlns:cc="http://creativecommons.org/ns#"
   xmlns:dc="http://purl.org/dc/elements/1.1/">
  <sodipodi:namedview
     id="namedview7"
     pagecolor="#9c4444"
     bordercolor="#000000"
     borderopacity="0.25"
     inkscape:showpageshadow="2"
     inkscape:pageopacity="0.0"
     inkscape:pagecheckerboard="0"
     inkscape:deskcolor="#d1d1d1"
     inkscape:zoom="4.3531261"
     inkscape:cx="32.964816"
     inkscape:cy="32.620236"
     inkscape:window-width="1463"
     inkscape:window-height="604"
     inkscape:window-x="199"
     inkscape:window-y="276"
     inkscape:window-maximized="0"
     inkscape:current-layer="svg7"
     showgrid="false" />
  <defs
     id="defs2">
    <linearGradient
       id="linearGradient5"
       inkscape:collect="always">
      <stop
         style="stop-color:#392713;stop-opacity:1;"
         offset="0"
         id="stop2" />
      <stop
         style="stop-color:#eed59e;stop-opacity:1;"
         offset="0.5"
         id="stop3" />
      <stop
         style="stop-color:#beaa8a;stop-opacity:1;"
         offset="1"
         id="stop4" />
    </linearGradient>
    <linearGradient
       id="linearGradient8"
       inkscape:collect="always">
      <stop
         style="stop-color:#1a1a1a;stop-opacity:1;"
         offset="0"
         id="stop8" />
      <stop
         style="stop-color:#ffffff;stop-opacity:0;"
         offset="1"
         id="stop9" />
    </linearGradient>
    <linearGradient
       inkscape:collect="always"
       xlink:href="#linearGradient5"
       id="linearGradient41"
       x1="13.675659"
       y1="16.110115"
       x2="13.728528"
       y2="10.548769"
       gradientUnits="userSpaceOnUse"
       gradientTransform="matrix(2.046153,0,0,2.046153,-18.798306,-18.911347)" />
    <linearGradient
       inkscape:collect="always"
       xlink:href="#linearGradient42"
       id="linearGradient4"
       x1="11.885941"
       y1="16.50819"
       x2="12.026573"
       y2="10.244942"
       gradientUnits="userSpaceOnUse"
       gradientTransform="matrix(2.046153,0,0,2.046153,-18.798306,-18.911347)" />
    <linearGradient
       id="linearGradient42"
       inkscape:collect="always">
      <stop
         style="stop-color:#010101;stop-opacity:1;"
         offset="0"
         id="stop42" />
      <stop
         style="stop-color:#6e6c6d;stop-opacity:1;"
         offset="1"
         id="stop43" />
    </linearGradient>
    <linearGradient
       inkscape:collect="always"
       xlink:href="#linearGradient8"
       id="linearGradient9"
       x1="9.3404646"
       y1="4.1692023"
       x2="9.4279938"
       y2="16.46883"
       gradientUnits="userSpaceOnUse"
       gradientTransform="matrix(1.05,0,0,1.05,-0.50277005,-0.1977751)" />
    <filter
       style="color-interpolation-filters:sRGB;"
       inkscape:label="Blur"
       id="filter2"
       x="-0.14510849"
       y="-0.14612901"
       width="1.290217"
       height="1.292258">
      <feGaussianBlur
         stdDeviation="0.6 0.6"
         result="blur"
         id="feGaussianBlur2" />
    </filter>
    <linearGradient
       inkscape:collect="always"
       xlink:href="#linearGradient5"
       id="linearGradient17"
       x1="32.118385"
       y1="49.524605"
       x2="31.757427"
       y2="14.290001"
       gradientUnits="userSpaceOnUse"
       gradientTransform="matrix(0.23573911,0,0,0.23573911,0.92292868,0.79838366)" />
  </defs>
  <metadata
     id="metadata2">
    <rdf:RDF>
      <cc:Work
         rdf:about="">
        <dc:format>image/svg+xml</dc:format>
        <dc:type
           rdf:resource="http://purl.org/dc/dcmitype/StillImage" />
      </cc:Work>
    </rdf:RDF>
  </metadata>
  <rect
     style="fill:#000000;fill-opacity:0.996424;stroke:#000000;stroke-width:0.911802;stroke-dasharray:none;stroke-opacity:1;filter:url(#filter2)"
     id="rect1-2-3"
     width="13.065404"
     height="12.974159"
     x="1.9816793"
     y="1.9267306"
     rx="2.7149384"
     ry="2.8310909" />
  <rect
     style="fill:url(#linearGradient4);fill-opacity:0.996424;stroke:url(#linearGradient41);stroke-width:0.911802;stroke-dasharray:none;stroke-opacity:1"
     id="rect1-2"
     width="13.065404"
     height="12.974159"
     x="1.9816793"
     y="1.9267306"
     rx="2.7149384"
     ry="2.8310909" />
  <path
     id="path91-1"
     style="fill:#000000;fill-opacity:1;stroke-width:0.0421221;stroke-opacity:0.3;opacity:0.3"
     d="M 8.4603395,4.7093494 C 8.0828203,4.7092198 7.7035887,4.7438496 7.4342292,4.814189 6.6943843,5.0073875 6.0986742,5.344345 5.5253398,5.8929714 4.20615,7.1553086 3.8628377,9.1372968 4.680546,10.771802 c 0.5883625,1.176071 1.7445639,2.050513 3.0150217,2.280132 0.6685848,0.120839 1.4555014,0.06162 2.0978036,-0.157512 C 11.028448,12.473062 12.02807,11.464235 12.438669,10.224815 12.944344,8.6983966 12.567265,7.0959621 11.431297,5.9431121 10.910989,5.4150706 10.212437,5.0119619 9.4773332,4.8152017 9.2138584,4.7446811 8.8378583,4.7094788 8.4603395,4.7093494 Z m -0.022289,1.1648827 c 0.3508953,0.00663 0.728594,0.059273 0.99319,0.1483959 1.2834575,0.4323007 2.1443545,1.7123179 2.0537385,3.0524995 -0.05448,0.8058553 -0.317613,1.3865015 -0.88987,1.9620665 -0.320966,0.322821 -0.443417,0.41388 -0.7809777,0.580415 -0.2200866,0.10858 -0.5327085,0.224969 -0.6948779,0.258807 -0.3984094,0.08313 -1.0220795,0.0744 -1.4034309,-0.01924 C 7.5462227,11.815514 7.2437485,11.700511 7.0437355,11.601401 6.752194,11.456937 6.6085718,11.349397 6.3199915,11.058974 5.9223742,10.658816 5.7321972,10.367903 5.5785175,9.9259993 5.2007133,8.8396232 5.444824,7.6673908 6.2207225,6.842605 6.6873954,6.346529 7.2364901,6.0364517 7.8652348,5.9142441 8.0262766,5.8829427 8.2275158,5.8702534 8.4380534,5.8742329 Z m 0.00706,2.4427084 c -1.4607334,0 -1.5047791,0.0077 -1.6981971,0.2947661 -0.181976,0.2700815 -0.065363,0.6509871 0.2481703,0.8108595 0.1283088,0.065425 0.2900232,0.073439 1.4500268,0.073439 1.4577057,0 1.5061779,-0.00807 1.6946515,-0.2902078 C 10.326203,8.9267048 10.214314,8.5494705 9.8976638,8.3903794 9.7675347,8.325001 9.6042875,8.3169407 8.445105,8.3169405 Z" />
  <path
     id="path91"
     style="fill:url(#linearGradient17);fill-opacity:1;stroke-width:0.0421221;stroke-opacity:0.3"
     d="M 8.4603395,4.1801932 C 8.0828203,4.1800636 7.7035887,4.2146934 7.4342292,4.2850328 6.6943843,4.4782313 6.0986742,4.8151888 5.5253398,5.3638152 4.20615,6.6261524 3.8628377,8.6081406 4.680546,10.242646 c 0.5883625,1.176071 1.7445639,2.050513 3.0150217,2.280132 0.6685848,0.120839 1.4555014,0.06162 2.0978036,-0.157512 C 11.028448,11.943906 12.02807,10.935079 12.438669,9.6956584 12.944344,8.1692404 12.567265,6.5668059 11.431297,5.4139559 10.910989,4.8859144 10.212437,4.4828057 9.4773332,4.2860455 9.2138584,4.2155249 8.8378583,4.1803226 8.4603395,4.1801932 Z m -0.022289,1.1648827 c 0.3508953,0.00663 0.728594,0.059273 0.99319,0.1483959 1.2834575,0.4323007 2.1443545,1.7123179 2.0537385,3.0524995 -0.05448,0.8058553 -0.317613,1.3865019 -0.88987,1.9620667 -0.320966,0.322821 -0.443417,0.41388 -0.7809777,0.580415 C 9.5940447,11.197033 9.2814228,11.313422 9.1192534,11.34726 8.720844,11.43039 8.0971739,11.42166 7.7158225,11.32802 7.5462227,11.286358 7.2437485,11.171355 7.0437355,11.072245 6.752194,10.927781 6.6085718,10.820241 6.3199915,10.529818 5.9223742,10.12966 5.7321972,9.8387463 5.5785175,9.3968431 5.2007133,8.310467 5.444824,7.1382346 6.2207225,6.3134488 6.6873954,5.8173728 7.2364901,5.5072955 7.8652348,5.3850879 8.0262766,5.3537865 8.2275158,5.3410972 8.4380534,5.3450767 Z m 0.00706,2.4427084 c -1.4607334,0 -1.5047791,0.0077 -1.6981971,0.2947661 -0.181976,0.2700815 -0.065363,0.6509871 0.2481703,0.8108595 0.1283088,0.065425 0.2900232,0.073439 1.4500268,0.073439 1.4577057,0 1.5061779,-0.00807 1.6946515,-0.2902078 C 10.326203,8.3975486 10.214314,8.0203143 9.8976638,7.8612232 9.7675347,7.7958448 9.6042875,7.7877845 8.445105,7.7877843 Z" />
  <rect
     style="opacity:0.5;fill:none;fill-opacity:0.996424;stroke:url(#linearGradient9);stroke-width:0.566102;stroke-dasharray:none;stroke-opacity:1"
     id="rect1-2-6"
     width="11.574203"
     height="11.508601"
     x="2.729686"
     y="2.6615164"
     rx="2.0246315"
     ry="2.0627522" />
</svg>
