<?xml version="1.0" encoding="UTF-8" standalone="no"?>
<svg
   width="64"
   height="64"
   version="1.1"
   viewBox="0 0 16.933 16.933"
   id="svg7"
   sodipodi:docname="Template 4.svg"
   inkscape:version="1.3.2 (091e20ef0f, 2023-11-25)"
   xmlns:inkscape="http://www.inkscape.org/namespaces/inkscape"
   xmlns:sodipodi="http://sodipodi.sourceforge.net/DTD/sodipodi-0.dtd"
   xmlns:xlink="http://www.w3.org/1999/xlink"
   xmlns="http://www.w3.org/2000/svg"
   xmlns:svg="http://www.w3.org/2000/svg"
   xmlns:rdf="http://www.w3.org/1999/02/22-rdf-syntax-ns#"
   xmlns:cc="http://creativecommons.org/ns#"
   xmlns:dc="http://purl.org/dc/elements/1.1/">
  <sodipodi:namedview
     id="namedview7"
     pagecolor="#9c4444"
     bordercolor="#000000"
     borderopacity="0.25"
     inkscape:showpageshadow="2"
     inkscape:pageopacity="0.0"
     inkscape:pagecheckerboard="0"
     inkscape:deskcolor="#d1d1d1"
     inkscape:zoom="4.3531261"
     inkscape:cx="32.964816"
     inkscape:cy="32.620236"
     inkscape:window-width="1463"
     inkscape:window-height="604"
     inkscape:window-x="199"
     inkscape:window-y="276"
     inkscape:window-maximized="0"
     inkscape:current-layer="svg7"
     showgrid="false" />
  <defs
     id="defs2">
    <linearGradient
       id="linearGradient5"
       inkscape:collect="always">
      <stop
         style="stop-color:#392713;stop-opacity:1;"
         offset="0"
         id="stop2" />
      <stop
         style="stop-color:#eed59e;stop-opacity:1;"
         offset="0.5"
         id="stop3" />
      <stop
         style="stop-color:#beaa8a;stop-opacity:1;"
         offset="1"
         id="stop4" />
    </linearGradient>
    <linearGradient
       id="linearGradient8"
       inkscape:collect="always">
      <stop
         style="stop-color:#1a1a1a;stop-opacity:1;"
         offset="0"
         id="stop8" />
      <stop
         style="stop-color:#ffffff;stop-opacity:0;"
         offset="1"
         id="stop9" />
    </linearGradient>
    <linearGradient
       inkscape:collect="always"
       xlink:href="#linearGradient5"
       id="linearGradient41"
       x1="13.675659"
       y1="16.110115"
       x2="13.728528"
       y2="10.548769"
       gradientUnits="userSpaceOnUse"
       gradientTransform="matrix(2.046153,0,0,2.046153,-18.798306,-18.911347)" />
    <linearGradient
       inkscape:collect="always"
       xlink:href="#linearGradient42"
       id="linearGradient4"
       x1="11.885941"
       y1="16.50819"
       x2="12.026573"
       y2="10.244942"
       gradientUnits="userSpaceOnUse"
       gradientTransform="matrix(2.046153,0,0,2.046153,-18.798306,-18.911347)" />
    <linearGradient
       id="linearGradient42"
       inkscape:collect="always">
      <stop
         style="stop-color:#010101;stop-opacity:1;"
         offset="0"
         id="stop42" />
      <stop
         style="stop-color:#6e6c6d;stop-opacity:1;"
         offset="1"
         id="stop43" />
    </linearGradient>
    <linearGradient
       inkscape:collect="always"
       xlink:href="#linearGradient8"
       id="linearGradient9"
       x1="9.3404646"
       y1="4.1692023"
       x2="9.4279938"
       y2="16.46883"
       gradientUnits="userSpaceOnUse"
       gradientTransform="matrix(1.05,0,0,1.05,-0.50277005,-0.1977751)" />
    <filter
       style="color-interpolation-filters:sRGB;"
       inkscape:label="Blur"
       id="filter2"
       x="-0.14510849"
       y="-0.14612901"
       width="1.290217"
       height="1.292258">
      <feGaussianBlur
         stdDeviation="0.6 0.6"
         result="blur"
         id="feGaussianBlur2" />
    </filter>
    <linearGradient
       inkscape:collect="always"
       xlink:href="#linearGradient5"
       id="linearGradient19"
       x1="33.678013"
       y1="48.906879"
       x2="33.205128"
       y2="15.737343"
       gradientUnits="userSpaceOnUse"
       gradientTransform="matrix(0.23573911,0,0,0.23573911,0.92649657,0.70145523)" />
  </defs>
  <metadata
     id="metadata2">
    <rdf:RDF>
      <cc:Work
         rdf:about="">
        <dc:format>image/svg+xml</dc:format>
        <dc:type
           rdf:resource="http://purl.org/dc/dcmitype/StillImage" />
      </cc:Work>
    </rdf:RDF>
  </metadata>
  <rect
     style="fill:#000000;fill-opacity:0.996424;stroke:#000000;stroke-width:0.911802;stroke-dasharray:none;stroke-opacity:1;filter:url(#filter2)"
     id="rect1-2-3"
     width="13.065404"
     height="12.974159"
     x="1.9816793"
     y="1.9267306"
     rx="2.7149384"
     ry="2.8310909" />
  <rect
     style="fill:url(#linearGradient4);fill-opacity:0.996424;stroke:url(#linearGradient41);stroke-width:0.911802;stroke-dasharray:none;stroke-opacity:1"
     id="rect1-2"
     width="13.065404"
     height="12.974159"
     x="1.9816793"
     y="1.9267306"
     rx="2.7149384"
     ry="2.8310909" />
  <path
     id="path2-6"
     style="fill:#000000;fill-opacity:1;stroke-width:0.0421221;stroke-opacity:0.3;opacity:0.3"
     d="M 10.468125,4.8547965 C 10.26191,4.8549933 10.05719,4.9525097 9.9576025,5.14703 9.8899315,5.279201 9.8837215,5.4937334 9.8836585,7.7867558 V 10.282642 H 9.189789 8.4959239 l 0.9729301,1.263645 c 0.534945,0.695011 0.986322,1.263645 1.003321,1.263645 0.01699,0 0.469545,-0.568634 1.005342,-1.263645 l 0.973944,-1.263645 H 11.757089 11.063225 V 7.7862494 c 0,-2.3372738 -0.0049,-2.5058636 -0.07699,-2.6402321 C 10.882022,4.9516945 10.674336,4.8545997 10.46812,4.8547965 Z M 6.4264869,4.9003785 C 6.4095619,4.9067585 5.9657042,5.4709736 5.4403883,6.1544003 L 4.485184,7.3972796 5.1628423,7.4084226 5.8399937,7.4200706 V 9.905829 c 0,2.741497 -0.00373,2.699251 0.2608321,2.860545 0.1594381,0.09721 0.4622458,0.112466 0.622453,0.0314 0.057218,-0.02895 0.1472347,-0.11661 0.2000561,-0.194992 l 0.096226,-0.142315 V 9.9392563 7.4180452 h 0.6736104 c 0.3706722,0 0.6741122,-0.010387 0.6741122,-0.0233 0,-0.048804 -1.9114391,-2.5054438 -1.9407969,-2.494368 z" />
  <path
     id="path2"
     style="fill:url(#linearGradient19);fill-opacity:1;stroke-width:0.0421221;stroke-opacity:0.3"
     d="M 10.468125,4.3256403 C 10.26191,4.3258371 10.05719,4.4233535 9.9576025,4.6178738 9.8899315,4.7500448 9.8837215,4.9645772 9.8836585,7.2575996 V 9.7534858 H 9.189789 8.4959239 L 9.468854,11.017131 c 0.534945,0.695011 0.986322,1.263645 1.003321,1.263645 0.01699,0 0.469545,-0.568634 1.005342,-1.263645 L 12.451461,9.7534858 H 11.757089 11.063225 V 7.2570932 c 0,-2.3372738 -0.0049,-2.5058636 -0.07699,-2.6402321 C 10.882022,4.4225383 10.674336,4.3254435 10.46812,4.3256403 Z m -4.0416381,0.045582 c -0.016925,0.00638 -0.4607827,0.5705951 -0.9860986,1.2540218 l -0.9552043,1.2428793 0.6776583,0.011143 0.6771514,0.011648 v 2.4857584 c 0,2.7414972 -0.00373,2.6992512 0.2608321,2.8605452 0.1594381,0.09721 0.4622458,0.112466 0.622453,0.0314 0.057218,-0.02895 0.1472347,-0.11661 0.2000561,-0.194992 l 0.096226,-0.142315 V 9.4101001 6.888889 h 0.6736104 c 0.3706722,0 0.6741122,-0.010387 0.6741122,-0.0233 0,-0.048804 -1.9114391,-2.5054438 -1.9407969,-2.494368 z" />
  <rect
     style="opacity:0.5;fill:none;fill-opacity:0.996424;stroke:url(#linearGradient9);stroke-width:0.566102;stroke-dasharray:none;stroke-opacity:1"
     id="rect1-2-6"
     width="11.574203"
     height="11.508601"
     x="2.729686"
     y="2.6615164"
     rx="2.0246315"
     ry="2.0627522" />
</svg>
