<?xml version="1.0" encoding="UTF-8" standalone="no"?>
<svg
   width="64"
   height="64"
   version="1.1"
   viewBox="0 0 16.933 16.933"
   id="svg7"
   sodipodi:docname="Template 4.svg"
   inkscape:version="1.3.2 (091e20ef0f, 2023-11-25)"
   xmlns:inkscape="http://www.inkscape.org/namespaces/inkscape"
   xmlns:sodipodi="http://sodipodi.sourceforge.net/DTD/sodipodi-0.dtd"
   xmlns:xlink="http://www.w3.org/1999/xlink"
   xmlns="http://www.w3.org/2000/svg"
   xmlns:svg="http://www.w3.org/2000/svg"
   xmlns:rdf="http://www.w3.org/1999/02/22-rdf-syntax-ns#"
   xmlns:cc="http://creativecommons.org/ns#"
   xmlns:dc="http://purl.org/dc/elements/1.1/">
  <sodipodi:namedview
     id="namedview7"
     pagecolor="#9c4444"
     bordercolor="#000000"
     borderopacity="0.25"
     inkscape:showpageshadow="2"
     inkscape:pageopacity="0.0"
     inkscape:pagecheckerboard="0"
     inkscape:deskcolor="#d1d1d1"
     inkscape:zoom="4.3531261"
     inkscape:cx="32.849956"
     inkscape:cy="24.350317"
     inkscape:window-width="1356"
     inkscape:window-height="786"
     inkscape:window-x="35"
     inkscape:window-y="32"
     inkscape:window-maximized="0"
     inkscape:current-layer="svg7"
     showgrid="false" />
  <defs
     id="defs2">
    <linearGradient
       id="linearGradient5"
       inkscape:collect="always">
      <stop
         style="stop-color:#392713;stop-opacity:1;"
         offset="0"
         id="stop2" />
      <stop
         style="stop-color:#eed59e;stop-opacity:1;"
         offset="0.5"
         id="stop3" />
      <stop
         style="stop-color:#beaa8a;stop-opacity:1;"
         offset="1"
         id="stop4" />
    </linearGradient>
    <linearGradient
       id="linearGradient8"
       inkscape:collect="always">
      <stop
         style="stop-color:#1a1a1a;stop-opacity:1;"
         offset="0"
         id="stop8" />
      <stop
         style="stop-color:#ffffff;stop-opacity:0;"
         offset="1"
         id="stop9" />
    </linearGradient>
    <linearGradient
       inkscape:collect="always"
       xlink:href="#linearGradient5"
       id="linearGradient41"
       x1="13.675659"
       y1="16.110115"
       x2="13.728528"
       y2="10.548769"
       gradientUnits="userSpaceOnUse"
       gradientTransform="matrix(2.046153,0,0,2.046153,-18.798306,-18.911347)" />
    <linearGradient
       inkscape:collect="always"
       xlink:href="#linearGradient42"
       id="linearGradient4"
       x1="11.885941"
       y1="16.50819"
       x2="12.026573"
       y2="10.244942"
       gradientUnits="userSpaceOnUse"
       gradientTransform="matrix(2.046153,0,0,2.046153,-18.798306,-18.911347)" />
    <linearGradient
       id="linearGradient42"
       inkscape:collect="always">
      <stop
         style="stop-color:#010101;stop-opacity:1;"
         offset="0"
         id="stop42" />
      <stop
         style="stop-color:#6e6c6d;stop-opacity:1;"
         offset="1"
         id="stop43" />
    </linearGradient>
    <linearGradient
       inkscape:collect="always"
       xlink:href="#linearGradient8"
       id="linearGradient9"
       x1="9.3404646"
       y1="4.1692023"
       x2="9.4279938"
       y2="16.46883"
       gradientUnits="userSpaceOnUse"
       gradientTransform="matrix(1.05,0,0,1.05,-0.50277005,-0.1977751)" />
    <filter
       style="color-interpolation-filters:sRGB;"
       inkscape:label="Blur"
       id="filter2"
       x="-0.14510849"
       y="-0.14612901"
       width="1.290217"
       height="1.292258">
      <feGaussianBlur
         stdDeviation="0.6 0.6"
         result="blur"
         id="feGaussianBlur2" />
    </filter>
    <linearGradient
       inkscape:collect="always"
       xlink:href="#linearGradient5"
       id="linearGradient18"
       x1="33.83952"
       y1="43.134464"
       x2="33.687649"
       y2="21.386189"
       gradientUnits="userSpaceOnUse"
       gradientTransform="matrix(0.22277346,0,0,0.22277346,1.3498504,1.343244)" />
  </defs>
  <metadata
     id="metadata2">
    <rdf:RDF>
      <cc:Work
         rdf:about="">
        <dc:format>image/svg+xml</dc:format>
        <dc:type
           rdf:resource="http://purl.org/dc/dcmitype/StillImage" />
      </cc:Work>
    </rdf:RDF>
  </metadata>
  <rect
     style="fill:#000000;fill-opacity:0.996424;stroke:#000000;stroke-width:0.911802;stroke-dasharray:none;stroke-opacity:1;filter:url(#filter2)"
     id="rect1-2-3"
     width="13.065404"
     height="12.974159"
     x="1.9816793"
     y="1.9267306"
     rx="2.7149384"
     ry="2.8310909" />
  <rect
     style="fill:url(#linearGradient4);fill-opacity:0.996424;stroke:url(#linearGradient41);stroke-width:0.911802;stroke-dasharray:none;stroke-opacity:1"
     id="rect1-2"
     width="13.065404"
     height="12.974159"
     x="1.9816793"
     y="1.9267306"
     rx="2.7149384"
     ry="2.8310909" />
  <path
     style="fill:#000000;fill-opacity:1;fill-rule:evenodd;stroke:none;stroke-width:0.245051;stroke-dasharray:none;stroke-opacity:0.3;opacity:0.3"
     d="m 8.5047902,6.5808389 v 8.092e-4 C 7.6854596,6.589211 6.8608712,6.7651385 6.1471788,7.1458947 5.8627265,7.3203147 5.5212367,7.5455111 5.2639004,7.7724798 4.8590005,8.1456839 4.5124117,8.5807651 4.2782614,9.0685565 c 0.6418747,1.3329515 2.0526119,2.3101815 3.6049321,2.4545315 1.0182551,0.10851 2.0841109,-0.05756 2.9792075,-0.531869 0.284443,-0.17442 0.625939,-0.399616 0.883275,-0.626586 C 12.150579,9.9906184 12.497168,9.5555361 12.731318,9.06854 12.089731,7.7356656 10.678367,6.7588468 9.1263855,6.6148176 8.9201316,6.5917389 8.7118882,6.5808168 8.5047902,6.5808168 Z m 0.00166,0.8289709 C 9.4108046,7.3901612 10.211605,8.1839117 10.194588,9.0661334 10.223633,10.041188 9.2332631,10.882679 8.2539102,10.700596 7.2648334,10.5867 6.5698366,9.4981671 6.8951478,8.5763594 7.1031378,7.8981822 7.7825237,7.4026714 8.5073373,7.4106201 Z m -0.00166,0.8289701 A 0.84530523,0.82849351 0 0 0 7.6594847,9.0685613 0.84530523,0.82849351 0 0 0 8.5047902,9.8967224 0.84530523,0.82849351 0 0 0 9.3500961,9.0685613 0.84530523,0.82849351 0 0 0 8.5047902,8.2412085 Z"
     id="path24-1" />
  <path
     style="fill:url(#linearGradient18);fill-opacity:1;fill-rule:evenodd;stroke:none;stroke-width:0.245051;stroke-dasharray:none;stroke-opacity:0.3"
     d="m 8.5047902,6.0516827 v 8.092e-4 C 7.6854596,6.0600548 6.8608712,6.2359823 6.1471788,6.6167385 5.8627265,6.7911585 5.5212367,7.0163549 5.2639004,7.2433236 4.8590005,7.6165277 4.5124117,8.0516089 4.2782614,8.5394003 c 0.6418747,1.3329516 2.0526119,2.3101817 3.6049321,2.4545317 1.0182551,0.10851 2.0841109,-0.05756 2.9792075,-0.531869 0.284443,-0.17442 0.625939,-0.399616 0.883275,-0.6265866 C 12.150579,9.4614622 12.497168,9.0263799 12.731318,8.5393838 12.089731,7.2065094 10.678367,6.2296906 9.1263855,6.0856614 8.9201316,6.0625827 8.7118882,6.0516606 8.5047902,6.0516606 Z m 0.00166,0.8289709 C 9.4108046,6.861005 10.211605,7.6547555 10.194588,8.5369772 10.223633,9.5120313 9.2332631,10.353523 8.2539102,10.17144 7.2648334,10.057544 6.5698366,8.9690109 6.8951478,8.0472032 7.1031378,7.369026 7.7825237,6.8735152 8.5073373,6.8814639 Z m -0.00166,0.8289701 A 0.84530523,0.82849351 0 0 0 7.6594847,8.5394051 0.84530523,0.82849351 0 0 0 8.5047902,9.3675662 0.84530523,0.82849351 0 0 0 9.3500961,8.5394051 0.84530523,0.82849351 0 0 0 8.5047902,7.7120523 Z"
     id="path24" />
  <rect
     style="opacity:0.5;fill:none;fill-opacity:0.996424;stroke:url(#linearGradient9);stroke-width:0.566102;stroke-dasharray:none;stroke-opacity:1"
     id="rect1-2-6"
     width="11.574203"
     height="11.508601"
     x="2.729686"
     y="2.6615164"
     rx="2.0246315"
     ry="2.0627522" />
</svg>
