<?xml version="1.0" encoding="UTF-8" standalone="no"?>
<svg
   width="64"
   height="64"
   version="1.1"
   viewBox="0 0 16.933 16.933"
   id="svg7"
   sodipodi:docname="Template 4.svg"
   inkscape:version="1.3.2 (091e20ef0f, 2023-11-25)"
   xmlns:inkscape="http://www.inkscape.org/namespaces/inkscape"
   xmlns:sodipodi="http://sodipodi.sourceforge.net/DTD/sodipodi-0.dtd"
   xmlns:xlink="http://www.w3.org/1999/xlink"
   xmlns="http://www.w3.org/2000/svg"
   xmlns:svg="http://www.w3.org/2000/svg"
   xmlns:rdf="http://www.w3.org/1999/02/22-rdf-syntax-ns#"
   xmlns:cc="http://creativecommons.org/ns#"
   xmlns:dc="http://purl.org/dc/elements/1.1/">
  <sodipodi:namedview
     id="namedview7"
     pagecolor="#9c4444"
     bordercolor="#000000"
     borderopacity="0.25"
     inkscape:showpageshadow="2"
     inkscape:pageopacity="0.0"
     inkscape:pagecheckerboard="0"
     inkscape:deskcolor="#d1d1d1"
     inkscape:zoom="4.3531261"
     inkscape:cx="32.964816"
     inkscape:cy="32.620236"
     inkscape:window-width="1463"
     inkscape:window-height="604"
     inkscape:window-x="199"
     inkscape:window-y="276"
     inkscape:window-maximized="0"
     inkscape:current-layer="svg7"
     showgrid="false" />
  <defs
     id="defs2">
    <linearGradient
       id="linearGradient5"
       inkscape:collect="always">
      <stop
         style="stop-color:#392713;stop-opacity:1;"
         offset="0"
         id="stop2" />
      <stop
         style="stop-color:#eed59e;stop-opacity:1;"
         offset="0.5"
         id="stop3" />
      <stop
         style="stop-color:#beaa8a;stop-opacity:1;"
         offset="1"
         id="stop4" />
    </linearGradient>
    <linearGradient
       id="linearGradient8"
       inkscape:collect="always">
      <stop
         style="stop-color:#1a1a1a;stop-opacity:1;"
         offset="0"
         id="stop8" />
      <stop
         style="stop-color:#ffffff;stop-opacity:0;"
         offset="1"
         id="stop9" />
    </linearGradient>
    <linearGradient
       inkscape:collect="always"
       xlink:href="#linearGradient5"
       id="linearGradient41"
       x1="13.675659"
       y1="16.110115"
       x2="13.728528"
       y2="10.548769"
       gradientUnits="userSpaceOnUse"
       gradientTransform="matrix(2.046153,0,0,2.046153,-18.798306,-18.911347)" />
    <linearGradient
       inkscape:collect="always"
       xlink:href="#linearGradient42"
       id="linearGradient4"
       x1="11.885941"
       y1="16.50819"
       x2="12.026573"
       y2="10.244942"
       gradientUnits="userSpaceOnUse"
       gradientTransform="matrix(2.046153,0,0,2.046153,-18.798306,-18.911347)" />
    <linearGradient
       id="linearGradient42"
       inkscape:collect="always">
      <stop
         style="stop-color:#010101;stop-opacity:1;"
         offset="0"
         id="stop42" />
      <stop
         style="stop-color:#6e6c6d;stop-opacity:1;"
         offset="1"
         id="stop43" />
    </linearGradient>
    <linearGradient
       inkscape:collect="always"
       xlink:href="#linearGradient8"
       id="linearGradient9"
       x1="9.3404646"
       y1="4.1692023"
       x2="9.4279938"
       y2="16.46883"
       gradientUnits="userSpaceOnUse"
       gradientTransform="matrix(1.05,0,0,1.05,-0.50277005,-0.1977751)" />
    <filter
       style="color-interpolation-filters:sRGB;"
       inkscape:label="Blur"
       id="filter2"
       x="-0.14510849"
       y="-0.14612901"
       width="1.290217"
       height="1.292258">
      <feGaussianBlur
         stdDeviation="0.6 0.6"
         result="blur"
         id="feGaussianBlur2" />
    </filter>
    <linearGradient
       inkscape:collect="always"
       xlink:href="#linearGradient5"
       id="linearGradient7"
       x1="35.358089"
       y1="48.292912"
       x2="35.16312"
       y2="16.176815"
       gradientUnits="userSpaceOnUse"
       gradientTransform="matrix(0.23573911,0,0,0.23573911,0.90977136,0.75841764)" />
  </defs>
  <metadata
     id="metadata2">
    <rdf:RDF>
      <cc:Work
         rdf:about="">
        <dc:format>image/svg+xml</dc:format>
        <dc:type
           rdf:resource="http://purl.org/dc/dcmitype/StillImage" />
      </cc:Work>
    </rdf:RDF>
  </metadata>
  <rect
     style="fill:#000000;fill-opacity:0.996424;stroke:#000000;stroke-width:0.911802;stroke-dasharray:none;stroke-opacity:1;filter:url(#filter2)"
     id="rect1-2-3"
     width="13.065404"
     height="12.974159"
     x="1.9816793"
     y="1.9267306"
     rx="2.7149384"
     ry="2.8310909" />
  <rect
     style="fill:url(#linearGradient4);fill-opacity:0.996424;stroke:url(#linearGradient41);stroke-width:0.911802;stroke-dasharray:none;stroke-opacity:1"
     id="rect1-2"
     width="13.065404"
     height="12.974159"
     x="1.9816793"
     y="1.9267306"
     rx="2.7149384"
     ry="2.8310909" />
  <path
     d="m 5.0588957,5.0039107 v 0.00196 1.5239594 1.5239592 1.5239598 0.5047879 1.01917 0.251435 0.253354 a 0.94656213,1.0172527 0 0 0 0.9447765,1.01533 H 5.7554231 l 0.016073,0.002 h 0.709028 1.4180571 1.4180567 1.4180571 1.418058 V 11.099803 H 10.734696 9.3166393 8.4165128 L 9.1969795,10.616129 10.423938,9.8541493 11.652683,9.09217 10.943654,7.7735797 9.7149094,8.5355593 8.4879514,9.2975398 7.7110556,9.7792948 8.1593337,8.9443797 8.8683619,7.6257899 9.5773902,6.305281 8.3450739,5.5413824 7.6360454,6.8618913 6.9270167,8.180481 6.4769534,9.0192346 V 8.0518827 6.5279232 5.0039634 Z m 0.9447765,6.0939183 c 0.1250169,0 0.244678,0.05374 0.3339754,0.14779 0.089299,0.09405 0.1375189,0.224562 0.1375189,0.358917 0,0.134354 -0.050007,0.26295 -0.1375189,0.358917 -0.087512,0.09596 -0.2089585,0.147789 -0.3339754,0.147789 -0.1250173,0 -0.244678,-0.05374 -0.333976,-0.147789 -0.089298,-0.09405 -0.1375191,-0.224563 -0.1375191,-0.358917 0,-0.134355 0.050008,-0.262949 0.1375191,-0.358917 0.087512,-0.09596 0.2089587,-0.14779 0.333976,-0.14779 z"
     fill="#bebebe"
     id="path2-3-9"
     style="fill:#000000;fill-opacity:1;stroke:none;stroke-width:0.254153;stroke-dasharray:none;stroke-opacity:0.3;opacity:0.3" />
  <path
     d="m 5.0588957,4.4747545 v 0.00196 1.5239594 1.5239591 1.5239598 0.5047875 1.0191707 0.251435 0.253354 a 0.94656213,1.0172527 0 0 0 0.9447765,1.01533 H 5.7554231 l 0.016073,0.002 h 0.709028 1.4180571 1.4180567 1.4180571 1.418058 V 10.570647 H 10.734696 9.3166393 8.4165128 L 9.1969795,10.086973 10.423938,9.3249931 11.652683,8.5630138 10.943654,7.2444235 9.7149094,8.0064031 8.4879514,8.7683836 7.7110556,9.2501386 8.1593337,8.4152235 8.8683619,7.0966337 9.5773902,5.7761248 8.3450739,5.0122262 7.6360454,6.3327351 6.9270167,7.6513248 6.4769534,8.4900784 V 7.5227265 5.998767 4.4748072 Z m 0.9447765,6.0939185 c 0.1250169,0 0.244678,0.05374 0.3339754,0.14779 0.089299,0.09405 0.1375189,0.224562 0.1375189,0.358917 0,0.134354 -0.050007,0.26295 -0.1375189,0.358917 -0.087512,0.09596 -0.2089585,0.147789 -0.3339754,0.147789 -0.1250173,0 -0.244678,-0.05374 -0.333976,-0.147789 -0.089298,-0.09405 -0.1375191,-0.224563 -0.1375191,-0.358917 0,-0.134355 0.050008,-0.262949 0.1375191,-0.358917 0.087512,-0.09596 0.2089587,-0.14779 0.333976,-0.14779 z"
     fill="#bebebe"
     id="path2-3"
     style="fill:url(#linearGradient7);fill-opacity:1;stroke:none;stroke-width:0.254153;stroke-dasharray:none;stroke-opacity:0.3" />
  <rect
     style="opacity:0.5;fill:none;fill-opacity:0.996424;stroke:url(#linearGradient9);stroke-width:0.566102;stroke-dasharray:none;stroke-opacity:1"
     id="rect1-2-6"
     width="11.574203"
     height="11.508601"
     x="2.729686"
     y="2.6615164"
     rx="2.0246315"
     ry="2.0627522" />
</svg>
