<?xml version="1.0" encoding="UTF-8" standalone="no"?>
<svg
   width="64"
   height="64"
   version="1.1"
   viewBox="0 0 16.933 16.933"
   id="svg7"
   sodipodi:docname="Template 4.svg"
   inkscape:version="1.3.2 (091e20ef0f, 2023-11-25)"
   xmlns:inkscape="http://www.inkscape.org/namespaces/inkscape"
   xmlns:sodipodi="http://sodipodi.sourceforge.net/DTD/sodipodi-0.dtd"
   xmlns:xlink="http://www.w3.org/1999/xlink"
   xmlns="http://www.w3.org/2000/svg"
   xmlns:svg="http://www.w3.org/2000/svg"
   xmlns:rdf="http://www.w3.org/1999/02/22-rdf-syntax-ns#"
   xmlns:cc="http://creativecommons.org/ns#"
   xmlns:dc="http://purl.org/dc/elements/1.1/">
  <sodipodi:namedview
     id="namedview7"
     pagecolor="#9c4444"
     bordercolor="#000000"
     borderopacity="0.25"
     inkscape:showpageshadow="2"
     inkscape:pageopacity="0.0"
     inkscape:pagecheckerboard="0"
     inkscape:deskcolor="#d1d1d1"
     inkscape:zoom="4.3531261"
     inkscape:cx="32.964816"
     inkscape:cy="32.620236"
     inkscape:window-width="1463"
     inkscape:window-height="604"
     inkscape:window-x="199"
     inkscape:window-y="276"
     inkscape:window-maximized="0"
     inkscape:current-layer="svg7"
     showgrid="false" />
  <defs
     id="defs2">
    <linearGradient
       id="linearGradient5"
       inkscape:collect="always">
      <stop
         style="stop-color:#392713;stop-opacity:1;"
         offset="0"
         id="stop2" />
      <stop
         style="stop-color:#eed59e;stop-opacity:1;"
         offset="0.5"
         id="stop3" />
      <stop
         style="stop-color:#beaa8a;stop-opacity:1;"
         offset="1"
         id="stop4" />
    </linearGradient>
    <linearGradient
       id="linearGradient8"
       inkscape:collect="always">
      <stop
         style="stop-color:#1a1a1a;stop-opacity:1;"
         offset="0"
         id="stop8" />
      <stop
         style="stop-color:#ffffff;stop-opacity:0;"
         offset="1"
         id="stop9" />
    </linearGradient>
    <linearGradient
       inkscape:collect="always"
       xlink:href="#linearGradient5"
       id="linearGradient41"
       x1="13.675659"
       y1="16.110115"
       x2="13.728528"
       y2="10.548769"
       gradientUnits="userSpaceOnUse"
       gradientTransform="matrix(2.046153,0,0,2.046153,-18.798306,-18.911347)" />
    <linearGradient
       inkscape:collect="always"
       xlink:href="#linearGradient42"
       id="linearGradient4"
       x1="11.885941"
       y1="16.50819"
       x2="12.026573"
       y2="10.244942"
       gradientUnits="userSpaceOnUse"
       gradientTransform="matrix(2.046153,0,0,2.046153,-18.798306,-18.911347)" />
    <linearGradient
       id="linearGradient42"
       inkscape:collect="always">
      <stop
         style="stop-color:#010101;stop-opacity:1;"
         offset="0"
         id="stop42" />
      <stop
         style="stop-color:#6e6c6d;stop-opacity:1;"
         offset="1"
         id="stop43" />
    </linearGradient>
    <linearGradient
       inkscape:collect="always"
       xlink:href="#linearGradient8"
       id="linearGradient9"
       x1="9.3404646"
       y1="4.1692023"
       x2="9.4279938"
       y2="16.46883"
       gradientUnits="userSpaceOnUse"
       gradientTransform="matrix(1.05,0,0,1.05,-0.50277005,-0.1977751)" />
    <filter
       style="color-interpolation-filters:sRGB;"
       inkscape:label="Blur"
       id="filter2"
       x="-0.14510849"
       y="-0.14612901"
       width="1.290217"
       height="1.292258">
      <feGaussianBlur
         stdDeviation="0.6 0.6"
         result="blur"
         id="feGaussianBlur2" />
    </filter>
    <linearGradient
       inkscape:collect="always"
       xlink:href="#linearGradient5"
       id="linearGradient23"
       x1="32.582058"
       y1="49.635757"
       x2="32.958344"
       y2="14.526894"
       gradientUnits="userSpaceOnUse"
       gradientTransform="matrix(0.23573911,0,0,0.23573911,0.95262026,0.86841124)" />
  </defs>
  <metadata
     id="metadata2">
    <rdf:RDF>
      <cc:Work
         rdf:about="">
        <dc:format>image/svg+xml</dc:format>
        <dc:type
           rdf:resource="http://purl.org/dc/dcmitype/StillImage" />
      </cc:Work>
    </rdf:RDF>
  </metadata>
  <rect
     style="fill:#000000;fill-opacity:0.996424;stroke:#000000;stroke-width:0.911802;stroke-dasharray:none;stroke-opacity:1;filter:url(#filter2)"
     id="rect1-2-3"
     width="13.065404"
     height="12.974159"
     x="1.9816793"
     y="1.9267306"
     rx="2.7149384"
     ry="2.8310909" />
  <rect
     style="fill:url(#linearGradient4);fill-opacity:0.996424;stroke:url(#linearGradient41);stroke-width:0.911802;stroke-dasharray:none;stroke-opacity:1"
     id="rect1-2"
     width="13.065404"
     height="12.974159"
     x="1.9816793"
     y="1.9267306"
     rx="2.7149384"
     ry="2.8310909" />
  <path
     id="rect3-7"
     style="fill:#000000;fill-opacity:1;stroke:none;stroke-width:0.25672;stroke-dasharray:none;stroke-opacity:0.3;opacity:0.3"
     d="m 4.9234601,4.7846536 c -0.3263627,0 -0.5891521,0.2627897 -0.5891521,0.5891522 v 2.3566086 c 0,0.3263625 0.2627894,0.5891518 0.5891521,0.5891518 h 2.3566086 c 0.3263625,0 0.5891519,-0.2627893 0.5891519,-0.5891518 V 5.3738058 c 0,-0.3263625 -0.2627894,-0.5891522 -0.5891519,-0.5891522 z m 4.7824108,0 c -0.3263624,0 -0.5891518,0.2627897 -0.5891518,0.5891522 v 2.3566086 c 0,0.3263625 0.2627894,0.5891518 0.5891518,0.5891518 H 12.06248 c 0.326361,0 0.589152,-0.2627893 0.589152,-0.5891518 V 5.3738058 c 0,-0.3263625 -0.262791,-0.5891522 -0.589152,-0.5891522 z M 4.9234601,9.5670645 c -0.3263627,0 -0.5891521,0.2627897 -0.5891521,0.5891525 v 2.356607 c 0,0.326363 0.2627894,0.589153 0.5891521,0.589153 h 2.3566086 c 0.3263625,0 0.5891519,-0.26279 0.5891519,-0.589153 v -2.356607 c 0,-0.3263628 -0.2627894,-0.5891525 -0.5891519,-0.5891525 z m 5.9607159,0 c -0.288001,0 -0.519958,0.2650221 -0.519958,0.5941665 V 11.23073 H 9.3694273 a 0.25253816,0.23396499 0 0 0 -0.1785004,0.399119 l 1.5147491,1.403935 a 0.25253816,0.23396499 0 0 0 0.356999,0 l 1.51525,-1.403935 a 0.25253816,0.23396499 0 0 0 -0.1785,-0.399119 h -0.995292 v -1.069499 c 0,-0.3291445 -0.231957,-0.5941665 -0.519957,-0.5941665 z" />
  <path
     id="rect3"
     style="fill:url(#linearGradient23);fill-opacity:1;stroke:none;stroke-width:0.25672;stroke-dasharray:none;stroke-opacity:0.3"
     d="m 4.9234601,4.2552304 c -0.3263627,0 -0.5891521,0.2627897 -0.5891521,0.5891522 v 2.3566086 c 0,0.3263625 0.2627894,0.5891518 0.5891521,0.5891518 h 2.3566086 c 0.3263625,0 0.5891519,-0.2627893 0.5891519,-0.5891518 V 4.8443826 c 0,-0.3263625 -0.2627894,-0.5891522 -0.5891519,-0.5891522 z m 4.7824108,0 c -0.3263624,0 -0.5891518,0.2627897 -0.5891518,0.5891522 v 2.3566086 c 0,0.3263625 0.2627894,0.5891518 0.5891518,0.5891518 H 12.06248 c 0.326361,0 0.589152,-0.2627893 0.589152,-0.5891518 V 4.8443826 c 0,-0.3263625 -0.262791,-0.5891522 -0.589152,-0.5891522 z M 4.9234601,9.0376413 c -0.3263627,0 -0.5891521,0.2627897 -0.5891521,0.5891521 v 2.3566076 c 0,0.326363 0.2627894,0.589153 0.5891521,0.589153 h 2.3566086 c 0.3263625,0 0.5891519,-0.26279 0.5891519,-0.589153 V 9.6267934 c 0,-0.3263624 -0.2627894,-0.5891521 -0.5891519,-0.5891521 z m 5.9607159,0 c -0.288001,0 -0.519958,0.2650221 -0.519958,0.594166 V 10.701307 H 9.3694273 a 0.25253816,0.23396499 0 0 0 -0.1785004,0.399119 l 1.5147491,1.403935 a 0.25253816,0.23396499 0 0 0 0.356999,0 l 1.51525,-1.403935 a 0.25253816,0.23396499 0 0 0 -0.1785,-0.399119 H 11.404133 V 9.6318073 c 0,-0.329144 -0.231957,-0.594166 -0.519957,-0.594166 z" />
  <rect
     style="opacity:0.5;fill:none;fill-opacity:0.996424;stroke:url(#linearGradient9);stroke-width:0.566102;stroke-dasharray:none;stroke-opacity:1"
     id="rect1-2-6"
     width="11.574203"
     height="11.508601"
     x="2.729686"
     y="2.6615164"
     rx="2.0246315"
     ry="2.0627522" />
</svg>
