<?xml version="1.0" encoding="UTF-8" standalone="no"?>
<svg
   width="64"
   height="64"
   version="1.1"
   viewBox="0 0 16.933 16.933"
   id="svg7"
   sodipodi:docname="Template 4.svg"
   inkscape:version="1.3.2 (091e20ef0f, 2023-11-25)"
   xmlns:inkscape="http://www.inkscape.org/namespaces/inkscape"
   xmlns:sodipodi="http://sodipodi.sourceforge.net/DTD/sodipodi-0.dtd"
   xmlns:xlink="http://www.w3.org/1999/xlink"
   xmlns="http://www.w3.org/2000/svg"
   xmlns:svg="http://www.w3.org/2000/svg"
   xmlns:rdf="http://www.w3.org/1999/02/22-rdf-syntax-ns#"
   xmlns:cc="http://creativecommons.org/ns#"
   xmlns:dc="http://purl.org/dc/elements/1.1/">
  <sodipodi:namedview
     id="namedview7"
     pagecolor="#9c4444"
     bordercolor="#000000"
     borderopacity="0.25"
     inkscape:showpageshadow="2"
     inkscape:pageopacity="0.0"
     inkscape:pagecheckerboard="0"
     inkscape:deskcolor="#d1d1d1"
     inkscape:zoom="4.3531261"
     inkscape:cx="32.964816"
     inkscape:cy="24.350317"
     inkscape:window-width="1463"
     inkscape:window-height="604"
     inkscape:window-x="199"
     inkscape:window-y="276"
     inkscape:window-maximized="0"
     inkscape:current-layer="svg7"
     showgrid="false" />
  <defs
     id="defs2">
    <linearGradient
       id="linearGradient5"
       inkscape:collect="always">
      <stop
         style="stop-color:#392713;stop-opacity:1;"
         offset="0"
         id="stop2" />
      <stop
         style="stop-color:#eed59e;stop-opacity:1;"
         offset="0.5"
         id="stop3" />
      <stop
         style="stop-color:#beaa8a;stop-opacity:1;"
         offset="1"
         id="stop4" />
    </linearGradient>
    <linearGradient
       id="linearGradient8"
       inkscape:collect="always">
      <stop
         style="stop-color:#1a1a1a;stop-opacity:1;"
         offset="0"
         id="stop8" />
      <stop
         style="stop-color:#ffffff;stop-opacity:0;"
         offset="1"
         id="stop9" />
    </linearGradient>
    <linearGradient
       inkscape:collect="always"
       xlink:href="#linearGradient5"
       id="linearGradient41"
       x1="13.675659"
       y1="16.110115"
       x2="13.728528"
       y2="10.548769"
       gradientUnits="userSpaceOnUse"
       gradientTransform="matrix(2.046153,0,0,2.046153,-18.798306,-18.911347)" />
    <linearGradient
       inkscape:collect="always"
       xlink:href="#linearGradient42"
       id="linearGradient4"
       x1="11.885941"
       y1="16.50819"
       x2="12.026573"
       y2="10.244942"
       gradientUnits="userSpaceOnUse"
       gradientTransform="matrix(2.046153,0,0,2.046153,-18.798306,-18.911347)" />
    <linearGradient
       id="linearGradient42"
       inkscape:collect="always">
      <stop
         style="stop-color:#010101;stop-opacity:1;"
         offset="0"
         id="stop42" />
      <stop
         style="stop-color:#6e6c6d;stop-opacity:1;"
         offset="1"
         id="stop43" />
    </linearGradient>
    <linearGradient
       inkscape:collect="always"
       xlink:href="#linearGradient8"
       id="linearGradient9"
       x1="9.3404646"
       y1="4.1692023"
       x2="9.4279938"
       y2="16.46883"
       gradientUnits="userSpaceOnUse"
       gradientTransform="matrix(1.05,0,0,1.05,-0.50277005,-0.1977751)" />
    <filter
       style="color-interpolation-filters:sRGB;"
       inkscape:label="Blur"
       id="filter2"
       x="-0.14510849"
       y="-0.14612901"
       width="1.290217"
       height="1.292258">
      <feGaussianBlur
         stdDeviation="0.6 0.6"
         result="blur"
         id="feGaussianBlur2" />
    </filter>
    <linearGradient
       inkscape:collect="always"
       xlink:href="#linearGradient5"
       id="linearGradient41-7"
       x1="32.083572"
       y1="50.316032"
       x2="32.588718"
       y2="13.928668"
       gradientUnits="userSpaceOnUse"
       gradientTransform="matrix(0.23573911,0,0,0.23573911,0.93524712,0.77968277)" />
  </defs>
  <metadata
     id="metadata2">
    <rdf:RDF>
      <cc:Work
         rdf:about="">
        <dc:format>image/svg+xml</dc:format>
        <dc:type
           rdf:resource="http://purl.org/dc/dcmitype/StillImage" />
      </cc:Work>
    </rdf:RDF>
  </metadata>
  <rect
     style="fill:#000000;fill-opacity:0.996424;stroke:#000000;stroke-width:0.911802;stroke-dasharray:none;stroke-opacity:1;filter:url(#filter2)"
     id="rect1-2-3"
     width="13.065404"
     height="12.974159"
     x="1.9816793"
     y="1.9267306"
     rx="2.7149384"
     ry="2.8310909" />
  <rect
     style="fill:url(#linearGradient4);fill-opacity:0.996424;stroke:url(#linearGradient41);stroke-width:0.911802;stroke-dasharray:none;stroke-opacity:1"
     id="rect1-2"
     width="13.065404"
     height="12.974159"
     x="1.9816793"
     y="1.9267306"
     rx="2.7149384"
     ry="2.8310909" />
  <path
     id="path14-6"
     style="fill:#000000;fill-opacity:1;stroke-width:0.0463342;stroke-opacity:0.3;opacity:0.3"
     d="m 7.4742338,4.5759077 c -0.8383376,0.00829 -0.9116362,0.060799 -1.0367976,0.2518175 -0.1120812,0.1710563 -0.1084394,0.4478345 0.00776,0.5777316 0.050391,0.056308 0.1696237,0.1520953 0.2651883,0.2128186 L 6.8842029,5.728585 v 0.7682653 c 0,0.6774821 -0.010135,0.7829471 -0.086907,0.8913885 -0.1887726,0.2665558 -1.9462162,3.4769452 -2.016209,3.6831052 -0.040991,0.12072 -0.074649,0.363864 -0.074649,0.540404 0,0.737185 0.4680626,1.384787 1.1526771,1.595586 0.1734332,0.05341 0.6773757,0.06648 2.6307126,0.06908 2.3282384,0.0032 2.4274894,1.46e-4 2.7309924,-0.09359 0.265991,-0.08215 0.358981,-0.141508 0.599459,-0.382184 0.373454,-0.373763 0.500822,-0.685053 0.501962,-1.224544 8.1e-4,-0.382974 6.84e-4,-0.382928 -0.329813,-1.042367 C 11.810668,10.170998 11.429584,9.4780434 11.14564,8.9938523 10.861695,8.5096615 10.527147,7.9240698 10.401888,7.692425 L 10.174026,7.2712441 V 6.5024212 5.7335992 l 0.197219,-0.1309229 c 0.108901,-0.072465 0.235304,-0.2101562 0.283018,-0.3075293 0.07677,-0.1566815 0.07902,-0.1938897 0.02284,-0.341513 C 10.64238,4.8623902 10.555127,4.7438219 10.483231,4.6901175 10.356459,4.5954209 10.299994,4.5920241 8.5979438,4.579251 c -0.4796922,-0.0036 -0.8442621,-0.0061 -1.1237075,-0.00334 z m 0.475779,1.0590816 h 0.5794024 0.5788462 v 0.9342862 0.9342871 l 0.2958291,0.559903 C 9.5666,8.3713914 9.9341846,9.0194245 10.221383,9.5036157 c 0.775282,1.3070603 1.064653,1.8816293 1.064653,2.1137033 0,0.228731 -0.130841,0.461798 -0.31143,0.554332 -0.105137,0.05387 -0.529444,0.0672 -2.3293099,0.07354 -1.2104779,0.0043 -2.2932808,-0.01067 -2.4056359,-0.03342 C 6.127304,12.18903 5.987708,12.125056 5.928788,12.069704 5.7911383,11.940387 5.7083232,11.688977 5.7443818,11.508685 5.7795495,11.332831 7.3616382,8.4442699 7.8101754,7.7369988 L 7.9500128,7.516376 V 6.5754039 Z M 7.5561303,9.4791018 6.9655842,10.54264 c -0.3249166,0.584866 -0.5911017,1.074784 -0.5911017,1.089164 0,0.01438 0.9709215,0.02619 2.1571614,0.02619 H 10.688248 L 10.526684,11.36885 C 10.437805,11.209576 10.167932,10.724606 9.9266669,10.291383 L 9.4876586,9.5036166 8.5221724,9.4913582 Z" />
  <path
     id="path14"
     style="fill:url(#linearGradient41-7);fill-opacity:1;stroke-width:0.0463342;stroke-opacity:0.3"
     d="M 7.4742338,4.0467515 C 6.6358962,4.0550405 6.5625976,4.107551 6.4374362,4.298569 6.325355,4.4696253 6.3289968,4.7464035 6.4451942,4.8763006 c 0.050391,0.056308 0.1696237,0.1520953 0.2651883,0.2128186 l 0.1738204,0.1103096 v 0.7682653 c 0,0.6774821 -0.010135,0.7829471 -0.086907,0.8913885 -0.1887726,0.2665558 -1.9462162,3.4769454 -2.016209,3.6831054 -0.040991,0.12072 -0.074649,0.363864 -0.074649,0.540404 0,0.737185 0.4680626,1.384787 1.1526771,1.595586 0.1734332,0.05341 0.6773757,0.06648 2.6307126,0.06908 2.3282384,0.0032 2.4274894,1.46e-4 2.7309924,-0.09359 0.265991,-0.08215 0.358981,-0.141508 0.599459,-0.382184 0.373454,-0.373763 0.500822,-0.685053 0.501962,-1.224544 8.1e-4,-0.382974 6.84e-4,-0.382928 -0.329813,-1.042367 C 11.810668,9.6418421 11.429584,8.9488872 11.14564,8.4646961 10.861695,7.9805053 10.527147,7.3949136 10.401888,7.1632688 L 10.174026,6.7420879 V 5.973265 5.204443 l 0.197219,-0.1309229 c 0.108901,-0.072465 0.235304,-0.2101562 0.283018,-0.3075293 0.07677,-0.1566815 0.07902,-0.1938897 0.02284,-0.341513 C 10.64238,4.333234 10.555127,4.2146657 10.483231,4.1609613 10.356459,4.0662647 10.299994,4.0628679 8.5979438,4.0500948 8.1182516,4.0464927 7.7536817,4.0439915 7.4742363,4.046752 Z m 0.475779,1.0590816 h 0.5794024 0.5788462 v 0.9342862 0.9342871 l 0.2958291,0.559903 C 9.5666,7.8422352 9.9341846,8.4902683 10.221383,8.9744595 c 0.775282,1.3070605 1.064653,1.8816295 1.064653,2.1137035 0,0.228731 -0.130841,0.461798 -0.31143,0.554332 -0.105137,0.05387 -0.529444,0.0672 -2.3293099,0.07354 -1.2104779,0.0043 -2.2932808,-0.01067 -2.4056359,-0.03342 C 6.127304,11.659874 5.987708,11.5959 5.928788,11.540548 5.7911383,11.411231 5.7083232,11.159821 5.7443818,10.979529 5.7795495,10.803675 7.3616382,7.9151137 7.8101754,7.2078426 L 7.9500128,6.9872198 V 6.0462477 Z M 7.5561303,8.9499456 6.9655842,10.013484 c -0.3249166,0.584866 -0.5911017,1.074784 -0.5911017,1.089164 0,0.01438 0.9709215,0.02619 2.1571614,0.02619 H 10.688248 L 10.526684,10.839694 C 10.437805,10.68042 10.167932,10.19545 9.9266669,9.7622271 L 9.4876586,8.9744604 8.5221724,8.962202 Z" />
  <rect
     style="opacity:0.5;fill:none;fill-opacity:0.996424;stroke:url(#linearGradient9);stroke-width:0.566102;stroke-dasharray:none;stroke-opacity:1"
     id="rect1-2-6"
     width="11.574203"
     height="11.508601"
     x="2.729686"
     y="2.6615164"
     rx="2.0246315"
     ry="2.0627522" />
</svg>
