<?xml version="1.0" encoding="UTF-8" standalone="no"?>
<svg
   width="64"
   height="64"
   version="1.1"
   viewBox="0 0 16.933 16.933"
   id="svg7"
   sodipodi:docname="Template 4.svg"
   inkscape:version="1.3.2 (091e20ef0f, 2023-11-25)"
   xmlns:inkscape="http://www.inkscape.org/namespaces/inkscape"
   xmlns:sodipodi="http://sodipodi.sourceforge.net/DTD/sodipodi-0.dtd"
   xmlns:xlink="http://www.w3.org/1999/xlink"
   xmlns="http://www.w3.org/2000/svg"
   xmlns:svg="http://www.w3.org/2000/svg"
   xmlns:rdf="http://www.w3.org/1999/02/22-rdf-syntax-ns#"
   xmlns:cc="http://creativecommons.org/ns#"
   xmlns:dc="http://purl.org/dc/elements/1.1/">
  <sodipodi:namedview
     id="namedview7"
     pagecolor="#9c4444"
     bordercolor="#000000"
     borderopacity="0.25"
     inkscape:showpageshadow="2"
     inkscape:pageopacity="0.0"
     inkscape:pagecheckerboard="0"
     inkscape:deskcolor="#d1d1d1"
     inkscape:zoom="4.3531261"
     inkscape:cx="32.964816"
     inkscape:cy="24.350317"
     inkscape:window-width="1463"
     inkscape:window-height="604"
     inkscape:window-x="199"
     inkscape:window-y="276"
     inkscape:window-maximized="0"
     inkscape:current-layer="svg7"
     showgrid="false" />
  <defs
     id="defs2">
    <linearGradient
       id="linearGradient5"
       inkscape:collect="always">
      <stop
         style="stop-color:#392713;stop-opacity:1;"
         offset="0"
         id="stop2" />
      <stop
         style="stop-color:#eed59e;stop-opacity:1;"
         offset="0.5"
         id="stop3" />
      <stop
         style="stop-color:#beaa8a;stop-opacity:1;"
         offset="1"
         id="stop4" />
    </linearGradient>
    <linearGradient
       id="linearGradient8"
       inkscape:collect="always">
      <stop
         style="stop-color:#1a1a1a;stop-opacity:1;"
         offset="0"
         id="stop8" />
      <stop
         style="stop-color:#ffffff;stop-opacity:0;"
         offset="1"
         id="stop9" />
    </linearGradient>
    <linearGradient
       inkscape:collect="always"
       xlink:href="#linearGradient5"
       id="linearGradient41"
       x1="13.675659"
       y1="16.110115"
       x2="13.728528"
       y2="10.548769"
       gradientUnits="userSpaceOnUse"
       gradientTransform="matrix(2.046153,0,0,2.046153,-18.798306,-18.911347)" />
    <linearGradient
       inkscape:collect="always"
       xlink:href="#linearGradient42"
       id="linearGradient4"
       x1="11.885941"
       y1="16.50819"
       x2="12.026573"
       y2="10.244942"
       gradientUnits="userSpaceOnUse"
       gradientTransform="matrix(2.046153,0,0,2.046153,-18.798306,-18.911347)" />
    <linearGradient
       id="linearGradient42"
       inkscape:collect="always">
      <stop
         style="stop-color:#010101;stop-opacity:1;"
         offset="0"
         id="stop42" />
      <stop
         style="stop-color:#6e6c6d;stop-opacity:1;"
         offset="1"
         id="stop43" />
    </linearGradient>
    <linearGradient
       inkscape:collect="always"
       xlink:href="#linearGradient8"
       id="linearGradient9"
       x1="9.3404646"
       y1="4.1692023"
       x2="9.4279938"
       y2="16.46883"
       gradientUnits="userSpaceOnUse"
       gradientTransform="matrix(1.05,0,0,1.05,-0.50277005,-0.1977751)" />
    <filter
       style="color-interpolation-filters:sRGB;"
       inkscape:label="Blur"
       id="filter2"
       x="-0.14510849"
       y="-0.14612901"
       width="1.290217"
       height="1.292258">
      <feGaussianBlur
         stdDeviation="0.6 0.6"
         result="blur"
         id="feGaussianBlur2" />
    </filter>
    <linearGradient
       inkscape:collect="always"
       xlink:href="#linearGradient5"
       id="linearGradient19"
       x1="33.227272"
       y1="46.276886"
       x2="33.366997"
       y2="26.283052"
       gradientUnits="userSpaceOnUse"
       gradientTransform="matrix(0.42610571,0,0,0.42610571,-5.4420992,-6.8473454)" />
  </defs>
  <metadata
     id="metadata2">
    <rdf:RDF>
      <cc:Work
         rdf:about="">
        <dc:format>image/svg+xml</dc:format>
        <dc:type
           rdf:resource="http://purl.org/dc/dcmitype/StillImage" />
      </cc:Work>
    </rdf:RDF>
  </metadata>
  <rect
     style="fill:#000000;fill-opacity:0.996424;stroke:#000000;stroke-width:0.911802;stroke-dasharray:none;stroke-opacity:1;filter:url(#filter2)"
     id="rect1-2-3"
     width="13.065404"
     height="12.974159"
     x="1.9816793"
     y="1.9267306"
     rx="2.7149384"
     ry="2.8310909" />
  <rect
     style="fill:url(#linearGradient4);fill-opacity:0.996424;stroke:url(#linearGradient41);stroke-width:0.911802;stroke-dasharray:none;stroke-opacity:1"
     id="rect1-2"
     width="13.065404"
     height="12.974159"
     x="1.9816793"
     y="1.9267306"
     rx="2.7149384"
     ry="2.8310909" />
  <path
     style="opacity:0.3;fill:#000000;stroke-width:0.011971"
     d="m 5.5937685,13.521608 c -0.1180173,-0.02385 -0.2346078,-0.08347 -0.331581,-0.169553 -0.038579,-0.03424 -0.061994,-0.04577 -0.093387,-0.04594 C 5.0876925,13.305737 4.9582276,13.270295 4.857558,13.221055 4.7258729,13.15664 4.5750001,13.00947 4.5068518,12.878965 4.3883492,12.652032 4.3828811,12.37659 4.4924153,12.151309 c 0.1216294,-0.250176 0.3434176,-0.408288 0.6314496,-0.450158 0.090762,-0.01318 0.1035133,-0.01859 0.1565159,-0.06609 0.063206,-0.05666 0.2016549,-0.131144 0.2663499,-0.143278 l 0.041059,-0.0077 V 9.1286215 6.7731783 l -0.038422,-0.0077 C 5.484832,6.7525846 5.3383484,6.6738441 5.2780979,6.6196737 5.2253781,6.5722728 5.2136128,6.5673991 5.1214742,6.5547834 4.8100928,6.5121489 4.5641565,6.3147076 4.458367,6.022431 4.4309512,5.9466836 4.4222885,5.899149 4.4176056,5.798821 4.4060259,5.5504273 4.4772864,5.3659411 4.6532077,5.1888971 4.7358071,5.1057713 4.7756411,5.07594 4.8575589,5.0358646 c 0.1004322,-0.049131 0.2301585,-0.084648 0.3106736,-0.085053 0.028876,-1.188e-4 0.052318,-0.01056 0.077812,-0.034599 0.094036,-0.088643 0.2296479,-0.1575564 0.3579352,-0.1818857 0.086319,-0.016368 5.6807573,-0.01489 5.7725423,0.00154 0.09412,0.016832 0.248201,0.093804 0.321919,0.1608008 0.04668,0.042419 0.06841,0.053986 0.10175,0.054148 0.08019,4.219e-4 0.207106,0.035154 0.309762,0.084842 0.08378,0.040557 0.121813,0.068894 0.205256,0.1529503 0.163255,0.1644597 0.226221,0.3053332 0.236061,0.5281401 0.0071,0.1633186 -0.01162,0.2613566 -0.07468,0.3890537 -0.128109,0.259357 -0.357387,0.4167011 -0.663859,0.4555875 -0.05481,0.00696 -0.07539,0.017 -0.123543,0.060282 -0.06316,0.056785 -0.201532,0.1313058 -0.266413,0.1434789 l -0.04109,0.00771 V 9.1284683 11.48408 l 0.04109,0.0077 c 0.0647,0.01211 0.203147,0.08662 0.266351,0.143277 0.05324,0.04774 0.06549,0.05287 0.158572,0.0664 0.191109,0.0278 0.335181,0.09807 0.467847,0.228215 0.152931,0.150031 0.22748,0.318107 0.236279,0.532707 0.0067,0.160905 -0.01305,0.256012 -0.08275,0.401025 -0.04002,0.08323 -0.0679,0.120588 -0.153227,0.205227 -0.08384,0.08316 -0.124369,0.113183 -0.20652,0.15295 -0.100672,0.04873 -0.228893,0.08413 -0.306166,0.08454 -0.02959,3.82e-4 -0.05744,0.0152 -0.111575,0.06026 -0.07712,0.06417 -0.131622,0.09538 -0.237465,0.135958 l -0.06642,0.02545 -2.8730251,0.0016 c -1.5801614,9.36e-4 -2.8945681,-0.0026 -2.9209038,-0.0078 z m 5.7580145,-0.429165 c 0.05955,-0.02713 0.129521,-0.103312 0.151186,-0.164641 0.01265,-0.0357 0.01641,-0.136572 0.01641,-0.435511 v -0.389056 l -0.03126,-0.05986 c -0.03541,-0.06778 -0.109538,-0.130758 -0.175546,-0.149092 -0.03013,-0.0084 -0.947724,-0.01251 -2.8286913,-0.01251 -2.560151,-2.5e-4 -2.788779,0.0014 -2.8422851,0.01976 -0.074926,0.02553 -0.1548537,0.1045 -0.175772,0.17364 -0.022938,0.07582 -0.02235,0.787304 7.246e-4,0.852562 0.021658,0.06134 0.091619,0.137508 0.1511843,0.164644 0.04589,0.02091 0.1653418,0.02181 2.8670354,0.02181 2.7016991,0 2.8211511,-8.94e-4 2.8670411,-0.02181 z M 5.0371205,12.50426 c 0,-0.229454 -0.004,-0.335185 -0.012764,-0.335185 -0.025486,0 -0.09446,0.06296 -0.1288541,0.117637 -0.078767,0.125181 -0.08798,0.255008 -0.026904,0.379072 0.034088,0.06925 0.1292349,0.173664 0.1582425,0.173664 0.00568,0 0.010285,-0.150834 0.010285,-0.335186 z m 6.9709395,0.286672 c 0.03337,-0.02938 0.06996,-0.07866 0.09273,-0.124914 0.03475,-0.07059 0.03728,-0.08397 0.03324,-0.175943 -0.0032,-0.07283 -0.01174,-0.114514 -0.03179,-0.155415 -0.02973,-0.06061 -0.12703,-0.165585 -0.153489,-0.165585 -0.01346,0 -0.01638,0.05954 -0.01638,0.335186 0,0.184353 0.0047,0.335187 0.01023,0.335187 0.0057,0 0.03509,-0.02182 0.06539,-0.04851 z M 10.962729,9.1284546 v -2.33433 H 8.4847459 6.0067652 v 2.33433 2.3343354 H 8.4847459 10.962729 Z M 6.7655021,9.7086761 C 6.6879195,9.6746504 6.6307303,9.5652236 6.6465264,9.4810289 6.6577431,9.421221 6.7020012,9.3645446 6.7605749,9.3349557 l 0.053315,-0.026939 0.7127263,6.9e-5 c 0.4308137,4.24e-5 0.7295088,0.00469 0.7551547,0.011858 0.048132,0.013323 0.1115209,0.07341 0.1304154,0.123526 0.036906,0.097875 -0.00757,0.21434 -0.098641,0.2584387 -0.050956,0.02467 -0.064141,0.025066 -0.7812719,0.024114 -0.5891702,-8.094e-4 -0.7366188,-0.0041 -0.7667699,-0.017349 z m 2.6676171,-0.00703 C 9.2718754,9.621841 9.2944015,9.3693179 9.4671818,9.319764 9.4896858,9.313334 9.6508892,9.308196 9.8254084,9.308487 10.220701,9.3091266 10.253527,9.318007 10.30722,9.4380012 10.35004,9.5337532 10.31052,9.6451129 10.21418,9.699633 10.168,9.725782 10.15698,9.726558 9.8254808,9.726734 9.5019209,9.7269155 9.4816657,9.725624 9.4331109,9.70158 Z M 6.7629468,8.1211544 C 6.6222561,8.0515147 6.6064106,7.8639777 6.7330556,7.767383 l 0.043972,-0.033539 h 1.7077183 1.7077201 l 0.04397,0.033539 c 0.05845,0.044581 0.0843,0.096924 0.08468,0.1714871 4.21e-4,0.080091 -0.04512,0.1523685 -0.11634,0.1847057 -0.04842,0.021988 -0.10538,0.022749 -1.7200274,0.022991 L 6.8148024,8.1468441 Z M 11.312577,6.3626253 c 0.06666,-0.018513 0.141798,-0.082001 0.176219,-0.1488914 l 0.03059,-0.059433 V 5.7529644 c 0,-0.3886379 -8.08e-4,-0.4028511 -0.02589,-0.449219 -0.03342,-0.06184 -0.09414,-0.1196218 -0.150301,-0.143044 -0.03979,-0.016592 -0.343268,-0.018532 -2.8610533,-0.018302 -2.6988578,2.494e-4 -2.818544,0.00119 -2.8644269,0.022073 -0.059566,0.027129 -0.129521,0.1033109 -0.1511838,0.164643 -0.012605,0.035698 -0.01641,0.1366225 -0.01641,0.4358396 v 0.389384 l 0.02998,0.058249 c 0.034166,0.066378 0.095471,0.1208803 0.1630796,0.1449796 0.038904,0.013865 0.4949185,0.016598 2.8355815,0.016981 1.8860799,3.418e-4 2.8036629,-0.00356 2.8338169,-0.011906 z M 5.0371205,5.7526551 c 0,-0.1843527 -0.00463,-0.3351858 -0.010285,-0.3351858 -0.00568,0 -0.035086,0.021829 -0.0654,0.048514 -0.1755284,0.1545073 -0.1744391,0.4250653 0.00234,0.5827737 0.023875,0.0213 0.050145,0.038811 0.058377,0.038906 0.011604,1.318e-4 0.01496,-0.074745 0.01496,-0.3350079 z M 12.017842,6.036256 c 0.130677,-0.1252099 0.158695,-0.3064773 0.07226,-0.4674187 -0.02895,-0.053908 -0.123876,-0.151368 -0.147434,-0.151368 -0.0057,0 -0.01034,0.1508331 -0.01034,0.3351858 0,0.2697888 0.0031,0.3351858 0.01582,0.3351858 0.0086,0 0.04004,-0.023216 0.06965,-0.051584 z"
     id="path1-6" />
  <path
     style="fill:url(#linearGradient19);stroke-width:0.011971"
     d="m 5.5937685,12.746871 c -0.1180173,-0.02385 -0.2346078,-0.08347 -0.331581,-0.169555 -0.038579,-0.03424 -0.061994,-0.04577 -0.093387,-0.04594 -0.081108,-3.75e-4 -0.2105729,-0.03582 -0.3112425,-0.08506 -0.1316851,-0.06442 -0.2825579,-0.211585 -0.3507062,-0.34209 -0.1185026,-0.226934 -0.1239707,-0.502377 -0.014437,-0.727654 0.1216294,-0.250182 0.3434177,-0.408294 0.6314498,-0.450167 0.090762,-0.01318 0.1035133,-0.01859 0.1565158,-0.06609 0.063206,-0.05666 0.201655,-0.131143 0.26635,-0.143276 l 0.041059,-0.0077 V 8.353883 5.9984405 l -0.038426,-0.00768 C 5.484832,5.9778469 5.3383484,5.8991064 5.2780979,5.844936 5.2253781,5.797535 5.2136128,5.7926613 5.1214742,5.7800457 4.8100928,5.7374111 4.5641565,5.5399699 4.458367,5.2476934 4.4309512,5.1719458 4.4222885,5.1244113 4.4176056,5.0240832 4.4060259,4.7756896 4.4772864,4.5912034 4.6532077,4.4141594 4.7358071,4.3310336 4.7756411,4.3012023 4.8575589,4.261127 4.9579911,4.2119944 5.0877174,4.1764787 5.1682325,4.176075 5.1971085,4.1759561 5.2205505,4.165515 5.2460445,4.141476 5.3400805,4.052831 5.4756924,3.9839195 5.6039797,3.95959 5.6902987,3.943222 11.284737,3.9447 11.376522,3.96113 c 0.09412,0.016832 0.248201,0.093804 0.321919,0.1608007 0.04668,0.042419 0.06841,0.053986 0.10175,0.054148 0.08019,4.221e-4 0.207106,0.035153 0.309762,0.084842 0.08378,0.040557 0.121813,0.068894 0.205256,0.1529504 0.163255,0.1644597 0.226221,0.3053332 0.236061,0.52814 0.0071,0.1633187 -0.01162,0.2613566 -0.07468,0.3890538 -0.128109,0.259357 -0.357387,0.4167012 -0.663859,0.4555875 -0.05481,0.00696 -0.07539,0.017 -0.123543,0.060282 -0.06316,0.056784 -0.201532,0.1313059 -0.266413,0.143479 l -0.04109,0.00771 V 8.3537312 10.70934 l 0.04109,0.0077 c 0.0647,0.01211 0.203147,0.08662 0.266351,0.143277 0.05324,0.04774 0.06549,0.05287 0.158572,0.0664 0.191109,0.0278 0.335181,0.09807 0.467847,0.228217 0.152931,0.150032 0.22748,0.318109 0.236279,0.532708 0.0067,0.160904 -0.01305,0.256013 -0.08275,0.401026 -0.04002,0.08323 -0.0679,0.120589 -0.153227,0.205227 -0.08384,0.08316 -0.124369,0.113184 -0.20652,0.152952 -0.100672,0.04873 -0.228893,0.08413 -0.306166,0.08453 -0.02959,3.8e-4 -0.05744,0.0152 -0.111575,0.06026 -0.07712,0.06417 -0.131622,0.09538 -0.237465,0.135957 l -0.06642,0.02545 -2.8730251,0.0016 c -1.5801614,9.36e-4 -2.8945681,-0.0026 -2.9209038,-0.0079 z m 5.7580145,-0.429165 c 0.05955,-0.02713 0.129521,-0.103312 0.151186,-0.164642 0.01265,-0.0357 0.01641,-0.136572 0.01641,-0.435512 v -0.389057 l -0.03126,-0.05986 c -0.03541,-0.06778 -0.109538,-0.130758 -0.175546,-0.149093 -0.03013,-0.0084 -0.947724,-0.01238 -2.8286913,-0.01238 -2.560151,-2.51e-4 -2.788779,0.0014 -2.8422851,0.01976 -0.074926,0.02553 -0.1548537,0.1045 -0.175772,0.17364 -0.022938,0.07582 -0.02235,0.787305 7.246e-4,0.852564 0.021658,0.06134 0.091619,0.137508 0.1511843,0.164642 0.04589,0.0209 0.1653418,0.0218 2.8670354,0.0218 2.7016991,0 2.8211511,-8.94e-4 2.8670411,-0.0218 z M 5.0371205,11.729523 c 0,-0.229453 -0.004,-0.335186 -0.012764,-0.335186 -0.025486,0 -0.09446,0.06296 -0.1288541,0.117648 -0.078767,0.125181 -0.08798,0.255009 -0.026904,0.379072 0.034088,0.06925 0.1292349,0.173666 0.1582425,0.173666 0.00568,0 0.010285,-0.150837 0.010285,-0.335188 z m 6.9709395,0.286671 c 0.03337,-0.02938 0.06996,-0.07866 0.09273,-0.124914 0.03475,-0.07059 0.03728,-0.08397 0.03324,-0.175941 -0.0032,-0.07283 -0.01174,-0.114515 -0.03179,-0.155418 -0.02973,-0.06061 -0.12703,-0.165583 -0.153489,-0.165583 -0.01346,0 -0.01638,0.05954 -0.01638,0.335185 0,0.184354 0.0047,0.335188 0.01023,0.335188 0.0057,0 0.03509,-0.02182 0.06539,-0.04851 z M 10.962729,8.3537172 V 6.0193869 H 8.4847459 6.0067652 V 8.3537172 10.688049 H 8.4847459 10.962729 Z M 6.7655021,8.9339382 C 6.6879195,8.899914 6.6307303,8.7904886 6.6465264,8.7062908 6.6577431,8.6464889 6.7020012,8.5898053 6.7605749,8.5602146 l 0.053315,-0.026938 0.7127263,6.97e-5 c 0.4308137,4.19e-5 0.7295088,0.00472 0.7551547,0.011858 0.048132,0.013367 0.1115209,0.073413 0.1304154,0.1235315 0.036906,0.09788 -0.00757,0.2143413 -0.098641,0.2584386 -0.050956,0.024672 -0.064141,0.025071 -0.7812719,0.024114 -0.5891697,-8.093e-4 -0.7366183,-0.00412 -0.7667692,-0.017352 z m 2.6676171,-0.00704 C 9.2718754,8.8470892 9.2944015,8.5945719 9.4671819,8.5450185 c 0.022504,-0.00645 0.1837074,-0.011519 0.3582267,-0.011217 0.3952924,6.392e-4 0.4281184,0.00947 0.4818114,0.1295115 0.04283,0.09575 0.0033,0.2071112 -0.09303,0.2616318 -0.04618,0.026154 -0.0572,0.026926 -0.388699,0.027104 -0.3235602,1.877e-4 -0.3438156,-0.0011 -0.3923704,-0.025147 z M 6.7629468,7.3464165 C 6.6222561,7.2767768 6.6064106,7.08924 6.7330556,6.9926453 l 0.043972,-0.033539 h 1.7077183 1.7077201 l 0.04397,0.033539 c 0.05845,0.044581 0.0843,0.096924 0.08468,0.1714872 4.21e-4,0.080091 -0.04512,0.1523683 -0.11634,0.1847056 -0.04842,0.021987 -0.10538,0.022749 -1.7200274,0.022991 l -1.6699461,2.773e-4 z m 4.5496302,-1.758529 c 0.06666,-0.018514 0.141798,-0.082001 0.176219,-0.1488915 l 0.03059,-0.059433 V 4.9782267 c 0,-0.3886379 -8.08e-4,-0.4028512 -0.02589,-0.449219 -0.03342,-0.06184 -0.09414,-0.1196218 -0.150301,-0.143044 -0.03979,-0.016592 -0.34327,-0.018532 -2.8610555,-0.018302 -2.6988578,2.493e-4 -2.818544,0.00119 -2.8644269,0.022073 -0.059566,0.027129 -0.129521,0.1033109 -0.1511838,0.1646429 -0.012605,0.035698 -0.01641,0.1366224 -0.01641,0.4358397 v 0.3893839 l 0.02998,0.058248 c 0.034166,0.066378 0.095471,0.1208802 0.1630796,0.1449796 0.038904,0.013865 0.4949185,0.016598 2.8355815,0.016981 1.8860791,3.419e-4 2.8036631,-0.00357 2.8338161,-0.011918 z M 5.0371205,4.9779173 c 0,-0.1843526 -0.00463,-0.3351859 -0.010285,-0.3351859 -0.00568,0 -0.035086,0.021829 -0.0654,0.048515 -0.1755284,0.1545071 -0.1744391,0.4250652 0.00234,0.5827737 0.023875,0.0213 0.050145,0.038811 0.058377,0.038906 0.011604,1.317e-4 0.01496,-0.074745 0.01496,-0.3350082 z m 6.9807215,0.283601 c 0.130677,-0.1252099 0.158695,-0.3064776 0.07226,-0.4674188 -0.02895,-0.053908 -0.123876,-0.1513681 -0.147434,-0.1513681 -0.0057,0 -0.01034,0.1508333 -0.01034,0.3351859 0,0.2697889 0.0031,0.3351859 0.01582,0.3351859 0.0086,0 0.04004,-0.023216 0.06965,-0.051584 z"
     id="path1" />
  <rect
     style="opacity:0.5;fill:none;fill-opacity:0.996424;stroke:url(#linearGradient9);stroke-width:0.566102;stroke-dasharray:none;stroke-opacity:1"
     id="rect1-2-6"
     width="11.574203"
     height="11.508601"
     x="2.729686"
     y="2.6615164"
     rx="2.0246315"
     ry="2.0627522" />
</svg>
