<?xml version="1.0" encoding="UTF-8" standalone="no"?>
<svg
   width="64"
   height="64"
   version="1.1"
   viewBox="0 0 16.933 16.933"
   id="svg7"
   sodipodi:docname="Template 4.svg"
   inkscape:version="1.3.2 (091e20ef0f, 2023-11-25)"
   xmlns:inkscape="http://www.inkscape.org/namespaces/inkscape"
   xmlns:sodipodi="http://sodipodi.sourceforge.net/DTD/sodipodi-0.dtd"
   xmlns:xlink="http://www.w3.org/1999/xlink"
   xmlns="http://www.w3.org/2000/svg"
   xmlns:svg="http://www.w3.org/2000/svg"
   xmlns:rdf="http://www.w3.org/1999/02/22-rdf-syntax-ns#"
   xmlns:cc="http://creativecommons.org/ns#"
   xmlns:dc="http://purl.org/dc/elements/1.1/">
  <sodipodi:namedview
     id="namedview7"
     pagecolor="#9c4444"
     bordercolor="#000000"
     borderopacity="0.25"
     inkscape:showpageshadow="2"
     inkscape:pageopacity="0.0"
     inkscape:pagecheckerboard="0"
     inkscape:deskcolor="#d1d1d1"
     inkscape:zoom="4.3531261"
     inkscape:cx="32.964816"
     inkscape:cy="24.350317"
     inkscape:window-width="1463"
     inkscape:window-height="604"
     inkscape:window-x="199"
     inkscape:window-y="276"
     inkscape:window-maximized="0"
     inkscape:current-layer="svg7"
     showgrid="false" />
  <defs
     id="defs2">
    <linearGradient
       id="linearGradient5"
       inkscape:collect="always">
      <stop
         style="stop-color:#392713;stop-opacity:1;"
         offset="0"
         id="stop2" />
      <stop
         style="stop-color:#eed59e;stop-opacity:1;"
         offset="0.5"
         id="stop3" />
      <stop
         style="stop-color:#beaa8a;stop-opacity:1;"
         offset="1"
         id="stop4" />
    </linearGradient>
    <linearGradient
       id="linearGradient8"
       inkscape:collect="always">
      <stop
         style="stop-color:#1a1a1a;stop-opacity:1;"
         offset="0"
         id="stop8" />
      <stop
         style="stop-color:#ffffff;stop-opacity:0;"
         offset="1"
         id="stop9" />
    </linearGradient>
    <linearGradient
       inkscape:collect="always"
       xlink:href="#linearGradient5"
       id="linearGradient41"
       x1="13.675659"
       y1="16.110115"
       x2="13.728528"
       y2="10.548769"
       gradientUnits="userSpaceOnUse"
       gradientTransform="matrix(2.046153,0,0,2.046153,-18.798306,-18.911347)" />
    <linearGradient
       inkscape:collect="always"
       xlink:href="#linearGradient42"
       id="linearGradient4"
       x1="11.885941"
       y1="16.50819"
       x2="12.026573"
       y2="10.244942"
       gradientUnits="userSpaceOnUse"
       gradientTransform="matrix(2.046153,0,0,2.046153,-18.798306,-18.911347)" />
    <linearGradient
       id="linearGradient42"
       inkscape:collect="always">
      <stop
         style="stop-color:#010101;stop-opacity:1;"
         offset="0"
         id="stop42" />
      <stop
         style="stop-color:#6e6c6d;stop-opacity:1;"
         offset="1"
         id="stop43" />
    </linearGradient>
    <linearGradient
       inkscape:collect="always"
       xlink:href="#linearGradient8"
       id="linearGradient9"
       x1="9.3404646"
       y1="4.1692023"
       x2="9.4279938"
       y2="16.46883"
       gradientUnits="userSpaceOnUse"
       gradientTransform="matrix(1.05,0,0,1.05,-0.50277005,-0.1977751)" />
    <filter
       style="color-interpolation-filters:sRGB;"
       inkscape:label="Blur"
       id="filter2"
       x="-0.14510849"
       y="-0.14612901"
       width="1.290217"
       height="1.292258">
      <feGaussianBlur
         stdDeviation="0.6 0.6"
         result="blur"
         id="feGaussianBlur2" />
    </filter>
    <linearGradient
       inkscape:collect="always"
       xlink:href="#linearGradient5"
       id="linearGradient27"
       x1="32.32058"
       y1="50.534958"
       x2="31.928764"
       y2="13.756527"
       gradientUnits="userSpaceOnUse"
       gradientTransform="matrix(0.23573911,0,0,0.23573911,0.9549847,0.78382067)" />
  </defs>
  <metadata
     id="metadata2">
    <rdf:RDF>
      <cc:Work
         rdf:about="">
        <dc:format>image/svg+xml</dc:format>
        <dc:type
           rdf:resource="http://purl.org/dc/dcmitype/StillImage" />
      </cc:Work>
    </rdf:RDF>
  </metadata>
  <rect
     style="fill:#000000;fill-opacity:0.996424;stroke:#000000;stroke-width:0.911802;stroke-dasharray:none;stroke-opacity:1;filter:url(#filter2)"
     id="rect1-2-3"
     width="13.065404"
     height="12.974159"
     x="1.9816793"
     y="1.9267306"
     rx="2.7149384"
     ry="2.8310909" />
  <rect
     style="fill:url(#linearGradient4);fill-opacity:0.996424;stroke:url(#linearGradient41);stroke-width:0.911802;stroke-dasharray:none;stroke-opacity:1"
     id="rect1-2"
     width="13.065404"
     height="12.974159"
     x="1.9816793"
     y="1.9267306"
     rx="2.7149384"
     ry="2.8310909" />
  <path
     style="color:#000000;clip-rule:nonzero;display:inline;overflow:visible;visibility:visible;isolation:auto;mix-blend-mode:normal;color-interpolation:sRGB;color-interpolation-filters:linearRGB;solid-color:#000000;solid-opacity:1;fill:#000000;fill-opacity:1;fill-rule:nonzero;stroke:none;stroke-width:0.282392;stroke-linecap:butt;stroke-linejoin:miter;stroke-miterlimit:4;stroke-dasharray:none;stroke-dashoffset:0;stroke-opacity:0.3;marker:none;color-rendering:auto;image-rendering:auto;shape-rendering:auto;text-rendering:auto;enable-background:accumulate;opacity:0.3"
     d="m 7.90439,4.6138878 c -0.1081742,0 -0.1983197,0.4303891 -0.2512349,1.0454766 A 3.3059553,3.4055085 0 0 0 6.8542558,6.0052368 C 6.3927602,5.6068085 6.0322658,5.3663025 5.9555669,5.4453107 L 5.1050111,6.321479 C 5.028313,6.4004872 5.2617889,6.7718384 5.6485688,7.2472309 A 3.3059553,3.4055085 0 0 0 5.3157423,8.070189 C 4.7169639,8.1246445 4.2978938,8.2173695 4.2978938,8.3289882 v 1.2383663 c 0,0.1114315 0.4178079,0.2042918 1.0149139,0.2587999 A 3.3059553,3.4055085 0 0 0 5.6473946,10.650923 C 5.261494,11.125465 5.0284052,11.495949 5.1050111,11.574862 l 0.8505558,0.876168 c 0.076534,0.07883 0.4357346,-0.160694 0.8957544,-0.557505 a 3.3059553,3.4055085 0 0 0 0.8018338,0.34043 c 0.052864,0.616809 0.1428796,1.048499 0.2512349,1.048499 h 1.2021652 c 0.1081747,0 0.1983199,-0.430389 0.2512344,-1.045478 A 3.3059553,3.4055085 0 0 0 10.15669,11.891104 c 0.461494,0.398429 0.821991,0.638936 0.898689,0.559926 l 0.850556,-0.876168 c 0.0767,-0.07902 -0.156777,-0.45036 -0.543558,-0.925752 a 3.3059553,3.4055085 0 0 0 0.332826,-0.8229556 c 0.59878,-0.054456 1.01785,-0.1471811 1.01785,-0.2587999 V 8.3289882 c 0,-0.1114322 -0.417809,-0.2042919 -1.014915,-0.2587992 A 3.3059553,3.4055085 0 0 0 11.363552,7.2454169 C 11.749453,6.770876 11.98254,6.4003924 11.905935,6.321479 L 11.055379,5.4453107 c -0.07654,-0.078838 -0.435735,0.1606951 -0.895755,0.557507 A 3.3059553,3.4055085 0 0 0 9.3577896,5.662388 C 9.3049253,5.045578 9.2149107,4.6138878 9.1065552,4.6138878 Z M 8.5054728,7.4002129 A 1.5027068,1.5479584 0 0 1 10.008181,8.9481715 1.5027068,1.5479584 0 0 1 8.5054728,10.496129 1.5027068,1.5479584 0 0 1 7.0027658,8.9481715 1.5027068,1.5479584 0 0 1 8.5054728,7.4002129 Z"
     id="path4690-7"
     inkscape:connector-curvature="0" />
  <path
     style="color:#000000;clip-rule:nonzero;display:inline;overflow:visible;visibility:visible;isolation:auto;mix-blend-mode:normal;color-interpolation:sRGB;color-interpolation-filters:linearRGB;solid-color:#000000;solid-opacity:1;fill:url(#linearGradient27);fill-opacity:1;fill-rule:nonzero;stroke:none;stroke-width:0.282392;stroke-linecap:butt;stroke-linejoin:miter;stroke-miterlimit:4;stroke-dasharray:none;stroke-dashoffset:0;stroke-opacity:0.3;marker:none;color-rendering:auto;image-rendering:auto;shape-rendering:auto;text-rendering:auto;enable-background:accumulate"
     d="m 7.90439,4.0847316 c -0.1081742,0 -0.1983197,0.4303891 -0.2512349,1.0454766 A 3.3059553,3.4055085 0 0 0 6.8542558,5.4760806 C 6.3927602,5.0776523 6.0322658,4.8371463 5.9555669,4.9161545 L 5.1050111,5.7923228 C 5.028313,5.871331 5.2617889,6.2426822 5.6485688,6.7180747 A 3.3059553,3.4055085 0 0 0 5.3157423,7.5410328 C 4.7169639,7.5954883 4.2978938,7.6882133 4.2978938,7.799832 v 1.2383663 c 0,0.1114315 0.4178079,0.2042917 1.0149139,0.2587998 A 3.3059553,3.4055085 0 0 0 5.6473946,10.121767 C 5.261494,10.596309 5.0284052,10.966793 5.1050111,11.045706 l 0.8505558,0.876168 c 0.076534,0.07883 0.4357346,-0.160694 0.8957544,-0.557505 a 3.3059553,3.4055085 0 0 0 0.8018338,0.34043 c 0.052864,0.616809 0.1428796,1.048499 0.2512349,1.048499 h 1.2021652 c 0.1081747,0 0.1983199,-0.430389 0.2512344,-1.045478 A 3.3059553,3.4055085 0 0 0 10.15669,11.361948 c 0.461494,0.398429 0.821991,0.638936 0.898689,0.559926 l 0.850556,-0.876168 c 0.0767,-0.07902 -0.156777,-0.45036 -0.543558,-0.925752 a 3.3059553,3.4055085 0 0 0 0.332826,-0.8229559 c 0.59878,-0.054456 1.01785,-0.1471811 1.01785,-0.2587998 V 7.799832 c 0,-0.1114323 -0.417809,-0.2042919 -1.014915,-0.2587992 A 3.3059553,3.4055085 0 0 0 11.363552,6.7162607 C 11.749453,6.2417198 11.98254,5.8712362 11.905935,5.7923228 L 11.055379,4.9161545 c -0.07654,-0.078838 -0.435735,0.1606951 -0.895755,0.557507 A 3.3059553,3.4055085 0 0 0 9.3577896,5.1332318 C 9.3049253,4.5164218 9.2149107,4.0847316 9.1065552,4.0847316 Z M 8.5054728,6.8710567 A 1.5027068,1.5479584 0 0 1 10.008181,8.4190153 1.5027068,1.5479584 0 0 1 8.5054728,9.9669727 1.5027068,1.5479584 0 0 1 7.0027658,8.4190153 1.5027068,1.5479584 0 0 1 8.5054728,6.8710567 Z"
     id="path4690"
     inkscape:connector-curvature="0" />
  <rect
     style="opacity:0.5;fill:none;fill-opacity:0.996424;stroke:url(#linearGradient9);stroke-width:0.566102;stroke-dasharray:none;stroke-opacity:1"
     id="rect1-2-6"
     width="11.574203"
     height="11.508601"
     x="2.729686"
     y="2.6615164"
     rx="2.0246315"
     ry="2.0627522" />
</svg>
