<?xml version="1.0" encoding="UTF-8" standalone="no"?>
<svg
   width="64"
   height="64"
   version="1.1"
   viewBox="0 0 16.933 16.933"
   id="svg7"
   sodipodi:docname="Template 4.svg"
   inkscape:version="1.3.2 (091e20ef0f, 2023-11-25)"
   xmlns:inkscape="http://www.inkscape.org/namespaces/inkscape"
   xmlns:sodipodi="http://sodipodi.sourceforge.net/DTD/sodipodi-0.dtd"
   xmlns:xlink="http://www.w3.org/1999/xlink"
   xmlns="http://www.w3.org/2000/svg"
   xmlns:svg="http://www.w3.org/2000/svg"
   xmlns:rdf="http://www.w3.org/1999/02/22-rdf-syntax-ns#"
   xmlns:cc="http://creativecommons.org/ns#"
   xmlns:dc="http://purl.org/dc/elements/1.1/">
  <sodipodi:namedview
     id="namedview7"
     pagecolor="#9c4444"
     bordercolor="#000000"
     borderopacity="0.25"
     inkscape:showpageshadow="2"
     inkscape:pageopacity="0.0"
     inkscape:pagecheckerboard="0"
     inkscape:deskcolor="#d1d1d1"
     inkscape:zoom="4.3531261"
     inkscape:cx="32.964816"
     inkscape:cy="24.350317"
     inkscape:window-width="1463"
     inkscape:window-height="604"
     inkscape:window-x="199"
     inkscape:window-y="276"
     inkscape:window-maximized="0"
     inkscape:current-layer="svg7"
     showgrid="false" />
  <defs
     id="defs2">
    <linearGradient
       id="linearGradient5"
       inkscape:collect="always">
      <stop
         style="stop-color:#392713;stop-opacity:1;"
         offset="0"
         id="stop2" />
      <stop
         style="stop-color:#eed59e;stop-opacity:1;"
         offset="0.5"
         id="stop3" />
      <stop
         style="stop-color:#beaa8a;stop-opacity:1;"
         offset="1"
         id="stop4" />
    </linearGradient>
    <linearGradient
       id="linearGradient8"
       inkscape:collect="always">
      <stop
         style="stop-color:#1a1a1a;stop-opacity:1;"
         offset="0"
         id="stop8" />
      <stop
         style="stop-color:#ffffff;stop-opacity:0;"
         offset="1"
         id="stop9" />
    </linearGradient>
    <linearGradient
       inkscape:collect="always"
       xlink:href="#linearGradient5"
       id="linearGradient41"
       x1="13.675659"
       y1="16.110115"
       x2="13.728528"
       y2="10.548769"
       gradientUnits="userSpaceOnUse"
       gradientTransform="matrix(2.046153,0,0,2.046153,-18.798306,-18.911347)" />
    <linearGradient
       inkscape:collect="always"
       xlink:href="#linearGradient42"
       id="linearGradient4"
       x1="11.885941"
       y1="16.50819"
       x2="12.026573"
       y2="10.244942"
       gradientUnits="userSpaceOnUse"
       gradientTransform="matrix(2.046153,0,0,2.046153,-18.798306,-18.911347)" />
    <linearGradient
       id="linearGradient42"
       inkscape:collect="always">
      <stop
         style="stop-color:#010101;stop-opacity:1;"
         offset="0"
         id="stop42" />
      <stop
         style="stop-color:#6e6c6d;stop-opacity:1;"
         offset="1"
         id="stop43" />
    </linearGradient>
    <linearGradient
       inkscape:collect="always"
       xlink:href="#linearGradient8"
       id="linearGradient9"
       x1="9.3404646"
       y1="4.1692023"
       x2="9.4279938"
       y2="16.46883"
       gradientUnits="userSpaceOnUse"
       gradientTransform="matrix(1.05,0,0,1.05,-0.50277005,-0.1977751)" />
    <filter
       style="color-interpolation-filters:sRGB;"
       inkscape:label="Blur"
       id="filter2"
       x="-0.14510849"
       y="-0.14612901"
       width="1.290217"
       height="1.292258">
      <feGaussianBlur
         stdDeviation="0.6 0.6"
         result="blur"
         id="feGaussianBlur2" />
    </filter>
    <linearGradient
       inkscape:collect="always"
       xlink:href="#linearGradient5"
       id="linearGradient25"
       x1="34.67009"
       y1="49.350636"
       x2="35.162655"
       y2="15.701151"
       gradientUnits="userSpaceOnUse"
       gradientTransform="matrix(0.23573911,0,0,0.23573911,0.94975889,0.67996537)" />
  </defs>
  <metadata
     id="metadata2">
    <rdf:RDF>
      <cc:Work
         rdf:about="">
        <dc:format>image/svg+xml</dc:format>
        <dc:type
           rdf:resource="http://purl.org/dc/dcmitype/StillImage" />
      </cc:Work>
    </rdf:RDF>
  </metadata>
  <rect
     style="fill:#000000;fill-opacity:0.996424;stroke:#000000;stroke-width:0.911802;stroke-dasharray:none;stroke-opacity:1;filter:url(#filter2)"
     id="rect1-2-3"
     width="13.065404"
     height="12.974159"
     x="1.9816793"
     y="1.9267306"
     rx="2.7149384"
     ry="2.8310909" />
  <rect
     style="fill:url(#linearGradient4);fill-opacity:0.996424;stroke:url(#linearGradient41);stroke-width:0.911802;stroke-dasharray:none;stroke-opacity:1"
     id="rect1-2"
     width="13.065404"
     height="12.974159"
     x="1.9816793"
     y="1.9267306"
     rx="2.7149384"
     ry="2.8310909" />
  <path
     style="fill:#000000;fill-opacity:1;stroke:none;stroke-width:0.282392;stroke-dasharray:none;stroke-dashoffset:2.2;stroke-opacity:0.3;opacity:0.3"
     d="m 5.0834942,12.807161 c -0.174826,-0.04652 -0.3574447,-0.237865 -0.4041863,-0.423493 -0.024598,-0.09769 -0.037582,-0.508423 -0.037582,-1.189043 v -1.039791 h 0.1383525 c 0.088288,0 0.1909881,0.02979 0.2838108,0.08232 0.5933398,0.335759 0.7131547,0.343506 0.9924944,0.06417 C 6.19782,10.159875 6.2385939,10.091469 6.2979613,9.8960153 6.5065364,9.2093274 6.1718934,8.4357507 5.6662634,8.4357507 c -0.1367506,0 -0.2300759,0.038581 -0.5030198,0.2079496 C 5.0021163,8.7436833 4.9213394,8.7733266 4.8064524,8.774634 L 4.6579436,8.776304 V 7.9005471 7.0247881 L 4.7439611,6.8784796 C 4.7969495,6.7883502 4.8841303,6.7011689 4.9710095,6.6514308 5.1119611,6.5707366 5.1126259,6.5706855 6.1417679,6.5605235 l 1.029727,-0.010172 0.018885,-0.075252 C 7.2188391,6.3617069 7.1580792,6.1840721 7.0030918,5.9275595 6.882127,5.7273563 6.8635575,5.6720899 6.8635575,5.5122819 c 0,-0.1574667 0.014602,-0.2025124 0.1001744,-0.3089851 C 7.022348,5.1303635 7.155554,5.0315559 7.2848168,4.9651289 7.4938292,4.8577188 7.5225003,4.851744 7.8171353,4.8541922 8.276096,4.8580082 8.5848428,4.9973626 8.7468689,5.2738396 8.8543864,5.457304 8.8464819,5.57051 8.7080021,5.8304217 8.4832294,6.2522992 8.4653146,6.2976166 8.4753988,6.4188313 l 0.00994,0.1194205 0.9568483,0.016216 c 1.0195579,0.01728 1.0249049,0.018122 1.2111209,0.1904673 0.198931,0.184116 0.198895,0.1838869 0.209959,1.3243505 0.0097,1.0042765 0.01259,1.0452796 0.07372,1.0646806 0.104545,0.033182 0.260161,-0.015424 0.492276,-0.1537663 0.120629,-0.071896 0.272124,-0.148871 0.336657,-0.1710565 0.254544,-0.087507 0.5002,0.058599 0.666504,0.3964073 0.101887,0.2069573 0.107367,0.236391 0.107367,0.576252 0,0.3398613 -0.0055,0.3692953 -0.107367,0.5762513 -0.166304,0.337809 -0.41196,0.483915 -0.666504,0.396408 -0.06453,-0.02219 -0.216028,-0.09917 -0.336657,-0.171056 -0.232291,-0.138449 -0.387729,-0.186949 -0.492532,-0.153687 -0.06129,0.01946 -0.06422,0.05849 -0.07371,0.983593 -0.0098,0.95857 -0.01024,0.964031 -0.09062,1.104364 -0.04974,0.08688 -0.13692,0.174058 -0.227049,0.227049 -0.142444,0.08375 -0.162777,0.0863 -0.7694559,0.09659 l -0.6231488,0.01057 -0.020537,-0.08183 c -0.023293,-0.09282 0.032147,-0.289078 0.1157118,-0.40963 0.2102328,-0.303292 0.2764895,-0.588096 0.1801517,-0.774393 -0.074956,-0.144951 -0.2871566,-0.314928 -0.4924993,-0.394506 -0.1479428,-0.05734 -0.2562562,-0.07393 -0.4826673,-0.07393 -0.3788585,0 -0.6136372,0.08561 -0.8311318,0.30312 -0.2519212,0.251922 -0.2531502,0.441541 -0.00555,0.857581 0.1200091,0.201656 0.1525383,0.287085 0.1538634,0.404075 l 0.00167,0.148352 -1.2812032,0.0049 c -0.7946103,0.0031 -1.3290016,-0.0077 -1.4070567,-0.02855 z"
     id="path1-5" />
  <path
     style="fill:url(#linearGradient25);fill-opacity:1;stroke:none;stroke-width:0.282392;stroke-dasharray:none;stroke-dashoffset:2.2;stroke-opacity:0.3"
     d="M 5.0834942,12.278005 C 4.9086682,12.231481 4.7260495,12.04014 4.6793079,11.854512 4.6547095,11.756819 4.6417261,11.346089 4.6417261,10.665469 V 9.6256777 h 0.1383525 c 0.088288,0 0.1909881,0.029792 0.2838108,0.082316 C 5.6572292,10.043753 5.7770441,10.0515 6.0563838,9.7721617 6.19782,9.6307183 6.2385939,9.5623126 6.2979613,9.3668591 6.5065364,8.6801712 6.1718934,7.9065945 5.6662634,7.9065945 c -0.1367506,0 -0.2300759,0.038581 -0.5030198,0.2079496 -0.1611273,0.099983 -0.2419042,0.1296263 -0.3567912,0.1309337 l -0.1485088,0.00167 V 7.3713909 6.4956319 L 4.7439611,6.3493234 C 4.7969495,6.259194 4.8841303,6.1720127 4.9710095,6.1222746 5.1119611,6.0415804 5.1126259,6.0415293 6.1417679,6.0313673 l 1.029727,-0.010172 0.018885,-0.075252 C 7.2188391,5.8325507 7.1580792,5.6549159 7.0030918,5.3984033 6.882127,5.1982001 6.8635575,5.1429337 6.8635575,4.9831257 c 0,-0.1574667 0.014602,-0.2025124 0.1001744,-0.3089851 C 7.022348,4.6012073 7.155554,4.5023997 7.2848168,4.4359727 7.4938292,4.3285626 7.5225003,4.3225878 7.8171353,4.325036 8.276096,4.328852 8.5848428,4.4682064 8.7468689,4.7446834 8.8543864,4.9281478 8.8464819,5.0413538 8.7080021,5.3012655 8.4832294,5.723143 8.4653146,5.7684604 8.4753988,5.8896751 l 0.00994,0.1194205 0.9568483,0.016216 c 1.0195579,0.01728 1.0249049,0.018122 1.2111209,0.1904673 0.198931,0.184116 0.198895,0.1838869 0.209959,1.3243505 0.0097,1.0042765 0.01259,1.0452796 0.07372,1.0646806 0.104545,0.033182 0.260161,-0.015424 0.492276,-0.1537663 0.120629,-0.071896 0.272124,-0.1488711 0.336657,-0.1710565 0.254544,-0.087507 0.5002,0.058599 0.666504,0.3964073 0.101887,0.2069573 0.107367,0.236391 0.107367,0.576252 0,0.3398617 -0.0055,0.3692952 -0.107367,0.5762514 -0.166304,0.3378091 -0.41196,0.4839151 -0.666504,0.3964081 -0.06453,-0.02219 -0.216028,-0.09917 -0.336657,-0.171056 -0.232291,-0.138449 -0.387729,-0.1869491 -0.492532,-0.1536869 -0.06129,0.019458 -0.06422,0.058491 -0.07371,0.9835929 -0.0098,0.95857 -0.01024,0.964031 -0.09062,1.104364 -0.04974,0.08688 -0.13692,0.174058 -0.227049,0.227049 -0.142444,0.08375 -0.162777,0.0863 -0.7694559,0.09659 l -0.6231488,0.01057 -0.020537,-0.08183 c -0.023293,-0.09282 0.032147,-0.289078 0.1157118,-0.40963 C 9.4581549,11.527977 9.5244116,11.243173 9.4280738,11.056876 9.3531178,10.911925 9.1409172,10.741948 8.9355745,10.66237 8.7876317,10.60503 8.6793183,10.58844 8.4529072,10.58844 c -0.3788585,0 -0.6136372,0.08561 -0.8311318,0.30312 -0.2519212,0.251922 -0.2531502,0.441541 -0.00555,0.857581 0.1200091,0.201656 0.1525383,0.287085 0.1538634,0.404075 l 0.00167,0.148352 -1.2812032,0.0049 c -0.7946103,0.0031 -1.3290016,-0.0077 -1.4070567,-0.02855 z"
     id="path1" />
  <rect
     style="opacity:0.5;fill:none;fill-opacity:0.996424;stroke:url(#linearGradient9);stroke-width:0.566102;stroke-dasharray:none;stroke-opacity:1"
     id="rect1-2-6"
     width="11.574203"
     height="11.508601"
     x="2.729686"
     y="2.6615164"
     rx="2.0246315"
     ry="2.0627522" />
</svg>
