<?xml version="1.0" encoding="UTF-8" standalone="no"?>
<svg
   width="64"
   height="64"
   version="1.1"
   viewBox="0 0 16.933 16.933"
   id="svg7"
   sodipodi:docname="Template 4.svg"
   inkscape:version="1.3.2 (091e20ef0f, 2023-11-25)"
   xmlns:inkscape="http://www.inkscape.org/namespaces/inkscape"
   xmlns:sodipodi="http://sodipodi.sourceforge.net/DTD/sodipodi-0.dtd"
   xmlns:xlink="http://www.w3.org/1999/xlink"
   xmlns="http://www.w3.org/2000/svg"
   xmlns:svg="http://www.w3.org/2000/svg"
   xmlns:rdf="http://www.w3.org/1999/02/22-rdf-syntax-ns#"
   xmlns:cc="http://creativecommons.org/ns#"
   xmlns:dc="http://purl.org/dc/elements/1.1/">
  <sodipodi:namedview
     id="namedview7"
     pagecolor="#9c4444"
     bordercolor="#000000"
     borderopacity="0.25"
     inkscape:showpageshadow="2"
     inkscape:pageopacity="0.0"
     inkscape:pagecheckerboard="0"
     inkscape:deskcolor="#d1d1d1"
     inkscape:zoom="4.3531261"
     inkscape:cx="32.964816"
     inkscape:cy="24.350317"
     inkscape:window-width="1463"
     inkscape:window-height="604"
     inkscape:window-x="199"
     inkscape:window-y="276"
     inkscape:window-maximized="0"
     inkscape:current-layer="svg7"
     showgrid="false" />
  <defs
     id="defs2">
    <linearGradient
       id="linearGradient5"
       inkscape:collect="always">
      <stop
         style="stop-color:#392713;stop-opacity:1;"
         offset="0"
         id="stop2" />
      <stop
         style="stop-color:#eed59e;stop-opacity:1;"
         offset="0.5"
         id="stop3" />
      <stop
         style="stop-color:#beaa8a;stop-opacity:1;"
         offset="1"
         id="stop4" />
    </linearGradient>
    <linearGradient
       id="linearGradient8"
       inkscape:collect="always">
      <stop
         style="stop-color:#1a1a1a;stop-opacity:1;"
         offset="0"
         id="stop8" />
      <stop
         style="stop-color:#ffffff;stop-opacity:0;"
         offset="1"
         id="stop9" />
    </linearGradient>
    <linearGradient
       inkscape:collect="always"
       xlink:href="#linearGradient5"
       id="linearGradient41"
       x1="13.675659"
       y1="16.110115"
       x2="13.728528"
       y2="10.548769"
       gradientUnits="userSpaceOnUse"
       gradientTransform="matrix(2.046153,0,0,2.046153,-18.798306,-18.911347)" />
    <linearGradient
       inkscape:collect="always"
       xlink:href="#linearGradient42"
       id="linearGradient4"
       x1="11.885941"
       y1="16.50819"
       x2="12.026573"
       y2="10.244942"
       gradientUnits="userSpaceOnUse"
       gradientTransform="matrix(2.046153,0,0,2.046153,-18.798306,-18.911347)" />
    <linearGradient
       id="linearGradient42"
       inkscape:collect="always">
      <stop
         style="stop-color:#010101;stop-opacity:1;"
         offset="0"
         id="stop42" />
      <stop
         style="stop-color:#6e6c6d;stop-opacity:1;"
         offset="1"
         id="stop43" />
    </linearGradient>
    <linearGradient
       inkscape:collect="always"
       xlink:href="#linearGradient8"
       id="linearGradient9"
       x1="9.3404646"
       y1="4.1692023"
       x2="9.4279938"
       y2="16.46883"
       gradientUnits="userSpaceOnUse"
       gradientTransform="matrix(1.05,0,0,1.05,-0.50277005,-0.1977751)" />
    <filter
       style="color-interpolation-filters:sRGB;"
       inkscape:label="Blur"
       id="filter2"
       x="-0.14510849"
       y="-0.14612901"
       width="1.290217"
       height="1.292258">
      <feGaussianBlur
         stdDeviation="0.6 0.6"
         result="blur"
         id="feGaussianBlur2" />
    </filter>
    <linearGradient
       inkscape:collect="always"
       xlink:href="#linearGradient5"
       id="linearGradient29"
       x1="31.980471"
       y1="46.529064"
       x2="31.646406"
       y2="17.947861"
       gradientUnits="userSpaceOnUse"
       gradientTransform="matrix(0.23573911,0,0,0.23573911,0.93633927,0.78498791)" />
  </defs>
  <metadata
     id="metadata2">
    <rdf:RDF>
      <cc:Work
         rdf:about="">
        <dc:format>image/svg+xml</dc:format>
        <dc:type
           rdf:resource="http://purl.org/dc/dcmitype/StillImage" />
      </cc:Work>
    </rdf:RDF>
  </metadata>
  <rect
     style="fill:#000000;fill-opacity:0.996424;stroke:#000000;stroke-width:0.911802;stroke-dasharray:none;stroke-opacity:1;filter:url(#filter2)"
     id="rect1-2-3"
     width="13.065404"
     height="12.974159"
     x="1.9816793"
     y="1.9267306"
     rx="2.7149384"
     ry="2.8310909" />
  <rect
     style="fill:url(#linearGradient4);fill-opacity:0.996424;stroke:url(#linearGradient41);stroke-width:0.911802;stroke-dasharray:none;stroke-opacity:1"
     id="rect1-2"
     width="13.065404"
     height="12.974159"
     x="1.9816793"
     y="1.9267306"
     rx="2.7149384"
     ry="2.8310909" />
  <path
     id="path1-6"
     style="fill:#000000;fill-opacity:1;stroke:none;stroke-width:0.254153;stroke-dasharray:none;stroke-dashoffset:2.2;stroke-opacity:0.3;opacity:0.3"
     d="M 10.739862,5.6213881 C 10.606311,5.621332 10.463356,5.6751109 10.284444,5.7799398 9.8586942,6.0293943 9.3018941,6.1470407 8.5372583,6.1470407 7.7726974,6.1470407 7.1973228,6.026891 6.774109,5.7788755 6.4347473,5.5800058 6.232144,5.57737 5.9473362,5.7694035 5.2161397,6.2621568 4.6650658,7.8420088 4.5034037,9.9064748 c -0.096943,1.2379692 -0.0064,1.8906352 0.3138972,2.2579372 0.1544761,0.177083 0.5336943,0.147062 0.875722,-0.07023 0.2899313,-0.184197 0.6353823,-0.590652 1.0481006,-1.233255 0.3729492,-0.580683 0.8240555,-0.771937 1.8216724,-0.773572 0.9956326,-0.0016 1.3869063,0.186823 1.8461461,0.892746 0.770496,1.184365 1.482674,1.596691 1.900411,1.100239 0.231425,-0.275031 0.273784,-0.540757 0.262823,-1.647165 C 12.552202,8.4233254 12.026834,6.5949284 11.269766,5.897085 11.068137,5.711229 10.911584,5.621564 10.739862,5.6214918 Z M 6.4144577,6.8056866 H 6.8762595 7.3380618 V 7.2015179 7.5973498 H 7.7338935 8.1297231 V 8.0921387 8.5869258 H 7.7338935 7.3380618 V 9.0157421 9.4445588 H 6.9198871 c -0.2297353,0 -0.4365561,-0.020592 -0.4607398,-0.044683 -0.02417,-0.02417 -0.044683,-0.2161521 -0.044683,-0.427752 V 8.5869258 H 6.0186267 5.6227947 V 8.0921387 7.5973498 h 0.395832 0.395831 V 7.2015179 Z m 3.7646473,0 c 0.416607,0 0.59502,0.4615913 0.294745,0.76187 C 10.282885,7.7584989 10.108601,7.7735072 9.9205386,7.6143809 9.5943369,7.3383593 9.7646011,6.8056947 10.179105,6.8056947 Z m -0.8012376,0.845929 c 0.1040257,7.25e-5 0.2087686,0.041534 0.2915513,0.1329985 0.1290452,0.1425944 0.1429845,0.4690663 0.026602,0.6214126 C 9.468266,8.7041872 8.9213848,8.512402 8.9213848,8.1346922 c 0,-0.2866664 0.2276197,-0.4832414 0.4564811,-0.4830846 z m 1.6354606,0.016061 c 0.119915,0.00223 0.236315,0.0419 0.304323,0.1170404 0.129036,0.1425946 0.142977,0.4690643 0.0266,0.6214124 -0.242252,0.3171321 -0.774637,0.1048717 -0.774637,-0.3085785 0,-0.1253195 0.0502,-0.2611543 0.120236,-0.3245382 0.08005,-0.072442 0.203585,-0.1075284 0.323475,-0.1053425 z m -0.805494,0.8533739 c 0.369345,0 0.549057,0.3917672 0.325602,0.7107938 -0.07641,0.109051 -0.169548,0.1468364 -0.361782,0.1468364 -0.2213182,0 -0.2726758,-0.028804 -0.361778,-0.2011147 -0.1756841,-0.3397435 0.016062,-0.6565258 0.397958,-0.6565258 z" />
  <path
     id="path1"
     style="fill:url(#linearGradient29);fill-opacity:1;stroke:none;stroke-width:0.254153;stroke-dasharray:none;stroke-dashoffset:2.2;stroke-opacity:0.3"
     d="M 10.739862,5.0922319 C 10.606311,5.0921758 10.463356,5.1459547 10.284444,5.2507836 9.8586942,5.5002381 9.3018941,5.6178845 8.5372583,5.6178845 7.7726974,5.6178845 7.1973228,5.4977348 6.774109,5.2497193 6.4347473,5.0508496 6.232144,5.0482138 5.9473362,5.2402473 5.2161397,5.7330006 4.6650658,7.3128526 4.5034037,9.3773186 c -0.096943,1.2379694 -0.0064,1.8906354 0.3138972,2.2579374 0.1544761,0.177083 0.5336943,0.147062 0.875722,-0.07023 0.2899313,-0.184197 0.6353823,-0.590652 1.0481006,-1.233255 0.3729492,-0.5806836 0.8240555,-0.7719368 1.8216724,-0.7735719 0.9956326,-0.00163 1.3869063,0.186823 1.8461461,0.8927459 0.770496,1.184365 1.482674,1.596691 1.900411,1.100239 0.231425,-0.275031 0.273784,-0.540757 0.262823,-1.6471655 C 12.552202,7.8941692 12.026834,6.0657722 11.269766,5.3679288 11.068137,5.1820728 10.911584,5.0924078 10.739862,5.0923356 Z M 6.4144577,6.2765304 H 6.8762595 7.3380618 V 6.6723617 7.0681936 H 7.7338935 8.1297231 V 7.5629825 8.0577696 H 7.7338935 7.3380618 V 8.4865859 8.9154026 H 6.9198871 c -0.2297353,0 -0.4365561,-0.020592 -0.4607398,-0.044683 -0.02417,-0.02417 -0.044683,-0.2161521 -0.044683,-0.427752 V 8.0577696 H 6.0186267 5.6227947 V 7.5629825 7.0681936 h 0.395832 0.395831 V 6.6723617 Z m 3.7646473,0 c 0.416607,0 0.59502,0.4615913 0.294745,0.76187 C 10.282885,7.2293427 10.108601,7.244351 9.9205386,7.0852247 9.5943369,6.8092031 9.7646011,6.2765385 10.179105,6.2765385 Z m -0.8012376,0.845929 c 0.1040257,7.25e-5 0.2087686,0.041534 0.2915513,0.1329985 0.1290452,0.1425944 0.1429845,0.4690662 0.026602,0.6214126 C 9.468266,8.175031 8.9213848,7.9832458 8.9213848,7.605536 c 0,-0.2866664 0.2276197,-0.4832414 0.4564811,-0.4830846 z m 1.6354606,0.016061 c 0.119915,0.00223 0.236315,0.0419 0.304323,0.1170404 0.129036,0.1425946 0.142977,0.4690643 0.0266,0.6214124 -0.242252,0.3171321 -0.774637,0.1048717 -0.774637,-0.3085785 0,-0.1253195 0.0502,-0.2611543 0.120236,-0.3245382 0.08005,-0.072442 0.203585,-0.1075284 0.323475,-0.1053425 z m -0.805494,0.8533739 c 0.369345,0 0.549057,0.3917672 0.325602,0.7107938 -0.07641,0.109051 -0.169548,0.1468364 -0.361782,0.1468364 -0.2213182,0 -0.2726758,-0.028804 -0.361778,-0.2011147 C 9.6341919,8.3086663 9.8259383,7.991884 10.207834,7.991884 Z" />
  <rect
     style="opacity:0.5;fill:none;fill-opacity:0.996424;stroke:url(#linearGradient9);stroke-width:0.566102;stroke-dasharray:none;stroke-opacity:1"
     id="rect1-2-6"
     width="11.574203"
     height="11.508601"
     x="2.729686"
     y="2.6615164"
     rx="2.0246315"
     ry="2.0627522" />
</svg>
