<?xml version="1.0" encoding="UTF-8" standalone="no"?>
<svg
   width="64"
   height="64"
   version="1.1"
   viewBox="0 0 16.933 16.933"
   id="svg7"
   sodipodi:docname="Template 4.svg"
   inkscape:version="1.3.2 (091e20ef0f, 2023-11-25)"
   xmlns:inkscape="http://www.inkscape.org/namespaces/inkscape"
   xmlns:sodipodi="http://sodipodi.sourceforge.net/DTD/sodipodi-0.dtd"
   xmlns:xlink="http://www.w3.org/1999/xlink"
   xmlns="http://www.w3.org/2000/svg"
   xmlns:svg="http://www.w3.org/2000/svg"
   xmlns:rdf="http://www.w3.org/1999/02/22-rdf-syntax-ns#"
   xmlns:cc="http://creativecommons.org/ns#"
   xmlns:dc="http://purl.org/dc/elements/1.1/">
  <sodipodi:namedview
     id="namedview7"
     pagecolor="#9c4444"
     bordercolor="#000000"
     borderopacity="0.25"
     inkscape:showpageshadow="2"
     inkscape:pageopacity="0.0"
     inkscape:pagecheckerboard="0"
     inkscape:deskcolor="#d1d1d1"
     inkscape:zoom="4.3531261"
     inkscape:cx="32.964816"
     inkscape:cy="24.350317"
     inkscape:window-width="1463"
     inkscape:window-height="604"
     inkscape:window-x="199"
     inkscape:window-y="276"
     inkscape:window-maximized="0"
     inkscape:current-layer="svg7"
     showgrid="false" />
  <defs
     id="defs2">
    <linearGradient
       id="linearGradient5"
       inkscape:collect="always">
      <stop
         style="stop-color:#392713;stop-opacity:1;"
         offset="0"
         id="stop2" />
      <stop
         style="stop-color:#eed59e;stop-opacity:1;"
         offset="0.5"
         id="stop3" />
      <stop
         style="stop-color:#beaa8a;stop-opacity:1;"
         offset="1"
         id="stop4" />
    </linearGradient>
    <linearGradient
       id="linearGradient8"
       inkscape:collect="always">
      <stop
         style="stop-color:#1a1a1a;stop-opacity:1;"
         offset="0"
         id="stop8" />
      <stop
         style="stop-color:#ffffff;stop-opacity:0;"
         offset="1"
         id="stop9" />
    </linearGradient>
    <linearGradient
       inkscape:collect="always"
       xlink:href="#linearGradient5"
       id="linearGradient41"
       x1="13.675659"
       y1="16.110115"
       x2="13.728528"
       y2="10.548769"
       gradientUnits="userSpaceOnUse"
       gradientTransform="matrix(2.046153,0,0,2.046153,-18.798306,-18.911347)" />
    <linearGradient
       inkscape:collect="always"
       xlink:href="#linearGradient42"
       id="linearGradient4"
       x1="11.885941"
       y1="16.50819"
       x2="12.026573"
       y2="10.244942"
       gradientUnits="userSpaceOnUse"
       gradientTransform="matrix(2.046153,0,0,2.046153,-18.798306,-18.911347)" />
    <linearGradient
       id="linearGradient42"
       inkscape:collect="always">
      <stop
         style="stop-color:#010101;stop-opacity:1;"
         offset="0"
         id="stop42" />
      <stop
         style="stop-color:#6e6c6d;stop-opacity:1;"
         offset="1"
         id="stop43" />
    </linearGradient>
    <linearGradient
       inkscape:collect="always"
       xlink:href="#linearGradient8"
       id="linearGradient9"
       x1="9.3404646"
       y1="4.1692023"
       x2="9.4279938"
       y2="16.46883"
       gradientUnits="userSpaceOnUse"
       gradientTransform="matrix(1.05,0,0,1.05,-0.50277005,-0.1977751)" />
    <filter
       style="color-interpolation-filters:sRGB;"
       inkscape:label="Blur"
       id="filter2"
       x="-0.14510849"
       y="-0.14612901"
       width="1.290217"
       height="1.292258">
      <feGaussianBlur
         stdDeviation="0.6 0.6"
         result="blur"
         id="feGaussianBlur2" />
    </filter>
    <linearGradient
       inkscape:collect="always"
       xlink:href="#linearGradient5"
       id="linearGradient5-6"
       x1="34.32732"
       y1="47.348625"
       x2="34.971176"
       y2="16.988379"
       gradientUnits="userSpaceOnUse"
       gradientTransform="matrix(0.23573911,0,0,0.23573911,0.9477627,0.92018755)" />
  </defs>
  <metadata
     id="metadata2">
    <rdf:RDF>
      <cc:Work
         rdf:about="">
        <dc:format>image/svg+xml</dc:format>
        <dc:type
           rdf:resource="http://purl.org/dc/dcmitype/StillImage" />
      </cc:Work>
    </rdf:RDF>
  </metadata>
  <rect
     style="fill:#000000;fill-opacity:0.996424;stroke:#000000;stroke-width:0.911802;stroke-dasharray:none;stroke-opacity:1;filter:url(#filter2)"
     id="rect1-2-3"
     width="13.065404"
     height="12.974159"
     x="1.9816793"
     y="1.9267306"
     rx="2.7149384"
     ry="2.8310909" />
  <rect
     style="fill:url(#linearGradient4);fill-opacity:0.996424;stroke:url(#linearGradient41);stroke-width:0.911802;stroke-dasharray:none;stroke-opacity:1"
     id="rect1-2"
     width="13.065404"
     height="12.974159"
     x="1.9816793"
     y="1.9267306"
     rx="2.7149384"
     ry="2.8310909" />
  <path
     id="path10-4"
     style="fill:#000000;fill-opacity:1;stroke-width:0.0421221;stroke-opacity:0.3;opacity:0.3"
     d="m 11.689182,5.3516471 c -0.04167,2.025e-4 -0.08446,0.00647 -0.127126,0.019246 -0.326509,0.097825 -0.419296,0.3287257 -0.421888,1.0473816 l -0.0021,0.5150807 0.115979,-0.045582 c 0.06371,-0.024979 0.258268,-0.045583 0.43202,-0.045583 0.173753,0 0.367803,0.020604 0.431513,0.045583 l 0.116028,0.045582 V 6.3954829 c 0,-0.4737601 -0.0112,-0.5596465 -0.09471,-0.7252662 C 12.035589,5.4653373 11.869723,5.35077 11.689159,5.3516466 Z m -6.21997,0.00659 C 5.2006455,5.3605439 4.9467927,5.6113704 4.9465332,6.018165 v 0.2410803 l 0.1078783,-0.041024 c 0.059423,-0.022594 0.2476105,-0.041024 0.4183453,-0.041024 0.1707361,0 0.3594251,0.01843 0.4188518,0.041024 l 0.1078777,0.041024 V 6.0181629 C 5.9993785,5.8534885 5.9729775,5.7342793 5.9169317,5.6423615 5.7965621,5.4449517 5.6303519,5.3568447 5.4692115,5.3582316 Z m 3.1061867,0 c -0.1593736,9.886e-4 -0.319811,0.085814 -0.4335398,0.2582986 -0.072067,0.1092996 -0.077742,0.2294037 -0.077996,1.601967 L 8.0633443,8.702462 8.171223,8.661438 C 8.3083507,8.609306 8.8008609,8.608019 8.9800568,8.659418 L 9.1162976,8.698414 V 7.2590177 C 9.1162391,5.97157 9.1087511,5.8039334 9.0428583,5.6747773 8.9354252,5.4640878 8.7560103,5.3571198 8.5753865,5.3582329 Z M 5.4489523,6.4820924 c -0.7467114,0.010372 -1.3825427,0.779967 -1.1122105,1.5938634 0.093786,0.2823623 0.4231869,0.6267143 0.6948786,0.726279 0.2595765,0.095127 0.719871,0.071752 0.9546984,-0.048621 C 6.40427,8.5393725 6.6502466,8.1376695 6.6482755,7.672299 6.6462953,7.2067672 6.4014051,6.8189576 5.9741635,6.6051651 5.7998231,6.5179244 5.6212725,6.4796991 5.4489523,6.4820924 Z m 6.2604867,0.6644895 c -0.379086,5.187e-4 -0.65522,0.1225792 -0.895947,0.3960601 -0.407563,0.4630296 -0.409381,1.1009705 -0.004,1.5614494 0.197376,0.2242301 0.431191,0.3555127 0.704501,0.3960601 0.542149,0.080433 1.007794,-0.1691372 1.277319,-0.685255 0.128635,-0.2463816 0.127812,-0.7343437 -0.002,-0.9830596 C 12.549544,7.3725595 12.192486,7.1459055 11.709445,7.1465798 Z M 8.596164,8.920749 C 8.1308287,8.9158693 7.7693314,9.1308391 7.5356139,9.5528245 7.4277706,9.7475394 7.410698,9.8222311 7.4115283,10.094748 c 7.543e-4,0.247493 0.022228,0.356963 0.099269,0.505457 0.1895002,0.365264 0.4860757,0.596801 0.8620125,0.6731 0.7412146,0.150439 1.4747984,-0.507579 1.40647,-1.261112 C 9.7413394,9.5938087 9.4815935,9.2093479 9.105673,9.0149526 9.0308818,8.9762739 8.8443358,8.9352734 8.6908738,8.9242943 c -0.031942,-0.00229 -0.063687,-0.00321 -0.094707,-0.00355 z M 4.9465332,9.0828197 v 1.5391643 c 0,1.704849 0.00765,1.760099 0.2608328,1.914459 0.076683,0.04676 0.1958909,0.08509 0.2653908,0.08509 0.069499,0 0.1892103,-0.03833 0.2658973,-0.08509 0.2531826,-0.15436 0.2608322,-0.20961 0.2608322,-1.914459 V 9.0828176 l -0.1792909,0.031908 c -0.09846,0.01765 -0.25477,0.031909 -0.3474386,0.031909 -0.092669,0 -0.2489801,-0.014261 -0.3474399,-0.031909 z m 6.1916098,0.6386595 5.18e-4,1.1658948 c 1.34e-4,0.661587 0.0187,1.232706 0.04306,1.320369 0.02407,0.08667 0.107986,0.2113 0.190937,0.284131 0.204328,0.179403 0.422177,0.179403 0.626506,0 0.08294,-0.07283 0.166875,-0.197465 0.190939,-0.284131 0.02435,-0.08766 0.04292,-0.658782 0.04305,-1.320369 l 5.19e-4,-1.1658947 -0.136749,0.038998 c -0.175943,0.050459 -0.646059,0.050459 -0.822001,0 z m -2.0218341,1.7650498 -0.1154752,0.04508 c -0.1438602,0.05561 -0.5686928,0.06869 -0.7794585,0.02431 l -0.1580195,-0.03292 v 0.353516 c 0,0.298443 0.0152,0.376098 0.096226,0.496342 0.052817,0.07837 0.1428336,0.166036 0.2000559,0.19499 0.254982,0.129023 0.5518584,0.01726 0.6751259,-0.254248 0.056091,-0.123537 0.079879,-0.27329 0.080526,-0.501406 z" />
  <path
     id="path10"
     style="fill:url(#linearGradient5-6);fill-opacity:1;stroke-width:0.0421221;stroke-opacity:0.3"
     d="m 11.689182,4.8224909 c -0.04167,2.025e-4 -0.08446,0.00647 -0.127126,0.019246 -0.326509,0.097825 -0.419296,0.3287257 -0.421888,1.0473816 l -0.0021,0.5150807 0.115979,-0.045582 c 0.06371,-0.024979 0.258268,-0.045583 0.43202,-0.045583 0.173753,0 0.367803,0.020604 0.431513,0.045583 l 0.116028,0.045582 V 5.8663267 c 0,-0.4737601 -0.0112,-0.5596465 -0.09471,-0.7252662 C 12.035589,4.9361811 11.869723,4.8216138 11.689159,4.8224904 Z m -6.21997,0.00659 C 5.2006455,4.8313877 4.9467927,5.0822142 4.9465332,5.4890088 v 0.2410803 l 0.1078783,-0.041024 c 0.059423,-0.022594 0.2476105,-0.041024 0.4183453,-0.041024 0.1707361,0 0.3594251,0.01843 0.4188518,0.041024 l 0.1078777,0.041024 V 5.4890067 C 5.9993785,5.3243323 5.9729775,5.2051231 5.9169317,5.1132053 5.7965621,4.9157955 5.6303519,4.8276885 5.4692115,4.8290754 Z m 3.1061867,0 c -0.1593736,9.886e-4 -0.319811,0.085814 -0.4335398,0.2582986 -0.072067,0.1092996 -0.077742,0.2294037 -0.077996,1.601967 L 8.0633443,8.1733058 8.171223,8.1322818 c 0.1371277,-0.052132 0.6296379,-0.053419 0.8088338,-0.00202 l 0.1362408,0.038996 V 6.7298615 C 9.1162391,5.4424138 9.1087511,5.2747772 9.0428583,5.1456211 8.9354252,4.9349316 8.7560103,4.8279636 8.5753865,4.8290767 Z M 5.4489523,5.9529362 c -0.7467114,0.010372 -1.3825427,0.779967 -1.1122105,1.5938634 0.093786,0.2823623 0.4231869,0.6267143 0.6948786,0.726279 0.2595765,0.095127 0.719871,0.071752 0.9546984,-0.048621 C 6.40427,8.0102163 6.6502466,7.6085133 6.6482755,7.1431428 6.6462953,6.677611 6.4014051,6.2898014 5.9741635,6.0760089 5.7998231,5.9887682 5.6212725,5.9505429 5.4489523,5.9529362 Z m 6.2604867,0.6644895 c -0.379086,5.187e-4 -0.65522,0.1225792 -0.895947,0.3960601 -0.407563,0.4630296 -0.409381,1.1009705 -0.004,1.5614494 0.197376,0.2242301 0.431191,0.3555127 0.704501,0.3960601 0.542149,0.080433 1.007794,-0.1691372 1.277319,-0.685255 0.128635,-0.2463816 0.127812,-0.7343437 -0.002,-0.9830596 C 12.549544,6.8434033 12.192486,6.6167493 11.709445,6.6174236 Z M 8.596164,8.3915928 C 8.1308287,8.3867131 7.7693314,8.6016829 7.5356139,9.0236683 7.4277706,9.2183832 7.410698,9.2930749 7.4115283,9.5655918 c 7.543e-4,0.2474932 0.022228,0.3569626 0.099269,0.5054572 0.1895002,0.365264 0.4860757,0.596801 0.8620125,0.6731 0.7412146,0.150439 1.4747984,-0.507579 1.40647,-1.2611119 C 9.7413394,9.0646525 9.4815935,8.6801917 9.105673,8.4857964 9.0308818,8.4471177 8.8443358,8.4061172 8.6908738,8.3951381 c -0.031942,-0.00229 -0.063687,-0.00321 -0.094707,-0.00355 z M 4.9465332,8.5536635 v 1.5391645 c 0,1.704849 0.00765,1.760099 0.2608328,1.914459 0.076683,0.04676 0.1958909,0.08509 0.2653908,0.08509 0.069499,0 0.1892103,-0.03833 0.2658973,-0.08509 0.2531826,-0.15436 0.2608322,-0.20961 0.2608322,-1.914459 V 8.5536614 l -0.1792909,0.031908 c -0.09846,0.01765 -0.25477,0.031909 -0.3474386,0.031909 -0.092669,0 -0.2489801,-0.014261 -0.3474399,-0.031909 z m 6.1916098,0.6386595 5.18e-4,1.165895 c 1.34e-4,0.661587 0.0187,1.232706 0.04306,1.320369 0.02407,0.08667 0.107986,0.2113 0.190937,0.284131 0.204328,0.179403 0.422177,0.179403 0.626506,0 0.08294,-0.07283 0.166875,-0.197465 0.190939,-0.284131 0.02435,-0.08766 0.04292,-0.658782 0.04305,-1.320369 l 5.19e-4,-1.165895 -0.136749,0.038998 c -0.175943,0.050459 -0.646059,0.050459 -0.822001,0 z m -2.0218341,1.76505 -0.1154752,0.04508 c -0.1438602,0.05561 -0.5686928,0.06869 -0.7794585,0.02431 l -0.1580195,-0.03292 v 0.353516 c 0,0.298443 0.0152,0.376098 0.096226,0.496342 0.052817,0.07837 0.1428336,0.166036 0.2000559,0.19499 0.254982,0.129023 0.5518584,0.01726 0.6751259,-0.254248 0.056091,-0.123537 0.079879,-0.27329 0.080526,-0.501406 z" />
  <rect
     style="opacity:0.5;fill:none;fill-opacity:0.996424;stroke:url(#linearGradient9);stroke-width:0.566102;stroke-dasharray:none;stroke-opacity:1"
     id="rect1-2-6"
     width="11.574203"
     height="11.508601"
     x="2.729686"
     y="2.6615164"
     rx="2.0246315"
     ry="2.0627522" />
</svg>
