<?xml version="1.0" encoding="UTF-8" standalone="no"?>
<svg
   width="64"
   height="64"
   version="1.1"
   viewBox="0 0 16.933 16.933"
   id="svg7"
   sodipodi:docname="Template 4.svg"
   inkscape:version="1.3.2 (091e20ef0f, 2023-11-25)"
   xmlns:inkscape="http://www.inkscape.org/namespaces/inkscape"
   xmlns:sodipodi="http://sodipodi.sourceforge.net/DTD/sodipodi-0.dtd"
   xmlns:xlink="http://www.w3.org/1999/xlink"
   xmlns="http://www.w3.org/2000/svg"
   xmlns:svg="http://www.w3.org/2000/svg"
   xmlns:rdf="http://www.w3.org/1999/02/22-rdf-syntax-ns#"
   xmlns:cc="http://creativecommons.org/ns#"
   xmlns:dc="http://purl.org/dc/elements/1.1/">
  <sodipodi:namedview
     id="namedview7"
     pagecolor="#9c4444"
     bordercolor="#000000"
     borderopacity="0.25"
     inkscape:showpageshadow="2"
     inkscape:pageopacity="0.0"
     inkscape:pagecheckerboard="0"
     inkscape:deskcolor="#d1d1d1"
     inkscape:zoom="4.3531261"
     inkscape:cx="32.964816"
     inkscape:cy="24.350317"
     inkscape:window-width="1463"
     inkscape:window-height="604"
     inkscape:window-x="199"
     inkscape:window-y="276"
     inkscape:window-maximized="0"
     inkscape:current-layer="svg7"
     showgrid="false" />
  <defs
     id="defs2">
    <linearGradient
       id="linearGradient5"
       inkscape:collect="always">
      <stop
         style="stop-color:#392713;stop-opacity:1;"
         offset="0"
         id="stop2" />
      <stop
         style="stop-color:#eed59e;stop-opacity:1;"
         offset="0.5"
         id="stop3" />
      <stop
         style="stop-color:#beaa8a;stop-opacity:1;"
         offset="1"
         id="stop4" />
    </linearGradient>
    <linearGradient
       id="linearGradient8"
       inkscape:collect="always">
      <stop
         style="stop-color:#1a1a1a;stop-opacity:1;"
         offset="0"
         id="stop8" />
      <stop
         style="stop-color:#ffffff;stop-opacity:0;"
         offset="1"
         id="stop9" />
    </linearGradient>
    <linearGradient
       inkscape:collect="always"
       xlink:href="#linearGradient5"
       id="linearGradient41"
       x1="13.675659"
       y1="16.110115"
       x2="13.728528"
       y2="10.548769"
       gradientUnits="userSpaceOnUse"
       gradientTransform="matrix(2.046153,0,0,2.046153,-18.798306,-18.911347)" />
    <linearGradient
       inkscape:collect="always"
       xlink:href="#linearGradient42"
       id="linearGradient4"
       x1="11.885941"
       y1="16.50819"
       x2="12.026573"
       y2="10.244942"
       gradientUnits="userSpaceOnUse"
       gradientTransform="matrix(2.046153,0,0,2.046153,-18.798306,-18.911347)" />
    <linearGradient
       id="linearGradient42"
       inkscape:collect="always">
      <stop
         style="stop-color:#010101;stop-opacity:1;"
         offset="0"
         id="stop42" />
      <stop
         style="stop-color:#6e6c6d;stop-opacity:1;"
         offset="1"
         id="stop43" />
    </linearGradient>
    <linearGradient
       inkscape:collect="always"
       xlink:href="#linearGradient8"
       id="linearGradient9"
       x1="9.3404646"
       y1="4.1692023"
       x2="9.4279938"
       y2="16.46883"
       gradientUnits="userSpaceOnUse"
       gradientTransform="matrix(1.05,0,0,1.05,-0.50277005,-0.1977751)" />
    <filter
       style="color-interpolation-filters:sRGB;"
       inkscape:label="Blur"
       id="filter2"
       x="-0.14510849"
       y="-0.14612901"
       width="1.290217"
       height="1.292258">
      <feGaussianBlur
         stdDeviation="0.6 0.6"
         result="blur"
         id="feGaussianBlur2" />
    </filter>
    <linearGradient
       inkscape:collect="always"
       xlink:href="#linearGradient5"
       id="linearGradient49"
       x1="31.840088"
       y1="51.376331"
       x2="32.327072"
       y2="13.925896"
       gradientUnits="userSpaceOnUse"
       gradientTransform="matrix(0.2121652,0,0,0.2121652,1.6933025,1.6684667)" />
  </defs>
  <metadata
     id="metadata2">
    <rdf:RDF>
      <cc:Work
         rdf:about="">
        <dc:format>image/svg+xml</dc:format>
        <dc:type
           rdf:resource="http://purl.org/dc/dcmitype/StillImage" />
      </cc:Work>
    </rdf:RDF>
  </metadata>
  <rect
     style="fill:#000000;fill-opacity:0.996424;stroke:#000000;stroke-width:0.911802;stroke-dasharray:none;stroke-opacity:1;filter:url(#filter2)"
     id="rect1-2-3"
     width="13.065404"
     height="12.974159"
     x="1.9816793"
     y="1.9267306"
     rx="2.7149384"
     ry="2.8310909" />
  <rect
     style="fill:url(#linearGradient4);fill-opacity:0.996424;stroke:url(#linearGradient41);stroke-width:0.911802;stroke-dasharray:none;stroke-opacity:1"
     id="rect1-2"
     width="13.065404"
     height="12.974159"
     x="1.9816793"
     y="1.9267306"
     rx="2.7149384"
     ry="2.8310909" />
  <path
     id="path50-6"
     style="fill:#000000;fill-opacity:1;stroke:none;stroke-width:0.256721;stroke-dasharray:none;stroke-dashoffset:2.2;stroke-opacity:0.3;opacity:0.3"
     d="M 8.5070482,5.1094287 C 8.2384858,5.1093749 7.9724941,5.1271934 7.8015698,5.1630794 7.4330399,5.2404524 6.9654106,5.4035534 6.6849386,5.5526715 L 6.4382468,5.6840402 H 6.0657022 C 5.7353036,5.6842948 5.6764697,5.692338 5.5457441,5.7542365 5.367379,5.838703 5.230672,5.9777369 5.1501347,6.1558628 5.100416,6.265826 5.0900035,6.3501889 5.0894648,6.6502493 L 5.0889556,7.0122646 4.927515,7.3431926 C 4.6161189,7.9829693 4.5155677,8.4198743 4.517365,9.1191728 4.519165,9.818459 4.6289692,10.279988 4.944563,10.911197 l 0.1444049,0.287807 v 0.369035 c 0,0.25961 0.012787,0.40003 0.043622,0.473829 0.075056,0.179634 0.215386,0.328053 0.3920993,0.414663 0.1526346,0.07481 0.2067577,0.08412 0.58113,0.09878 0.3794723,0.01484 0.4241087,0.02254 0.5475352,0.09526 0.2970283,0.175028 0.8022645,0.347172 1.2364672,0.42068 0.1216332,0.02059 0.3874331,0.03852 0.5901549,0.04011 0.6341272,0.0049 1.1943412,-0.120381 1.7544205,-0.3926 l 0.323907,-0.157442 0.398118,-0.01253 c 0.342284,-0.01074 0.416894,-0.02234 0.530989,-0.08073 0.180761,-0.09251 0.286249,-0.196253 0.377057,-0.37104 0.06899,-0.132806 0.07738,-0.186957 0.08774,-0.545529 l 0.01154,-0.397616 0.127357,-0.250703 C 12.363084,10.366905 12.486795,9.8731153 12.509278,9.2370055 12.533731,8.5452637 12.41841,7.9861319 12.12871,7.3943387 L 11.977286,7.0844688 11.959237,6.6863526 C 11.939241,6.2370486 11.894086,6.0922255 11.71705,5.9151889 11.534522,5.7326608 11.430016,5.6996677 11.001041,5.6890549 L 10.617466,5.6795288 10.293055,5.5220871 C 9.9318603,5.3465048 9.6190127,5.2411552 9.2280693,5.1635825 9.0468505,5.1276304 8.77561,5.1094846 8.5070476,5.1094304 Z M 5.7578388,6.0791483 c 0.013895,-0.00102 0.028132,-0.00108 0.042117,0 0.067136,0.00513 0.1341912,0.034412 0.1895318,0.089752 C 6.1324353,6.3118474 6.1055523,6.5244513 5.9313246,6.630695 5.6717505,6.7889833 5.3758985,6.5159171 5.5151583,6.2466175 5.5681945,6.1440578 5.6605579,6.0862834 5.7578388,6.0791483 Z m 5.5114552,0 c 0.07604,0.00411 0.144161,0.040896 0.202567,0.110309 0.101761,0.1209346 0.09937,0.2621033 -0.0065,0.3795645 -0.09785,0.1085418 -0.25056,0.1385836 -0.368032,0.072703 -0.102069,-0.057242 -0.140895,-0.1298095 -0.140895,-0.2647423 0,-0.1461568 0.0452,-0.2184568 0.167972,-0.2697565 0.05094,-0.021284 0.09928,-0.030545 0.144905,-0.028078 z M 8.5085526,6.2195417 c 0.9224453,-0.00305 1.8616534,0.4814187 2.3876954,1.2459944 0.143769,0.2089604 0.348851,0.6574471 0.419176,0.91657 0.09364,0.3450044 0.0937,1.1055822 5.09e-4,1.4420439 -0.286511,1.034325 -1.004519,1.767727 -2.0251793,2.0683 -0.3633332,0.106995 -0.9964958,0.128665 -1.3713454,0.04663 C 7.0677816,11.752701 6.3627243,11.217756 5.9594121,10.452913 4.988015,8.6107509 6.2344707,6.3839837 8.3245442,6.2270628 c 0.061222,-0.0046 0.12252,-0.00732 0.1840165,-0.00751 z m 0.012534,1.9163738 c -0.018318,2.334e-4 -0.03709,5.729e-4 -0.056157,0.0015 -0.3791155,0.018306 -0.6815623,0.2139809 -0.8443672,0.5460377 -0.099244,0.2024186 -0.1116527,0.5532013 -0.027579,0.7771789 0.110402,0.2941122 0.3649668,0.5211875 0.6784024,0.6056989 0.3177943,0.08569 0.6456099,0.0038 0.8950097,-0.2241287 C 9.6038904,9.4423575 9.6118058,8.7925764 9.1839484,8.3906319 8.9889576,8.2074518 8.7958404,8.1324634 8.5210898,8.1359174 Z m 2.7597394,3.4130705 c 0.05427,0.0046 0.108718,0.02485 0.157443,0.06317 0.151898,0.119484 0.127601,0.398598 -0.04212,0.486364 -0.214537,0.110942 -0.439734,-0.01777 -0.439734,-0.251706 0,-0.186207 0.161591,-0.311597 0.324409,-0.297835 z m -5.499923,0.003 c 0.1385703,0 0.2406536,0.06944 0.2807872,0.191035 0.04297,0.130202 0.012586,0.235425 -0.093763,0.324911 -0.2441903,0.205444 -0.6004791,-0.08085 -0.4537722,-0.364551 0.057821,-0.111816 0.1281758,-0.151425 0.266748,-0.151425 z" />
  <path
     id="path50"
     style="fill:url(#linearGradient49);fill-opacity:1;stroke:none;stroke-width:0.256721;stroke-dasharray:none;stroke-dashoffset:2.2;stroke-opacity:0.3"
     d="M 8.5070482,4.5802725 C 8.2384858,4.5802187 7.9724941,4.5980372 7.8015698,4.6339232 7.4330399,4.7112962 6.9654106,4.8743972 6.6849386,5.0235153 L 6.4382468,5.154884 H 6.0657022 C 5.7353036,5.1551386 5.6764697,5.1631818 5.5457441,5.2250803 5.367379,5.3095468 5.230672,5.4485807 5.1501347,5.6267066 5.100416,5.7366698 5.0900035,5.8210327 5.0894648,6.1210931 L 5.0889556,6.4831084 4.927515,6.8140364 c -0.3113961,0.6397767 -0.4119473,1.0766817 -0.41015,1.7759802 0.0018,0.6992862 0.1116042,1.1608152 0.427198,1.7920244 l 0.1444049,0.287807 v 0.369035 c 0,0.25961 0.012787,0.40003 0.043622,0.473829 0.075056,0.179634 0.215386,0.328053 0.3920993,0.414663 0.1526346,0.07481 0.2067577,0.08412 0.58113,0.09878 0.3794723,0.01484 0.4241087,0.02254 0.5475352,0.09526 0.2970283,0.175028 0.8022645,0.347172 1.2364672,0.42068 0.1216332,0.02059 0.3874331,0.03852 0.5901549,0.04011 0.6341272,0.0049 1.1943412,-0.120381 1.7544205,-0.3926 l 0.323907,-0.157442 0.398118,-0.01253 c 0.342284,-0.01074 0.416894,-0.02234 0.530989,-0.08073 0.180761,-0.09251 0.286249,-0.196253 0.377057,-0.37104 0.06899,-0.132806 0.07738,-0.186957 0.08774,-0.545529 l 0.01154,-0.397616 0.127357,-0.250703 C 12.363084,9.8377488 12.486795,9.3439591 12.509278,8.7078493 12.533731,8.0161075 12.41841,7.4569757 12.12871,6.8651825 L 11.977286,6.5553126 11.959237,6.1571964 C 11.939241,5.7078924 11.894086,5.5630693 11.71705,5.3860327 11.534522,5.2035046 11.430016,5.1705115 11.001041,5.1598987 L 10.617466,5.1503726 10.293055,4.9929309 C 9.9318603,4.8173486 9.6190127,4.711999 9.2280693,4.6344263 9.0468505,4.5984742 8.77561,4.5803284 8.5070476,4.5802742 Z M 5.7578388,5.5499921 c 0.013895,-0.00102 0.028132,-0.00108 0.042117,0 0.067136,0.00513 0.1341912,0.034412 0.1895318,0.089752 0.1429477,0.1429471 0.1160647,0.355551 -0.058163,0.4617947 C 5.6717505,6.2598271 5.3758985,5.9867609 5.5151583,5.7174613 5.5681945,5.6149016 5.6605579,5.5571272 5.7578388,5.5499921 Z m 5.5114552,0 c 0.07604,0.00411 0.144161,0.040896 0.202567,0.110309 0.101761,0.1209346 0.09937,0.2621033 -0.0065,0.3795645 -0.09785,0.1085418 -0.25056,0.1385836 -0.368032,0.072703 -0.102069,-0.057242 -0.140895,-0.1298095 -0.140895,-0.2647423 0,-0.1461568 0.0452,-0.2184568 0.167972,-0.2697565 0.05094,-0.021284 0.09928,-0.030545 0.144905,-0.028078 z M 8.5085526,5.6903855 c 0.9224453,-0.00305 1.8616534,0.4814187 2.3876954,1.2459944 0.143769,0.2089604 0.348851,0.6574471 0.419176,0.91657 0.09364,0.3450044 0.0937,1.1055822 5.09e-4,1.4420439 C 11.029422,10.329319 10.311414,11.062721 9.2907537,11.363294 8.9274205,11.470289 8.2942579,11.491959 7.9194083,11.409926 7.0677816,11.223545 6.3627243,10.6886 5.9594121,9.9237564 4.988015,8.0815947 6.2344707,5.8548275 8.3245442,5.6979066 c 0.061222,-0.0046 0.12252,-0.00732 0.1840165,-0.00751 z m 0.012534,1.9163738 c -0.018318,2.334e-4 -0.03709,5.729e-4 -0.056157,0.0015 C 8.0858141,7.626565 7.7833673,7.8222402 7.6205624,8.154297 7.5213181,8.3567156 7.5089097,8.7074983 7.5929838,8.9314759 7.7033858,9.2255881 7.9579506,9.4526634 8.2713862,9.5371749 8.5891805,9.6228608 8.9169961,9.5409833 9.1663959,9.3130461 9.6038904,8.9132013 9.6118058,8.2634202 9.1839484,7.8614757 8.9889576,7.6782956 8.7958404,7.6033072 8.5210898,7.6067612 Z M 11.280826,11.01983 c 0.05427,0.0046 0.108718,0.02485 0.157443,0.06317 0.151898,0.119484 0.127601,0.398598 -0.04212,0.486364 -0.214537,0.110942 -0.439734,-0.01777 -0.439734,-0.251706 0,-0.186207 0.161591,-0.311597 0.324409,-0.297835 z m -5.499923,0.003 c 0.1385703,0 0.2406536,0.06944 0.2807872,0.191035 0.04297,0.130202 0.012586,0.235425 -0.093763,0.324911 C 5.7237369,11.74422 5.3674481,11.457926 5.514155,11.174225 5.5719755,11.062409 5.6423308,11.0228 5.780903,11.0228 Z" />
  <rect
     style="opacity:0.5;fill:none;fill-opacity:0.996424;stroke:url(#linearGradient9);stroke-width:0.566102;stroke-dasharray:none;stroke-opacity:1"
     id="rect1-2-6"
     width="11.574203"
     height="11.508601"
     x="2.729686"
     y="2.6615164"
     rx="2.0246315"
     ry="2.0627522" />
</svg>
