<?xml version="1.0" encoding="UTF-8" standalone="no"?>
<svg
   width="64"
   height="64"
   version="1.1"
   viewBox="0 0 16.933 16.933"
   id="svg7"
   sodipodi:docname="Template 4.svg"
   inkscape:version="1.3.2 (091e20ef0f, 2023-11-25)"
   xmlns:inkscape="http://www.inkscape.org/namespaces/inkscape"
   xmlns:sodipodi="http://sodipodi.sourceforge.net/DTD/sodipodi-0.dtd"
   xmlns:xlink="http://www.w3.org/1999/xlink"
   xmlns="http://www.w3.org/2000/svg"
   xmlns:svg="http://www.w3.org/2000/svg"
   xmlns:rdf="http://www.w3.org/1999/02/22-rdf-syntax-ns#"
   xmlns:cc="http://creativecommons.org/ns#"
   xmlns:dc="http://purl.org/dc/elements/1.1/">
  <sodipodi:namedview
     id="namedview7"
     pagecolor="#9c4444"
     bordercolor="#000000"
     borderopacity="0.25"
     inkscape:showpageshadow="2"
     inkscape:pageopacity="0.0"
     inkscape:pagecheckerboard="0"
     inkscape:deskcolor="#d1d1d1"
     inkscape:zoom="4.3531261"
     inkscape:cx="32.964816"
     inkscape:cy="24.350317"
     inkscape:window-width="1463"
     inkscape:window-height="604"
     inkscape:window-x="199"
     inkscape:window-y="276"
     inkscape:window-maximized="0"
     inkscape:current-layer="svg7"
     showgrid="false" />
  <defs
     id="defs2">
    <linearGradient
       id="linearGradient5"
       inkscape:collect="always">
      <stop
         style="stop-color:#392713;stop-opacity:1;"
         offset="0"
         id="stop2" />
      <stop
         style="stop-color:#eed59e;stop-opacity:1;"
         offset="0.5"
         id="stop3" />
      <stop
         style="stop-color:#beaa8a;stop-opacity:1;"
         offset="1"
         id="stop4" />
    </linearGradient>
    <linearGradient
       id="linearGradient8"
       inkscape:collect="always">
      <stop
         style="stop-color:#1a1a1a;stop-opacity:1;"
         offset="0"
         id="stop8" />
      <stop
         style="stop-color:#ffffff;stop-opacity:0;"
         offset="1"
         id="stop9" />
    </linearGradient>
    <linearGradient
       inkscape:collect="always"
       xlink:href="#linearGradient5"
       id="linearGradient41"
       x1="13.675659"
       y1="16.110115"
       x2="13.728528"
       y2="10.548769"
       gradientUnits="userSpaceOnUse"
       gradientTransform="matrix(2.046153,0,0,2.046153,-18.798306,-18.911347)" />
    <linearGradient
       inkscape:collect="always"
       xlink:href="#linearGradient42"
       id="linearGradient4"
       x1="11.885941"
       y1="16.50819"
       x2="12.026573"
       y2="10.244942"
       gradientUnits="userSpaceOnUse"
       gradientTransform="matrix(2.046153,0,0,2.046153,-18.798306,-18.911347)" />
    <linearGradient
       id="linearGradient42"
       inkscape:collect="always">
      <stop
         style="stop-color:#010101;stop-opacity:1;"
         offset="0"
         id="stop42" />
      <stop
         style="stop-color:#6e6c6d;stop-opacity:1;"
         offset="1"
         id="stop43" />
    </linearGradient>
    <linearGradient
       inkscape:collect="always"
       xlink:href="#linearGradient8"
       id="linearGradient9"
       x1="9.3404646"
       y1="4.1692023"
       x2="9.4279938"
       y2="16.46883"
       gradientUnits="userSpaceOnUse"
       gradientTransform="matrix(1.05,0,0,1.05,-0.50277005,-0.1977751)" />
    <filter
       style="color-interpolation-filters:sRGB;"
       inkscape:label="Blur"
       id="filter2"
       x="-0.14510849"
       y="-0.14612901"
       width="1.290217"
       height="1.292258">
      <feGaussianBlur
         stdDeviation="0.6 0.6"
         result="blur"
         id="feGaussianBlur2" />
    </filter>
    <linearGradient
       inkscape:collect="always"
       xlink:href="#linearGradient5"
       id="linearGradient61"
       x1="31.207048"
       y1="51.871422"
       x2="30.284731"
       y2="11.887678"
       gradientUnits="userSpaceOnUse"
       gradientTransform="matrix(0.23573911,0,0,0.23573911,0.90355768,0.83354866)" />
  </defs>
  <metadata
     id="metadata2">
    <rdf:RDF>
      <cc:Work
         rdf:about="">
        <dc:format>image/svg+xml</dc:format>
        <dc:type
           rdf:resource="http://purl.org/dc/dcmitype/StillImage" />
      </cc:Work>
    </rdf:RDF>
  </metadata>
  <rect
     style="fill:#000000;fill-opacity:0.996424;stroke:#000000;stroke-width:0.911802;stroke-dasharray:none;stroke-opacity:1;filter:url(#filter2)"
     id="rect1-2-3"
     width="13.065404"
     height="12.974159"
     x="1.9816793"
     y="1.9267306"
     rx="2.7149384"
     ry="2.8310909" />
  <rect
     style="fill:url(#linearGradient4);fill-opacity:0.996424;stroke:url(#linearGradient41);stroke-width:0.911802;stroke-dasharray:none;stroke-opacity:1"
     id="rect1-2"
     width="13.065404"
     height="12.974159"
     x="1.9816793"
     y="1.9267306"
     rx="2.7149384"
     ry="2.8310909" />
  <path
     id="path17-9"
     style="fill:#000000;fill-opacity:1;stroke:none;stroke-width:0.282392;stroke-dasharray:none;stroke-dashoffset:2.2;stroke-opacity:0.3;opacity:0.3"
     d="m 8.190459,4.1439737 c -0.062994,0.00845 -0.1263982,0.061566 -0.1704277,0.1467116 -0.042085,0.081384 -0.049088,0.3664779 -0.049088,2.025831 0,1.0623372 -0.010889,1.9316954 -0.024269,1.9315158 C 7.9332966,8.2478531 7.422601,7.8260027 6.812144,7.3109545 6.2016874,6.7959058 5.6782004,6.3654641 5.6483809,6.354021 c -0.029821,-0.011443 -0.089491,0.00224 -0.1323714,0.030335 -0.132015,0.0865 -0.1773941,0.2868755 -0.1020366,0.4522679 0.020969,0.046021 0.5501828,0.5156405 1.1758974,1.043526 0.6257132,0.5278865 1.1409098,0.9765503 1.1450103,0.9966452 0.0041,0.020094 -0.4962916,0.4449592 -1.1124691,0.9442477 -0.6161782,0.4992888 -1.1431376,0.9328388 -1.1709339,0.9635518 -0.082975,0.09168 -0.089485,0.317238 -0.012685,0.439581 0.1256024,0.200093 0.1425141,0.190412 1.3645265,-0.802499 0.6147624,-0.4995059 1.1290746,-0.9083969 1.1428041,-0.9083969 0.01373,0 0.024819,0.8602899 0.024819,1.9116599 0,1.249425 0.011492,1.942987 0.033644,2.002668 0.018644,0.05022 0.058331,0.109518 0.087696,0.131819 0.029366,0.0223 0.084651,0.04081 0.1229951,0.04081 0.071978,0 2.8413307,-2.092375 3.0075837,-2.272372 0.119332,-0.129201 0.127342,-0.391227 0.016,-0.521213 C 11.198813,10.759902 10.633027,10.316056 9.9818849,9.8204907 9.3307391,9.3249249 8.786609,8.9096895 8.7723399,8.897202 8.7580731,8.8847148 9.2944504,8.4541586 9.9647849,7.9408204 10.635117,7.4274813 11.212463,6.970745 11.247682,6.9259741 c 0.07357,-0.093524 0.08594,-0.3379182 0.02262,-0.4511655 -0.041,-0.073326 -2.9142441,-2.2854575 -3.0180646,-2.3236658 -0.020214,-0.00744 -0.040775,-0.00999 -0.061774,-0.00716 z m 0.2857014,0.9580365 c 0.033247,0 2.0572686,1.5606129 2.0572686,1.5862483 0,0.013718 -0.455116,0.3742816 -1.0115365,0.8008452 -0.55642,0.4265648 -1.0235666,0.7800076 -1.0380107,0.7859547 -0.014442,0.00595 -0.026473,-0.7051096 -0.026473,-1.5807329 0,-0.8756234 0.00857,-1.5923153 0.018752,-1.5923153 z m 0.00552,4.3792804 c 0.046952,8.991e-4 2.0352066,1.5451944 2.0352066,1.5807324 0,0.01976 -0.457947,0.387359 -1.0181545,0.816842 -0.5602071,0.42948 -1.023539,0.780438 -1.0297374,0.780438 -0.00619,0 -0.011582,-0.71487 -0.011582,-1.589006 0,-0.874136 0.010889,-1.5892685 0.024267,-1.5890064 z" />
  <path
     id="path17"
     style="fill:url(#linearGradient61);fill-opacity:1;stroke:none;stroke-width:0.282392;stroke-dasharray:none;stroke-dashoffset:2.2;stroke-opacity:0.3"
     d="m 8.190459,3.6148175 c -0.062994,0.00845 -0.1263982,0.061566 -0.1704277,0.1467116 -0.042085,0.081384 -0.049088,0.3664779 -0.049088,2.025831 0,1.0623372 -0.010889,1.9316954 -0.024269,1.9315158 C 7.9332966,7.7186969 7.422601,7.2968465 6.812144,6.7817983 6.2016874,6.2667496 5.6782004,5.8363079 5.6483809,5.8248648 5.6185601,5.8134221 5.55889,5.8271044 5.5160095,5.8552002 5.3839945,5.9417 5.3386154,6.1420757 5.4139729,6.3074681 c 0.020969,0.046021 0.5501828,0.5156405 1.1758974,1.043526 0.6257132,0.5278865 1.1409098,0.9765503 1.1450103,0.9966452 0.0041,0.020094 -0.4962916,0.4449592 -1.1124691,0.9442477 -0.6161782,0.4992887 -1.1431376,0.932839 -1.1709339,0.963552 -0.082975,0.09168 -0.089485,0.317238 -0.012685,0.439581 0.1256024,0.200093 0.1425141,0.190412 1.3645265,-0.8024991 0.6147624,-0.499506 1.1290746,-0.908397 1.1428041,-0.908397 0.01373,0 0.024819,0.8602902 0.024819,1.9116601 0,1.249425 0.011492,1.942987 0.033644,2.002668 0.018644,0.05022 0.058331,0.109518 0.087696,0.131819 0.029366,0.0223 0.084651,0.04081 0.1229951,0.04081 0.071978,0 2.8413307,-2.092375 3.0075837,-2.272372 0.119332,-0.129201 0.127342,-0.391227 0.016,-0.521213 C 11.198813,10.230746 10.633027,9.7868996 9.9818849,9.2913345 9.3307391,8.7957687 8.786609,8.3805333 8.7723399,8.3680458 8.7580731,8.3555586 9.2944504,7.9250024 9.9647849,7.4116642 10.635117,6.8983251 11.212463,6.4415888 11.247682,6.3968179 c 0.07357,-0.093524 0.08594,-0.3379182 0.02262,-0.4511655 -0.041,-0.073326 -2.9142441,-2.2854575 -3.0180646,-2.3236658 -0.020214,-0.00744 -0.040775,-0.00999 -0.061774,-0.00716 z M 8.4761604,4.572854 c 0.033247,0 2.0572686,1.5606129 2.0572686,1.5862483 0,0.013718 -0.455116,0.3742816 -1.0115365,0.8008452 -0.55642,0.4265648 -1.0235666,0.7800075 -1.0380107,0.7859546 -0.014442,0.00595 -0.026473,-0.7051095 -0.026473,-1.5807328 0,-0.8756234 0.00857,-1.5923153 0.018752,-1.5923153 z m 0.00552,4.3792804 c 0.046952,8.991e-4 2.0352066,1.5451946 2.0352066,1.5807326 0,0.01976 -0.457947,0.387359 -1.0181545,0.816842 -0.5602071,0.42948 -1.023539,0.780438 -1.0297374,0.780438 -0.00619,0 -0.011582,-0.71487 -0.011582,-1.589006 0,-0.8741365 0.010889,-1.5892687 0.024267,-1.5890066 z" />
  <rect
     style="opacity:0.5;fill:none;fill-opacity:0.996424;stroke:url(#linearGradient9);stroke-width:0.566102;stroke-dasharray:none;stroke-opacity:1"
     id="rect1-2-6"
     width="11.574203"
     height="11.508601"
     x="2.729686"
     y="2.6615164"
     rx="2.0246315"
     ry="2.0627522" />
</svg>
