<?xml version="1.0" encoding="UTF-8" standalone="no"?>
<svg
   width="64"
   height="64"
   version="1.1"
   viewBox="0 0 16.933 16.933"
   id="svg7"
   sodipodi:docname="Template 4.svg"
   inkscape:version="1.3.2 (091e20ef0f, 2023-11-25)"
   xmlns:inkscape="http://www.inkscape.org/namespaces/inkscape"
   xmlns:sodipodi="http://sodipodi.sourceforge.net/DTD/sodipodi-0.dtd"
   xmlns:xlink="http://www.w3.org/1999/xlink"
   xmlns="http://www.w3.org/2000/svg"
   xmlns:svg="http://www.w3.org/2000/svg"
   xmlns:rdf="http://www.w3.org/1999/02/22-rdf-syntax-ns#"
   xmlns:cc="http://creativecommons.org/ns#"
   xmlns:dc="http://purl.org/dc/elements/1.1/">
  <sodipodi:namedview
     id="namedview7"
     pagecolor="#9c4444"
     bordercolor="#000000"
     borderopacity="0.25"
     inkscape:showpageshadow="2"
     inkscape:pageopacity="0.0"
     inkscape:pagecheckerboard="0"
     inkscape:deskcolor="#d1d1d1"
     inkscape:zoom="4.3531261"
     inkscape:cx="32.964816"
     inkscape:cy="24.350317"
     inkscape:window-width="1463"
     inkscape:window-height="604"
     inkscape:window-x="199"
     inkscape:window-y="276"
     inkscape:window-maximized="0"
     inkscape:current-layer="svg7"
     showgrid="false" />
  <defs
     id="defs2">
    <linearGradient
       id="linearGradient5"
       inkscape:collect="always">
      <stop
         style="stop-color:#392713;stop-opacity:1;"
         offset="0"
         id="stop2" />
      <stop
         style="stop-color:#eed59e;stop-opacity:1;"
         offset="0.5"
         id="stop3" />
      <stop
         style="stop-color:#beaa8a;stop-opacity:1;"
         offset="1"
         id="stop4" />
    </linearGradient>
    <linearGradient
       id="linearGradient8"
       inkscape:collect="always">
      <stop
         style="stop-color:#1a1a1a;stop-opacity:1;"
         offset="0"
         id="stop8" />
      <stop
         style="stop-color:#ffffff;stop-opacity:0;"
         offset="1"
         id="stop9" />
    </linearGradient>
    <linearGradient
       inkscape:collect="always"
       xlink:href="#linearGradient5"
       id="linearGradient41"
       x1="13.675659"
       y1="16.110115"
       x2="13.728528"
       y2="10.548769"
       gradientUnits="userSpaceOnUse"
       gradientTransform="matrix(2.046153,0,0,2.046153,-18.798306,-18.911347)" />
    <linearGradient
       inkscape:collect="always"
       xlink:href="#linearGradient42"
       id="linearGradient4"
       x1="11.885941"
       y1="16.50819"
       x2="12.026573"
       y2="10.244942"
       gradientUnits="userSpaceOnUse"
       gradientTransform="matrix(2.046153,0,0,2.046153,-18.798306,-18.911347)" />
    <linearGradient
       id="linearGradient42"
       inkscape:collect="always">
      <stop
         style="stop-color:#010101;stop-opacity:1;"
         offset="0"
         id="stop42" />
      <stop
         style="stop-color:#6e6c6d;stop-opacity:1;"
         offset="1"
         id="stop43" />
    </linearGradient>
    <linearGradient
       inkscape:collect="always"
       xlink:href="#linearGradient8"
       id="linearGradient9"
       x1="9.3404646"
       y1="4.1692023"
       x2="9.4279938"
       y2="16.46883"
       gradientUnits="userSpaceOnUse"
       gradientTransform="matrix(1.05,0,0,1.05,-0.50277005,-0.1977751)" />
    <filter
       style="color-interpolation-filters:sRGB;"
       inkscape:label="Blur"
       id="filter2"
       x="-0.14510849"
       y="-0.14612901"
       width="1.290217"
       height="1.292258">
      <feGaussianBlur
         stdDeviation="0.6 0.6"
         result="blur"
         id="feGaussianBlur2" />
    </filter>
    <linearGradient
       inkscape:collect="always"
       xlink:href="#linearGradient5"
       id="linearGradient55"
       x1="32.955112"
       y1="50.818073"
       x2="33.194405"
       y2="13.607299"
       gradientUnits="userSpaceOnUse"
       gradientTransform="matrix(0.23573911,0,0,0.23573911,0.93757766,0.92617497)" />
  </defs>
  <metadata
     id="metadata2">
    <rdf:RDF>
      <cc:Work
         rdf:about="">
        <dc:format>image/svg+xml</dc:format>
        <dc:type
           rdf:resource="http://purl.org/dc/dcmitype/StillImage" />
      </cc:Work>
    </rdf:RDF>
  </metadata>
  <rect
     style="fill:#000000;fill-opacity:0.996424;stroke:#000000;stroke-width:0.911802;stroke-dasharray:none;stroke-opacity:1;filter:url(#filter2)"
     id="rect1-2-3"
     width="13.065404"
     height="12.974159"
     x="1.9816793"
     y="1.9267306"
     rx="2.7149384"
     ry="2.8310909" />
  <rect
     style="fill:url(#linearGradient4);fill-opacity:0.996424;stroke:url(#linearGradient41);stroke-width:0.911802;stroke-dasharray:none;stroke-opacity:1"
     id="rect1-2"
     width="13.065404"
     height="12.974159"
     x="1.9816793"
     y="1.9267306"
     rx="2.7149384"
     ry="2.8310909" />
  <path
     style="color:#6e6e6e;fill:#000000;fill-opacity:1;stroke:none;stroke-width:0.282392;stroke-dasharray:none;stroke-opacity:0.3;opacity:0.3"
     class="ColorScheme-Text"
     d="m 6.4554193,4.6240562 c -1.0356121,0 -1.0356121,1.1723982 -1.0356121,1.1723982 v 6.4481876 c 0,1.172397 0.9803627,1.170289 1.0356121,1.172397 h 4.1424487 c 0,0 1.035612,-0.0023 1.035612,-1.172397 V 5.7964544 c 0,-1.1723982 -1.035612,-1.1723982 -1.035612,-1.1723982 z m 2.0712244,1.1723982 c 0.2869008,0 0.5178061,0.2634665 0.5178061,0.5861988 0,0.3227841 -0.2309053,0.5861988 -0.5178061,0.5861988 -0.2869886,0 -0.5178062,-0.2634147 -0.5178062,-0.5861988 0,-0.3227323 0.2308176,-0.5861988 0.5178062,-0.5861988 z m 0,1.7585966 c 1.1438856,0 2.0712243,1.0498236 2.0712243,2.3447958 0,1.2949712 -0.9273387,2.3447952 -2.0712243,2.3447952 -1.1438852,0 -2.0712244,-1.049824 -2.0712244,-2.3447952 0,-1.2949722 0.9273392,-2.3447958 2.0712244,-2.3447958 z m 0,1.1723978 c -0.5719686,0 -1.0356123,0.5249006 -1.0356123,1.172398 0,0.6474982 0.4636592,1.1723972 1.0356123,1.1723972 0.571953,0 1.0356125,-0.524899 1.0356125,-1.1723972 0,-0.6474974 -0.4636595,-1.172398 -1.0356125,-1.172398 z"
     id="path5-9" />
  <path
     style="color:#6e6e6e;fill:url(#linearGradient55);fill-opacity:1;stroke:none;stroke-width:0.282392;stroke-dasharray:none;stroke-opacity:0.3"
     class="ColorScheme-Text"
     d="m 6.4554193,4.0949 c -1.0356121,0 -1.0356121,1.1723982 -1.0356121,1.1723982 v 6.4481878 c 0,1.172397 0.9803627,1.170289 1.0356121,1.172397 h 4.1424487 c 0,0 1.035612,-0.0023 1.035612,-1.172397 V 5.2672982 C 11.63348,4.0949 10.597868,4.0949 10.597868,4.0949 Z m 2.0712244,1.1723982 c 0.2869008,0 0.5178061,0.2634665 0.5178061,0.5861988 0,0.3227841 -0.2309053,0.5861988 -0.5178061,0.5861988 -0.2869886,0 -0.5178062,-0.2634147 -0.5178062,-0.5861988 0,-0.3227323 0.2308176,-0.5861988 0.5178062,-0.5861988 z m 0,1.7585966 c 1.1438856,0 2.0712243,1.0498236 2.0712243,2.3447958 0,1.2949714 -0.9273387,2.3447954 -2.0712243,2.3447954 -1.1438852,0 -2.0712244,-1.049824 -2.0712244,-2.3447954 0,-1.2949722 0.9273392,-2.3447958 2.0712244,-2.3447958 z m 0,1.1723978 c -0.5719686,0 -1.0356123,0.5249006 -1.0356123,1.172398 0,0.6474984 0.4636592,1.1723974 1.0356123,1.1723974 0.571953,0 1.0356125,-0.524899 1.0356125,-1.1723974 0,-0.6474974 -0.4636595,-1.172398 -1.0356125,-1.172398 z"
     id="path5" />
  <rect
     style="opacity:0.5;fill:none;fill-opacity:0.996424;stroke:url(#linearGradient9);stroke-width:0.566102;stroke-dasharray:none;stroke-opacity:1"
     id="rect1-2-6"
     width="11.574203"
     height="11.508601"
     x="2.729686"
     y="2.6615164"
     rx="2.0246315"
     ry="2.0627522" />
</svg>
