<?xml version="1.0" encoding="UTF-8" standalone="no"?>
<svg
   width="64"
   height="64"
   version="1.1"
   viewBox="0 0 16.933 16.933"
   id="svg7"
   sodipodi:docname="Template 4.svg"
   inkscape:version="1.3.2 (091e20ef0f, 2023-11-25)"
   xmlns:inkscape="http://www.inkscape.org/namespaces/inkscape"
   xmlns:sodipodi="http://sodipodi.sourceforge.net/DTD/sodipodi-0.dtd"
   xmlns:xlink="http://www.w3.org/1999/xlink"
   xmlns="http://www.w3.org/2000/svg"
   xmlns:svg="http://www.w3.org/2000/svg"
   xmlns:rdf="http://www.w3.org/1999/02/22-rdf-syntax-ns#"
   xmlns:cc="http://creativecommons.org/ns#"
   xmlns:dc="http://purl.org/dc/elements/1.1/">
  <sodipodi:namedview
     id="namedview7"
     pagecolor="#9c4444"
     bordercolor="#000000"
     borderopacity="0.25"
     inkscape:showpageshadow="2"
     inkscape:pageopacity="0.0"
     inkscape:pagecheckerboard="0"
     inkscape:deskcolor="#d1d1d1"
     inkscape:zoom="4.3531261"
     inkscape:cx="32.964816"
     inkscape:cy="24.350317"
     inkscape:window-width="1463"
     inkscape:window-height="604"
     inkscape:window-x="199"
     inkscape:window-y="276"
     inkscape:window-maximized="0"
     inkscape:current-layer="svg7"
     showgrid="false" />
  <defs
     id="defs2">
    <linearGradient
       id="linearGradient5"
       inkscape:collect="always">
      <stop
         style="stop-color:#392713;stop-opacity:1;"
         offset="0"
         id="stop2" />
      <stop
         style="stop-color:#eed59e;stop-opacity:1;"
         offset="0.5"
         id="stop3" />
      <stop
         style="stop-color:#beaa8a;stop-opacity:1;"
         offset="1"
         id="stop4" />
    </linearGradient>
    <linearGradient
       id="linearGradient8"
       inkscape:collect="always">
      <stop
         style="stop-color:#1a1a1a;stop-opacity:1;"
         offset="0"
         id="stop8" />
      <stop
         style="stop-color:#ffffff;stop-opacity:0;"
         offset="1"
         id="stop9" />
    </linearGradient>
    <linearGradient
       inkscape:collect="always"
       xlink:href="#linearGradient5"
       id="linearGradient41"
       x1="13.675659"
       y1="16.110115"
       x2="13.728528"
       y2="10.548769"
       gradientUnits="userSpaceOnUse"
       gradientTransform="matrix(2.046153,0,0,2.046153,-18.798306,-18.911347)" />
    <linearGradient
       inkscape:collect="always"
       xlink:href="#linearGradient42"
       id="linearGradient4"
       x1="11.885941"
       y1="16.50819"
       x2="12.026573"
       y2="10.244942"
       gradientUnits="userSpaceOnUse"
       gradientTransform="matrix(2.046153,0,0,2.046153,-18.798306,-18.911347)" />
    <linearGradient
       id="linearGradient42"
       inkscape:collect="always">
      <stop
         style="stop-color:#010101;stop-opacity:1;"
         offset="0"
         id="stop42" />
      <stop
         style="stop-color:#6e6c6d;stop-opacity:1;"
         offset="1"
         id="stop43" />
    </linearGradient>
    <linearGradient
       inkscape:collect="always"
       xlink:href="#linearGradient8"
       id="linearGradient9"
       x1="9.3404646"
       y1="4.1692023"
       x2="9.4279938"
       y2="16.46883"
       gradientUnits="userSpaceOnUse"
       gradientTransform="matrix(1.05,0,0,1.05,-0.50277005,-0.1977751)" />
    <filter
       style="color-interpolation-filters:sRGB;"
       inkscape:label="Blur"
       id="filter2"
       x="-0.14510849"
       y="-0.14612901"
       width="1.290217"
       height="1.292258">
      <feGaussianBlur
         stdDeviation="0.6 0.6"
         result="blur"
         id="feGaussianBlur2" />
    </filter>
    <linearGradient
       inkscape:collect="always"
       xlink:href="#linearGradient5"
       id="linearGradient69"
       x1="30.920349"
       y1="47.489269"
       x2="30.962494"
       y2="17.012482"
       gradientUnits="userSpaceOnUse"
       gradientTransform="matrix(0.23573911,0,0,0.23573911,0.95497443,0.88548536)" />
  </defs>
  <metadata
     id="metadata2">
    <rdf:RDF>
      <cc:Work
         rdf:about="">
        <dc:format>image/svg+xml</dc:format>
        <dc:type
           rdf:resource="http://purl.org/dc/dcmitype/StillImage" />
      </cc:Work>
    </rdf:RDF>
  </metadata>
  <rect
     style="fill:#000000;fill-opacity:0.996424;stroke:#000000;stroke-width:0.911802;stroke-dasharray:none;stroke-opacity:1;filter:url(#filter2)"
     id="rect1-2-3"
     width="13.065404"
     height="12.974159"
     x="1.9816793"
     y="1.9267306"
     rx="2.7149384"
     ry="2.8310909" />
  <rect
     style="fill:url(#linearGradient4);fill-opacity:0.996424;stroke:url(#linearGradient41);stroke-width:0.911802;stroke-dasharray:none;stroke-opacity:1"
     id="rect1-2"
     width="13.065404"
     height="12.974159"
     x="1.9816793"
     y="1.9267306"
     rx="2.7149384"
     ry="2.8310909" />
  <path
     id="path46-1"
     style="fill:#000000;fill-opacity:1;stroke-width:0.0463342;stroke-opacity:0.3;opacity:0.3"
     d="m 8.0663463,5.4604962 c -3.7676926,0 -3.6267327,-0.0099 -3.7750334,0.2768871 -0.060805,0.1175852 -0.070196,0.5611456 -0.070196,3.2908949 0,3.4477928 -0.00787,3.3462678 0.2668594,3.4953568 0.1932007,0.104837 6.9453517,0.106938 7.1478267,0.0023 0.272035,-0.140683 0.276331,-0.173963 0.276331,-2.069693 V 8.7285451 l -0.532607,0.5314904 -0.532605,0.5314907 v 0.8696608 0.869104 H 8.0663463 5.286326 V 9.0277162 6.525143 l 2.8128898,0.00223 2.8123302,0.00166 0.430654,-0.4289803 c 0.236981,-0.2359959 0.43121,-0.444562 0.43121,-0.4635221 0,-0.01896 -0.06186,-0.066416 -0.137051,-0.1052947 -0.118925,-0.061501 -0.583111,-0.070754 -3.5700127,-0.070754 z m 4.3984477,0.5615746 c -0.07294,0.00361 -0.147229,0.023183 -0.218948,0.061283 -0.146522,0.07784 -3.4521902,3.3866159 -3.5221012,3.5254424 -0.02606,0.05175 -0.062099,0.2450069 -0.080222,0.4289798 l -0.032872,0.334271 h 0.3041867 c 0.1672784,0 0.3628131,-0.02181 0.4345526,-0.04847 0.071737,-0.02666 0.9176849,-0.8343115 1.8797159,-1.795033 1.410235,-1.4083135 1.754272,-1.7764727 1.777206,-1.8986574 0.06423,-0.342383 -0.225449,-0.6234053 -0.541518,-0.6078158 z" />
  <path
     id="path46"
     style="fill:url(#linearGradient69);fill-opacity:1;stroke-width:0.0463342;stroke-opacity:0.3"
     d="m 8.0663463,4.93134 c -3.7676926,0 -3.6267327,-0.0099 -3.7750334,0.2768871 -0.060805,0.1175852 -0.070196,0.5611456 -0.070196,3.2908949 0,3.447793 -0.00787,3.346268 0.2668594,3.495357 0.1932007,0.104837 6.9453517,0.106938 7.1478267,0.0023 0.272035,-0.140683 0.276331,-0.173963 0.276331,-2.0696929 V 8.1993889 L 11.379527,8.7308793 10.846922,9.26237 v 0.869661 0.869104 H 8.0663463 5.286326 V 8.49856 5.9959868 l 2.8128898,0.00223 2.8123302,0.00166 0.430654,-0.4289803 c 0.236981,-0.2359959 0.43121,-0.444562 0.43121,-0.4635221 0,-0.01896 -0.06186,-0.066416 -0.137051,-0.1052947 -0.118925,-0.061501 -0.583111,-0.070754 -3.5700127,-0.070754 z m 4.3984477,0.5615746 c -0.07294,0.00361 -0.147229,0.023183 -0.218948,0.061283 -0.146522,0.07784 -3.4521902,3.3866159 -3.5221012,3.5254424 -0.02606,0.05175 -0.062099,0.2450069 -0.080222,0.42898 l -0.032872,0.3342703 h 0.3041867 c 0.1672784,0 0.3628131,-0.021805 0.4345526,-0.04847 0.071737,-0.026665 0.9176849,-0.834311 1.8797159,-1.7950325 1.410235,-1.4083135 1.754272,-1.7764727 1.777206,-1.8986574 0.06423,-0.342383 -0.225449,-0.6234053 -0.541518,-0.6078158 z" />
  <rect
     style="opacity:0.5;fill:none;fill-opacity:0.996424;stroke:url(#linearGradient9);stroke-width:0.566102;stroke-dasharray:none;stroke-opacity:1"
     id="rect1-2-6"
     width="11.574203"
     height="11.508601"
     x="2.729686"
     y="2.6615164"
     rx="2.0246315"
     ry="2.0627522" />
</svg>
