<?xml version="1.0" encoding="UTF-8" standalone="no"?>
<svg
   width="64"
   height="64"
   version="1.1"
   viewBox="0 0 16.933 16.933"
   id="svg7"
   sodipodi:docname="Template 4.svg"
   inkscape:version="1.3.2 (091e20ef0f, 2023-11-25)"
   xmlns:inkscape="http://www.inkscape.org/namespaces/inkscape"
   xmlns:sodipodi="http://sodipodi.sourceforge.net/DTD/sodipodi-0.dtd"
   xmlns:xlink="http://www.w3.org/1999/xlink"
   xmlns="http://www.w3.org/2000/svg"
   xmlns:svg="http://www.w3.org/2000/svg"
   xmlns:rdf="http://www.w3.org/1999/02/22-rdf-syntax-ns#"
   xmlns:cc="http://creativecommons.org/ns#"
   xmlns:dc="http://purl.org/dc/elements/1.1/">
  <sodipodi:namedview
     id="namedview7"
     pagecolor="#9c4444"
     bordercolor="#000000"
     borderopacity="0.25"
     inkscape:showpageshadow="2"
     inkscape:pageopacity="0.0"
     inkscape:pagecheckerboard="0"
     inkscape:deskcolor="#d1d1d1"
     inkscape:zoom="4.3531261"
     inkscape:cx="32.964816"
     inkscape:cy="24.350317"
     inkscape:window-width="1463"
     inkscape:window-height="604"
     inkscape:window-x="199"
     inkscape:window-y="276"
     inkscape:window-maximized="0"
     inkscape:current-layer="svg7"
     showgrid="false" />
  <defs
     id="defs2">
    <linearGradient
       id="linearGradient5"
       inkscape:collect="always">
      <stop
         style="stop-color:#392713;stop-opacity:1;"
         offset="0"
         id="stop2" />
      <stop
         style="stop-color:#eed59e;stop-opacity:1;"
         offset="0.5"
         id="stop3" />
      <stop
         style="stop-color:#beaa8a;stop-opacity:1;"
         offset="1"
         id="stop4" />
    </linearGradient>
    <linearGradient
       id="linearGradient8"
       inkscape:collect="always">
      <stop
         style="stop-color:#1a1a1a;stop-opacity:1;"
         offset="0"
         id="stop8" />
      <stop
         style="stop-color:#ffffff;stop-opacity:0;"
         offset="1"
         id="stop9" />
    </linearGradient>
    <linearGradient
       inkscape:collect="always"
       xlink:href="#linearGradient5"
       id="linearGradient41"
       x1="13.675659"
       y1="16.110115"
       x2="13.728528"
       y2="10.548769"
       gradientUnits="userSpaceOnUse"
       gradientTransform="matrix(2.046153,0,0,2.046153,-18.798306,-18.911347)" />
    <linearGradient
       inkscape:collect="always"
       xlink:href="#linearGradient42"
       id="linearGradient4"
       x1="11.885941"
       y1="16.50819"
       x2="12.026573"
       y2="10.244942"
       gradientUnits="userSpaceOnUse"
       gradientTransform="matrix(2.046153,0,0,2.046153,-18.798306,-18.911347)" />
    <linearGradient
       id="linearGradient42"
       inkscape:collect="always">
      <stop
         style="stop-color:#010101;stop-opacity:1;"
         offset="0"
         id="stop42" />
      <stop
         style="stop-color:#6e6c6d;stop-opacity:1;"
         offset="1"
         id="stop43" />
    </linearGradient>
    <linearGradient
       inkscape:collect="always"
       xlink:href="#linearGradient8"
       id="linearGradient9"
       x1="9.3404646"
       y1="4.1692023"
       x2="9.4279938"
       y2="16.46883"
       gradientUnits="userSpaceOnUse"
       gradientTransform="matrix(1.05,0,0,1.05,-0.50277005,-0.1977751)" />
    <filter
       style="color-interpolation-filters:sRGB;"
       inkscape:label="Blur"
       id="filter2"
       x="-0.14510849"
       y="-0.14612901"
       width="1.290217"
       height="1.292258">
      <feGaussianBlur
         stdDeviation="0.6 0.6"
         result="blur"
         id="feGaussianBlur2" />
    </filter>
    <linearGradient
       inkscape:collect="always"
       xlink:href="#linearGradient5"
       id="linearGradient81"
       x1="33.792049"
       y1="49.743912"
       x2="33.38739"
       y2="15.013311"
       gradientUnits="userSpaceOnUse"
       gradientTransform="matrix(0.23573911,0,0,0.23573911,0.90673358,0.82021747)" />
  </defs>
  <metadata
     id="metadata2">
    <rdf:RDF>
      <cc:Work
         rdf:about="">
        <dc:format>image/svg+xml</dc:format>
        <dc:type
           rdf:resource="http://purl.org/dc/dcmitype/StillImage" />
      </cc:Work>
    </rdf:RDF>
  </metadata>
  <rect
     style="fill:#000000;fill-opacity:0.996424;stroke:#000000;stroke-width:0.911802;stroke-dasharray:none;stroke-opacity:1;filter:url(#filter2)"
     id="rect1-2-3"
     width="13.065404"
     height="12.974159"
     x="1.9816793"
     y="1.9267306"
     rx="2.7149384"
     ry="2.8310909" />
  <rect
     style="fill:url(#linearGradient4);fill-opacity:0.996424;stroke:url(#linearGradient41);stroke-width:0.911802;stroke-dasharray:none;stroke-opacity:1"
     id="rect1-2"
     width="13.065404"
     height="12.974159"
     x="1.9816793"
     y="1.9267306"
     rx="2.7149384"
     ry="2.8310909" />
  <path
     style="color:#444444;fill:#000000;fill-opacity:1;stroke:none;stroke-width:0.282392;stroke-dasharray:none;stroke-opacity:0.3;opacity:0.3"
     class="ColorScheme-Text"
     d="m 6.827542,4.8161715 c -0.7094723,0 -1.2806369,0.5711642 -1.2806369,1.2806369 v 5.6348006 c 0,0.709474 0.5711646,1.280638 1.2806369,1.280638 h 4.098037 c 0.709474,0 1.280638,-0.571164 1.280638,-1.280638 V 6.0968084 c 0,-0.7094727 -0.571164,-1.2806369 -1.280638,-1.2806369 z m 4.354165,0.5122551 A 0.5122547,0.5122547 0 0 1 11.693961,5.8406813 0.5122547,0.5122547 0 0 1 11.181707,6.352936 0.5122547,0.5122547 0 0 1 10.669451,5.8406813 0.5122547,0.5122547 0 0 1 11.181707,5.3284266 Z M 4.7785232,6.352936 c -0.1418945,0 -0.2561275,0.1142325 -0.2561275,0.2561278 v 4.6102902 c 0,0.141896 0.114233,0.256128 0.2561275,0.256128 0.1418944,0 0.2561272,-0.114232 0.2561272,-0.256128 V 6.6090638 c 0,-0.1418953 -0.1142328,-0.2561278 -0.2561272,-0.2561278 z m 4.098038,0.5122548 A 1.7928916,1.7928916 0 0 1 10.669451,8.6580823 1.7928916,1.7928916 0 0 1 8.8765612,10.450974 1.7928916,1.7928916 0 0 1 7.0836692,8.6580823 1.7928916,1.7928916 0 0 1 8.8765612,6.8651908 Z m 0,0.5122545 A 1.2806367,1.2806367 0 0 0 7.595924,8.6580823 1.2806367,1.2806367 0 0 0 8.8765612,9.9387189 1.2806367,1.2806367 0 0 0 10.157197,8.6580823 1.2806367,1.2806367 0 0 0 8.8765612,7.3774453 Z m 0,0.5122551 A 0.76838206,0.76838206 0 0 1 9.6449429,8.6580823 0.76838206,0.76838206 0 0 1 8.8765612,9.4264642 0.76838206,0.76838206 0 0 1 8.1081792,8.6580823 0.76838206,0.76838206 0 0 1 8.8765612,7.8897004 Z M 6.3152873,11.475482 A 0.25612736,0.25612736 0 0 1 6.571415,11.731609 0.25612736,0.25612736 0 0 1 6.3152873,11.987737 0.25612736,0.25612736 0 0 1 6.0591602,11.731609 0.25612736,0.25612736 0 0 1 6.3152873,11.475482 Z m 1.0245097,0 A 0.25612736,0.25612736 0 0 1 7.595924,11.731609 0.25612736,0.25612736 0 0 1 7.339797,11.987737 0.25612736,0.25612736 0 0 1 7.0836692,11.731609 0.25612736,0.25612736 0 0 1 7.339797,11.475482 Z m 1.0245092,0 a 0.25612736,0.25612736 0 0 1 0.2561272,0.256127 0.25612736,0.25612736 0 0 1 -0.2561272,0.256128 0.25612736,0.25612736 0 0 1 -0.256127,-0.256128 0.25612736,0.25612736 0 0 1 0.256127,-0.256127 z M 6.827542,11.987737 A 0.25612736,0.25612736 0 0 1 7.0836692,12.243863 0.25612736,0.25612736 0 0 1 6.827542,12.499994 0.25612736,0.25612736 0 0 1 6.571415,12.243863 0.25612736,0.25612736 0 0 1 6.827542,11.987737 Z m 1.0245094,0 A 0.25612736,0.25612736 0 0 1 8.1081792,12.243863 0.25612736,0.25612736 0 0 1 7.8520514,12.499994 0.25612736,0.25612736 0 0 1 7.595924,12.243863 0.25612736,0.25612736 0 0 1 7.8520514,11.987737 Z"
     id="path5-5" />
  <path
     style="color:#444444;fill:url(#linearGradient81);fill-opacity:1;stroke:none;stroke-width:0.282392;stroke-dasharray:none;stroke-opacity:0.3"
     class="ColorScheme-Text"
     d="m 6.827542,4.2870153 c -0.7094723,0 -1.2806369,0.5711642 -1.2806369,1.2806369 v 5.6348008 c 0,0.709474 0.5711646,1.280638 1.2806369,1.280638 h 4.098037 c 0.709474,0 1.280638,-0.571164 1.280638,-1.280638 V 5.5676522 c 0,-0.7094727 -0.571164,-1.2806369 -1.280638,-1.2806369 z m 4.354165,0.5122551 A 0.5122547,0.5122547 0 0 1 11.693961,5.3115251 0.5122547,0.5122547 0 0 1 11.181707,5.8237798 0.5122547,0.5122547 0 0 1 10.669451,5.3115251 0.5122547,0.5122547 0 0 1 11.181707,4.7992704 Z M 4.7785232,5.8237798 c -0.1418945,0 -0.2561275,0.1142325 -0.2561275,0.2561278 v 4.6102904 c 0,0.141896 0.114233,0.256128 0.2561275,0.256128 0.1418944,0 0.2561272,-0.114232 0.2561272,-0.256128 V 6.0799076 c 0,-0.1418953 -0.1142328,-0.2561278 -0.2561272,-0.2561278 z m 4.098038,0.5122548 A 1.7928916,1.7928916 0 0 1 10.669451,8.1289261 1.7928916,1.7928916 0 0 1 8.8765612,9.9218174 1.7928916,1.7928916 0 0 1 7.0836692,8.1289261 1.7928916,1.7928916 0 0 1 8.8765612,6.3360346 Z m 0,0.5122545 A 1.2806367,1.2806367 0 0 0 7.595924,8.1289261 1.2806367,1.2806367 0 0 0 8.8765612,9.4095627 1.2806367,1.2806367 0 0 0 10.157197,8.1289261 1.2806367,1.2806367 0 0 0 8.8765612,6.8482891 Z m 0,0.5122551 A 0.76838206,0.76838206 0 0 1 9.6449429,8.1289261 0.76838206,0.76838206 0 0 1 8.8765612,8.897308 0.76838206,0.76838206 0 0 1 8.1081792,8.1289261 0.76838206,0.76838206 0 0 1 8.8765612,7.3605442 Z M 6.3152873,10.946326 A 0.25612736,0.25612736 0 0 1 6.571415,11.202453 0.25612736,0.25612736 0 0 1 6.3152873,11.458581 0.25612736,0.25612736 0 0 1 6.0591602,11.202453 0.25612736,0.25612736 0 0 1 6.3152873,10.946326 Z m 1.0245097,0 A 0.25612736,0.25612736 0 0 1 7.595924,11.202453 0.25612736,0.25612736 0 0 1 7.339797,11.458581 0.25612736,0.25612736 0 0 1 7.0836692,11.202453 0.25612736,0.25612736 0 0 1 7.339797,10.946326 Z m 1.0245092,0 a 0.25612736,0.25612736 0 0 1 0.2561272,0.256127 0.25612736,0.25612736 0 0 1 -0.2561272,0.256128 0.25612736,0.25612736 0 0 1 -0.256127,-0.256128 0.25612736,0.25612736 0 0 1 0.256127,-0.256127 z M 6.827542,11.458581 A 0.25612736,0.25612736 0 0 1 7.0836692,11.714707 0.25612736,0.25612736 0 0 1 6.827542,11.970838 0.25612736,0.25612736 0 0 1 6.571415,11.714707 0.25612736,0.25612736 0 0 1 6.827542,11.458581 Z m 1.0245094,0 A 0.25612736,0.25612736 0 0 1 8.1081792,11.714707 0.25612736,0.25612736 0 0 1 7.8520514,11.970838 0.25612736,0.25612736 0 0 1 7.595924,11.714707 0.25612736,0.25612736 0 0 1 7.8520514,11.458581 Z"
     id="path5" />
  <rect
     style="opacity:0.5;fill:none;fill-opacity:0.996424;stroke:url(#linearGradient9);stroke-width:0.566102;stroke-dasharray:none;stroke-opacity:1"
     id="rect1-2-6"
     width="11.574203"
     height="11.508601"
     x="2.729686"
     y="2.6615164"
     rx="2.0246315"
     ry="2.0627522" />
</svg>
