<?xml version="1.0" encoding="UTF-8" standalone="no"?>
<svg
   width="64"
   height="64"
   version="1.1"
   viewBox="0 0 16.933 16.933"
   id="svg7"
   sodipodi:docname="Template 4.svg"
   inkscape:version="1.3.2 (091e20ef0f, 2023-11-25)"
   xmlns:inkscape="http://www.inkscape.org/namespaces/inkscape"
   xmlns:sodipodi="http://sodipodi.sourceforge.net/DTD/sodipodi-0.dtd"
   xmlns:xlink="http://www.w3.org/1999/xlink"
   xmlns="http://www.w3.org/2000/svg"
   xmlns:svg="http://www.w3.org/2000/svg"
   xmlns:rdf="http://www.w3.org/1999/02/22-rdf-syntax-ns#"
   xmlns:cc="http://creativecommons.org/ns#"
   xmlns:dc="http://purl.org/dc/elements/1.1/">
  <sodipodi:namedview
     id="namedview7"
     pagecolor="#9c4444"
     bordercolor="#000000"
     borderopacity="0.25"
     inkscape:showpageshadow="2"
     inkscape:pageopacity="0.0"
     inkscape:pagecheckerboard="0"
     inkscape:deskcolor="#d1d1d1"
     inkscape:zoom="4.3531261"
     inkscape:cx="32.964816"
     inkscape:cy="24.350317"
     inkscape:window-width="1463"
     inkscape:window-height="604"
     inkscape:window-x="158"
     inkscape:window-y="144"
     inkscape:window-maximized="0"
     inkscape:current-layer="svg7"
     showgrid="false" />
  <defs
     id="defs2">
    <linearGradient
       id="linearGradient5"
       inkscape:collect="always">
      <stop
         style="stop-color:#392713;stop-opacity:1;"
         offset="0"
         id="stop2" />
      <stop
         style="stop-color:#eed59e;stop-opacity:1;"
         offset="0.5"
         id="stop3" />
      <stop
         style="stop-color:#beaa8a;stop-opacity:1;"
         offset="1"
         id="stop4" />
    </linearGradient>
    <linearGradient
       id="linearGradient8"
       inkscape:collect="always">
      <stop
         style="stop-color:#1a1a1a;stop-opacity:1;"
         offset="0"
         id="stop8" />
      <stop
         style="stop-color:#ffffff;stop-opacity:0;"
         offset="1"
         id="stop9" />
    </linearGradient>
    <linearGradient
       inkscape:collect="always"
       xlink:href="#linearGradient5"
       id="linearGradient41"
       x1="13.675659"
       y1="16.110115"
       x2="13.728528"
       y2="10.548769"
       gradientUnits="userSpaceOnUse"
       gradientTransform="matrix(2.046153,0,0,2.046153,-18.798306,-18.911347)" />
    <linearGradient
       inkscape:collect="always"
       xlink:href="#linearGradient42"
       id="linearGradient4"
       x1="11.885941"
       y1="16.50819"
       x2="12.026573"
       y2="10.244942"
       gradientUnits="userSpaceOnUse"
       gradientTransform="matrix(2.046153,0,0,2.046153,-18.798306,-18.911347)" />
    <linearGradient
       id="linearGradient42"
       inkscape:collect="always">
      <stop
         style="stop-color:#010101;stop-opacity:1;"
         offset="0"
         id="stop42" />
      <stop
         style="stop-color:#6e6c6d;stop-opacity:1;"
         offset="1"
         id="stop43" />
    </linearGradient>
    <linearGradient
       inkscape:collect="always"
       xlink:href="#linearGradient8"
       id="linearGradient9"
       x1="9.3404646"
       y1="4.1692023"
       x2="9.4279938"
       y2="16.46883"
       gradientUnits="userSpaceOnUse"
       gradientTransform="matrix(1.05,0,0,1.05,-0.50277005,-0.1977751)" />
    <filter
       style="color-interpolation-filters:sRGB;"
       inkscape:label="Blur"
       id="filter2"
       x="-0.14510849"
       y="-0.14612901"
       width="1.290217"
       height="1.292258">
      <feGaussianBlur
         stdDeviation="0.6 0.6"
         result="blur"
         id="feGaussianBlur2" />
    </filter>
    <linearGradient
       inkscape:collect="always"
       xlink:href="#linearGradient5"
       id="linearGradient83"
       x1="32.702305"
       y1="50.690681"
       x2="31.989622"
       y2="13.350613"
       gradientUnits="userSpaceOnUse"
       gradientTransform="matrix(0.23573911,0,0,0.23573911,0.92787979,0.92019758)" />
  </defs>
  <metadata
     id="metadata2">
    <rdf:RDF>
      <cc:Work
         rdf:about="">
        <dc:format>image/svg+xml</dc:format>
        <dc:type
           rdf:resource="http://purl.org/dc/dcmitype/StillImage" />
      </cc:Work>
    </rdf:RDF>
  </metadata>
  <rect
     style="fill:#000000;fill-opacity:0.996424;stroke:#000000;stroke-width:0.911802;stroke-dasharray:none;stroke-opacity:1;filter:url(#filter2)"
     id="rect1-2-3"
     width="13.065404"
     height="12.974159"
     x="1.9816793"
     y="1.9267306"
     rx="2.7149384"
     ry="2.8310909" />
  <rect
     style="fill:url(#linearGradient4);fill-opacity:0.996424;stroke:url(#linearGradient41);stroke-width:0.911802;stroke-dasharray:none;stroke-opacity:1"
     id="rect1-2"
     width="13.065404"
     height="12.974159"
     x="1.9816793"
     y="1.9267306"
     rx="2.7149384"
     ry="2.8310909" />
  <path
     style="fill:#000000;fill-opacity:1;stroke:none;stroke-width:0.282392;stroke-dasharray:none;stroke-opacity:0.3;opacity:0.3"
     d="M 8.4238894,4.5771198 A 3.8612463,3.8605104 0 0 0 4.6143564,8.4376297 3.8612463,3.8605104 0 0 0 6.836943,11.932985 C 6.2456999,12.130412 5.71757,12.35675 5.71757,12.543731 v 0.428705 c 0,0.237637 0.2053729,0.428706 0.4600307,0.428706 h 4.5960043 c 0.254657,0 0.46003,-0.191069 0.46003,-0.428706 v -0.428705 c 0,-0.186981 -0.52813,-0.413319 -1.119374,-0.610746 a 3.8612463,3.8605104 0 0 0 2.222588,-3.4953553 3.8612463,3.8605104 0 0 0 -3.8612467,-3.8605099 3.8612463,3.8605104 0 0 0 -0.051713,0 z m 0.018312,1.6545046 a 2.2064263,2.206006 0 0 1 0.0334,0 A 2.2064263,2.206006 0 0 1 10.682026,8.4376297 2.2064263,2.206006 0 0 1 8.4755997,10.643636 2.2064263,2.206006 0 0 1 6.2691738,8.4376297 2.2064263,2.206006 0 0 1 8.4422014,6.2316244 Z m 0.00645,1.1030027 a 1.1032131,1.1030029 0 0 0 -1.0762636,1.1030026 1.1032131,1.1030029 0 0 0 1.1032127,1.1030035 1.1032131,1.1030029 0 0 0 1.103213,-1.1030035 1.1032131,1.1030029 0 0 0 -1.103213,-1.1030026 1.1032131,1.1030029 0 0 0 -0.026933,0 z"
     id="path2-5" />
  <path
     style="fill:url(#linearGradient83);fill-opacity:1;stroke:none;stroke-width:0.282392;stroke-dasharray:none;stroke-opacity:0.3"
     d="M 8.4238894,4.0479636 A 3.8612463,3.8605104 0 0 0 4.6143564,7.9084735 3.8612463,3.8605104 0 0 0 6.836943,11.403829 C 6.2456999,11.601256 5.71757,11.827594 5.71757,12.014575 v 0.428705 c 0,0.237637 0.2053729,0.428706 0.4600307,0.428706 h 4.5960043 c 0.254657,0 0.46003,-0.191069 0.46003,-0.428706 v -0.428705 c 0,-0.186981 -0.52813,-0.413319 -1.119374,-0.610746 a 3.8612463,3.8605104 0 0 0 2.222588,-3.4953555 3.8612463,3.8605104 0 0 0 -3.8612467,-3.8605099 3.8612463,3.8605104 0 0 0 -0.051713,0 z m 0.018312,1.6545046 a 2.2064263,2.206006 0 0 1 0.0334,0 A 2.2064263,2.206006 0 0 1 10.682026,7.9084735 2.2064263,2.206006 0 0 1 8.4755997,10.11448 2.2064263,2.206006 0 0 1 6.2691738,7.9084735 2.2064263,2.206006 0 0 1 8.4422014,5.7024682 Z m 0.00645,1.1030027 A 1.1032131,1.1030029 0 0 0 7.3723878,7.9084735 1.1032131,1.1030029 0 0 0 8.4756005,9.011477 1.1032131,1.1030029 0 0 0 9.5788135,7.9084735 1.1032131,1.1030029 0 0 0 8.4756005,6.8054709 a 1.1032131,1.1030029 0 0 0 -0.026933,0 z"
     id="path2" />
  <rect
     style="opacity:0.5;fill:none;fill-opacity:0.996424;stroke:url(#linearGradient9);stroke-width:0.566102;stroke-dasharray:none;stroke-opacity:1"
     id="rect1-2-6"
     width="11.574203"
     height="11.508601"
     x="2.729686"
     y="2.6615164"
     rx="2.0246315"
     ry="2.0627522" />
</svg>
