<?xml version="1.0" encoding="UTF-8" standalone="no"?>
<svg
   width="64"
   height="64"
   version="1.1"
   viewBox="0 0 16.933 16.933"
   id="svg7"
   sodipodi:docname="Template 4.svg"
   inkscape:version="1.3.2 (091e20ef0f, 2023-11-25)"
   xmlns:inkscape="http://www.inkscape.org/namespaces/inkscape"
   xmlns:sodipodi="http://sodipodi.sourceforge.net/DTD/sodipodi-0.dtd"
   xmlns:xlink="http://www.w3.org/1999/xlink"
   xmlns="http://www.w3.org/2000/svg"
   xmlns:svg="http://www.w3.org/2000/svg"
   xmlns:rdf="http://www.w3.org/1999/02/22-rdf-syntax-ns#"
   xmlns:cc="http://creativecommons.org/ns#"
   xmlns:dc="http://purl.org/dc/elements/1.1/">
  <sodipodi:namedview
     id="namedview7"
     pagecolor="#9c4444"
     bordercolor="#000000"
     borderopacity="0.25"
     inkscape:showpageshadow="2"
     inkscape:pageopacity="0.0"
     inkscape:pagecheckerboard="0"
     inkscape:deskcolor="#d1d1d1"
     inkscape:zoom="4.3531261"
     inkscape:cx="32.964816"
     inkscape:cy="24.350317"
     inkscape:window-width="1463"
     inkscape:window-height="604"
     inkscape:window-x="199"
     inkscape:window-y="276"
     inkscape:window-maximized="0"
     inkscape:current-layer="svg7"
     showgrid="false" />
  <defs
     id="defs2">
    <linearGradient
       id="linearGradient5"
       inkscape:collect="always">
      <stop
         style="stop-color:#392713;stop-opacity:1;"
         offset="0"
         id="stop2" />
      <stop
         style="stop-color:#eed59e;stop-opacity:1;"
         offset="0.5"
         id="stop3" />
      <stop
         style="stop-color:#beaa8a;stop-opacity:1;"
         offset="1"
         id="stop4" />
    </linearGradient>
    <linearGradient
       id="linearGradient8"
       inkscape:collect="always">
      <stop
         style="stop-color:#1a1a1a;stop-opacity:1;"
         offset="0"
         id="stop8" />
      <stop
         style="stop-color:#ffffff;stop-opacity:0;"
         offset="1"
         id="stop9" />
    </linearGradient>
    <linearGradient
       inkscape:collect="always"
       xlink:href="#linearGradient5"
       id="linearGradient41"
       x1="13.675659"
       y1="16.110115"
       x2="13.728528"
       y2="10.548769"
       gradientUnits="userSpaceOnUse"
       gradientTransform="matrix(2.046153,0,0,2.046153,-18.798306,-18.911347)" />
    <linearGradient
       inkscape:collect="always"
       xlink:href="#linearGradient42"
       id="linearGradient4"
       x1="11.885941"
       y1="16.50819"
       x2="12.026573"
       y2="10.244942"
       gradientUnits="userSpaceOnUse"
       gradientTransform="matrix(2.046153,0,0,2.046153,-18.798306,-18.911347)" />
    <linearGradient
       id="linearGradient42"
       inkscape:collect="always">
      <stop
         style="stop-color:#010101;stop-opacity:1;"
         offset="0"
         id="stop42" />
      <stop
         style="stop-color:#6e6c6d;stop-opacity:1;"
         offset="1"
         id="stop43" />
    </linearGradient>
    <linearGradient
       inkscape:collect="always"
       xlink:href="#linearGradient8"
       id="linearGradient9"
       x1="9.3404646"
       y1="4.1692023"
       x2="9.4279938"
       y2="16.46883"
       gradientUnits="userSpaceOnUse"
       gradientTransform="matrix(1.05,0,0,1.05,-0.50277005,-0.1977751)" />
    <filter
       style="color-interpolation-filters:sRGB;"
       inkscape:label="Blur"
       id="filter2"
       x="-0.14510849"
       y="-0.14612901"
       width="1.290217"
       height="1.292258">
      <feGaussianBlur
         stdDeviation="0.6 0.6"
         result="blur"
         id="feGaussianBlur2" />
    </filter>
    <linearGradient
       inkscape:collect="always"
       xlink:href="#linearGradient5"
       id="linearGradient63"
       x1="32.39333"
       y1="47.268867"
       x2="31.967999"
       y2="16.737368"
       gradientUnits="userSpaceOnUse"
       gradientTransform="matrix(0.23573911,0,0,0.23573911,0.92392564,0.91364446)" />
  </defs>
  <metadata
     id="metadata2">
    <rdf:RDF>
      <cc:Work
         rdf:about="">
        <dc:format>image/svg+xml</dc:format>
        <dc:type
           rdf:resource="http://purl.org/dc/dcmitype/StillImage" />
      </cc:Work>
    </rdf:RDF>
  </metadata>
  <rect
     style="fill:#000000;fill-opacity:0.996424;stroke:#000000;stroke-width:0.911802;stroke-dasharray:none;stroke-opacity:1;filter:url(#filter2)"
     id="rect1-2-3"
     width="13.065404"
     height="12.974159"
     x="1.9816793"
     y="1.9267306"
     rx="2.7149384"
     ry="2.8310909" />
  <rect
     style="fill:url(#linearGradient4);fill-opacity:0.996424;stroke:url(#linearGradient41);stroke-width:0.911802;stroke-dasharray:none;stroke-opacity:1"
     id="rect1-2"
     width="13.065404"
     height="12.974159"
     x="1.9816793"
     y="1.9267306"
     rx="2.7149384"
     ry="2.8310909" />
  <path
     style="color:#444444;fill:#000000;fill-opacity:1;stroke:none;stroke-width:0.254153;stroke-dasharray:none;stroke-opacity:0.3;opacity:0.3"
     class="ColorScheme-Text"
     d="m 7.4302815,5.3688137 c -0.2049021,0 -0.2046176,3.301e-4 -0.3991987,0.2071027 L 6.4758071,6.3933229 H 5.1761609 c -0.4507851,0 -0.8194083,0.3361232 -0.8194083,0.7743846 v 4.5762755 c 0,0.438263 0.3686232,0.796397 0.8194083,0.796397 h 6.5572601 c 0.450785,0 0.819407,-0.358134 0.819407,-0.796397 V 7.1677075 c 0,-0.4382614 -0.368622,-0.7743846 -0.819407,-0.7743846 H 10.433774 L 9.8714945,5.5679124 C 9.6844307,5.3691583 9.684202,5.3688137 9.4792999,5.3688137 Z m 4.3481615,1.536764 a 0.25612736,0.25612736 0 0 1 0.0059,0 0.25612736,0.25612736 0 0 1 0.256146,0.2561277 0.25612736,0.25612736 0 0 1 -0.256139,0.256127 0.25612736,0.25612736 0 0 1 -0.256127,-0.256127 0.25612736,0.25612736 0 0 1 0.250124,-0.2561277 z M 8.4237752,7.4178324 a 2.0490188,2.0490188 0 0 1 0.031016,0 A 2.0490188,2.0490188 0 0 1 10.50381,9.4668516 2.0490188,2.0490188 0 0 1 8.4547914,11.51587 2.0490188,2.0490188 0 0 1 6.4057732,9.4668516 2.0490188,2.0490188 0 0 1 8.423775,7.4178324 Z m 0.00599,1.0245094 a 1.0245094,1.0245094 0 0 0 -0.9994929,1.0245098 1.0245094,1.0245094 0 0 0 1.02451,1.0245094 1.0245094,1.0245094 0 0 0 1.0245094,-1.0245094 1.0245094,1.0245094 0 0 0 -1.0245094,-1.0245097 1.0245094,1.0245094 0 0 0 -0.025014,0 z"
     id="path5-7" />
  <path
     style="color:#444444;fill:url(#linearGradient63);fill-opacity:1;stroke:none;stroke-width:0.254153;stroke-dasharray:none;stroke-opacity:0.3"
     class="ColorScheme-Text"
     d="m 7.4302815,4.8396575 c -0.2049021,0 -0.2046176,3.301e-4 -0.3991987,0.2071027 L 6.4758071,5.8641667 H 5.1761609 c -0.4507851,0 -0.8194083,0.3361232 -0.8194083,0.7743846 v 4.5762757 c 0,0.438263 0.3686232,0.796397 0.8194083,0.796397 h 6.5572601 c 0.450785,0 0.819407,-0.358134 0.819407,-0.796397 V 6.6385513 c 0,-0.4382614 -0.368622,-0.7743846 -0.819407,-0.7743846 H 10.433774 L 9.8714945,5.0387562 C 9.6844307,4.8400021 9.684202,4.8396575 9.4792999,4.8396575 Z m 4.3481615,1.536764 a 0.25612736,0.25612736 0 0 1 0.0059,0 0.25612736,0.25612736 0 0 1 0.256146,0.2561277 0.25612736,0.25612736 0 0 1 -0.256139,0.256127 0.25612736,0.25612736 0 0 1 -0.256127,-0.256127 0.25612736,0.25612736 0 0 1 0.250124,-0.2561277 z M 8.4237752,6.8886762 a 2.0490188,2.0490188 0 0 1 0.031016,0 A 2.0490188,2.0490188 0 0 1 10.50381,8.9376954 2.0490188,2.0490188 0 0 1 8.4547914,10.986714 2.0490188,2.0490188 0 0 1 6.4057732,8.9376954 2.0490188,2.0490188 0 0 1 8.423775,6.8886762 Z m 0.00599,1.0245094 a 1.0245094,1.0245094 0 0 0 -0.9994929,1.0245098 1.0245094,1.0245094 0 0 0 1.02451,1.0245091 1.0245094,1.0245094 0 0 0 1.0245094,-1.0245091 1.0245094,1.0245094 0 0 0 -1.0245094,-1.0245098 1.0245094,1.0245094 0 0 0 -0.025014,0 z"
     id="path5" />
  <rect
     style="opacity:0.5;fill:none;fill-opacity:0.996424;stroke:url(#linearGradient9);stroke-width:0.566102;stroke-dasharray:none;stroke-opacity:1"
     id="rect1-2-6"
     width="11.574203"
     height="11.508601"
     x="2.729686"
     y="2.6615164"
     rx="2.0246315"
     ry="2.0627522" />
</svg>
