<?xml version="1.0" encoding="UTF-8" standalone="no"?>
<svg
   width="64"
   height="64"
   version="1.1"
   viewBox="0 0 16.933 16.933"
   id="svg7"
   sodipodi:docname="Template 4.svg"
   inkscape:version="1.3.2 (091e20ef0f, 2023-11-25)"
   xmlns:inkscape="http://www.inkscape.org/namespaces/inkscape"
   xmlns:sodipodi="http://sodipodi.sourceforge.net/DTD/sodipodi-0.dtd"
   xmlns:xlink="http://www.w3.org/1999/xlink"
   xmlns="http://www.w3.org/2000/svg"
   xmlns:svg="http://www.w3.org/2000/svg"
   xmlns:rdf="http://www.w3.org/1999/02/22-rdf-syntax-ns#"
   xmlns:cc="http://creativecommons.org/ns#"
   xmlns:dc="http://purl.org/dc/elements/1.1/">
  <sodipodi:namedview
     id="namedview7"
     pagecolor="#9c4444"
     bordercolor="#000000"
     borderopacity="0.25"
     inkscape:showpageshadow="2"
     inkscape:pageopacity="0.0"
     inkscape:pagecheckerboard="0"
     inkscape:deskcolor="#d1d1d1"
     inkscape:zoom="4.3531261"
     inkscape:cx="32.964816"
     inkscape:cy="24.350317"
     inkscape:window-width="1463"
     inkscape:window-height="604"
     inkscape:window-x="158"
     inkscape:window-y="144"
     inkscape:window-maximized="0"
     inkscape:current-layer="svg7"
     showgrid="false" />
  <defs
     id="defs2">
    <linearGradient
       id="linearGradient5"
       inkscape:collect="always">
      <stop
         style="stop-color:#392713;stop-opacity:1;"
         offset="0"
         id="stop2" />
      <stop
         style="stop-color:#eed59e;stop-opacity:1;"
         offset="0.5"
         id="stop3" />
      <stop
         style="stop-color:#beaa8a;stop-opacity:1;"
         offset="1"
         id="stop4" />
    </linearGradient>
    <linearGradient
       id="linearGradient8"
       inkscape:collect="always">
      <stop
         style="stop-color:#1a1a1a;stop-opacity:1;"
         offset="0"
         id="stop8" />
      <stop
         style="stop-color:#ffffff;stop-opacity:0;"
         offset="1"
         id="stop9" />
    </linearGradient>
    <linearGradient
       inkscape:collect="always"
       xlink:href="#linearGradient5"
       id="linearGradient41"
       x1="13.675659"
       y1="16.110115"
       x2="13.728528"
       y2="10.548769"
       gradientUnits="userSpaceOnUse"
       gradientTransform="matrix(2.046153,0,0,2.046153,-18.798306,-18.911347)" />
    <linearGradient
       inkscape:collect="always"
       xlink:href="#linearGradient42"
       id="linearGradient4"
       x1="11.885941"
       y1="16.50819"
       x2="12.026573"
       y2="10.244942"
       gradientUnits="userSpaceOnUse"
       gradientTransform="matrix(2.046153,0,0,2.046153,-18.798306,-18.911347)" />
    <linearGradient
       id="linearGradient42"
       inkscape:collect="always">
      <stop
         style="stop-color:#010101;stop-opacity:1;"
         offset="0"
         id="stop42" />
      <stop
         style="stop-color:#6e6c6d;stop-opacity:1;"
         offset="1"
         id="stop43" />
    </linearGradient>
    <linearGradient
       inkscape:collect="always"
       xlink:href="#linearGradient8"
       id="linearGradient9"
       x1="9.3404646"
       y1="4.1692023"
       x2="9.4279938"
       y2="16.46883"
       gradientUnits="userSpaceOnUse"
       gradientTransform="matrix(1.05,0,0,1.05,-0.50277005,-0.1977751)" />
    <filter
       style="color-interpolation-filters:sRGB;"
       inkscape:label="Blur"
       id="filter2"
       x="-0.14510849"
       y="-0.14612901"
       width="1.290217"
       height="1.292258">
      <feGaussianBlur
         stdDeviation="0.6 0.6"
         result="blur"
         id="feGaussianBlur2" />
    </filter>
    <linearGradient
       inkscape:collect="always"
       xlink:href="#linearGradient5"
       id="linearGradient87"
       x1="33.656269"
       y1="49.532009"
       x2="34.321297"
       y2="15.840315"
       gradientUnits="userSpaceOnUse"
       gradientTransform="matrix(0.23573911,0,0,0.23573911,0.91342514,0.73607759)" />
  </defs>
  <metadata
     id="metadata2">
    <rdf:RDF>
      <cc:Work
         rdf:about="">
        <dc:format>image/svg+xml</dc:format>
        <dc:type
           rdf:resource="http://purl.org/dc/dcmitype/StillImage" />
      </cc:Work>
    </rdf:RDF>
  </metadata>
  <rect
     style="fill:#000000;fill-opacity:0.996424;stroke:#000000;stroke-width:0.911802;stroke-dasharray:none;stroke-opacity:1;filter:url(#filter2)"
     id="rect1-2-3"
     width="13.065404"
     height="12.974159"
     x="1.9816793"
     y="1.9267306"
     rx="2.7149384"
     ry="2.8310909" />
  <rect
     style="fill:url(#linearGradient4);fill-opacity:0.996424;stroke:url(#linearGradient41);stroke-width:0.911802;stroke-dasharray:none;stroke-opacity:1"
     id="rect1-2"
     width="13.065404"
     height="12.974159"
     x="1.9816793"
     y="1.9267306"
     rx="2.7149384"
     ry="2.8310909" />
  <path
     id="path2294-6"
     style="fill:#000000;fill-opacity:1;stroke:none;stroke-width:0.282392;stroke-dasharray:none;stroke-opacity:0.3;opacity:0.3"
     d="m 10.037341,4.9296603 c -0.4097463,-0.00191 -0.9556278,0.00106 -1.6860765,0.00441 l -2.6755526,0.012138 -0.1318197,0.1472632 -0.1318194,0.1478143 0.012134,3.69812 c 0.011757,3.6262142 0.013427,3.7000862 0.1014848,3.7979502 0.049394,0.05488 0.1304142,0.116569 0.1798036,0.136783 0.1432648,0.05864 5.2357338,0.05134 5.4051568,-0.0076 0.285998,-0.0997 0.274671,0.06172 0.274671,-3.9413508 0,-2.2067357 -0.01694,-3.6808227 -0.04303,-3.7494143 -0.07342,-0.193192 -0.07569,-0.2402589 -1.304952,-0.2460373 z M 4.0216237,5.5975833 V 6.0013155 6.4055993 H 4.4479691 4.874866 V 6.0013155 5.5975833 H 4.4479691 Z m 7.9025593,0 v 0.4037322 0.4042838 h 0.426898 0.426346 V 6.0013155 5.5975833 H 12.351082 Z M 4.0216237,7.1237127 V 7.5053834 7.8870532 H 4.4479691 4.874866 V 7.5053834 7.1237127 H 4.4479691 Z m 7.9025593,0 v 0.3816707 0.3816698 h 0.426898 0.426346 V 7.5053834 7.1237127 H 12.351082 Z M 4.0216237,8.6057185 V 9.0100026 9.4137347 H 4.4479691 4.874866 V 9.0100026 8.6057185 H 4.4479691 Z m 7.9025593,0 v 0.4042841 0.4037321 h 0.426898 0.426346 V 9.0100026 8.6057185 H 12.351082 Z M 4.0216237,10.087724 v 0.403731 0.404284 H 4.4479691 4.874866 V 10.491455 10.087724 H 4.4479691 Z m 7.9025593,0 v 0.403731 0.404284 h 0.426898 0.426346 v -0.404284 -0.403731 h -0.426345 z m -7.9025593,1.52668 v 0.381671 0.38167 H 4.4479691 4.874866 v -0.38167 -0.381671 H 4.4479691 Z m 7.9025593,0 v 0.381671 0.38167 h 0.426898 0.426346 v -0.38167 -0.381671 h -0.426345 z" />
  <path
     id="path2294"
     style="fill:url(#linearGradient87);fill-opacity:1;stroke:none;stroke-width:0.282392;stroke-dasharray:none;stroke-opacity:0.3"
     d="m 10.037341,4.4005041 c -0.4097463,-0.00191 -0.9556278,0.00106 -1.6860765,0.00441 l -2.6755526,0.012138 -0.1318197,0.1472632 -0.1318194,0.1478143 0.012134,3.69812 c 0.011757,3.6262144 0.013427,3.7000864 0.1014848,3.7979504 0.049394,0.05488 0.1304142,0.116569 0.1798036,0.136783 0.1432648,0.05864 5.2357338,0.05134 5.4051568,-0.0076 0.285998,-0.0997 0.274671,0.06172 0.274671,-3.941351 0,-2.2067357 -0.01694,-3.6808227 -0.04303,-3.7494143 -0.07342,-0.193192 -0.07569,-0.2402589 -1.304952,-0.2460373 z M 4.0216237,5.0684271 V 5.4721593 5.8764431 H 4.4479691 4.874866 V 5.4721593 5.0684271 H 4.4479691 Z m 7.9025593,0 v 0.4037322 0.4042838 h 0.426898 0.426346 V 5.4721593 5.0684271 H 12.351082 Z M 4.0216237,6.5945565 V 6.9762272 7.357897 H 4.4479691 4.874866 V 6.9762272 6.5945565 H 4.4479691 Z m 7.9025593,0 V 6.9762272 7.357897 h 0.426898 0.426346 V 6.9762272 6.5945565 H 12.351082 Z M 4.0216237,8.0765623 V 8.4808464 8.8845785 H 4.4479691 4.874866 V 8.4808464 8.0765623 H 4.4479691 Z m 7.9025593,0 v 0.4042841 0.4037321 h 0.426898 0.426346 V 8.4808464 8.0765623 H 12.351082 Z M 4.0216237,9.5585682 v 0.403731 0.4042838 H 4.4479691 4.874866 V 9.9622992 9.5585682 H 4.4479691 Z m 7.9025593,0 v 0.403731 0.4042838 h 0.426898 0.426346 V 9.9622992 9.5585682 H 12.351082 Z M 4.0216237,11.085248 v 0.381671 0.38167 H 4.4479691 4.874866 v -0.38167 -0.381671 H 4.4479691 Z m 7.9025593,0 v 0.381671 0.38167 h 0.426898 0.426346 v -0.38167 -0.381671 h -0.426345 z" />
  <rect
     style="opacity:0.5;fill:none;fill-opacity:0.996424;stroke:url(#linearGradient9);stroke-width:0.566102;stroke-dasharray:none;stroke-opacity:1"
     id="rect1-2-6"
     width="11.574203"
     height="11.508601"
     x="2.729686"
     y="2.6615164"
     rx="2.0246315"
     ry="2.0627522" />
</svg>
