<?xml version="1.0" encoding="UTF-8" standalone="no"?>
<svg
   width="64"
   height="64"
   version="1.1"
   viewBox="0 0 16.933 16.933"
   id="svg7"
   sodipodi:docname="Template 4.svg"
   inkscape:version="1.3.2 (091e20ef0f, 2023-11-25)"
   xmlns:inkscape="http://www.inkscape.org/namespaces/inkscape"
   xmlns:sodipodi="http://sodipodi.sourceforge.net/DTD/sodipodi-0.dtd"
   xmlns:xlink="http://www.w3.org/1999/xlink"
   xmlns="http://www.w3.org/2000/svg"
   xmlns:svg="http://www.w3.org/2000/svg"
   xmlns:rdf="http://www.w3.org/1999/02/22-rdf-syntax-ns#"
   xmlns:cc="http://creativecommons.org/ns#"
   xmlns:dc="http://purl.org/dc/elements/1.1/">
  <sodipodi:namedview
     id="namedview7"
     pagecolor="#9c4444"
     bordercolor="#000000"
     borderopacity="0.25"
     inkscape:showpageshadow="2"
     inkscape:pageopacity="0.0"
     inkscape:pagecheckerboard="0"
     inkscape:deskcolor="#d1d1d1"
     inkscape:zoom="4.3531261"
     inkscape:cx="32.964816"
     inkscape:cy="24.350317"
     inkscape:window-width="1463"
     inkscape:window-height="604"
     inkscape:window-x="158"
     inkscape:window-y="144"
     inkscape:window-maximized="0"
     inkscape:current-layer="svg7"
     showgrid="false" />
  <defs
     id="defs2">
    <linearGradient
       id="linearGradient5"
       inkscape:collect="always">
      <stop
         style="stop-color:#392713;stop-opacity:1;"
         offset="0"
         id="stop2" />
      <stop
         style="stop-color:#eed59e;stop-opacity:1;"
         offset="0.5"
         id="stop3" />
      <stop
         style="stop-color:#beaa8a;stop-opacity:1;"
         offset="1"
         id="stop4" />
    </linearGradient>
    <linearGradient
       id="linearGradient8"
       inkscape:collect="always">
      <stop
         style="stop-color:#1a1a1a;stop-opacity:1;"
         offset="0"
         id="stop8" />
      <stop
         style="stop-color:#ffffff;stop-opacity:0;"
         offset="1"
         id="stop9" />
    </linearGradient>
    <linearGradient
       inkscape:collect="always"
       xlink:href="#linearGradient5"
       id="linearGradient41"
       x1="13.675659"
       y1="16.110115"
       x2="13.728528"
       y2="10.548769"
       gradientUnits="userSpaceOnUse"
       gradientTransform="matrix(2.046153,0,0,2.046153,-18.798306,-18.911347)" />
    <linearGradient
       inkscape:collect="always"
       xlink:href="#linearGradient42"
       id="linearGradient4"
       x1="11.885941"
       y1="16.50819"
       x2="12.026573"
       y2="10.244942"
       gradientUnits="userSpaceOnUse"
       gradientTransform="matrix(2.046153,0,0,2.046153,-18.798306,-18.911347)" />
    <linearGradient
       id="linearGradient42"
       inkscape:collect="always">
      <stop
         style="stop-color:#010101;stop-opacity:1;"
         offset="0"
         id="stop42" />
      <stop
         style="stop-color:#6e6c6d;stop-opacity:1;"
         offset="1"
         id="stop43" />
    </linearGradient>
    <linearGradient
       inkscape:collect="always"
       xlink:href="#linearGradient8"
       id="linearGradient9"
       x1="9.3404646"
       y1="4.1692023"
       x2="9.4279938"
       y2="16.46883"
       gradientUnits="userSpaceOnUse"
       gradientTransform="matrix(1.05,0,0,1.05,-0.50277005,-0.1977751)" />
    <filter
       style="color-interpolation-filters:sRGB;"
       inkscape:label="Blur"
       id="filter2"
       x="-0.14510849"
       y="-0.14612901"
       width="1.290217"
       height="1.292258">
      <feGaussianBlur
         stdDeviation="0.6 0.6"
         result="blur"
         id="feGaussianBlur2" />
    </filter>
    <linearGradient
       inkscape:collect="always"
       xlink:href="#linearGradient5"
       id="linearGradient89"
       x1="32.378849"
       y1="51.351604"
       x2="31.773678"
       y2="13.869747"
       gradientUnits="userSpaceOnUse"
       gradientTransform="matrix(0.23573911,0,0,0.23573911,0.91915344,0.86168678)" />
  </defs>
  <metadata
     id="metadata2">
    <rdf:RDF>
      <cc:Work
         rdf:about="">
        <dc:format>image/svg+xml</dc:format>
        <dc:type
           rdf:resource="http://purl.org/dc/dcmitype/StillImage" />
      </cc:Work>
    </rdf:RDF>
  </metadata>
  <rect
     style="fill:#000000;fill-opacity:0.996424;stroke:#000000;stroke-width:0.911802;stroke-dasharray:none;stroke-opacity:1;filter:url(#filter2)"
     id="rect1-2-3"
     width="13.065404"
     height="12.974159"
     x="1.9816793"
     y="1.9267306"
     rx="2.7149384"
     ry="2.8310909" />
  <rect
     style="fill:url(#linearGradient4);fill-opacity:0.996424;stroke:url(#linearGradient41);stroke-width:0.911802;stroke-dasharray:none;stroke-opacity:1"
     id="rect1-2"
     width="13.065404"
     height="12.974159"
     x="1.9816793"
     y="1.9267306"
     rx="2.7149384"
     ry="2.8310909" />
  <path
     style="color:#444444;fill:#000000;fill-opacity:1;stroke:none;stroke-width:0.25672;stroke-dasharray:none;stroke-opacity:0.3;opacity:0.3"
     class="ColorScheme-Text"
     d="M 8.4270189,4.6377899 7.057762,6.8286007 H 7.879316 V 9.5671145 H 6.2362078 V 8.8707191 c 0.3383213,-0.1953266 0.5470124,-0.556036 0.5477026,-0.9467125 0,-0.6049929 -0.4904294,-1.0954059 -1.0954054,-1.0954059 -0.6049766,0 -1.0954054,0.49043 -1.0954054,1.0954059 3.065e-4,0.391043 0.2090518,0.7522529 0.5477024,0.9477825 v 0.6953254 c 0,1.0954045 1.0954058,1.0954045 1.0954058,1.0954045 H 7.879316 v 0.696396 c -0.3383216,0.195328 -0.547013,0.556037 -0.547702,0.946713 0,0.604993 0.4904285,1.095404 1.0954049,1.095404 0.6049757,0 1.0954054,-0.490428 1.0954054,-1.095404 C 9.5221178,11.914584 9.313371,11.553375 8.9747215,11.357845 V 10.662519 H 10.61783 c 0,0 1.095405,0 1.095405,-1.0954045 V 9.0194119 c 0,0 0.616165,-0.1026937 0.547703,-0.5477025 V 7.3763047 c 0.06846,-0.616166 -0.547703,-0.547704 -0.547703,-0.547704 H 10.61783 c -0.581935,0 -0.547703,0.547704 -0.547703,0.547704 v 1.0954047 c 0,0.5477025 0.547703,0.5477025 0.547703,0.5477025 V 9.5671145 H 8.9747215 V 6.8286007 H 9.796276 Z"
     id="path5-3-9" />
  <path
     style="color:#444444;fill:url(#linearGradient89);fill-opacity:1;stroke:none;stroke-width:0.25672;stroke-dasharray:none;stroke-opacity:0.3"
     class="ColorScheme-Text"
     d="M 8.4270189,4.1086337 7.057762,6.2994445 H 7.879316 V 9.0379583 H 6.2362078 V 8.3415629 c 0.3383213,-0.1953266 0.5470124,-0.556036 0.5477026,-0.9467125 0,-0.6049929 -0.4904294,-1.0954059 -1.0954054,-1.0954059 -0.6049766,0 -1.0954054,0.49043 -1.0954054,1.0954059 3.065e-4,0.391043 0.2090518,0.7522529 0.5477024,0.9477825 v 0.6953254 c 0,1.0954047 1.0954058,1.0954047 1.0954058,1.0954047 H 7.879316 v 0.696396 c -0.3383216,0.195328 -0.547013,0.556037 -0.547702,0.946713 0,0.604993 0.4904285,1.095404 1.0954049,1.095404 0.6049757,0 1.0954054,-0.490428 1.0954054,-1.095404 C 9.5221178,11.385428 9.313371,11.024219 8.9747215,10.828689 V 10.133363 H 10.61783 c 0,0 1.095405,0 1.095405,-1.0954047 V 8.4902557 c 0,0 0.616165,-0.1026937 0.547703,-0.5477025 V 6.8471485 c 0.06846,-0.616166 -0.547703,-0.547704 -0.547703,-0.547704 H 10.61783 c -0.581935,0 -0.547703,0.547704 -0.547703,0.547704 v 1.0954047 c 0,0.5477025 0.547703,0.5477025 0.547703,0.5477025 V 9.0379583 H 8.9747215 V 6.2994445 H 9.796276 Z"
     id="path5-3" />
  <rect
     style="opacity:0.5;fill:none;fill-opacity:0.996424;stroke:url(#linearGradient9);stroke-width:0.566102;stroke-dasharray:none;stroke-opacity:1"
     id="rect1-2-6"
     width="11.574203"
     height="11.508601"
     x="2.729686"
     y="2.6615164"
     rx="2.0246315"
     ry="2.0627522" />
</svg>
