<?xml version="1.0" encoding="UTF-8" standalone="no"?>
<svg
   width="64"
   height="64"
   version="1.1"
   viewBox="0 0 16.933 16.933"
   id="svg7"
   sodipodi:docname="Template 4.svg"
   inkscape:version="1.3.2 (091e20ef0f, 2023-11-25)"
   xmlns:inkscape="http://www.inkscape.org/namespaces/inkscape"
   xmlns:sodipodi="http://sodipodi.sourceforge.net/DTD/sodipodi-0.dtd"
   xmlns:xlink="http://www.w3.org/1999/xlink"
   xmlns="http://www.w3.org/2000/svg"
   xmlns:svg="http://www.w3.org/2000/svg"
   xmlns:rdf="http://www.w3.org/1999/02/22-rdf-syntax-ns#"
   xmlns:cc="http://creativecommons.org/ns#"
   xmlns:dc="http://purl.org/dc/elements/1.1/">
  <sodipodi:namedview
     id="namedview7"
     pagecolor="#9c4444"
     bordercolor="#000000"
     borderopacity="0.25"
     inkscape:showpageshadow="2"
     inkscape:pageopacity="0.0"
     inkscape:pagecheckerboard="0"
     inkscape:deskcolor="#d1d1d1"
     inkscape:zoom="4.3531261"
     inkscape:cx="32.964816"
     inkscape:cy="24.350317"
     inkscape:window-width="1463"
     inkscape:window-height="604"
     inkscape:window-x="158"
     inkscape:window-y="144"
     inkscape:window-maximized="0"
     inkscape:current-layer="svg7"
     showgrid="false" />
  <defs
     id="defs2">
    <linearGradient
       id="linearGradient5"
       inkscape:collect="always">
      <stop
         style="stop-color:#392713;stop-opacity:1;"
         offset="0"
         id="stop2" />
      <stop
         style="stop-color:#eed59e;stop-opacity:1;"
         offset="0.5"
         id="stop3" />
      <stop
         style="stop-color:#beaa8a;stop-opacity:1;"
         offset="1"
         id="stop4" />
    </linearGradient>
    <linearGradient
       id="linearGradient8"
       inkscape:collect="always">
      <stop
         style="stop-color:#1a1a1a;stop-opacity:1;"
         offset="0"
         id="stop8" />
      <stop
         style="stop-color:#ffffff;stop-opacity:0;"
         offset="1"
         id="stop9" />
    </linearGradient>
    <linearGradient
       inkscape:collect="always"
       xlink:href="#linearGradient5"
       id="linearGradient41"
       x1="13.675659"
       y1="16.110115"
       x2="13.728528"
       y2="10.548769"
       gradientUnits="userSpaceOnUse"
       gradientTransform="matrix(2.046153,0,0,2.046153,-18.798306,-18.911347)" />
    <linearGradient
       inkscape:collect="always"
       xlink:href="#linearGradient42"
       id="linearGradient4"
       x1="11.885941"
       y1="16.50819"
       x2="12.026573"
       y2="10.244942"
       gradientUnits="userSpaceOnUse"
       gradientTransform="matrix(2.046153,0,0,2.046153,-18.798306,-18.911347)" />
    <linearGradient
       id="linearGradient42"
       inkscape:collect="always">
      <stop
         style="stop-color:#010101;stop-opacity:1;"
         offset="0"
         id="stop42" />
      <stop
         style="stop-color:#6e6c6d;stop-opacity:1;"
         offset="1"
         id="stop43" />
    </linearGradient>
    <linearGradient
       inkscape:collect="always"
       xlink:href="#linearGradient8"
       id="linearGradient9"
       x1="9.3404646"
       y1="4.1692023"
       x2="9.4279938"
       y2="16.46883"
       gradientUnits="userSpaceOnUse"
       gradientTransform="matrix(1.05,0,0,1.05,-0.50277005,-0.1977751)" />
    <filter
       style="color-interpolation-filters:sRGB;"
       inkscape:label="Blur"
       id="filter2"
       x="-0.14510849"
       y="-0.14612901"
       width="1.290217"
       height="1.292258">
      <feGaussianBlur
         stdDeviation="0.6 0.6"
         result="blur"
         id="feGaussianBlur2" />
    </filter>
    <linearGradient
       inkscape:collect="always"
       xlink:href="#linearGradient5"
       id="linearGradient8-1"
       x1="32.65873"
       y1="51.010395"
       x2="33.549816"
       y2="14.041847"
       gradientUnits="userSpaceOnUse"
       gradientTransform="matrix(0.23573911,0,0,0.23573911,0.94042723,0.76122424)" />
  </defs>
  <metadata
     id="metadata2">
    <rdf:RDF>
      <cc:Work
         rdf:about="">
        <dc:format>image/svg+xml</dc:format>
        <dc:type
           rdf:resource="http://purl.org/dc/dcmitype/StillImage" />
      </cc:Work>
    </rdf:RDF>
  </metadata>
  <rect
     style="fill:#000000;fill-opacity:0.996424;stroke:#000000;stroke-width:0.911802;stroke-dasharray:none;stroke-opacity:1;filter:url(#filter2)"
     id="rect1-2-3"
     width="13.065404"
     height="12.974159"
     x="1.9816793"
     y="1.9267306"
     rx="2.7149384"
     ry="2.8310909" />
  <rect
     style="fill:url(#linearGradient4);fill-opacity:0.996424;stroke:url(#linearGradient41);stroke-width:0.911802;stroke-dasharray:none;stroke-opacity:1"
     id="rect1-2"
     width="13.065404"
     height="12.974159"
     x="1.9816793"
     y="1.9267306"
     rx="2.7149384"
     ry="2.8310909" />
  <path
     id="path53-4"
     style="fill:#000000;fill-opacity:1;stroke:none;stroke-width:0.282392;stroke-dasharray:none;stroke-dashoffset:2.2;stroke-opacity:0.3;opacity:0.3"
     d="m 11.087581,4.5384634 -0.76996,0.770511 -0.7705102,0.7699585 0.7616852,0.7622379 c 0.418991,0.4192755 0.76958,0.7622377 0.778785,0.7622377 0.0093,0 0.359241,-0.3429622 0.778232,-0.7622377 L 12.62805,6.0789329 11.857537,5.3089744 Z M 5.9951509,4.5390292 5.2251914,5.3084369 4.4552328,6.078396 4.7299031,6.3547208 c 0.1510203,0.1518094 0.2823135,0.2757733 0.2917681,0.2757733 0.00945,0 0.3598333,-0.3430023 0.7787832,-0.7622374 L 6.5621407,5.106019 6.278646,4.8225244 Z M 6.985177,5.5274008 6.2146664,6.2973601 5.4441557,7.0673187 5.7111047,7.3353708 c 0.1466645,0.1474319 0.2740369,0.2680519 0.2834941,0.2680519 0.00945,0 0.3599671,-0.3425841 0.7787842,-0.7616863 L 7.5350688,6.0794987 7.2603986,5.8037257 Z m 1.5559124,1.2034748 c -0.1461237,0 -0.2918785,0.020623 -0.4506133,0.061222 C 7.7331872,6.8834769 7.4748612,7.0307383 7.209105,7.2945565 6.9474361,7.5543168 6.8340288,7.731433 6.717125,8.0661701 6.6121327,8.3667996 6.5998045,8.8457906 6.6889971,9.144444 6.9236773,9.9302627 7.562159,10.472329 8.3469455,10.551991 9.3336946,10.652155 10.218224,9.9910051 10.426276,8.9982839 10.628012,8.0357081 9.9844238,7.0458513 8.9922552,6.7920975 8.8335206,6.7514995 8.6872124,6.7308756 8.5410894,6.7308756 Z m 0,0.8245621 c 0.2724678,3.065e-4 0.3485632,0.012476 0.4748819,0.075011 0.2302768,0.1139968 0.3944637,0.2724345 0.5162474,0.4980466 0.1037198,0.1921458 0.110961,0.2243852 0.1114126,0.5129379 4.48e-4,0.2722382 -0.00983,0.3300252 -0.089903,0.493083 C 9.4228994,9.4009355 9.1625366,9.6281748 8.8929765,9.7114343 8.6302686,9.7925746 8.438539,9.7921189 8.1787238,9.7097841 7.921146,9.6281548 7.6564433,9.3940369 7.5290021,9.1345209 7.4501683,8.9739862 7.4385485,8.9119042 7.4385485,8.6579848 c 0,-0.2466793 0.013093,-0.3201249 0.084386,-0.4721236 C 7.6391512,7.9380843 7.7738051,7.7955955 8.0132599,7.6657524 8.2067562,7.5608298 8.2332297,7.5550761 8.5410894,7.555442 Z M 7.4545431,11.171376 v 0.389393 0.389392 H 8.5410894 9.6281879 V 11.560757 11.171364 H 8.5410894 Z m 0,1.362321 v 0.405385 0.405388 H 8.5410894 9.6281879 V 12.939069 12.533683 H 8.5410894 Z" />
  <path
     id="path53"
     style="fill:url(#linearGradient8-1);fill-opacity:1;stroke:none;stroke-width:0.282392;stroke-dasharray:none;stroke-dashoffset:2.2;stroke-opacity:0.3"
     d="m 11.087581,4.0093072 -0.76996,0.770511 -0.7705102,0.7699585 0.7616852,0.7622379 c 0.418991,0.4192755 0.76958,0.7622377 0.778785,0.7622377 0.0093,0 0.359241,-0.3429622 0.778232,-0.7622377 L 12.62805,5.5497767 11.857537,4.7798182 Z M 5.9951509,4.009873 5.2251914,4.7792807 4.4552328,5.5492398 4.7299031,5.8255646 c 0.1510203,0.1518094 0.2823135,0.2757733 0.2917681,0.2757733 0.00945,0 0.3598333,-0.3430023 0.7787832,-0.7622374 L 6.5621407,4.5768628 6.278646,4.2933682 Z M 6.985177,4.9982446 6.2146664,5.7682039 5.4441557,6.5381625 5.7111047,6.8062146 c 0.1466645,0.1474319 0.2740369,0.2680519 0.2834941,0.2680519 0.00945,0 0.3599671,-0.3425841 0.7787842,-0.7616863 L 7.5350688,5.5503425 7.2603986,5.2745695 Z m 1.5559124,1.2034748 c -0.1461237,0 -0.2918785,0.020623 -0.4506133,0.061222 C 7.7331872,6.3543207 7.4748612,6.5015821 7.209105,6.7654003 6.9474361,7.0251606 6.8340288,7.2022768 6.717125,7.5370139 6.6121327,7.8376434 6.5998045,8.3166344 6.6889971,8.6152878 6.9236773,9.4011065 7.562159,9.9431732 8.3469455,10.022835 9.3336946,10.122999 10.218224,9.4618489 10.426276,8.4691277 10.628012,7.5065519 9.9844238,6.5166951 8.9922552,6.2629413 8.8335206,6.2223433 8.6872124,6.2017194 8.5410894,6.2017194 Z m 0,0.8245621 C 8.8135572,7.026588 8.8896526,7.0387575 9.0159713,7.1012925 9.2462481,7.2152893 9.410435,7.373727 9.5322187,7.5993391 9.6359385,7.7914849 9.6431797,7.8237243 9.6436313,8.112277 9.6440793,8.3845152 9.6338013,8.4423022 9.5537283,8.60536 9.4228994,8.8717793 9.1625366,9.0990186 8.8929765,9.1822781 8.6302686,9.2634184 8.438539,9.2629627 8.1787238,9.1806279 7.921146,9.0989986 7.6564433,8.8648807 7.5290021,8.6053647 7.4501683,8.44483 7.4385485,8.382748 7.4385485,8.1288286 c 0,-0.2466793 0.013093,-0.3201249 0.084386,-0.4721236 C 7.6391512,7.4089281 7.7738051,7.2664393 8.0132599,7.1365962 8.2067562,7.0316736 8.2332297,7.0259199 8.5410894,7.0262858 Z M 7.4545431,10.64222 v 0.389393 0.389392 H 8.5410894 9.6281879 V 11.031601 10.642208 H 8.5410894 Z m 0,1.362321 v 0.405385 0.405388 H 8.5410894 9.6281879 V 12.409913 12.004527 H 8.5410894 Z" />
  <rect
     style="opacity:0.5;fill:none;fill-opacity:0.996424;stroke:url(#linearGradient9);stroke-width:0.566102;stroke-dasharray:none;stroke-opacity:1"
     id="rect1-2-6"
     width="11.574203"
     height="11.508601"
     x="2.729686"
     y="2.6615164"
     rx="2.0246315"
     ry="2.0627522" />
</svg>
