<?xml version="1.0" encoding="UTF-8" standalone="no"?>
<svg
   width="64"
   height="64"
   version="1.1"
   viewBox="0 0 16.933 16.933"
   id="svg7"
   sodipodi:docname="Template 4.svg"
   inkscape:version="1.3.2 (091e20ef0f, 2023-11-25)"
   xmlns:inkscape="http://www.inkscape.org/namespaces/inkscape"
   xmlns:sodipodi="http://sodipodi.sourceforge.net/DTD/sodipodi-0.dtd"
   xmlns:xlink="http://www.w3.org/1999/xlink"
   xmlns="http://www.w3.org/2000/svg"
   xmlns:svg="http://www.w3.org/2000/svg"
   xmlns:rdf="http://www.w3.org/1999/02/22-rdf-syntax-ns#"
   xmlns:cc="http://creativecommons.org/ns#"
   xmlns:dc="http://purl.org/dc/elements/1.1/">
  <sodipodi:namedview
     id="namedview7"
     pagecolor="#9c4444"
     bordercolor="#000000"
     borderopacity="0.25"
     inkscape:showpageshadow="2"
     inkscape:pageopacity="0.0"
     inkscape:pagecheckerboard="0"
     inkscape:deskcolor="#d1d1d1"
     inkscape:zoom="4.3531261"
     inkscape:cx="32.964816"
     inkscape:cy="24.350317"
     inkscape:window-width="1463"
     inkscape:window-height="604"
     inkscape:window-x="158"
     inkscape:window-y="144"
     inkscape:window-maximized="0"
     inkscape:current-layer="svg7"
     showgrid="false" />
  <defs
     id="defs2">
    <linearGradient
       id="linearGradient5"
       inkscape:collect="always">
      <stop
         style="stop-color:#392713;stop-opacity:1;"
         offset="0"
         id="stop2" />
      <stop
         style="stop-color:#eed59e;stop-opacity:1;"
         offset="0.5"
         id="stop3" />
      <stop
         style="stop-color:#beaa8a;stop-opacity:1;"
         offset="1"
         id="stop4" />
    </linearGradient>
    <linearGradient
       id="linearGradient8"
       inkscape:collect="always">
      <stop
         style="stop-color:#1a1a1a;stop-opacity:1;"
         offset="0"
         id="stop8" />
      <stop
         style="stop-color:#ffffff;stop-opacity:0;"
         offset="1"
         id="stop9" />
    </linearGradient>
    <linearGradient
       inkscape:collect="always"
       xlink:href="#linearGradient5"
       id="linearGradient41"
       x1="13.675659"
       y1="16.110115"
       x2="13.728528"
       y2="10.548769"
       gradientUnits="userSpaceOnUse"
       gradientTransform="matrix(2.046153,0,0,2.046153,-18.798306,-18.911347)" />
    <linearGradient
       inkscape:collect="always"
       xlink:href="#linearGradient42"
       id="linearGradient4"
       x1="11.885941"
       y1="16.50819"
       x2="12.026573"
       y2="10.244942"
       gradientUnits="userSpaceOnUse"
       gradientTransform="matrix(2.046153,0,0,2.046153,-18.798306,-18.911347)" />
    <linearGradient
       id="linearGradient42"
       inkscape:collect="always">
      <stop
         style="stop-color:#010101;stop-opacity:1;"
         offset="0"
         id="stop42" />
      <stop
         style="stop-color:#6e6c6d;stop-opacity:1;"
         offset="1"
         id="stop43" />
    </linearGradient>
    <linearGradient
       inkscape:collect="always"
       xlink:href="#linearGradient8"
       id="linearGradient9"
       x1="9.3404646"
       y1="4.1692023"
       x2="9.4279938"
       y2="16.46883"
       gradientUnits="userSpaceOnUse"
       gradientTransform="matrix(1.05,0,0,1.05,-0.50277005,-0.1977751)" />
    <filter
       style="color-interpolation-filters:sRGB;"
       inkscape:label="Blur"
       id="filter2"
       x="-0.14510849"
       y="-0.14612901"
       width="1.290217"
       height="1.292258">
      <feGaussianBlur
         stdDeviation="0.6 0.6"
         result="blur"
         id="feGaussianBlur2" />
    </filter>
    <linearGradient
       inkscape:collect="always"
       xlink:href="#linearGradient5"
       id="linearGradient15"
       x1="33.149036"
       y1="45.646523"
       x2="32.926018"
       y2="19.524923"
       gradientUnits="userSpaceOnUse"
       gradientTransform="matrix(0.23573911,0,0,0.23573911,0.94409349,0.72982744)" />
  </defs>
  <metadata
     id="metadata2">
    <rdf:RDF>
      <cc:Work
         rdf:about="">
        <dc:format>image/svg+xml</dc:format>
        <dc:type
           rdf:resource="http://purl.org/dc/dcmitype/StillImage" />
      </cc:Work>
    </rdf:RDF>
  </metadata>
  <rect
     style="fill:#000000;fill-opacity:0.996424;stroke:#000000;stroke-width:0.911802;stroke-dasharray:none;stroke-opacity:1;filter:url(#filter2)"
     id="rect1-2-3"
     width="13.065404"
     height="12.974159"
     x="1.9816793"
     y="1.9267306"
     rx="2.7149384"
     ry="2.8310909" />
  <rect
     style="fill:url(#linearGradient4);fill-opacity:0.996424;stroke:url(#linearGradient41);stroke-width:0.911802;stroke-dasharray:none;stroke-opacity:1"
     id="rect1-2"
     width="13.065404"
     height="12.974159"
     x="1.9816793"
     y="1.9267306"
     rx="2.7149384"
     ry="2.8310909" />
  <path
     style="color:#444444;fill:#000000;fill-opacity:1;stroke:none;stroke-width:0.25672;stroke-dasharray:none;stroke-opacity:0.3;opacity:0.3"
     class="ColorScheme-Text"
     d="m 10.752937,5.9042293 c -0.124655,5.893e-4 -0.239868,0.039742 -0.347647,0.1162196 -0.272786,0.1947084 -0.8412132,0.4034134 -1.8443527,0.4042414 -1.0031396,0 -1.5715632,-0.209533 -1.8443518,-0.4042414 C 6.6087945,5.943973 6.5054486,5.9066922 6.3800549,5.9072614 6.2546613,5.9077799 6.1100656,5.9413865 5.9626757,6.0204489 5.4258952,6.3032238 4.9324407,7.2291889 4.6640501,8.429728 4.4352639,9.4495283 4.3508004,10.844102 4.4871946,11.404944 c 0.1187915,0.482089 0.3240609,0.695296 0.6892311,0.695296 0.5411795,-0.0093 1.221164,-0.611757 1.6523372,-1.422932 0.3118548,-0.449076 1.0351457,-0.653227 1.7321744,-0.630615 0.6969767,-0.02432 1.4202672,0.181539 1.7321737,0.630615 0.431174,0.811175 1.111159,1.413668 1.652338,1.422932 0.365181,0 0.570429,-0.213207 0.689232,-0.695296 0.136393,-0.560842 0.05193,-1.9554157 -0.176856,-2.975216 C 12.189439,7.2291889 11.695981,6.3032238 11.159199,6.0204489 11.01181,5.9416449 10.877592,5.9036471 10.752937,5.9042293 Z M 6.5084017,7.4595482 H 7.0217882 V 7.9769774 H 7.5341639 V 8.4944061 H 7.0217882 V 9.0118353 H 6.5084017 V 8.4944061 H 5.9950154 V 7.9769774 h 0.5133863 z m 3.8483793,0 c 0.141724,0 0.256692,0.1158523 0.256692,0.2587147 0,0.1429136 -0.114968,0.2587145 -0.256692,0.2587145 -0.141725,0 -0.255683,-0.1158009 -0.255684,-0.2587145 0,-0.1428624 0.113959,-0.2587147 0.255684,-0.2587147 z M 9.8444039,7.9769774 c 0.1417245,0 0.2566931,0.1158526 0.2566931,0.2587142 0,0.1429136 -0.1149686,0.2587145 -0.2566931,0.2587145 -0.1417186,0 -0.2566933,-0.1158009 -0.2566933,-0.2587145 0,-0.1428616 0.1149747,-0.2587142 0.2566933,-0.2587142 z m 1.0257621,0 c 0.141719,0 0.256693,0.1158526 0.256693,0.2587142 0,0.1429136 -0.114974,0.2587145 -0.256693,0.2587145 -0.141724,0 -0.256693,-0.1158009 -0.256693,-0.2587145 0,-0.1428616 0.114969,-0.2587142 0.256693,-0.2587142 z m -0.513385,0.5174287 c 0.141724,0 0.256692,0.1158528 0.256692,0.2587147 0,0.1429136 -0.114968,0.2587145 -0.256692,0.2587145 -0.141725,0 -0.255684,-0.1158009 -0.255684,-0.2587145 0,-0.1428619 0.113959,-0.2587146 0.255684,-0.2587147 z"
     id="path5-2-4" />
  <path
     style="color:#444444;fill:url(#linearGradient15);fill-opacity:1;stroke:none;stroke-width:0.25672;stroke-dasharray:none;stroke-opacity:0.3"
     class="ColorScheme-Text"
     d="m 10.752937,5.3750731 c -0.124655,5.893e-4 -0.239868,0.039742 -0.347647,0.1162196 -0.272786,0.1947084 -0.8412132,0.4034134 -1.8443527,0.4042414 -1.0031396,0 -1.5715632,-0.209533 -1.8443518,-0.4042414 C 6.6087945,5.4148168 6.5054486,5.377536 6.3800549,5.3781052 6.2546613,5.3786237 6.1100656,5.4122303 5.9626757,5.4912927 5.4258952,5.7740676 4.9324407,6.7000327 4.6640501,7.9005718 4.4352639,8.9203721 4.3508004,10.314946 4.4871946,10.875788 c 0.1187915,0.482089 0.3240609,0.695296 0.6892311,0.695296 0.5411795,-0.0093 1.221164,-0.611757 1.6523372,-1.422932 0.3118548,-0.4490762 1.0351457,-0.6532271 1.7321744,-0.6306151 0.6969767,-0.024318 1.4202672,0.1815389 1.7321737,0.6306151 0.431174,0.811175 1.111159,1.413668 1.652338,1.422932 0.365181,0 0.570429,-0.213207 0.689232,-0.695296 0.136393,-0.560842 0.05193,-1.9554159 -0.176856,-2.9752162 C 12.189439,6.7000327 11.695981,5.7740676 11.159199,5.4912927 11.01181,5.4124887 10.877592,5.3744909 10.752937,5.3750731 Z M 6.5084017,6.930392 H 7.0217882 V 7.4478212 H 7.5341639 V 7.9652499 H 7.0217882 V 8.4826791 H 6.5084017 V 7.9652499 H 5.9950154 V 7.4478212 h 0.5133863 z m 3.8483793,0 c 0.141724,0 0.256692,0.1158523 0.256692,0.2587147 0,0.1429136 -0.114968,0.2587145 -0.256692,0.2587145 -0.141725,0 -0.255683,-0.1158009 -0.255684,-0.2587145 0,-0.1428624 0.113959,-0.2587147 0.255684,-0.2587147 z M 9.8444039,7.4478212 c 0.1417245,0 0.2566931,0.1158526 0.2566931,0.2587142 0,0.1429136 -0.1149686,0.2587145 -0.2566931,0.2587145 -0.1417186,0 -0.2566933,-0.1158009 -0.2566933,-0.2587145 0,-0.1428616 0.1149747,-0.2587142 0.2566933,-0.2587142 z m 1.0257621,0 c 0.141719,0 0.256693,0.1158526 0.256693,0.2587142 0,0.1429136 -0.114974,0.2587145 -0.256693,0.2587145 -0.141724,0 -0.256693,-0.1158009 -0.256693,-0.2587145 0,-0.1428616 0.114969,-0.2587142 0.256693,-0.2587142 z m -0.513385,0.5174287 c 0.141724,0 0.256692,0.1158528 0.256692,0.2587147 0,0.1429136 -0.114968,0.2587145 -0.256692,0.2587145 -0.141725,0 -0.255684,-0.1158009 -0.255684,-0.2587145 0,-0.1428619 0.113959,-0.2587147 0.255684,-0.2587147 z"
     id="path5-2" />
  <rect
     style="opacity:0.5;fill:none;fill-opacity:0.996424;stroke:url(#linearGradient9);stroke-width:0.566102;stroke-dasharray:none;stroke-opacity:1"
     id="rect1-2-6"
     width="11.574203"
     height="11.508601"
     x="2.729686"
     y="2.6615164"
     rx="2.0246315"
     ry="2.0627522" />
</svg>
