<?xml version="1.0" encoding="UTF-8" standalone="no"?>
<svg
   width="64"
   height="64"
   version="1.1"
   viewBox="0 0 16.933 16.933"
   id="svg7"
   sodipodi:docname="Template 4.svg"
   inkscape:version="1.3.2 (091e20ef0f, 2023-11-25)"
   xmlns:inkscape="http://www.inkscape.org/namespaces/inkscape"
   xmlns:sodipodi="http://sodipodi.sourceforge.net/DTD/sodipodi-0.dtd"
   xmlns:xlink="http://www.w3.org/1999/xlink"
   xmlns="http://www.w3.org/2000/svg"
   xmlns:svg="http://www.w3.org/2000/svg"
   xmlns:rdf="http://www.w3.org/1999/02/22-rdf-syntax-ns#"
   xmlns:cc="http://creativecommons.org/ns#"
   xmlns:dc="http://purl.org/dc/elements/1.1/">
  <sodipodi:namedview
     id="namedview7"
     pagecolor="#9c4444"
     bordercolor="#000000"
     borderopacity="0.25"
     inkscape:showpageshadow="2"
     inkscape:pageopacity="0.0"
     inkscape:pagecheckerboard="0"
     inkscape:deskcolor="#d1d1d1"
     inkscape:zoom="4.3531261"
     inkscape:cx="32.964816"
     inkscape:cy="24.350317"
     inkscape:window-width="1463"
     inkscape:window-height="604"
     inkscape:window-x="199"
     inkscape:window-y="276"
     inkscape:window-maximized="0"
     inkscape:current-layer="svg7"
     showgrid="false" />
  <defs
     id="defs2">
    <linearGradient
       id="linearGradient5"
       inkscape:collect="always">
      <stop
         style="stop-color:#392713;stop-opacity:1;"
         offset="0"
         id="stop2" />
      <stop
         style="stop-color:#eed59e;stop-opacity:1;"
         offset="0.5"
         id="stop3" />
      <stop
         style="stop-color:#beaa8a;stop-opacity:1;"
         offset="1"
         id="stop4" />
    </linearGradient>
    <linearGradient
       id="linearGradient8"
       inkscape:collect="always">
      <stop
         style="stop-color:#1a1a1a;stop-opacity:1;"
         offset="0"
         id="stop8" />
      <stop
         style="stop-color:#ffffff;stop-opacity:0;"
         offset="1"
         id="stop9" />
    </linearGradient>
    <linearGradient
       inkscape:collect="always"
       xlink:href="#linearGradient5"
       id="linearGradient41"
       x1="13.675659"
       y1="16.110115"
       x2="13.728528"
       y2="10.548769"
       gradientUnits="userSpaceOnUse"
       gradientTransform="matrix(2.046153,0,0,2.046153,-18.798306,-18.911347)" />
    <linearGradient
       inkscape:collect="always"
       xlink:href="#linearGradient42"
       id="linearGradient4"
       x1="11.885941"
       y1="16.50819"
       x2="12.026573"
       y2="10.244942"
       gradientUnits="userSpaceOnUse"
       gradientTransform="matrix(2.046153,0,0,2.046153,-18.798306,-18.911347)" />
    <linearGradient
       id="linearGradient42"
       inkscape:collect="always">
      <stop
         style="stop-color:#010101;stop-opacity:1;"
         offset="0"
         id="stop42" />
      <stop
         style="stop-color:#6e6c6d;stop-opacity:1;"
         offset="1"
         id="stop43" />
    </linearGradient>
    <linearGradient
       inkscape:collect="always"
       xlink:href="#linearGradient8"
       id="linearGradient9"
       x1="9.3404646"
       y1="4.1692023"
       x2="9.4279938"
       y2="16.46883"
       gradientUnits="userSpaceOnUse"
       gradientTransform="matrix(1.05,0,0,1.05,-0.50277005,-0.1977751)" />
    <filter
       style="color-interpolation-filters:sRGB;"
       inkscape:label="Blur"
       id="filter2"
       x="-0.14510849"
       y="-0.14612901"
       width="1.290217"
       height="1.292258">
      <feGaussianBlur
         stdDeviation="0.6 0.6"
         result="blur"
         id="feGaussianBlur2" />
    </filter>
    <linearGradient
       inkscape:collect="always"
       xlink:href="#linearGradient5"
       id="linearGradient71"
       x1="32.566574"
       y1="46.232689"
       x2="32.747684"
       y2="18.453243"
       gradientUnits="userSpaceOnUse"
       gradientTransform="matrix(0.23573911,0,0,0.23573911,0.92839255,0.78496362)" />
  </defs>
  <metadata
     id="metadata2">
    <rdf:RDF>
      <cc:Work
         rdf:about="">
        <dc:format>image/svg+xml</dc:format>
        <dc:type
           rdf:resource="http://purl.org/dc/dcmitype/StillImage" />
      </cc:Work>
    </rdf:RDF>
  </metadata>
  <rect
     style="fill:#000000;fill-opacity:0.996424;stroke:#000000;stroke-width:0.911802;stroke-dasharray:none;stroke-opacity:1;filter:url(#filter2)"
     id="rect1-2-3"
     width="13.065404"
     height="12.974159"
     x="1.9816793"
     y="1.9267306"
     rx="2.7149384"
     ry="2.8310909" />
  <rect
     style="fill:url(#linearGradient4);fill-opacity:0.996424;stroke:url(#linearGradient41);stroke-width:0.911802;stroke-dasharray:none;stroke-opacity:1"
     id="rect1-2"
     width="13.065404"
     height="12.974159"
     x="1.9816793"
     y="1.9267306"
     rx="2.7149384"
     ry="2.8310909" />
  <path
     style="color:#444444;fill:#000000;fill-opacity:1;stroke:none;stroke-width:0.25672;stroke-dasharray:none;stroke-opacity:0.3;opacity:0.3"
     class="ColorScheme-Text"
     d="m 5.4047723,5.6010202 c 0,0 -1.1176469,0 -1.1176469,1.1176472 v 4.4705856 c 0,1.117647 1.1176469,1.117647 1.1176469,1.117647 h 6.1470567 c 0,0 1.117648,0 1.117648,-1.117647 V 6.7186674 c 0,-1.1176472 -1.117648,-1.1176472 -1.117648,-1.1176472 z m 0.1397056,1.1176472 h 0.8382353 c 0.077398,0 0.1397053,0.06231 0.1397053,0.1397061 v 0.838235 c 0,0.077397 -0.06231,0.1397055 -0.1397053,0.1397055 H 5.5444779 c -0.077397,0 -0.1397056,-0.06231 -0.1397056,-0.1397055 v -0.838235 c 0,-0.077397 0.062309,-0.1397061 0.1397056,-0.1397061 z m 1.6764705,0 h 0.8382345 c 0.077398,0 0.1397056,0.06231 0.1397056,0.1397061 v 0.838235 c 0,0.077397 -0.062309,0.1397055 -0.1397056,0.1397055 H 7.2209484 c -0.077399,0 -0.1397063,-0.06231 -0.1397063,-0.1397055 v -0.838235 c 0,-0.077397 0.062309,-0.1397061 0.1397063,-0.1397061 z m 1.6764695,0 h 0.8382348 c 0.077396,0 0.1397066,0.06231 0.1397066,0.1397061 v 0.838235 c 0,0.077397 -0.062305,0.1397055 -0.1397066,0.1397055 H 8.8974179 c -0.077398,0 -0.1397056,-0.06231 -0.1397056,-0.1397055 v -0.838235 c 0,-0.077397 0.062308,-0.1397061 0.1397056,-0.1397061 z m 1.6764701,0 h 0.838235 c 0.07739,0 0.139706,0.06231 0.139706,0.1397061 v 0.838235 c 0,0.077397 -0.06232,0.1397055 -0.139706,0.1397055 h -0.838235 c -0.07739,0 -0.139706,-0.06231 -0.139706,-0.1397055 v -0.838235 c 0,-0.077397 0.06232,-0.1397061 0.139706,-0.1397061 z M 5.5444779,8.3951376 h 0.8382354 c 0.077397,0 0.1397052,0.062309 0.1397052,0.1397054 v 0.8382352 c 0,0.077399 -0.06231,0.1397056 -0.1397052,0.1397056 H 5.5444779 c -0.077397,0 -0.1397056,-0.06231 -0.1397056,-0.1397056 V 8.534843 c 0,-0.077397 0.062309,-0.1397054 0.1397056,-0.1397054 z m 1.6764705,0 h 0.8382345 c 0.077398,0 0.1397056,0.062309 0.1397056,0.1397054 v 0.8382352 c 0,0.077399 -0.062309,0.1397056 -0.1397056,0.1397056 H 7.2209484 c -0.077399,0 -0.1397063,-0.06231 -0.1397063,-0.1397056 V 8.534843 c 0,-0.077397 0.062309,-0.1397054 0.1397063,-0.1397054 z m 1.6764695,0 h 0.8382348 c 0.077396,0 0.1397066,0.062309 0.1397066,0.1397054 v 0.8382352 c 0,0.077399 -0.062305,0.1397056 -0.1397066,0.1397056 H 8.8974179 c -0.077398,0 -0.1397056,-0.06231 -0.1397056,-0.1397056 V 8.534843 c 0,-0.077397 0.062308,-0.1397054 0.1397056,-0.1397054 z m 1.6764701,0 h 0.838235 c 0.07739,0 0.139706,0.062309 0.139706,0.1397054 v 0.8382352 c 0,0.077399 -0.06232,0.1397056 -0.139706,0.1397056 h -0.838235 c -0.07739,0 -0.139706,-0.06231 -0.139706,-0.1397056 V 8.534843 c 0,-0.077397 0.06232,-0.1397054 0.139706,-0.1397054 z M 6.6621245,10.071607 h 3.6323525 c 0.0774,0 0.139705,0.06231 0.139705,0.139706 v 0.838233 c 0,0.0774 -0.06232,0.139706 -0.139705,0.139706 H 6.6621245 c -0.077398,0 -0.139706,-0.06231 -0.139706,-0.139706 v -0.838233 c 0,-0.0774 0.06231,-0.139706 0.139706,-0.139706 z"
     id="path5-8" />
  <path
     style="color:#444444;fill:url(#linearGradient71);fill-opacity:1;stroke:none;stroke-width:0.25672;stroke-dasharray:none;stroke-opacity:0.3"
     class="ColorScheme-Text"
     d="m 5.4047723,5.071864 c 0,0 -1.1176469,0 -1.1176469,1.1176472 v 4.4705858 c 0,1.117647 1.1176469,1.117647 1.1176469,1.117647 h 6.1470567 c 0,0 1.117648,0 1.117648,-1.117647 V 6.1895112 c 0,-1.1176472 -1.117648,-1.1176472 -1.117648,-1.1176472 z m 0.1397056,1.1176472 h 0.8382353 c 0.077398,0 0.1397053,0.06231 0.1397053,0.1397061 v 0.838235 c 0,0.077397 -0.06231,0.1397055 -0.1397053,0.1397055 H 5.5444779 c -0.077397,0 -0.1397056,-0.06231 -0.1397056,-0.1397055 v -0.838235 c 0,-0.077397 0.062309,-0.1397061 0.1397056,-0.1397061 z m 1.6764705,0 h 0.8382345 c 0.077398,0 0.1397056,0.06231 0.1397056,0.1397061 v 0.838235 c 0,0.077397 -0.062309,0.1397055 -0.1397056,0.1397055 H 7.2209484 c -0.077399,0 -0.1397063,-0.06231 -0.1397063,-0.1397055 v -0.838235 c 0,-0.077397 0.062309,-0.1397061 0.1397063,-0.1397061 z m 1.6764695,0 h 0.8382348 c 0.077396,0 0.1397066,0.06231 0.1397066,0.1397061 v 0.838235 c 0,0.077397 -0.062305,0.1397055 -0.1397066,0.1397055 H 8.8974179 c -0.077398,0 -0.1397056,-0.06231 -0.1397056,-0.1397055 v -0.838235 c 0,-0.077397 0.062308,-0.1397061 0.1397056,-0.1397061 z m 1.6764701,0 h 0.838235 c 0.07739,0 0.139706,0.06231 0.139706,0.1397061 v 0.838235 c 0,0.077397 -0.06232,0.1397055 -0.139706,0.1397055 h -0.838235 c -0.07739,0 -0.139706,-0.06231 -0.139706,-0.1397055 v -0.838235 c 0,-0.077397 0.06232,-0.1397061 0.139706,-0.1397061 z M 5.5444779,7.8659814 h 0.8382354 c 0.077397,0 0.1397052,0.062309 0.1397052,0.1397054 V 8.843922 c 0,0.077399 -0.06231,0.1397056 -0.1397052,0.1397056 H 5.5444779 c -0.077397,0 -0.1397056,-0.06231 -0.1397056,-0.1397056 V 8.0056868 c 0,-0.077397 0.062309,-0.1397054 0.1397056,-0.1397054 z m 1.6764705,0 h 0.8382345 c 0.077398,0 0.1397056,0.062309 0.1397056,0.1397054 V 8.843922 c 0,0.077399 -0.062309,0.1397056 -0.1397056,0.1397056 H 7.2209484 c -0.077399,0 -0.1397063,-0.06231 -0.1397063,-0.1397056 V 8.0056868 c 0,-0.077397 0.062309,-0.1397054 0.1397063,-0.1397054 z m 1.6764695,0 h 0.8382348 c 0.077396,0 0.1397066,0.062309 0.1397066,0.1397054 V 8.843922 c 0,0.077399 -0.062305,0.1397056 -0.1397066,0.1397056 H 8.8974179 c -0.077398,0 -0.1397056,-0.06231 -0.1397056,-0.1397056 V 8.0056868 c 0,-0.077397 0.062308,-0.1397054 0.1397056,-0.1397054 z m 1.6764701,0 h 0.838235 c 0.07739,0 0.139706,0.062309 0.139706,0.1397054 V 8.843922 c 0,0.077399 -0.06232,0.1397056 -0.139706,0.1397056 h -0.838235 c -0.07739,0 -0.139706,-0.06231 -0.139706,-0.1397056 V 8.0056868 c 0,-0.077397 0.06232,-0.1397054 0.139706,-0.1397054 z M 6.6621245,9.5424512 h 3.6323525 c 0.0774,0 0.139705,0.06231 0.139705,0.1397055 V 10.52039 c 0,0.0774 -0.06232,0.139706 -0.139705,0.139706 H 6.6621245 c -0.077398,0 -0.139706,-0.06231 -0.139706,-0.139706 V 9.6821567 c 0,-0.077395 0.06231,-0.1397055 0.139706,-0.1397055 z"
     id="path5" />
  <rect
     style="opacity:0.5;fill:none;fill-opacity:0.996424;stroke:url(#linearGradient9);stroke-width:0.566102;stroke-dasharray:none;stroke-opacity:1"
     id="rect1-2-6"
     width="11.574203"
     height="11.508601"
     x="2.729686"
     y="2.6615164"
     rx="2.0246315"
     ry="2.0627522" />
</svg>
