<?xml version="1.0" encoding="UTF-8" standalone="no"?>
<svg
   width="64"
   height="64"
   version="1.1"
   viewBox="0 0 16.933 16.933"
   id="svg7"
   sodipodi:docname="Template 4.svg"
   inkscape:version="1.3.2 (091e20ef0f, 2023-11-25)"
   xmlns:inkscape="http://www.inkscape.org/namespaces/inkscape"
   xmlns:sodipodi="http://sodipodi.sourceforge.net/DTD/sodipodi-0.dtd"
   xmlns:xlink="http://www.w3.org/1999/xlink"
   xmlns="http://www.w3.org/2000/svg"
   xmlns:svg="http://www.w3.org/2000/svg"
   xmlns:rdf="http://www.w3.org/1999/02/22-rdf-syntax-ns#"
   xmlns:cc="http://creativecommons.org/ns#"
   xmlns:dc="http://purl.org/dc/elements/1.1/">
  <sodipodi:namedview
     id="namedview7"
     pagecolor="#9c4444"
     bordercolor="#000000"
     borderopacity="0.25"
     inkscape:showpageshadow="2"
     inkscape:pageopacity="0.0"
     inkscape:pagecheckerboard="0"
     inkscape:deskcolor="#d1d1d1"
     inkscape:zoom="4.3531261"
     inkscape:cx="32.964816"
     inkscape:cy="24.350317"
     inkscape:window-width="1463"
     inkscape:window-height="604"
     inkscape:window-x="158"
     inkscape:window-y="144"
     inkscape:window-maximized="0"
     inkscape:current-layer="svg7"
     showgrid="false" />
  <defs
     id="defs2">
    <linearGradient
       id="linearGradient5"
       inkscape:collect="always">
      <stop
         style="stop-color:#392713;stop-opacity:1;"
         offset="0"
         id="stop2" />
      <stop
         style="stop-color:#eed59e;stop-opacity:1;"
         offset="0.5"
         id="stop3" />
      <stop
         style="stop-color:#beaa8a;stop-opacity:1;"
         offset="1"
         id="stop4" />
    </linearGradient>
    <linearGradient
       id="linearGradient8"
       inkscape:collect="always">
      <stop
         style="stop-color:#1a1a1a;stop-opacity:1;"
         offset="0"
         id="stop8" />
      <stop
         style="stop-color:#ffffff;stop-opacity:0;"
         offset="1"
         id="stop9" />
    </linearGradient>
    <linearGradient
       inkscape:collect="always"
       xlink:href="#linearGradient5"
       id="linearGradient41"
       x1="13.675659"
       y1="16.110115"
       x2="13.728528"
       y2="10.548769"
       gradientUnits="userSpaceOnUse"
       gradientTransform="matrix(2.046153,0,0,2.046153,-18.798306,-18.911347)" />
    <linearGradient
       inkscape:collect="always"
       xlink:href="#linearGradient42"
       id="linearGradient4"
       x1="11.885941"
       y1="16.50819"
       x2="12.026573"
       y2="10.244942"
       gradientUnits="userSpaceOnUse"
       gradientTransform="matrix(2.046153,0,0,2.046153,-18.798306,-18.911347)" />
    <linearGradient
       id="linearGradient42"
       inkscape:collect="always">
      <stop
         style="stop-color:#010101;stop-opacity:1;"
         offset="0"
         id="stop42" />
      <stop
         style="stop-color:#6e6c6d;stop-opacity:1;"
         offset="1"
         id="stop43" />
    </linearGradient>
    <linearGradient
       inkscape:collect="always"
       xlink:href="#linearGradient8"
       id="linearGradient9"
       x1="9.3404646"
       y1="4.1692023"
       x2="9.4279938"
       y2="16.46883"
       gradientUnits="userSpaceOnUse"
       gradientTransform="matrix(1.05,0,0,1.05,-0.50277005,-0.1977751)" />
    <filter
       style="color-interpolation-filters:sRGB;"
       inkscape:label="Blur"
       id="filter2"
       x="-0.14510849"
       y="-0.14612901"
       width="1.290217"
       height="1.292258">
      <feGaussianBlur
         stdDeviation="0.6 0.6"
         result="blur"
         id="feGaussianBlur2" />
    </filter>
    <linearGradient
       inkscape:collect="always"
       xlink:href="#linearGradient5"
       id="linearGradient33"
       x1="32.038475"
       y1="48.79353"
       x2="32.009354"
       y2="13.962791"
       gradientUnits="userSpaceOnUse"
       gradientTransform="matrix(0.23573911,0,0,0.23573911,0.93066211,0.89306861)" />
  </defs>
  <metadata
     id="metadata2">
    <rdf:RDF>
      <cc:Work
         rdf:about="">
        <dc:format>image/svg+xml</dc:format>
        <dc:type
           rdf:resource="http://purl.org/dc/dcmitype/StillImage" />
      </cc:Work>
    </rdf:RDF>
  </metadata>
  <rect
     style="fill:#000000;fill-opacity:0.996424;stroke:#000000;stroke-width:0.911802;stroke-dasharray:none;stroke-opacity:1;filter:url(#filter2)"
     id="rect1-2-3"
     width="13.065404"
     height="12.974159"
     x="1.9816793"
     y="1.9267306"
     rx="2.7149384"
     ry="2.8310909" />
  <rect
     style="fill:url(#linearGradient4);fill-opacity:0.996424;stroke:url(#linearGradient41);stroke-width:0.911802;stroke-dasharray:none;stroke-opacity:1"
     id="rect1-2"
     width="13.065404"
     height="12.974159"
     x="1.9816793"
     y="1.9267306"
     rx="2.7149384"
     ry="2.8310909" />
  <path
     style="color:#444444;fill:#000000;fill-opacity:1;stroke:none;stroke-width:0.25672;stroke-dasharray:none;stroke-opacity:0.3;opacity:0.3"
     class="ColorScheme-Text"
     d="M 8.4902452,4.7068704 A 1.552287,1.552287 0 0 0 6.937958,6.2591574 V 7.2940156 H 6.4205291 c -0.2866555,0 -0.517429,0.2307732 -0.517429,0.5174291 v 2.0697159 c 0,0.2866554 0.2307735,0.5174294 0.517429,0.5174294 h 4.1394329 c 0.286655,0 0.517428,-0.230774 0.517428,-0.5174294 V 7.8114447 c 0,-0.2866559 -0.230773,-0.5174291 -0.517428,-0.5174291 H 10.042533 V 6.2591574 A 1.552287,1.552287 0 0 0 8.4902452,4.7068704 Z m 0,1.0348583 c 0.2980258,0 0.5174289,0.2194028 0.5174289,0.5174287 V 7.2940156 H 7.972816 V 6.2591574 c 0,-0.2980259 0.2194033,-0.5174287 0.5174292,-0.5174287 z M 7.972816,10.916019 v 0.517428 H 6.937958 v 0.517429 1.034859 h 3.104575 V 11.950876 11.433447 H 9.0076741 v -0.517428 z m -3.1045738,1.034857 c -0.2866557,0 -0.517429,0.230774 -0.517429,0.517428 0,0.286657 0.2307733,0.517431 0.517429,0.517431 h 1.5522869 v -1.034859 z m 5.6917198,0 v 1.034859 h 1.552285 c 0.286658,0 0.517431,-0.230774 0.517431,-0.517431 0,-0.286654 -0.230773,-0.517428 -0.517431,-0.517428 z"
     id="path5-1-9" />
  <path
     style="color:#444444;fill:url(#linearGradient33);fill-opacity:1;stroke:none;stroke-width:0.25672;stroke-dasharray:none;stroke-opacity:0.3"
     class="ColorScheme-Text"
     d="M 8.4902452,4.1777142 A 1.552287,1.552287 0 0 0 6.937958,5.7300012 V 6.7648594 H 6.4205291 c -0.2866555,0 -0.517429,0.2307732 -0.517429,0.5174291 v 2.0697159 c 0,0.2866557 0.2307735,0.5174293 0.517429,0.5174293 h 4.1394329 c 0.286655,0 0.517428,-0.2307736 0.517428,-0.5174293 V 7.2822885 c 0,-0.2866559 -0.230773,-0.5174291 -0.517428,-0.5174291 H 10.042533 V 5.7300012 A 1.552287,1.552287 0 0 0 8.4902452,4.1777142 Z m 0,1.0348583 c 0.2980258,0 0.5174289,0.2194028 0.5174289,0.5174287 V 6.7648594 H 7.972816 V 5.7300012 c 0,-0.2980259 0.2194033,-0.5174287 0.5174292,-0.5174287 z M 7.972816,10.386863 v 0.517428 H 6.937958 v 0.517429 1.034859 h 3.104575 V 11.42172 10.904291 H 9.0076741 V 10.386863 Z M 4.8682422,11.42172 c -0.2866557,0 -0.517429,0.230774 -0.517429,0.517428 0,0.286657 0.2307733,0.517431 0.517429,0.517431 H 6.4205291 V 11.42172 Z m 5.6917198,0 v 1.034859 h 1.552285 c 0.286658,0 0.517431,-0.230774 0.517431,-0.517431 0,-0.286654 -0.230773,-0.517428 -0.517431,-0.517428 z"
     id="path5-1" />
  <rect
     style="opacity:0.5;fill:none;fill-opacity:0.996424;stroke:url(#linearGradient9);stroke-width:0.566102;stroke-dasharray:none;stroke-opacity:1"
     id="rect1-2-6"
     width="11.574203"
     height="11.508601"
     x="2.729686"
     y="2.6615164"
     rx="2.0246315"
     ry="2.0627522" />
</svg>
