<?xml version="1.0" encoding="UTF-8" standalone="no"?>
<svg
   width="64"
   height="64"
   version="1.1"
   viewBox="0 0 16.933 16.933"
   id="svg7"
   sodipodi:docname="Template 4.svg"
   inkscape:version="1.3.2 (091e20ef0f, 2023-11-25)"
   xmlns:inkscape="http://www.inkscape.org/namespaces/inkscape"
   xmlns:sodipodi="http://sodipodi.sourceforge.net/DTD/sodipodi-0.dtd"
   xmlns:xlink="http://www.w3.org/1999/xlink"
   xmlns="http://www.w3.org/2000/svg"
   xmlns:svg="http://www.w3.org/2000/svg"
   xmlns:rdf="http://www.w3.org/1999/02/22-rdf-syntax-ns#"
   xmlns:cc="http://creativecommons.org/ns#"
   xmlns:dc="http://purl.org/dc/elements/1.1/">
  <sodipodi:namedview
     id="namedview7"
     pagecolor="#9c4444"
     bordercolor="#000000"
     borderopacity="0.25"
     inkscape:showpageshadow="2"
     inkscape:pageopacity="0.0"
     inkscape:pagecheckerboard="0"
     inkscape:deskcolor="#d1d1d1"
     inkscape:zoom="4.3531261"
     inkscape:cx="32.964816"
     inkscape:cy="24.350317"
     inkscape:window-width="1463"
     inkscape:window-height="604"
     inkscape:window-x="158"
     inkscape:window-y="144"
     inkscape:window-maximized="0"
     inkscape:current-layer="svg7"
     showgrid="false" />
  <defs
     id="defs2">
    <linearGradient
       id="linearGradient5"
       inkscape:collect="always">
      <stop
         style="stop-color:#392713;stop-opacity:1;"
         offset="0"
         id="stop2" />
      <stop
         style="stop-color:#eed59e;stop-opacity:1;"
         offset="0.5"
         id="stop3" />
      <stop
         style="stop-color:#beaa8a;stop-opacity:1;"
         offset="1"
         id="stop4" />
    </linearGradient>
    <linearGradient
       id="linearGradient8"
       inkscape:collect="always">
      <stop
         style="stop-color:#1a1a1a;stop-opacity:1;"
         offset="0"
         id="stop8" />
      <stop
         style="stop-color:#ffffff;stop-opacity:0;"
         offset="1"
         id="stop9" />
    </linearGradient>
    <linearGradient
       inkscape:collect="always"
       xlink:href="#linearGradient5"
       id="linearGradient41"
       x1="13.675659"
       y1="16.110115"
       x2="13.728528"
       y2="10.548769"
       gradientUnits="userSpaceOnUse"
       gradientTransform="matrix(2.046153,0,0,2.046153,-18.798306,-18.911347)" />
    <linearGradient
       inkscape:collect="always"
       xlink:href="#linearGradient42"
       id="linearGradient4"
       x1="11.885941"
       y1="16.50819"
       x2="12.026573"
       y2="10.244942"
       gradientUnits="userSpaceOnUse"
       gradientTransform="matrix(2.046153,0,0,2.046153,-18.798306,-18.911347)" />
    <linearGradient
       id="linearGradient42"
       inkscape:collect="always">
      <stop
         style="stop-color:#010101;stop-opacity:1;"
         offset="0"
         id="stop42" />
      <stop
         style="stop-color:#6e6c6d;stop-opacity:1;"
         offset="1"
         id="stop43" />
    </linearGradient>
    <linearGradient
       inkscape:collect="always"
       xlink:href="#linearGradient8"
       id="linearGradient9"
       x1="9.3404646"
       y1="4.1692023"
       x2="9.4279938"
       y2="16.46883"
       gradientUnits="userSpaceOnUse"
       gradientTransform="matrix(1.05,0,0,1.05,-0.50277005,-0.1977751)" />
    <filter
       style="color-interpolation-filters:sRGB;"
       inkscape:label="Blur"
       id="filter2"
       x="-0.14510849"
       y="-0.14612901"
       width="1.290217"
       height="1.292258">
      <feGaussianBlur
         stdDeviation="0.6 0.6"
         result="blur"
         id="feGaussianBlur2" />
    </filter>
    <linearGradient
       inkscape:collect="always"
       xlink:href="#linearGradient5"
       id="linearGradient43"
       x1="32.419216"
       y1="46.308937"
       x2="32.358864"
       y2="19.176491"
       gradientUnits="userSpaceOnUse"
       gradientTransform="matrix(0.23573911,0,0,0.23573911,0.92967366,0.69335818)" />
  </defs>
  <metadata
     id="metadata2">
    <rdf:RDF>
      <cc:Work
         rdf:about="">
        <dc:format>image/svg+xml</dc:format>
        <dc:type
           rdf:resource="http://purl.org/dc/dcmitype/StillImage" />
      </cc:Work>
    </rdf:RDF>
  </metadata>
  <rect
     style="fill:#000000;fill-opacity:0.996424;stroke:#000000;stroke-width:0.911802;stroke-dasharray:none;stroke-opacity:1;filter:url(#filter2)"
     id="rect1-2-3"
     width="13.065404"
     height="12.974159"
     x="1.9816793"
     y="1.9267306"
     rx="2.7149384"
     ry="2.8310909" />
  <rect
     style="fill:url(#linearGradient4);fill-opacity:0.996424;stroke:url(#linearGradient41);stroke-width:0.911802;stroke-dasharray:none;stroke-opacity:1"
     id="rect1-2"
     width="13.065404"
     height="12.974159"
     x="1.9816793"
     y="1.9267306"
     rx="2.7149384"
     ry="2.8310909" />
  <path
     id="rect8105-3"
     style="color:#000000;font-style:normal;font-variant:normal;font-weight:normal;font-stretch:normal;font-size:medium;line-height:normal;font-family:sans-serif;text-indent:0;text-align:start;text-decoration:none;text-decoration-line:none;text-decoration-style:solid;text-decoration-color:#000000;letter-spacing:normal;word-spacing:normal;text-transform:none;writing-mode:lr-tb;direction:ltr;baseline-shift:baseline;text-anchor:start;white-space:normal;clip-rule:nonzero;display:inline;overflow:visible;visibility:visible;isolation:auto;mix-blend-mode:normal;color-interpolation:sRGB;color-interpolation-filters:linearRGB;solid-color:#000000;solid-opacity:1;fill:#000000;fill-opacity:1;fill-rule:evenodd;stroke:none;stroke-width:0.918774;stroke-linecap:butt;stroke-linejoin:round;stroke-miterlimit:4;stroke-dasharray:none;stroke-dashoffset:0;stroke-opacity:1;color-rendering:auto;image-rendering:auto;shape-rendering:auto;text-rendering:auto;enable-background:accumulate;opacity:0.3"
     d="m 6.1880995,5.7077405 c -1.2562033,0 -2.2969438,0.9963316 -2.2969438,2.2350338 v 0.1238203 c 0,0.9225321 0.5780196,1.7088873 1.3916252,2.0510994 -0.00822,-0.08565 -0.013458,-0.1724854 -0.013458,-0.2602004 v -0.030511 c 0,-0.243477 0.035336,-0.4784476 0.096005,-0.7034393 C 5.0266822,8.8841002 4.8099338,8.501997 4.8099338,8.0665902 V 7.9427714 c 0,-0.7282912 0.598357,-1.3162563 1.3781667,-1.3162563 h 2.7563324 c 0.779809,0 1.3781671,0.5879651 1.3781671,1.3162563 v 0.1238199 c 0,0.7282908 -0.5983581,1.3162567 -1.3781671,1.3162567 H 7.2199317 C 7.1495091,9.5128275 7.106879,9.6621194 7.106879,9.826984 v 0.030508 c 0,0.164864 0.042631,0.314155 0.1130527,0.444135 h 1.7245031 c 1.2562022,0 2.2969442,-0.9963307 2.2969442,-2.2350332 V 7.9427714 c 0,-1.2387024 -1.040742,-2.2350341 -2.2969442,-2.2350341 z m 1.8375558,1.8375556 c -1.2624712,0 -2.2969446,1.0236501 -2.2969446,2.2816915 v 0.030508 c 0,1.2580364 1.0344734,2.2816894 2.2969446,2.2816894 h 2.7563337 c 1.26247,0 2.296943,-1.02365 2.296943,-2.2816894 v -0.030508 c 0,-0.9381113 -0.575572,-1.7448893 -1.391624,-2.0950652 0.008,0.084786 0.01346,0.1706991 0.01346,0.2575089 v 0.030511 c 0,0.2463519 -0.03575,0.4841375 -0.0978,0.7115149 0.338598,0.246717 0.557189,0.6411397 0.557189,1.0955351 v 0.030508 c 0,0.7607107 -0.604628,1.3629137 -1.378167,1.3629137 H 8.02566 c -0.77354,0 -1.3781671,-0.602199 -1.3781671,-1.3629137 v -0.030508 c 0,-0.7607127 0.6046271,-1.3629137 1.3781671,-1.3629137 H 9.7501579 C 9.8205793,8.3340995 9.8632104,8.1848066 9.8632104,8.0199424 v -0.030511 c 0,-0.1648632 -0.04263,-0.3141556 -0.1130525,-0.4441352 z" />
  <path
     id="rect8105"
     style="color:#000000;font-style:normal;font-variant:normal;font-weight:normal;font-stretch:normal;font-size:medium;line-height:normal;font-family:sans-serif;text-indent:0;text-align:start;text-decoration:none;text-decoration-line:none;text-decoration-style:solid;text-decoration-color:#000000;letter-spacing:normal;word-spacing:normal;text-transform:none;writing-mode:lr-tb;direction:ltr;baseline-shift:baseline;text-anchor:start;white-space:normal;clip-rule:nonzero;display:inline;overflow:visible;visibility:visible;isolation:auto;mix-blend-mode:normal;color-interpolation:sRGB;color-interpolation-filters:linearRGB;solid-color:#000000;solid-opacity:1;fill:url(#linearGradient43);fill-opacity:1;fill-rule:evenodd;stroke:none;stroke-width:0.918774;stroke-linecap:butt;stroke-linejoin:round;stroke-miterlimit:4;stroke-dasharray:none;stroke-dashoffset:0;stroke-opacity:1;color-rendering:auto;image-rendering:auto;shape-rendering:auto;text-rendering:auto;enable-background:accumulate"
     d="m 6.1880995,5.1785843 c -1.2562033,0 -2.2969438,0.9963316 -2.2969438,2.2350338 v 0.1238203 c 0,0.9225321 0.5780196,1.7088873 1.3916252,2.0510989 -0.00822,-0.085646 -0.013458,-0.1724849 -0.013458,-0.2601999 v -0.030511 c 0,-0.243477 0.035336,-0.4784476 0.096005,-0.7034393 C 5.0266822,8.354944 4.8099338,7.9728408 4.8099338,7.537434 V 7.4136152 c 0,-0.7282912 0.598357,-1.3162563 1.3781667,-1.3162563 h 2.7563324 c 0.779809,0 1.3781671,0.5879651 1.3781671,1.3162563 v 0.1238199 c 0,0.7282908 -0.5983581,1.3162567 -1.3781671,1.3162567 H 7.2199317 C 7.1495091,8.9836713 7.106879,9.1329632 7.106879,9.2978278 v 0.030508 c 0,0.1648642 0.042631,0.3141548 0.1130527,0.444135 h 1.7245031 c 1.2562022,0 2.2969442,-0.9963307 2.2969442,-2.2350332 V 7.4136152 c 0,-1.2387024 -1.040742,-2.2350341 -2.2969442,-2.2350341 z m 1.8375558,1.8375556 c -1.2624712,0 -2.2969446,1.0236501 -2.2969446,2.2816915 v 0.030508 c 0,1.2580366 1.0344734,2.2816896 2.2969446,2.2816896 h 2.7563337 c 1.26247,0 2.296943,-1.02365 2.296943,-2.2816896 v -0.030508 c 0,-0.9381113 -0.575572,-1.7448893 -1.391624,-2.0950652 0.008,0.084786 0.01346,0.1706991 0.01346,0.2575089 v 0.030511 c 0,0.2463519 -0.03575,0.4841375 -0.0978,0.7115149 0.338598,0.246717 0.557189,0.6411397 0.557189,1.0955351 v 0.030508 c 0,0.7607109 -0.604628,1.3629139 -1.378167,1.3629139 H 8.02566 c -0.77354,0 -1.3781671,-0.602199 -1.3781671,-1.3629139 v -0.030508 c 0,-0.7607127 0.6046271,-1.3629137 1.3781671,-1.3629137 H 9.7501579 C 9.8205793,7.8049433 9.8632104,7.6556504 9.8632104,7.4907862 v -0.030511 c 0,-0.1648632 -0.04263,-0.3141556 -0.1130525,-0.4441352 z" />
  <rect
     style="opacity:0.5;fill:none;fill-opacity:0.996424;stroke:url(#linearGradient9);stroke-width:0.566102;stroke-dasharray:none;stroke-opacity:1"
     id="rect1-2-6"
     width="11.574203"
     height="11.508601"
     x="2.729686"
     y="2.6615164"
     rx="2.0246315"
     ry="2.0627522" />
</svg>
