<?xml version="1.0" encoding="UTF-8" standalone="no"?>
<svg
   width="64"
   height="64"
   version="1.1"
   viewBox="0 0 16.933 16.933"
   id="svg7"
   sodipodi:docname="Template 4.svg"
   inkscape:version="1.3.2 (091e20ef0f, 2023-11-25)"
   xmlns:inkscape="http://www.inkscape.org/namespaces/inkscape"
   xmlns:sodipodi="http://sodipodi.sourceforge.net/DTD/sodipodi-0.dtd"
   xmlns:xlink="http://www.w3.org/1999/xlink"
   xmlns="http://www.w3.org/2000/svg"
   xmlns:svg="http://www.w3.org/2000/svg"
   xmlns:rdf="http://www.w3.org/1999/02/22-rdf-syntax-ns#"
   xmlns:cc="http://creativecommons.org/ns#"
   xmlns:dc="http://purl.org/dc/elements/1.1/">
  <sodipodi:namedview
     id="namedview7"
     pagecolor="#9c4444"
     bordercolor="#000000"
     borderopacity="0.25"
     inkscape:showpageshadow="2"
     inkscape:pageopacity="0.0"
     inkscape:pagecheckerboard="0"
     inkscape:deskcolor="#d1d1d1"
     inkscape:zoom="4.3531261"
     inkscape:cx="32.964816"
     inkscape:cy="24.350317"
     inkscape:window-width="1463"
     inkscape:window-height="604"
     inkscape:window-x="158"
     inkscape:window-y="144"
     inkscape:window-maximized="0"
     inkscape:current-layer="svg7"
     showgrid="false" />
  <defs
     id="defs2">
    <linearGradient
       id="linearGradient5"
       inkscape:collect="always">
      <stop
         style="stop-color:#392713;stop-opacity:1;"
         offset="0"
         id="stop2" />
      <stop
         style="stop-color:#eed59e;stop-opacity:1;"
         offset="0.5"
         id="stop3" />
      <stop
         style="stop-color:#beaa8a;stop-opacity:1;"
         offset="1"
         id="stop4" />
    </linearGradient>
    <linearGradient
       id="linearGradient8"
       inkscape:collect="always">
      <stop
         style="stop-color:#1a1a1a;stop-opacity:1;"
         offset="0"
         id="stop8" />
      <stop
         style="stop-color:#ffffff;stop-opacity:0;"
         offset="1"
         id="stop9" />
    </linearGradient>
    <linearGradient
       inkscape:collect="always"
       xlink:href="#linearGradient5"
       id="linearGradient41"
       x1="13.675659"
       y1="16.110115"
       x2="13.728528"
       y2="10.548769"
       gradientUnits="userSpaceOnUse"
       gradientTransform="matrix(2.046153,0,0,2.046153,-18.798306,-18.911347)" />
    <linearGradient
       inkscape:collect="always"
       xlink:href="#linearGradient42"
       id="linearGradient4"
       x1="11.885941"
       y1="16.50819"
       x2="12.026573"
       y2="10.244942"
       gradientUnits="userSpaceOnUse"
       gradientTransform="matrix(2.046153,0,0,2.046153,-18.798306,-18.911347)" />
    <linearGradient
       id="linearGradient42"
       inkscape:collect="always">
      <stop
         style="stop-color:#010101;stop-opacity:1;"
         offset="0"
         id="stop42" />
      <stop
         style="stop-color:#6e6c6d;stop-opacity:1;"
         offset="1"
         id="stop43" />
    </linearGradient>
    <linearGradient
       inkscape:collect="always"
       xlink:href="#linearGradient8"
       id="linearGradient9"
       x1="9.3404646"
       y1="4.1692023"
       x2="9.4279938"
       y2="16.46883"
       gradientUnits="userSpaceOnUse"
       gradientTransform="matrix(1.05,0,0,1.05,-0.50277005,-0.1977751)" />
    <filter
       style="color-interpolation-filters:sRGB;"
       inkscape:label="Blur"
       id="filter2"
       x="-0.14510849"
       y="-0.14612901"
       width="1.290217"
       height="1.292258">
      <feGaussianBlur
         stdDeviation="0.6 0.6"
         result="blur"
         id="feGaussianBlur2" />
    </filter>
    <linearGradient
       inkscape:collect="always"
       xlink:href="#linearGradient5"
       id="linearGradient91"
       x1="32.217331"
       y1="50.192215"
       x2="32.181198"
       y2="14.650188"
       gradientUnits="userSpaceOnUse"
       gradientTransform="matrix(0.23573911,0,0,0.23573911,0.94581435,0.74062433)" />
  </defs>
  <metadata
     id="metadata2">
    <rdf:RDF>
      <cc:Work
         rdf:about="">
        <dc:format>image/svg+xml</dc:format>
        <dc:type
           rdf:resource="http://purl.org/dc/dcmitype/StillImage" />
      </cc:Work>
    </rdf:RDF>
  </metadata>
  <rect
     style="fill:#000000;fill-opacity:0.996424;stroke:#000000;stroke-width:0.911802;stroke-dasharray:none;stroke-opacity:1;filter:url(#filter2)"
     id="rect1-2-3"
     width="13.065404"
     height="12.974159"
     x="1.9816793"
     y="1.9267306"
     rx="2.7149384"
     ry="2.8310909" />
  <rect
     style="fill:url(#linearGradient4);fill-opacity:0.996424;stroke:url(#linearGradient41);stroke-width:0.911802;stroke-dasharray:none;stroke-opacity:1"
     id="rect1-2"
     width="13.065404"
     height="12.974159"
     x="1.9816793"
     y="1.9267306"
     rx="2.7149384"
     ry="2.8310909" />
  <path
     d="m 8.569994,4.727387 c -2.3202706,0 -4.2012225,1.8890078 -4.2012225,4.2192129 0,2.3302031 1.8809519,4.2192131 4.2012225,4.2192131 2.320268,0 4.201223,-1.88901 4.201223,-4.2192131 0,-2.3302051 -1.880955,-4.2192129 -4.201223,-4.2192129 z M 8.2699062,5.8952052 c 0.040151,-0.00423 0.090783,0.00244 0.1312973,0 0.00476,0.019292 -0.02924,0.087924 -0.075018,0.1883586 -0.2916009,0.6397287 -0.3081425,1.3889406 -0.03752,1.7893979 0.048976,0.072605 0.093777,0.1417046 0.093777,0.1506874 0,0.00898 -0.052808,0.018796 -0.1125369,0.018796 -0.1401877,0 -0.2728527,-0.085807 -0.5439081,-0.301366 C 7.6055911,7.6453177 7.4490469,7.5648882 7.3883984,7.5527145 7.2931701,7.533603 7.2677864,7.5419836 7.1445724,7.6657277 7.029949,7.7808281 6.9945394,7.8428916 6.9945394,7.9482642 c 0,0.3995839 0.4723848,0.7172293 1.3503939,0.9041174 1.1923654,0.2537977 1.4863029,0.4816647 1.5191896,1.11131 0.041283,0.7895834 -0.3772674,1.3849674 -1.2941262,1.8459054 -0.1094293,0.05504 -0.1791605,0.07639 -0.2250723,0.09417 -0.020416,-0.0018 -0.035955,0.0018 -0.056235,0 -0.00771,-0.02441 -0.018828,-0.08105 -0.018828,-0.188359 0,-0.419377 -0.1645973,-0.851044 -0.4126128,-1.092474 C 7.7906702,10.558137 7.6042561,10.420811 7.4446234,10.321569 7.2849939,10.222333 7.1241581,10.107055 7.0882673,10.05787 7.0287894,9.9762501 7.0238441,9.926109 7.0694388,9.775333 7.1527118,9.4999567 7.2518422,9.3465818 7.4445424,9.172588 7.5455769,9.0813687 7.6472252,9.0048739 7.6696152,9.0030651 7.6920694,9.0012735 7.5404965,8.9555681 7.3132621,8.9088869 7.0860254,8.8621259 6.7536543,8.7641667 6.5817825,8.701704 6.2675428,8.5875148 5.8432802,8.3477967 5.6815142,8.1743033 5.6747037,8.1669458 5.6688125,8.1620024 5.6626857,8.1555078 5.8944321,7.2284501 6.5447819,6.4686307 7.406938,6.1024087 7.587323,6.025781 7.773297,5.973211 7.9696022,5.9328854 8.0673708,5.9128146 8.1687235,5.905522 8.269689,5.8952143 Z m 2.8133168,1.4126823 c 0.07049,0.043757 0.336645,0.622063 0.412621,0.9041171 0.09809,0.3641724 0.09098,0.9943782 0,1.3561757 -0.03464,0.13769 -0.07901,0.2665033 -0.09378,0.2825366 -0.01475,0.01604 -0.0683,-0.076265 -0.131296,-0.1883588 C 11.207788,9.5502852 11.006606,9.3121346 10.839403,9.1349579 10.356779,8.6235108 10.280887,8.3564645 10.483051,7.9483045 10.584994,7.7424723 11.02867,7.2740736 11.083223,7.3078875 Z"
     fill="#333333"
     id="path2-7"
     style="fill:#000000;fill-opacity:1;stroke:none;stroke-width:0.254153;stroke-dasharray:none;stroke-opacity:0.3;opacity:0.3" />
  <path
     d="m 8.569994,4.1982308 c -2.3202706,0 -4.2012225,1.8890078 -4.2012225,4.2192129 0,2.3302033 1.8809519,4.2192133 4.2012225,4.2192133 2.320268,0 4.201223,-1.88901 4.201223,-4.2192133 0,-2.3302051 -1.880955,-4.2192129 -4.201223,-4.2192129 z M 8.2699062,5.366049 c 0.040151,-0.00423 0.090783,0.00244 0.1312973,0 0.00476,0.019292 -0.02924,0.087924 -0.075018,0.1883586 -0.2916009,0.6397287 -0.3081425,1.3889406 -0.03752,1.7893979 0.048976,0.072605 0.093777,0.1417045 0.093777,0.1506874 0,0.00898 -0.052808,0.018796 -0.1125369,0.018796 -0.1401877,0 -0.2728527,-0.085807 -0.5439081,-0.301366 C 7.6055911,7.1161615 7.4490469,7.035732 7.3883984,7.0235583 7.2931701,7.0044468 7.2677864,7.0128274 7.1445724,7.1365715 7.029949,7.2516719 6.9945394,7.3137354 6.9945394,7.419108 c 0,0.3995839 0.4723848,0.7172293 1.3503939,0.9041174 1.1923654,0.2537977 1.4863029,0.4816647 1.5191896,1.11131 0.041283,0.7895836 -0.3772674,1.3849676 -1.2941262,1.8459056 -0.1094293,0.05504 -0.1791605,0.07639 -0.2250723,0.09417 -0.020416,-0.0018 -0.035955,0.0018 -0.056235,0 -0.00771,-0.02441 -0.018828,-0.08105 -0.018828,-0.188359 0,-0.419377 -0.1645973,-0.851044 -0.4126128,-1.092474 C 7.7906702,10.028981 7.6042561,9.8916548 7.4446234,9.7924125 7.2849939,9.6931771 7.1241581,9.5778987 7.0882673,9.5287136 7.0287894,9.4470939 7.0238441,9.3969528 7.0694388,9.2461768 7.1527118,8.9708005 7.2518422,8.8174256 7.4445424,8.6434318 7.5455769,8.5522125 7.6472252,8.4757177 7.6696152,8.4739089 7.6920694,8.4721173 7.5404965,8.4264119 7.3132621,8.3797307 7.0860254,8.3329697 6.7536543,8.2350105 6.5817825,8.1725478 6.2675428,8.0583586 5.8432802,7.8186405 5.6815142,7.6451471 5.6747037,7.6377896 5.6688125,7.6328462 5.6626857,7.6263516 5.8944321,6.6992939 6.5447819,5.9394745 7.406938,5.5732525 7.587323,5.4966248 7.773297,5.4440548 7.9696022,5.4037292 8.0673708,5.3836584 8.1687235,5.3763658 8.269689,5.3660581 Z m 2.8133168,1.4126823 c 0.07049,0.043757 0.336645,0.622063 0.412621,0.9041171 0.09809,0.3641724 0.09098,0.9943782 0,1.3561757 -0.03464,0.13769 -0.07901,0.2665033 -0.09378,0.2825365 -0.01475,0.01604 -0.0683,-0.076265 -0.131296,-0.1883587 C 11.207788,9.021129 11.006606,8.7829784 10.839403,8.6058017 10.356779,8.0943546 10.280887,7.8273083 10.483051,7.4191483 10.584994,7.2133161 11.02867,6.7449174 11.083223,6.7787313 Z"
     fill="#333333"
     id="path2"
     style="opacity:1;fill:url(#linearGradient91);fill-opacity:1;stroke:none;stroke-width:0.254153;stroke-dasharray:none;stroke-opacity:0.3" />
  <rect
     style="opacity:0.5;fill:none;fill-opacity:0.996424;stroke:url(#linearGradient9);stroke-width:0.566102;stroke-dasharray:none;stroke-opacity:1"
     id="rect1-2-6"
     width="11.574203"
     height="11.508601"
     x="2.729686"
     y="2.6615164"
     rx="2.0246315"
     ry="2.0627522" />
</svg>
