<?xml version="1.0" encoding="UTF-8" standalone="no"?>
<svg
   width="64"
   height="64"
   version="1.1"
   viewBox="0 0 16.933 16.933"
   id="svg7"
   sodipodi:docname="Template 4.svg"
   inkscape:version="1.3.2 (091e20ef0f, 2023-11-25)"
   xmlns:inkscape="http://www.inkscape.org/namespaces/inkscape"
   xmlns:sodipodi="http://sodipodi.sourceforge.net/DTD/sodipodi-0.dtd"
   xmlns:xlink="http://www.w3.org/1999/xlink"
   xmlns="http://www.w3.org/2000/svg"
   xmlns:svg="http://www.w3.org/2000/svg"
   xmlns:rdf="http://www.w3.org/1999/02/22-rdf-syntax-ns#"
   xmlns:cc="http://creativecommons.org/ns#"
   xmlns:dc="http://purl.org/dc/elements/1.1/">
  <sodipodi:namedview
     id="namedview7"
     pagecolor="#9c4444"
     bordercolor="#000000"
     borderopacity="0.25"
     inkscape:showpageshadow="2"
     inkscape:pageopacity="0.0"
     inkscape:pagecheckerboard="0"
     inkscape:deskcolor="#d1d1d1"
     inkscape:zoom="4.3531261"
     inkscape:cx="32.964816"
     inkscape:cy="24.350317"
     inkscape:window-width="1463"
     inkscape:window-height="604"
     inkscape:window-x="158"
     inkscape:window-y="144"
     inkscape:window-maximized="0"
     inkscape:current-layer="svg7"
     showgrid="false" />
  <defs
     id="defs2">
    <linearGradient
       id="linearGradient5"
       inkscape:collect="always">
      <stop
         style="stop-color:#392713;stop-opacity:1;"
         offset="0"
         id="stop2" />
      <stop
         style="stop-color:#eed59e;stop-opacity:1;"
         offset="0.5"
         id="stop3" />
      <stop
         style="stop-color:#beaa8a;stop-opacity:1;"
         offset="1"
         id="stop4" />
    </linearGradient>
    <linearGradient
       id="linearGradient8"
       inkscape:collect="always">
      <stop
         style="stop-color:#1a1a1a;stop-opacity:1;"
         offset="0"
         id="stop8" />
      <stop
         style="stop-color:#ffffff;stop-opacity:0;"
         offset="1"
         id="stop9" />
    </linearGradient>
    <linearGradient
       inkscape:collect="always"
       xlink:href="#linearGradient5"
       id="linearGradient41"
       x1="13.675659"
       y1="16.110115"
       x2="13.728528"
       y2="10.548769"
       gradientUnits="userSpaceOnUse"
       gradientTransform="matrix(2.046153,0,0,2.046153,-18.798306,-18.911347)" />
    <linearGradient
       inkscape:collect="always"
       xlink:href="#linearGradient42"
       id="linearGradient4"
       x1="11.885941"
       y1="16.50819"
       x2="12.026573"
       y2="10.244942"
       gradientUnits="userSpaceOnUse"
       gradientTransform="matrix(2.046153,0,0,2.046153,-18.798306,-18.911347)" />
    <linearGradient
       id="linearGradient42"
       inkscape:collect="always">
      <stop
         style="stop-color:#010101;stop-opacity:1;"
         offset="0"
         id="stop42" />
      <stop
         style="stop-color:#6e6c6d;stop-opacity:1;"
         offset="1"
         id="stop43" />
    </linearGradient>
    <linearGradient
       inkscape:collect="always"
       xlink:href="#linearGradient8"
       id="linearGradient9"
       x1="9.3404646"
       y1="4.1692023"
       x2="9.4279938"
       y2="16.46883"
       gradientUnits="userSpaceOnUse"
       gradientTransform="matrix(1.05,0,0,1.05,-0.50277005,-0.1977751)" />
    <filter
       style="color-interpolation-filters:sRGB;"
       inkscape:label="Blur"
       id="filter2"
       x="-0.14510849"
       y="-0.14612901"
       width="1.290217"
       height="1.292258">
      <feGaussianBlur
         stdDeviation="0.6 0.6"
         result="blur"
         id="feGaussianBlur2" />
    </filter>
    <linearGradient
       inkscape:collect="always"
       xlink:href="#linearGradient5"
       id="linearGradient18"
       x1="34.420647"
       y1="49.561649"
       x2="34.783165"
       y2="14.581847"
       gradientUnits="userSpaceOnUse"
       gradientTransform="matrix(0.23573911,0,0,0.23573911,0.93856442,0.84973645)" />
  </defs>
  <metadata
     id="metadata2">
    <rdf:RDF>
      <cc:Work
         rdf:about="">
        <dc:format>image/svg+xml</dc:format>
        <dc:type
           rdf:resource="http://purl.org/dc/dcmitype/StillImage" />
      </cc:Work>
    </rdf:RDF>
  </metadata>
  <rect
     style="fill:#000000;fill-opacity:0.996424;stroke:#000000;stroke-width:0.911802;stroke-dasharray:none;stroke-opacity:1;filter:url(#filter2)"
     id="rect1-2-3"
     width="13.065404"
     height="12.974159"
     x="1.9816793"
     y="1.9267306"
     rx="2.7149384"
     ry="2.8310909" />
  <rect
     style="fill:url(#linearGradient4);fill-opacity:0.996424;stroke:url(#linearGradient41);stroke-width:0.911802;stroke-dasharray:none;stroke-opacity:1"
     id="rect1-2"
     width="13.065404"
     height="12.974159"
     x="1.9816793"
     y="1.9267306"
     rx="2.7149384"
     ry="2.8310909" />
  <path
     id="path59-4"
     style="fill:#000000;fill-opacity:1;stroke:none;stroke-width:0.282392;stroke-dasharray:none;stroke-dashoffset:2.2;stroke-opacity:0.3;opacity:0.3"
     d="m 8.5481409,4.8046785 c -4.2265234,0 -4.0594414,-0.00634 -4.1487325,0.1604999 -0.020651,0.03859 -0.033645,0.4126995 -0.033645,0.9812016 0,1.0148132 0.00182,1.0254575 0.2068306,1.1146761 0.083392,0.036296 0.7813285,0.044183 3.9562428,0.045227 3.5023742,0.00118 3.8651962,-0.00366 3.9667232,-0.051845 0.203421,-0.096531 0.210317,-0.1356467 0.199658,-1.1510781 l -0.0094,-0.9095001 -0.105902,-0.094866 -0.106442,-0.094314 z m 2.3043611,0.3551961 c 0.129157,0.00328 0.252189,0.056786 0.31328,0.1500208 0.119428,0.1822717 0.04325,0.3962775 -0.173738,0.4881186 -0.128772,0.054506 -0.191828,0.054254 -0.321551,-0.0022 -0.13144,-0.057208 -0.20683,-0.1678538 -0.20683,-0.3033528 0,-0.1424714 0.04579,-0.2225017 0.161603,-0.282392 0.07016,-0.036282 0.149743,-0.052155 0.227236,-0.050192 z m -1.1841698,0.00166 c 0.3958518,0 0.5031768,0.4860221 0.1395423,0.6315208 -0.138449,0.05539 -0.1602108,0.056313 -0.3072125,0.013782 C 9.2957654,5.747547 9.2075374,5.5258921 9.3098267,5.328086 9.3677874,5.2160033 9.4856737,5.1615189 9.6683322,5.1615189 Z m 2.2166648,0 c 0.412413,0 0.54123,0.4791843 0.168772,0.6282115 -0.07241,0.02897 -0.149592,0.051249 -0.17153,0.04964 -0.348383,-0.025552 -0.498098,-0.339705 -0.270256,-0.567545 0.09614,-0.096144 0.130966,-0.1103086 0.273014,-0.1103094 z M 8.2414814,5.3236719 c 0.079222,0 0.2112425,0.1490313 0.2112425,0.2382681 0,0.072166 -0.41832,0.6603496 -0.643655,0.9050877 -0.1477955,0.1605226 -0.3943563,0.086713 -0.3943563,-0.1180309 0,-0.084632 0.06611,-0.1931399 0.3259643,-0.5333454 C 8.059982,5.3976078 8.1358412,5.3236683 8.2414814,5.3236683 Z m -2.713609,0.00553 c 0.043129,-0.00478 0.08262,0.014851 0.130165,0.050188 C 5.8220198,5.501254 5.7955285,5.5955954 5.4820937,6.0075922 5.3271457,6.2112617 5.1630536,6.4179685 5.1175215,6.4670273 5.0180398,6.574213 4.8806995,6.584298 4.7876968,6.4912989 4.6645792,6.3681823 4.70124,6.2763968 5.0640218,5.8024179 5.3202775,5.4676174 5.4329873,5.3396881 5.5278724,5.3291909 Z m 0.9166699,0.00109 c 0.014773,7.89e-5 0.029761,0.00274 0.045226,0.00662 0.1059163,0.026571 0.1918757,0.1589262 0.167118,0.2575622 -0.020169,0.080364 -0.5627139,0.8066158 -0.6756437,0.9045343 -0.087487,0.075858 -0.2295007,0.07211 -0.3022473,-0.00827 C 5.56316,6.3627301 5.6009626,6.2669609 5.9371192,5.8299745 6.240453,5.4356584 6.3411299,5.3297209 6.4445423,5.3302732 Z m 0.8609642,0.00662 C 7.3969506,5.3305209 7.500179,5.3754111 7.523919,5.4372775 7.5774146,5.5766868 7.5371512,5.663887 7.2327025,6.0643864 7.0610239,6.2902254 6.8971984,6.4932485 6.8692334,6.5155492 6.7380726,6.620136 6.5068673,6.5116242 6.5068673,6.3456724 c 0,-0.1127483 0.6544251,-0.9762065 0.7600311,-1.0027113 0.0123,-0.00308 0.025545,-0.00515 0.038608,-0.00607 z M 8.5133934,7.7824468 C 6.5696229,7.7830361 4.6298443,7.8014548 4.561011,7.8370498 4.3671135,7.9373138 4.3657635,7.9436229 4.3657635,8.9495199 c 0,0.5658867 0.013178,0.9429576 0.033645,0.9812012 0.018286,0.034171 0.072729,0.083928 0.1213399,0.1103089 0.076577,0.04156 0.6137229,0.04796 4.0207743,0.04909 l 3.9319753,0.0011 0.106441,-0.094315 0.105904,-0.094866 0.0094,-0.9095004 c 0.01067,-1.01997 0.0018,-1.071269 -0.205174,-1.1576968 -0.08508,-0.035547 -2.032881,-0.052979 -3.9766512,-0.052397 z M 9.6584042,8.148122 c 0.054871,0.0012 0.1092578,0.017762 0.1775983,0.050192 0.2163195,0.1026497 0.2626735,0.3709009 0.09211,0.5311391 -0.057681,0.054183 -0.1303929,0.079861 -0.2581237,0.090453 C 9.501205,8.8339048 9.4860344,8.8284427 9.3776691,8.7200774 9.1907537,8.5331615 9.2363801,8.2913382 9.4774997,8.1905927 9.5478845,8.1611833 9.6035306,8.1469284 9.6584073,8.1481239 Z m 2.2381758,0 c 0.05487,0.0012 0.109258,0.017762 0.177598,0.050192 0.216319,0.1026497 0.262676,0.3709009 0.09211,0.5311391 -0.05768,0.054183 -0.130393,0.079861 -0.258124,0.090455 -0.168784,0.013999 -0.183953,0.00853 -0.29232,-0.09983 -0.186915,-0.186916 -0.141288,-0.4287395 0.09983,-0.5294847 0.07039,-0.029409 0.126029,-0.043664 0.180906,-0.042469 z m -1.028634,0.00717 c 0.01752,8.505e-4 0.03443,0.00304 0.05074,0.00662 0.127511,0.028008 0.27876,0.1563059 0.304453,0.2586754 0.02938,0.1170651 -0.05715,0.2960486 -0.171532,0.355196 -0.18685,0.096626 -0.474864,0.039704 -0.554853,-0.1097579 -0.05398,-0.1008506 -0.03809,-0.2780952 0.03254,-0.3678816 0.07056,-0.089698 0.215959,-0.1487035 0.33865,-0.1428503 z M 5.5339394,8.3400774 c 0.1206469,0 0.2266853,0.1014494 0.2266853,0.2167579 0,0.1080951 -0.6258871,0.9436844 -0.7390723,0.9867167 C 4.9165478,9.5834759 4.9049733,9.5816926 4.8081038,9.5054965 4.6617685,9.3903881 4.6911101,9.2958977 5.0005935,8.8861092 5.3893231,8.3713916 5.4202371,8.3400779 5.5339394,8.3400774 Z m 0.9243915,0 c 0.083761,0 0.2106909,0.1367702 0.2106909,0.2272371 0,0.077865 -0.6476079,0.9278274 -0.7396242,0.9707224 -0.086087,0.04013 -0.096167,0.039958 -0.1897317,0.00221 C 5.6507018,9.5043569 5.6272355,9.464924 5.6238411,9.3455559 5.621743,9.2712025 5.6969477,9.1497707 5.9531146,8.8133136 6.2898151,8.371081 6.3228799,8.3400865 6.4583309,8.3400865 Z m 0.8719955,0.00109 c 0.061861,-0.00257 0.1226828,0.016126 0.1604996,0.057914 0.1144162,0.1264274 0.072078,0.2331778 -0.2719119,0.6822625 -0.1792138,0.2339666 -0.3534981,0.4403052 -0.3871864,0.4583355 -0.033687,0.018029 -0.084876,0.033093 -0.1136185,0.033093 -0.07844,0 -0.2112419,-0.14899 -0.2112419,-0.2366134 0,-0.068019 0.4502984,-0.7009972 0.6568914,-0.923289 0.041932,-0.045116 0.1047062,-0.069119 0.1665677,-0.071699 z m 0.8758555,0.00277 C 8.354199,8.3280867 8.4802883,8.4537872 8.4422441,8.6053695 8.4167921,8.706772 7.8215961,9.4807566 7.7301974,9.5314088 7.6417031,9.5804462 7.6114259,9.5807342 7.5283312,9.5336318 7.3315352,9.4220238 7.3649126,9.3086312 7.7406766,8.8160572 7.9200359,8.5809418 8.1005221,8.3753176 8.141651,8.3593769 c 0.021641,-0.0084 0.043386,-0.013178 0.06453,-0.015443 z m 0.341959,2.4610016 c -4.2265149,0 -4.0594421,-0.0064 -4.148733,0.160499 -0.046084,0.08609 -0.045071,1.865649 0.00109,1.951925 0.018976,0.03546 0.081046,0.09275 0.1378866,0.127405 0.1008032,0.06146 0.1984751,0.06276 3.9722384,0.06287 4.2441021,1.34e-4 4.0366391,0.0098 4.1415621,-0.19304 0.04514,-0.08726 0.05126,-0.224793 0.04303,-1.010433 l -0.0094,-0.910052 -0.105903,-0.09431 -0.106442,-0.09486 z m 1.0203609,0.357956 c 0.026833,-2.03e-4 0.059289,0.0025 0.1014812,0.0061 0.1277316,0.01057 0.2004484,0.03572 0.2581249,0.08989 0.1705641,0.16024 0.1242111,0.42849 -0.092111,0.531142 -0.134167,0.06366 -0.2302735,0.06554 -0.3656753,0.0066 -0.234578,-0.102085 -0.2769995,-0.34404 -0.092659,-0.52838 0.081274,-0.08127 0.1103261,-0.104739 0.1908352,-0.105343 z m 1.2321552,0 c 0.179047,-0.01176 0.356099,0.08112 0.408145,0.238822 0.04495,0.136182 0.0015,0.253278 -0.129612,0.350232 -0.248571,0.183811 -0.615527,0.0296 -0.615527,-0.258676 0,-0.14247 0.04579,-0.222503 0.161603,-0.282392 0.05554,-0.02872 0.11571,-0.04406 0.175391,-0.04799 z m 1.006021,0 c 0.02683,-2.03e-4 0.05928,0.0025 0.101483,0.0061 0.12773,0.01057 0.200448,0.03572 0.258125,0.08989 0.170565,0.16024 0.124209,0.42849 -0.09211,0.531142 -0.134167,0.06366 -0.230274,0.06554 -0.365675,0.0066 -0.234579,-0.102087 -0.277001,-0.344043 -0.09265,-0.528384 0.08127,-0.08127 0.110325,-0.104738 0.190835,-0.105342 z m -3.5778822,0.161042 c 0.089513,0 0.2239273,0.142972 0.2239273,0.238268 0,0.07215 -0.4183202,0.66035 -0.6436545,0.905089 -0.1537955,0.167038 -0.3943563,0.09047 -0.3943563,-0.125752 0,-0.07174 0.076037,-0.196876 0.294526,-0.484259 0.3308445,-0.435165 0.4262953,-0.533346 0.5195575,-0.533346 z m -2.673346,0.0083 c 0.034249,0.0033 0.067277,0.02136 0.1053455,0.04963 0.1600645,0.118943 0.1329272,0.214962 -0.1775983,0.625455 -0.1543308,0.204011 -0.3184486,0.41093 -0.3645724,0.459989 -0.1007139,0.107121 -0.2380267,0.11717 -0.3309278,0.02426 -0.122825,-0.12283 -0.085999,-0.214579 0.2746701,-0.685026 0.2784658,-0.363223 0.3903377,-0.484403 0.4930829,-0.47433 z m 0.8802676,0.0055 c 0.082967,0.0025 0.1712506,0.05428 0.20683,0.132371 0.051518,0.113065 0.00257,0.202931 -0.3700874,0.68116 -0.275294,0.353284 -0.3139753,0.389979 -0.4175208,0.398768 -0.082498,0.0071 -0.1305304,-0.0089 -0.1742883,-0.05736 -0.1185725,-0.13102 -0.081436,-0.222992 0.2724637,-0.678953 0.1830696,-0.235867 0.3647903,-0.443351 0.403732,-0.461094 0.024368,-0.01111 0.051215,-0.01571 0.078871,-0.0149 z m 0.8675831,5.65e-4 c 0.07835,-0.004 0.1774427,0.03791 0.2162057,0.09596 0.075881,0.113643 0.019525,0.235608 -0.3027986,0.651929 -0.1794561,0.23179 -0.3432255,0.431867 -0.3640207,0.445098 -0.1309946,0.08334 -0.3458196,-0.03142 -0.3458196,-0.184769 0,-0.113888 0.6572561,-0.976911 0.7644436,-1.003815 0.010092,-0.0025 0.020797,-0.0039 0.03199,-0.0043 z" />
  <path
     id="path59"
     style="fill:url(#linearGradient18);fill-opacity:1;stroke:none;stroke-width:0.282392;stroke-dasharray:none;stroke-dashoffset:2.2;stroke-opacity:0.3"
     d="m 8.5481409,4.2755223 c -4.2265234,0 -4.0594414,-0.00634 -4.1487325,0.1604999 -0.020651,0.03859 -0.033645,0.4126995 -0.033645,0.9812016 0,1.0148132 0.00182,1.0254575 0.2068306,1.1146761 0.083392,0.036296 0.7813285,0.044183 3.9562428,0.045227 3.5023742,0.00118 3.8651962,-0.00366 3.9667232,-0.051845 0.203421,-0.096531 0.210317,-0.1356467 0.199658,-1.1510781 l -0.0094,-0.9095001 -0.105902,-0.094866 -0.106442,-0.094314 z m 2.3043611,0.3551961 c 0.129157,0.00328 0.252189,0.056786 0.31328,0.1500208 0.119428,0.1822717 0.04325,0.3962775 -0.173738,0.4881186 -0.128772,0.054506 -0.191828,0.054254 -0.321551,-0.0022 -0.13144,-0.057208 -0.20683,-0.1678538 -0.20683,-0.3033528 0,-0.1424714 0.04579,-0.2225017 0.161603,-0.282392 0.07016,-0.036282 0.149743,-0.052155 0.227236,-0.050192 z m -1.1841698,0.00166 c 0.3958518,0 0.5031768,0.4860221 0.1395423,0.6315208 -0.138449,0.05539 -0.1602108,0.056313 -0.3072125,0.013782 C 9.2957654,5.2183908 9.2075374,4.9967359 9.3098267,4.7989298 9.3677874,4.6868471 9.4856737,4.6323627 9.6683322,4.6323627 Z m 2.2166648,0 c 0.412413,0 0.54123,0.4791843 0.168772,0.6282115 -0.07241,0.02897 -0.149592,0.051249 -0.17153,0.04964 -0.348383,-0.025552 -0.498098,-0.339705 -0.270256,-0.567545 0.09614,-0.096144 0.130966,-0.1103086 0.273014,-0.1103094 z M 8.2414814,4.7945157 c 0.079222,0 0.2112425,0.1490313 0.2112425,0.2382681 0,0.072166 -0.41832,0.6603496 -0.643655,0.9050877 -0.1477955,0.1605226 -0.3943563,0.086713 -0.3943563,-0.1180309 0,-0.084632 0.06611,-0.1931399 0.3259643,-0.5333454 C 8.059982,4.8684516 8.1358412,4.7945121 8.2414814,4.7945121 Z m -2.713609,0.00553 c 0.043129,-0.00478 0.08262,0.014851 0.130165,0.050188 C 5.8220198,4.9720978 5.7955285,5.0664392 5.4820937,5.478436 5.3271457,5.6821055 5.1630536,5.8888123 5.1175215,5.9378711 5.0180398,6.0450568 4.8806995,6.0551418 4.7876968,5.9621427 4.6645792,5.8390261 4.70124,5.7472406 5.0640218,5.2732617 5.3202775,4.9384612 5.4329873,4.8105319 5.5278724,4.8000347 Z m 0.9166699,0.00109 c 0.014773,7.89e-5 0.029761,0.00274 0.045226,0.00662 0.1059163,0.026571 0.1918757,0.1589262 0.167118,0.2575622 C 6.6367173,5.1456816 6.0941724,5.8719337 5.9812426,5.9698522 5.8937554,6.0457105 5.7517419,6.041962 5.6789953,5.9615812 5.56316,5.8335739 5.6009626,5.7378047 5.9371192,5.3008183 6.240453,4.9065022 6.3411299,4.8005647 6.4445423,4.801117 Z m 0.8609642,0.00662 C 7.3969506,4.8013647 7.500179,4.8462549 7.523919,4.9081213 7.5774146,5.0475306 7.5371512,5.1347308 7.2327025,5.5352302 7.0610239,5.7610692 6.8971984,5.9640923 6.8692334,5.986393 6.7380726,6.0909798 6.5068673,5.982468 6.5068673,5.8165162 c 0,-0.1127483 0.6544251,-0.9762065 0.7600311,-1.0027113 0.0123,-0.00308 0.025545,-0.00515 0.038608,-0.00607 z M 8.5133934,7.2532906 C 6.5696229,7.2538799 4.6298443,7.2722986 4.561011,7.3078936 4.3671135,7.4081576 4.3657635,7.4144667 4.3657635,8.4203637 c 0,0.5658867 0.013178,0.9429576 0.033645,0.9812012 0.018286,0.034171 0.072729,0.083928 0.1213399,0.1103092 0.076577,0.041558 0.6137229,0.047957 4.0207743,0.049087 l 3.9319753,0.00109 0.106441,-0.094315 0.105904,-0.094866 0.0094,-0.9095004 c 0.01067,-1.01997 0.0018,-1.071269 -0.205174,-1.1576968 -0.08508,-0.035547 -2.032881,-0.052979 -3.9766512,-0.052397 z m 1.1450108,0.3656752 c 0.054871,0.0012 0.1092578,0.017762 0.1775983,0.050192 0.2163195,0.1026497 0.2626735,0.3709009 0.09211,0.5311391 -0.057681,0.054183 -0.1303929,0.079861 -0.2581237,0.090453 C 9.501205,8.3047486 9.4860344,8.2992865 9.3776691,8.1909212 9.1907537,8.0040053 9.2363801,7.762182 9.4774997,7.6614365 9.5478845,7.6320271 9.6035306,7.6177722 9.6584073,7.6189677 Z m 2.2381758,0 c 0.05487,0.0012 0.109258,0.017762 0.177598,0.050192 0.216319,0.1026497 0.262676,0.3709009 0.09211,0.5311391 -0.05768,0.054183 -0.130393,0.079861 -0.258124,0.090455 -0.168784,0.013999 -0.183953,0.00853 -0.29232,-0.09983 -0.186915,-0.186916 -0.141288,-0.4287395 0.09983,-0.5294847 0.07039,-0.029409 0.126029,-0.043664 0.180906,-0.042469 z m -1.028634,0.00717 c 0.01752,8.505e-4 0.03443,0.00304 0.05074,0.00662 0.127511,0.028008 0.27876,0.1563059 0.304453,0.2586754 0.02938,0.1170651 -0.05715,0.2960486 -0.171532,0.355196 -0.18685,0.096626 -0.474864,0.039704 -0.554853,-0.1097579 -0.05398,-0.1008506 -0.03809,-0.2780952 0.03254,-0.3678816 0.07056,-0.089698 0.215959,-0.1487035 0.33865,-0.1428503 z M 5.5339394,7.8109212 c 0.1206469,0 0.2266853,0.1014494 0.2266853,0.2167579 0,0.1080951 -0.6258871,0.9436844 -0.7390723,0.9867167 C 4.9165478,9.0543197 4.9049733,9.0525364 4.8081038,8.9763403 4.6617685,8.8612319 4.6911101,8.7667415 5.0005935,8.356953 5.3893231,7.8422354 5.4202371,7.8109217 5.5339394,7.8109212 Z m 0.9243915,0 c 0.083761,0 0.2106909,0.1367702 0.2106909,0.2272371 0,0.077865 -0.6476079,0.9278273 -0.7396242,0.9707224 -0.086087,0.04013 -0.096167,0.039958 -0.1897317,0.00221 C 5.6507018,8.9752007 5.6272355,8.9357678 5.6238411,8.8163997 5.621743,8.7420463 5.6969477,8.6206145 5.9531146,8.2841574 6.2898151,7.8419248 6.3228799,7.8109303 6.4583309,7.8109303 Z m 0.8719955,0.00109 C 7.392187,7.8094452 7.4530092,7.8281373 7.490826,7.8699252 7.6052422,7.9963526 7.5629043,8.103103 7.2189141,8.5521877 7.0397003,8.7861543 6.865416,8.9924929 6.8317277,9.0105232 c -0.033687,0.018029 -0.084876,0.033093 -0.1136185,0.033093 -0.07844,0 -0.2112419,-0.14899 -0.2112419,-0.2366134 0,-0.068019 0.4502984,-0.7009972 0.6568914,-0.923289 0.041932,-0.045116 0.1047062,-0.069119 0.1665677,-0.071699 z m 0.8758555,0.00277 C 8.354199,7.7989305 8.4802883,7.924631 8.4422441,8.0762133 8.4167921,8.1776158 7.8215961,8.9516004 7.7301974,9.0022526 7.6417031,9.05129 7.6114259,9.051578 7.5283312,9.0044756 7.3315352,8.8928676 7.3649126,8.779475 7.7406766,8.286901 7.9200359,8.0517856 8.1005221,7.8461614 8.141651,7.8302207 c 0.021641,-0.0084 0.043386,-0.013178 0.06453,-0.015443 z m 0.341959,2.4610018 c -4.2265149,0 -4.0594421,-0.0064 -4.148733,0.160499 -0.046084,0.08609 -0.045071,1.865649 0.00109,1.951925 0.018976,0.03546 0.081046,0.09275 0.1378866,0.127405 0.1008032,0.06146 0.1984751,0.06276 3.9722384,0.06287 4.2441021,1.34e-4 4.0366391,0.0098 4.1415621,-0.19304 0.04514,-0.08726 0.05126,-0.224793 0.04303,-1.010433 l -0.0094,-0.910052 -0.105903,-0.09431 -0.106442,-0.09486 z m 1.0203609,0.357956 c 0.026833,-2.03e-4 0.059289,0.0025 0.1014812,0.0061 0.1277316,0.01057 0.2004484,0.03572 0.2581249,0.08989 0.1705641,0.16024 0.1242111,0.42849 -0.092111,0.531142 -0.134167,0.06366 -0.2302735,0.06554 -0.3656753,0.0066 -0.234578,-0.102085 -0.2769995,-0.34404 -0.092659,-0.52838 0.081274,-0.08127 0.1103261,-0.104739 0.1908352,-0.105343 z m 1.2321552,0 c 0.179047,-0.01176 0.356099,0.08112 0.408145,0.238822 0.04495,0.136182 0.0015,0.253278 -0.129612,0.350232 -0.248571,0.183811 -0.615527,0.0296 -0.615527,-0.258676 0,-0.14247 0.04579,-0.222503 0.161603,-0.282392 0.05554,-0.02872 0.11571,-0.04406 0.175391,-0.04799 z m 1.006021,0 c 0.02683,-2.03e-4 0.05928,0.0025 0.101483,0.0061 0.12773,0.01057 0.200448,0.03572 0.258125,0.08989 0.170565,0.16024 0.124209,0.42849 -0.09211,0.531142 -0.134167,0.06366 -0.230274,0.06554 -0.365675,0.0066 -0.234579,-0.102087 -0.277001,-0.344043 -0.09265,-0.528384 0.08127,-0.08127 0.110325,-0.104738 0.190835,-0.105342 z m -3.5778822,0.161042 c 0.089513,0 0.2239273,0.142972 0.2239273,0.238268 0,0.07215 -0.4183202,0.66035 -0.6436545,0.905089 -0.1537955,0.167038 -0.3943563,0.09047 -0.3943563,-0.125752 0,-0.07174 0.076037,-0.196876 0.294526,-0.484259 0.3308445,-0.435165 0.4262953,-0.533346 0.5195575,-0.533346 z m -2.673346,0.0083 c 0.034249,0.0033 0.067277,0.02136 0.1053455,0.04963 0.1600645,0.118943 0.1329272,0.214962 -0.1775983,0.625455 -0.1543308,0.204011 -0.3184486,0.41093 -0.3645724,0.459989 -0.1007139,0.107121 -0.2380267,0.11717 -0.3309278,0.02426 -0.122825,-0.12283 -0.085999,-0.214579 0.2746701,-0.685026 0.2784658,-0.363223 0.3903377,-0.484403 0.4930829,-0.47433 z m 0.8802676,0.0055 c 0.082967,0.0025 0.1712506,0.05428 0.20683,0.132371 0.051518,0.113065 0.00257,0.202931 -0.3700874,0.68116 -0.275294,0.353284 -0.3139753,0.389979 -0.4175208,0.398768 -0.082498,0.0071 -0.1305304,-0.0089 -0.1742883,-0.05736 -0.1185725,-0.13102 -0.081436,-0.222992 0.2724637,-0.678953 0.1830696,-0.235867 0.3647903,-0.443351 0.403732,-0.461094 0.024368,-0.01111 0.051215,-0.01571 0.078871,-0.0149 z m 0.8675831,5.65e-4 c 0.07835,-0.004 0.1774427,0.03791 0.2162057,0.09596 0.075881,0.113643 0.019525,0.235608 -0.3027986,0.651929 -0.1794561,0.23179 -0.3432255,0.431867 -0.3640207,0.445098 -0.1309946,0.08334 -0.3458196,-0.03142 -0.3458196,-0.184769 0,-0.113888 0.6572561,-0.976911 0.7644436,-1.003815 0.010092,-0.0025 0.020797,-0.0039 0.03199,-0.0043 z" />
  <rect
     style="opacity:0.5;fill:none;fill-opacity:0.996424;stroke:url(#linearGradient9);stroke-width:0.566102;stroke-dasharray:none;stroke-opacity:1"
     id="rect1-2-6"
     width="11.574203"
     height="11.508601"
     x="2.729686"
     y="2.6615164"
     rx="2.0246315"
     ry="2.0627522" />
</svg>
