<?xml version="1.0" encoding="UTF-8" standalone="no"?>
<svg
   width="64"
   height="64"
   version="1.1"
   viewBox="0 0 16.933 16.933"
   id="svg7"
   sodipodi:docname="Template 4.svg"
   inkscape:version="1.3.2 (091e20ef0f, 2023-11-25)"
   xmlns:inkscape="http://www.inkscape.org/namespaces/inkscape"
   xmlns:sodipodi="http://sodipodi.sourceforge.net/DTD/sodipodi-0.dtd"
   xmlns:xlink="http://www.w3.org/1999/xlink"
   xmlns="http://www.w3.org/2000/svg"
   xmlns:svg="http://www.w3.org/2000/svg"
   xmlns:rdf="http://www.w3.org/1999/02/22-rdf-syntax-ns#"
   xmlns:cc="http://creativecommons.org/ns#"
   xmlns:dc="http://purl.org/dc/elements/1.1/">
  <sodipodi:namedview
     id="namedview7"
     pagecolor="#9c4444"
     bordercolor="#000000"
     borderopacity="0.25"
     inkscape:showpageshadow="2"
     inkscape:pageopacity="0.0"
     inkscape:pagecheckerboard="0"
     inkscape:deskcolor="#d1d1d1"
     inkscape:zoom="4.3531261"
     inkscape:cx="32.964816"
     inkscape:cy="24.350317"
     inkscape:window-width="1463"
     inkscape:window-height="604"
     inkscape:window-x="199"
     inkscape:window-y="276"
     inkscape:window-maximized="0"
     inkscape:current-layer="svg7"
     showgrid="false" />
  <defs
     id="defs2">
    <linearGradient
       id="linearGradient5"
       inkscape:collect="always">
      <stop
         style="stop-color:#392713;stop-opacity:1;"
         offset="0"
         id="stop2" />
      <stop
         style="stop-color:#eed59e;stop-opacity:1;"
         offset="0.5"
         id="stop3" />
      <stop
         style="stop-color:#beaa8a;stop-opacity:1;"
         offset="1"
         id="stop4" />
    </linearGradient>
    <linearGradient
       id="linearGradient8"
       inkscape:collect="always">
      <stop
         style="stop-color:#1a1a1a;stop-opacity:1;"
         offset="0"
         id="stop8" />
      <stop
         style="stop-color:#ffffff;stop-opacity:0;"
         offset="1"
         id="stop9" />
    </linearGradient>
    <linearGradient
       inkscape:collect="always"
       xlink:href="#linearGradient5"
       id="linearGradient41"
       x1="13.675659"
       y1="16.110115"
       x2="13.728528"
       y2="10.548769"
       gradientUnits="userSpaceOnUse"
       gradientTransform="matrix(2.046153,0,0,2.046153,-18.798306,-18.911347)" />
    <linearGradient
       inkscape:collect="always"
       xlink:href="#linearGradient42"
       id="linearGradient4"
       x1="11.885941"
       y1="16.50819"
       x2="12.026573"
       y2="10.244942"
       gradientUnits="userSpaceOnUse"
       gradientTransform="matrix(2.046153,0,0,2.046153,-18.798306,-18.911347)" />
    <linearGradient
       id="linearGradient42"
       inkscape:collect="always">
      <stop
         style="stop-color:#010101;stop-opacity:1;"
         offset="0"
         id="stop42" />
      <stop
         style="stop-color:#6e6c6d;stop-opacity:1;"
         offset="1"
         id="stop43" />
    </linearGradient>
    <linearGradient
       inkscape:collect="always"
       xlink:href="#linearGradient8"
       id="linearGradient9"
       x1="9.3404646"
       y1="4.1692023"
       x2="9.4279938"
       y2="16.46883"
       gradientUnits="userSpaceOnUse"
       gradientTransform="matrix(1.05,0,0,1.05,-0.50277005,-0.1977751)" />
    <filter
       style="color-interpolation-filters:sRGB;"
       inkscape:label="Blur"
       id="filter2"
       x="-0.14510849"
       y="-0.14612901"
       width="1.290217"
       height="1.292258">
      <feGaussianBlur
         stdDeviation="0.6 0.6"
         result="blur"
         id="feGaussianBlur2" />
    </filter>
    <linearGradient
       inkscape:collect="always"
       xlink:href="#linearGradient5"
       id="linearGradient77"
       x1="32.226505"
       y1="49.899933"
       x2="32.551113"
       y2="14.365815"
       gradientUnits="userSpaceOnUse"
       gradientTransform="matrix(0.23573911,0,0,0.23573911,0.92954706,0.7554098)" />
  </defs>
  <metadata
     id="metadata2">
    <rdf:RDF>
      <cc:Work
         rdf:about="">
        <dc:format>image/svg+xml</dc:format>
        <dc:type
           rdf:resource="http://purl.org/dc/dcmitype/StillImage" />
      </cc:Work>
    </rdf:RDF>
  </metadata>
  <rect
     style="fill:#000000;fill-opacity:0.996424;stroke:#000000;stroke-width:0.911802;stroke-dasharray:none;stroke-opacity:1;filter:url(#filter2)"
     id="rect1-2-3"
     width="13.065404"
     height="12.974159"
     x="1.9816793"
     y="1.9267306"
     rx="2.7149384"
     ry="2.8310909" />
  <rect
     style="fill:url(#linearGradient4);fill-opacity:0.996424;stroke:url(#linearGradient41);stroke-width:0.911802;stroke-dasharray:none;stroke-opacity:1"
     id="rect1-2"
     width="13.065404"
     height="12.974159"
     x="1.9816793"
     y="1.9267306"
     rx="2.7149384"
     ry="2.8310909" />
  <path
     style="fill:#000000;fill-opacity:1;stroke:none;stroke-width:0.273354;stroke-dasharray:none;stroke-opacity:0.3;opacity:0.3"
     d="M 5.5320675,13.111537 C 5.0801299,13.058902 4.7010794,12.728638 4.5707854,12.27398 c -0.027609,-0.09633 -0.030888,-0.266578 -0.036312,-1.8842 l -0.00597,-1.7782956 h 3.955446 3.9554435 l -0.0058,1.7782956 c -0.0066,1.983363 0.0015,1.852782 -0.132361,2.12248 -0.09083,0.183001 -0.298163,0.390337 -0.481161,0.481163 -0.178735,0.08872 -0.302594,0.117159 -0.568635,0.130625 l -0.22473,0.01139 -0.0049,-0.933762 -0.0048,-0.933765 -0.04082,-0.08287 c -0.05214,-0.105782 -0.158889,-0.212539 -0.264658,-0.264638 l -0.0829,-0.04082 -2.1172903,-0.0047 c -2.4328622,-0.0053 -2.2215327,-0.01957 -2.4027013,0.161892 -0.172368,0.172657 -0.1662917,0.129273 -0.1662917,1.187299 v 0.905863 l -0.1456173,-0.0023 c -0.08001,-0.0014 -0.1990727,-0.0086 -0.2645079,-0.01616 z M 10.341804,9.9788978 c 0.08554,-0.058127 0.119032,-0.1260718 0.118952,-0.2413112 -1.2e-4,-0.1734491 -0.106775,-0.2787422 -0.282342,-0.2787422 -0.175568,0 -0.2822204,0.1052915 -0.2823419,0.2787422 -1.197e-4,0.1777207 0.1067359,0.2859444 0.2823419,0.2859444 0.07544,0 0.112683,-0.01019 0.163393,-0.044636 z m 1.120851,0.00942 c 0.08613,-0.052516 0.127674,-0.1329521 0.127674,-0.2472038 0,-0.1771553 -0.105115,-0.2822779 -0.282277,-0.2822779 -0.177156,0 -0.282277,0.105123 -0.282277,0.2822779 0,0.1771542 0.105117,0.282277 0.282277,0.282277 0.06582,0 0.11561,-0.01132 0.154607,-0.035073 z M 6.2246826,12.706415 V 12.2828 h 2.259274 2.2592764 v 0.423615 0.423615 H 8.4839566 6.2246826 Z M 4.5349158,7.8216188 C 4.5451375,7.2565234 4.5544373,7.1964458 4.6668359,6.9699781 4.7576098,6.7870799 4.9649607,6.5796917 5.1479979,6.4887312 5.364848,6.3809648 5.4634924,6.3630299 5.845196,6.3619687 c 0.3103338,-9.63e-4 0.340629,0.00191 0.4059623,0.036964 0.1546814,0.08303 0.226273,0.192286 0.2469694,0.3768904 0.016054,0.1431537 0.047828,0.2217313 0.1201749,0.2971533 0.1226237,0.1278347 -0.1109101,0.1166383 2.6422797,0.1266673 l 2.4799057,0.00903 0.10449,0.039591 c 0.148357,0.056209 0.240122,0.113783 0.336071,0.2108576 0.170597,0.172599 0.233483,0.3362901 0.250339,0.6516277 l 0.01162,0.2183196 H 8.4844101 4.5257481 Z M 6.995727,6.8910335 C 6.8709664,6.8473185 6.8071514,6.7587389 6.8071514,6.6292787 c 0,-0.090801 0.052266,-0.1800436 0.1324403,-0.2261502 0.02909,-0.016726 0.6922828,-0.2543012 1.4737633,-0.527937 0.781479,-0.2736371 1.873326,-0.6559419 2.426326,-0.8495673 1.098857,-0.3847493 1.079779,-0.3801986 1.193291,-0.2846868 0.140684,0.1183788 0.14139,0.3271119 0.0014,0.4267619 C 12.006432,5.1875863 11.662791,5.31611 11.270715,5.4533002 10.878609,5.59049 10.255994,5.8083493 9.887096,5.9374327 7.6160828,6.7320964 7.1467179,6.8953714 7.1071357,6.904481 7.0828617,6.910061 7.0326977,6.9039153 6.9956514,6.891031 Z"
     id="path1-3-0" />
  <path
     style="fill:url(#linearGradient77);fill-opacity:1;stroke:none;stroke-width:0.273354;stroke-dasharray:none;stroke-opacity:0.3"
     d="M 5.5320675,12.582381 C 5.0801299,12.529746 4.7010794,12.199482 4.5707854,11.744824 4.5431765,11.64849 4.5398975,11.478246 4.5344735,9.8606237 l -0.00597,-1.7782955 h 3.955446 3.9554435 l -0.0058,1.7782955 c -0.0066,1.9833633 0.0015,1.8527823 -0.132361,2.1224803 -0.09083,0.183001 -0.298163,0.390337 -0.481161,0.481163 -0.178735,0.08872 -0.302594,0.117159 -0.568635,0.130625 l -0.22473,0.01139 -0.0049,-0.933762 -0.0048,-0.933765 -0.04082,-0.08287 c -0.05214,-0.105782 -0.158889,-0.212539 -0.264658,-0.264638 l -0.0829,-0.04082 -2.1172903,-0.0047 c -2.4328622,-0.0053 -2.2215327,-0.01957 -2.4027013,0.161892 -0.172368,0.172657 -0.1662917,0.129273 -0.1662917,1.187299 v 0.905863 l -0.1456173,-0.0023 c -0.08001,-0.0014 -0.1990727,-0.0086 -0.2645079,-0.01616 z M 10.341804,9.4497416 c 0.08554,-0.058127 0.119032,-0.1260718 0.118952,-0.2413112 -1.2e-4,-0.1734491 -0.106775,-0.2787422 -0.282342,-0.2787422 -0.175568,0 -0.2822204,0.1052915 -0.2823419,0.2787422 -1.197e-4,0.1777207 0.1067359,0.2859441 0.2823419,0.2859441 0.07544,0 0.112683,-0.010189 0.163393,-0.044636 z m 1.120851,0.00942 c 0.08613,-0.052516 0.127674,-0.1329521 0.127674,-0.2472038 0,-0.1771553 -0.105115,-0.2822779 -0.282277,-0.2822779 -0.177156,0 -0.282277,0.105123 -0.282277,0.2822779 0,0.1771542 0.105117,0.2822767 0.282277,0.2822767 0.06582,0 0.11561,-0.011318 0.154607,-0.035073 z M 6.2246826,12.177259 v -0.423615 h 2.259274 2.2592764 v 0.423615 0.423615 H 8.4839566 6.2246826 Z M 4.5349158,7.2924626 C 4.5451375,6.7273672 4.5544373,6.6672896 4.6668359,6.4408219 4.7576098,6.2579237 4.9649607,6.0505355 5.1479979,5.959575 5.364848,5.8518086 5.4634924,5.8338737 5.845196,5.8328125 c 0.3103338,-9.63e-4 0.340629,0.00191 0.4059623,0.036964 0.1546814,0.08303 0.226273,0.192286 0.2469694,0.3768904 0.016054,0.1431537 0.047828,0.2217313 0.1201749,0.2971533 0.1226237,0.1278347 -0.1109101,0.1166383 2.6422797,0.1266673 l 2.4799057,0.00903 0.10449,0.039591 c 0.148357,0.056209 0.240122,0.113783 0.336071,0.2108576 0.170597,0.172599 0.233483,0.3362901 0.250339,0.6516277 l 0.01162,0.2183196 H 8.4844101 4.5257481 Z M 6.995727,6.3618773 C 6.8709664,6.3181623 6.8071514,6.2295827 6.8071514,6.1001225 c 0,-0.090801 0.052266,-0.1800436 0.1324403,-0.2261502 0.02909,-0.016726 0.6922828,-0.2543012 1.4737633,-0.527937 0.781479,-0.2736371 1.873326,-0.6559419 2.426326,-0.8495673 1.098857,-0.3847493 1.079779,-0.3801986 1.193291,-0.2846868 0.140684,0.1183788 0.14139,0.3271119 0.0014,0.4267619 -0.02794,0.019887 -0.371581,0.1484107 -0.763657,0.2856009 -0.392106,0.1371898 -1.014721,0.3550491 -1.383619,0.4841325 -2.2710132,0.7946637 -2.7403781,0.9579387 -2.7799603,0.9670483 -0.024274,0.00558 -0.074438,-5.657e-4 -0.1114843,-0.01345 z"
     id="path1-3" />
  <rect
     style="opacity:0.5;fill:none;fill-opacity:0.996424;stroke:url(#linearGradient9);stroke-width:0.566102;stroke-dasharray:none;stroke-opacity:1"
     id="rect1-2-6"
     width="11.574203"
     height="11.508601"
     x="2.729686"
     y="2.6615164"
     rx="2.0246315"
     ry="2.0627522" />
</svg>
