/* XPM */
static char * bottom_right_inactive_xpm[] = {
"33 33 94 2",
"  	c None",
". 	c #000000",
"+ 	c #0D0C0A",
"@ 	c #9C9C9C",
"# 	c #0F0C07",
"$ 	c #0F0E0C",
"% 	c #0B0803",
"& 	c #070604",
"* 	c #090806",
"= 	c #070400",
"- 	c #050100",
"; 	c #040301",
"> 	c #090601",
", 	c #0F0607",
"' 	c #070302",
") 	c #0C0807",
"! 	c #100708",
"~ 	c #130A0B",
"{ 	c #0C0704",
"] 	c #110D0A",
"^ 	c #0B0A06",
"/ 	c #010000",
"( 	c #050400",
"_ 	c #14100D",
": 	c #080703",
"< 	c #0A0603",
"[ 	c #060501",
"} 	c #0B0704",
"| 	c #070602",
"1 	c #070300",
"2 	c #0D0906",
"3 	c #0E0A07",
"4 	c #0F0B08",
"5 	c #100C09",
"6 	c #080202",
"7 	c #040000",
"8 	c #090502",
"9 	c #0D0908",
"0 	c #090504",
"a 	c #0C0805",
"b 	c #060100",
"c 	c #050200",
"d 	c #040100",
"e 	c #0B0505",
"f 	c #0A0605",
"g 	c #080403",
"h 	c #030000",
"i 	c #0A0A08",
"j 	c #060200",
"k 	c #080500",
"l 	c #090303",
"m 	c #020200",
"n 	c #060604",
"o 	c #0A0905",
"p 	c #020100",
"q 	c #050000",
"r 	c #0B0603",
"s 	c #0A0B06",
"t 	c #090804",
"u 	c #0D0804",
"v 	c #0E0905",
"w 	c #0F0A06",
"x 	c #020300",
"y 	c #080401",
"z 	c #070200",
"A 	c #050304",
"B 	c #0B0602",
"C 	c #0C0703",
"D 	c #110E09",
"E 	c #080000",
"F 	c #0B0400",
"G 	c #120D09",
"H 	c #0D0502",
"I 	c #0D0A05",
"J 	c #090001",
"K 	c #080300",
"L 	c #090401",
"M 	c #0F0A07",
"N 	c #030200",
"O 	c #040300",
"P 	c #070000",
"Q 	c #110A04",
"R 	c #0D0600",
"S 	c #0A0200",
"T 	c #0A0000",
"U 	c #090100",
"V 	c #0B0301",
"W 	c #0E0603",
"X 	c #0A0500",
"Y 	c #090400",
"Z 	c #060300",
"` 	c #090200",
" .	c #0C0500",
"..	c #0B0800",
". . . . . . . . . . . . . . . . . . . . + @ @ @ # . .             ",
". @ @ @ @ @ @ @ @ @ @ @ @ @ @ @ @ . . . $ @ @ @ % . .             ",
". @ @ @ @ @ @ @ @ @ @ @ @ @ @ @ @ & . . * @ @ @ = . .             ",
". @ @ @ @ @ @ @ @ @ @ @ @ @ @ @ @ - . . ; @ @ @ > . .             ",
". @ @ @ . . . . . . . . , . @ @ @ ' ) & * @ @ @ # . . . . . . . . ",
". @ @ @ . . . . . . , ! ~ { @ @ @ . . . ] @ @ @ ^ / ( . . . . . . ",
". @ @ @ . . . . . . . . . . . . . . . . _ @ @ @ : . . . . . . . . ",
". @ @ @ . . . @ @ @ @ @ @ @ @ @ @ @ @ @ < @ @ @ [ @ @ @ @ @ . . . ",
". @ @ @ . . . @ @ @ @ @ @ @ @ @ @ @ @ @ } @ @ @ | @ @ @ @ @ . . . ",
". @ @ @ . . . @ @ @ @ @ @ @ @ @ @ @ @ @ 1 @ @ @ 2 @ @ @ @ @ . . . ",
". @ @ @ . . . @ @ @ . . . . . . . 3 4 } 5 @ @ @ - | . @ @ @ . . . ",
". @ @ @ 6 . . @ @ @ . . . . @ @ @ . } 7 3 @ @ @ 8 . . @ @ @ . . . ",
". @ @ @ . . . @ @ @ 7 9 0 . @ @ @ . a 4 < @ @ @ 8 . . @ @ @ . . . ",
". @ @ @ . . . . . . . . . . @ @ @ . . . . @ @ @ 3 . . @ @ @ b . . ",
". @ @ @ @ @ @ @ @ @ @ @ @ . @ @ @ . @ @ @ @ @ @ } . < @ @ @ c . . ",
". @ @ @ @ @ @ @ @ @ @ @ @ . @ @ @ . @ @ @ @ @ @ < . . @ @ @ c . . ",
". @ @ @ @ @ @ @ @ @ @ @ @ . @ @ @ . @ @ @ @ @ @ . . . @ @ @ d . . ",
". . e f g h . . . . i . . . @ @ @ . . . j 1 . . . . . @ @ @ / . k ",
". . l 0 ' - . @ @ @ m . n . @ @ @ o . . . . . . { . . @ @ @ p . k ",
". 7 q 7 . . . @ @ @ . . n . @ @ @ o . . . . . . r . . @ @ @ . . k ",
". . . . . . . @ @ @ . . . . @ @ @ : . . a < j } . . . @ @ @ . . k ",
"@ @ @ @ @ @ . @ @ @ s @ @ @ @ @ @ . . . . . . . . . . @ @ @ . 8 j ",
"@ @ @ @ @ @ . @ @ @ . @ @ @ @ @ @ . . . . ; . 8 } . . @ @ @ o 8 1 ",
"@ @ @ @ @ @ . @ @ @ . @ @ @ @ @ @ . . . . . . . . . . @ @ @ t 8 1 ",
"u v w 4 4 h . @ @ @ . x . . . . . . . . . . . . . . . @ @ @ < y z ",
". . . . . . . @ @ @ . . . . . . . . . A / / . . . . . @ @ @ < . b ",
"B C u % % . D @ @ @ . . . . . . . . . . . . . . . . . @ @ @ 8 . q ",
"        B . > @ @ @ @ @ @ @ @ @ @ @ @ @ @ @ @ @ @ @ @ @ @ @ < . q ",
"        B . D @ @ @ @ @ @ @ @ @ @ @ @ @ @ @ @ @ @ @ @ @ @ @ { . E ",
"        F . G @ @ @ @ @ @ @ @ @ @ @ @ @ @ @ @ @ @ @ @ @ @ @ . . H ",
"        F . 7 I D y 7 - h z J K 6 L e M 5 < 8 = j N O O = w . P F ",
"        Q R F C v B C 2 { S T U E U V W v B B X Y = = Z Z . `  . .",
"        . . . . . . . . . . . . . . . . . . . . . ... . . . . . . "};
