/* XPM */
static char * bottom_left_active_xpm[] = {
"33 33 94 2",
"  	c None",
". 	c #000000",
"+ 	c #0F0C07",
"@ 	c #9C9C9C",
"# 	c #0D0C0A",
"$ 	c #0B0803",
"% 	c #0F0E0C",
"& 	c #070400",
"* 	c #090806",
"= 	c #070604",
"- 	c #090601",
"; 	c #040301",
"> 	c #050100",
", 	c #0C0807",
"' 	c #070302",
") 	c #0F0607",
"! 	c #050400",
"~ 	c #010000",
"{ 	c #0B0A06",
"] 	c #110D0A",
"^ 	c #0C0704",
"/ 	c #130A0B",
"( 	c #100708",
"_ 	c #080703",
": 	c #14100D",
"< 	c #060501",
"[ 	c #0A0603",
"} 	c #070602",
"| 	c #0B0704",
"1 	c #0D0906",
"2 	c #070300",
"3 	c #100C09",
"4 	c #0F0B08",
"5 	c #0E0A07",
"6 	c #090502",
"7 	c #040000",
"8 	c #080202",
"9 	c #0C0805",
"0 	c #090504",
"a 	c #0D0908",
"b 	c #060100",
"c 	c #050200",
"d 	c #040100",
"e 	c #080500",
"f 	c #060200",
"g 	c #0A0A08",
"h 	c #030000",
"i 	c #080403",
"j 	c #0A0605",
"k 	c #0B0505",
"l 	c #020100",
"m 	c #0A0905",
"n 	c #060604",
"o 	c #020200",
"p 	c #090303",
"q 	c #0B0603",
"r 	c #050000",
"s 	c #0A0B06",
"t 	c #090804",
"u 	c #070200",
"v 	c #080401",
"w 	c #020300",
"x 	c #0F0A06",
"y 	c #0E0905",
"z 	c #0D0804",
"A 	c #050304",
"B 	c #110E09",
"C 	c #0C0703",
"D 	c #0B0602",
"E 	c #080000",
"F 	c #0D0502",
"G 	c #120D09",
"H 	c #0B0400",
"I 	c #070000",
"J 	c #040300",
"K 	c #030200",
"L 	c #0F0A07",
"M 	c #090401",
"N 	c #080300",
"O 	c #090001",
"P 	c #0D0A05",
"Q 	c #0C0500",
"R 	c #090200",
"S 	c #060300",
"T 	c #090400",
"U 	c #0A0500",
"V 	c #0E0603",
"W 	c #0B0301",
"X 	c #090100",
"Y 	c #0A0000",
"Z 	c #0A0200",
"` 	c #0D0600",
" .	c #110A04",
"..	c #0B0800",
"            . . + @ @ @ # . . . . . . . . . . . . . . . . . . . . ",
"            . . $ @ @ @ % . . . @ @ @ @ @ @ @ @ @ @ @ @ @ @ @ @ . ",
"            . . & @ @ @ * . . = @ @ @ @ @ @ @ @ @ @ @ @ @ @ @ @ . ",
"            . . - @ @ @ ; . . > @ @ @ @ @ @ @ @ @ @ @ @ @ @ @ @ . ",
". . . . . . . . + @ @ @ * = , ' @ @ @ . ) . . . . . . . . @ @ @ . ",
". . . . . . ! ~ { @ @ @ ] . . . @ @ @ ^ / ( ) . . . . . . @ @ @ . ",
". . . . . . . . _ @ @ @ : . . . . . . . . . . . . . . . . @ @ @ . ",
". . . @ @ @ @ @ < @ @ @ [ @ @ @ @ @ @ @ @ @ @ @ @ @ . . . @ @ @ . ",
". . . @ @ @ @ @ } @ @ @ | @ @ @ @ @ @ @ @ @ @ @ @ @ . . . @ @ @ . ",
". . . @ @ @ @ @ 1 @ @ @ 2 @ @ @ @ @ @ @ @ @ @ @ @ @ . . . @ @ @ . ",
". . . @ @ @ . } > @ @ @ 3 | 4 5 . . . . . . . @ @ @ . . . @ @ @ . ",
". . . @ @ @ . . 6 @ @ @ 5 7 | . @ @ @ . . . . @ @ @ . . 8 @ @ @ . ",
". . . @ @ @ . . 6 @ @ @ [ 4 9 . @ @ @ . 0 a 7 @ @ @ . . . @ @ @ . ",
". . b @ @ @ . . 5 @ @ @ . . . . @ @ @ . . . . . . . . . . @ @ @ . ",
". . c @ @ @ [ . | @ @ @ @ @ @ . @ @ @ . @ @ @ @ @ @ @ @ @ @ @ @ . ",
". . c @ @ @ . . [ @ @ @ @ @ @ . @ @ @ . @ @ @ @ @ @ @ @ @ @ @ @ . ",
". . d @ @ @ . . . @ @ @ @ @ @ . @ @ @ . @ @ @ @ @ @ @ @ @ @ @ @ . ",
"e . ~ @ @ @ . . . . . 2 f . . . @ @ @ . . . g . . . . h i j k . . ",
"e . l @ @ @ . . ^ . . . . . . m @ @ @ . n . o @ @ @ . > ' 0 p . . ",
"e . . @ @ @ . . q . . . . . . m @ @ @ . n . . @ @ @ . . . 7 r 7 . ",
"e . . @ @ @ . . . | f [ 9 . . _ @ @ @ . . . . @ @ @ . . . . . . . ",
"f 6 . @ @ @ . . . . . . . . . . @ @ @ @ @ @ s @ @ @ . @ @ @ @ @ @ ",
"2 6 m @ @ @ . . | 6 . ; . . . . @ @ @ @ @ @ . @ @ @ . @ @ @ @ @ @ ",
"2 6 t @ @ @ . . . . . . . . . . @ @ @ @ @ @ . @ @ @ . @ @ @ @ @ @ ",
"u v [ @ @ @ . . . . . . . . . . . . . . . w . @ @ @ . h 4 4 x y z ",
"b . [ @ @ @ . . . . . ~ ~ A . . . . . . . . . @ @ @ . . . . . . . ",
"r . 6 @ @ @ . . . . . . . . . . . . . . . . . @ @ @ B . $ $ z C D ",
"r . [ @ @ @ @ @ @ @ @ @ @ @ @ @ @ @ @ @ @ @ @ @ @ @ - . D         ",
"E . ^ @ @ @ @ @ @ @ @ @ @ @ @ @ @ @ @ @ @ @ @ @ @ @ B . D         ",
"F . . @ @ @ @ @ @ @ @ @ @ @ @ @ @ @ @ @ @ @ @ @ @ @ G . H         ",
"H I . x & J J K f & 6 [ 3 L k M 8 N O u h > 7 v B P 7 . H         ",
"Q Q R . S S & & T U D D y V W X E X Y Z ^ 1 C D y C H `  .        ",
". . . . . . . ... . . . . . . . . . . . . . . . . . . . .         "};
