/* XPM */
static char * bottom_inactive_xpm[] = {
"1 33 5 1",
" 	c None",
".	c #000000",
"+	c #9C9C9C",
"@	c #0C0704",
"#	c #0C0703",
".",
".",
".",
".",
".",
".",
".",
".",
".",
".",
".",
".",
".",
".",
".",
".",
".",
".",
".",
".",
".",
"+",
"+",
"+",
"@",
".",
"#",
" ",
" ",
" ",
" ",
" ",
" "};
