/* XPM */
static char * close_active_xpm[] = {
"33 33 20 1",
" 	c None",
".	c #000000",
"+	c #0B0505",
"@	c #0A0605",
"#	c #080403",
"$	c #030000",
"%	c #0A0A08",
"&	c #9C9C9C",
"*	c #040000",
"=	c #0D0908",
"-	c #090504",
";	c #080202",
">	c #0E0A07",
",	c #0F0607",
"'	c #100708",
")	c #130A0B",
"!	c #0C0704",
"~	c #070302",
"{	c #050100",
"]	c #070604",
"                                 ",
"                                 ",
"                                 ",
"                                 ",
"                                 ",
"                                 ",
"                                 ",
"                                 ",
"                                 ",
"                                 ",
"                                 ",
"                                 ",
"                                 ",
"                                 ",
"                                 ",
"..+@#$....%...   .               ",
".&&&&&&&&&&&&.&&&.               ",
".&&&&&&&&&&&&.&&&.               ",
".&&&&&&&&&&&&.&&&.               ",
".&&&..........&&&.               ",
".&&&...&&&*=-.&&&.               ",
".&&&;..&&&....&&&.               ",
".&&&...&&&.......>               ",
".&&&...&&&&&&&&&&&               ",
".&&&...&&&&&&&&&&&               ",
".&&&...&&&&&&&&&&&               ",
".&&&..............               ",
".&&&......,')!&&&.               ",
".&&&........,.&&&~               ",
".&&&&&&&&&&&&&&&&{               ",
".&&&&&&&&&&&&&&&&]               ",
".&&&&&&&&&&&&&&&&.               ",
"..................               "};
