/* XPM */
static char * hide_pressed_xpm[] = {
"33 33 12 1",
" 	c None",
".	c #000000",
"+	c #0B0505",
"@	c #0A0605",
"#	c #080403",
"$	c #030000",
"%	c #0A0A08",
"&	c #9C9C9C",
"*	c #0E0A07",
"=	c #070302",
"-	c #050100",
";	c #070604",
"                                 ",
"                                 ",
"                                 ",
"                                 ",
"                                 ",
"                                 ",
"                                 ",
"                                 ",
"                                 ",
"                                 ",
"                                 ",
"                                 ",
"                                 ",
"                                 ",
"                                 ",
"..+@#$....%.......               ",
".&&&&&&&&&&&&&&&&.               ",
".&&&&&&&&&&&&&&&&.               ",
".&&&&&&&&&&&&&&&&.               ",
".&&&&&&&&&&&&&&&&.               ",
".&&&&&&&&&&&&&&&&.               ",
".&&&&&&&&&&&&&&&&.               ",
".&&&&&&&&&&&&&&&&*               ",
".&&&&........&&&&.               ",
".&&&&........&&&&.               ",
".&&&&&&&&&&&&&&&&.               ",
".&&&&&&&&&&&&&&&&.               ",
".&&&&&&&&&&&&&&&&.               ",
".&&&&&&&&&&&&&&&&=               ",
".&&&&&&&&&&&&&&&&-               ",
".&&&&&&&&&&&&&&&&;               ",
".&&&&&&&&&&&&&&&&.               ",
"..................               "};
