/* XPM */
static char * left_active_xpm[] = {
"33 1 5 1",
" 	c None",
".	c #000000",
"+	c #0E0905",
"@	c #9C9C9C",
"#	c #070604",
"      ..+@@@...#................."};
