/* XPM */
static char * right_inactive_xpm[] = {
"33 1 5 1",
" 	c None",
".	c #000000",
"+	c #070604",
"@	c #9C9C9C",
"#	c #0E0905",
".................+...@@@#..      "};
