/* XPM */
static char * title_3_inactive_xpm[] = {
"1 33 2 1",
" 	c #000000",
".	c #9C9C9C",
" ",
" ",
" ",
".",
".",
".",
" ",
" ",
" ",
" ",
" ",
" ",
" ",
" ",
" ",
" ",
" ",
" ",
" ",
" ",
" ",
" ",
" ",
" ",
" ",
".",
".",
".",
" ",
" ",
" ",
" ",
" "};
