/* XPM */
static char * title_2_active_xpm[] = {
"35 33 5 1",
" 	c None",
".	c #000000",
"+	c #9C9C9C",
"@	c #0C0703",
"#	c #0C0704",
"                   ................",
"                   ................",
"                   ................",
"                   ...+++++++++++++",
"                   ...+++++++++++++",
"                   ...+++++++++++++",
"@@@@@@@@@@............+++..........",
"......................+++..........",
"#######.........##..##...##..#..##.",
"+++++++++++++++++++++++++++++++....",
"+++++++++++++++++++++++++++++++....",
"+++++++++++++++++++++++++++++++....",
"............................+++....",
"................+++...+++...+++....",
"................+++...+++...+++....",
"................+++...+++...+++....",
"................+++...+++...+++....",
"................+++...+++...+++....",
"................+++...+++...+++....",
"................+++++.+++.+++++....",
"................+++++.+++.+++++....",
"................+++++.+++.+++++....",
"......................+++..........",
"......................+++..........",
"......................+++..........",
"......................+++++++++++++",
"......................+++++++++++++",
"......................+++++++++++++",
"...................................",
"...................................",
"...................................",
"...................................",
"..................................."};
