/* XPM */
static char * title_5_inactive_xpm[] = {
"1 33 5 1",
" 	c None",
".	c #0C0703",
"+	c #000000",
"@	c #0C0704",
"#	c #9C9C9C",
" ",
" ",
" ",
" ",
" ",
" ",
".",
"+",
"@",
"#",
"#",
"#",
"+",
"+",
"+",
"+",
"+",
"+",
"+",
"+",
"+",
"+",
"+",
"+",
"+",
"+",
"+",
"+",
"+",
"+",
"+",
"+",
"+"};
