/* XPM */
static char * top_right_inactive_xpm[] = {
"33 33 91 1",
" 	c None",
".	c #000000",
"+	c #110A04",
"@	c #0D0600",
"#	c #0B0400",
"$	c #0C0703",
"%	c #0E0905",
"&	c #0B0602",
"*	c #0D0906",
"=	c #0C0704",
"-	c #0A0200",
";	c #0A0000",
">	c #090100",
",	c #080000",
"'	c #0B0301",
")	c #0E0603",
"!	c #0A0500",
"~	c #090400",
"{	c #070400",
"]	c #060300",
"^	c #090200",
"/	c #0C0500",
"(	c #040000",
"_	c #0D0A05",
":	c #110E09",
"<	c #080401",
"[	c #050100",
"}	c #030000",
"|	c #070200",
"1	c #090001",
"2	c #080300",
"3	c #080202",
"4	c #090401",
"5	c #0B0505",
"6	c #0F0A07",
"7	c #100C09",
"8	c #0A0603",
"9	c #090502",
"0	c #060200",
"a	c #030200",
"b	c #040300",
"c	c #0F0A06",
"d	c #070000",
"e	c #120D09",
"f	c #9C9C9C",
"g	c #090601",
"h	c #0D0804",
"i	c #0B0803",
"j	c #050304",
"k	c #010000",
"l	c #0F0B08",
"m	c #020300",
"n	c #090804",
"o	c #040301",
"p	c #0B0704",
"q	c #0A0905",
"r	c #0A0B06",
"s	c #080703",
"t	c #0C0805",
"u	c #050000",
"v	c #060604",
"w	c #0B0603",
"x	c #090303",
"y	c #090504",
"z	c #070302",
"A	c #020200",
"B	c #020100",
"C	c #0A0605",
"D	c #080403",
"E	c #0A0A08",
"F	c #070300",
"G	c #040100",
"H	c #050200",
"I	c #0E0A07",
"J	c #060100",
"K	c #0D0908",
"L	c #070602",
"M	c #060501",
"N	c #14100D",
"O	c #0F0607",
"P	c #100708",
"Q	c #130A0B",
"R	c #110D0A",
"S	c #0B0A06",
"T	c #050400",
"U	c #0C0807",
"V	c #070604",
"W	c #090806",
"X	c #0F0C07",
"Y	c #0F0E0C",
"Z	c #0D0C0A",
"    .............................",
"    +@#$%&$*=-;>,>')%&&!~{{]].^/.",
"    #.(_:<([}|123456789{0abb{c.d.",
"    #.efffffffffffffffffffffff...",
"    &.:fffffffffffffffffffffff=..",
"    &.gfffffffffffffffffffffff8..",
"&$hii.:fff.................fff9..",
".......fff.........jkk.....fff8..",
"h%cll}.fff.m...............fff8<.",
"ffffff.fff.ffffff..........fffn9.",
"ffffff.fff.ffffff....o.9p..fffq9.",
"ffffff.fffrffffff..........fff.9.",
".......fff....fffs..t80p...fff...",
".(u(...fff..v.fffq......w..fff...",
"..xyz[.fffA.v.fffq......=..fffB..",
"..5CD}....E...fff...0F.....fffk..",
".ffffffffffff.fff.ffffff...fffG..",
".ffffffffffff.fff.ffffff8..fffH..",
".ffffffffffff.fff.ffffffp.8fffH..",
".fff..........fff....fffI..fffJ..",
".fff...fff(Ky.fff.tl8fff9..fff...",
".fff3..fff....fff.p(Ifff9..fff...",
".fff...fff.......Ilp7fff[L.fff...",
".fff...fffffffffffffFfff*fffff...",
".fff...fffffffffffffpfffLfffff...",
".fff...fffffffffffff8fffMfffff...",
".fff................Nfffs........",
".fff......OPQ=fff...RfffSkT......",
".fff........O.fffzUVWfffX........",
".ffffffffffffffff[..offfg..      ",
".ffffffffffffffffV..Wfff{..      ",
".ffffffffffffffff...Yfffi..      ",
"....................ZfffX..      "};
