/* XPM */
static char * top_left_inactive_xpm[] = {
"33 33 94 2",
"  	c None",
". 	c #000000",
"+ 	c #0B0800",
"@ 	c #0C0500",
"# 	c #090200",
"$ 	c #060300",
"% 	c #070400",
"& 	c #090400",
"* 	c #0A0500",
"= 	c #0B0602",
"- 	c #0E0905",
"; 	c #0E0603",
"> 	c #0B0301",
", 	c #090100",
"' 	c #080000",
") 	c #0A0000",
"! 	c #0A0200",
"~ 	c #0C0704",
"{ 	c #0D0906",
"] 	c #0C0703",
"^ 	c #0B0400",
"/ 	c #0D0600",
"( 	c #110A04",
"_ 	c #070000",
": 	c #0F0A06",
"< 	c #040300",
"[ 	c #030200",
"} 	c #060200",
"| 	c #090502",
"1 	c #0A0603",
"2 	c #100C09",
"3 	c #0F0A07",
"4 	c #0B0505",
"5 	c #090401",
"6 	c #080202",
"7 	c #080300",
"8 	c #090001",
"9 	c #070200",
"0 	c #030000",
"a 	c #050100",
"b 	c #040000",
"c 	c #080401",
"d 	c #110E09",
"e 	c #0D0A05",
"f 	c #0D0502",
"g 	c #9C9C9C",
"h 	c #120D09",
"i 	c #050000",
"j 	c #090601",
"k 	c #0B0803",
"l 	c #0D0804",
"m 	c #060100",
"n 	c #010000",
"o 	c #050304",
"p 	c #020300",
"q 	c #0F0B08",
"r 	c #070300",
"s 	c #090804",
"t 	c #0A0905",
"u 	c #0B0704",
"v 	c #040301",
"w 	c #0A0B06",
"x 	c #080500",
"y 	c #0C0805",
"z 	c #080703",
"A 	c #0B0603",
"B 	c #060604",
"C 	c #020100",
"D 	c #020200",
"E 	c #070302",
"F 	c #090504",
"G 	c #090303",
"H 	c #0A0A08",
"I 	c #080403",
"J 	c #0A0605",
"K 	c #040100",
"L 	c #050200",
"M 	c #0E0A07",
"N 	c #0D0908",
"O 	c #070602",
"P 	c #060501",
"Q 	c #14100D",
"R 	c #050400",
"S 	c #0B0A06",
"T 	c #110D0A",
"U 	c #130A0B",
"V 	c #100708",
"W 	c #0F0607",
"X 	c #0F0C07",
"Y 	c #090806",
"Z 	c #070604",
"` 	c #0C0807",
" .	c #0F0E0C",
"..	c #0D0C0A",
". . . . . . . + . . . . . . . . . . . . . . . . . . . . .         ",
"@ @ # . $ $ % % & * = = - ; > , ' , ) ! ~ { ] = - ] ^ / (         ",
"^ _ . : % < < [ } % | 1 2 3 4 5 6 7 8 9 0 a b c d e b . ^         ",
"f . . g g g g g g g g g g g g g g g g g g g g g g g h . ^         ",
"' . ~ g g g g g g g g g g g g g g g g g g g g g g g d . =         ",
"i . 1 g g g g g g g g g g g g g g g g g g g g g g g j . =         ",
"i . | g g g . . . . . . . . . . . . . . . . . g g g d . k k l ] = ",
"m . 1 g g g . . . . . n n o . . . . . . . . . g g g . . . . . . . ",
"9 c 1 g g g . . . . . . . . . . . . . . . p . g g g . 0 q q : - l ",
"r | s g g g . . . . . . . . . . g g g g g g . g g g . g g g g g g ",
"r | t g g g . . u | . v . . . . g g g g g g . g g g . g g g g g g ",
"} | . g g g . . . . . . . . . . g g g g g g w g g g . g g g g g g ",
"x . . g g g . . . u } 1 y . . z g g g . . . . g g g . . . . . . . ",
"x . . g g g . . A . . . . . . t g g g . B . . g g g . . . b i b . ",
"x . C g g g . . ~ . . . . . . t g g g . B . D g g g . a E F G . . ",
"x . n g g g . . . . . r } . . . g g g . . . H . . . . 0 I J 4 . . ",
". . K g g g . . . g g g g g g . g g g . g g g g g g g g g g g g . ",
". . L g g g . . 1 g g g g g g . g g g . g g g g g g g g g g g g . ",
". . L g g g 1 . u g g g g g g . g g g . g g g g g g g g g g g g . ",
". . m g g g . . M g g g . . . . g g g . . . . . . . . . . g g g . ",
". . . g g g . . | g g g 1 q y . g g g . F N b g g g . . . g g g . ",
". . . g g g . . | g g g M b u . g g g . . . . g g g . . 6 g g g . ",
". . . g g g . O a g g g 2 u q M . . . . . . . g g g . . . g g g . ",
". . . g g g g g { g g g r g g g g g g g g g g g g g . . . g g g . ",
". . . g g g g g O g g g u g g g g g g g g g g g g g . . . g g g . ",
". . . g g g g g P g g g 1 g g g g g g g g g g g g g . . . g g g . ",
". . . . . . . . z g g g Q . . . . . . . . . . . . . . . . g g g . ",
". . . . . . R n S g g g T . . . g g g ~ U V W . . . . . . g g g . ",
". . . . . . . . X g g g Y Z ` E g g g . W . . . . . . . . g g g . ",
"            . . j g g g v . . a g g g g g g g g g g g g g g g g . ",
"            . . % g g g Y . . Z g g g g g g g g g g g g g g g g . ",
"            . . k g g g  .. . . g g g g g g g g g g g g g g g g . ",
"            . . X g g g ... . . . . . . . . . . . . . . . . . . . "};
