<?xml version="1.0" encoding="UTF-8" standalone="no"?>
<svg
   width="64"
   height="64"
   version="1.1"
   viewBox="0 0 16.933 16.933"
   id="svg7"
   sodipodi:docname="Template 4.svg"
   inkscape:version="1.3.2 (091e20ef0f, 2023-11-25)"
   xmlns:inkscape="http://www.inkscape.org/namespaces/inkscape"
   xmlns:sodipodi="http://sodipodi.sourceforge.net/DTD/sodipodi-0.dtd"
   xmlns:xlink="http://www.w3.org/1999/xlink"
   xmlns="http://www.w3.org/2000/svg"
   xmlns:svg="http://www.w3.org/2000/svg"
   xmlns:rdf="http://www.w3.org/1999/02/22-rdf-syntax-ns#"
   xmlns:cc="http://creativecommons.org/ns#"
   xmlns:dc="http://purl.org/dc/elements/1.1/">
  <sodipodi:namedview
     id="namedview7"
     pagecolor="#9c4444"
     bordercolor="#000000"
     borderopacity="0.25"
     inkscape:showpageshadow="2"
     inkscape:pageopacity="0.0"
     inkscape:pagecheckerboard="0"
     inkscape:deskcolor="#d1d1d1"
     inkscape:zoom="4.3531261"
     inkscape:cx="47.666894"
     inkscape:cy="16.999278"
     inkscape:window-width="1463"
     inkscape:window-height="604"
     inkscape:window-x="199"
     inkscape:window-y="276"
     inkscape:window-maximized="0"
     inkscape:current-layer="svg7"
     showgrid="false" />
  <defs
     id="defs2">
    <linearGradient
       id="linearGradient5"
       inkscape:collect="always">
      <stop
         style="stop-color:#392713;stop-opacity:1;"
         offset="0"
         id="stop2" />
      <stop
         style="stop-color:#eed59e;stop-opacity:1;"
         offset="0.5"
         id="stop3" />
      <stop
         style="stop-color:#beaa8a;stop-opacity:1;"
         offset="1"
         id="stop4" />
    </linearGradient>
    <linearGradient
       id="linearGradient8"
       inkscape:collect="always">
      <stop
         style="stop-color:#1a1a1a;stop-opacity:1;"
         offset="0"
         id="stop8" />
      <stop
         style="stop-color:#ffffff;stop-opacity:0;"
         offset="1"
         id="stop9" />
    </linearGradient>
    <linearGradient
       inkscape:collect="always"
       xlink:href="#linearGradient5"
       id="linearGradient41"
       x1="13.675659"
       y1="16.110115"
       x2="13.728528"
       y2="10.548769"
       gradientUnits="userSpaceOnUse"
       gradientTransform="matrix(1.6061171,0,0,2.1084059,-12.924569,-19.742698)" />
    <linearGradient
       inkscape:collect="always"
       xlink:href="#linearGradient42"
       id="linearGradient4"
       x1="11.885941"
       y1="16.50819"
       x2="12.026573"
       y2="10.244942"
       gradientUnits="userSpaceOnUse"
       gradientTransform="matrix(1.6061171,0,0,2.1084059,-12.924569,-19.742698)" />
    <linearGradient
       id="linearGradient42"
       inkscape:collect="always">
      <stop
         style="stop-color:#010101;stop-opacity:1;"
         offset="0"
         id="stop42" />
      <stop
         style="stop-color:#6e6c6d;stop-opacity:1;"
         offset="1"
         id="stop43" />
    </linearGradient>
    <linearGradient
       inkscape:collect="always"
       xlink:href="#linearGradient8"
       id="linearGradient9"
       x1="9.3404646"
       y1="4.1692023"
       x2="9.4279938"
       y2="16.46883"
       gradientUnits="userSpaceOnUse"
       gradientTransform="matrix(0.80952478,0,0,1.0980733,1.5663172,-0.59391329)" />
    <filter
       style="color-interpolation-filters:sRGB;"
       inkscape:label="Blur"
       id="filter2"
       x="-0.14510849"
       y="-0.14612901"
       width="1.290217"
       height="1.292258">
      <feGaussianBlur
         stdDeviation="0.6 0.6"
         result="blur"
         id="feGaussianBlur2" />
    </filter>
    <linearGradient
       inkscape:collect="always"
       xlink:href="#linearGradient5"
       id="linearGradient16"
       x1="9.1735268"
       y1="10.997836"
       x2="9.2085209"
       y2="5.7480197"
       gradientUnits="userSpaceOnUse" />
  </defs>
  <metadata
     id="metadata2">
    <rdf:RDF>
      <cc:Work
         rdf:about="">
        <dc:format>image/svg+xml</dc:format>
        <dc:type
           rdf:resource="http://purl.org/dc/dcmitype/StillImage" />
      </cc:Work>
    </rdf:RDF>
  </metadata>
  <rect
     style="fill:#000000;fill-opacity:0.996424;stroke:#000000;stroke-width:0.911802;stroke-dasharray:none;stroke-opacity:1;filter:url(#filter2)"
     id="rect1-2-3"
     width="13.065404"
     height="12.974159"
     x="1.9816793"
     y="1.9267306"
     rx="2.7149384"
     ry="2.8310909"
     transform="matrix(0.78494475,0,0,1.0304244,1.8310625,-0.25598506)" />
  <rect
     style="fill:url(#linearGradient4);fill-opacity:0.996424;stroke:url(#linearGradient41);stroke-width:0.820027;stroke-dasharray:none;stroke-opacity:1"
     id="rect1-2"
     width="10.25562"
     height="13.36889"
     x="3.3865712"
     y="1.7293652"
     rx="2.1310766"
     ry="2.9172251" />
  <path
     d="m 7.8657257,6.12327 c 0,0 0.277648,0.1700375 0.081854,0.6166326 -0.2966384,0.6733846 0.273501,0.8274886 0.273501,0.8274886 0,0 -0.1811699,-0.158033 0.060245,-0.7137663 C 8.5480593,6.2380834 7.8657257,6.12327 7.8657257,6.12327 Z m 0.9169816,0.7615679 c 0,0 -0.5046564,0.224171 -0.1796419,0.8366564 0.2150025,0.4059953 -0.023574,0.6072472 -0.023574,0.6072472 0,0 0.6098657,-0.200815 0.3158467,-0.7613503 C 8.6310047,7.0607699 8.7827075,6.8848379 8.7827073,6.8848379 Z m -1.4318969,0.224607 c 0,0 -0.3614666,0.3850413 -0.00349,0.8573927 0.2366119,0.314537 0.081854,0.5867293 0.081854,0.5867293 0,0 0.4479043,-0.3972643 0.1239816,-0.8320726 C 7.260662,7.32925 7.3508104,7.1094449 7.3508104,7.1094449 Z m 2.9133426,1.605865 H 6.1384999 c 0,0 0.4435391,1.7741561 0.6351859,2.5411811 0.051077,0.203871 0.2339929,0.346842 0.4441936,0.346842 h 1.9636198 c 0.1953579,0 0.3691065,-0.123981 0.4326245,-0.308643 0.031,-0.09015 0.05697,-0.165236 0.05697,-0.165236 0.08033,0.01987 0.163053,0.03383 0.249273,0.03383 0.5692663,-2.18e-4 1.0313583,-0.36605 1.0313583,-0.935535 0,-0.4832655 -0.333746,-0.8857689 -0.782523,-0.9975258 z m -0.177241,0.8469155 c 0.0037,4.361e-4 0.0074,0.0011 0.01113,0.002 0.183571,0.04933 0.588475,0.2898722 0.460346,0.7733556 -0.141443,0.533469 -0.6087743,0.517534 -0.7905993,0.482174 z"
     style="clip-rule:evenodd;fill:#000000;fill-opacity:1;fill-rule:nonzero;stroke-width:0.218277;stroke-linejoin:round;stroke-miterlimit:2;opacity:0.3"
     id="path3-5-8" />
  <path
     d="m 7.8657257,5.5941138 c 0,0 0.277648,0.1700375 0.081854,0.6166326 -0.2966384,0.6733846 0.273501,0.8274886 0.273501,0.8274886 0,0 -0.1811699,-0.158033 0.060245,-0.7137663 0.2667336,-0.6155415 -0.4156,-0.7303549 -0.4156,-0.7303549 z m 0.9169816,0.7615679 c 0,0 -0.5046564,0.224171 -0.1796419,0.8366564 0.2150025,0.4059953 -0.023574,0.6072472 -0.023574,0.6072472 0,0 0.6098657,-0.200815 0.3158467,-0.7613503 C 8.6310047,6.5316137 8.7827075,6.3556817 8.7827073,6.3556817 Z m -1.4318969,0.224607 c 0,0 -0.3614666,0.3850413 -0.00349,0.8573927 0.2366119,0.314537 0.081854,0.5867293 0.081854,0.5867293 0,0 0.4479043,-0.3972643 0.1239816,-0.8320726 C 7.260662,6.8000938 7.3508104,6.5802887 7.3508104,6.5802887 Z m 2.9133426,1.605865 H 6.1384999 c 0,0 0.4435391,1.7741558 0.6351859,2.5411813 0.051077,0.203871 0.2339929,0.346842 0.4441936,0.346842 h 1.9636198 c 0.1953579,0 0.3691065,-0.123981 0.4326245,-0.308643 0.031,-0.09015 0.05697,-0.165236 0.05697,-0.165236 0.08033,0.01987 0.163053,0.03383 0.249273,0.03383 0.5692663,-2.18e-4 1.0313583,-0.36605 1.0313583,-0.9355355 0,-0.4832652 -0.333746,-0.8857686 -0.782523,-0.9975255 z m -0.177241,0.8469155 c 0.0037,4.361e-4 0.0074,0.0011 0.01113,0.002 0.183571,0.04933 0.588475,0.2898722 0.460346,0.7733554 -0.141443,0.5334694 -0.6087743,0.5175344 -0.7905993,0.4821744 z"
     style="clip-rule:evenodd;fill:url(#linearGradient16);fill-opacity:1;fill-rule:nonzero;stroke-width:0.218277;stroke-linejoin:round;stroke-miterlimit:2"
     id="path3-5" />
  <rect
     style="opacity:0.5;fill:none;fill-opacity:0.996424;stroke:url(#linearGradient9);stroke-width:0.50832;stroke-dasharray:none;stroke-opacity:1"
     id="rect1-2-6"
     width="8.9234324"
     height="12.035513"
     x="4.0584631"
     y="2.3962882"
     rx="1.5176033"
     ry="2.2109985" />
</svg>
