<?xml version="1.0" encoding="UTF-8" standalone="no"?>
<svg
   width="64"
   height="64"
   version="1.1"
   viewBox="0 0 16.933 16.933"
   id="svg7"
   sodipodi:docname="text-x-subviewer.svg"
   inkscape:version="1.3.2 (091e20ef0f, 2023-11-25)"
   xmlns:inkscape="http://www.inkscape.org/namespaces/inkscape"
   xmlns:sodipodi="http://sodipodi.sourceforge.net/DTD/sodipodi-0.dtd"
   xmlns:xlink="http://www.w3.org/1999/xlink"
   xmlns="http://www.w3.org/2000/svg"
   xmlns:svg="http://www.w3.org/2000/svg"
   xmlns:rdf="http://www.w3.org/1999/02/22-rdf-syntax-ns#"
   xmlns:cc="http://creativecommons.org/ns#"
   xmlns:dc="http://purl.org/dc/elements/1.1/">
  <sodipodi:namedview
     id="namedview7"
     pagecolor="#9c4444"
     bordercolor="#000000"
     borderopacity="0.25"
     inkscape:showpageshadow="2"
     inkscape:pageopacity="0.0"
     inkscape:pagecheckerboard="0"
     inkscape:deskcolor="#d1d1d1"
     inkscape:zoom="6.15625"
     inkscape:cx="33.218274"
     inkscape:cy="36.71066"
     inkscape:window-width="1463"
     inkscape:window-height="664"
     inkscape:window-x="167"
     inkscape:window-y="273"
     inkscape:window-maximized="0"
     inkscape:current-layer="svg7"
     showgrid="false" />
  <defs
     id="defs2">
    <linearGradient
       id="linearGradient5"
       inkscape:collect="always">
      <stop
         style="stop-color:#392713;stop-opacity:1;"
         offset="0"
         id="stop2" />
      <stop
         style="stop-color:#eed59e;stop-opacity:1;"
         offset="0.5"
         id="stop3" />
      <stop
         style="stop-color:#beaa8a;stop-opacity:1;"
         offset="1"
         id="stop4" />
    </linearGradient>
    <linearGradient
       id="linearGradient8"
       inkscape:collect="always">
      <stop
         style="stop-color:#1a1a1a;stop-opacity:1;"
         offset="0"
         id="stop8" />
      <stop
         style="stop-color:#ffffff;stop-opacity:0;"
         offset="1"
         id="stop9" />
    </linearGradient>
    <linearGradient
       inkscape:collect="always"
       xlink:href="#linearGradient5"
       id="linearGradient41"
       x1="13.675659"
       y1="16.110115"
       x2="13.728528"
       y2="10.548769"
       gradientUnits="userSpaceOnUse"
       gradientTransform="matrix(1.6061171,0,0,2.1084059,-12.924569,-19.742698)" />
    <linearGradient
       inkscape:collect="always"
       xlink:href="#linearGradient42"
       id="linearGradient4"
       x1="11.885941"
       y1="16.50819"
       x2="12.026573"
       y2="10.244942"
       gradientUnits="userSpaceOnUse"
       gradientTransform="matrix(1.6061171,0,0,2.1084059,-12.924569,-19.742698)" />
    <linearGradient
       id="linearGradient42"
       inkscape:collect="always">
      <stop
         style="stop-color:#010101;stop-opacity:1;"
         offset="0"
         id="stop42" />
      <stop
         style="stop-color:#6e6c6d;stop-opacity:1;"
         offset="1"
         id="stop43" />
    </linearGradient>
    <linearGradient
       inkscape:collect="always"
       xlink:href="#linearGradient8"
       id="linearGradient9"
       x1="9.3404646"
       y1="4.1692023"
       x2="9.4279938"
       y2="16.46883"
       gradientUnits="userSpaceOnUse"
       gradientTransform="matrix(0.80952478,0,0,1.0980733,1.5663172,-0.59391329)" />
    <filter
       style="color-interpolation-filters:sRGB;"
       inkscape:label="Blur"
       id="filter2"
       x="-0.14510849"
       y="-0.14612901"
       width="1.290217"
       height="1.292258">
      <feGaussianBlur
         stdDeviation="0.6 0.6"
         result="blur"
         id="feGaussianBlur2" />
    </filter>
    <clipPath
       clipPathUnits="userSpaceOnUse"
       id="clipPath354">
      <rect
         style="display:block;opacity:0.2"
         width="36"
         height="36"
         x="15.620633"
         y="15.638589"
         rx="2.7690001"
         ry="2.7690001"
         id="rect356" />
    </clipPath>
    <inkscape:path-effect
       effect="powerclip"
       id="path-effect358"
       is_visible="true"
       lpeversion="1"
       inverse="true"
       flatten="false"
       hide_clip="false"
       message="Use fill-rule evenodd on &lt;b&gt;fill and stroke&lt;/b&gt; dialog if no flatten result after convert clip to paths." />
    <clipPath
       clipPathUnits="userSpaceOnUse"
       id="clipPath186">
      <rect
         style="display:block;opacity:0.2"
         width="36"
         height="36"
         x="5.391973"
         y="5.6022935"
         rx="2.7690001"
         ry="2.7690001"
         id="rect188" />
    </clipPath>
    <inkscape:path-effect
       effect="powerclip"
       id="path-effect190"
       is_visible="true"
       lpeversion="1"
       inverse="true"
       flatten="false"
       hide_clip="false"
       message="Use fill-rule evenodd on &lt;b&gt;fill and stroke&lt;/b&gt; dialog if no flatten result after convert clip to paths." />
    <clipPath
       clipPathUnits="userSpaceOnUse"
       id="clipPath354-9">
      <rect
         style="display:none;opacity:0.2"
         width="36"
         height="36"
         x="15.620633"
         y="15.638589"
         rx="2.7690001"
         ry="2.7690001"
         id="rect356-7"
         d="m 18.389633,15.638589 h 30.462 c 1.534026,0 2.769,1.234974 2.769,2.769 v 30.462 c 0,1.534026 -1.234974,2.769 -2.769,2.769 h -30.462 c -1.534026,0 -2.769,-1.234974 -2.769,-2.769 v -30.462 c 0,-1.534026 1.234974,-2.769 2.769,-2.769 z" />
      <path
         id="lpe_path-effect358-3"
         style="opacity:0.2"
         class="powerclip"
         d="M 19,19 H 65 V 65 H 19 Z m -0.610367,-3.361411 c -1.534026,0 -2.769,1.234974 -2.769,2.769 v 30.462 c 0,1.534026 1.234974,2.769 2.769,2.769 h 30.462 c 1.534026,0 2.769,-1.234974 2.769,-2.769 v -30.462 c 0,-1.534026 -1.234974,-2.769 -2.769,-2.769 z" />
    </clipPath>
    <inkscape:path-effect
       effect="powerclip"
       id="path-effect358-6"
       is_visible="true"
       lpeversion="1"
       inverse="true"
       flatten="false"
       hide_clip="false"
       message="Use fill-rule evenodd on &lt;b&gt;fill and stroke&lt;/b&gt; dialog if no flatten result after convert clip to paths." />
    <clipPath
       clipPathUnits="userSpaceOnUse"
       id="clipPath186-3">
      <rect
         style="display:none;opacity:0.2"
         width="36"
         height="36"
         x="5.391973"
         y="5.6022935"
         rx="2.7690001"
         ry="2.7690001"
         id="rect188-1"
         d="M 8.1609731,5.6022935 H 38.622973 c 1.534026,0 2.769,1.234974 2.769,2.769 V 38.833293 c 0,1.534026 -1.234974,2.769 -2.769,2.769 H 8.1609731 c -1.5340261,0 -2.7690001,-1.234974 -2.7690001,-2.769 V 8.3712935 c 0,-1.534026 1.234974,-2.769 2.7690001,-2.769 z" />
      <path
         id="lpe_path-effect190-9"
         style="opacity:0.2"
         class="powerclip"
         d="M 9,9 H 55 V 55 H 9 Z M 8.1609731,5.6022935 c -1.5340261,0 -2.7690001,1.234974 -2.7690001,2.769 V 38.833293 c 0,1.534026 1.234974,2.769 2.7690001,2.769 H 38.622973 c 1.534026,0 2.769,-1.234974 2.769,-2.769 V 8.3712935 c 0,-1.534026 -1.234974,-2.769 -2.769,-2.769 z" />
    </clipPath>
    <inkscape:path-effect
       effect="powerclip"
       id="path-effect190-4"
       is_visible="true"
       lpeversion="1"
       inverse="true"
       flatten="false"
       hide_clip="false"
       message="Use fill-rule evenodd on &lt;b&gt;fill and stroke&lt;/b&gt; dialog if no flatten result after convert clip to paths." />
    <clipPath
       clipPathUnits="userSpaceOnUse"
       id="clipath_lpe_path-effect358-6">
      <rect
         style="display:block;opacity:0.2"
         width="36"
         height="36"
         x="15.620633"
         y="15.638589"
         rx="2.7690001"
         ry="2.7690001"
         id="rect22" />
    </clipPath>
    <clipPath
       clipPathUnits="userSpaceOnUse"
       id="clipath_lpe_path-effect190-4">
      <rect
         style="display:block;opacity:0.2"
         width="36"
         height="36"
         x="5.391973"
         y="5.6022935"
         rx="2.7690001"
         ry="2.7690001"
         id="rect23" />
    </clipPath>
    <linearGradient
       inkscape:collect="always"
       xlink:href="#linearGradient5"
       id="linearGradient31"
       x1="8.7117186"
       y1="11.402291"
       x2="8.5435982"
       y2="5.7700882"
       gradientUnits="userSpaceOnUse" />
  </defs>
  <metadata
     id="metadata2">
    <rdf:RDF>
      <cc:Work
         rdf:about="">
        <dc:format>image/svg+xml</dc:format>
        <dc:type
           rdf:resource="http://purl.org/dc/dcmitype/StillImage" />
      </cc:Work>
    </rdf:RDF>
  </metadata>
  <rect
     style="fill:#000000;fill-opacity:0.996424;stroke:#000000;stroke-width:0.911802;stroke-dasharray:none;stroke-opacity:1;filter:url(#filter2)"
     id="rect1-2-3"
     width="13.065404"
     height="12.974159"
     x="1.9816793"
     y="1.9267306"
     rx="2.7149384"
     ry="2.8310909"
     transform="matrix(0.78494475,0,0,1.0304244,1.8310625,-0.25598506)" />
  <rect
     style="fill:url(#linearGradient4);fill-opacity:0.996424;stroke:url(#linearGradient41);stroke-width:0.820027;stroke-dasharray:none;stroke-opacity:1"
     id="rect1-2"
     width="10.25562"
     height="13.36889"
     x="3.3865712"
     y="1.7293652"
     rx="2.1310766"
     ry="2.9172251" />
  <path
     style="fill:#000000;fill-opacity:1;stroke:none;stroke-width:0.264577;stroke-dasharray:none;stroke-opacity:0.3;opacity:0.3"
     d="m 8.5493639,10.858286 c -0.037802,0.0023 -0.075508,0.0086 -0.1121161,0.01825 -0.1464434,0.03861 -0.2754615,0.136391 -0.3512666,0.265602 -0.075804,0.12921 -0.097106,0.28832 -0.057866,0.432436 0.039239,0.144116 0.1385944,0.271084 0.2698924,0.345682 0.1312985,0.0746 0.2929785,0.09556 0.439423,0.05695 0.1464448,-0.03861 0.2754615,-0.136393 0.3512669,-0.265602 0.075808,-0.129212 0.097107,-0.288321 0.057866,-0.432437 -0.039236,-0.144122 -0.138595,-0.271089 -0.2698927,-0.345689 -0.098474,-0.05595 -0.213894,-0.08209 -0.3273072,-0.07518 z M 10.177311,8.57991 C 10.011412,8.58441 9.846461,8.63656 9.712118,8.732509 9.5563278,8.8437713 9.4457611,9.0039163 9.3242314,9.1507094 c -0.060766,0.07339 -0.1252759,0.1443081 -0.1998197,0.2042059 -0.074544,0.0599 -0.1596901,0.1089823 -0.2527131,0.1334683 -0.093023,0.02449 -0.1915771,0.02372 -0.2866199,0.0085 -0.095044,-0.01526 -0.1871448,-0.04504 -0.2771254,-0.07875 C 8.127992,9.3507034 7.951126,9.2662393 7.7595791,9.2464034 7.4952931,9.2190334 7.2201737,9.3268734 7.0475512,9.5253526 6.8749296,9.7238386 6.8096921,10.007706 6.8784734,10.25987 c 0.068781,0.252167 0.2693725,0.465452 0.5198926,0.552558 0.250521,0.08711 0.5436434,0.04541 0.758592,-0.108109 0.1557891,-0.111262 0.2663569,-0.271407 0.3878855,-0.418199 0.060766,-0.07339 0.125277,-0.144308 0.1998198,-0.204207 0.074544,-0.05989 0.1596911,-0.1089811 0.2527133,-0.1334671 0.093024,-0.02449 0.1915768,-0.02372 0.2866207,-0.0085 0.095043,0.01526 0.187144,0.04503 0.2771255,0.07875 0.179961,0.06743 0.356828,0.151894 0.5483752,0.17173 0.264286,0.02737 0.539405,-0.08047 0.712028,-0.2789481 0.172622,-0.1984853 0.23786,-0.4823523 0.169078,-0.7345175 -0.06879,-0.252168 -0.269372,-0.4654533 -0.519893,-0.5525602 -0.09395,-0.03266 -0.193862,-0.04717 -0.2934,-0.04449 z M 10.128484,6.3021299 C 9.9072888,6.3079453 9.6873519,6.3758239 9.5082278,6.5005526 9.3005125,6.6451935 9.1535404,6.8538282 8.9915025,7.0446578 8.910482,7.1400723 8.8241655,7.2319466 8.7247736,7.3098143 8.6253824,7.3876818 8.512003,7.4510464 8.3879728,7.4828783 8.2639412,7.5147094 8.1326874,7.5142824 8.0059627,7.494443 7.8792383,7.4746023 7.7561351,7.4359493 7.6361608,7.3921177 7.3962126,7.3044539 7.1600901,7.1945675 6.9046939,7.1687812 6.5523129,7.1332023 6.1854861,7.2733366 5.9553241,7.5313696 5.7251615,7.7894021 5.6380272,8.1582957 5.7297355,8.486111 5.8214435,8.813927 6.0896517,9.0913773 6.4236797,9.2046153 6.7577072,9.3178533 7.148387,9.2635953 7.4349846,9.0640283 7.6427036,8.9193873 7.7896749,8.710753 7.9517134,8.519923 8.0327324,8.424513 8.1190495,8.332634 8.2184412,8.2547667 c 0.099391,-0.077868 0.21277,-0.1412323 0.3367995,-0.173064 0.1240305,-0.031831 0.255285,-0.031404 0.3820095,-0.011565 0.1267252,0.019841 0.2498284,0.058494 0.3698022,0.1023258 C 9.5470009,8.2601265 9.7831239,8.370014 10.038522,8.3958 10.390901,8.43138 10.757728,8.2912443 10.987891,8.0332118 11.218054,7.7751786 11.305188,7.4062853 11.21348,7.0784693 11.12177,6.7506538 10.853563,6.4732042 10.519536,6.3599658 10.394276,6.3175018 10.261203,6.2986398 10.128484,6.3021299 Z"
     id="path14-5" />
  <path
     style="fill:url(#linearGradient31);fill-opacity:1;stroke:none;stroke-width:0.264577;stroke-dasharray:none;stroke-opacity:0.3"
     d="m 8.5493639,10.32913 c -0.037802,0.0023 -0.075508,0.0086 -0.1121161,0.01825 -0.1464434,0.03861 -0.2754615,0.136391 -0.3512666,0.265602 -0.075804,0.12921 -0.097106,0.28832 -0.057866,0.432436 0.039239,0.144116 0.1385944,0.271084 0.2698924,0.345682 0.1312985,0.0746 0.2929785,0.09556 0.439423,0.05695 0.1464448,-0.03861 0.2754615,-0.136393 0.3512669,-0.265602 0.075808,-0.129212 0.097107,-0.288321 0.057866,-0.432437 -0.039236,-0.144122 -0.138595,-0.271089 -0.2698927,-0.345689 -0.098474,-0.05595 -0.213894,-0.08209 -0.3273072,-0.07518 z M 10.177311,8.0507538 c -0.165899,0.0045 -0.33085,0.05665 -0.465193,0.152599 -0.1557902,0.1112623 -0.2663569,0.2714073 -0.3878866,0.4182004 -0.060766,0.07339 -0.1252759,0.144308 -0.1998197,0.2042059 -0.074544,0.0599 -0.1596901,0.1089823 -0.2527131,0.1334683 -0.093023,0.02449 -0.1915771,0.02372 -0.2866199,0.0085 -0.095044,-0.01526 -0.1871448,-0.04504 -0.2771254,-0.07875 C 8.127992,8.8215472 7.951126,8.7370831 7.7595791,8.7172472 7.4952931,8.6898772 7.2201737,8.7977172 7.0475512,8.9961964 6.8749296,9.1946824 6.8096921,9.4785497 6.8784734,9.7307137 c 0.068781,0.2521675 0.2693725,0.4654523 0.5198926,0.5525583 0.250521,0.08711 0.5436434,0.04541 0.758592,-0.108109 0.1557891,-0.111262 0.2663569,-0.271407 0.3878855,-0.4181993 0.060766,-0.07339 0.125277,-0.144308 0.1998198,-0.204207 0.074544,-0.05989 0.1596911,-0.108981 0.2527133,-0.133467 0.093024,-0.02449 0.1915768,-0.02372 0.2866207,-0.0085 0.095043,0.01526 0.187144,0.04503 0.2771255,0.07875 0.179961,0.06743 0.356828,0.151894 0.5483752,0.17173 0.264286,0.02737 0.539405,-0.08047 0.712028,-0.278948 0.172622,-0.1984853 0.23786,-0.4823523 0.169078,-0.7345175 -0.06879,-0.252168 -0.269372,-0.4654533 -0.519893,-0.5525602 -0.09395,-0.03266 -0.193862,-0.04717 -0.2934,-0.04449 z M 10.128484,5.7729737 C 9.9072888,5.7787891 9.6873519,5.8466677 9.5082278,5.9713964 9.3005125,6.1160373 9.1535404,6.324672 8.9915025,6.5155016 8.910482,6.6109161 8.8241655,6.7027904 8.7247736,6.7806581 8.6253824,6.8585256 8.512003,6.9218902 8.3879728,6.9537221 8.2639412,6.9855532 8.1326874,6.9851262 8.0059627,6.9652868 7.8792383,6.9454461 7.7561351,6.9067931 7.6361608,6.8629615 7.3962126,6.7752977 7.1600901,6.6654113 6.9046939,6.639625 6.5523129,6.6040461 6.1854861,6.7441804 5.9553241,7.0022134 5.7251615,7.2602459 5.6380272,7.6291395 5.7297355,7.9569548 c 0.091708,0.327816 0.3599162,0.6052663 0.6939442,0.7185043 0.3340275,0.113238 0.7247073,0.05898 1.0113049,-0.140587 0.207719,-0.144641 0.3546903,-0.3532753 0.5167288,-0.5441053 0.081019,-0.09541 0.1673361,-0.187289 0.2667278,-0.2651563 0.099391,-0.077868 0.21277,-0.1412323 0.3367995,-0.173064 0.1240305,-0.031831 0.255285,-0.031404 0.3820095,-0.011565 0.1267252,0.019841 0.2498284,0.058494 0.3698022,0.1023258 0.2399485,0.087663 0.4760715,0.1975505 0.7314696,0.2233365 0.352379,0.03558 0.719206,-0.1045557 0.949369,-0.3625882 C 11.218054,7.2460224 11.305188,6.8771291 11.21348,6.5493131 11.12177,6.2214976 10.853563,5.944048 10.519536,5.8308096 10.394276,5.7883456 10.261203,5.7694836 10.128484,5.7729737 Z"
     id="path14" />
  <rect
     style="opacity:0.5;fill:none;fill-opacity:0.996424;stroke:url(#linearGradient9);stroke-width:0.50832;stroke-dasharray:none;stroke-opacity:1"
     id="rect1-2-6"
     width="8.9234324"
     height="12.035513"
     x="4.0584631"
     y="2.3962882"
     rx="1.5176033"
     ry="2.2109985" />
</svg>
