<?xml version="1.0" encoding="UTF-8" standalone="no"?>
<svg
   width="64"
   height="64"
   version="1.1"
   viewBox="0 0 16.933 16.933"
   id="svg7"
   sodipodi:docname="Template 4.svg"
   inkscape:version="1.3.2 (091e20ef0f, 2023-11-25)"
   xmlns:inkscape="http://www.inkscape.org/namespaces/inkscape"
   xmlns:sodipodi="http://sodipodi.sourceforge.net/DTD/sodipodi-0.dtd"
   xmlns:xlink="http://www.w3.org/1999/xlink"
   xmlns="http://www.w3.org/2000/svg"
   xmlns:svg="http://www.w3.org/2000/svg"
   xmlns:rdf="http://www.w3.org/1999/02/22-rdf-syntax-ns#"
   xmlns:cc="http://creativecommons.org/ns#"
   xmlns:dc="http://purl.org/dc/elements/1.1/">
  <sodipodi:namedview
     id="namedview7"
     pagecolor="#9c4444"
     bordercolor="#000000"
     borderopacity="0.25"
     inkscape:showpageshadow="2"
     inkscape:pageopacity="0.0"
     inkscape:pagecheckerboard="0"
     inkscape:deskcolor="#d1d1d1"
     inkscape:zoom="6.15625"
     inkscape:cx="32.893401"
     inkscape:cy="24.365482"
     inkscape:window-width="1463"
     inkscape:window-height="604"
     inkscape:window-x="201"
     inkscape:window-y="171"
     inkscape:window-maximized="0"
     inkscape:current-layer="svg7"
     showgrid="false" />
  <defs
     id="defs2">
    <linearGradient
       id="linearGradient5"
       inkscape:collect="always">
      <stop
         style="stop-color:#392713;stop-opacity:1;"
         offset="0"
         id="stop2" />
      <stop
         style="stop-color:#eed59e;stop-opacity:1;"
         offset="0.5"
         id="stop3" />
      <stop
         style="stop-color:#beaa8a;stop-opacity:1;"
         offset="1"
         id="stop4" />
    </linearGradient>
    <linearGradient
       id="linearGradient8"
       inkscape:collect="always">
      <stop
         style="stop-color:#1a1a1a;stop-opacity:1;"
         offset="0"
         id="stop8" />
      <stop
         style="stop-color:#ffffff;stop-opacity:0;"
         offset="1"
         id="stop9" />
    </linearGradient>
    <linearGradient
       inkscape:collect="always"
       xlink:href="#linearGradient5"
       id="linearGradient41"
       x1="13.675659"
       y1="16.110115"
       x2="13.728528"
       y2="10.548769"
       gradientUnits="userSpaceOnUse"
       gradientTransform="matrix(1.8415377,0,0,1.8415377,-16.067037,-16.178831)" />
    <linearGradient
       inkscape:collect="always"
       xlink:href="#linearGradient42"
       id="linearGradient4"
       x1="11.885941"
       y1="16.50819"
       x2="12.026573"
       y2="10.244942"
       gradientUnits="userSpaceOnUse"
       gradientTransform="matrix(1.8415377,0,0,1.8415377,-16.067037,-16.178831)" />
    <linearGradient
       id="linearGradient42"
       inkscape:collect="always">
      <stop
         style="stop-color:#010101;stop-opacity:1;"
         offset="0"
         id="stop42" />
      <stop
         style="stop-color:#6e6c6d;stop-opacity:1;"
         offset="1"
         id="stop43" />
    </linearGradient>
    <linearGradient
       inkscape:collect="always"
       xlink:href="#linearGradient8"
       id="linearGradient9"
       x1="9.3404646"
       y1="4.1692023"
       x2="9.4279938"
       y2="16.46883"
       gradientUnits="userSpaceOnUse"
       gradientTransform="matrix(0.945,0,0,0.945,0.39894513,0.66338344)" />
    <filter
       style="color-interpolation-filters:sRGB;"
       inkscape:label="Blur"
       id="filter2"
       x="-0.14510849"
       y="-0.14612901"
       width="1.290217"
       height="1.292258">
      <feGaussianBlur
         stdDeviation="0.6 0.6"
         result="blur"
         id="feGaussianBlur2" />
    </filter>
    <linearGradient
       inkscape:collect="always"
       xlink:href="#linearGradient5"
       id="linearGradient9-2"
       x1="32.242779"
       y1="42.516655"
       x2="32.529171"
       y2="21.954178"
       gradientUnits="userSpaceOnUse"
       gradientTransform="matrix(0.19287745,0,0,0.19287745,2.2844164,2.16547)" />
  </defs>
  <metadata
     id="metadata2">
    <rdf:RDF>
      <cc:Work
         rdf:about="">
        <dc:format>image/svg+xml</dc:format>
        <dc:type
           rdf:resource="http://purl.org/dc/dcmitype/StillImage" />
      </cc:Work>
    </rdf:RDF>
  </metadata>
  <rect
     style="fill:#000000;fill-opacity:0.996424;stroke:#000000;stroke-width:0.911802;stroke-dasharray:none;stroke-opacity:1;filter:url(#filter2)"
     id="rect1-2-3"
     width="13.065404"
     height="12.974159"
     x="1.9816793"
     y="1.9267306"
     rx="2.7149384"
     ry="2.8310909"
     transform="matrix(0.9,0,0,0.9,0.85143817,0.84138103)" />
  <rect
     style="fill:url(#linearGradient4);fill-opacity:0.996424;stroke:url(#linearGradient41);stroke-width:0.820622;stroke-dasharray:none;stroke-opacity:1"
     id="rect1-2"
     width="11.758863"
     height="11.676744"
     x="2.6349494"
     y="2.5754385"
     rx="2.4434445"
     ry="2.5479817" />
  <path
     style="fill:#000000;fill-opacity:1;stroke-width:0.18159;opacity:0.3"
     d="m 7.690249,6.8783835 c 0,0.7490598 0,1.4527224 -0.4356091,1.4527224 -0.1972224,0 -0.4316813,-0.00162 -0.5713454,-0.249155 C 6.4928158,7.7443884 6.9509173,7.1280698 6.9509173,7.1280698 5.8085489,7.4863962 4.9793655,8.199971 4.9793655,9.0660677 c 0,0.6761501 0.6017424,1.4040143 1.3554415,1.8073013 0,0 -0.3621209,-1.1030799 0.1164835,-1.2484327 0.2594532,-0.04177 0.5997162,0.2440311 0.7460709,0.4993727 0,0 -0.052659,-0.4917545 0.3239379,-0.4993727 0.376599,-0.00761 0.8445344,0.6700377 0.9082818,1.2484327 0.063748,-0.578395 0.5316829,-1.2560498 0.9082815,-1.2484327 0.3765971,0.00761 0.3239383,0.4993727 0.3239383,0.4993727 0.1463539,-0.2553416 0.4866181,-0.5411432 0.7460711,-0.4993727 0.478604,0.1453528 0.116483,1.2484327 0.116483,1.2484327 0.7537,-0.403286 1.355441,-1.1311514 1.355441,-1.8073013 0,-0.8660967 -0.829184,-1.5796715 -1.971551,-1.9379973 0,0 0.458101,0.616318 0.267623,0.9538806 -0.139665,0.2475497 -0.3741235,0.249155 -0.5713461,0.249155 -0.4356088,0 -0.4356088,-0.7036623 -0.4356088,-1.4527225 L 8.6529209,7.4231545 H 8.4295811 8.2062406 Z"
     id="path2154-5" />
  <path
     style="fill:url(#linearGradient9-2);fill-opacity:1;stroke-width:0.18159"
     d="m 7.690249,6.3492273 c 0,0.7490598 0,1.4527224 -0.4356091,1.4527224 -0.1972224,0 -0.4316813,-0.00162 -0.5713454,-0.249155 C 6.4928158,7.2152322 6.9509173,6.5989136 6.9509173,6.5989136 5.8085489,6.95724 4.9793655,7.6708148 4.9793655,8.5369115 c 0,0.6761501 0.6017424,1.4040145 1.3554415,1.8073015 0,0 -0.3621209,-1.1030801 0.1164835,-1.2484329 0.2594532,-0.04177 0.5997162,0.2440311 0.7460709,0.4993729 0,0 -0.052659,-0.4917547 0.3239379,-0.4993729 0.376599,-0.00761 0.8445344,0.6700381 0.9082818,1.2484329 C 8.4933289,9.7658182 8.961264,9.088163 9.3378626,9.0957801 9.7144597,9.1033941 9.6618009,9.595153 9.6618009,9.595153 9.8081548,9.3398112 10.148419,9.0540096 10.407872,9.0957801 c 0.478604,0.1453528 0.116483,1.2484329 0.116483,1.2484329 0.7537,-0.4032861 1.355441,-1.1311516 1.355441,-1.8073015 0,-0.8660967 -0.829184,-1.5796715 -1.971551,-1.9379973 0,0 0.458101,0.616318 0.267623,0.9538805 -0.139665,0.2475498 -0.3741235,0.249155 -0.5713461,0.249155 -0.4356088,0 -0.4356088,-0.7036622 -0.4356088,-1.4527224 L 8.6529209,6.8939983 H 8.4295811 8.2062406 Z"
     id="path2154" />
  <rect
     style="opacity:0.5;fill:none;fill-opacity:0.996424;stroke:url(#linearGradient9);stroke-width:0.509492;stroke-dasharray:none;stroke-opacity:1"
     id="rect1-2-6"
     width="10.416782"
     height="10.357741"
     x="3.3081555"
     y="3.2367458"
     rx="1.8221684"
     ry="1.856477" />
</svg>
