<?xml version="1.0" encoding="UTF-8" standalone="no"?>
<svg
   width="64"
   height="64"
   version="1.1"
   viewBox="0 0 16.933 16.933"
   id="svg7"
   sodipodi:docname="cvb.svg"
   inkscape:version="1.3.2 (091e20ef0f, 2023-11-25)"
   xmlns:inkscape="http://www.inkscape.org/namespaces/inkscape"
   xmlns:sodipodi="http://sodipodi.sourceforge.net/DTD/sodipodi-0.dtd"
   xmlns:xlink="http://www.w3.org/1999/xlink"
   xmlns="http://www.w3.org/2000/svg"
   xmlns:svg="http://www.w3.org/2000/svg"
   xmlns:rdf="http://www.w3.org/1999/02/22-rdf-syntax-ns#"
   xmlns:cc="http://creativecommons.org/ns#"
   xmlns:dc="http://purl.org/dc/elements/1.1/">
  <sodipodi:namedview
     id="namedview7"
     pagecolor="#9c4444"
     bordercolor="#000000"
     borderopacity="0.25"
     inkscape:showpageshadow="2"
     inkscape:pageopacity="0.0"
     inkscape:pagecheckerboard="0"
     inkscape:deskcolor="#d1d1d1"
     inkscape:zoom="4.3531261"
     inkscape:cx="24.694897"
     inkscape:cy="47.552034"
     inkscape:window-width="1463"
     inkscape:window-height="604"
     inkscape:window-x="203"
     inkscape:window-y="139"
     inkscape:window-maximized="0"
     inkscape:current-layer="svg7"
     showgrid="false" />
  <defs
     id="defs2">
    <linearGradient
       id="linearGradient5"
       inkscape:collect="always">
      <stop
         style="stop-color:#392713;stop-opacity:1;"
         offset="0"
         id="stop2" />
      <stop
         style="stop-color:#eed59e;stop-opacity:1;"
         offset="0.5"
         id="stop3" />
      <stop
         style="stop-color:#beaa8a;stop-opacity:1;"
         offset="1"
         id="stop4" />
    </linearGradient>
    <linearGradient
       id="linearGradient8"
       inkscape:collect="always">
      <stop
         style="stop-color:#1a1a1a;stop-opacity:1;"
         offset="0"
         id="stop8" />
      <stop
         style="stop-color:#ffffff;stop-opacity:0;"
         offset="1"
         id="stop9" />
    </linearGradient>
    <linearGradient
       inkscape:collect="always"
       xlink:href="#linearGradient5"
       id="linearGradient41"
       x1="13.675659"
       y1="16.110115"
       x2="13.728528"
       y2="10.548769"
       gradientUnits="userSpaceOnUse"
       gradientTransform="matrix(1.6061171,0,0,2.1084059,-12.924569,-19.742698)" />
    <linearGradient
       inkscape:collect="always"
       xlink:href="#linearGradient42"
       id="linearGradient4"
       x1="11.885941"
       y1="16.50819"
       x2="12.026573"
       y2="10.244942"
       gradientUnits="userSpaceOnUse"
       gradientTransform="matrix(1.6061171,0,0,2.1084059,-12.924569,-19.742698)" />
    <linearGradient
       id="linearGradient42"
       inkscape:collect="always">
      <stop
         style="stop-color:#010101;stop-opacity:1;"
         offset="0"
         id="stop42" />
      <stop
         style="stop-color:#6e6c6d;stop-opacity:1;"
         offset="1"
         id="stop43" />
    </linearGradient>
    <linearGradient
       inkscape:collect="always"
       xlink:href="#linearGradient8"
       id="linearGradient9"
       x1="9.3404646"
       y1="4.1692023"
       x2="9.4279938"
       y2="16.46883"
       gradientUnits="userSpaceOnUse"
       gradientTransform="matrix(0.80952478,0,0,1.0980733,1.5663172,-0.59391329)" />
    <filter
       style="color-interpolation-filters:sRGB;"
       inkscape:label="Blur"
       id="filter2"
       x="-0.14510849"
       y="-0.14612901"
       width="1.290217"
       height="1.292258">
      <feGaussianBlur
         stdDeviation="0.6 0.6"
         result="blur"
         id="feGaussianBlur2" />
    </filter>
    <linearGradient
       inkscape:collect="always"
       xlink:href="#linearGradient5"
       id="linearGradient27"
       x1="8.9935942"
       y1="9.9618301"
       x2="8.9557924"
       y2="6.2195311"
       gradientUnits="userSpaceOnUse" />
  </defs>
  <metadata
     id="metadata2">
    <rdf:RDF>
      <cc:Work
         rdf:about="">
        <dc:format>image/svg+xml</dc:format>
        <dc:type
           rdf:resource="http://purl.org/dc/dcmitype/StillImage" />
      </cc:Work>
    </rdf:RDF>
  </metadata>
  <rect
     style="fill:#000000;fill-opacity:0.996424;stroke:#000000;stroke-width:0.911802;stroke-dasharray:none;stroke-opacity:1;filter:url(#filter2)"
     id="rect1-2-3"
     width="13.065404"
     height="12.974159"
     x="1.9816793"
     y="1.9267306"
     rx="2.7149384"
     ry="2.8310909"
     transform="matrix(0.78494475,0,0,1.0304244,1.8310625,-0.25598506)" />
  <rect
     style="fill:url(#linearGradient4);fill-opacity:0.996424;stroke:url(#linearGradient41);stroke-width:0.820027;stroke-dasharray:none;stroke-opacity:1"
     id="rect1-2"
     width="10.25562"
     height="13.36889"
     x="3.3865712"
     y="1.7293652"
     rx="2.1310766"
     ry="2.9172251" />
  <path
     fill="#f5f7fa"
     d="M 9.1047303,10.535707 H 7.505096 v -0.188265 c 0.1407465,-0.0089 0.2575826,-0.02652 0.350512,-0.05303 0.092929,-0.02652 0.1393925,-0.05922 0.1393925,-0.09812 0,-0.01592 -0.0018,-0.03535 -0.00541,-0.05833 -0.00361,-0.02298 -0.00902,-0.04331 -0.016237,-0.06098 L 7.6539648,9.2337623 H 6.308756 C 6.258232,9.3575034 6.217181,9.4653334 6.1856034,9.5572596 c -0.031577,0.09192 -0.059997,0.176773 -0.08526,0.254555 -0.023458,0.07601 -0.039697,0.137884 -0.04872,0.185614 -0.00902,0.04773 -0.013533,0.08662 -0.013533,0.1166704 0,0.07071 0.05684,0.125512 0.1705196,0.164402 0.1136799,0.03889 0.2417942,0.06187 0.3843455,0.06894 v 0.188265 H 5.1476009 v -0.188265 c 0.046916,-0.0036 0.1055596,-0.01369 0.1759331,-0.0305 0.070374,-0.01681 0.1281148,-0.03933 0.1732259,-0.06762 0.072178,-0.04773 0.1281148,-0.09767 0.1678127,-0.149816 0.039697,-0.05215 0.078493,-0.1241834 0.116386,-0.2161093 C 5.974035,9.4114133 6.1869561,8.881095 6.4197296,8.2924304 6.6525033,7.7037685 6.8600119,7.1796379 7.0422607,6.7200204 h 0.216531 L 8.53904,9.9656096 c 0.02707,0.06895 0.057745,0.1246254 0.092026,0.1670524 0.034287,0.04242 0.082102,0.08397 0.1434534,0.124626 0.041504,0.02474 0.095635,0.04551 0.1624002,0.06231 0.06676,0.01681 0.122701,0.02607 0.1678116,0.02783 z M 7.5565223,8.9977673 6.9745909,7.5393755 6.4034861,8.9977673 Z m 4.1438927,1.4902107 c -0.08481,0.03005 -0.159241,0.05435 -0.223299,0.07292 -0.06405,0.01856 -0.136686,0.02784 -0.217886,0.02784 -0.140746,0 -0.253072,-0.03226 -0.336978,-0.09679 -0.08391,-0.06452 -0.137589,-0.158655 -0.161048,-0.282398 h -0.01624 c -0.117289,0.127278 -0.243147,0.224505 -0.377578,0.291679 -0.134431,0.06718 -0.296378,0.100766 -0.4858447,0.100766 -0.2002951,0 -0.3649479,-0.0601 -0.4939655,-0.180311 -0.1290151,-0.120206 -0.1935235,-0.277535 -0.1935235,-0.4719894 0,-0.100765 0.014435,-0.190916 0.043311,-0.270466 0.028868,-0.07955 0.072178,-0.151139 0.1299193,-0.2147783 0.045109,-0.05303 0.1046565,-0.100322 0.1786386,-0.141862 0.073977,-0.04155 0.1434503,-0.07469 0.2084106,-0.09944 0.0812,-0.03005 0.2458532,-0.08573 0.4939652,-0.167053 0.248111,-0.08131 0.415471,-0.1449553 0.502084,-0.1909173 V 8.602671 c 0,-0.02298 -0.0049,-0.06717 -0.01489,-0.13258 -0.0099,-0.065407 -0.03113,-0.1272776 -0.06361,-0.1856125 -0.03608,-0.065408 -0.08706,-0.1224182 -0.152926,-0.17103 -0.06586,-0.048614 -0.159241,-0.07292 -0.280139,-0.07292 -0.083,0 -0.160143,0.01371 -0.231419,0.0411 -0.071279,0.027399 -0.121348,0.056126 -0.1502193,0.086176 0,0.035356 0.00857,0.087503 0.025709,0.1564472 0.017147,0.068942 0.025709,0.1325783 0.025709,0.1909163 0,0.06187 -0.028415,0.118438 -0.085259,0.169703 -0.056838,0.05127 -0.1357847,0.0769 -0.2368337,0.0769 -0.090222,0 -0.1565336,-0.03138 -0.1989389,-0.09413 -0.042404,-0.06275 -0.063609,-0.133021 -0.063609,-0.210803 0,-0.081317 0.029322,-0.1590979 0.087967,-0.233344 0.058644,-0.074245 0.1348785,-0.1405339 0.2287101,-0.1988704 0.0812,-0.049496 0.1795414,-0.091481 0.2950252,-0.1259514 0.1154856,-0.034472 0.2282616,-0.051706 0.3383336,-0.051706 0.151573,0 0.283746,0.010165 0.396524,0.030493 0.112779,0.02033 0.215179,0.064081 0.307206,0.1312551 0.09203,0.065407 0.161948,0.1542351 0.209766,0.2664876 0.04782,0.1122526 0.07172,0.2567651 0.07172,0.4335391 0,0.2527893 -0.0028,0.4768483 -0.0081,0.6721863 -0.0054,0.1953373 -0.0081,0.4087903 -0.0081,0.6403677 0,0.06894 0.01218,0.123741 0.03654,0.1644 0.02437,0.04066 0.0618,0.07513 0.112326,0.103416 0.02706,0.01592 0.06992,0.02475 0.128566,0.02652 0.05865,0.0018 0.118642,0.0027 0.179993,0.0027 z M 10.755792,9.0879223 c -0.153378,0.04419 -0.287808,0.0875 -0.403292,0.1299291 -0.115485,0.04243 -0.222847,0.09546 -0.322092,0.159098 -0.090222,0.0601 -0.1614978,0.1312543 -0.2138269,0.2134552 -0.052334,0.0822 -0.078497,0.179867 -0.078497,0.2930031 0,0.1467243 0.039245,0.2545573 0.1177397,0.3234993 0.078497,0.06895 0.1781882,0.103416 0.2990862,0.103416 0.128116,0 0.240892,-0.0305 0.338332,-0.09149 0.09744,-0.06098 0.179541,-0.133022 0.246306,-0.216106 z"
     id="path42-3-7-6"
     style="fill:#000000;fill-opacity:1;stroke:none;stroke-width:0.264577;stroke-dasharray:none;stroke-opacity:0.3;opacity:0.3" />
  <path
     fill="#f5f7fa"
     d="M 9.1047303,10.006551 H 7.505096 V 9.8182857 c 0.1407465,-0.0089 0.2575826,-0.02652 0.350512,-0.05303 0.092929,-0.02652 0.1393925,-0.05922 0.1393925,-0.09812 0,-0.01592 -0.0018,-0.03535 -0.00541,-0.05833 -0.00361,-0.02298 -0.00902,-0.04331 -0.016237,-0.06098 L 7.6539648,8.7046061 H 6.308756 C 6.258232,8.8283472 6.217181,8.9361772 6.1856034,9.0281034 c -0.031577,0.09192 -0.059997,0.176773 -0.08526,0.254555 -0.023458,0.07601 -0.039697,0.137884 -0.04872,0.185614 -0.00902,0.04773 -0.013533,0.08662 -0.013533,0.1166703 0,0.07071 0.05684,0.125512 0.1705196,0.164402 0.1136799,0.03889 0.2417942,0.06187 0.3843455,0.06894 V 10.00655 H 5.1476009 V 9.8182847 c 0.046916,-0.0036 0.1055596,-0.01369 0.1759331,-0.0305 0.070374,-0.01681 0.1281148,-0.03933 0.1732259,-0.06762 0.072178,-0.04773 0.1281148,-0.09767 0.1678127,-0.149816 0.039697,-0.05215 0.078493,-0.1241833 0.116386,-0.2161092 C 5.974035,8.8822571 6.1869561,8.3519388 6.4197296,7.7632742 6.6525033,7.1746123 6.8600119,6.6504817 7.0422607,6.1908642 h 0.216531 L 8.53904,9.4364534 c 0.02707,0.06895 0.057745,0.1246253 0.092026,0.1670523 0.034287,0.04242 0.082102,0.08397 0.1434534,0.124626 0.041504,0.02474 0.095635,0.04551 0.1624002,0.06231 0.06676,0.01681 0.122701,0.02607 0.1678116,0.02783 z M 7.5565223,8.4686111 6.9745909,7.0102193 6.4034861,8.4686111 Z m 4.1438927,1.4902106 c -0.08481,0.03005 -0.159241,0.05435 -0.223299,0.07292 -0.06405,0.01856 -0.136686,0.02784 -0.217886,0.02784 -0.140746,0 -0.253072,-0.03226 -0.336978,-0.09679 -0.08391,-0.06452 -0.137589,-0.158655 -0.161048,-0.282398 h -0.01624 c -0.117289,0.127278 -0.243147,0.224505 -0.377578,0.291679 -0.134431,0.06718 -0.296378,0.1007663 -0.4858447,0.1007663 -0.2002951,0 -0.3649479,-0.0601 -0.4939655,-0.1803113 -0.1290151,-0.120206 -0.1935235,-0.277535 -0.1935235,-0.4719893 0,-0.100765 0.014435,-0.190916 0.043311,-0.270466 0.028868,-0.07955 0.072178,-0.151139 0.1299193,-0.2147783 0.045109,-0.05303 0.1046565,-0.100322 0.1786386,-0.141862 0.073977,-0.04155 0.1434503,-0.07469 0.2084106,-0.09944 0.0812,-0.03005 0.2458532,-0.08573 0.4939652,-0.167053 0.248111,-0.08131 0.415471,-0.1449553 0.502084,-0.1909173 v -0.262507 c 0,-0.02298 -0.0049,-0.06717 -0.01489,-0.13258 -0.0099,-0.065407 -0.03113,-0.1272776 -0.06361,-0.1856125 -0.03608,-0.065408 -0.08706,-0.1224182 -0.152926,-0.17103 -0.06586,-0.048614 -0.159241,-0.07292 -0.280139,-0.07292 -0.083,0 -0.160143,0.01371 -0.231419,0.0411 -0.071279,0.027399 -0.121348,0.056126 -0.1502193,0.086176 0,0.035356 0.00857,0.087503 0.025709,0.1564472 0.017147,0.068942 0.025709,0.1325783 0.025709,0.1909163 0,0.06187 -0.028415,0.118438 -0.085259,0.169703 -0.056838,0.05127 -0.1357847,0.0769 -0.2368337,0.0769 -0.090222,0 -0.1565336,-0.03138 -0.1989389,-0.09413 -0.042404,-0.06275 -0.063609,-0.133021 -0.063609,-0.210803 0,-0.081317 0.029322,-0.1590979 0.087967,-0.233344 C 9.4705661,7.6200928 9.5468006,7.5538039 9.6406322,7.4954674 9.7218322,7.4459714 9.8201736,7.4039864 9.9356574,7.369516 10.051143,7.335044 10.163919,7.31781 10.273991,7.31781 c 0.151573,0 0.283746,0.010165 0.396524,0.030493 0.112779,0.02033 0.215179,0.064081 0.307206,0.1312551 0.09203,0.065407 0.161948,0.1542351 0.209766,0.2664876 0.04782,0.1122526 0.07172,0.2567651 0.07172,0.4335391 0,0.2527893 -0.0028,0.4768483 -0.0081,0.6721863 -0.0054,0.1953373 -0.0081,0.4087903 -0.0081,0.6403676 0,0.06894 0.01218,0.123741 0.03654,0.1644 0.02437,0.04066 0.0618,0.07513 0.112326,0.103416 0.02706,0.01592 0.06992,0.02475 0.128566,0.02652 0.05865,0.0018 0.118642,0.0027 0.179993,0.0027 z M 10.755792,8.5587661 c -0.153378,0.04419 -0.287808,0.0875 -0.403292,0.1299291 -0.115485,0.04243 -0.222847,0.09546 -0.322092,0.159098 -0.090222,0.0601 -0.1614978,0.1312543 -0.2138269,0.2134552 -0.052334,0.0822 -0.078497,0.179867 -0.078497,0.2930031 0,0.1467242 0.039245,0.2545573 0.1177397,0.3234993 0.078497,0.06895 0.1781882,0.1034159 0.2990862,0.1034159 0.128116,0 0.240892,-0.0305 0.338332,-0.09149 0.09744,-0.06098 0.179541,-0.133022 0.246306,-0.216106 z"
     id="path42-3-7"
     style="fill:url(#linearGradient27);fill-opacity:1;stroke:none;stroke-width:0.264577;stroke-dasharray:none;stroke-opacity:0.3" />
  <rect
     style="opacity:0.5;fill:none;fill-opacity:0.996424;stroke:url(#linearGradient9);stroke-width:0.50832;stroke-dasharray:none;stroke-opacity:1"
     id="rect1-2-6"
     width="8.9234324"
     height="12.035513"
     x="4.0584631"
     y="2.3962882"
     rx="1.5176033"
     ry="2.2109985" />
</svg>
