<?xml version="1.0" encoding="UTF-8" standalone="no"?>
<svg
   width="64"
   height="64"
   version="1.1"
   viewBox="0 0 16.933 16.933"
   id="svg7"
   sodipodi:docname="application-java.svg"
   inkscape:version="1.3.2 (091e20ef0f, 2023-11-25)"
   xmlns:inkscape="http://www.inkscape.org/namespaces/inkscape"
   xmlns:sodipodi="http://sodipodi.sourceforge.net/DTD/sodipodi-0.dtd"
   xmlns:xlink="http://www.w3.org/1999/xlink"
   xmlns="http://www.w3.org/2000/svg"
   xmlns:svg="http://www.w3.org/2000/svg"
   xmlns:rdf="http://www.w3.org/1999/02/22-rdf-syntax-ns#"
   xmlns:cc="http://creativecommons.org/ns#"
   xmlns:dc="http://purl.org/dc/elements/1.1/">
  <sodipodi:namedview
     id="namedview7"
     pagecolor="#9c4444"
     bordercolor="#000000"
     borderopacity="0.25"
     inkscape:showpageshadow="2"
     inkscape:pageopacity="0.0"
     inkscape:pagecheckerboard="0"
     inkscape:deskcolor="#d1d1d1"
     inkscape:zoom="4.3531261"
     inkscape:cx="47.666894"
     inkscape:cy="16.999278"
     inkscape:window-width="1463"
     inkscape:window-height="604"
     inkscape:window-x="199"
     inkscape:window-y="276"
     inkscape:window-maximized="0"
     inkscape:current-layer="svg7"
     showgrid="false" />
  <defs
     id="defs2">
    <linearGradient
       id="linearGradient5"
       inkscape:collect="always">
      <stop
         style="stop-color:#392713;stop-opacity:1;"
         offset="0"
         id="stop2" />
      <stop
         style="stop-color:#eed59e;stop-opacity:1;"
         offset="0.5"
         id="stop3" />
      <stop
         style="stop-color:#beaa8a;stop-opacity:1;"
         offset="1"
         id="stop4" />
    </linearGradient>
    <linearGradient
       id="linearGradient8"
       inkscape:collect="always">
      <stop
         style="stop-color:#1a1a1a;stop-opacity:1;"
         offset="0"
         id="stop8" />
      <stop
         style="stop-color:#ffffff;stop-opacity:0;"
         offset="1"
         id="stop9" />
    </linearGradient>
    <linearGradient
       inkscape:collect="always"
       xlink:href="#linearGradient5"
       id="linearGradient41"
       x1="13.675659"
       y1="16.110115"
       x2="13.728528"
       y2="10.548769"
       gradientUnits="userSpaceOnUse"
       gradientTransform="matrix(1.6061171,0,0,2.1084059,-12.924569,-19.742698)" />
    <linearGradient
       inkscape:collect="always"
       xlink:href="#linearGradient42"
       id="linearGradient4"
       x1="11.885941"
       y1="16.50819"
       x2="12.026573"
       y2="10.244942"
       gradientUnits="userSpaceOnUse"
       gradientTransform="matrix(1.6061171,0,0,2.1084059,-12.924569,-19.742698)" />
    <linearGradient
       id="linearGradient42"
       inkscape:collect="always">
      <stop
         style="stop-color:#010101;stop-opacity:1;"
         offset="0"
         id="stop42" />
      <stop
         style="stop-color:#6e6c6d;stop-opacity:1;"
         offset="1"
         id="stop43" />
    </linearGradient>
    <linearGradient
       inkscape:collect="always"
       xlink:href="#linearGradient8"
       id="linearGradient9"
       x1="9.3404646"
       y1="4.1692023"
       x2="9.4279938"
       y2="16.46883"
       gradientUnits="userSpaceOnUse"
       gradientTransform="matrix(0.80952478,0,0,1.0980733,1.5663172,-0.59391329)" />
    <filter
       style="color-interpolation-filters:sRGB;"
       inkscape:label="Blur"
       id="filter2"
       x="-0.14510849"
       y="-0.14612901"
       width="1.290217"
       height="1.292258">
      <feGaussianBlur
         stdDeviation="0.6 0.6"
         result="blur"
         id="feGaussianBlur2" />
    </filter>
    <linearGradient
       inkscape:collect="always"
       xlink:href="#linearGradient5"
       id="linearGradient6"
       x1="9.4323463"
       y1="10.811841"
       x2="9.4026537"
       y2="5.5124521"
       gradientUnits="userSpaceOnUse" />
  </defs>
  <metadata
     id="metadata2">
    <rdf:RDF>
      <cc:Work
         rdf:about="">
        <dc:format>image/svg+xml</dc:format>
        <dc:type
           rdf:resource="http://purl.org/dc/dcmitype/StillImage" />
      </cc:Work>
    </rdf:RDF>
  </metadata>
  <rect
     style="fill:#000000;fill-opacity:0.996424;stroke:#000000;stroke-width:0.911802;stroke-dasharray:none;stroke-opacity:1;filter:url(#filter2)"
     id="rect1-2-3"
     width="13.065404"
     height="12.974159"
     x="1.9816793"
     y="1.9267306"
     rx="2.7149384"
     ry="2.8310909"
     transform="matrix(0.78494475,0,0,1.0304244,1.8310625,-0.25598506)" />
  <rect
     style="fill:url(#linearGradient4);fill-opacity:0.996424;stroke:url(#linearGradient41);stroke-width:0.820027;stroke-dasharray:none;stroke-opacity:1"
     id="rect1-2"
     width="10.25562"
     height="13.36889"
     x="3.3865712"
     y="1.7293652"
     rx="2.1310766"
     ry="2.9172251" />
  <path
     style="fill:#000000;stroke-width:0.0234492;opacity:0.3"
     d="m 5.1570852,11.538887 c -0.1040779,-0.06062 -0.036484,-0.347473 0.1052678,-0.446765 0.090854,-0.06363 0.3359839,-0.06667 0.4812748,-0.006 0.093642,0.03912 0.1763022,0.03919 0.6321292,4.27e-4 0.2884201,-0.02453 0.5384694,-0.04622 0.5556656,-0.0482 0.017195,-0.0019 -0.08994,-0.03383 -0.2380784,-0.07076 L 6.423999,10.900444 6.7350904,10.337659 C 6.9061906,10.028126 7.0535222,9.7572851 7.0624957,9.7357904 7.074367,9.7073509 7.0332,9.6967375 6.911318,9.6968236 L 6.7438275,9.6969441 6.6387174,9.9002188 c -0.05781,0.1118012 -0.1468251,0.2383762 -0.1978106,0.2812762 -0.1030433,0.08671 -0.2477981,0.102154 -0.305518,0.03261 -0.051067,-0.06153 -0.010944,-0.173464 0.062175,-0.173464 0.1540862,0 0.2651286,-0.2927875 0.2251405,-0.5936352 C 6.4044715,9.3098416 6.3873627,9.2731889 6.3373712,9.2641801 6.226251,9.2441586 6.2215024,9.2070742 6.3081664,9.0361051 6.383193,8.8880947 6.3932554,8.8328993 6.3929298,8.5711326 6.3927255,8.4077689 6.3825746,8.2152252 6.370378,8.1432583 L 6.3481947,8.0124092 6.4678468,8.002561 C 6.5755932,7.9936983 6.5883054,7.9833813 6.595599,7.8989161 6.6023334,7.8208877 6.5821253,7.7893467 6.4754007,7.7113193 6.230172,7.5320379 5.8828892,7.1375146 5.7836794,6.9255086 5.6671104,6.6763959 5.6535822,6.4548058 5.747281,6.3293068 c 0.16141,-0.2161917 0.5039159,-0.099477 0.4143295,0.1411895 -0.021844,0.058674 -0.046189,0.070493 -0.128813,0.062532 -0.084957,-0.00818 -0.1035249,-0.024101 -0.1117752,-0.095799 -0.00545,-0.04729 0.00511,-0.085981 0.023451,-0.085981 0.018343,0 0.033337,0.021107 0.033337,0.046896 0,0.025795 0.022136,0.046896 0.049192,0.046896 0.077494,0 0.038298,-0.1080115 -0.043415,-0.119647 -0.11616,-0.016539 -0.1621052,0.047734 -0.1621052,0.2267668 0,0.241583 0.1197588,0.4548532 0.4226618,0.7526915 0.2689182,0.2644228 0.4226385,0.3710451 0.443862,0.3078721 C 6.7269009,7.496952 6.9685758,7.1512078 7.2128129,6.8619229 7.5846662,6.4214866 7.6015832,6.393919 7.5983657,6.2336298 7.5948746,6.0590705 7.6918827,5.9447886 7.8435803,5.9447886 c 0.1591705,0 0.2400754,0.098103 0.2151977,0.2609411 -0.046539,0.3046249 -0.05379,0.443188 -0.031911,0.6097266 0.02072,0.1576874 0.025899,0.1672079 0.048069,0.088322 C 8.088602,6.8551493 8.130773,6.6277489 8.168648,6.3984447 8.206519,6.16914 8.247241,5.9657864 8.259132,5.946547 8.272285,5.925263 8.305689,5.92114 8.344416,5.935991 L 8.408081,5.960417 8.348127,6.2574426 C 8.315152,6.4208071 8.1960581,6.9695232 8.0834762,7.4768126 7.9708946,7.9840999 7.878733,8.4272947 7.8786732,8.4616867 c -2.516e-4,0.140139 0.1992733,0.8263696 0.2947988,1.0139549 0.088782,0.1743412 0.1247231,0.2125389 0.2706186,0.2876061 0.092533,0.047609 0.1980555,0.1133306 0.2344945,0.1460465 0.036437,0.032716 0.083568,0.069274 0.1047289,0.081238 0.068878,0.038942 0.7050364,0.1113748 0.9836944,0.1120018 0.22644,5.26e-4 0.2916496,-0.01113 0.3908216,-0.06974 0.103098,-0.060928 0.16299,-0.070348 0.447325,-0.070348 0.299215,0 0.343918,0.00792 0.504711,0.089409 0.368108,0.186558 0.673952,0.549293 0.825696,0.979288 0.08788,0.249027 0.09536,0.375669 0.02788,0.472005 l -0.04867,0.06949 h -1.07788 c -1.1924876,0 -1.1458666,0.0087 -1.0765036,-0.20145 0.05305,-0.160733 0.165196,-0.236271 0.3507826,-0.236271 0.08479,0 0.184899,0.01637 0.22246,0.03639 0.06136,0.03269 0.06401,0.03119 0.02606,-0.0148 -0.104285,-0.12643 -0.3644006,-0.09393 -0.5970446,0.07459 -0.07058,0.05113 -0.196374,0.119779 -0.279551,0.152564 -0.3883149,0.153058 -1.0616794,0.214582 -1.2903277,0.117893 -0.1080334,-0.04568 -0.1151963,-0.04506 -0.1299528,0.01138 -0.015089,0.0577 -0.063739,0.05968 -1.4333248,0.05877 -0.9046292,-5.83e-4 -1.4375084,-0.01249 -1.4724222,-0.03282 z"
     id="path1-2" />
  <path
     style="fill:url(#linearGradient6);stroke-width:0.0234492"
     d="m 5.1570852,11.009731 c -0.1040779,-0.06062 -0.036484,-0.347473 0.1052678,-0.446765 0.090854,-0.06363 0.3359839,-0.06667 0.4812748,-0.006 0.093642,0.03912 0.1763022,0.03919 0.6321292,4.27e-4 0.2884201,-0.02453 0.5384694,-0.04622 0.5556656,-0.0482 0.017195,-0.0019 -0.08994,-0.03383 -0.2380784,-0.07076 L 6.423999,10.371288 6.7350904,9.8085025 C 6.9061906,9.4989697 7.0535222,9.2281289 7.0624957,9.2066342 7.074367,9.1781947 7.0332,9.1675813 6.911318,9.1676674 L 6.7438275,9.1677879 6.6387174,9.3710626 c -0.05781,0.111801 -0.1468251,0.238376 -0.1978106,0.2812763 -0.1030433,0.086705 -0.2477981,0.1021538 -0.305518,0.032606 -0.051067,-0.061534 -0.010944,-0.173464 0.062175,-0.173464 0.1540862,0 0.2651286,-0.2927876 0.2251405,-0.5936353 C 6.4044715,8.7806854 6.3873627,8.7440327 6.3373712,8.7350239 6.226251,8.7150024 6.2215024,8.677918 6.3081664,8.5069489 6.383193,8.3589385 6.3932554,8.3037431 6.3929298,8.0419764 6.3927255,7.8786127 6.3825746,7.686069 6.370378,7.6141021 L 6.3481947,7.483253 6.4678468,7.4734048 C 6.5755932,7.4645421 6.5883054,7.4542251 6.595599,7.3697599 6.6023334,7.2917315 6.5821253,7.2601905 6.4754007,7.1821631 6.230172,7.0028817 5.8828892,6.6083584 5.7836794,6.3963524 5.6671104,6.1472397 5.6535822,5.9256496 5.747281,5.8001506 c 0.16141,-0.2161917 0.5039159,-0.099477 0.4143295,0.1411895 -0.021844,0.058674 -0.046189,0.070493 -0.128813,0.062532 -0.084957,-0.00818 -0.1035249,-0.024101 -0.1117752,-0.095799 -0.00545,-0.04729 0.00511,-0.085981 0.023451,-0.085981 0.018343,0 0.033337,0.021107 0.033337,0.046896 0,0.025795 0.022136,0.046896 0.049192,0.046896 0.077494,0 0.038298,-0.1080115 -0.043415,-0.119647 -0.11616,-0.016539 -0.1621052,0.047734 -0.1621052,0.2267668 0,0.241583 0.1197588,0.4548532 0.4226618,0.7526915 0.2689182,0.2644228 0.4226385,0.3710451 0.443862,0.3078721 C 6.7269009,6.9677958 6.9685758,6.6220516 7.2128129,6.3327667 7.5846662,5.8923304 7.6015832,5.8647628 7.5983657,5.7044736 7.5948746,5.5299143 7.6918827,5.4156324 7.8435803,5.4156324 c 0.1591705,0 0.2400754,0.098103 0.2151977,0.2609411 C 8.012239,5.9811984 8.004988,6.1197615 8.026867,6.2863001 8.047587,6.4439875 8.052766,6.453508 8.074936,6.3746221 8.088602,6.3259931 8.130773,6.0985927 8.168648,5.8692885 8.206519,5.6399838 8.247241,5.4366302 8.259132,5.4173908 8.272285,5.3961068 8.305689,5.3919838 8.344416,5.4068348 L 8.408081,5.4312608 8.348127,5.7282864 C 8.315152,5.8916509 8.1960581,6.440367 8.0834762,6.9476564 7.9708946,7.4549437 7.878733,7.8981385 7.8786732,7.9325305 c -2.516e-4,0.140139 0.1992733,0.8263696 0.2947988,1.0139549 0.088782,0.1743412 0.1247231,0.2125389 0.2706186,0.2876061 0.092533,0.047609 0.1980555,0.1133306 0.2344945,0.1460465 0.036437,0.032716 0.083568,0.069274 0.1047289,0.081238 0.068878,0.038942 0.7050364,0.1113752 0.9836944,0.1120017 0.22644,5.261e-4 0.2916496,-0.011126 0.3908216,-0.069738 0.103098,-0.060928 0.16299,-0.070348 0.447325,-0.070348 0.299215,0 0.343918,0.00792 0.504711,0.089409 0.368108,0.1865578 0.673952,0.5492933 0.825696,0.9792883 0.08788,0.249027 0.09536,0.375669 0.02788,0.472005 l -0.04867,0.06949 h -1.07788 c -1.1924876,0 -1.1458666,0.0087 -1.0765036,-0.20145 0.05305,-0.160733 0.165196,-0.236271 0.3507826,-0.236271 0.08479,0 0.184899,0.01637 0.22246,0.03639 0.06136,0.03269 0.06401,0.03119 0.02606,-0.0148 -0.104285,-0.12643 -0.3644006,-0.09393 -0.5970446,0.07459 -0.07058,0.05113 -0.196374,0.119779 -0.279551,0.152564 -0.3883149,0.153058 -1.0616794,0.214582 -1.2903277,0.117893 -0.1080334,-0.04568 -0.1151963,-0.04506 -0.1299528,0.01138 -0.015089,0.0577 -0.063739,0.05968 -1.4333248,0.05877 -0.9046292,-5.83e-4 -1.4375084,-0.01249 -1.4724222,-0.03282 z"
     id="path1" />
  <rect
     style="opacity:0.5;fill:none;fill-opacity:0.996424;stroke:url(#linearGradient9);stroke-width:0.50832;stroke-dasharray:none;stroke-opacity:1"
     id="rect1-2-6"
     width="8.9234324"
     height="12.035513"
     x="4.0584631"
     y="2.3962882"
     rx="1.5176033"
     ry="2.2109985" />
</svg>
