<?xml version="1.0" encoding="UTF-8" standalone="no"?>
<svg
   width="64"
   height="64"
   version="1.1"
   viewBox="0 0 16.933 16.933"
   id="svg7"
   sodipodi:docname="application-atom+xml (Copy).svg"
   inkscape:version="1.3.2 (091e20ef0f, 2023-11-25)"
   xmlns:inkscape="http://www.inkscape.org/namespaces/inkscape"
   xmlns:sodipodi="http://sodipodi.sourceforge.net/DTD/sodipodi-0.dtd"
   xmlns:xlink="http://www.w3.org/1999/xlink"
   xmlns="http://www.w3.org/2000/svg"
   xmlns:svg="http://www.w3.org/2000/svg"
   xmlns:rdf="http://www.w3.org/1999/02/22-rdf-syntax-ns#"
   xmlns:cc="http://creativecommons.org/ns#"
   xmlns:dc="http://purl.org/dc/elements/1.1/">
  <sodipodi:namedview
     id="namedview7"
     pagecolor="#9c4444"
     bordercolor="#000000"
     borderopacity="0.25"
     inkscape:showpageshadow="2"
     inkscape:pageopacity="0.0"
     inkscape:pagecheckerboard="0"
     inkscape:deskcolor="#d1d1d1"
     inkscape:zoom="4.3531261"
     inkscape:cx="47.666894"
     inkscape:cy="39.971275"
     inkscape:window-width="1463"
     inkscape:window-height="604"
     inkscape:window-x="115"
     inkscape:window-y="154"
     inkscape:window-maximized="0"
     inkscape:current-layer="svg7"
     showgrid="false" />
  <defs
     id="defs2">
    <linearGradient
       id="linearGradient5"
       inkscape:collect="always">
      <stop
         style="stop-color:#392713;stop-opacity:1;"
         offset="0"
         id="stop2" />
      <stop
         style="stop-color:#eed59e;stop-opacity:1;"
         offset="0.5"
         id="stop3" />
      <stop
         style="stop-color:#beaa8a;stop-opacity:1;"
         offset="1"
         id="stop4" />
    </linearGradient>
    <linearGradient
       id="linearGradient8"
       inkscape:collect="always">
      <stop
         style="stop-color:#1a1a1a;stop-opacity:1;"
         offset="0"
         id="stop8" />
      <stop
         style="stop-color:#ffffff;stop-opacity:0;"
         offset="1"
         id="stop9" />
    </linearGradient>
    <linearGradient
       inkscape:collect="always"
       xlink:href="#linearGradient5"
       id="linearGradient41"
       x1="13.675659"
       y1="16.110115"
       x2="13.728528"
       y2="10.548769"
       gradientUnits="userSpaceOnUse"
       gradientTransform="matrix(1.6061171,0,0,2.1084059,-12.924569,-19.742698)" />
    <linearGradient
       inkscape:collect="always"
       xlink:href="#linearGradient42"
       id="linearGradient4"
       x1="11.885941"
       y1="16.50819"
       x2="12.026573"
       y2="10.244942"
       gradientUnits="userSpaceOnUse"
       gradientTransform="matrix(1.6061171,0,0,2.1084059,-12.924569,-19.742698)" />
    <linearGradient
       id="linearGradient42"
       inkscape:collect="always">
      <stop
         style="stop-color:#010101;stop-opacity:1;"
         offset="0"
         id="stop42" />
      <stop
         style="stop-color:#6e6c6d;stop-opacity:1;"
         offset="1"
         id="stop43" />
    </linearGradient>
    <linearGradient
       inkscape:collect="always"
       xlink:href="#linearGradient8"
       id="linearGradient9"
       x1="9.3404646"
       y1="4.1692023"
       x2="9.4279938"
       y2="16.46883"
       gradientUnits="userSpaceOnUse"
       gradientTransform="matrix(0.80952478,0,0,1.0980733,1.5663172,-0.59391329)" />
    <filter
       style="color-interpolation-filters:sRGB;"
       inkscape:label="Blur"
       id="filter2"
       x="-0.14510849"
       y="-0.14612901"
       width="1.290217"
       height="1.292258">
      <feGaussianBlur
         stdDeviation="0.6 0.6"
         result="blur"
         id="feGaussianBlur2" />
    </filter>
    <linearGradient
       inkscape:collect="always"
       xlink:href="#linearGradient5"
       id="linearGradient36"
       x1="8.5357208"
       y1="10.961963"
       x2="8.4868078"
       y2="5.8071356"
       gradientUnits="userSpaceOnUse"
       gradientTransform="matrix(1.21,0,0,1.21,-1.777966,-1.7779633)" />
  </defs>
  <metadata
     id="metadata2">
    <rdf:RDF>
      <cc:Work
         rdf:about="">
        <dc:format>image/svg+xml</dc:format>
        <dc:type
           rdf:resource="http://purl.org/dc/dcmitype/StillImage" />
      </cc:Work>
    </rdf:RDF>
  </metadata>
  <rect
     style="fill:#000000;fill-opacity:0.996424;stroke:#000000;stroke-width:0.911802;stroke-dasharray:none;stroke-opacity:1;filter:url(#filter2)"
     id="rect1-2-3"
     width="13.065404"
     height="12.974159"
     x="1.9816793"
     y="1.9267306"
     rx="2.7149384"
     ry="2.8310909"
     transform="matrix(0.78494475,0,0,1.0304244,1.8310625,-0.25598506)" />
  <rect
     style="fill:url(#linearGradient4);fill-opacity:0.996424;stroke:url(#linearGradient41);stroke-width:0.820027;stroke-dasharray:none;stroke-opacity:1"
     id="rect1-2"
     width="10.25562"
     height="13.36889"
     x="3.3865712"
     y="1.7293652"
     rx="2.1310766"
     ry="2.9172251" />
  <path
     style="fill:#000000;stroke:none;stroke-width:0.00837521;opacity:0.3"
     d="m 7.7769589,12.097446 c -0.066891,-0.03311 -0.070439,-0.0435 -0.1463518,-0.428364 l -0.068585,-0.34771 -0.06699,-0.02739 C 7.3353763,11.228705 7.1279163,11.110425 6.9804992,11.000629 l -0.075975,-0.05658 -0.3314363,0.112494 c -0.2302171,0.07813 -0.3428592,0.112494 -0.3688401,0.112494 -0.039443,0 -0.090262,-0.0212 -0.1132875,-0.04727 -0.00755,-0.0086 -0.1579721,-0.265802 -0.3342604,-0.571642 C 5.4045247,9.9391486 5.4113744,9.9539106 5.4450178,9.8783958 5.458496,9.8481337 5.5095943,9.7996127 5.7307251,9.6070436 5.9994841,9.3730025 6.0000095,9.3724798 5.9961021,9.3432244 5.9654807,9.1139427 5.9654613,8.8803507 5.9960475,8.6480827 5.9998953,8.6188491 5.9992177,8.6181715 5.73068,8.384264 5.5096949,8.1917781 5.4585094,8.1431554 5.4450277,8.1129115 5.4114928,8.0376858 5.4046722,8.0523812 5.756706,7.4414516 5.9330276,7.1354594 6.0834563,6.8781056 6.0909933,6.8695541 c 0.022932,-0.026017 0.073784,-0.047266 0.1131181,-0.047266 0.025826,0 0.1390286,0.034573 0.3686904,0.112599 l 0.3314215,0.1126001 0.076124,-0.056697 C 7.127876,6.8809129 7.3351801,6.7627037 7.4950114,6.6973186 l 0.066971,-0.027398 0.065996,-0.3362953 c 0.036298,-0.1849623 0.071303,-0.349349 0.07779,-0.3653024 0.015364,-0.037785 0.033432,-0.057123 0.071543,-0.076574 0.029709,-0.015161 0.059869,-0.01586 0.6862162,-0.01586 0.6504979,0 0.6554028,1.267e-4 0.6918407,0.017765 0.067377,0.032617 0.070818,0.042645 0.1469921,0.4284554 l 0.068666,0.3477877 0.066971,0.02741 C 9.597991,6.762788 9.805158,6.8809329 9.9527946,6.9908909 l 0.076258,0.056797 0.331786,-0.1127006 c 0.227244,-0.077189 0.34337,-0.1127006 0.368555,-0.1127006 0.03889,0 0.08975,0.021341 0.112651,0.047266 0.0075,0.00856 0.157972,0.2657807 0.334262,0.5716213 0.352105,0.6108656 0.345276,0.5961496 0.311758,0.671736 -0.01344,0.03031 -0.0641,0.078432 -0.285593,0.2713523 -0.268416,0.2337781 -0.26924,0.234596 -0.265453,0.2638199 0.03058,0.2358786 0.03057,0.4605528 -2.3e-5,0.6951416 -0.0038,0.029234 -0.003,0.029996 0.265377,0.263819 0.220998,0.1925171 0.272138,0.2411022 0.285614,0.271351 0.03365,0.07554 0.0405,0.060778 -0.311619,0.6717652 -0.176249,0.305825 -0.326667,0.563042 -0.334258,0.571594 -0.02309,0.026 -0.07389,0.04727 -0.112941,0.04727 -0.02549,0 -0.140273,-0.0351 -0.368807,-0.11276 l -0.331813,-0.11276 -0.056568,0.04298 C 9.827601,11.09618 9.6152871,11.21969 9.4585823,11.285148 l -0.087558,0.03657 -0.068666,0.347626 c -0.076173,0.385626 -0.079623,0.395681 -0.1469922,0.428293 -0.036434,0.01764 -0.041382,0.01777 -0.6894136,0.01777 -0.6504717,-6e-6 -0.6528395,-6.8e-5 -0.6889944,-0.01796 z m 1.2553739,-1.98765 C 9.3337732,9.7480049 9.5816626,9.44825 9.583198,9.4436726 9.584991,9.4382276 9.468974,9.4353236 9.2503882,9.4353236 H 8.9147879 l -0.00218,-0.953294 -0.00221,-0.953293 -0.022285,-0.033672 c -0.043515,-0.06575 -0.042567,-0.065604 -0.4216013,-0.065604 -0.3790357,0 -0.3780867,-1.518e-4 -0.4216017,0.065604 l -0.022285,0.033672 -0.00221,0.953293 -0.00218,0.953294 h -0.334897 c -0.1841966,0 -0.3348463,0.00278 -0.3347775,0.00629 6.85e-5,0.00351 0.2509346,0.3071117 0.5574801,0.6747904 0.4196892,0.50339 0.5599345,0.666369 0.5677975,0.659843 0.00575,-0.0047 0.2570756,-0.304677 0.5585162,-0.666469 z"
     id="path5-4" />
  <path
     style="fill:url(#linearGradient36);stroke:none;stroke-width:0.00837521"
     d="m 7.7769589,11.56829 c -0.066891,-0.03311 -0.070439,-0.0435 -0.1463518,-0.428364 l -0.068585,-0.34771 -0.06699,-0.02739 C 7.3353763,10.699549 7.1279163,10.581269 6.9804992,10.471473 l -0.075975,-0.05658 -0.3314363,0.112494 c -0.2302171,0.07813 -0.3428592,0.112494 -0.3688401,0.112494 -0.039443,0 -0.090262,-0.0212 -0.1132875,-0.04727 -0.00755,-0.0086 -0.1579721,-0.265802 -0.3342604,-0.571642 C 5.4045247,9.4099924 5.4113744,9.4247544 5.4450178,9.3492396 5.458496,9.3189775 5.5095943,9.2704565 5.7307251,9.0778874 5.9994841,8.8438463 6.0000095,8.8433236 5.9961021,8.8140682 5.9654807,8.5847865 5.9654613,8.3511945 5.9960475,8.1189265 5.9998953,8.0896929 5.9992177,8.0890153 5.73068,7.8551078 5.5096949,7.6626219 5.4585094,7.6139992 5.4450277,7.5837553 5.4114928,7.5085296 5.4046722,7.523225 5.756706,6.9122954 5.9330276,6.6063032 6.0834563,6.3489494 6.0909933,6.3403979 6.113925,6.3143807 6.1647769,6.293132 6.2041114,6.293132 c 0.025826,0 0.1390286,0.034573 0.3686904,0.112599 l 0.3314215,0.1126001 0.076124,-0.056697 C 7.127876,6.3517567 7.3351801,6.2335475 7.4950114,6.1681624 l 0.066971,-0.027398 0.065996,-0.3362953 c 0.036298,-0.1849623 0.071303,-0.349349 0.07779,-0.3653024 0.015364,-0.037785 0.033432,-0.057123 0.071543,-0.076574 0.029709,-0.015161 0.059869,-0.01586 0.6862162,-0.01586 0.6504979,0 0.6554028,1.267e-4 0.6918407,0.017765 0.067377,0.032617 0.070818,0.042645 0.1469921,0.4284554 l 0.068666,0.3477877 0.066971,0.02741 C 9.597991,6.2336318 9.805158,6.3517767 9.9527946,6.4617347 l 0.076258,0.056797 0.331786,-0.1127006 c 0.227244,-0.077189 0.34337,-0.1127006 0.368555,-0.1127006 0.03889,0 0.08975,0.021341 0.112651,0.047266 0.0075,0.00856 0.157972,0.2657807 0.334262,0.5716213 0.352105,0.6108656 0.345276,0.5961496 0.311758,0.671736 -0.01344,0.03031 -0.0641,0.078432 -0.285593,0.2713523 -0.268416,0.2337781 -0.26924,0.234596 -0.265453,0.2638199 0.03058,0.2358786 0.03057,0.4605528 -2.3e-5,0.6951416 -0.0038,0.029234 -0.003,0.029996 0.265377,0.263819 0.220998,0.1925171 0.272138,0.2411022 0.285614,0.271351 0.03365,0.07554 0.0405,0.060778 -0.311619,0.6717654 -0.176249,0.305825 -0.326667,0.563042 -0.334258,0.571594 -0.02309,0.026 -0.07389,0.04727 -0.112941,0.04727 -0.02549,0 -0.140273,-0.0351 -0.368807,-0.11276 l -0.331813,-0.11276 -0.056568,0.04298 C 9.827601,10.567024 9.6152871,10.690534 9.4585823,10.755992 l -0.087558,0.03657 -0.068666,0.347626 c -0.076173,0.385626 -0.079623,0.395681 -0.1469922,0.428293 -0.036434,0.01764 -0.041382,0.01777 -0.6894136,0.01777 -0.6504717,-6e-6 -0.6528395,-6.8e-5 -0.6889944,-0.01796 z M 9.0323328,9.58064 C 9.3337732,9.2188487 9.5816626,8.9190938 9.583198,8.9145164 9.584991,8.9090714 9.468974,8.9061674 9.2503882,8.9061674 H 8.9147879 l -0.00218,-0.953294 -0.00221,-0.953293 -0.022285,-0.033672 c -0.043515,-0.06575 -0.042567,-0.065604 -0.4216013,-0.065604 -0.3790357,0 -0.3780867,-1.518e-4 -0.4216017,0.065604 l -0.022285,0.033672 -0.00221,0.953293 -0.00218,0.953294 h -0.334897 c -0.1841966,0 -0.3348463,0.00278 -0.3347775,0.00629 6.85e-5,0.00351 0.2509346,0.3071117 0.5574801,0.6747908 0.4196892,0.5033898 0.5599345,0.6663688 0.5677975,0.6598428 0.00575,-0.0047 0.2570756,-0.3046772 0.5585162,-0.6664688 z"
     id="path5" />
  <rect
     style="opacity:0.5;fill:none;fill-opacity:0.996424;stroke:url(#linearGradient9);stroke-width:0.50832;stroke-dasharray:none;stroke-opacity:1"
     id="rect1-2-6"
     width="8.9234324"
     height="12.035513"
     x="4.0584631"
     y="2.3962882"
     rx="1.5176033"
     ry="2.2109985" />
</svg>
