<?xml version="1.0" encoding="UTF-8" standalone="no"?>
<svg
   width="64"
   height="64"
   version="1.1"
   viewBox="0 0 16.933 16.933"
   id="svg7"
   sodipodi:docname="Template 4.svg"
   inkscape:version="1.3.2 (091e20ef0f, 2023-11-25)"
   xmlns:inkscape="http://www.inkscape.org/namespaces/inkscape"
   xmlns:sodipodi="http://sodipodi.sourceforge.net/DTD/sodipodi-0.dtd"
   xmlns:xlink="http://www.w3.org/1999/xlink"
   xmlns="http://www.w3.org/2000/svg"
   xmlns:svg="http://www.w3.org/2000/svg"
   xmlns:rdf="http://www.w3.org/1999/02/22-rdf-syntax-ns#"
   xmlns:cc="http://creativecommons.org/ns#"
   xmlns:dc="http://purl.org/dc/elements/1.1/">
  <sodipodi:namedview
     id="namedview7"
     pagecolor="#9c4444"
     bordercolor="#000000"
     borderopacity="0.25"
     inkscape:showpageshadow="2"
     inkscape:pageopacity="0.0"
     inkscape:pagecheckerboard="0"
     inkscape:deskcolor="#d1d1d1"
     inkscape:zoom="4.3531261"
     inkscape:cx="47.666894"
     inkscape:cy="16.999278"
     inkscape:window-width="1463"
     inkscape:window-height="604"
     inkscape:window-x="199"
     inkscape:window-y="276"
     inkscape:window-maximized="0"
     inkscape:current-layer="svg7"
     showgrid="false" />
  <defs
     id="defs2">
    <linearGradient
       id="linearGradient5"
       inkscape:collect="always">
      <stop
         style="stop-color:#392713;stop-opacity:1;"
         offset="0"
         id="stop2" />
      <stop
         style="stop-color:#eed59e;stop-opacity:1;"
         offset="0.5"
         id="stop3" />
      <stop
         style="stop-color:#beaa8a;stop-opacity:1;"
         offset="1"
         id="stop4" />
    </linearGradient>
    <linearGradient
       id="linearGradient8"
       inkscape:collect="always">
      <stop
         style="stop-color:#1a1a1a;stop-opacity:1;"
         offset="0"
         id="stop8" />
      <stop
         style="stop-color:#ffffff;stop-opacity:0;"
         offset="1"
         id="stop9" />
    </linearGradient>
    <linearGradient
       inkscape:collect="always"
       xlink:href="#linearGradient5"
       id="linearGradient41"
       x1="13.675659"
       y1="16.110115"
       x2="13.728528"
       y2="10.548769"
       gradientUnits="userSpaceOnUse"
       gradientTransform="matrix(1.6061171,0,0,2.1084059,-12.924569,-19.742698)" />
    <linearGradient
       inkscape:collect="always"
       xlink:href="#linearGradient42"
       id="linearGradient4"
       x1="11.885941"
       y1="16.50819"
       x2="12.026573"
       y2="10.244942"
       gradientUnits="userSpaceOnUse"
       gradientTransform="matrix(1.6061171,0,0,2.1084059,-12.924569,-19.742698)" />
    <linearGradient
       id="linearGradient42"
       inkscape:collect="always">
      <stop
         style="stop-color:#010101;stop-opacity:1;"
         offset="0"
         id="stop42" />
      <stop
         style="stop-color:#6e6c6d;stop-opacity:1;"
         offset="1"
         id="stop43" />
    </linearGradient>
    <linearGradient
       inkscape:collect="always"
       xlink:href="#linearGradient8"
       id="linearGradient9"
       x1="9.3404646"
       y1="4.1692023"
       x2="9.4279938"
       y2="16.46883"
       gradientUnits="userSpaceOnUse"
       gradientTransform="matrix(0.80952478,0,0,1.0980733,1.5663172,-0.59391329)" />
    <filter
       style="color-interpolation-filters:sRGB;"
       inkscape:label="Blur"
       id="filter2"
       x="-0.14510849"
       y="-0.14612901"
       width="1.290217"
       height="1.292258">
      <feGaussianBlur
         stdDeviation="0.6 0.6"
         result="blur"
         id="feGaussianBlur2" />
    </filter>
    <linearGradient
       inkscape:collect="always"
       xlink:href="#linearGradient5"
       id="linearGradient6"
       x1="9.0218811"
       y1="11.244957"
       x2="8.9623976"
       y2="5.2694631"
       gradientUnits="userSpaceOnUse" />
  </defs>
  <metadata
     id="metadata2">
    <rdf:RDF>
      <cc:Work
         rdf:about="">
        <dc:format>image/svg+xml</dc:format>
        <dc:type
           rdf:resource="http://purl.org/dc/dcmitype/StillImage" />
      </cc:Work>
    </rdf:RDF>
  </metadata>
  <rect
     style="fill:#000000;fill-opacity:0.996424;stroke:#000000;stroke-width:0.911802;stroke-dasharray:none;stroke-opacity:1;filter:url(#filter2)"
     id="rect1-2-3"
     width="13.065404"
     height="12.974159"
     x="1.9816793"
     y="1.9267306"
     rx="2.7149384"
     ry="2.8310909"
     transform="matrix(0.78494475,0,0,1.0304244,1.8310625,-0.25598506)" />
  <rect
     style="fill:url(#linearGradient4);fill-opacity:0.996424;stroke:url(#linearGradient41);stroke-width:0.820027;stroke-dasharray:none;stroke-opacity:1"
     id="rect1-2"
     width="10.25562"
     height="13.36889"
     x="3.3865712"
     y="1.7293652"
     rx="2.1310766"
     ry="2.9172251" />
  <path
     d="M 11.590645,9.4417616 C 11.462589,9.3154523 11.178829,9.2488048 10.746931,9.2432751 10.45444,9.2386214 10.102578,9.2653938 9.7323805,9.3174892 9.5667808,9.2217384 9.3959427,9.1178386 9.2617754,8.9924021 8.9008906,8.6556738 8.5999594,8.1879791 8.4122412,7.6740093 c 0.012223,-0.048021 0.022701,-0.090221 0.032305,-0.1332945 0,0 0.2031434,-1.1542485 0.1495925,-1.5442367 -0.00757,-0.053551 -0.011933,-0.069267 -0.026484,-0.1108847 l -0.017756,-0.04511 C 8.4948925,5.7130091 8.3863361,5.5779685 8.2163711,5.5855357 l -0.099534,-0.00466 h -0.00262 c -0.1894644,0 -0.3440045,0.096915 -0.3844585,0.2415598 -0.1231085,0.4543071 0.00378,1.1338761 0.2342837,2.0139687 l -0.05908,0.1431894 c -0.164726,0.402212 -0.3716522,0.807334 -0.5538407,1.1644351 l -0.023865,0.046566 C 7.1354639,9.5660342 6.9614244,9.8850096 6.8036832,10.1548 l -0.1629804,0.08615 c -0.011932,0.0064 -0.2913269,0.153958 -0.35681,0.19383 -0.5555876,0.33178 -0.9240388,0.708381 -0.9848654,1.007275 -0.019499,0.09517 -0.00495,0.217404 0.093713,0.273865 l 0.1577415,0.07945 c 0.068394,0.03434 0.1402793,0.05151 0.2142025,0.05151 0.3958088,0 0.8553546,-0.493015 1.4883578,-1.597787 0.7307912,-0.237776 1.5628629,-0.4356812 2.292199,-0.5448194 0.5555878,0.3131544 1.2392308,0.5302674 1.6705468,0.5302674 0.07654,0 0.142607,-0.0073 0.196449,-0.02154 0.08265,-0.02183 0.152212,-0.06898 0.194994,-0.133003 0.08353,-0.1260189 0.100408,-0.2994763 0.07771,-0.4770079 -0.0067,-0.052678 -0.04889,-0.1178699 -0.0943,-0.1623984 z M 5.6788317,11.547697 c 0.072177,-0.197322 0.3579742,-0.587601 0.7802673,-0.933643 0.026775,-0.02154 0.092258,-0.08295 0.1519208,-0.139697 -0.4415012,0.704598 -0.7374851,0.985448 -0.9321881,1.07334 z M 8.1808676,5.7860592 c 0.127183,0 0.1996507,0.3207216 0.2057625,0.6213617 C 8.3924501,6.708061 8.3223111,6.9190621 8.2350003,7.0753484 8.1628234,6.8439751 8.1278991,6.4798888 8.1278991,6.2415307 c 0,0 -0.00524,-0.4554715 0.052968,-0.4554715 z M 7.4346515,9.8919942 C 7.5231264,9.7333796 7.6153848,9.5660339 7.7096808,9.3885023 7.9393078,8.9542764 8.084244,8.6143464 8.1925094,8.3349519 c 0.2147845,0.3908616 0.4822462,0.7232243 0.7968561,0.9895225 0.03929,0.033178 0.080908,0.066647 0.1245634,0.099825 C 8.4742322,9.5509001 7.9212636,9.7048581 7.4346515,9.8919942 Z m 4.0331765,-0.035797 c -0.039,0.024156 -0.150757,0.038707 -0.222352,0.038707 -0.231955,0 -0.518335,-0.1059368 -0.920255,-0.2782304 0.154248,-0.011641 0.295983,-0.017465 0.422875,-0.017465 0.232246,0 0.301222,0 0.528521,0.057043 0.227299,0.057916 0.229919,0.1754946 0.191211,0.1999417 z"
     style="clip-rule:evenodd;fill:#000000;fill-opacity:1;fill-rule:nonzero;stroke-width:0.291036;stroke-linejoin:round;stroke-miterlimit:2;opacity:0.3"
     id="path5-5" />
  <path
     d="M 11.590645,8.9126054 C 11.462589,8.7862961 11.178829,8.7196486 10.746931,8.7141189 10.45444,8.7094652 10.102578,8.7362376 9.7323805,8.788333 9.5667808,8.6925822 9.3959427,8.5886824 9.2617754,8.4632459 8.9008906,8.1265176 8.5999594,7.6588229 8.4122412,7.1448531 c 0.012223,-0.048021 0.022701,-0.090221 0.032305,-0.1332945 0,0 0.2031434,-1.1542485 0.1495925,-1.5442367 -0.00757,-0.053551 -0.011933,-0.069267 -0.026484,-0.1108847 l -0.017756,-0.04511 C 8.4948925,5.1838529 8.3863361,5.0488123 8.2163711,5.0563795 l -0.099534,-0.00466 h -0.00262 c -0.1894644,0 -0.3440045,0.096915 -0.3844585,0.2415598 -0.1231085,0.4543071 0.00378,1.1338761 0.2342837,2.0139687 l -0.05908,0.1431894 c -0.164726,0.402212 -0.3716522,0.807334 -0.5538407,1.1644351 l -0.023865,0.046566 C 7.1354639,9.036878 6.9614244,9.3558534 6.8036832,9.6256437 l -0.1629804,0.086147 c -0.011932,0.0064 -0.2913269,0.153958 -0.35681,0.1938296 -0.5555876,0.3317807 -0.9240388,0.7083817 -0.9848654,1.0072757 -0.019499,0.09517 -0.00495,0.217404 0.093713,0.273865 l 0.1577415,0.07945 c 0.068394,0.03434 0.1402793,0.05151 0.2142025,0.05151 0.3958088,0 0.8553546,-0.493015 1.4883578,-1.5977876 0.7307912,-0.2377761 1.5628629,-0.4356808 2.292199,-0.544819 0.5555878,0.3131547 1.2392308,0.5302675 1.6705468,0.5302675 0.07654,0 0.142607,-0.00728 0.196449,-0.021537 0.08265,-0.021828 0.152212,-0.068975 0.194994,-0.1330031 0.08353,-0.1260189 0.100408,-0.2994763 0.07771,-0.4770079 -0.0067,-0.052678 -0.04889,-0.1178699 -0.0943,-0.1623984 z M 5.6788317,11.018541 C 5.7510087,10.821219 6.0368059,10.43094 6.459099,10.084898 6.485874,10.063358 6.551357,10.001948 6.6110198,9.9452009 6.1695186,10.649799 5.8735347,10.930649 5.6788317,11.018541 Z M 8.1808676,5.256903 c 0.127183,0 0.1996507,0.3207216 0.2057625,0.6213617 0.00582,0.3006401 -0.064319,0.5116412 -0.1516298,0.6679275 C 8.1628234,6.3148189 8.1278991,5.9507326 8.1278991,5.7123745 c 0,0 -0.00524,-0.4554715 0.052968,-0.4554715 z M 7.4346515,9.362838 C 7.5231264,9.2042234 7.6153848,9.0368777 7.7096808,8.8593461 7.9393078,8.4251202 8.084244,8.0851902 8.1925094,7.8057957 8.4072939,8.1966573 8.6747556,8.52902 8.9893655,8.7953182 c 0.03929,0.033178 0.080908,0.066647 0.1245634,0.099825 C 8.4742322,9.0217439 7.9212636,9.1757019 7.4346515,9.362838 Z M 11.467828,9.327041 c -0.039,0.024156 -0.150757,0.038707 -0.222352,0.038707 -0.231955,0 -0.518335,-0.1059368 -0.920255,-0.2782304 0.154248,-0.011641 0.295983,-0.017465 0.422875,-0.017465 0.232246,0 0.301222,0 0.528521,0.057043 0.227299,0.057916 0.229919,0.1754946 0.191211,0.1999417 z"
     style="clip-rule:evenodd;fill:url(#linearGradient6);fill-opacity:1;fill-rule:nonzero;stroke-width:0.291036;stroke-linejoin:round;stroke-miterlimit:2"
     id="path5" />
  <rect
     style="opacity:0.5;fill:none;fill-opacity:0.996424;stroke:url(#linearGradient9);stroke-width:0.50832;stroke-dasharray:none;stroke-opacity:1"
     id="rect1-2-6"
     width="8.9234324"
     height="12.035513"
     x="4.0584631"
     y="2.3962882"
     rx="1.5176033"
     ry="2.2109985" />
</svg>
