<?xml version="1.0" encoding="UTF-8" standalone="no"?>
<svg
   width="64"
   height="64"
   version="1.1"
   viewBox="0 0 16.933 16.933"
   id="svg7"
   sodipodi:docname="application-java.svg"
   inkscape:version="1.3.2 (091e20ef0f, 2023-11-25)"
   xmlns:inkscape="http://www.inkscape.org/namespaces/inkscape"
   xmlns:sodipodi="http://sodipodi.sourceforge.net/DTD/sodipodi-0.dtd"
   xmlns:xlink="http://www.w3.org/1999/xlink"
   xmlns="http://www.w3.org/2000/svg"
   xmlns:svg="http://www.w3.org/2000/svg"
   xmlns:rdf="http://www.w3.org/1999/02/22-rdf-syntax-ns#"
   xmlns:cc="http://creativecommons.org/ns#"
   xmlns:dc="http://purl.org/dc/elements/1.1/">
  <sodipodi:namedview
     id="namedview7"
     pagecolor="#9c4444"
     bordercolor="#000000"
     borderopacity="0.25"
     inkscape:showpageshadow="2"
     inkscape:pageopacity="0.0"
     inkscape:pagecheckerboard="0"
     inkscape:deskcolor="#d1d1d1"
     inkscape:zoom="4.3531261"
     inkscape:cx="47.666894"
     inkscape:cy="16.999278"
     inkscape:window-width="1463"
     inkscape:window-height="604"
     inkscape:window-x="199"
     inkscape:window-y="276"
     inkscape:window-maximized="0"
     inkscape:current-layer="svg7"
     showgrid="false" />
  <defs
     id="defs2">
    <linearGradient
       id="linearGradient5"
       inkscape:collect="always">
      <stop
         style="stop-color:#392713;stop-opacity:1;"
         offset="0"
         id="stop2" />
      <stop
         style="stop-color:#eed59e;stop-opacity:1;"
         offset="0.5"
         id="stop3" />
      <stop
         style="stop-color:#beaa8a;stop-opacity:1;"
         offset="1"
         id="stop4" />
    </linearGradient>
    <linearGradient
       id="linearGradient8"
       inkscape:collect="always">
      <stop
         style="stop-color:#1a1a1a;stop-opacity:1;"
         offset="0"
         id="stop8" />
      <stop
         style="stop-color:#ffffff;stop-opacity:0;"
         offset="1"
         id="stop9" />
    </linearGradient>
    <linearGradient
       inkscape:collect="always"
       xlink:href="#linearGradient5"
       id="linearGradient41"
       x1="13.675659"
       y1="16.110115"
       x2="13.728528"
       y2="10.548769"
       gradientUnits="userSpaceOnUse"
       gradientTransform="matrix(1.6061171,0,0,2.1084059,-12.924569,-19.742698)" />
    <linearGradient
       inkscape:collect="always"
       xlink:href="#linearGradient42"
       id="linearGradient4"
       x1="11.885941"
       y1="16.50819"
       x2="12.026573"
       y2="10.244942"
       gradientUnits="userSpaceOnUse"
       gradientTransform="matrix(1.6061171,0,0,2.1084059,-12.924569,-19.742698)" />
    <linearGradient
       id="linearGradient42"
       inkscape:collect="always">
      <stop
         style="stop-color:#010101;stop-opacity:1;"
         offset="0"
         id="stop42" />
      <stop
         style="stop-color:#6e6c6d;stop-opacity:1;"
         offset="1"
         id="stop43" />
    </linearGradient>
    <linearGradient
       inkscape:collect="always"
       xlink:href="#linearGradient8"
       id="linearGradient9"
       x1="9.3404646"
       y1="4.1692023"
       x2="9.4279938"
       y2="16.46883"
       gradientUnits="userSpaceOnUse"
       gradientTransform="matrix(0.80952478,0,0,1.0980733,1.5663172,-0.59391329)" />
    <filter
       style="color-interpolation-filters:sRGB;"
       inkscape:label="Blur"
       id="filter2"
       x="-0.14510849"
       y="-0.14612901"
       width="1.290217"
       height="1.292258">
      <feGaussianBlur
         stdDeviation="0.6 0.6"
         result="blur"
         id="feGaussianBlur2" />
    </filter>
    <linearGradient
       inkscape:collect="always"
       xlink:href="#linearGradient5"
       id="linearGradient28"
       x1="9.230442"
       y1="11.176872"
       x2="9.2953014"
       y2="5.7080269"
       gradientUnits="userSpaceOnUse" />
  </defs>
  <metadata
     id="metadata2">
    <rdf:RDF>
      <cc:Work
         rdf:about="">
        <dc:format>image/svg+xml</dc:format>
        <dc:type
           rdf:resource="http://purl.org/dc/dcmitype/StillImage" />
      </cc:Work>
    </rdf:RDF>
  </metadata>
  <rect
     style="fill:#000000;fill-opacity:0.996424;stroke:#000000;stroke-width:0.911802;stroke-dasharray:none;stroke-opacity:1;filter:url(#filter2)"
     id="rect1-2-3"
     width="13.065404"
     height="12.974159"
     x="1.9816793"
     y="1.9267306"
     rx="2.7149384"
     ry="2.8310909"
     transform="matrix(0.78494475,0,0,1.0304244,1.8310625,-0.25598506)" />
  <rect
     style="fill:url(#linearGradient4);fill-opacity:0.996424;stroke:url(#linearGradient41);stroke-width:0.820027;stroke-dasharray:none;stroke-opacity:1"
     id="rect1-2"
     width="10.25562"
     height="13.36889"
     x="3.3865712"
     y="1.7293652"
     rx="2.1310766"
     ry="2.9172251" />
  <path
     style="fill:#000000;fill-opacity:1;stroke:none;stroke-width:0.23812;stroke-dasharray:none;stroke-opacity:0.3;opacity:0.3"
     d="m 8.2973352,6.1766754 c -0.098607,0 -0.1971829,0.038189 -0.2727409,0.1137678 -0.1511156,0.1511114 -0.1511156,0.3943423 0,0.5454815 l 1.0713745,1.071374 h -2.79371 c -0.213708,0 -0.3857547,0.172047 -0.3857547,0.385754 0,0.2137093 0.1720467,0.3857553 0.3857547,0.3857553 0.4921465,-0.0012 0.8767772,-3.44e-4 1.5158969,0 l -1.9762409,1.97549 c -0.1511159,0.151115 -0.1511159,0.394343 0,0.545481 0.1511156,0.151115 0.3951347,0.151115 0.5462347,0 0.353768,-0.355681 0.6348873,-0.63535 1.0924701,-1.092469 A 1.9287746,1.9287745 0 0 0 9.3882985,11.76485 1.9287746,1.9287745 0 0 0 11.317075,9.8360746 1.9287746,1.9287745 0 0 0 10.751251,8.473123 l 8.2e-4,-7.67e-4 c 0,0 -1.4753787,-1.4715589 -2.181929,-2.1819269 C 8.4946885,6.2148521 8.3960011,6.1766619 8.2974019,6.1766619 Z M 9.3882985,8.678808 A 1.1572647,1.1572647 0 0 1 10.545565,9.8360746 1.1572647,1.1572647 0 0 1 9.3882985,10.99334 1.1572647,1.1572647 0 0 1 8.2310335,9.8360746 1.1572647,1.1572647 0 0 1 9.3882985,8.678808 Z m 0,0.3857553 A 0.7715098,0.77150975 0 0 0 8.6167887,9.8360746 0.7715098,0.77150975 0 0 0 9.3882985,10.607585 0.7715098,0.77150975 0 0 0 10.15981,9.8360746 0.7715098,0.77150975 0 0 0 9.3882985,9.0645633 Z"
     id="path14-6" />
  <path
     style="fill:url(#linearGradient28);fill-opacity:1;stroke:none;stroke-width:0.23812;stroke-dasharray:none;stroke-opacity:0.3"
     d="m 8.2973352,5.6475192 c -0.098607,0 -0.1971829,0.038189 -0.2727409,0.1137678 -0.1511156,0.1511114 -0.1511156,0.3943423 0,0.5454815 l 1.0713745,1.071374 h -2.79371 c -0.213708,0 -0.3857547,0.172047 -0.3857547,0.385754 0,0.2137093 0.1720467,0.3857553 0.3857547,0.3857553 0.4921465,-0.0012 0.8767772,-3.44e-4 1.5158969,0 L 5.8419148,10.125142 c -0.1511159,0.151115 -0.1511159,0.394343 0,0.545481 0.1511156,0.151115 0.3951347,0.151115 0.5462347,0 0.353768,-0.355681 0.6348873,-0.63535 1.0924701,-1.0924692 A 1.9287746,1.9287745 0 0 0 9.3882985,11.235694 1.9287746,1.9287745 0 0 0 11.317075,9.3069184 1.9287746,1.9287745 0 0 0 10.751251,7.9439668 l 8.2e-4,-7.67e-4 c 0,0 -1.4753787,-1.4715589 -2.181929,-2.1819269 C 8.4946885,5.6856959 8.3960011,5.6475057 8.2974019,5.6475057 Z M 9.3882985,8.1496518 A 1.1572647,1.1572647 0 0 1 10.545565,9.3069184 1.1572647,1.1572647 0 0 1 9.3882985,10.464184 1.1572647,1.1572647 0 0 1 8.2310335,9.3069184 1.1572647,1.1572647 0 0 1 9.3882985,8.1496518 Z m 0,0.3857553 A 0.7715098,0.77150975 0 0 0 8.6167887,9.3069184 0.7715098,0.77150975 0 0 0 9.3882985,10.078429 0.7715098,0.77150975 0 0 0 10.15981,9.3069184 0.7715098,0.77150975 0 0 0 9.3882985,8.5354071 Z"
     id="path14" />
  <g
     id="g21" />
  <rect
     style="opacity:0.5;fill:none;fill-opacity:0.996424;stroke:url(#linearGradient9);stroke-width:0.50832;stroke-dasharray:none;stroke-opacity:1"
     id="rect1-2-6"
     width="8.9234324"
     height="12.035513"
     x="4.0584631"
     y="2.3962882"
     rx="1.5176033"
     ry="2.2109985" />
</svg>
