<?xml version="1.0" encoding="UTF-8" standalone="no"?>
<svg
   width="64"
   height="64"
   version="1.1"
   viewBox="0 0 16.933 16.933"
   id="svg7"
   sodipodi:docname="text-x-subviewer.svg"
   inkscape:version="1.3.2 (091e20ef0f, 2023-11-25)"
   xmlns:inkscape="http://www.inkscape.org/namespaces/inkscape"
   xmlns:sodipodi="http://sodipodi.sourceforge.net/DTD/sodipodi-0.dtd"
   xmlns:xlink="http://www.w3.org/1999/xlink"
   xmlns="http://www.w3.org/2000/svg"
   xmlns:svg="http://www.w3.org/2000/svg"
   xmlns:rdf="http://www.w3.org/1999/02/22-rdf-syntax-ns#"
   xmlns:cc="http://creativecommons.org/ns#"
   xmlns:dc="http://purl.org/dc/elements/1.1/">
  <sodipodi:namedview
     id="namedview7"
     pagecolor="#9c4444"
     bordercolor="#000000"
     borderopacity="0.25"
     inkscape:showpageshadow="2"
     inkscape:pageopacity="0.0"
     inkscape:pagecheckerboard="0"
     inkscape:deskcolor="#d1d1d1"
     inkscape:zoom="6.15625"
     inkscape:cx="33.218274"
     inkscape:cy="36.71066"
     inkscape:window-width="1463"
     inkscape:window-height="664"
     inkscape:window-x="167"
     inkscape:window-y="273"
     inkscape:window-maximized="0"
     inkscape:current-layer="svg7"
     showgrid="false" />
  <defs
     id="defs2">
    <linearGradient
       id="linearGradient5"
       inkscape:collect="always">
      <stop
         style="stop-color:#392713;stop-opacity:1;"
         offset="0"
         id="stop2" />
      <stop
         style="stop-color:#eed59e;stop-opacity:1;"
         offset="0.5"
         id="stop3" />
      <stop
         style="stop-color:#beaa8a;stop-opacity:1;"
         offset="1"
         id="stop4" />
    </linearGradient>
    <linearGradient
       id="linearGradient8"
       inkscape:collect="always">
      <stop
         style="stop-color:#1a1a1a;stop-opacity:1;"
         offset="0"
         id="stop8" />
      <stop
         style="stop-color:#ffffff;stop-opacity:0;"
         offset="1"
         id="stop9" />
    </linearGradient>
    <linearGradient
       inkscape:collect="always"
       xlink:href="#linearGradient5"
       id="linearGradient41"
       x1="13.675659"
       y1="16.110115"
       x2="13.728528"
       y2="10.548769"
       gradientUnits="userSpaceOnUse"
       gradientTransform="matrix(1.6061171,0,0,2.1084059,-12.924569,-19.742698)" />
    <linearGradient
       inkscape:collect="always"
       xlink:href="#linearGradient42"
       id="linearGradient4"
       x1="11.885941"
       y1="16.50819"
       x2="12.026573"
       y2="10.244942"
       gradientUnits="userSpaceOnUse"
       gradientTransform="matrix(1.6061171,0,0,2.1084059,-12.924569,-19.742698)" />
    <linearGradient
       id="linearGradient42"
       inkscape:collect="always">
      <stop
         style="stop-color:#010101;stop-opacity:1;"
         offset="0"
         id="stop42" />
      <stop
         style="stop-color:#6e6c6d;stop-opacity:1;"
         offset="1"
         id="stop43" />
    </linearGradient>
    <linearGradient
       inkscape:collect="always"
       xlink:href="#linearGradient8"
       id="linearGradient9"
       x1="9.3404646"
       y1="4.1692023"
       x2="9.4279938"
       y2="16.46883"
       gradientUnits="userSpaceOnUse"
       gradientTransform="matrix(0.80952478,0,0,1.0980733,1.5663172,-0.59391329)" />
    <filter
       style="color-interpolation-filters:sRGB;"
       inkscape:label="Blur"
       id="filter2"
       x="-0.14510849"
       y="-0.14612901"
       width="1.290217"
       height="1.292258">
      <feGaussianBlur
         stdDeviation="0.6 0.6"
         result="blur"
         id="feGaussianBlur2" />
    </filter>
    <clipPath
       clipPathUnits="userSpaceOnUse"
       id="clipPath354">
      <rect
         style="display:block;opacity:0.2"
         width="36"
         height="36"
         x="15.620633"
         y="15.638589"
         rx="2.7690001"
         ry="2.7690001"
         id="rect356" />
    </clipPath>
    <inkscape:path-effect
       effect="powerclip"
       id="path-effect358"
       is_visible="true"
       lpeversion="1"
       inverse="true"
       flatten="false"
       hide_clip="false"
       message="Use fill-rule evenodd on &lt;b&gt;fill and stroke&lt;/b&gt; dialog if no flatten result after convert clip to paths." />
    <clipPath
       clipPathUnits="userSpaceOnUse"
       id="clipPath186">
      <rect
         style="display:block;opacity:0.2"
         width="36"
         height="36"
         x="5.391973"
         y="5.6022935"
         rx="2.7690001"
         ry="2.7690001"
         id="rect188" />
    </clipPath>
    <inkscape:path-effect
       effect="powerclip"
       id="path-effect190"
       is_visible="true"
       lpeversion="1"
       inverse="true"
       flatten="false"
       hide_clip="false"
       message="Use fill-rule evenodd on &lt;b&gt;fill and stroke&lt;/b&gt; dialog if no flatten result after convert clip to paths." />
    <clipPath
       clipPathUnits="userSpaceOnUse"
       id="clipPath354-9">
      <rect
         style="display:none;opacity:0.2"
         width="36"
         height="36"
         x="15.620633"
         y="15.638589"
         rx="2.7690001"
         ry="2.7690001"
         id="rect356-7"
         d="m 18.389633,15.638589 h 30.462 c 1.534026,0 2.769,1.234974 2.769,2.769 v 30.462 c 0,1.534026 -1.234974,2.769 -2.769,2.769 h -30.462 c -1.534026,0 -2.769,-1.234974 -2.769,-2.769 v -30.462 c 0,-1.534026 1.234974,-2.769 2.769,-2.769 z" />
      <path
         id="lpe_path-effect358-3"
         style="opacity:0.2"
         class="powerclip"
         d="M 19,19 H 65 V 65 H 19 Z m -0.610367,-3.361411 c -1.534026,0 -2.769,1.234974 -2.769,2.769 v 30.462 c 0,1.534026 1.234974,2.769 2.769,2.769 h 30.462 c 1.534026,0 2.769,-1.234974 2.769,-2.769 v -30.462 c 0,-1.534026 -1.234974,-2.769 -2.769,-2.769 z" />
    </clipPath>
    <inkscape:path-effect
       effect="powerclip"
       id="path-effect358-6"
       is_visible="true"
       lpeversion="1"
       inverse="true"
       flatten="false"
       hide_clip="false"
       message="Use fill-rule evenodd on &lt;b&gt;fill and stroke&lt;/b&gt; dialog if no flatten result after convert clip to paths." />
    <clipPath
       clipPathUnits="userSpaceOnUse"
       id="clipPath186-3">
      <rect
         style="display:none;opacity:0.2"
         width="36"
         height="36"
         x="5.391973"
         y="5.6022935"
         rx="2.7690001"
         ry="2.7690001"
         id="rect188-1"
         d="M 8.1609731,5.6022935 H 38.622973 c 1.534026,0 2.769,1.234974 2.769,2.769 V 38.833293 c 0,1.534026 -1.234974,2.769 -2.769,2.769 H 8.1609731 c -1.5340261,0 -2.7690001,-1.234974 -2.7690001,-2.769 V 8.3712935 c 0,-1.534026 1.234974,-2.769 2.7690001,-2.769 z" />
      <path
         id="lpe_path-effect190-9"
         style="opacity:0.2"
         class="powerclip"
         d="M 9,9 H 55 V 55 H 9 Z M 8.1609731,5.6022935 c -1.5340261,0 -2.7690001,1.234974 -2.7690001,2.769 V 38.833293 c 0,1.534026 1.234974,2.769 2.7690001,2.769 H 38.622973 c 1.534026,0 2.769,-1.234974 2.769,-2.769 V 8.3712935 c 0,-1.534026 -1.234974,-2.769 -2.769,-2.769 z" />
    </clipPath>
    <inkscape:path-effect
       effect="powerclip"
       id="path-effect190-4"
       is_visible="true"
       lpeversion="1"
       inverse="true"
       flatten="false"
       hide_clip="false"
       message="Use fill-rule evenodd on &lt;b&gt;fill and stroke&lt;/b&gt; dialog if no flatten result after convert clip to paths." />
    <clipPath
       clipPathUnits="userSpaceOnUse"
       id="clipath_lpe_path-effect358-6">
      <rect
         style="display:block;opacity:0.2"
         width="36"
         height="36"
         x="15.620633"
         y="15.638589"
         rx="2.7690001"
         ry="2.7690001"
         id="rect22" />
    </clipPath>
    <clipPath
       clipPathUnits="userSpaceOnUse"
       id="clipath_lpe_path-effect190-4">
      <rect
         style="display:block;opacity:0.2"
         width="36"
         height="36"
         x="5.391973"
         y="5.6022935"
         rx="2.7690001"
         ry="2.7690001"
         id="rect23" />
    </clipPath>
    <linearGradient
       inkscape:collect="always"
       xlink:href="#linearGradient5"
       id="linearGradient67"
       x1="8.6508293"
       y1="11.895312"
       x2="8.6013298"
       y2="4.9900703"
       gradientUnits="userSpaceOnUse" />
  </defs>
  <metadata
     id="metadata2">
    <rdf:RDF>
      <cc:Work
         rdf:about="">
        <dc:format>image/svg+xml</dc:format>
        <dc:type
           rdf:resource="http://purl.org/dc/dcmitype/StillImage" />
      </cc:Work>
    </rdf:RDF>
  </metadata>
  <rect
     style="fill:#000000;fill-opacity:0.996424;stroke:#000000;stroke-width:0.911802;stroke-dasharray:none;stroke-opacity:1;filter:url(#filter2)"
     id="rect1-2-3"
     width="13.065404"
     height="12.974159"
     x="1.9816793"
     y="1.9267306"
     rx="2.7149384"
     ry="2.8310909"
     transform="matrix(0.78494475,0,0,1.0304244,1.8310625,-0.25598506)" />
  <rect
     style="fill:url(#linearGradient4);fill-opacity:0.996424;stroke:url(#linearGradient41);stroke-width:0.820027;stroke-dasharray:none;stroke-opacity:1"
     id="rect1-2"
     width="10.25562"
     height="13.36889"
     x="3.3865712"
     y="1.7293652"
     rx="2.1310766"
     ry="2.9172251" />
  <path
     fill="#ffffff"
     d="m 7.187105,5.4782894 a 0.8424,0.8424 0 0 0 -0.4131,0.12555 0.891,0.891 0 0 0 -0.23247,0.19359 1.6686,1.6686 0 0 0 -0.91611,-0.31671 1.701,1.701 0 0 0 -0.52245,0.05022 l -0.10368,0.02997 0.03078,0.1053 c 0,0 0.11016,0.34668 0.32643,0.68121 0.10773,0.16767 0.243,0.33534 0.4131,0.4536 0.162,0.11502 0.35964,0.18063 0.57834,0.15228 a 7.047,7.047 0 0 0 0.2754,1.29114 q -0.0891,0.22437 -0.18306,0.49167 c -0.20817,0.6018302 -0.405,1.3041006 -0.31347,1.7860496 0.07938,0.417149 0.24381,0.758159 0.52245,1.010879 -0.0486,0.21303 -0.05022,0.39771 0.0081,0.55242 a 0.5832,0.5832 0 0 0 0.35883,0.34182 c 0.33129,0.12069 0.82134,0.04941 1.44909,-0.15552 0.62856,0.20574 1.11942,0.2754 1.45071,0.15552 a 0.5832,0.5832 0 0 0 0.36045,-0.34182 c 0.05751,-0.1539 0.05508,-0.33858 0.0065,-0.5508 0.27945,-0.25353 0.44469,-0.59454 0.52407,-1.012499 0.09153,-0.481949 -0.1053,-1.1842194 -0.31347,-1.7860496 a 12.15,12.15 0 0 0 -0.18306,-0.49167 7.047,7.047 0 0 0 0.2754,-1.29114 0.81,0.81 0 0 0 0.57834,-0.15147 c 0.16929,-0.11988 0.30294,-0.28674 0.41148,-0.45441 0.21546,-0.33453 0.32562,-0.68202 0.32562,-0.68202 l 0.0324,-0.10449 -0.10368,-0.02997 c 0,0 -0.21708,-0.0648 -0.52164,-0.05022 -0.2673,0.01215 -0.60345,0.08667 -0.91692,0.3159 a 0.891,0.891 0 0 0 -0.23166,-0.19278 0.8424,0.8424 0 0 0 -0.4131,-0.12474 c -0.23166,0 -0.40338,0.0486 -0.58725,0.09315 -0.18387,0.04455 -0.38232,0.0891 -0.69255,0.0891 -0.31023,0 -0.50949,-0.04455 -0.69336,-0.0891 -0.18387,-0.04455 -0.35559,-0.09315 -0.58644,-0.09315 z m -1.56654,0.2106 c 0.22194,0.00405 0.51597,0.06966 0.81,0.29565 -0.0891,0.21708 -0.1134,0.48195 -0.09963,0.75735 a 0.5832,0.5832 0 0 1 -0.43821,-0.11583 1.458,1.458 0 0 1 -0.35721,-0.39447 c -0.15957,-0.24624 -0.2106,-0.41796 -0.243,-0.50868 a 1.377,1.377 0 0 1 0.32805,-0.03402 m 5.69268,0 a 1.377,1.377 0 0 1 0.32724,0.03402 c -0.0324,0.09072 -0.08505,0.26244 -0.24381,0.50868 a 1.458,1.458 0 0 1 -0.3564,0.39447 0.5832,0.5832 0 0 1 -0.4374,0.11583 c 0.01296,-0.2754 -0.0097,-0.54027 -0.09963,-0.75735 0.29403,-0.2268 0.58806,-0.2916 0.81,-0.29565 m -4.12614,0.00162 c 0.20088,0 0.3483,0.04293 0.53622,0.0891 a 2.916,2.916 0 0 0 0.74358,0.09315 c 0.33048,0 0.55566,-0.04698 0.74358,-0.09315 0.18792,-0.04617 0.33453,-0.0891 0.53622,-0.0891 0.07938,0 0.20007,0.03483 0.30537,0.0972 0.1053,0.06156 0.19602,0.14985 0.23895,0.23895 0.1458,0.30456 0.1053,0.8829 0.01134,1.37295 a 7.29,7.29 0 0 1 -0.12231,0.52407 c -0.06723,-0.15714 -0.12312,-0.28188 -0.12312,-0.28188 a 0.1053,0.1053 0 0 0 -0.10287,-0.06399 0.10692,0.10692 0 0 0 -0.08991,0.1539 c 0,0 0.0972,0.21708 0.22032,0.52326 l -0.01215,0.03807 0.0324,0.01053 c 0.05913,0.15228 0.12231,0.31752 0.1863,0.5021999 0.20331,0.5896802 0.37827,1.2951907 0.30537,1.6766997 -0.11016,0.579959 -0.35073,0.945269 -0.88938,1.158299 a 0.729,0.729 0 0 1 -0.2916,0.01782 3.24,3.24 0 0 1 -0.40905,-0.07776 c -0.2349,-0.05913 -0.38151,-0.11421 -0.43335,-0.13284 V 10.09043 c 0.08505,-0.0324 0.39852,-0.3094201 0.69903,-0.7954203 -0.01296,0.05022 -0.0243,0.1101598 -0.03807,0.1490399 a 0.486,0.486 0 0 1 -0.04212,0.0891 l -0.00567,0.00648 a 0.10692,0.10692 0 0 0 0.0486,0.2073603 0.1944,0.1944 0 0 0 0.13365,-0.09315 0.648,0.648 0 0 0 0.06642,-0.1377 c 0.03807,-0.10206 0.06642,-0.22518 0.09072,-0.3483002 0.04698,-0.24219 0.07209,-0.47304 0.0729,-0.4779 l 0.00162,-0.00405 a 0.10705262,0.10705262 0 0 0 -0.21222,-0.02835 C 9.233165,9.6182 8.557625,9.8855002 8.466905,9.9179002 8.374565,9.8855002 7.700645,9.6182 7.545935,8.6575398 a 0.10694838,0.10694838 0 0 0 -0.21222,0.02673 l 0.00162,0.00567 h -0.00162 q 8.1e-4,0.00162 0.00162,0.00162 c 8.1e-4,0.0081 0.02187,0.2308501 0.06723,0.4673701 0.02268,0.1198802 0.05184,0.2413802 0.0891,0.3418202 a 0.567,0.567 0 0 0 0.0648,0.1344601 c 0.02673,0.03969 0.0648,0.08262 0.13203,0.09315 a 0.10692,0.10692 0 0 0 0.04779,-0.2081703 c -0.00162,-8.1e-4 -0.00162,0 -0.00486,-0.00567 a 0.405,0.405 0 0 1 -0.0405,-0.08667 c -0.01458,-0.03726 -0.0243,-0.09558 -0.03726,-0.1441801 0.2997,0.4932903 0.61884,0.7711202 0.70551,0.8059502 v 1.358368 c -0.05184,0.01863 -0.19845,0.07452 -0.43173,0.13284 a 3.24,3.24 0 0 1 -0.40986,0.07776 0.729,0.729 0 0 1 -0.2916,-0.01782 c -0.53784,-0.21303 -0.77841,-0.57834 -0.88857,-1.158299 -0.0729,-0.381509 0.10206,-1.0870193 0.30537,-1.6766995 q 0.0972,-0.2753999 0.18711,-0.5022 l 0.03078,-0.01053 -0.01134,-0.03807 c 0.12312,-0.30618 0.22032,-0.52326 0.22032,-0.52326 a 0.10692,0.10692 0 0 0 -0.09315,-0.1539 0.1053,0.1053 0 0 0 -0.09963,0.06399 c 0,0 -0.0567,0.12474 -0.12312,0.28188 a 7.29,7.29 0 0 1 -0.1215,-0.52407 c -0.09477,-0.49005 -0.13527,-1.06839 0.01053,-1.3729499 a 0.6075,0.6075 0 0 1 0.23895,-0.23895 0.648,0.648 0 0 1 0.30537,-0.0972 m 0.33939,0.8181 c -0.10206,0.00486 -0.2106,0.02835 -0.31914,0.07533 l -0.0162,0.00486 h 0.00324 l -0.0081,0.00243 a 0.1053,0.1053 0 0 0 -0.06156,0.09639 c 0,0.07614 0.01053,0.22113 0.06723,0.36693 0.0567,0.1458 0.17253,0.30375 0.3726,0.33372 a 0.3888,0.3888 0 0 0 0.29646,-0.08343 0.729,0.729 0 0 0 0.17253,-0.21708 c 0.07614,-0.1385101 0.10206,-0.25191 0.10935,-0.27783 l 0.0162,-0.05427 -0.00729,-0.0405 -0.01053,-0.02268 -0.00972,-0.01458 c -0.01215,-0.01458 -0.02187,-0.02106 -0.0324,-0.02835 a 0.81,0.81 0 0 0 -0.06561,-0.03807 1.053,1.053 0 0 0 -0.50706,-0.10287 m 1.88082,0 a 1.053,1.053 0 0 0 -0.50706,0.10287 0.81,0.81 0 0 0 -0.06642,0.03807 c -0.00972,0.00729 -0.01944,0.01377 -0.03159,0.02835 l -0.00972,0.01458 -0.01053,0.02187 -0.00648,0.0405 0.0162,0.05508 c 0.00567,0.02592 0.0324,0.1393199 0.10854,0.27783 a 0.729,0.729 0 0 0 0.17253,0.21708 0.3807,0.3807 0 0 0 0.29403,0.08343 c 0.20007,-0.02997 0.31914,-0.18792 0.37503,-0.33372 0.0567,-0.1458 0.06642,-0.29079 0.06642,-0.36693 a 0.1053,0.1053 0 0 0 -0.06156,-0.0972 0.891,0.891 0 0 0 -0.3402,-0.08181 z m -1.72773,0.22275 q 0.04941,0.00243 0.09396,0.01377 a 0.81,0.81 0 0 1 0.14742,0.05184 c -0.01296,0.04455 -0.0243,0.0972 -0.07452,0.18792 a 0.486,0.486 0 0 1 -0.11826,0.15228 c -0.04293,0.03402 -0.07857,0.04698 -0.1296,0.03888 -0.10935,-0.0162 -0.16686,-0.09072 -0.20736,-0.19764 -0.02916,-0.0729 -0.03078,-0.1377 -0.03645,-0.20088 0.11097,-0.03402 0.22437,-0.05184 0.324,-0.04617 z m 1.57464,0 c 0.09963,-0.00567 0.21384,0.01215 0.32481,0.04617 -0.00567,0.06318 -0.0081,0.1271699 -0.03645,0.2008799 -0.0405,0.10692 -0.09801,0.1814401 -0.20736,0.19764 -0.05103,0.0081 -0.08667,-0.00486 -0.1296,-0.03888 A 0.486,0.486 0 0 1 9.086555,6.9848895 c -0.0486,-0.08991 -0.06075,-0.14337 -0.07371,-0.18792 a 0.81,0.81 0 0 1 0.14661,-0.05184 0.81,0.81 0 0 1 0.09477,-0.01377 m -0.78813,4.9094085 c 0.0486,0.01701 0.23814,0.08424 0.48843,0.14742 0.14175,0.03564 0.29565,0.06723 0.43902,0.08181 0.14337,0.01458 0.27783,0.0162 0.39285,-0.02997 a 1.62,1.62 0 0 0 0.3078,-0.16119 0.648,0.648 0 0 1 -0.0162,0.33048 0.3564,0.3564 0 0 1 -0.2349,0.2187 c -0.24705,0.08991 -0.7128,0.0486 -1.34298,-0.162 l -0.0324,-0.01053 -0.03564,0.01134 c -0.63018,0.20979 -1.09593,0.2511 -1.34298,0.16119 a 0.3564,0.3564 0 0 1 -0.23247,-0.2187 0.648,0.648 0 0 1 -0.01863,-0.33129 c 0.09396,0.06075 0.1944,0.11664 0.30942,0.162 0.11502,0.04536 0.24867,0.04455 0.39204,0.02997 a 3.24,3.24 0 0 0 0.43983,-0.08181 c 0.25029,-0.06318 0.43902,-0.1296 0.48681,-0.14742"
     color="#000000"
     style="font-variant-ligatures:normal;font-variant-position:normal;font-variant-caps:normal;font-variant-numeric:normal;font-variant-alternates:normal;font-feature-settings:normal;text-indent:0;text-decoration:none;text-decoration-line:none;text-decoration-style:solid;text-decoration-color:#000000;text-transform:none;text-orientation:mixed;white-space:normal;shape-padding:0;isolation:auto;mix-blend-mode:normal;fill:#000000;stroke-width:0.21431;opacity:0.3"
     id="path6-1" />
  <path
     fill="#ffffff"
     d="m 7.187105,4.9491332 a 0.8424,0.8424 0 0 0 -0.4131,0.12555 0.891,0.891 0 0 0 -0.23247,0.19359 1.6686,1.6686 0 0 0 -0.91611,-0.31671 1.701,1.701 0 0 0 -0.52245,0.05022 l -0.10368,0.02997 0.03078,0.1053 c 0,0 0.11016,0.34668 0.32643,0.68121 0.10773,0.16767 0.243,0.33534 0.4131,0.4536 0.162,0.11502 0.35964,0.18063 0.57834,0.15228 a 7.047,7.047 0 0 0 0.2754,1.29114 q -0.0891,0.22437 -0.18306,0.49167 c -0.20817,0.6018302 -0.405,1.3041005 -0.31347,1.7860492 0.07938,0.4171496 0.24381,0.7581596 0.52245,1.0108796 -0.0486,0.21303 -0.05022,0.39771 0.0081,0.55242 a 0.5832,0.5832 0 0 0 0.35883,0.34182 c 0.33129,0.12069 0.82134,0.04941 1.44909,-0.15552 0.62856,0.20574 1.11942,0.2754 1.45071,0.15552 a 0.5832,0.5832 0 0 0 0.36045,-0.34182 c 0.05751,-0.1539 0.05508,-0.33858 0.0065,-0.5508 0.27945,-0.25353 0.44469,-0.59454 0.52407,-1.0124996 0.09153,-0.4819487 -0.1053,-1.184219 -0.31347,-1.7860492 a 12.15,12.15 0 0 0 -0.18306,-0.49167 7.047,7.047 0 0 0 0.2754,-1.29114 0.81,0.81 0 0 0 0.57834,-0.15147 c 0.16929,-0.11988 0.30294,-0.28674 0.41148,-0.45441 0.21546,-0.33453 0.32562,-0.68202 0.32562,-0.68202 l 0.0324,-0.10449 -0.10368,-0.02997 c 0,0 -0.21708,-0.0648 -0.52164,-0.05022 -0.2673,0.01215 -0.60345,0.08667 -0.91692,0.3159 a 0.891,0.891 0 0 0 -0.23166,-0.19278 0.8424,0.8424 0 0 0 -0.4131,-0.12474 c -0.23166,0 -0.40338,0.0486 -0.58725,0.09315 -0.18387,0.04455 -0.38232,0.0891 -0.69255,0.0891 -0.31023,0 -0.50949,-0.04455 -0.69336,-0.0891 -0.18387,-0.04455 -0.35559,-0.09315 -0.58644,-0.09315 z m -1.56654,0.2106 c 0.22194,0.00405 0.51597,0.06966 0.81,0.29565 -0.0891,0.21708 -0.1134,0.48195 -0.09963,0.75735 a 0.5832,0.5832 0 0 1 -0.43821,-0.11583 1.458,1.458 0 0 1 -0.35721,-0.39447 c -0.15957,-0.24624 -0.2106,-0.41796 -0.243,-0.50868 a 1.377,1.377 0 0 1 0.32805,-0.03402 m 5.69268,0 a 1.377,1.377 0 0 1 0.32724,0.03402 c -0.0324,0.09072 -0.08505,0.26244 -0.24381,0.50868 a 1.458,1.458 0 0 1 -0.3564,0.39447 0.5832,0.5832 0 0 1 -0.4374,0.11583 c 0.01296,-0.2754 -0.0097,-0.54027 -0.09963,-0.75735 0.29403,-0.2268 0.58806,-0.2916 0.81,-0.29565 m -4.12614,0.00162 c 0.20088,0 0.3483,0.04293 0.53622,0.0891 a 2.916,2.916 0 0 0 0.74358,0.09315 c 0.33048,0 0.55566,-0.04698 0.74358,-0.09315 0.18792,-0.04617 0.33453,-0.0891 0.53622,-0.0891 0.07938,0 0.20007,0.03483 0.30537,0.0972 0.1053,0.06156 0.19602,0.14985 0.23895,0.23895 0.1458,0.30456 0.1053,0.8829 0.01134,1.37295 a 7.29,7.29 0 0 1 -0.12231,0.52407 c -0.06723,-0.15714 -0.12312,-0.28188 -0.12312,-0.28188 a 0.1053,0.1053 0 0 0 -0.10287,-0.06399 0.10692,0.10692 0 0 0 -0.08991,0.1539 c 0,0 0.0972,0.21708 0.22032,0.52326 l -0.01215,0.03807 0.0324,0.01053 c 0.05913,0.15228 0.12231,0.31752 0.1863,0.5021999 0.20331,0.5896802 0.37827,1.2951908 0.30537,1.6766993 -0.11016,0.5799596 -0.35073,0.9452696 -0.88938,1.1582996 a 0.729,0.729 0 0 1 -0.2916,0.01782 3.24,3.24 0 0 1 -0.40905,-0.07776 c -0.2349,-0.05913 -0.38151,-0.11421 -0.43335,-0.13284 V 9.5612739 c 0.08505,-0.0324 0.39852,-0.3094202 0.69903,-0.7954204 -0.01296,0.05022 -0.0243,0.1101598 -0.03807,0.1490399 a 0.486,0.486 0 0 1 -0.04212,0.0891 l -0.00567,0.00648 a 0.10692,0.10692 0 0 0 0.0486,0.2073603 0.1944,0.1944 0 0 0 0.13365,-0.09315 0.648,0.648 0 0 0 0.06642,-0.1377 c 0.03807,-0.10206 0.06642,-0.22518 0.09072,-0.3483002 0.04698,-0.24219 0.07209,-0.47304 0.0729,-0.4779 l 0.00162,-0.00405 a 0.10705262,0.10705262 0 0 0 -0.21222,-0.02835 C 9.233165,9.0890438 8.557625,9.356344 8.466905,9.388744 8.374565,9.356344 7.700645,9.0890438 7.545935,8.1283836 a 0.10694838,0.10694838 0 0 0 -0.21222,0.02673 l 0.00162,0.00567 h -0.00162 q 8.1e-4,0.00162 0.00162,0.00162 c 8.1e-4,0.0081 0.02187,0.2308501 0.06723,0.46737 0.02268,0.1198802 0.05184,0.2413802 0.0891,0.3418202 a 0.567,0.567 0 0 0 0.0648,0.1344601 c 0.02673,0.03969 0.0648,0.08262 0.13203,0.09315 a 0.10692,0.10692 0 0 0 0.04779,-0.2081703 c -0.00162,-8.1e-4 -0.00162,0 -0.00486,-0.00567 a 0.405,0.405 0 0 1 -0.0405,-0.08667 c -0.01458,-0.03726 -0.0243,-0.09558 -0.03726,-0.1441801 0.2997,0.4932903 0.61884,0.7711203 0.70551,0.8059505 v 1.358368 c -0.05184,0.01863 -0.19845,0.07452 -0.43173,0.13284 a 3.24,3.24 0 0 1 -0.40986,0.07776 0.729,0.729 0 0 1 -0.2916,-0.01782 c -0.53784,-0.21303 -0.77841,-0.57834 -0.88857,-1.1582995 -0.0729,-0.3815085 0.10206,-1.087019 0.30537,-1.6766992 q 0.0972,-0.2754 0.18711,-0.5022 l 0.03078,-0.01053 -0.01134,-0.03807 c 0.12312,-0.30618 0.22032,-0.52326 0.22032,-0.52326 a 0.10692,0.10692 0 0 0 -0.09315,-0.1539 0.1053,0.1053 0 0 0 -0.09963,0.06399 c 0,0 -0.0567,0.12474 -0.12312,0.28188 a 7.29,7.29 0 0 1 -0.1215,-0.52407 c -0.09477,-0.49005 -0.13527,-1.06839 0.01053,-1.37295 a 0.6075,0.6075 0 0 1 0.23895,-0.23895 0.648,0.648 0 0 1 0.30537,-0.0972 m 0.33939,0.8181 c -0.10206,0.00486 -0.2106,0.02835 -0.31914,0.07533 l -0.0162,0.00486 h 0.00324 l -0.0081,0.00243 a 0.1053,0.1053 0 0 0 -0.06156,0.09639 c 0,0.07614 0.01053,0.22113 0.06723,0.36693 0.0567,0.1458 0.17253,0.30375 0.3726,0.33372 a 0.3888,0.3888 0 0 0 0.29646,-0.08343 0.729,0.729 0 0 0 0.17253,-0.21708 c 0.07614,-0.13851 0.10206,-0.25191 0.10935,-0.27783 l 0.0162,-0.05427 -0.00729,-0.0405 -0.01053,-0.02268 -0.00972,-0.01458 c -0.01215,-0.01458 -0.02187,-0.02106 -0.0324,-0.02835 a 0.81,0.81 0 0 0 -0.06561,-0.03807 1.053,1.053 0 0 0 -0.50706,-0.10287 m 1.88082,0 a 1.053,1.053 0 0 0 -0.50706,0.10287 0.81,0.81 0 0 0 -0.06642,0.03807 c -0.00972,0.00729 -0.01944,0.01377 -0.03159,0.02835 l -0.00972,0.01458 -0.01053,0.02187 -0.00648,0.0405 0.0162,0.05508 c 0.00567,0.02592 0.0324,0.13932 0.10854,0.27783 a 0.729,0.729 0 0 0 0.17253,0.21708 0.3807,0.3807 0 0 0 0.29403,0.08343 c 0.20007,-0.02997 0.31914,-0.18792 0.37503,-0.33372 0.0567,-0.1458 0.06642,-0.29079 0.06642,-0.36693 a 0.1053,0.1053 0 0 0 -0.06156,-0.0972 0.891,0.891 0 0 0 -0.3402,-0.08181 z m -1.72773,0.22275 q 0.04941,0.00243 0.09396,0.01377 a 0.81,0.81 0 0 1 0.14742,0.05184 c -0.01296,0.04455 -0.0243,0.0972 -0.07452,0.18792 a 0.486,0.486 0 0 1 -0.11826,0.15228 c -0.04293,0.03402 -0.07857,0.04698 -0.1296,0.03888 -0.10935,-0.0162 -0.16686,-0.09072 -0.20736,-0.19764 -0.02916,-0.0729 -0.03078,-0.1377 -0.03645,-0.20088 0.11097,-0.03402 0.22437,-0.05184 0.324,-0.04617 z m 1.57464,0 c 0.09963,-0.00567 0.21384,0.01215 0.32481,0.04617 -0.00567,0.06318 -0.0081,0.12717 -0.03645,0.20088 -0.0405,0.10692 -0.09801,0.18144 -0.20736,0.19764 -0.05103,0.0081 -0.08667,-0.00486 -0.1296,-0.03888 a 0.486,0.486 0 0 1 -0.11907,-0.15228 c -0.0486,-0.08991 -0.06075,-0.14337 -0.07371,-0.18792 a 0.81,0.81 0 0 1 0.14661,-0.05184 0.81,0.81 0 0 1 0.09477,-0.01377 m -0.78813,4.9094087 c 0.0486,0.01701 0.23814,0.08424 0.48843,0.14742 0.14175,0.03564 0.29565,0.06723 0.43902,0.08181 0.14337,0.01458 0.27783,0.0162 0.39285,-0.02997 a 1.62,1.62 0 0 0 0.3078,-0.16119 0.648,0.648 0 0 1 -0.0162,0.33048 0.3564,0.3564 0 0 1 -0.2349,0.2187 c -0.24705,0.08991 -0.7128,0.0486 -1.34298,-0.162 l -0.0324,-0.01053 -0.03564,0.01134 c -0.63018,0.20979 -1.09593,0.2511 -1.34298,0.16119 a 0.3564,0.3564 0 0 1 -0.23247,-0.2187 0.648,0.648 0 0 1 -0.01863,-0.33129 c 0.09396,0.06075 0.1944,0.11664 0.30942,0.162 0.11502,0.04536 0.24867,0.04455 0.39204,0.02997 a 3.24,3.24 0 0 0 0.43983,-0.08181 c 0.25029,-0.06318 0.43902,-0.1296 0.48681,-0.14742"
     color="#000000"
     style="font-variant-ligatures:normal;font-variant-position:normal;font-variant-caps:normal;font-variant-numeric:normal;font-variant-alternates:normal;font-feature-settings:normal;text-indent:0;text-decoration:none;text-decoration-line:none;text-decoration-style:solid;text-decoration-color:#000000;text-transform:none;text-orientation:mixed;white-space:normal;shape-padding:0;isolation:auto;mix-blend-mode:normal;stroke-width:0.21431;fill:url(#linearGradient67)"
     id="path6" />
  <rect
     style="opacity:0.5;fill:none;fill-opacity:0.996424;stroke:url(#linearGradient9);stroke-width:0.50832;stroke-dasharray:none;stroke-opacity:1"
     id="rect1-2-6"
     width="8.9234324"
     height="12.035513"
     x="4.0584631"
     y="2.3962882"
     rx="1.5176033"
     ry="2.2109985" />
</svg>
