<?xml version="1.0" encoding="UTF-8" standalone="no"?>
<svg
   width="64"
   height="64"
   version="1.1"
   viewBox="0 0 16.933 16.933"
   id="svg7"
   sodipodi:docname="Template 4.svg"
   inkscape:version="1.3.2 (091e20ef0f, 2023-11-25)"
   xmlns:inkscape="http://www.inkscape.org/namespaces/inkscape"
   xmlns:sodipodi="http://sodipodi.sourceforge.net/DTD/sodipodi-0.dtd"
   xmlns:xlink="http://www.w3.org/1999/xlink"
   xmlns="http://www.w3.org/2000/svg"
   xmlns:svg="http://www.w3.org/2000/svg"
   xmlns:rdf="http://www.w3.org/1999/02/22-rdf-syntax-ns#"
   xmlns:cc="http://creativecommons.org/ns#"
   xmlns:dc="http://purl.org/dc/elements/1.1/">
  <sodipodi:namedview
     id="namedview7"
     pagecolor="#9c4444"
     bordercolor="#000000"
     borderopacity="0.25"
     inkscape:showpageshadow="2"
     inkscape:pageopacity="0.0"
     inkscape:pagecheckerboard="0"
     inkscape:deskcolor="#d1d1d1"
     inkscape:zoom="4.3531261"
     inkscape:cx="32.849956"
     inkscape:cy="24.465177"
     inkscape:window-width="1356"
     inkscape:window-height="973"
     inkscape:window-x="35"
     inkscape:window-y="32"
     inkscape:window-maximized="0"
     inkscape:current-layer="svg7"
     showgrid="false" />
  <defs
     id="defs2">
    <linearGradient
       id="linearGradient5"
       inkscape:collect="always">
      <stop
         style="stop-color:#392713;stop-opacity:1;"
         offset="0"
         id="stop2" />
      <stop
         style="stop-color:#eed59e;stop-opacity:1;"
         offset="0.5"
         id="stop3" />
      <stop
         style="stop-color:#beaa8a;stop-opacity:1;"
         offset="1"
         id="stop4" />
    </linearGradient>
    <linearGradient
       id="linearGradient8"
       inkscape:collect="always">
      <stop
         style="stop-color:#1a1a1a;stop-opacity:1;"
         offset="0"
         id="stop8" />
      <stop
         style="stop-color:#ffffff;stop-opacity:0;"
         offset="1"
         id="stop9" />
    </linearGradient>
    <linearGradient
       inkscape:collect="always"
       xlink:href="#linearGradient5"
       id="linearGradient41"
       x1="13.675659"
       y1="16.110115"
       x2="13.728528"
       y2="10.548769"
       gradientUnits="userSpaceOnUse"
       gradientTransform="matrix(2.046153,0,0,2.046153,-18.798306,-18.911347)" />
    <linearGradient
       inkscape:collect="always"
       xlink:href="#linearGradient42"
       id="linearGradient4"
       x1="11.885941"
       y1="16.50819"
       x2="12.026573"
       y2="10.244942"
       gradientUnits="userSpaceOnUse"
       gradientTransform="matrix(2.046153,0,0,2.046153,-18.798306,-18.911347)" />
    <linearGradient
       id="linearGradient42"
       inkscape:collect="always">
      <stop
         style="stop-color:#010101;stop-opacity:1;"
         offset="0"
         id="stop42" />
      <stop
         style="stop-color:#6e6c6d;stop-opacity:1;"
         offset="1"
         id="stop43" />
    </linearGradient>
    <linearGradient
       inkscape:collect="always"
       xlink:href="#linearGradient8"
       id="linearGradient9"
       x1="9.3404646"
       y1="4.1692023"
       x2="9.4279938"
       y2="16.46883"
       gradientUnits="userSpaceOnUse"
       gradientTransform="matrix(1.05,0,0,1.05,-0.50277005,-0.1977751)" />
    <filter
       style="color-interpolation-filters:sRGB;"
       inkscape:label="Blur"
       id="filter2"
       x="-0.14510849"
       y="-0.14612901"
       width="1.290217"
       height="1.292258">
      <feGaussianBlur
         stdDeviation="0.6 0.6"
         result="blur"
         id="feGaussianBlur2" />
    </filter>
    <linearGradient
       inkscape:collect="always"
       xlink:href="#linearGradient5"
       id="linearGradient8-5"
       x1="31.542908"
       y1="49.557732"
       x2="31.995481"
       y2="14.536741"
       gradientUnits="userSpaceOnUse"
       gradientTransform="matrix(0.2121652,0,0,0.2121652,1.6465151,1.5230147)" />
  </defs>
  <metadata
     id="metadata2">
    <rdf:RDF>
      <cc:Work
         rdf:about="">
        <dc:format>image/svg+xml</dc:format>
        <dc:type
           rdf:resource="http://purl.org/dc/dcmitype/StillImage" />
      </cc:Work>
    </rdf:RDF>
  </metadata>
  <rect
     style="fill:#000000;fill-opacity:0.996424;stroke:#000000;stroke-width:0.911802;stroke-dasharray:none;stroke-opacity:1;filter:url(#filter2)"
     id="rect1-2-3"
     width="13.065404"
     height="12.974159"
     x="1.9816793"
     y="1.9267306"
     rx="2.7149384"
     ry="2.8310909" />
  <rect
     style="fill:url(#linearGradient4);fill-opacity:0.996424;stroke:url(#linearGradient41);stroke-width:0.911802;stroke-dasharray:none;stroke-opacity:1"
     id="rect1-2"
     width="13.065404"
     height="12.974159"
     x="1.9816793"
     y="1.9267306"
     rx="2.7149384"
     ry="2.8310909" />
  <path
     style="fill:#000000;fill-opacity:1;stroke:none;stroke-width:0.0291918;stroke-dashoffset:2.2;stroke-opacity:1;opacity:0.3"
     d="M 5.2195596,12.595998 C 5.0840811,12.524577 4.9978884,12.436334 4.939026,12.308797 4.889856,12.20226 4.885078,12.100587 4.884493,11.148415 l -6.365e-4,-1.043612 0.1240661,6.79e-4 c 0.08383,4.67e-4 0.171403,0.02853 0.2700252,0.08653 0.4446433,0.261521 0.6114317,0.293609 0.8207352,0.157894 C 6.3660732,10.176529 6.5031001,9.8311143 6.4841249,9.3782987 6.4665046,8.9578481 6.3156975,8.664795 6.0454005,8.525761 5.8548922,8.427768 5.6939633,8.4618716 5.3683487,8.6692389 5.1888145,8.7835755 5.047361,8.8310868 4.9552864,8.8079776 l -0.07143,-0.017928 v -0.818269 c 0,-0.8882508 0.0029,-0.9067356 0.1711861,-1.0880017 C 5.22212,6.7038068 5.2157618,6.7047749 6.2957485,6.6948534 L 7.2843566,6.6857748 7.2721911,6.5175912 C 7.2623741,6.3818936 7.2335658,6.3049455 7.1230369,6.119219 6.9001777,5.7447379 6.9012784,5.574091 7.1280121,5.3473546 7.3278754,5.1474914 7.5352904,5.0728251 7.8906263,5.0728251 c 0.3553364,0 0.5627515,0.074666 0.7626146,0.2745295 C 8.8799773,5.574091 8.8810777,5.7447379 8.6582209,6.119219 8.5471842,6.3057989 8.5189024,6.3816082 8.5089372,6.5193753 l -0.012295,0.169967 h 0.844777 c 0.9516638,0 1.0694308,0.017465 1.2248668,0.1816503 0.17262,0.1823392 0.169382,0.160509 0.185155,1.2487567 l 0.0146,1.0071231 0.06952,0.00983 c 0.12774,0.018067 0.249731,-0.023235 0.494951,-0.1675644 0.13384,-0.078773 0.288222,-0.1516449 0.343074,-0.1619351 0.207057,-0.038843 0.478002,0.1614965 0.598457,0.442506 0.240719,0.5615784 0.01511,1.3058841 -0.436885,1.4413051 -0.109815,0.0329 -0.129568,0.02864 -0.330223,-0.07118 -0.117392,-0.05839 -0.272443,-0.139642 -0.344567,-0.18055 -0.09805,-0.05561 -0.164338,-0.07222 -0.262729,-0.06578 l -0.131592,0.0086 -0.01461,0.934144 c -0.01571,1.005632 -0.0187,1.025142 -0.179676,1.171562 -0.160986,0.146432 -0.216873,0.156672 -0.8551883,0.156672 H 9.1166854 v -0.111816 c 0,-0.06503 0.032198,-0.171917 0.076943,-0.255431 0.042319,-0.07897 0.1145691,-0.214425 0.1605561,-0.30098 0.2512651,-0.472919 -0.1103658,-0.910431 -0.7921465,-0.95836 -0.5221206,-0.03671 -0.9932228,0.234232 -1.0421999,0.599382 -0.01916,0.142842 0.020973,0.268526 0.1565924,0.490425 0.1217552,0.199215 0.1875805,0.389246 0.164888,0.476024 -0.015794,0.0604 -0.023543,0.06077 -1.2750369,0.05959 -1.0901956,-0.0011 -1.270899,-0.0075 -1.3467241,-0.04734 z"
     id="path1-3-6" />
  <path
     style="fill:url(#linearGradient8-5);fill-opacity:1;stroke:none;stroke-width:0.0291918;stroke-dashoffset:2.2;stroke-opacity:1"
     d="M 5.2195596,12.066842 C 5.0840811,11.995421 4.9978884,11.907178 4.939026,11.779641 4.889856,11.673104 4.885078,11.571431 4.884493,10.619259 l -6.365e-4,-1.0436122 0.1240661,6.787e-4 c 0.08383,4.673e-4 0.171403,0.028526 0.2700252,0.08653 0.4446433,0.2615213 0.6114317,0.293609 0.8207352,0.157894 C 6.3660732,9.6473724 6.5031001,9.3019581 6.4841249,8.8491425 6.4665046,8.4286919 6.3156975,8.1356388 6.0454005,7.9966048 5.8548922,7.8986118 5.6939633,7.9327154 5.3683487,8.1400827 5.1888145,8.2544193 5.047361,8.3019306 4.9552864,8.2788214 l -0.07143,-0.017928 v -0.818269 c 0,-0.8882508 0.0029,-0.9067356 0.1711861,-1.0880017 C 5.22212,6.1746506 5.2157618,6.1756187 6.2957485,6.1656972 L 7.2843566,6.1566186 7.2721911,5.988435 C 7.2623741,5.8527374 7.2335658,5.7757893 7.1230369,5.5900628 6.9001777,5.2155817 6.9012784,5.0449348 7.1280121,4.8181984 7.3278754,4.6183352 7.5352904,4.5436689 7.8906263,4.5436689 c 0.3553364,0 0.5627515,0.074666 0.7626146,0.2745295 0.2267364,0.2267364 0.2278368,0.3973833 0.00498,0.7718644 C 8.5471842,5.7766427 8.5189024,5.852452 8.5089372,5.9902191 l -0.012295,0.169967 h 0.844777 c 0.9516638,0 1.0694308,0.017465 1.2248668,0.1816503 0.17262,0.1823392 0.169382,0.160509 0.185155,1.2487567 l 0.0146,1.0071231 0.06952,0.00983 c 0.12774,0.018067 0.249731,-0.023235 0.494951,-0.1675644 0.13384,-0.078773 0.288222,-0.1516449 0.343074,-0.1619351 0.207057,-0.038843 0.478002,0.1614965 0.598457,0.442506 0.240719,0.5615784 0.01511,1.3058843 -0.436885,1.4413053 -0.109815,0.0329 -0.129568,0.02864 -0.330223,-0.07118 -0.117392,-0.05839 -0.272443,-0.1396424 -0.344567,-0.1805501 -0.09805,-0.055611 -0.164338,-0.072216 -0.262729,-0.065781 l -0.131592,0.00864 -0.01461,0.9341441 c -0.01571,1.005632 -0.0187,1.025142 -0.179676,1.171562 -0.160986,0.146432 -0.216873,0.156672 -0.8551883,0.156672 H 9.1166854 v -0.111816 c 0,-0.06503 0.032198,-0.171917 0.076943,-0.255431 0.042319,-0.07897 0.1145691,-0.214425 0.1605561,-0.30098 0.2512651,-0.472919 -0.1103658,-0.910431 -0.7921465,-0.95836 -0.5221206,-0.03671 -0.9932228,0.234232 -1.0421999,0.599382 -0.01916,0.142842 0.020973,0.268526 0.1565924,0.490425 0.1217552,0.199215 0.1875805,0.389246 0.164888,0.476024 -0.015794,0.0604 -0.023543,0.06077 -1.2750369,0.05959 -1.0901956,-0.0011 -1.270899,-0.0075 -1.3467241,-0.04734 z"
     id="path1-3" />
  <rect
     style="opacity:0.5;fill:none;fill-opacity:0.996424;stroke:url(#linearGradient9);stroke-width:0.566102;stroke-dasharray:none;stroke-opacity:1"
     id="rect1-2-6"
     width="11.574203"
     height="11.508601"
     x="2.729686"
     y="2.6615164"
     rx="2.0246315"
     ry="2.0627522" />
</svg>
