<?xml version="1.0" encoding="UTF-8" standalone="no"?>
<svg
   width="64"
   height="64"
   version="1.1"
   viewBox="0 0 16.933 16.933"
   id="svg7"
   sodipodi:docname="application-wps-office.dotx.svg"
   inkscape:version="1.3.2 (091e20ef0f, 2023-11-25)"
   xmlns:inkscape="http://www.inkscape.org/namespaces/inkscape"
   xmlns:sodipodi="http://sodipodi.sourceforge.net/DTD/sodipodi-0.dtd"
   xmlns:xlink="http://www.w3.org/1999/xlink"
   xmlns="http://www.w3.org/2000/svg"
   xmlns:svg="http://www.w3.org/2000/svg"
   xmlns:rdf="http://www.w3.org/1999/02/22-rdf-syntax-ns#"
   xmlns:cc="http://creativecommons.org/ns#"
   xmlns:dc="http://purl.org/dc/elements/1.1/">
  <sodipodi:namedview
     id="namedview7"
     pagecolor="#9c4444"
     bordercolor="#000000"
     borderopacity="0.25"
     inkscape:showpageshadow="2"
     inkscape:pageopacity="0.0"
     inkscape:pagecheckerboard="0"
     inkscape:deskcolor="#d1d1d1"
     inkscape:zoom="8.7062522"
     inkscape:cx="33.251966"
     inkscape:cy="29.863596"
     inkscape:window-width="1463"
     inkscape:window-height="664"
     inkscape:window-x="153"
     inkscape:window-y="302"
     inkscape:window-maximized="0"
     inkscape:current-layer="svg7"
     showgrid="false" />
  <defs
     id="defs2">
    <linearGradient
       id="linearGradient5"
       inkscape:collect="always">
      <stop
         style="stop-color:#392713;stop-opacity:1;"
         offset="0"
         id="stop2" />
      <stop
         style="stop-color:#eed59e;stop-opacity:1;"
         offset="0.5"
         id="stop3" />
      <stop
         style="stop-color:#beaa8a;stop-opacity:1;"
         offset="1"
         id="stop4" />
    </linearGradient>
    <linearGradient
       id="linearGradient8"
       inkscape:collect="always">
      <stop
         style="stop-color:#1a1a1a;stop-opacity:1;"
         offset="0"
         id="stop8" />
      <stop
         style="stop-color:#ffffff;stop-opacity:0;"
         offset="1"
         id="stop9" />
    </linearGradient>
    <linearGradient
       inkscape:collect="always"
       xlink:href="#linearGradient5"
       id="linearGradient41"
       x1="13.675659"
       y1="16.110115"
       x2="13.728528"
       y2="10.548769"
       gradientUnits="userSpaceOnUse"
       gradientTransform="matrix(1.6061171,0,0,2.1084059,-12.924569,-19.742698)" />
    <linearGradient
       inkscape:collect="always"
       xlink:href="#linearGradient42"
       id="linearGradient4"
       x1="11.885941"
       y1="16.50819"
       x2="12.026573"
       y2="10.244942"
       gradientUnits="userSpaceOnUse"
       gradientTransform="matrix(1.6061171,0,0,2.1084059,-12.924569,-19.742698)" />
    <linearGradient
       id="linearGradient42"
       inkscape:collect="always">
      <stop
         style="stop-color:#010101;stop-opacity:1;"
         offset="0"
         id="stop42" />
      <stop
         style="stop-color:#6e6c6d;stop-opacity:1;"
         offset="1"
         id="stop43" />
    </linearGradient>
    <linearGradient
       inkscape:collect="always"
       xlink:href="#linearGradient8"
       id="linearGradient9"
       x1="9.3404646"
       y1="4.1692023"
       x2="9.4279938"
       y2="16.46883"
       gradientUnits="userSpaceOnUse"
       gradientTransform="matrix(0.80952478,0,0,1.0980733,1.5663172,-0.59391329)" />
    <filter
       style="color-interpolation-filters:sRGB;"
       inkscape:label="Blur"
       id="filter2"
       x="-0.14510849"
       y="-0.14612901"
       width="1.290217"
       height="1.292258">
      <feGaussianBlur
         stdDeviation="0.6 0.6"
         result="blur"
         id="feGaussianBlur2" />
    </filter>
    <linearGradient
       inkscape:collect="always"
       xlink:href="#linearGradient5"
       id="linearGradient10"
       x1="9.0092974"
       y1="9.6654215"
       x2="8.9253063"
       y2="4.1426415"
       gradientUnits="userSpaceOnUse"
       gradientTransform="translate(0,1.0583125)" />
  </defs>
  <metadata
     id="metadata2">
    <rdf:RDF>
      <cc:Work
         rdf:about="">
        <dc:format>image/svg+xml</dc:format>
        <dc:type
           rdf:resource="http://purl.org/dc/dcmitype/StillImage" />
      </cc:Work>
    </rdf:RDF>
  </metadata>
  <rect
     style="fill:#000000;fill-opacity:0.996424;stroke:#000000;stroke-width:0.911802;stroke-dasharray:none;stroke-opacity:1;filter:url(#filter2)"
     id="rect1-2-3"
     width="13.065404"
     height="12.974159"
     x="1.9816793"
     y="1.9267306"
     rx="2.7149384"
     ry="2.8310909"
     transform="matrix(0.78494475,0,0,1.0304244,1.8310625,-0.25598506)" />
  <rect
     style="fill:url(#linearGradient4);fill-opacity:0.996424;stroke:url(#linearGradient41);stroke-width:0.820027;stroke-dasharray:none;stroke-opacity:1"
     id="rect1-2"
     width="10.25562"
     height="13.36889"
     x="3.3865712"
     y="1.7293652"
     rx="2.1310766"
     ry="2.9172251" />
  <path
     style="opacity:0.3;fill:#000000;stroke-width:0.0605264"
     d="M 9.1640576,11.244941 C 8.2394001,11.052591 7.3407758,10.398256 6.8168892,9.5358436 6.6240786,9.2184433 6.4997597,9.0830554 6.4600782,9.1472614 c -0.03349,0.054198 -0.066884,0.5013927 -0.074197,0.9937716 -0.00731,0.492376 -0.029616,0.911554 -0.049567,0.931503 -0.073255,0.07326 -0.1315021,-0.06652 -0.1698854,-0.407653 C 6.1447955,10.472575 6.070746,10.181372 6.0018841,10.017766 5.8832832,9.735991 5.8857153,9.7088164 6.0480109,9.5024914 6.1434991,9.3810976 6.2193406,9.1675897 6.2193406,9.0201625 6.2193406,8.7759919 6.1728592,8.7287202 5.6150599,8.4056007 5.0175935,8.0595031 4.8532527,7.8538 5.1742143,7.8538 c 0.2196521,0 0.6074844,-0.2050787 1.0104136,-0.5342882 0.5755227,-0.4702261 1.1990722,-0.7044754 1.8892958,-0.7097515 0.5364056,-0.00406 0.6771077,0.029138 1.2121172,0.2863421 0.3328992,0.1600395 0.8540711,0.4763512 1.1581601,0.7029137 0.557282,0.4152043 0.945896,0.5571605 1.255903,0.4587675 0.09577,-0.030395 0.168422,-0.017874 0.168422,0.029033 0,0.1120181 -0.514138,0.2008327 -0.814659,0.1407283 -0.172719,-0.034543 -0.358463,0.00918 -0.635614,0.1496229 -0.703174,0.3563258 -1.4901829,0.5257714 -2.4420076,0.5257714 -1.0070804,0 -1.0275357,0.021546 -0.6213876,0.6544719 0.6857735,1.0686859 1.9723149,1.6657609 2.8593432,1.3270029 0.659432,-0.251841 0.886715,-0.819559 0.487805,-1.2184691 C 10.457454,9.4213951 10.075298,9.4049224 9.8509594,9.6292609 9.678224,9.8019979 9.6616964,9.866275 9.7385393,10.066525 c 0.074457,0.194014 0.4352297,0.166036 0.4352297,-0.03375 0,-0.088776 0.03632,-0.1614052 0.0807,-0.1614052 0.14243,0 0.08618,0.2928372 -0.08622,0.4488552 -0.152345,0.13787 -0.1858167,0.1405 -0.3833355,0.0301 C 9.6137372,10.254666 9.5634038,10.160138 9.5441303,9.8981224 9.5234033,9.6164287 9.5536073,9.5401627 9.745886,9.3884299 c 0.52356,-0.4131315 1.396691,0.028521 1.396012,0.7061361 -8.02e-4,0.806861 -0.956646,1.362804 -1.9778431,1.15037 z M 9.1906166,8.5320461 C 9.471035,8.4696016 9.8833495,8.3398362 10.106873,8.2436785 L 10.513279,8.0688481 10.323347,7.9147657 C 10.121736,7.7512072 9.026115,7.2081786 8.8977283,7.2081786 c -0.042578,0 -0.057812,0.1620499 -0.034601,0.3680112 C 8.9144343,8.0313702 8.7877063,8.2880286 8.4271739,8.459112 7.8489538,8.7334955 7.1877695,8.3297824 7.1877695,7.702343 c 0,-0.1652626 0.043577,-0.3440571 0.096843,-0.3973207 C 7.5014798,7.0881548 7.1194893,7.2187188 6.6173049,7.5331073 6.3318435,7.711818 5.9984141,7.896951 5.8763512,7.9445153 5.7542885,7.9920771 5.6544191,8.0592865 5.6544191,8.093865 c 0,0.1117759 0.7565777,0.3922163 1.2934301,0.4794342 1.0648893,0.1730045 1.3000358,0.1686787 2.2427674,-0.041253 z M 11.451963,7.1671632 C 9.4544714,5.7175784 6.9028606,5.6353806 5.384709,6.9717125 4.8566366,7.4365395 4.9031108,7.1701444 5.4384116,6.6638787 6.1871645,5.95574 6.9505923,5.6748286 8.1263345,5.6748286 c 1.2170796,0 2.4197935,0.4731623 3.3958445,1.3359665 0.479191,0.4235941 0.434667,0.5227574 -0.07021,0.1563681 z"
     id="path1-2" />
  <path
     style="fill:url(#linearGradient10);stroke-width:0.0605264"
     d="M 9.1640576,10.715785 C 8.2394001,10.523435 7.3407758,9.8690995 6.8168892,9.0066874 6.6240786,8.6892871 6.4997597,8.5538992 6.4600782,8.6181052 6.4265882,8.6723033 6.3931942,9.1194979 6.3858812,9.6118765 6.3785712,10.104253 6.3562652,10.523431 6.3363142,10.54338 6.2630592,10.61664 6.2048121,10.476862 6.1664288,10.135727 6.1447955,9.9434185 6.070746,9.6522155 6.0018841,9.4886102 5.8832832,9.2068348 5.8857153,9.1796602 6.0480109,8.9733352 6.1434991,8.8519414 6.2193406,8.6384335 6.2193406,8.4910063 6.2193406,8.2468357 6.1728592,8.199564 5.6150599,7.8764445 5.0175935,7.5303469 4.8532527,7.3246438 5.1742143,7.3246438 c 0.2196521,0 0.6074844,-0.2050787 1.0104136,-0.5342882 0.5755227,-0.4702261 1.1990722,-0.7044754 1.8892958,-0.7097515 0.5364056,-0.00406 0.6771077,0.029138 1.2121172,0.2863421 0.3328992,0.1600395 0.8540711,0.4763512 1.1581601,0.7029137 0.557282,0.4152043 0.945896,0.5571605 1.255903,0.4587675 0.09577,-0.030395 0.168422,-0.017874 0.168422,0.029033 0,0.1120181 -0.514138,0.2008327 -0.814659,0.1407283 -0.172719,-0.034543 -0.358463,0.00918 -0.635614,0.1496229 C 9.715079,8.2043374 8.9280701,8.373783 7.9762454,8.373783 6.969165,8.373783 6.9487097,8.395329 7.3548578,9.0282549 8.0406313,10.096941 9.3271727,10.694016 10.214201,10.355258 10.873633,10.103417 11.100916,9.5356985 10.702006,9.1367887 10.457454,8.8922389 10.075298,8.8757662 9.8509594,9.1001047 9.678224,9.2728417 9.6616964,9.3371188 9.7385393,9.5373685 c 0.074457,0.194014 0.4352297,0.166036 0.4352297,-0.03375 0,-0.088776 0.03632,-0.1614049 0.0807,-0.1614049 0.14243,0 0.08618,0.2928369 -0.08622,0.4488549 -0.152345,0.13787 -0.1858167,0.1405 -0.3833355,0.0301 C 9.6137372,9.7255095 9.5634038,9.6309815 9.5441303,9.3689662 9.5234033,9.0872725 9.5536073,9.0110065 9.745886,8.8592737 c 0.52356,-0.4131315 1.396691,0.028521 1.396012,0.7061358 -8.02e-4,0.8068615 -0.956646,1.3628045 -1.9778431,1.1503705 z M 9.1906166,8.0028899 C 9.471035,7.9404454 9.8833495,7.81068 10.106873,7.7145223 L 10.513279,7.5396919 10.323347,7.3856095 C 10.121736,7.222051 9.026115,6.6790224 8.8977283,6.6790224 c -0.042578,0 -0.057812,0.1620499 -0.034601,0.3680112 C 8.9144343,7.502214 8.7877063,7.7588724 8.4271739,7.9299558 7.8489538,8.2043393 7.1877695,7.8006262 7.1877695,7.1731868 c 0,-0.1652626 0.043577,-0.3440571 0.096843,-0.3973207 C 7.5014798,6.5589986 7.1194893,6.6895626 6.6173049,7.0039511 6.3318435,7.1826618 5.9984141,7.3677948 5.8763512,7.4153591 5.7542885,7.4629209 5.6544191,7.5301303 5.6544191,7.5647088 c 0,0.1117759 0.7565777,0.3922163 1.2934301,0.4794342 1.0648893,0.1730045 1.3000358,0.1686787 2.2427674,-0.041253 z M 11.451963,6.638007 C 9.4544714,5.1884222 6.9028606,5.1062244 5.384709,6.4425563 4.8566366,6.9073833 4.9031108,6.6409882 5.4384116,6.1347225 6.1871645,5.4265838 6.9505923,5.1456724 8.1263345,5.1456724 c 1.2170796,0 2.4197935,0.4731623 3.3958445,1.3359665 0.479191,0.4235941 0.434667,0.5227574 -0.07021,0.1563681 z"
     id="path1" />
  <rect
     style="opacity:0.5;fill:none;fill-opacity:0.996424;stroke:url(#linearGradient9);stroke-width:0.50832;stroke-dasharray:none;stroke-opacity:1"
     id="rect1-2-6"
     width="8.9234324"
     height="12.035513"
     x="4.0584631"
     y="2.3962882"
     rx="1.5176033"
     ry="2.2109985" />
</svg>
