<?xml version="1.0" encoding="UTF-8" standalone="no"?>
<svg
   width="64"
   height="64"
   version="1.1"
   viewBox="0 0 16.933 16.933"
   id="svg7"
   sodipodi:docname="text-x-subviewer.svg"
   inkscape:version="1.3.2 (091e20ef0f, 2023-11-25)"
   xmlns:inkscape="http://www.inkscape.org/namespaces/inkscape"
   xmlns:sodipodi="http://sodipodi.sourceforge.net/DTD/sodipodi-0.dtd"
   xmlns:xlink="http://www.w3.org/1999/xlink"
   xmlns="http://www.w3.org/2000/svg"
   xmlns:svg="http://www.w3.org/2000/svg"
   xmlns:rdf="http://www.w3.org/1999/02/22-rdf-syntax-ns#"
   xmlns:cc="http://creativecommons.org/ns#"
   xmlns:dc="http://purl.org/dc/elements/1.1/">
  <sodipodi:namedview
     id="namedview7"
     pagecolor="#9c4444"
     bordercolor="#000000"
     borderopacity="0.25"
     inkscape:showpageshadow="2"
     inkscape:pageopacity="0.0"
     inkscape:pagecheckerboard="0"
     inkscape:deskcolor="#d1d1d1"
     inkscape:zoom="6.15625"
     inkscape:cx="33.218274"
     inkscape:cy="36.71066"
     inkscape:window-width="1463"
     inkscape:window-height="664"
     inkscape:window-x="167"
     inkscape:window-y="273"
     inkscape:window-maximized="0"
     inkscape:current-layer="svg7"
     showgrid="false" />
  <defs
     id="defs2">
    <linearGradient
       id="linearGradient5"
       inkscape:collect="always">
      <stop
         style="stop-color:#392713;stop-opacity:1;"
         offset="0"
         id="stop2" />
      <stop
         style="stop-color:#eed59e;stop-opacity:1;"
         offset="0.5"
         id="stop3" />
      <stop
         style="stop-color:#beaa8a;stop-opacity:1;"
         offset="1"
         id="stop4" />
    </linearGradient>
    <linearGradient
       id="linearGradient8"
       inkscape:collect="always">
      <stop
         style="stop-color:#1a1a1a;stop-opacity:1;"
         offset="0"
         id="stop8" />
      <stop
         style="stop-color:#ffffff;stop-opacity:0;"
         offset="1"
         id="stop9" />
    </linearGradient>
    <linearGradient
       inkscape:collect="always"
       xlink:href="#linearGradient5"
       id="linearGradient41"
       x1="13.675659"
       y1="16.110115"
       x2="13.728528"
       y2="10.548769"
       gradientUnits="userSpaceOnUse"
       gradientTransform="matrix(1.6061171,0,0,2.1084059,-12.924569,-19.742698)" />
    <linearGradient
       inkscape:collect="always"
       xlink:href="#linearGradient42"
       id="linearGradient4"
       x1="11.885941"
       y1="16.50819"
       x2="12.026573"
       y2="10.244942"
       gradientUnits="userSpaceOnUse"
       gradientTransform="matrix(1.6061171,0,0,2.1084059,-12.924569,-19.742698)" />
    <linearGradient
       id="linearGradient42"
       inkscape:collect="always">
      <stop
         style="stop-color:#010101;stop-opacity:1;"
         offset="0"
         id="stop42" />
      <stop
         style="stop-color:#6e6c6d;stop-opacity:1;"
         offset="1"
         id="stop43" />
    </linearGradient>
    <linearGradient
       inkscape:collect="always"
       xlink:href="#linearGradient8"
       id="linearGradient9"
       x1="9.3404646"
       y1="4.1692023"
       x2="9.4279938"
       y2="16.46883"
       gradientUnits="userSpaceOnUse"
       gradientTransform="matrix(0.80952478,0,0,1.0980733,1.5663172,-0.59391329)" />
    <filter
       style="color-interpolation-filters:sRGB;"
       inkscape:label="Blur"
       id="filter2"
       x="-0.14510849"
       y="-0.14612901"
       width="1.290217"
       height="1.292258">
      <feGaussianBlur
         stdDeviation="0.6 0.6"
         result="blur"
         id="feGaussianBlur2" />
    </filter>
    <linearGradient
       inkscape:collect="always"
       xlink:href="#linearGradient5"
       id="linearGradient10"
       x1="8.5921173"
       y1="10.813735"
       x2="8.6646662"
       y2="6.3020144"
       gradientUnits="userSpaceOnUse" />
  </defs>
  <metadata
     id="metadata2">
    <rdf:RDF>
      <cc:Work
         rdf:about="">
        <dc:format>image/svg+xml</dc:format>
        <dc:type
           rdf:resource="http://purl.org/dc/dcmitype/StillImage" />
      </cc:Work>
    </rdf:RDF>
  </metadata>
  <rect
     style="fill:#000000;fill-opacity:0.996424;stroke:#000000;stroke-width:0.911802;stroke-dasharray:none;stroke-opacity:1;filter:url(#filter2)"
     id="rect1-2-3"
     width="13.065404"
     height="12.974159"
     x="1.9816793"
     y="1.9267306"
     rx="2.7149384"
     ry="2.8310909"
     transform="matrix(0.78494475,0,0,1.0304244,1.8310625,-0.25598506)" />
  <rect
     style="fill:url(#linearGradient4);fill-opacity:0.996424;stroke:url(#linearGradient41);stroke-width:0.820027;stroke-dasharray:none;stroke-opacity:1"
     id="rect1-2"
     width="10.25562"
     height="13.36889"
     x="3.3865712"
     y="1.7293652"
     rx="2.1310766"
     ry="2.9172251" />
  <path
     d="m 10.872412,9.4534627 c -0.233119,0.00288 -0.43498,0.054621 -0.604285,0.1340262 -0.06251,-0.1178622 -0.125023,-0.2208897 -0.135442,-0.2978354 -0.01172,-0.089352 -0.02605,-0.1439442 -0.01172,-0.2507022 0.01433,-0.1067004 0.07944,-0.2581338 0.07944,-0.2705385 -0.0013,-0.011277 -0.01433,-0.065781 -0.148466,-0.067023 -0.1341409,-0.00288 -0.250049,0.024867 -0.2630722,0.05832 -0.013018,0.033543 -0.039066,0.1104879 -0.055996,0.189921 C 9.7094306,9.066278 9.4645904,9.4795168 9.3252403,9.6967057 9.279658,9.6122947 9.240589,9.5378404 9.2327744,9.4783027 9.2210519,9.3889237 9.2067266,9.3343297 9.2210519,9.2276003 9.2353817,9.1208711 9.300494,8.9694956 9.300494,8.9570621 9.299207,8.9457851 9.286166,8.8913081 9.1520275,8.8900661 c -0.1341402,-0.00288 -0.2500483,0.024867 -0.2630716,0.05832 -0.013025,0.033489 -0.027346,0.1129174 -0.056001,0.1898621 -0.027347,0.07695 -0.3529331,0.7669408 -0.4375848,0.9468858 -0.042977,0.09187 -0.080744,0.165082 -0.108094,0.214702 -0.027347,0.04962 -0.00129,0.0038 -0.00391,0.0086 -0.023441,0.04219 -0.036465,0.06575 -0.036465,0.06575 v 0.0029 c -0.018235,0.03103 -0.037768,0.06081 -0.046884,0.06081 -0.00651,0 -0.019531,-0.08313 0.00261,-0.197324 0.048187,-0.239483 0.1653968,-0.6130495 0.1640942,-0.6266692 0,-0.00639 0.022141,-0.072 -0.075535,-0.1055143 -0.095067,-0.033533 -0.1289271,0.022249 -0.1367413,0.022249 -0.00781,0 -0.014328,0.019953 -0.014328,0.019953 0,0 0.1054893,-0.4207287 -0.2018617,-0.4207287 -0.192746,0 -0.4584227,0.1998102 -0.5899583,0.3822123 -0.08335,0.043461 -0.2604672,0.1352989 -0.4480038,0.233353 -0.071628,0.037215 -0.1458618,0.076941 -0.216188,0.1129169 L 6.6697802,9.843358 C 6.2973105,9.4648837 5.6083747,9.1968608 5.637026,8.6880248 5.6474437,8.5031072 5.7151656,8.0154093 6.9601996,7.4247124 7.9799291,6.9406869 8.7964936,7.0734982 8.9384478,7.3688177 9.1403105,7.7907604 8.5021657,8.5750793 7.4420639,8.6880248 7.0383399,8.731457 6.8260588,8.5825106 6.7726629,8.5267025 c -0.056,-0.058356 -0.063815,-0.060813 -0.084652,-0.049653 -0.03386,0.017352 -0.013025,0.069489 0,0.100512 0.031257,0.078156 0.1614899,0.217188 0.3828874,0.2867025 C 7.2649462,8.92505 7.7389963,8.95856 8.3120245,8.7475877 8.9540761,8.5105673 9.4554754,7.8528431 9.3083118,7.3030626 9.1585429,6.7433349 8.1843953,6.5596891 7.2636437,6.8712016 6.7153607,7.0573342 6.1214953,7.347709 5.6943289,7.7287355 5.186418,8.1804331 5.1056729,8.5750793 5.1395336,8.7389171 c 0.1185125,0.58451 0.9637286,0.965507 1.3023359,1.2472073 -0.016928,0.00864 -0.032558,0.017352 -0.046884,0.024867 -0.1693038,0.07941 -0.81396,0.400836 -0.97545,0.740887 -0.1823264,0.384699 0.028651,0.661454 0.169304,0.698669 0.4349805,0.115433 0.8803795,-0.09184 1.1213113,-0.433104 0.2396298,-0.341267 0.2109784,-0.784318 0.1002801,-0.986615 l -0.00391,-0.0076 0.132838,-0.074457 c 0.085955,-0.048402 0.1706064,-0.093081 0.2448396,-0.1315683 -0.041675,0.107973 -0.071628,0.235811 -0.087257,0.421943 -0.018235,0.218432 0.075536,0.501375 0.1992574,0.613077 0.054698,0.04838 0.119815,0.04962 0.1601879,0.04962 0.1432568,0 0.2083736,-0.112916 0.2800016,-0.248186 0.088559,-0.165051 0.1666992,-0.356158 0.1666992,-0.356158 0,0 -0.097675,0.517481 0.169304,0.517481 0.097675,0 0.1953504,-0.120377 0.2396296,-0.182431 v 0.0029 c 0,0 0.00261,-0.0038 0.00781,-0.01244 0.010417,-0.01475 0.015626,-0.02371 0.015626,-0.02371 v -0.0029 c 0.03907,-0.06454 0.1263267,-0.212214 0.2565601,-0.456699 0.1680013,-0.3152135 0.3294912,-0.7098602 0.3294912,-0.7098602 0,0 0.015632,0.096811 0.063814,0.2556467 0.028652,0.094324 0.091163,0.1973235 0.1393501,0.2978643 -0.03907,0.05211 -0.062512,0.081891 -0.062512,0.081891 l 0.00129,0.0029 c -0.031252,0.03967 -0.066415,0.08189 -0.1028805,0.124073 -0.1328383,0.151405 -0.2917234,0.323888 -0.3125608,0.373537 -0.024744,0.05832 -0.019531,0.101755 0.028652,0.136513 0.035163,0.02487 0.097675,0.02978 0.1640942,0.02487 0.1198149,-0.0076 0.2031645,-0.03603 0.2448398,-0.05338 0.065117,-0.02227 0.1393492,-0.05584 0.2109777,-0.105487 0.1302341,-0.09184 0.2096761,-0.222132 0.2018626,-0.39586 -0.00391,-0.09557 -0.036465,-0.1899205 -0.076838,-0.2792419 0.01172,-0.015903 0.02344,-0.032301 0.035163,-0.049653 C 9.6625294,9.5568594 9.8214147,9.241645 9.8214147,9.241645 c 0,0 0.01563,0.096811 0.063814,0.255647 0.024741,0.080676 0.074232,0.1687834 0.1185123,0.2556469 -0.1927466,0.1501608 -0.3138636,0.3239171 -0.3555382,0.4381071 -0.076837,0.210943 -0.016928,0.30651 0.096373,0.328832 0.050791,0.01013 0.1237224,-0.01244 0.1784208,-0.03476 0.067725,-0.02111 0.1497704,-0.05708 0.2253044,-0.11043 0.130234,-0.09184 0.255258,-0.219675 0.248747,-0.3921889 -0.0039,-0.079407 -0.02605,-0.1575918 -0.056,-0.2320508 0.164094,-0.064512 0.376375,-0.1017557 0.645958,-0.070731 0.57954,0.064539 0.694146,0.4095387 0.672006,0.5534827 -0.02214,0.143973 -0.143257,0.223406 -0.18363,0.248215 -0.04037,0.02342 -0.0534,0.03224 -0.04949,0.04962 0.0052,0.02603 0.02344,0.02487 0.05861,0.01995 0.04819,-0.0076 0.304747,-0.117888 0.315165,-0.383454 0.01563,-0.3412957 -0.324282,-0.71359 -0.927264,-0.7098892 z M 6.4027942,10.889317 c -0.1914435,0.199781 -0.4610271,0.275513 -0.5756327,0.210972 -0.1237221,-0.06824 -0.075536,-0.362376 0.1601873,-0.57462 0.1432565,-0.129051 0.3294911,-0.248157 0.4519107,-0.321372 0.027347,-0.01619 0.069024,-0.03974 0.1185125,-0.06827 0.00781,-0.0049 0.013025,-0.0076 0.013025,-0.0076 0.00912,-0.0049 0.019531,-0.01128 0.029954,-0.01735 0.087257,0.30278 0.00391,0.568344 -0.1979551,0.778101 z M 7.8028057,9.9821356 C 7.7363866,10.13727 7.5957339,10.535645 7.5110821,10.513293 7.4381515,10.494502 7.3938719,10.193106 7.4967568,9.8952424 7.5488497,9.7450816 7.6595489,9.5663803 7.7246658,9.4968949 7.830155,9.3852211 7.9447609,9.3479773 7.9734119,9.3938962 8.0072726,9.4534582 7.8444808,9.8853244 7.8028057,9.9821356 Z M 8.9579773,10.50832 c -0.028651,0.01359 -0.054697,0.02371 -0.066419,0.01619 -0.00912,-0.0052 0.011722,-0.02371 0.011722,-0.02371 0,0 0.1445591,-0.147644 0.201862,-0.215916 0.032558,-0.03974 0.071628,-0.08562 0.1133029,-0.137756 v 0.01475 c 0,0.178702 -0.1797223,0.297836 -0.2604672,0.346241 z m 0.8907985,-0.193593 c -0.020838,-0.01475 -0.01823,-0.06081 0.052092,-0.204754 0.027342,-0.05708 0.089856,-0.1526477 0.1979552,-0.2432705 0.01302,0.037242 0.02083,0.073215 0.01953,0.106758 C 10.117053,10.196836 9.9503516,10.28 9.8487695,10.314727 Z"
     id="path4-3-2"
     style="fill:#000000;stroke-width:0.23812;opacity:0.3"
     inkscape:connector-curvature="0" />
  <path
     d="m 10.872412,8.9243065 c -0.233119,0.00288 -0.43498,0.054621 -0.604285,0.1340262 -0.06251,-0.1178622 -0.125023,-0.2208897 -0.135442,-0.2978354 -0.01172,-0.089352 -0.02605,-0.1439442 -0.01172,-0.2507022 0.01433,-0.1067004 0.07944,-0.2581338 0.07944,-0.2705385 -0.0013,-0.011277 -0.01433,-0.065781 -0.148466,-0.067023 -0.1341409,-0.00288 -0.250049,0.024867 -0.2630722,0.05832 -0.013018,0.033543 -0.039066,0.1104879 -0.055996,0.189921 C 9.7094306,8.5371218 9.4645904,8.9503606 9.3252403,9.1675495 9.279658,9.0831385 9.240589,9.0086842 9.2327744,8.9491465 9.2210519,8.8597675 9.2067266,8.8051735 9.2210519,8.6984441 9.2353817,8.5917149 9.300494,8.4403394 9.300494,8.4279059 9.299207,8.4166289 9.286166,8.3621519 9.1520275,8.3609099 c -0.1341402,-0.00288 -0.2500483,0.024867 -0.2630716,0.05832 -0.013025,0.033489 -0.027346,0.1129174 -0.056001,0.1898621 -0.027347,0.07695 -0.3529331,0.7669408 -0.4375848,0.9468859 -0.042977,0.091866 -0.080744,0.165082 -0.108094,0.2147017 -0.027347,0.049617 -0.00129,0.00378 -0.00391,0.00864 -0.023441,0.042192 -0.036465,0.065754 -0.036465,0.065754 v 0.0029 c -0.018235,0.03103 -0.037768,0.06081 -0.046884,0.06081 -0.00651,0 -0.019531,-0.083133 0.00261,-0.1973238 0.048187,-0.2394828 0.1653968,-0.6130495 0.1640942,-0.6266692 0,-0.00639 0.022141,-0.072 -0.075535,-0.1055143 -0.095067,-0.033533 -0.1289271,0.022249 -0.1367413,0.022249 -0.00781,0 -0.014328,0.019953 -0.014328,0.019953 0,0 0.1054893,-0.4207287 -0.2018617,-0.4207287 -0.192746,0 -0.4584227,0.1998102 -0.5899583,0.3822123 -0.08335,0.043461 -0.2604672,0.1352989 -0.4480038,0.233353 -0.071628,0.037215 -0.1458618,0.076941 -0.216188,0.1129169 l -0.014325,-0.01503 C 6.2973105,8.9357275 5.6083747,8.6677046 5.637026,8.1588686 5.6474437,7.973951 5.7151656,7.4862531 6.9601996,6.8955562 7.9799291,6.4115307 8.7964936,6.544342 8.9384478,6.8396615 9.1403105,7.2616042 8.5021657,8.0459231 7.4420639,8.1588686 7.0383399,8.2023008 6.8260588,8.0533544 6.7726629,7.9975463 c -0.056,-0.058356 -0.063815,-0.060813 -0.084652,-0.049653 -0.03386,0.017352 -0.013025,0.069489 0,0.100512 0.031257,0.078156 0.1614899,0.217188 0.3828874,0.2867025 0.1940479,0.060786 0.668098,0.094296 1.2411262,-0.1166763 C 8.9540761,7.9814111 9.4554754,7.3236869 9.3083118,6.7739064 9.1585429,6.2141787 8.1843953,6.0305329 7.2636437,6.3420454 6.7153607,6.528178 6.1214953,6.8185528 5.6943289,7.1995793 5.186418,7.6512769 5.1056729,8.0459231 5.1395336,8.2097609 c 0.1185125,0.58451 0.9637286,0.965507 1.3023359,1.2472073 -0.016928,0.00864 -0.032558,0.017352 -0.046884,0.024867 -0.1693038,0.079407 -0.81396,0.4008357 -0.97545,0.7408868 -0.1823264,0.384699 0.028651,0.661454 0.169304,0.698669 C 6.02382,11.036824 6.469219,10.829551 6.7101508,10.488287 6.9497806,10.14702 6.9211292,9.7039687 6.8104309,9.5016721 l -0.00391,-0.00756 0.132838,-0.074457 c 0.085955,-0.048402 0.1706064,-0.093081 0.2448396,-0.1315683 -0.041675,0.107973 -0.071628,0.2358108 -0.087257,0.4219434 -0.018235,0.2184313 0.075536,0.5013748 0.1992574,0.6130768 0.054698,0.04838 0.119815,0.04962 0.1601879,0.04962 0.1432568,0 0.2083736,-0.112916 0.2800016,-0.248186 0.088559,-0.1650516 0.1666992,-0.3561578 0.1666992,-0.3561578 0,0 -0.097675,0.5174808 0.169304,0.5174808 0.097675,0 0.1953504,-0.120377 0.2396296,-0.182431 v 0.0029 c 0,0 0.00261,-0.0038 0.00781,-0.01244 0.010417,-0.01475 0.015626,-0.02371 0.015626,-0.02371 v -0.0029 c 0.03907,-0.06454 0.1263267,-0.2122145 0.2565601,-0.4566995 0.1680013,-0.3152133 0.3294912,-0.70986 0.3294912,-0.70986 0,0 0.015632,0.096811 0.063814,0.2556468 0.028652,0.094324 0.091163,0.1973235 0.1393501,0.2978643 -0.03907,0.05211 -0.062512,0.081891 -0.062512,0.081891 l 0.00129,0.00288 C 9.032199,9.5786716 8.9970351,9.6208906 8.9605701,9.663079 8.8277318,9.8144836 8.6688467,9.9869672 8.6480093,10.036616 c -0.024744,0.05832 -0.019531,0.101755 0.028652,0.136513 0.035163,0.02487 0.097675,0.02978 0.1640942,0.02487 0.1198149,-0.0076 0.2031645,-0.03603 0.2448398,-0.05338 0.065117,-0.02227 0.1393492,-0.05584 0.2109777,-0.105487 0.1302341,-0.09184 0.2096761,-0.2221318 0.2018626,-0.39586 -0.00391,-0.095567 -0.036465,-0.1899207 -0.076838,-0.2792421 0.01172,-0.015903 0.02344,-0.032301 0.035163,-0.049653 0.2057688,-0.2866737 0.3646541,-0.6018881 0.3646541,-0.6018881 0,0 0.01563,0.096811 0.063814,0.255647 0.024741,0.080676 0.074232,0.1687834 0.1185123,0.2556469 -0.1927466,0.1501607 -0.3138636,0.3239174 -0.3555382,0.4381067 -0.076837,0.2109435 -0.016928,0.30651 0.096373,0.3288328 0.050791,0.01013 0.1237224,-0.01244 0.1784208,-0.03476 0.067725,-0.02111 0.1497704,-0.05708 0.2253044,-0.1104309 0.130234,-0.091837 0.255258,-0.2196746 0.248747,-0.3921884 -0.0039,-0.079407 -0.02605,-0.1575918 -0.056,-0.2320508 0.164094,-0.064512 0.376375,-0.1017558 0.645958,-0.070731 0.57954,0.064539 0.694146,0.4095389 0.672006,0.5534822 -0.02214,0.143973 -0.143257,0.223406 -0.18363,0.2482159 -0.04037,0.02342 -0.0534,0.03224 -0.04949,0.04962 0.0052,0.02603 0.02344,0.02487 0.05861,0.01995 0.04819,-0.0076 0.304747,-0.1178893 0.315165,-0.3834558 0.01563,-0.3412953 -0.324282,-0.7135896 -0.927264,-0.7098888 z M 6.4027942,10.360161 C 6.2113507,10.559942 5.9417671,10.635674 5.8271615,10.571133 5.7034394,10.502893 5.7516255,10.208757 5.9873488,9.9965132 6.1306053,9.8674615 6.3168399,9.7483561 6.4392595,9.6751408 c 0.027347,-0.016191 0.069024,-0.039735 0.1185125,-0.068274 0.00781,-0.00495 0.013025,-0.00756 0.013025,-0.00756 0.00912,-0.00495 0.019531,-0.011277 0.029954,-0.017352 0.087257,0.3027801 0.00391,0.5683442 -0.1979551,0.7781012 z M 7.8028057,9.4529794 C 7.7363866,9.6081133 7.5957339,10.006489 7.5110821,9.9841372 7.4381515,9.9653454 7.3938719,9.6639502 7.4967568,9.3660862 7.5488497,9.2159254 7.6595489,9.0372241 7.7246658,8.9677387 7.830155,8.8560649 7.9447609,8.8188211 7.9734119,8.86474 8.0072726,8.924302 7.8444808,9.3561682 7.8028057,9.4529794 Z m 1.1551716,0.5261848 c -0.028651,0.01359 -0.054697,0.02371 -0.066419,0.01619 -0.00912,-0.0052 0.011722,-0.02371 0.011722,-0.02371 0,0 0.1445591,-0.1476447 0.201862,-0.215916 0.032558,-0.039735 0.071628,-0.085617 0.1133029,-0.1377561 v 0.014751 c 0,0.1787016 -0.1797223,0.2978352 -0.2604672,0.3462409 z M 9.8487758,9.7855711 c -0.020838,-0.014751 -0.01823,-0.060813 0.052092,-0.2047548 0.027342,-0.057078 0.089856,-0.1526472 0.1979552,-0.24327 0.01302,0.037242 0.02083,0.073215 0.01953,0.106758 -0.0013,0.2233755 -0.1680014,0.3065394 -0.2695835,0.3412668 z"
     id="path4-3"
     style="fill:url(#linearGradient10);stroke-width:0.23812"
     inkscape:connector-curvature="0" />
  <rect
     style="opacity:0.5;fill:none;fill-opacity:0.996424;stroke:url(#linearGradient9);stroke-width:0.50832;stroke-dasharray:none;stroke-opacity:1"
     id="rect1-2-6"
     width="8.9234324"
     height="12.035513"
     x="4.0584631"
     y="2.3962882"
     rx="1.5176033"
     ry="2.2109985" />
</svg>
