<?xml version="1.0" encoding="UTF-8" standalone="no"?>
<svg
   width="64"
   height="64"
   version="1.1"
   viewBox="0 0 16.933 16.933"
   id="svg7"
   sodipodi:docname="application-java.svg"
   inkscape:version="1.3.2 (091e20ef0f, 2023-11-25)"
   xmlns:inkscape="http://www.inkscape.org/namespaces/inkscape"
   xmlns:sodipodi="http://sodipodi.sourceforge.net/DTD/sodipodi-0.dtd"
   xmlns:xlink="http://www.w3.org/1999/xlink"
   xmlns="http://www.w3.org/2000/svg"
   xmlns:svg="http://www.w3.org/2000/svg"
   xmlns:rdf="http://www.w3.org/1999/02/22-rdf-syntax-ns#"
   xmlns:cc="http://creativecommons.org/ns#"
   xmlns:dc="http://purl.org/dc/elements/1.1/">
  <sodipodi:namedview
     id="namedview7"
     pagecolor="#9c4444"
     bordercolor="#000000"
     borderopacity="0.25"
     inkscape:showpageshadow="2"
     inkscape:pageopacity="0.0"
     inkscape:pagecheckerboard="0"
     inkscape:deskcolor="#d1d1d1"
     inkscape:zoom="4.3531261"
     inkscape:cx="47.666894"
     inkscape:cy="16.999278"
     inkscape:window-width="1463"
     inkscape:window-height="604"
     inkscape:window-x="199"
     inkscape:window-y="276"
     inkscape:window-maximized="0"
     inkscape:current-layer="svg7"
     showgrid="false" />
  <defs
     id="defs2">
    <linearGradient
       id="linearGradient5"
       inkscape:collect="always">
      <stop
         style="stop-color:#392713;stop-opacity:1;"
         offset="0"
         id="stop2" />
      <stop
         style="stop-color:#eed59e;stop-opacity:1;"
         offset="0.5"
         id="stop3" />
      <stop
         style="stop-color:#beaa8a;stop-opacity:1;"
         offset="1"
         id="stop4" />
    </linearGradient>
    <linearGradient
       id="linearGradient8"
       inkscape:collect="always">
      <stop
         style="stop-color:#1a1a1a;stop-opacity:1;"
         offset="0"
         id="stop8" />
      <stop
         style="stop-color:#ffffff;stop-opacity:0;"
         offset="1"
         id="stop9" />
    </linearGradient>
    <linearGradient
       inkscape:collect="always"
       xlink:href="#linearGradient5"
       id="linearGradient41"
       x1="13.675659"
       y1="16.110115"
       x2="13.728528"
       y2="10.548769"
       gradientUnits="userSpaceOnUse"
       gradientTransform="matrix(1.6061171,0,0,2.1084059,-12.924569,-19.742698)" />
    <linearGradient
       inkscape:collect="always"
       xlink:href="#linearGradient42"
       id="linearGradient4"
       x1="11.885941"
       y1="16.50819"
       x2="12.026573"
       y2="10.244942"
       gradientUnits="userSpaceOnUse"
       gradientTransform="matrix(1.6061171,0,0,2.1084059,-12.924569,-19.742698)" />
    <linearGradient
       id="linearGradient42"
       inkscape:collect="always">
      <stop
         style="stop-color:#010101;stop-opacity:1;"
         offset="0"
         id="stop42" />
      <stop
         style="stop-color:#6e6c6d;stop-opacity:1;"
         offset="1"
         id="stop43" />
    </linearGradient>
    <linearGradient
       inkscape:collect="always"
       xlink:href="#linearGradient8"
       id="linearGradient9"
       x1="9.3404646"
       y1="4.1692023"
       x2="9.4279938"
       y2="16.46883"
       gradientUnits="userSpaceOnUse"
       gradientTransform="matrix(0.80952478,0,0,1.0980733,1.5663172,-0.59391329)" />
    <filter
       style="color-interpolation-filters:sRGB;"
       inkscape:label="Blur"
       id="filter2"
       x="-0.14510849"
       y="-0.14612901"
       width="1.290217"
       height="1.292258">
      <feGaussianBlur
         stdDeviation="0.6 0.6"
         result="blur"
         id="feGaussianBlur2" />
    </filter>
    <linearGradient
       inkscape:collect="always"
       xlink:href="#linearGradient5"
       id="linearGradient25"
       x1="8.7863388"
       y1="10.067992"
       x2="8.7900038"
       y2="6.7091131"
       gradientUnits="userSpaceOnUse" />
  </defs>
  <metadata
     id="metadata2">
    <rdf:RDF>
      <cc:Work
         rdf:about="">
        <dc:format>image/svg+xml</dc:format>
        <dc:type
           rdf:resource="http://purl.org/dc/dcmitype/StillImage" />
      </cc:Work>
    </rdf:RDF>
  </metadata>
  <rect
     style="fill:#000000;fill-opacity:0.996424;stroke:#000000;stroke-width:0.911802;stroke-dasharray:none;stroke-opacity:1;filter:url(#filter2)"
     id="rect1-2-3"
     width="13.065404"
     height="12.974159"
     x="1.9816793"
     y="1.9267306"
     rx="2.7149384"
     ry="2.8310909"
     transform="matrix(0.78494475,0,0,1.0304244,1.8310625,-0.25598506)" />
  <rect
     style="fill:url(#linearGradient4);fill-opacity:0.996424;stroke:url(#linearGradient41);stroke-width:0.820027;stroke-dasharray:none;stroke-opacity:1"
     id="rect1-2"
     width="10.25562"
     height="13.36889"
     x="3.3865712"
     y="1.7293652"
     rx="2.1310766"
     ry="2.9172251" />
  <path
     d="M 5.6884297,7.2494406 V 8.0431749 H 6.4821641 V 9.8952224 H 5.6884297 V 10.688957 H 8.3342109 V 9.8952224 H 7.5404766 V 9.3660661 H 8.4665 c 0.2191837,0 0.3968672,0.177684 0.3968672,0.396867 v 0.1322893 c 4.762e-4,0.3040316 0.13168,0.5931756 0.3601776,0.7937346 H 11.14897 c 0.228497,-0.200559 0.359703,-0.489703 0.360177,-0.7937346 V 9.3660661 h -1.058312 v 0.264578 c 0,0.146123 -0.118456,0.2645783 -0.264578,0.2645783 -0.146123,0 -0.2645774,-0.1184553 -0.2645774,-0.2645783 v -0.132289 c 0,-0.2191843 -0.1776835,-0.3968673 -0.3968671,-0.3968673 H 9.2602344 c 0.5114287,0 0.9260226,-0.4145953 0.9260226,-0.9260238 0,-0.5114287 -0.4145939,-0.9260234 -0.9260226,-0.9260234 z M 7.5404766,8.0431749 H 8.4665 c 0.2191837,0 0.3968672,0.1776836 0.3968672,0.3968677 0,0.2191829 -0.1776835,0.3968673 -0.3968672,0.3968673 H 7.5404766 Z"
     fill="#e8d9eb"
     stroke-width="0.0692943"
     id="path11-7"
     style="fill:#000000;opacity:0.3" />
  <path
     d="M 5.6884297,6.7202844 V 7.5140187 H 6.4821641 V 9.3660662 H 5.6884297 V 10.159801 H 8.3342109 V 9.3660662 H 7.5404766 V 8.8369099 H 8.4665 c 0.2191837,0 0.3968672,0.177684 0.3968672,0.396867 v 0.1322893 c 4.762e-4,0.304032 0.13168,0.5931752 0.3601776,0.7937348 H 11.14897 C 11.377467,9.9592414 11.508673,9.6700982 11.509147,9.3660662 V 8.8369099 h -1.058312 v 0.264578 c 0,0.146123 -0.118456,0.2645783 -0.264578,0.2645783 -0.146123,0 -0.2645774,-0.1184553 -0.2645774,-0.2645783 v -0.132289 c 0,-0.2191843 -0.1776835,-0.3968673 -0.3968671,-0.3968673 H 9.2602344 c 0.5114287,0 0.9260226,-0.4145953 0.9260226,-0.9260238 0,-0.5114287 -0.4145939,-0.9260234 -0.9260226,-0.9260234 z M 7.5404766,7.5140187 H 8.4665 c 0.2191837,0 0.3968672,0.1776836 0.3968672,0.3968677 0,0.2191829 -0.1776835,0.3968673 -0.3968672,0.3968673 H 7.5404766 Z"
     fill="#e8d9eb"
     stroke-width="0.0692943"
     id="path11"
     style="fill:url(#linearGradient25)" />
  <rect
     style="opacity:0.5;fill:none;fill-opacity:0.996424;stroke:url(#linearGradient9);stroke-width:0.50832;stroke-dasharray:none;stroke-opacity:1"
     id="rect1-2-6"
     width="8.9234324"
     height="12.035513"
     x="4.0584631"
     y="2.3962882"
     rx="1.5176033"
     ry="2.2109985" />
</svg>
