<?xml version="1.0" encoding="UTF-8" standalone="no"?>
<svg
   width="64"
   height="64"
   version="1.1"
   viewBox="0 0 16.933 16.933"
   id="svg7"
   sodipodi:docname="application-wps-office.dotx.svg"
   inkscape:version="1.3.2 (091e20ef0f, 2023-11-25)"
   xmlns:inkscape="http://www.inkscape.org/namespaces/inkscape"
   xmlns:sodipodi="http://sodipodi.sourceforge.net/DTD/sodipodi-0.dtd"
   xmlns:xlink="http://www.w3.org/1999/xlink"
   xmlns="http://www.w3.org/2000/svg"
   xmlns:svg="http://www.w3.org/2000/svg"
   xmlns:rdf="http://www.w3.org/1999/02/22-rdf-syntax-ns#"
   xmlns:cc="http://creativecommons.org/ns#"
   xmlns:dc="http://purl.org/dc/elements/1.1/">
  <sodipodi:namedview
     id="namedview7"
     pagecolor="#9c4444"
     bordercolor="#000000"
     borderopacity="0.25"
     inkscape:showpageshadow="2"
     inkscape:pageopacity="0.0"
     inkscape:pagecheckerboard="0"
     inkscape:deskcolor="#d1d1d1"
     inkscape:zoom="8.7062522"
     inkscape:cx="33.251966"
     inkscape:cy="29.863596"
     inkscape:window-width="1463"
     inkscape:window-height="664"
     inkscape:window-x="153"
     inkscape:window-y="302"
     inkscape:window-maximized="0"
     inkscape:current-layer="svg7"
     showgrid="false" />
  <defs
     id="defs2">
    <linearGradient
       id="linearGradient5"
       inkscape:collect="always">
      <stop
         style="stop-color:#392713;stop-opacity:1;"
         offset="0"
         id="stop2" />
      <stop
         style="stop-color:#eed59e;stop-opacity:1;"
         offset="0.5"
         id="stop3" />
      <stop
         style="stop-color:#beaa8a;stop-opacity:1;"
         offset="1"
         id="stop4" />
    </linearGradient>
    <linearGradient
       id="linearGradient8"
       inkscape:collect="always">
      <stop
         style="stop-color:#1a1a1a;stop-opacity:1;"
         offset="0"
         id="stop8" />
      <stop
         style="stop-color:#ffffff;stop-opacity:0;"
         offset="1"
         id="stop9" />
    </linearGradient>
    <linearGradient
       inkscape:collect="always"
       xlink:href="#linearGradient5"
       id="linearGradient41"
       x1="13.675659"
       y1="16.110115"
       x2="13.728528"
       y2="10.548769"
       gradientUnits="userSpaceOnUse"
       gradientTransform="matrix(1.6061171,0,0,2.1084059,-12.924569,-19.742698)" />
    <linearGradient
       inkscape:collect="always"
       xlink:href="#linearGradient42"
       id="linearGradient4"
       x1="11.885941"
       y1="16.50819"
       x2="12.026573"
       y2="10.244942"
       gradientUnits="userSpaceOnUse"
       gradientTransform="matrix(1.6061171,0,0,2.1084059,-12.924569,-19.742698)" />
    <linearGradient
       id="linearGradient42"
       inkscape:collect="always">
      <stop
         style="stop-color:#010101;stop-opacity:1;"
         offset="0"
         id="stop42" />
      <stop
         style="stop-color:#6e6c6d;stop-opacity:1;"
         offset="1"
         id="stop43" />
    </linearGradient>
    <linearGradient
       inkscape:collect="always"
       xlink:href="#linearGradient8"
       id="linearGradient9"
       x1="9.3404646"
       y1="4.1692023"
       x2="9.4279938"
       y2="16.46883"
       gradientUnits="userSpaceOnUse"
       gradientTransform="matrix(0.80952478,0,0,1.0980733,1.5663172,-0.59391329)" />
    <filter
       style="color-interpolation-filters:sRGB;"
       inkscape:label="Blur"
       id="filter2"
       x="-0.14510849"
       y="-0.14612901"
       width="1.290217"
       height="1.292258">
      <feGaussianBlur
         stdDeviation="0.6 0.6"
         result="blur"
         id="feGaussianBlur2" />
    </filter>
    <linearGradient
       inkscape:collect="always"
       xlink:href="#linearGradient5"
       id="linearGradient13"
       x1="8.6340609"
       y1="11.800621"
       x2="8.7389297"
       y2="5.4339557"
       gradientUnits="userSpaceOnUse" />
  </defs>
  <metadata
     id="metadata2">
    <rdf:RDF>
      <cc:Work
         rdf:about="">
        <dc:format>image/svg+xml</dc:format>
        <dc:type
           rdf:resource="http://purl.org/dc/dcmitype/StillImage" />
      </cc:Work>
    </rdf:RDF>
  </metadata>
  <rect
     style="fill:#000000;fill-opacity:0.996424;stroke:#000000;stroke-width:0.911802;stroke-dasharray:none;stroke-opacity:1;filter:url(#filter2)"
     id="rect1-2-3"
     width="13.065404"
     height="12.974159"
     x="1.9816793"
     y="1.9267306"
     rx="2.7149384"
     ry="2.8310909"
     transform="matrix(0.78494475,0,0,1.0304244,1.8310625,-0.25598506)" />
  <rect
     style="fill:url(#linearGradient4);fill-opacity:0.996424;stroke:url(#linearGradient41);stroke-width:0.820027;stroke-dasharray:none;stroke-opacity:1"
     id="rect1-2"
     width="10.25562"
     height="13.36889"
     x="3.3865712"
     y="1.7293652"
     rx="2.1310766"
     ry="2.9172251" />
  <path
     d="m 7.884428,5.92655 c -0.4837017,0 -0.8731079,0.3894061 -0.8731079,0.8731079 V 7.3817297 H 8.4664998 V 7.6727656 H 6.4292483 c -0.6449356,0 -1.1641437,0.5192083 -1.1641437,1.1641443 v 0.582072 c 0,0.6449361 0.5192081,1.1641451 1.1641437,1.1641451 v -0.582073 c 0,-0.5357974 0.3603025,-0.9805001 0.8515712,-1.116997 0.042782,-0.011935 0.086438,-0.020955 0.1306751,-0.029106 0.059663,-0.00935 0.1196158,-0.01804 0.1818975,-0.01804 H 9.6961267 C 9.8349508,8.6823706 9.9216795,8.4798089 9.9216795,8.2548391 V 6.7996579 C 9.9216795,6.3159561 9.5322734,5.92655 9.0485717,5.92655 Z M 7.5933921,6.5086219 c 0.1612339,0 0.2910359,0.129802 0.2910359,0.291036 0,0.1612338 -0.129802,0.2910359 -0.2910359,0.2910359 -0.161234,0 -0.2910359,-0.1298021 -0.2910359,-0.2910359 0,-0.161234 0.1298019,-0.291036 0.2910359,-0.291036 m 2.9103599,1.1641437 v 0.5820725 c 0,0.5357971 -0.360303,0.9804996 -0.8515718,1.1169955 -0.042782,0.011935 -0.086438,0.020955 -0.1306751,0.029106 -0.059663,0.00935 -0.1196158,0.01804 -0.1818975,0.01804 H 7.2368731 C 7.0980489,9.5735197 7.0113201,9.7760803 7.0113201,10.001052 v 1.455179 c 0,0.483702 0.3894062,0.873108 0.8731079,0.873108 h 1.1641437 c 0.4837017,0 0.8731078,-0.389406 0.8731078,-0.873108 V 10.874162 H 8.4664998 v -0.291035 h 2.0372522 c 0.644935,0 1.164143,-0.519209 1.164143,-1.1641452 V 8.8369099 c 0,-0.6449362 -0.519208,-1.1641443 -1.164143,-1.1641443 M 9.3396076,11.165198 c 0.161234,0 0.291036,0.129802 0.291036,0.291036 0,0.161233 -0.129802,0.291035 -0.291036,0.291035 -0.1612339,0 -0.2910359,-0.129802 -0.2910359,-0.291035 0,-0.161234 0.129802,-0.291036 0.2910359,-0.291036"
     fill="#fde3a7"
     id="path11-9"
     style="fill:#000000;stroke-width:0.291036;opacity:0.3" />
  <path
     d="m 7.884428,5.3973938 c -0.4837017,0 -0.8731079,0.3894061 -0.8731079,0.8731079 V 6.8525735 H 8.4664998 V 7.1436094 H 6.4292483 c -0.6449356,0 -1.1641437,0.5192083 -1.1641437,1.1641443 v 0.582072 c 0,0.6449358 0.5192081,1.1641453 1.1641437,1.1641453 V 9.4718976 c 0,-0.5357972 0.3603025,-0.9804999 0.8515712,-1.1169968 0.042782,-0.011935 0.086438,-0.020955 0.1306751,-0.029106 0.059663,-0.00935 0.1196158,-0.01804 0.1818975,-0.01804 H 9.6961267 C 9.8349508,8.1532144 9.9216795,7.9506527 9.9216795,7.7256829 V 6.2705017 c 0,-0.4837018 -0.3894061,-0.8731079 -0.8731078,-0.8731079 z M 7.5933921,5.9794657 c 0.1612339,0 0.2910359,0.129802 0.2910359,0.291036 0,0.1612338 -0.129802,0.2910359 -0.2910359,0.2910359 -0.161234,0 -0.2910359,-0.1298021 -0.2910359,-0.2910359 0,-0.161234 0.1298019,-0.291036 0.2910359,-0.291036 m 2.9103599,1.1641437 v 0.5820724 c 0,0.5357971 -0.360303,0.9804996 -0.8515718,1.1169956 -0.042782,0.011935 -0.086438,0.020955 -0.1306751,0.029106 -0.059663,0.00935 -0.1196158,0.01804 -0.1818975,0.01804 H 7.2368731 c -0.1388242,0.1545401 -0.225553,0.3571007 -0.225553,0.582072 v 1.4551796 c 0,0.483702 0.3894062,0.873108 0.8731079,0.873108 h 1.1641437 c 0.4837017,0 0.8731078,-0.389406 0.8731078,-0.873108 V 10.345006 H 8.4664998 v -0.291035 h 2.0372522 c 0.644935,0 1.164143,-0.5192095 1.164143,-1.1641454 V 8.3077537 c 0,-0.6449362 -0.519208,-1.1641443 -1.164143,-1.1641443 M 9.3396076,10.636042 c 0.161234,0 0.291036,0.129802 0.291036,0.291036 0,0.161233 -0.129802,0.291035 -0.291036,0.291035 -0.1612339,0 -0.2910359,-0.129802 -0.2910359,-0.291035 0,-0.161234 0.129802,-0.291036 0.2910359,-0.291036"
     fill="#fde3a7"
     id="path11"
     style="fill:url(#linearGradient13);stroke-width:0.291036" />
  <rect
     style="opacity:0.5;fill:none;fill-opacity:0.996424;stroke:url(#linearGradient9);stroke-width:0.50832;stroke-dasharray:none;stroke-opacity:1"
     id="rect1-2-6"
     width="8.9234324"
     height="12.035513"
     x="4.0584631"
     y="2.3962882"
     rx="1.5176033"
     ry="2.2109985" />
</svg>
