<?xml version="1.0" encoding="UTF-8" standalone="no"?>
<svg
   width="64"
   height="64"
   version="1.1"
   viewBox="0 0 16.933 16.933"
   id="svg7"
   sodipodi:docname="application-wps-office.dotx.svg"
   inkscape:version="1.3.2 (091e20ef0f, 2023-11-25)"
   xmlns:inkscape="http://www.inkscape.org/namespaces/inkscape"
   xmlns:sodipodi="http://sodipodi.sourceforge.net/DTD/sodipodi-0.dtd"
   xmlns:xlink="http://www.w3.org/1999/xlink"
   xmlns="http://www.w3.org/2000/svg"
   xmlns:svg="http://www.w3.org/2000/svg"
   xmlns:rdf="http://www.w3.org/1999/02/22-rdf-syntax-ns#"
   xmlns:cc="http://creativecommons.org/ns#"
   xmlns:dc="http://purl.org/dc/elements/1.1/">
  <sodipodi:namedview
     id="namedview7"
     pagecolor="#9c4444"
     bordercolor="#000000"
     borderopacity="0.25"
     inkscape:showpageshadow="2"
     inkscape:pageopacity="0.0"
     inkscape:pagecheckerboard="0"
     inkscape:deskcolor="#d1d1d1"
     inkscape:zoom="8.7062522"
     inkscape:cx="33.251966"
     inkscape:cy="29.863596"
     inkscape:window-width="1463"
     inkscape:window-height="664"
     inkscape:window-x="153"
     inkscape:window-y="302"
     inkscape:window-maximized="0"
     inkscape:current-layer="svg7"
     showgrid="false" />
  <defs
     id="defs2">
    <linearGradient
       id="linearGradient5"
       inkscape:collect="always">
      <stop
         style="stop-color:#392713;stop-opacity:1;"
         offset="0"
         id="stop2" />
      <stop
         style="stop-color:#eed59e;stop-opacity:1;"
         offset="0.5"
         id="stop3" />
      <stop
         style="stop-color:#beaa8a;stop-opacity:1;"
         offset="1"
         id="stop4" />
    </linearGradient>
    <linearGradient
       id="linearGradient8"
       inkscape:collect="always">
      <stop
         style="stop-color:#1a1a1a;stop-opacity:1;"
         offset="0"
         id="stop8" />
      <stop
         style="stop-color:#ffffff;stop-opacity:0;"
         offset="1"
         id="stop9" />
    </linearGradient>
    <linearGradient
       inkscape:collect="always"
       xlink:href="#linearGradient5"
       id="linearGradient41"
       x1="13.675659"
       y1="16.110115"
       x2="13.728528"
       y2="10.548769"
       gradientUnits="userSpaceOnUse"
       gradientTransform="matrix(1.6061171,0,0,2.1084059,-12.924569,-19.742698)" />
    <linearGradient
       inkscape:collect="always"
       xlink:href="#linearGradient42"
       id="linearGradient4"
       x1="11.885941"
       y1="16.50819"
       x2="12.026573"
       y2="10.244942"
       gradientUnits="userSpaceOnUse"
       gradientTransform="matrix(1.6061171,0,0,2.1084059,-12.924569,-19.742698)" />
    <linearGradient
       id="linearGradient42"
       inkscape:collect="always">
      <stop
         style="stop-color:#010101;stop-opacity:1;"
         offset="0"
         id="stop42" />
      <stop
         style="stop-color:#6e6c6d;stop-opacity:1;"
         offset="1"
         id="stop43" />
    </linearGradient>
    <linearGradient
       inkscape:collect="always"
       xlink:href="#linearGradient8"
       id="linearGradient9"
       x1="9.3404646"
       y1="4.1692023"
       x2="9.4279938"
       y2="16.46883"
       gradientUnits="userSpaceOnUse"
       gradientTransform="matrix(0.80952478,0,0,1.0980733,1.5663172,-0.59391329)" />
    <filter
       style="color-interpolation-filters:sRGB;"
       inkscape:label="Blur"
       id="filter2"
       x="-0.14510849"
       y="-0.14612901"
       width="1.290217"
       height="1.292258">
      <feGaussianBlur
         stdDeviation="0.6 0.6"
         result="blur"
         id="feGaussianBlur2" />
    </filter>
    <linearGradient
       inkscape:collect="always"
       xlink:href="#linearGradient5"
       id="linearGradient17"
       x1="9.2046175"
       y1="11.754964"
       x2="9.094739"
       y2="5.9093719"
       gradientUnits="userSpaceOnUse" />
  </defs>
  <metadata
     id="metadata2">
    <rdf:RDF>
      <cc:Work
         rdf:about="">
        <dc:format>image/svg+xml</dc:format>
        <dc:type
           rdf:resource="http://purl.org/dc/dcmitype/StillImage" />
      </cc:Work>
    </rdf:RDF>
  </metadata>
  <rect
     style="fill:#000000;fill-opacity:0.996424;stroke:#000000;stroke-width:0.911802;stroke-dasharray:none;stroke-opacity:1;filter:url(#filter2)"
     id="rect1-2-3"
     width="13.065404"
     height="12.974159"
     x="1.9816793"
     y="1.9267306"
     rx="2.7149384"
     ry="2.8310909"
     transform="matrix(0.78494475,0,0,1.0304244,1.8310625,-0.25598506)" />
  <rect
     style="fill:url(#linearGradient4);fill-opacity:0.996424;stroke:url(#linearGradient41);stroke-width:0.820027;stroke-dasharray:none;stroke-opacity:1"
     id="rect1-2"
     width="10.25562"
     height="13.36889"
     x="3.3865712"
     y="1.7293652"
     rx="2.1310766"
     ry="2.9172251" />
  <path
     fill="#f5f7fa"
     d="M 9.4496708,6.3795077 7.924252,6.3825742 C 8.0902735,6.4887034 8.3103289,6.7266829 8.4917073,6.998955 8.6942992,7.3030732 8.8555358,7.6530183 8.9767917,7.9587984 L 8.5466226,8.2102576 9.9195015,8.2071965 10.560178,6.9928276 10.218484,7.2228217 10.001874,6.8088328 C 9.8566488,6.5752138 9.7235065,6.4058092 9.4496708,6.3795128 Z m -1.8884692,0.049065 c -0.093135,-0.00201 -0.1923975,0.014594 -0.3020328,0.058266 L 6.594086,7.4773458 7.7656081,8.26546 8.3940803,7.0725561 C 8.2203932,6.8149872 7.9647896,6.4371776 7.5612016,6.4285727 Z m 3.2186364,1.6835571 -1.1806755,0.7635825 0.5461015,1.1898397 0.469828,0.0031 c 0.274381,0.0032 0.715932,-0.4032364 0.698642,-0.6961174 z M 6.8656109,8.409591 5.5903608,8.480121 5.9991731,8.7039831 5.8618851,8.9953093 c -0.4430627,0.9521226 0.1173698,1.4164167 0.7810148,2.3428747 -0.094834,-0.229998 -0.089138,-0.476142 -0.0061,-0.714516 L 7.2256114,9.3571657 7.594763,9.5503617 Z M 9.370349,9.7742236 8.7418765,10.979394 9.370349,12.16923 9.373339,11.678575 H 9.6814755 C 10.675744,11.678205 10.813112,10.936263 11.29232,9.8876869 11.142169,10.08106 10.933893,10.182865 10.697405,10.209679 l -1.3240646,0.0031 z m -0.9915224,0.3925234 -1.3698262,0.046 -0.2135588,0.444655 c -0.1250245,0.261279 0.018756,0.867239 0.2715252,0.981308 H 8.369674 Z"
     id="path42-2"
     style="fill:#000000;fill-opacity:1;stroke:none;stroke-width:0.264577;stroke-dasharray:none;stroke-opacity:0.3;opacity:0.3" />
  <path
     fill="#f5f7fa"
     d="M 9.4496708,5.8503515 7.924252,5.853418 C 8.0902735,5.9595472 8.3103289,6.1975267 8.4917073,6.4697988 8.6942992,6.773917 8.8555358,7.1238621 8.9767917,7.4296422 L 8.5466226,7.6811014 9.9195015,7.6780403 10.560178,6.4636714 10.218484,6.6936655 10.001874,6.2796766 C 9.8566488,6.0460576 9.7235065,5.876653 9.4496708,5.8503566 Z m -1.8884692,0.049065 c -0.093135,-0.00201 -0.1923975,0.014594 -0.3020328,0.058266 L 6.594086,6.9481896 7.7656081,7.7363038 8.3940803,6.5433999 C 8.2203932,6.285831 7.9647896,5.9080214 7.5612016,5.8994165 Z m 3.2186364,1.6835571 -1.1806755,0.7635825 0.5461015,1.1898396 0.469828,0.0031 c 0.274381,0.0032 0.715932,-0.4032363 0.698642,-0.6961173 z m -3.9142271,0.2974612 -1.2752501,0.07053 0.4088123,0.2238621 -0.137288,0.2913262 c -0.4430627,0.9521226 0.1173698,1.416417 0.7810148,2.3428749 -0.094834,-0.229998 -0.089138,-0.476142 -0.0061,-0.714516 L 7.2256114,8.8280095 7.594763,9.0212055 Z M 9.370349,9.2450674 8.7418765,10.450238 9.370349,11.640074 9.373339,11.149419 h 0.3081365 c 0.9942685,-3.7e-4 1.1316365,-0.742312 1.6108445,-1.7908883 -0.150151,0.193373 -0.358427,0.295178 -0.594915,0.321992 l -1.3240646,0.0031 z m -0.9915224,0.3925233 -1.3698262,0.046 -0.2135588,0.4446553 c -0.1250245,0.261279 0.018756,0.867239 0.2715252,0.981308 H 8.369674 Z"
     id="path42"
     style="fill:url(#linearGradient17);fill-opacity:1;stroke:none;stroke-width:0.264577;stroke-dasharray:none;stroke-opacity:0.3" />
  <rect
     style="opacity:0.5;fill:none;fill-opacity:0.996424;stroke:url(#linearGradient9);stroke-width:0.50832;stroke-dasharray:none;stroke-opacity:1"
     id="rect1-2-6"
     width="8.9234324"
     height="12.035513"
     x="4.0584631"
     y="2.3962882"
     rx="1.5176033"
     ry="2.2109985" />
</svg>
