<?xml version="1.0" encoding="UTF-8" standalone="no"?>
<svg
   width="64"
   height="64"
   version="1.1"
   viewBox="0 0 16.933 16.933"
   id="svg7"
   sodipodi:docname="application-java.svg"
   inkscape:version="1.3.2 (091e20ef0f, 2023-11-25)"
   xmlns:inkscape="http://www.inkscape.org/namespaces/inkscape"
   xmlns:sodipodi="http://sodipodi.sourceforge.net/DTD/sodipodi-0.dtd"
   xmlns:xlink="http://www.w3.org/1999/xlink"
   xmlns="http://www.w3.org/2000/svg"
   xmlns:svg="http://www.w3.org/2000/svg"
   xmlns:rdf="http://www.w3.org/1999/02/22-rdf-syntax-ns#"
   xmlns:cc="http://creativecommons.org/ns#"
   xmlns:dc="http://purl.org/dc/elements/1.1/">
  <sodipodi:namedview
     id="namedview7"
     pagecolor="#9c4444"
     bordercolor="#000000"
     borderopacity="0.25"
     inkscape:showpageshadow="2"
     inkscape:pageopacity="0.0"
     inkscape:pagecheckerboard="0"
     inkscape:deskcolor="#d1d1d1"
     inkscape:zoom="4.3531261"
     inkscape:cx="47.666894"
     inkscape:cy="16.999278"
     inkscape:window-width="1463"
     inkscape:window-height="604"
     inkscape:window-x="199"
     inkscape:window-y="276"
     inkscape:window-maximized="0"
     inkscape:current-layer="svg7"
     showgrid="false" />
  <defs
     id="defs2">
    <linearGradient
       id="linearGradient5"
       inkscape:collect="always">
      <stop
         style="stop-color:#392713;stop-opacity:1;"
         offset="0"
         id="stop2" />
      <stop
         style="stop-color:#eed59e;stop-opacity:1;"
         offset="0.5"
         id="stop3" />
      <stop
         style="stop-color:#beaa8a;stop-opacity:1;"
         offset="1"
         id="stop4" />
    </linearGradient>
    <linearGradient
       id="linearGradient8"
       inkscape:collect="always">
      <stop
         style="stop-color:#1a1a1a;stop-opacity:1;"
         offset="0"
         id="stop8" />
      <stop
         style="stop-color:#ffffff;stop-opacity:0;"
         offset="1"
         id="stop9" />
    </linearGradient>
    <linearGradient
       inkscape:collect="always"
       xlink:href="#linearGradient5"
       id="linearGradient41"
       x1="13.675659"
       y1="16.110115"
       x2="13.728528"
       y2="10.548769"
       gradientUnits="userSpaceOnUse"
       gradientTransform="matrix(1.6061171,0,0,2.1084059,-12.924569,-19.742698)" />
    <linearGradient
       inkscape:collect="always"
       xlink:href="#linearGradient42"
       id="linearGradient4"
       x1="11.885941"
       y1="16.50819"
       x2="12.026573"
       y2="10.244942"
       gradientUnits="userSpaceOnUse"
       gradientTransform="matrix(1.6061171,0,0,2.1084059,-12.924569,-19.742698)" />
    <linearGradient
       id="linearGradient42"
       inkscape:collect="always">
      <stop
         style="stop-color:#010101;stop-opacity:1;"
         offset="0"
         id="stop42" />
      <stop
         style="stop-color:#6e6c6d;stop-opacity:1;"
         offset="1"
         id="stop43" />
    </linearGradient>
    <linearGradient
       inkscape:collect="always"
       xlink:href="#linearGradient8"
       id="linearGradient9"
       x1="9.3404646"
       y1="4.1692023"
       x2="9.4279938"
       y2="16.46883"
       gradientUnits="userSpaceOnUse"
       gradientTransform="matrix(0.80952478,0,0,1.0980733,1.5663172,-0.59391329)" />
    <filter
       style="color-interpolation-filters:sRGB;"
       inkscape:label="Blur"
       id="filter2"
       x="-0.14510849"
       y="-0.14612901"
       width="1.290217"
       height="1.292258">
      <feGaussianBlur
         stdDeviation="0.6 0.6"
         result="blur"
         id="feGaussianBlur2" />
    </filter>
    <linearGradient
       inkscape:collect="always"
       xlink:href="#linearGradient5"
       id="linearGradient18"
       x1="8.9393425"
       y1="10.472485"
       x2="8.9348879"
       y2="6.2852898"
       gradientUnits="userSpaceOnUse" />
  </defs>
  <metadata
     id="metadata2">
    <rdf:RDF>
      <cc:Work
         rdf:about="">
        <dc:format>image/svg+xml</dc:format>
        <dc:type
           rdf:resource="http://purl.org/dc/dcmitype/StillImage" />
      </cc:Work>
    </rdf:RDF>
  </metadata>
  <rect
     style="fill:#000000;fill-opacity:0.996424;stroke:#000000;stroke-width:0.911802;stroke-dasharray:none;stroke-opacity:1;filter:url(#filter2)"
     id="rect1-2-3"
     width="13.065404"
     height="12.974159"
     x="1.9816793"
     y="1.9267306"
     rx="2.7149384"
     ry="2.8310909"
     transform="matrix(0.78494475,0,0,1.0304244,1.8310625,-0.25598506)" />
  <rect
     style="fill:url(#linearGradient4);fill-opacity:0.996424;stroke:url(#linearGradient41);stroke-width:0.820027;stroke-dasharray:none;stroke-opacity:1"
     id="rect1-2"
     width="10.25562"
     height="13.36889"
     x="3.3865712"
     y="1.7293652"
     rx="2.1310766"
     ry="2.9172251" />
  <rect
     style="opacity:0.5;fill:none;fill-opacity:0.996424;stroke:url(#linearGradient9);stroke-width:0.50832;stroke-dasharray:none;stroke-opacity:1"
     id="rect1-2-6"
     width="8.9234324"
     height="12.035513"
     x="4.0584631"
     y="2.3962882"
     rx="1.5176033"
     ry="2.2109985" />
  <path
     id="path16-1"
     style="fill:#000000;stroke-width:0.0303894;opacity:0.3"
     d="m 7.4389293,6.8655955 v 0.349326 0.3493256 h 0.364312 0.3648283 V 7.2149215 6.8655955 H 7.8032413 Z m 0.9720154,0 v 0.349326 0.3493256 H 8.7607869 9.1101132 V 7.2149215 6.8655955 H 8.7607869 Z m 2.0504813,0.6232056 c -0.07367,-0.00126 -0.124376,0.041571 -0.195333,0.1395237 -0.206154,0.2845871 -0.1874,0.6137805 0.05013,0.8779652 0.106362,0.1183005 0.172628,0.1621546 0.299201,0.1989503 0.139987,0.040695 0.172958,0.066272 0.241324,0.1829311 0.05334,0.09102 0.13134,0.1648185 0.237707,0.2258214 0.310362,0.1779981 0.708693,0.089502 0.913622,-0.2030843 0.08213,-0.1172597 0.08601,-0.1345258 0.05012,-0.2211706 -0.05253,-0.1268168 -0.273076,-0.3162773 -0.419605,-0.3601779 -0.19024,-0.056998 -0.291991,-0.044732 -0.55861,0.068728 -0.04564,0.019422 -0.04968,0.0036 -0.03411,-0.147275 0.03209,-0.3109262 -0.13179,-0.5917457 -0.417537,-0.7146708 -0.07007,-0.030145 -0.122711,-0.046786 -0.166912,-0.047542 z M 6.2230064,7.8076384 V 8.17195 8.5367786 H 6.5878347 6.952664 V 8.17195 7.8076384 H 6.5878347 Z m 0.9420427,0 V 8.17195 8.5367786 H 7.5298784 7.8947063 V 8.17195 7.8076384 H 7.5298784 Z m 0.9725326,0 V 8.17195 8.5367786 H 8.487424 8.83675 V 8.17195 7.8076384 H 8.487424 Z m 0.9420426,0 V 8.17195 8.5367786 h 0.364829 0.3648282 V 8.17195 7.8076384 H 9.4444533 Z m -4.0198322,0.9720145 0.01705,0.2077353 c 0.03211,0.3830266 0.19786,0.8484904 0.3901493,1.0965528 0.4132411,0.533095 1.0150964,0.865152 1.8014059,0.993717 0.3531202,0.05774 1.1700223,0.03377 1.5094397,-0.04444 1.1527834,-0.265619 1.857433,-0.999771 1.960049,-2.041179 l 0.02119,-0.2123861 H 7.9091745 Z m 1.1833675,0.4500929 c 0.1270922,0 0.2537263,0.1104277 0.2537263,0.2216876 0,0.084612 -0.0796,0.229059 -0.1384901,0.2516593 -0.07843,0.030097 -0.2070343,0.02006 -0.2594103,-0.020153 C 5.8955394,9.5267373 5.9900674,9.2297463 6.2431596,9.2297458 Z" />
  <path
     id="path16"
     style="opacity:1;fill:url(#linearGradient18);stroke-width:0.0303894"
     d="m 7.4389293,6.3364393 v 0.349326 0.3493256 h 0.364312 0.3648283 V 6.6857653 6.3364393 H 7.8032413 Z m 0.9720154,0 v 0.349326 0.3493256 H 8.7607869 9.1101132 V 6.6857653 6.3364393 H 8.7607869 Z m 2.0504813,0.6232056 c -0.07367,-0.00126 -0.124376,0.041571 -0.195333,0.1395237 -0.206154,0.2845871 -0.1874,0.6137805 0.05013,0.8779652 0.106362,0.1183005 0.172628,0.1621546 0.299201,0.1989503 0.139987,0.040695 0.172958,0.066272 0.241324,0.1829311 0.05334,0.09102 0.13134,0.1648185 0.237707,0.2258214 0.310362,0.1779981 0.708693,0.089502 0.913622,-0.2030843 0.08213,-0.1172597 0.08601,-0.1345258 0.05012,-0.2211706 -0.05253,-0.1268168 -0.273076,-0.3162773 -0.419605,-0.3601779 -0.19024,-0.056998 -0.291991,-0.044732 -0.55861,0.068728 -0.04564,0.019422 -0.04968,0.0036 -0.03411,-0.147275 C 11.077962,7.4109306 10.914082,7.1301111 10.628335,7.007186 10.558265,6.977041 10.505624,6.9604 10.461423,6.959644 Z M 6.2230064,7.2784822 V 7.6427938 8.0076224 H 6.5878347 6.952664 V 7.6427938 7.2784822 H 6.5878347 Z m 0.9420427,0 V 7.6427938 8.0076224 H 7.5298784 7.8947063 V 7.6427938 7.2784822 H 7.5298784 Z m 0.9725326,0 V 7.6427938 8.0076224 H 8.487424 8.83675 V 7.6427938 7.2784822 H 8.487424 Z m 0.9420426,0 v 0.3643116 0.3648286 h 0.364829 0.3648282 V 7.6427938 7.2784822 H 9.4444533 Z m -4.0198322,0.9720145 0.01705,0.2077353 c 0.03211,0.3830266 0.19786,0.8484904 0.3901493,1.0965523 0.4132411,0.5330957 1.0150964,0.8651527 1.8014059,0.9937177 0.3531202,0.05774 1.1700223,0.03377 1.5094397,-0.04444 1.1527834,-0.265619 1.857433,-0.9997712 1.960049,-2.0411792 l 0.02119,-0.2123861 H 7.9091745 Z m 1.1833675,0.4500929 c 0.1270922,0 0.2537263,0.1104277 0.2537263,0.2216876 0,0.084612 -0.0796,0.229059 -0.1384901,0.2516593 -0.07843,0.030097 -0.2070343,0.02006 -0.2594103,-0.020153 C 5.8955394,8.9975811 5.9900674,8.7005901 6.2431596,8.7005896 Z" />
</svg>
