<?xml version="1.0" encoding="UTF-8" standalone="no"?>
<svg
   width="64"
   height="64"
   version="1.1"
   viewBox="0 0 16.933 16.933"
   id="svg7"
   sodipodi:docname="Template 4.svg"
   inkscape:version="1.3.2 (091e20ef0f, 2023-11-25)"
   xmlns:inkscape="http://www.inkscape.org/namespaces/inkscape"
   xmlns:sodipodi="http://sodipodi.sourceforge.net/DTD/sodipodi-0.dtd"
   xmlns:xlink="http://www.w3.org/1999/xlink"
   xmlns="http://www.w3.org/2000/svg"
   xmlns:svg="http://www.w3.org/2000/svg"
   xmlns:rdf="http://www.w3.org/1999/02/22-rdf-syntax-ns#"
   xmlns:cc="http://creativecommons.org/ns#"
   xmlns:dc="http://purl.org/dc/elements/1.1/">
  <sodipodi:namedview
     id="namedview7"
     pagecolor="#9c4444"
     bordercolor="#000000"
     borderopacity="0.25"
     inkscape:showpageshadow="2"
     inkscape:pageopacity="0.0"
     inkscape:pagecheckerboard="0"
     inkscape:deskcolor="#d1d1d1"
     inkscape:zoom="6.15625"
     inkscape:cx="32.893401"
     inkscape:cy="24.365482"
     inkscape:window-width="1463"
     inkscape:window-height="604"
     inkscape:window-x="201"
     inkscape:window-y="171"
     inkscape:window-maximized="0"
     inkscape:current-layer="svg7"
     showgrid="false" />
  <defs
     id="defs2">
    <linearGradient
       id="linearGradient5"
       inkscape:collect="always">
      <stop
         style="stop-color:#392713;stop-opacity:1;"
         offset="0"
         id="stop2" />
      <stop
         style="stop-color:#eed59e;stop-opacity:1;"
         offset="0.5"
         id="stop3" />
      <stop
         style="stop-color:#beaa8a;stop-opacity:1;"
         offset="1"
         id="stop4" />
    </linearGradient>
    <linearGradient
       id="linearGradient8"
       inkscape:collect="always">
      <stop
         style="stop-color:#1a1a1a;stop-opacity:1;"
         offset="0"
         id="stop8" />
      <stop
         style="stop-color:#ffffff;stop-opacity:0;"
         offset="1"
         id="stop9" />
    </linearGradient>
    <linearGradient
       inkscape:collect="always"
       xlink:href="#linearGradient5"
       id="linearGradient41"
       x1="13.675659"
       y1="16.110115"
       x2="13.728528"
       y2="10.548769"
       gradientUnits="userSpaceOnUse"
       gradientTransform="matrix(1.8415377,0,0,1.8415377,-16.067037,-16.178831)" />
    <linearGradient
       inkscape:collect="always"
       xlink:href="#linearGradient42"
       id="linearGradient4"
       x1="11.885941"
       y1="16.50819"
       x2="12.026573"
       y2="10.244942"
       gradientUnits="userSpaceOnUse"
       gradientTransform="matrix(1.8415377,0,0,1.8415377,-16.067037,-16.178831)" />
    <linearGradient
       id="linearGradient42"
       inkscape:collect="always">
      <stop
         style="stop-color:#010101;stop-opacity:1;"
         offset="0"
         id="stop42" />
      <stop
         style="stop-color:#6e6c6d;stop-opacity:1;"
         offset="1"
         id="stop43" />
    </linearGradient>
    <linearGradient
       inkscape:collect="always"
       xlink:href="#linearGradient8"
       id="linearGradient9"
       x1="9.3404646"
       y1="4.1692023"
       x2="9.4279938"
       y2="16.46883"
       gradientUnits="userSpaceOnUse"
       gradientTransform="matrix(0.945,0,0,0.945,0.39894513,0.66338344)" />
    <filter
       style="color-interpolation-filters:sRGB;"
       inkscape:label="Blur"
       id="filter2"
       x="-0.14510849"
       y="-0.14612901"
       width="1.290217"
       height="1.292258">
      <feGaussianBlur
         stdDeviation="0.6 0.6"
         result="blur"
         id="feGaussianBlur2" />
    </filter>
    <linearGradient
       inkscape:collect="always"
       xlink:href="#linearGradient5"
       id="linearGradient7"
       x1="31.895903"
       y1="52.333874"
       x2="32.374077"
       y2="12.810346"
       gradientUnits="userSpaceOnUse"
       gradientTransform="matrix(0.19287745,0,0,0.19287745,2.307181,2.1035536)" />
  </defs>
  <metadata
     id="metadata2">
    <rdf:RDF>
      <cc:Work
         rdf:about="">
        <dc:format>image/svg+xml</dc:format>
        <dc:type
           rdf:resource="http://purl.org/dc/dcmitype/StillImage" />
      </cc:Work>
    </rdf:RDF>
  </metadata>
  <rect
     style="fill:#000000;fill-opacity:0.996424;stroke:#000000;stroke-width:0.911802;stroke-dasharray:none;stroke-opacity:1;filter:url(#filter2)"
     id="rect1-2-3"
     width="13.065404"
     height="12.974159"
     x="1.9816793"
     y="1.9267306"
     rx="2.7149384"
     ry="2.8310909"
     transform="matrix(0.9,0,0,0.9,0.85143817,0.84138103)" />
  <rect
     style="fill:url(#linearGradient4);fill-opacity:0.996424;stroke:url(#linearGradient41);stroke-width:0.820622;stroke-dasharray:none;stroke-opacity:1"
     id="rect1-2"
     width="11.758863"
     height="11.676744"
     x="2.6349494"
     y="2.5754385"
     rx="2.4434445"
     ry="2.5479817" />
  <path
     fill="#f5f7fa"
     d="m 7.3743267,5.795876 c 0.3343887,-0.1566109 0.723707,-0.2463857 1.1392569,-0.2463857 0.4155499,0 0.8048677,0.089775 1.1392566,0.2463857 0.00786,-0.018954 0.019982,-0.036725 0.036384,-0.052019 L 10.334038,5.142518 c 0.06296,-0.058708 0.165023,-0.058708 0.227976,0 0.06296,0.05871 0.06296,0.1538962 0,0.2126055 L 9.9271959,5.9471399 C 10.441381,6.2778 10.770434,6.784936 10.770434,7.3535052 H 6.2567351 c 0,-0.5685692 0.3290522,-1.0757052 0.8432374,-1.4063653 L 6.4651537,5.3551237 c -0.062953,-0.05871 -0.062953,-0.1538961 0,-0.2126055 0.062953,-0.058708 0.1650224,-0.058708 0.2279761,0 l 0.6448144,0.6013387 c 0.0164,0.015293 0.028527,0.033063 0.036383,0.052019 z m 1.461664,5.466325 H 8.1911766 v 1.052328 c 0,0.249092 -0.2164608,0.451018 -0.4836102,0.451018 -0.2670909,0 -0.4836107,-0.201973 -0.4836107,-0.451018 v -1.052328 h -0.644418 c -0.1782792,0 -0.3228026,-0.134854 -0.3228026,-0.300642 V 7.6541741 h 4.5136979 v 3.3073849 c 0,0.16604 -0.144433,0.300642 -0.322803,0.300642 H 9.8032116 v 1.052328 c 0,0.249092 -0.2164612,0.451018 -0.4836109,0.451018 -0.2670908,0 -0.48361,-0.201973 -0.48361,-0.451018 z M 4.9671072,8.1048173 c 0,-0.248884 0.2164612,-0.4506432 0.4836105,-0.4506432 0.2670906,0 0.4836106,0.2022851 0.4836106,0.4506432 v 1.8047351 c 0,0.2488826 -0.2164613,0.4506426 -0.4836106,0.4506426 -0.2670909,0 -0.4836105,-0.202285 -0.4836105,-0.4506426 z m 6.1257318,0 c 0,-0.248884 0.216462,-0.4506432 0.48361,-0.4506432 0.267091,0 0.48361,0.2022851 0.48361,0.4506432 v 1.8047351 c 0,0.2488826 -0.21646,0.4506426 -0.48361,0.4506426 -0.267091,0 -0.48361,-0.202285 -0.48361,-0.4506426 z M 7.5463629,6.7521661 c 0.17806,0 0.3224066,-0.134613 0.3224066,-0.300669 0,-0.1660546 -0.1443466,-0.3006691 -0.3224066,-0.3006691 -0.1780606,0 -0.3224072,0.1346145 -0.3224072,0.3006691 0,0.166056 0.1443466,0.300669 0.3224072,0.300669 z m 1.9344419,0 c 0.1780598,0 0.3224068,-0.134613 0.3224068,-0.300669 0,-0.1660546 -0.144347,-0.3006691 -0.3224068,-0.3006691 -0.1780607,0 -0.3224075,0.1346145 -0.3224075,0.3006691 0,0.166056 0.1443468,0.300669 0.3224075,0.300669 z"
     id="path42-9"
     style="fill:#000000;fill-opacity:1;stroke-width:0.0389188;opacity:0.3" />
  <path
     fill="#f5f7fa"
     d="m 7.3743267,5.2667198 c 0.3343887,-0.1566109 0.723707,-0.2463857 1.1392569,-0.2463857 0.4155499,0 0.8048677,0.089775 1.1392566,0.2463857 0.00786,-0.018954 0.019982,-0.036725 0.036384,-0.052019 l 0.6448138,-0.601339 c 0.06296,-0.058708 0.165023,-0.058708 0.227976,0 0.06296,0.05871 0.06296,0.1538962 0,0.2126055 L 9.9271959,5.4179837 C 10.441381,5.7486438 10.770434,6.2557798 10.770434,6.824349 H 6.2567351 c 0,-0.5685692 0.3290522,-1.0757052 0.8432374,-1.4063653 L 6.4651537,4.8259675 c -0.062953,-0.05871 -0.062953,-0.1538961 0,-0.2126055 0.062953,-0.058708 0.1650224,-0.058708 0.2279761,0 l 0.6448144,0.6013387 c 0.0164,0.015293 0.028527,0.033063 0.036383,0.052019 z m 1.461664,5.4663252 H 8.1911766 v 1.052328 c 0,0.249092 -0.2164608,0.451018 -0.4836102,0.451018 -0.2670909,0 -0.4836107,-0.201973 -0.4836107,-0.451018 v -1.052328 h -0.644418 c -0.1782792,0 -0.3228026,-0.134854 -0.3228026,-0.300642 V 7.1250179 h 4.5136979 v 3.3073851 c 0,0.16604 -0.144433,0.300642 -0.322803,0.300642 H 9.8032116 v 1.052328 c 0,0.249092 -0.2164612,0.451018 -0.4836109,0.451018 -0.2670908,0 -0.48361,-0.201973 -0.48361,-0.451018 z M 4.9671072,7.5756611 c 0,-0.248884 0.2164612,-0.4506432 0.4836105,-0.4506432 0.2670906,0 0.4836106,0.2022851 0.4836106,0.4506432 v 1.8047351 c 0,0.2488827 -0.2164613,0.4506422 -0.4836106,0.4506422 -0.2670909,0 -0.4836105,-0.2022851 -0.4836105,-0.4506422 z m 6.1257318,0 c 0,-0.248884 0.216462,-0.4506432 0.48361,-0.4506432 0.267091,0 0.48361,0.2022851 0.48361,0.4506432 v 1.8047351 c 0,0.2488827 -0.21646,0.4506422 -0.48361,0.4506422 -0.267091,0 -0.48361,-0.2022851 -0.48361,-0.4506422 z M 7.5463629,6.2230099 c 0.17806,0 0.3224066,-0.134613 0.3224066,-0.300669 0,-0.1660546 -0.1443466,-0.3006691 -0.3224066,-0.3006691 -0.1780606,0 -0.3224072,0.1346145 -0.3224072,0.3006691 0,0.166056 0.1443466,0.300669 0.3224072,0.300669 z m 1.9344419,0 c 0.1780598,0 0.3224068,-0.134613 0.3224068,-0.300669 0,-0.1660546 -0.144347,-0.3006691 -0.3224068,-0.3006691 -0.1780607,0 -0.3224075,0.1346145 -0.3224075,0.3006691 0,0.166056 0.1443468,0.300669 0.3224075,0.300669 z"
     id="path42"
     style="fill:url(#linearGradient7);fill-opacity:1;stroke-width:0.0389188" />
  <rect
     style="opacity:0.5;fill:none;fill-opacity:0.996424;stroke:url(#linearGradient9);stroke-width:0.509492;stroke-dasharray:none;stroke-opacity:1"
     id="rect1-2-6"
     width="10.416782"
     height="10.357741"
     x="3.3081555"
     y="3.2367458"
     rx="1.8221684"
     ry="1.856477" />
</svg>
