<?xml version="1.0" encoding="UTF-8" standalone="no"?>
<svg
   width="64"
   height="64"
   version="1.1"
   viewBox="0 0 16.933 16.933"
   id="svg7"
   sodipodi:docname="image-loading.svg"
   inkscape:version="1.3.2 (091e20ef0f, 2023-11-25)"
   xmlns:inkscape="http://www.inkscape.org/namespaces/inkscape"
   xmlns:sodipodi="http://sodipodi.sourceforge.net/DTD/sodipodi-0.dtd"
   xmlns:xlink="http://www.w3.org/1999/xlink"
   xmlns="http://www.w3.org/2000/svg"
   xmlns:svg="http://www.w3.org/2000/svg"
   xmlns:rdf="http://www.w3.org/1999/02/22-rdf-syntax-ns#"
   xmlns:cc="http://creativecommons.org/ns#"
   xmlns:dc="http://purl.org/dc/elements/1.1/">
  <sodipodi:namedview
     id="namedview7"
     pagecolor="#9c4444"
     bordercolor="#000000"
     borderopacity="0.25"
     inkscape:showpageshadow="2"
     inkscape:pageopacity="0.0"
     inkscape:pagecheckerboard="0"
     inkscape:deskcolor="#d1d1d1"
     inkscape:zoom="4.3531261"
     inkscape:cx="47.896614"
     inkscape:cy="25.958357"
     inkscape:window-width="1463"
     inkscape:window-height="604"
     inkscape:window-x="167"
     inkscape:window-y="273"
     inkscape:window-maximized="0"
     inkscape:current-layer="svg7"
     showgrid="false" />
  <defs
     id="defs2">
    <linearGradient
       id="linearGradient5"
       inkscape:collect="always">
      <stop
         style="stop-color:#392713;stop-opacity:1;"
         offset="0"
         id="stop2" />
      <stop
         style="stop-color:#eed59e;stop-opacity:1;"
         offset="0.5"
         id="stop3" />
      <stop
         style="stop-color:#beaa8a;stop-opacity:1;"
         offset="1"
         id="stop4" />
    </linearGradient>
    <linearGradient
       id="linearGradient8"
       inkscape:collect="always">
      <stop
         style="stop-color:#1a1a1a;stop-opacity:1;"
         offset="0"
         id="stop8" />
      <stop
         style="stop-color:#ffffff;stop-opacity:0;"
         offset="1"
         id="stop9" />
    </linearGradient>
    <linearGradient
       inkscape:collect="always"
       xlink:href="#linearGradient5"
       id="linearGradient41"
       x1="13.675659"
       y1="16.110115"
       x2="13.728528"
       y2="10.548769"
       gradientUnits="userSpaceOnUse"
       gradientTransform="matrix(1.6061171,0,0,2.1084059,-12.924569,-19.742698)" />
    <linearGradient
       inkscape:collect="always"
       xlink:href="#linearGradient42"
       id="linearGradient4"
       x1="11.885941"
       y1="16.50819"
       x2="12.026573"
       y2="10.244942"
       gradientUnits="userSpaceOnUse"
       gradientTransform="matrix(1.6061171,0,0,2.1084059,-12.924569,-19.742698)" />
    <linearGradient
       id="linearGradient42"
       inkscape:collect="always">
      <stop
         style="stop-color:#010101;stop-opacity:1;"
         offset="0"
         id="stop42" />
      <stop
         style="stop-color:#6e6c6d;stop-opacity:1;"
         offset="1"
         id="stop43" />
    </linearGradient>
    <linearGradient
       inkscape:collect="always"
       xlink:href="#linearGradient8"
       id="linearGradient9"
       x1="9.3404646"
       y1="4.1692023"
       x2="9.4279938"
       y2="16.46883"
       gradientUnits="userSpaceOnUse"
       gradientTransform="matrix(0.80952478,0,0,1.0980733,1.5663172,-0.59391329)" />
    <filter
       style="color-interpolation-filters:sRGB;"
       inkscape:label="Blur"
       id="filter2"
       x="-0.14510849"
       y="-0.14612901"
       width="1.290217"
       height="1.292258">
      <feGaussianBlur
         stdDeviation="0.6 0.6"
         result="blur"
         id="feGaussianBlur2" />
    </filter>
    <linearGradient
       inkscape:collect="always"
       xlink:href="#linearGradient5"
       id="linearGradient6"
       x1="8.7211227"
       y1="13.145339"
       x2="8.6843271"
       y2="3.7105129"
       gradientUnits="userSpaceOnUse" />
  </defs>
  <metadata
     id="metadata2">
    <rdf:RDF>
      <cc:Work
         rdf:about="">
        <dc:format>image/svg+xml</dc:format>
        <dc:type
           rdf:resource="http://purl.org/dc/dcmitype/StillImage" />
      </cc:Work>
    </rdf:RDF>
  </metadata>
  <rect
     style="fill:#000000;fill-opacity:0.996424;stroke:#000000;stroke-width:0.911802;stroke-dasharray:none;stroke-opacity:1;filter:url(#filter2)"
     id="rect1-2-3"
     width="13.065404"
     height="12.974159"
     x="1.9816793"
     y="1.9267306"
     rx="2.7149384"
     ry="2.8310909"
     transform="matrix(0.78494475,0,0,1.0304244,1.8310625,-0.25598506)" />
  <rect
     style="fill:url(#linearGradient4);fill-opacity:0.996424;stroke:url(#linearGradient41);stroke-width:0.820027;stroke-dasharray:none;stroke-opacity:1"
     id="rect1-2"
     width="10.25562"
     height="13.36889"
     x="3.3865712"
     y="1.7293652"
     rx="2.1310766"
     ry="2.9172251" />
  <path
     style="fill:#000000;stroke-width:0.0747239;opacity:0.3"
     d="m 6.206304,13.388538 c 0,-0.611556 0.1390534,-0.919223 0.5205893,-1.151845 0.2828815,-0.172472 0.5027897,-0.19899 1.6529764,-0.199312 0.7296773,-2.23e-4 1.4134085,-0.04679 1.5194022,-0.103511 0.1113071,-0.05957 0.1927151,-0.207919 0.1927151,-0.351181 0,-0.358544 -0.370978,-0.46351 -1.5443097,-0.436952 -1.571389,0.03558 -1.6992334,0.01902 -2.0348302,-0.263363 -0.25348,-0.213289 -0.3065431,-0.331009 -0.3065431,-0.680063 0,-0.8296072 0.5901886,-1.0924052 2.2417403,-0.9981974 1.2749052,0.072722 1.6439427,-0.016897 1.6439427,-0.3992012 0,-0.1432631 -0.08141,-0.2916121 -0.1927151,-0.3511811 C 9.7932782,8.3970073 9.1193157,8.3505924 8.4015778,8.3505924 c -1.804501,0 -2.1952738,-0.1858602 -2.1952738,-1.0441249 0,-0.8837869 1.2962732,-1.2813916 3.0375263,-0.9316984 0.5583749,0.112138 0.587089,0.1076376 0.7722657,-0.1210448 0.191798,-0.236862 0.1933,-0.3176787 0.02143,-1.1529304 -0.071685,-0.3483553 0.17282,-0.9347836 0.389744,-0.9347836 0.274009,0 0.502539,0.9974361 0.262515,1.1457785 -0.05479,0.033866 -0.09963,0.2781375 -0.09963,0.5428231 0,0.3259726 -0.06161,0.5571377 -0.190912,0.7164582 C 10.212015,6.8017435 10.179817,6.8057206 8.7303934,6.777207 7.3893603,6.7508253 7.2224606,6.766839 6.9286486,6.9501007 6.5546498,7.183375 6.5159621,7.4422721 6.8147295,7.7124452 c 0.187154,0.1692422 0.375124,0.1897992 1.7354217,0.1897992 1.4773748,0 1.5336548,0.00761 1.7827688,0.2415413 0.184276,0.1730313 0.257237,0.3433654 0.257237,0.6005372 0,0.8111745 -0.525745,1.0442836 -2.1224199,0.9410571 -1.4429437,-0.093289 -2.0204063,0.1314727 -1.8017497,0.701283 0.110084,0.286875 0.5059308,0.360558 1.8697443,0.34804 1.7163633,-0.01575 2.0544253,0.12824 2.0544253,0.875054 0,0.734968 -0.571598,0.981061 -2.0488623,0.882104 -1.6122166,-0.107995 -2.1357188,0.145626 -2.1357188,1.034693 0,0.167116 -0.044835,0.303846 -0.099633,0.303846 -0.054798,0 -0.099633,-0.198837 -0.099633,-0.441862 z"
     id="path1-5" />
  <path
     style="fill:url(#linearGradient6);stroke-width:0.0747239"
     d="m 6.206304,12.859382 c 0,-0.611556 0.1390534,-0.919223 0.5205893,-1.151845 0.2828815,-0.172472 0.5027897,-0.19899 1.6529764,-0.199312 0.7296773,-2.23e-4 1.4134085,-0.04679 1.5194022,-0.103511 0.1113071,-0.05957 0.1927151,-0.207919 0.1927151,-0.351181 0,-0.358544 -0.370978,-0.46351 -1.5443097,-0.436952 -1.571389,0.03558 -1.6992334,0.01902 -2.0348302,-0.263363 -0.25348,-0.213289 -0.3065431,-0.331009 -0.3065431,-0.6800631 0,-0.8296073 0.5901886,-1.0924053 2.2417403,-0.9981975 1.2749052,0.072722 1.6439427,-0.016897 1.6439427,-0.3992012 0,-0.1432631 -0.08141,-0.2916121 -0.1927151,-0.3511811 -0.1059937,-0.056724 -0.7799562,-0.103139 -1.4976941,-0.103139 -1.804501,0 -2.1952738,-0.1858601 -2.1952738,-1.0441248 0,-0.8837869 1.2962732,-1.2813916 3.0375263,-0.9316984 0.5583749,0.112138 0.587089,0.1076376 0.7722657,-0.1210448 0.191798,-0.236862 0.1933,-0.3176787 0.02143,-1.1529304 -0.071685,-0.3483553 0.17282,-0.9347836 0.389744,-0.9347836 0.274009,0 0.502539,0.9974361 0.262515,1.1457785 -0.05479,0.033866 -0.09963,0.2781374 -0.09963,0.5428231 0,0.3259726 -0.06161,0.5571377 -0.190912,0.7164582 C 10.212015,6.2725873 10.179817,6.2765644 8.7303934,6.2480508 7.3893603,6.2216691 7.2224606,6.2376828 6.9286486,6.4209445 6.5546498,6.6542188 6.5159621,6.9131159 6.8147295,7.183289 c 0.187154,0.1692422 0.375124,0.1897992 1.7354217,0.1897992 1.4773748,0 1.5336548,0.00761 1.7827688,0.2415412 0.184276,0.1730314 0.257237,0.3433654 0.257237,0.6005372 0,0.8111745 -0.525745,1.0442836 -2.1224199,0.9410572 -1.4429437,-0.093289 -2.0204063,0.1314727 -1.8017497,0.7012826 0.110084,0.2868756 0.5059308,0.3605586 1.8697443,0.3480406 1.7163633,-0.01575 2.0544253,0.12824 2.0544253,0.875054 0,0.734968 -0.571598,0.981061 -2.0488623,0.882104 -1.6122166,-0.107995 -2.1357188,0.145626 -2.1357188,1.034693 0,0.167116 -0.044835,0.303846 -0.099633,0.303846 -0.054798,0 -0.099633,-0.198837 -0.099633,-0.441862 z"
     id="path1" />
  <rect
     style="opacity:0.5;fill:none;fill-opacity:0.996424;stroke:url(#linearGradient9);stroke-width:0.50832;stroke-dasharray:none;stroke-opacity:1"
     id="rect1-2-6"
     width="8.9234324"
     height="12.035513"
     x="4.0584631"
     y="2.3962882"
     rx="1.5176033"
     ry="2.2109985" />
</svg>
