<?xml version="1.0" encoding="UTF-8" standalone="no"?>
<svg
   width="64"
   height="64"
   version="1.1"
   viewBox="0 0 16.933 16.933"
   id="svg7"
   sodipodi:docname="fgh.svg"
   inkscape:version="1.3.2 (091e20ef0f, 2023-11-25)"
   xmlns:inkscape="http://www.inkscape.org/namespaces/inkscape"
   xmlns:sodipodi="http://sodipodi.sourceforge.net/DTD/sodipodi-0.dtd"
   xmlns:xlink="http://www.w3.org/1999/xlink"
   xmlns="http://www.w3.org/2000/svg"
   xmlns:svg="http://www.w3.org/2000/svg"
   xmlns:rdf="http://www.w3.org/1999/02/22-rdf-syntax-ns#"
   xmlns:cc="http://creativecommons.org/ns#"
   xmlns:dc="http://purl.org/dc/elements/1.1/">
  <sodipodi:namedview
     id="namedview7"
     pagecolor="#9c4444"
     bordercolor="#000000"
     borderopacity="0.25"
     inkscape:showpageshadow="2"
     inkscape:pageopacity="0.0"
     inkscape:pagecheckerboard="0"
     inkscape:deskcolor="#d1d1d1"
     inkscape:zoom="4.3531261"
     inkscape:cx="47.896614"
     inkscape:cy="25.958357"
     inkscape:window-width="1463"
     inkscape:window-height="604"
     inkscape:window-x="167"
     inkscape:window-y="273"
     inkscape:window-maximized="0"
     inkscape:current-layer="svg7"
     showgrid="false" />
  <defs
     id="defs2">
    <linearGradient
       id="linearGradient5"
       inkscape:collect="always">
      <stop
         style="stop-color:#392713;stop-opacity:1;"
         offset="0"
         id="stop2" />
      <stop
         style="stop-color:#eed59e;stop-opacity:1;"
         offset="0.5"
         id="stop3" />
      <stop
         style="stop-color:#beaa8a;stop-opacity:1;"
         offset="1"
         id="stop4" />
    </linearGradient>
    <linearGradient
       id="linearGradient8"
       inkscape:collect="always">
      <stop
         style="stop-color:#1a1a1a;stop-opacity:1;"
         offset="0"
         id="stop8" />
      <stop
         style="stop-color:#ffffff;stop-opacity:0;"
         offset="1"
         id="stop9" />
    </linearGradient>
    <linearGradient
       inkscape:collect="always"
       xlink:href="#linearGradient5"
       id="linearGradient41"
       x1="13.675659"
       y1="16.110115"
       x2="13.728528"
       y2="10.548769"
       gradientUnits="userSpaceOnUse"
       gradientTransform="matrix(1.6061171,0,0,2.1084059,-12.924569,-19.742698)" />
    <linearGradient
       inkscape:collect="always"
       xlink:href="#linearGradient42"
       id="linearGradient4"
       x1="11.885941"
       y1="16.50819"
       x2="12.026573"
       y2="10.244942"
       gradientUnits="userSpaceOnUse"
       gradientTransform="matrix(1.6061171,0,0,2.1084059,-12.924569,-19.742698)" />
    <linearGradient
       id="linearGradient42"
       inkscape:collect="always">
      <stop
         style="stop-color:#010101;stop-opacity:1;"
         offset="0"
         id="stop42" />
      <stop
         style="stop-color:#6e6c6d;stop-opacity:1;"
         offset="1"
         id="stop43" />
    </linearGradient>
    <linearGradient
       inkscape:collect="always"
       xlink:href="#linearGradient8"
       id="linearGradient9"
       x1="9.3404646"
       y1="4.1692023"
       x2="9.4279938"
       y2="16.46883"
       gradientUnits="userSpaceOnUse"
       gradientTransform="matrix(0.80952478,0,0,1.0980733,1.5663172,-0.59391329)" />
    <filter
       style="color-interpolation-filters:sRGB;"
       inkscape:label="Blur"
       id="filter2"
       x="-0.14510849"
       y="-0.14612901"
       width="1.290217"
       height="1.292258">
      <feGaussianBlur
         stdDeviation="0.6 0.6"
         result="blur"
         id="feGaussianBlur2" />
    </filter>
    <linearGradient
       inkscape:collect="always"
       xlink:href="#linearGradient5"
       id="linearGradient10"
       x1="8.5485973"
       y1="13.08083"
       x2="8.6324987"
       y2="3.4736416"
       gradientUnits="userSpaceOnUse"
       gradientTransform="matrix(0.9,0,0,0.9,0.85259704,0.83593304)" />
  </defs>
  <metadata
     id="metadata2">
    <rdf:RDF>
      <cc:Work
         rdf:about="">
        <dc:format>image/svg+xml</dc:format>
        <dc:type
           rdf:resource="http://purl.org/dc/dcmitype/StillImage" />
      </cc:Work>
    </rdf:RDF>
  </metadata>
  <rect
     style="fill:#000000;fill-opacity:0.996424;stroke:#000000;stroke-width:0.911802;stroke-dasharray:none;stroke-opacity:1;filter:url(#filter2)"
     id="rect1-2-3"
     width="13.065404"
     height="12.974159"
     x="1.9816793"
     y="1.9267306"
     rx="2.7149384"
     ry="2.8310909"
     transform="matrix(0.78494475,0,0,1.0304244,1.8310625,-0.25598506)" />
  <rect
     style="fill:url(#linearGradient4);fill-opacity:0.996424;stroke:url(#linearGradient41);stroke-width:0.820027;stroke-dasharray:none;stroke-opacity:1"
     id="rect1-2"
     width="10.25562"
     height="13.36889"
     x="3.3865712"
     y="1.7293652"
     rx="2.1310766"
     ry="2.9172251" />
  <path
     style="fill:#000000;stroke-width:0.0138466;opacity:0.3"
     d="M 7.4302178,13.215391 C 7.4624684,13.020194 7.9354722,9.4424172 7.9313409,9.424914 7.9275249,9.40875 7.5881835,9.485448 6.7737767,9.686536 6.1400849,9.8430046 5.6192964,9.9687121 5.6164692,9.9658861 5.6136522,9.9630961 5.6923122,9.6368884 5.7912903,9.2410633 L 5.9712516,8.521383 6.8257149,8.516583 7.6801782,8.511783 7.571149,8.3873579 C 7.1385548,7.8936421 6.8561444,7.3516874 6.7414716,6.7951815 6.6967221,6.5780117 6.6960334,6.1556815 6.7400856,5.9515962 6.8303435,5.5335467 7.0856471,5.1370209 7.4355233,4.8714718 c 0.1646248,-0.1249462 0.4186019,-0.24544 0.6394252,-0.303361 0.156922,-0.041161 0.2218329,-0.04808 0.4510053,-0.04808 0.2291728,0 0.2940838,0.00692 0.4510057,0.04808 0.6715081,0.1761333 1.1904175,0.7139556 1.3348315,1.3834854 0.0443,0.2053897 0.04316,0.5932332 -0.0023,0.8066602 -0.115528,0.5412338 -0.3852792,1.0513848 -0.839602,1.5877478 l -0.1329258,0.1569285 0.8718668,0.00923 0.871864,0.00923 0.179958,0.7196796 c 0.09898,0.395826 0.177646,0.721995 0.174819,0.7248219 -0.0028,0.00279 -0.523616,-0.1228824 -1.157309,-0.279351 C 9.4637562,9.4854543 9.1244134,9.4087581 9.1205987,9.4249221 c -0.00412,0.017505 0.4688715,3.5952789 0.5011231,3.7904759 l 0.00687,0.04154 H 8.5259652 7.4233548 Z M 8.6604395,7.916747 C 9.0680585,7.3906727 9.3244794,6.8610146 9.3509006,6.4905437 9.3828296,6.0428472 9.0875306,5.6653582 8.6462517,5.5897701 8.1571446,5.5059895 7.694001,5.9174417 7.695487,6.4344199 c 8.91e-4,0.3094904 0.1705599,0.7432588 0.4575711,1.1697997 0.1385171,0.2058573 0.3458531,0.4648397 0.3721404,0.4648397 0.00947,0 0.070331,-0.06854 0.135241,-0.1523123 z"
     id="path1-6" />
  <path
     style="fill:url(#linearGradient10);stroke-width:0.0138466"
     d="M 7.4302178,12.686235 C 7.4624684,12.491038 7.9354722,8.913261 7.9313409,8.8957578 7.9275249,8.8795938 7.5881835,8.9562918 6.7737767,9.1573798 6.1400849,9.3138484 5.6192964,9.4395559 5.6164692,9.4367299 5.6136522,9.4339399 5.6923122,9.1077322 5.7912903,8.7119071 l 0.1799613,-0.7196803 0.8544633,-0.0048 0.8544633,-0.0048 L 7.571149,7.8582017 C 7.1385548,7.3644859 6.8561444,6.8225312 6.7414716,6.2660253 6.6967221,6.0488555 6.6960334,5.6265253 6.7400856,5.42244 6.8303435,5.0043905 7.0856471,4.6078647 7.4355233,4.3423156 c 0.1646248,-0.1249462 0.4186019,-0.24544 0.6394252,-0.303361 0.156922,-0.041161 0.2218329,-0.04808 0.4510053,-0.04808 0.2291728,0 0.2940838,0.00692 0.4510057,0.04808 0.6715081,0.1761333 1.1904175,0.7139556 1.3348315,1.3834854 0.0443,0.2053897 0.04316,0.5932332 -0.0023,0.8066602 C 10.193963,6.770334 9.9242118,7.280485 9.469889,7.816848 l -0.1329258,0.1569285 0.8718668,0.00923 0.871864,0.00923 0.179958,0.7196796 c 0.09898,0.395826 0.177646,0.721995 0.174819,0.7248219 -0.0028,0.00279 -0.523616,-0.1228824 -1.157309,-0.279351 C 9.4637562,8.9562981 9.1244134,8.8796019 9.1205987,8.8957659 c -0.00412,0.017505 0.4688715,3.5952791 0.5011231,3.7904761 l 0.00687,0.04154 H 8.5259652 7.4233548 Z M 8.6604395,7.3875908 C 9.0680585,6.8615165 9.3244794,6.3318584 9.3509006,5.9613875 9.3828296,5.513691 9.0875306,5.136202 8.6462517,5.0606139 8.1571446,4.9768333 7.694001,5.3882855 7.695487,5.9052637 c 8.91e-4,0.3094904 0.1705599,0.7432588 0.4575711,1.1697997 0.1385171,0.2058573 0.3458531,0.4648397 0.3721404,0.4648397 0.00947,0 0.070331,-0.06854 0.135241,-0.1523123 z"
     id="path1" />
  <rect
     style="opacity:0.5;fill:none;fill-opacity:0.996424;stroke:url(#linearGradient9);stroke-width:0.50832;stroke-dasharray:none;stroke-opacity:1"
     id="rect1-2-6"
     width="8.9234324"
     height="12.035513"
     x="4.0584631"
     y="2.3962882"
     rx="1.5176033"
     ry="2.2109985" />
</svg>
